<svg width="109" height="96" viewBox="0 0 109 96" fill="none" xmlns="http://www.w3.org/2000/svg">
<path d="M46.5654 4.72356L2.0257 81.8631C1.22116 83.2561 0.797512 84.8364 0.797363 86.445C0.797214 88.0537 1.22056 89.6341 2.02485 91.0272C2.82914 92.4204 3.98602 93.5773 5.37919 94.3816C6.77235 95.1859 8.35271 95.6093 9.96138 95.6091H99.0337C100.642 95.6093 102.223 95.1859 103.616 94.3816C105.009 93.5773 106.166 92.4204 106.97 91.0272C107.774 89.6341 108.198 88.0537 108.198 86.445C108.198 84.8364 107.774 83.2561 106.969 81.8631L62.4344 4.72356C61.6302 3.3308 60.4737 2.17424 59.0809 1.37013C57.6881 0.566027 56.1082 0.1427 54.4999 0.1427C52.8917 0.1427 51.3118 0.566027 49.919 1.37013C48.5262 2.17424 47.3696 3.3308 46.5654 4.72356Z" fill="#FFB400"/>
<path d="M55.0809 28.5151H53.919C51.0586 28.5151 48.7397 30.8339 48.7397 33.6944V58.4505C48.7397 61.3109 51.0586 63.6298 53.919 63.6298H55.0809C57.9413 63.6298 60.2602 61.3109 60.2602 58.4505V33.6944C60.2602 30.8339 57.9413 28.5151 55.0809 28.5151Z" fill="#FCF4D9"/>
<path d="M54.5 83.264C57.6812 83.264 60.2602 80.685 60.2602 77.5037C60.2602 74.3225 57.6812 71.7435 54.5 71.7435C51.3187 71.7435 48.7397 74.3225 48.7397 77.5037C48.7397 80.685 51.3187 83.264 54.5 83.264Z" fill="#FCF4D9"/>
</svg>
