<svg width="60" height="60" viewBox="0 0 60 60" fill="none" xmlns="http://www.w3.org/2000/svg">
<g clip-path="url(#clip0_46_378)">
<path d="M60 30C60 13.4315 46.5685 0 30 0C13.4315 0 0 13.4315 0 30C0 46.5685 13.4315 60 30 60C46.5685 60 60 46.5685 60 30Z" fill="#316FF6"/>
<path d="M24.0527 25.4974L17.2525 27.32C16.4123 27.5447 15.5799 26.9306 15.5164 26.039L15.002 18.8182C14.9586 18.213 15.6207 17.8299 16.1003 18.1835L18.1171 19.6713C23.3315 13.3457 32.4717 12.096 39.1363 17.0152C41.7674 18.9561 43.6391 21.5826 44.687 24.4903C44.9746 25.2888 44.5332 26.1697 43.732 26.3819L41.3625 27.0103C40.6795 27.1911 39.9792 26.8142 39.7185 26.1384C39.006 24.2897 37.7877 22.6237 36.102 21.3803C31.7783 18.1889 25.8931 18.8898 22.3757 22.8144L24.2838 24.2226C24.7635 24.5762 24.6245 25.3452 24.0544 25.4983L24.0527 25.4974ZM42.7458 32.6788L35.9456 34.5015C35.3747 34.6545 35.2366 35.4235 35.7162 35.7771L37.6244 37.1853C34.1061 41.1099 28.2218 41.8109 23.898 38.6194C22.2123 37.376 20.9932 35.71 20.2816 33.8614C20.0209 33.1855 19.3214 32.8077 18.6376 32.9894L16.2681 33.6179C15.4669 33.83 15.0255 34.7109 15.3131 35.5095C16.361 38.4162 18.2327 41.0428 20.8638 42.9845C27.5284 47.9037 36.6686 46.6549 41.883 40.3284L43.8997 41.8162C44.3785 42.1699 45.0406 41.7876 44.998 41.1815L44.4836 33.9607C44.4202 33.0691 43.5878 32.4541 42.7475 32.6797L42.7458 32.6788Z" fill="white"/>
</g>
<defs>
<clipPath id="clip0_46_378">
<rect width="60" height="60" fill="white"/>
</clipPath>
</defs>
</svg>
