<svg width="37" height="39" viewBox="0 0 37 39" fill="none" xmlns="http://www.w3.org/2000/svg">
<path d="M36.7812 9.25V12.0625H0.21875V9.25C0.21875 8.50408 0.515066 7.78871 1.04251 7.26126C1.56996 6.73382 2.28533 6.4375 3.03125 6.4375H7.25V2.21875C7.25 1.84579 7.39816 1.4881 7.66188 1.22438C7.9256 0.960658 8.28329 0.8125 8.65625 0.8125C9.02921 0.8125 9.3869 0.960658 9.65062 1.22438C9.91434 1.4881 10.0625 1.84579 10.0625 2.21875V6.4375H26.9375V2.21875C26.9375 1.84579 27.0857 1.4881 27.3494 1.22438C27.6131 0.960658 27.9708 0.8125 28.3438 0.8125C28.7167 0.8125 29.0744 0.960658 29.3381 1.22438C29.6018 1.4881 29.75 1.84579 29.75 2.21875V6.4375H33.9688C34.7147 6.4375 35.43 6.73382 35.9575 7.26126C36.4849 7.78871 36.7812 8.50408 36.7812 9.25ZM0.21875 14.875H36.7812V35.9688C36.7812 36.7147 36.4849 37.43 35.9575 37.9575C35.43 38.4849 34.7147 38.7812 33.9688 38.7812H3.03125C2.28533 38.7812 1.56996 38.4849 1.04251 37.9575C0.515066 37.43 0.21875 36.7147 0.21875 35.9688V14.875ZM10.5547 24.9297L13.3672 27.6297C13.5001 27.7529 13.5996 27.9079 13.6562 28.0801C13.7128 28.2523 13.7246 28.436 13.6906 28.6141L13.0437 32.4391C13.0095 32.6455 13.0334 32.8573 13.1129 33.0509C13.1924 33.2444 13.3243 33.4119 13.4937 33.5347C13.6632 33.6574 13.8635 33.7304 14.0722 33.7455C14.2808 33.7607 14.4896 33.7173 14.675 33.6203L18.0922 31.8203C18.2556 31.7375 18.4363 31.6944 18.6195 31.6944C18.8028 31.6944 18.9834 31.7375 19.1469 31.8203L22.5641 33.6203C22.7468 33.6992 22.9471 33.7281 23.1447 33.7043C23.3423 33.6804 23.53 33.6046 23.6887 33.4845C23.8474 33.3644 23.9714 33.2043 24.048 33.0207C24.1247 32.837 24.1512 32.6363 24.125 32.4391L23.4781 28.6141C23.4441 28.436 23.456 28.2523 23.5126 28.0801C23.5692 27.9079 23.6686 27.7529 23.8016 27.6297L26.6141 24.9297C26.7614 24.7816 26.8651 24.5958 26.914 24.3927C26.9628 24.1896 26.9548 23.977 26.891 23.7781C26.8271 23.5792 26.7097 23.4017 26.5518 23.2651C26.3938 23.1284 26.2013 23.0378 25.9953 23.0031L22.1562 22.4547C21.9827 22.435 21.8161 22.3753 21.6696 22.2801C21.5232 22.1849 21.4009 22.0569 21.3125 21.9062L19.5969 18.4328C19.5033 18.2463 19.3597 18.0896 19.1821 17.98C19.0046 17.8705 18.8 17.8124 18.5914 17.8124C18.3828 17.8124 18.1782 17.8705 18.0007 17.98C17.8231 18.0896 17.6795 18.2463 17.5859 18.4328L15.8562 21.9062C15.7763 22.07 15.6577 22.2119 15.5107 22.3197C15.3637 22.4275 15.1927 22.4979 15.0125 22.525L11.1875 23.0734C10.9937 23.1138 10.8137 23.204 10.6654 23.3351C10.517 23.4662 10.4054 23.6337 10.3416 23.821C10.2777 24.0084 10.2637 24.2092 10.3011 24.4036C10.3385 24.598 10.4259 24.7793 10.5547 24.9297Z" fill="#DBDBDB"/>
</svg>
