<svg width="44" height="44" viewBox="0 0 44 44" fill="none" xmlns="http://www.w3.org/2000/svg">
<g clip-path="url(#clip0_2115_768)">
<path d="M22 43.9997C14.9064 43.9997 8.20786 40.5486 4.08181 34.7676C3.63031 34.1346 3.77675 33.256 4.40976 32.8037C5.04278 32.3537 5.9229 32.5002 6.37364 33.1324C9.97268 38.1744 15.814 41.1847 22 41.1847C32.579 41.1847 41.1842 32.5787 41.1842 22.0005C41.1842 11.4222 32.579 2.81551 22 2.81551C11.4218 2.81551 2.81578 11.4215 2.81578 21.9997C2.81578 24.4517 3.26652 26.8221 4.15656 29.0643C7.00437 27.4521 8.64182 24.075 10.3639 20.5247C13.0028 15.0846 15.9932 8.9184 24.1103 8.9184C31.4442 8.9184 36.7684 14.5911 36.7684 22.4085C36.7684 30.5821 30.969 36.3265 26.1047 39.7066C25.4671 40.149 24.59 39.9919 24.1462 39.3535C23.7023 38.7144 23.8602 37.8373 24.4993 37.3942C28.8114 34.3969 33.9533 29.3656 33.9533 22.4093C33.9533 16.1249 29.9066 11.7349 24.1118 11.7349C17.758 11.7349 15.5066 16.3781 12.899 21.7549C10.7887 26.1059 8.60674 30.6057 3.90869 32.2607C3.22991 32.4994 2.48326 32.1905 2.17209 31.5445C0.730639 28.5534 0 25.3425 0 22.0005C0 9.86868 9.86896 0.000488281 22 0.000488281C34.131 0.000488281 44 9.86868 44 22.0005C44 34.1323 34.131 43.9997 22 43.9997Z" fill="#316FF6"/>
</g>
<defs>
<clipPath id="clip0_2115_768">
<rect width="44" height="44" fill="white"/>
</clipPath>
</defs>
</svg>
