<svg width="45" height="45" viewBox="0 0 45 45" fill="none" xmlns="http://www.w3.org/2000/svg">
<path d="M35.6836 40.957H31.3598L30.4809 38.3203H14.5191L13.6402 40.957H9.31641C8.58788 40.957 7.99805 41.5469 7.99805 42.2754C7.99805 43.0039 8.58788 43.5938 9.31641 43.5938H35.6836C36.4121 43.5938 37.002 43.0039 37.002 42.2754C37.002 41.5469 36.4121 40.957 35.6836 40.957Z" fill="#DBDBDB"/>
<path d="M35.6836 9.31641C34.9561 9.31641 34.3652 9.90726 34.3652 10.6348C34.3652 11.3623 34.9561 11.9531 35.6836 11.9531C36.4111 11.9531 37.002 11.3623 37.002 10.6348C37.002 9.90726 36.4111 9.31641 35.6836 9.31641Z" fill="#DBDBDB"/>
<path d="M40.957 1.40625H3.95508C1.77429 1.40625 0 3.18054 0 5.36133V27.7734H7.99805V23.8184C7.99805 23.0898 8.58788 22.5 9.31641 22.5H11.3533C11.4896 22.1165 11.6455 21.7402 11.822 21.3708L10.3811 19.9289C9.86607 19.4139 9.86607 18.5796 10.3811 18.0646L14.1095 14.3361C14.6245 13.8211 15.4588 13.8211 15.9738 14.3361L17.4157 15.7781C17.7851 15.6016 18.1611 15.4447 18.5449 15.3081V13.2715C18.5449 12.543 19.1348 11.9531 19.8633 11.9531H25.1367C25.8652 11.9531 26.4551 12.543 26.4551 13.2715V15.3084C26.8386 15.4447 27.2149 15.602 27.5843 15.7781L29.0262 14.3361C29.5412 13.8215 30.3755 13.8215 30.8905 14.3361L34.6189 18.0646C35.1339 18.5796 35.1339 19.4142 34.6189 19.9289L33.178 21.3708C33.3545 21.7406 33.5104 22.1165 33.6467 22.5H35.6836C36.4121 22.5 37.002 23.0898 37.002 23.8184V27.7734H45V5.36133C45 3.18054 43.1378 1.40625 40.957 1.40625ZM35.6836 14.5898C33.5028 14.5898 31.7285 12.8156 31.7285 10.6348C31.7285 8.45398 33.5028 6.67969 35.6836 6.67969C37.8644 6.67969 39.6387 8.45398 39.6387 10.6348C39.6387 12.8156 37.8644 14.5898 35.6836 14.5898Z" fill="#DBDBDB"/>
<path d="M18.5449 26.4551C18.5449 26.9107 18.65 27.3501 18.8007 27.7734H26.1993C26.35 27.3501 26.4551 26.9107 26.4551 26.4551C26.4551 24.2743 24.6808 22.5 22.5 22.5C20.3189 22.5 18.5449 24.2743 18.5449 26.4551Z" fill="#DBDBDB"/>
<path d="M13.6035 24.1479C13.4531 24.7299 12.9278 25.1367 12.3263 25.1367H10.6348V27.7734H16.0816C15.993 27.3391 15.9082 26.9028 15.9082 26.4551C15.9082 22.8207 18.8656 19.8633 22.5 19.8633C26.1344 19.8633 29.0918 22.8207 29.0918 26.4551C29.0918 26.9028 29.007 27.3391 28.9184 27.7734H34.3652V25.1367H32.6737C32.0722 25.1367 31.5469 24.7299 31.3965 24.1479C31.1864 23.3305 30.8582 22.5398 30.4205 21.7982C30.1152 21.2809 30.199 20.6217 30.6237 20.1966L31.8226 18.9967L29.9583 17.1325L28.7584 18.3324C28.3334 18.7588 27.6728 18.8436 27.1555 18.5346C26.4153 18.0983 25.626 17.7687 24.8071 17.5586C24.2252 17.4082 23.8184 16.8829 23.8184 16.2814V14.5898H21.1816V16.2814C21.1816 16.8829 20.7748 17.4082 20.1929 17.5586C19.374 17.7687 18.5847 18.0983 17.8445 18.5346C17.3296 18.8436 16.6676 18.7588 16.2416 18.3324L15.0417 17.1325L13.1774 18.9967L14.3763 20.1966C14.801 20.6217 14.8848 21.2809 14.5795 21.7982C14.1418 22.5398 13.8136 23.3305 13.6035 24.1479Z" fill="#DBDBDB"/>
<path d="M0 31.7285C0 33.9093 1.77429 35.6836 3.95508 35.6836H40.957C43.1378 35.6836 45 33.9093 45 31.7285V30.4102H0V31.7285Z" fill="#DBDBDB"/>
</svg>
