<svg width="24" height="24" viewBox="0 0 24 24" fill="none" xmlns="http://www.w3.org/2000/svg">
<g clip-path="url(#clip0_1149_3091)">
<path d="M19.0312 21.8438H16.7252L16.2565 20.4375H7.74353L7.27478 21.8438H4.96875C4.5802 21.8438 4.26562 22.1583 4.26562 22.5469C4.26562 22.9354 4.5802 23.25 4.96875 23.25H19.0312C19.4198 23.25 19.7344 22.9354 19.7344 22.5469C19.7344 22.1583 19.4198 21.8438 19.0312 21.8438Z" fill="#316FF6"/>
<path d="M19.0312 4.96875C18.6432 4.96875 18.3281 5.28387 18.3281 5.67188C18.3281 6.05988 18.6432 6.375 19.0312 6.375C19.4193 6.375 19.7344 6.05988 19.7344 5.67188C19.7344 5.28387 19.4193 4.96875 19.0312 4.96875Z" fill="#316FF6"/>
<path d="M21.8438 0.75H2.10938C0.946289 0.75 0 1.69629 0 2.85938V14.8125H4.26562V12.7031C4.26562 12.3146 4.5802 12 4.96875 12H6.05511C6.12781 11.7955 6.21094 11.5948 6.30505 11.3978L5.53656 10.6287C5.2619 10.3541 5.2619 9.90912 5.53656 9.63446L7.52509 7.64594C7.79974 7.37128 8.24469 7.37128 8.51935 7.64594L9.28839 8.41498C9.48541 8.32086 9.68591 8.23718 9.89062 8.16431V7.07812C9.89062 6.68958 10.2052 6.375 10.5938 6.375H13.4062C13.7948 6.375 14.1094 6.68958 14.1094 7.07812V8.16449C14.3139 8.23718 14.5146 8.32104 14.7116 8.41498L15.4807 7.64594C15.7553 7.37146 16.2003 7.37146 16.4749 7.64594L18.4634 9.63446C18.7381 9.90912 18.7381 10.3542 18.4634 10.6287L17.6949 11.3978C17.7891 11.595 17.8722 11.7955 17.9449 12H19.0312C19.4198 12 19.7344 12.3146 19.7344 12.7031V14.8125H24V2.85938C24 1.69629 23.0068 0.75 21.8438 0.75ZM19.0312 7.78125C17.8682 7.78125 16.9219 6.83496 16.9219 5.67188C16.9219 4.50879 17.8682 3.5625 19.0312 3.5625C20.1943 3.5625 21.1406 4.50879 21.1406 5.67188C21.1406 6.83496 20.1943 7.78125 19.0312 7.78125Z" fill="#316FF6"/>
<path d="M9.89062 14.1094C9.89062 14.3524 9.94666 14.5867 10.027 14.8125H13.973C14.0533 14.5867 14.1094 14.3524 14.1094 14.1094C14.1094 12.9463 13.1631 12 12 12C10.8367 12 9.89062 12.9463 9.89062 14.1094Z" fill="#316FF6"/>
<path d="M7.25519 12.8789C7.17499 13.1893 6.89484 13.4062 6.57404 13.4062H5.67188V14.8125H8.57684C8.5296 14.5809 8.48438 14.3481 8.48438 14.1094C8.48438 12.171 10.0616 10.5938 12 10.5938C13.9384 10.5938 15.5156 12.171 15.5156 14.1094C15.5156 14.3481 15.4704 14.5809 15.4232 14.8125H18.3281V13.4062H17.426C17.1052 13.4062 16.825 13.1893 16.7448 12.8789C16.6328 12.4429 16.4577 12.0212 16.2242 11.6257C16.0615 11.3498 16.1061 10.9982 16.3326 10.7715L16.972 10.1316L15.9778 9.13733L15.3378 9.77728C15.1111 10.0047 14.7589 10.0499 14.4829 9.88513C14.0881 9.6524 13.6672 9.47662 13.2305 9.36456C12.9201 9.28436 12.7031 9.00421 12.7031 8.68341V7.78125H11.2969V8.68341C11.2969 9.00421 11.0799 9.28436 10.7695 9.36456C10.3328 9.47662 9.91187 9.6524 9.51709 9.88513C9.24243 10.0499 8.8894 10.0047 8.66217 9.77728L8.02222 9.13733L7.02795 10.1316L7.66736 10.7715C7.89386 10.9982 7.93854 11.3498 7.77576 11.6257C7.5423 12.0212 7.36725 12.4429 7.25519 12.8789Z" fill="#316FF6"/>
<path d="M0 16.9219C0 18.085 0.946289 19.0312 2.10938 19.0312H21.8438C23.0068 19.0312 24 18.085 24 16.9219V16.2188H0V16.9219Z" fill="#316FF6"/>
</g>
<defs>
<clipPath id="clip0_1149_3091">
<rect width="24" height="24" fill="white"/>
</clipPath>
</defs>
</svg>
