<svg width="45" height="45" viewBox="0 0 45 45" fill="none" xmlns="http://www.w3.org/2000/svg">
<g clip-path="url(#clip0_2115_740)">
<path d="M21.6214 30.1078C21.6214 23.8408 26.0777 18.5947 31.9889 17.3725V16.5335C31.9889 15.806 31.3985 15.2156 30.671 15.2156H9.32107C8.59359 15.2156 8.00317 15.806 8.00317 16.5335V19.8721H7.11508C3.19619 19.8721 0.00793457 23.0604 0.00793457 26.9793V30.8642C0.00793457 34.7831 3.19619 37.9713 7.11508 37.9713H8.00317V39.3059C8.00317 42.446 10.5573 45.0001 13.6974 45.0001H26.2947C28.2162 45.0001 29.918 44.0442 30.9495 42.5822C25.5628 40.9927 21.6214 36.0023 21.6214 30.1078ZM7.11508 35.3355C4.64956 35.3355 2.64373 33.3296 2.64373 30.8641V26.9792C2.64373 24.5137 4.64956 22.5078 7.11508 22.5078H8.00317V35.3354H7.11508V35.3355Z" fill="#DBDBDB"/>
<path d="M12.6565 8.62165C12.2067 9.19696 12.3006 10.039 12.8856 10.4837C13.4736 10.9419 14.3248 10.8184 14.7585 10.2121C15.4887 9.24704 16.4319 6.81569 14.7762 4.52088C14.423 4.03151 14.3402 3.56418 14.5155 3.05029C14.6739 2.58569 14.9741 2.26948 14.9741 2.26948C15.5021 1.75998 15.5163 0.910992 14.9971 0.389983C14.4796 -0.133046 13.6311 -0.128653 13.1179 0.398154C12.1972 1.31137 10.9122 3.67058 12.6388 6.06326C13.5421 7.31535 12.6565 8.62165 12.6565 8.62165Z" fill="#DBDBDB"/>
<path d="M25.1558 8.62165C24.7059 9.19696 24.7999 10.039 25.3848 10.4837C25.9729 10.9419 26.8241 10.8184 27.2577 10.2121C27.9879 9.24704 28.9312 6.81569 27.2755 4.52088C26.9223 4.03151 26.8394 3.56418 27.0147 3.05029C27.1731 2.58569 27.4734 2.26948 27.4734 2.26948C28.0014 1.75998 28.0155 0.910992 27.4964 0.389983C26.9789 -0.133046 26.1303 -0.128653 25.6171 0.398154C24.6965 1.31137 23.4115 3.67058 25.138 6.06326C26.0414 7.31535 25.1558 8.62165 25.1558 8.62165Z" fill="#DBDBDB"/>
<path d="M18.8529 8.6217C18.4031 9.19718 18.4971 10.0389 19.0823 10.4834C19.3529 10.6952 19.6797 10.7822 19.996 10.7558C20.3659 10.7259 20.7208 10.5388 20.9545 10.212C21.6847 9.24726 22.6283 6.8153 20.973 4.52041C20.6198 4.03103 20.5363 3.56449 20.7121 3.05052C20.8702 2.58574 21.1707 2.26944 21.1707 2.26944C21.6987 1.75986 21.7128 0.911131 21.1935 0.390122C20.8693 0.0624056 20.416 -0.0588408 19.996 0.0263832C19.7456 0.0764632 19.5066 0.200345 19.3142 0.39803C18.3934 1.31089 17.1089 3.67081 18.8354 6.06323C19.7386 7.31523 18.8529 8.6217 18.8529 8.6217Z" fill="#DBDBDB"/>
<path d="M34.6247 19.7404C28.9076 19.7404 24.2572 24.3908 24.2572 30.1078C24.2572 35.8248 28.9076 40.4753 34.6247 40.4753C40.3417 40.4753 44.9921 35.8248 44.9921 30.1078C44.9921 24.3908 40.3417 19.7404 34.6247 19.7404ZM35.9425 30.1078C35.9425 30.8353 35.3521 31.4257 34.6247 31.4257H31.7253C30.9978 31.4257 30.4074 30.8353 30.4074 30.1078C30.4074 29.3803 30.9978 28.7899 31.7253 28.7899H33.3068V26.3298C33.3068 25.6024 33.8972 25.0119 34.6247 25.0119C35.3521 25.0119 35.9425 25.6024 35.9425 26.3298V30.1078Z" fill="#DBDBDB"/>
</g>
<defs>
<clipPath id="clip0_2115_740">
<rect width="45" height="45" fill="white"/>
</clipPath>
</defs>
</svg>
