<svg width="140" height="140" viewBox="0 0 140 140" fill="none" xmlns="http://www.w3.org/2000/svg">
<path d="M48.8 91.375C42.8446 91.375 38 96.4215 38 102.625V106.375H74V102.625C74 96.4215 69.1554 91.375 63.2 91.375H48.8Z" fill="#131F75"/>
<path d="M55 77.375C61.0751 77.375 66 72.4501 66 66.375C66 60.2999 61.0751 55.375 55 55.375C48.9249 55.375 44 60.2999 44 66.375C44 72.4501 48.9249 77.375 55 77.375Z" fill="#131F75"/>
<path d="M30.6075 102.725C30.6075 92.6624 38.6649 84.475 48.5676 84.475H55.7517C45.8489 84.475 37.7916 76.2876 37.7916 66.225C37.7916 56.1624 45.8489 47.975 55.7517 47.975C65.6544 47.975 73.7118 56.1624 73.7118 66.225C73.7118 76.2876 65.6544 84.475 55.7517 84.475H62.9357C72.8384 84.475 80.8958 92.6624 80.8958 102.725V106.375H124V47.975H96.9581L73.7118 59.7876V33.375H16V106.375H30.6075V102.725Z" fill="#131F75"/>
<path d="M8 117.125C8 123.338 12.8794 128.375 18.8984 128.375H120.859C126.878 128.375 132 123.338 132 117.125V113.375H8V117.125Z" fill="#131F75"/>
<path d="M80 48.375L94.7867 40.975H132V11.375H80V48.375ZM116.967 22.475H124.36V29.875H116.967V22.475ZM102.18 22.475H109.573V29.875H102.18V22.475ZM87.3934 22.475H94.7867V29.875H87.3934V22.475Z" fill="#131F75"/>
</svg>
