<svg width="508" height="271" viewBox="0 0 508 271" fill="none" xmlns="http://www.w3.org/2000/svg">
<g clip-path="url(#clip0_1149_1981)">
<path d="M233.955 255.69H-51.1811C-55.8281 255.69 -59.6097 253.303 -59.6097 250.37V-2.63173C-59.6097 -5.56504 -55.8281 -7.95215 -51.1811 -7.95215H233.955C238.601 -7.95215 242.382 -5.56504 242.382 -2.63173V250.37C242.382 253.303 238.601 255.69 233.955 255.69ZM-51.1811 -7.71819C-55.6258 -7.71819 -59.2406 -5.43641 -59.2406 -2.6308V250.371C-59.2406 253.176 -55.6258 255.458 -51.1811 255.458H233.955C238.398 255.458 242.013 253.176 242.013 250.371V-2.63173C242.013 -5.43641 238.398 -7.71912 233.955 -7.71912L-51.1811 -7.71819Z" fill="#EBEBEB"/>
<path d="M553.345 255.69H268.21C263.563 255.69 259.783 253.303 259.783 250.37V-2.63173C259.783 -5.56504 263.565 -7.95215 268.21 -7.95215H553.345C557.994 -7.95215 561.774 -5.56504 561.774 -2.63173V250.37C561.775 253.303 557.994 255.69 553.345 255.69ZM268.21 -7.71819C263.767 -7.71819 260.152 -5.43641 260.152 -2.6308V250.371C260.152 253.176 263.767 255.458 268.21 255.458H553.345C557.79 255.458 561.405 253.176 561.405 250.371V-2.63173C561.405 -5.43641 557.79 -7.71912 553.345 -7.71912L268.21 -7.71819Z" fill="#EBEBEB"/>
<path d="M497.264 53.3428H246.951V230.363H497.264V53.3428Z" fill="#EBEBEB"/>
<path d="M492.351 56.1978H246.951V227.228H492.351V56.1978Z" fill="#FAFAFA"/>
<path d="M483.285 146.976V134.96H477.846V126.949H470.594V114.933H468.781V126.949H461.528V134.96H456.09V146.976H446.118V150.41H441.585V163.572H440.679V144.688H437.959V156.705H435.239V128.093H433.426V140.111H426.174V136.104H423.454V119.51H418.016V102.916H416.203V105.204H379.036V98.3376H372.691V72.0161H369.971V98.3376H360.906V105.204H357.279V139.538H338.242V129.238H344.588V127.522H338.242V124.66H320.112V98.3376H315.579V94.3324H293.824V98.3376H291.104V134.96H281.132V151.555H275.694V138.394H271.16V134.96H261.189V122.943H255.749V114.933H249.404V102.916H246.951V227.227H492.35V146.976H483.285Z" fill="#F0F0F0"/>
<path d="M395.484 106.999H392.916V108.619H395.484V106.999Z" fill="#FAFAFA"/>
<path d="M395.484 109.717H392.916V111.338H395.484V109.717Z" fill="#FAFAFA"/>
<path d="M395.484 120.589H392.916V122.211H395.484V120.589Z" fill="#FAFAFA"/>
<path d="M395.484 123.307H392.916V124.928H395.484V123.307Z" fill="#FAFAFA"/>
<path d="M395.484 126.025H392.916V127.647H395.484V126.025Z" fill="#FAFAFA"/>
<path d="M395.484 134.18H392.916V135.802H395.484V134.18Z" fill="#FAFAFA"/>
<path d="M395.484 136.898H392.916V138.519H395.484V136.898Z" fill="#FAFAFA"/>
<path d="M391.404 117.871H388.836V119.493H391.404V117.871Z" fill="#FAFAFA"/>
<path d="M391.404 120.589H388.836V122.211H391.404V120.589Z" fill="#FAFAFA"/>
<path d="M391.404 123.307H388.836V124.928H391.404V123.307Z" fill="#FAFAFA"/>
<path d="M391.404 126.025H388.836V127.647H391.404V126.025Z" fill="#FAFAFA"/>
<path d="M391.404 128.743H388.836V130.364H391.404V128.743Z" fill="#FAFAFA"/>
<path d="M391.404 134.18H388.836V135.802H391.404V134.18Z" fill="#FAFAFA"/>
<path d="M391.404 136.898H388.836V138.519H391.404V136.898Z" fill="#FAFAFA"/>
<path d="M387.326 106.999H384.758V108.619H387.326V106.999Z" fill="#FAFAFA"/>
<path d="M387.326 109.717H384.758V111.338H387.326V109.717Z" fill="#FAFAFA"/>
<path d="M387.326 112.435H384.758V114.056H387.326V112.435Z" fill="#FAFAFA"/>
<path d="M387.326 115.153H384.758V116.774H387.326V115.153Z" fill="#FAFAFA"/>
<path d="M387.326 117.871H384.758V119.493H387.326V117.871Z" fill="#FAFAFA"/>
<path d="M387.326 120.589H384.758V122.211H387.326V120.589Z" fill="#FAFAFA"/>
<path d="M387.326 123.307H384.758V124.928H387.326V123.307Z" fill="#FAFAFA"/>
<path d="M387.326 126.025H384.758V127.647H387.326V126.025Z" fill="#FAFAFA"/>
<path d="M387.326 128.743H384.758V130.364H387.326V128.743Z" fill="#FAFAFA"/>
<path d="M387.326 131.462H384.758V133.083H387.326V131.462Z" fill="#FAFAFA"/>
<path d="M387.326 136.898H384.758V138.519H387.326V136.898Z" fill="#FAFAFA"/>
<path d="M383.246 106.999H380.678V108.619H383.246V106.999Z" fill="#FAFAFA"/>
<path d="M383.246 109.717H380.678V111.338H383.246V109.717Z" fill="#FAFAFA"/>
<path d="M383.246 112.435H380.678V114.056H383.246V112.435Z" fill="#FAFAFA"/>
<path d="M383.246 115.153H380.678V116.774H383.246V115.153Z" fill="#FAFAFA"/>
<path d="M383.246 117.871H380.678V119.493H383.246V117.871Z" fill="#FAFAFA"/>
<path d="M383.246 120.589H380.678V122.211H383.246V120.589Z" fill="#FAFAFA"/>
<path d="M383.246 123.307H380.678V124.928H383.246V123.307Z" fill="#FAFAFA"/>
<path d="M383.246 147.77H380.678V149.392H383.246V147.77Z" fill="#FAFAFA"/>
<path d="M379.167 106.999H376.599V108.619H379.167V106.999Z" fill="#FAFAFA"/>
<path d="M379.167 109.717H376.599V111.338H379.167V109.717Z" fill="#FAFAFA"/>
<path d="M379.167 112.435H376.599V114.056H379.167V112.435Z" fill="#FAFAFA"/>
<path d="M379.167 115.153H376.599V116.774H379.167V115.153Z" fill="#FAFAFA"/>
<path d="M379.167 117.871H376.599V119.493H379.167V117.871Z" fill="#FAFAFA"/>
<path d="M379.167 120.589H376.599V122.211H379.167V120.589Z" fill="#FAFAFA"/>
<path d="M379.167 123.307H376.599V124.928H379.167V123.307Z" fill="#FAFAFA"/>
<path d="M379.167 126.025H376.599V127.647H379.167V126.025Z" fill="#FAFAFA"/>
<path d="M379.167 142.334H376.599V143.956H379.167V142.334Z" fill="#FAFAFA"/>
<path d="M379.167 145.052H376.599V146.673H379.167V145.052Z" fill="#FAFAFA"/>
<path d="M379.167 147.77H376.599V149.392H379.167V147.77Z" fill="#FAFAFA"/>
<path d="M379.167 150.488H376.599V152.11H379.167V150.488Z" fill="#FAFAFA"/>
<path d="M379.167 161.36H376.599V162.981H379.167V161.36Z" fill="#FAFAFA"/>
<path d="M375.087 106.999H372.52V108.619H375.087V106.999Z" fill="#FAFAFA"/>
<path d="M375.087 109.717H372.52V111.338H375.087V109.717Z" fill="#FAFAFA"/>
<path d="M375.087 112.435H372.52V114.056H375.087V112.435Z" fill="#FAFAFA"/>
<path d="M375.087 115.153H372.52V116.774H375.087V115.153Z" fill="#FAFAFA"/>
<path d="M375.087 117.871H372.52V119.493H375.087V117.871Z" fill="#FAFAFA"/>
<path d="M375.087 120.589H372.52V122.211H375.087V120.589Z" fill="#FAFAFA"/>
<path d="M375.087 123.307H372.52V124.928H375.087V123.307Z" fill="#FAFAFA"/>
<path d="M375.087 126.025H372.52V127.647H375.087V126.025Z" fill="#FAFAFA"/>
<path d="M375.087 128.743H372.52V130.364H375.087V128.743Z" fill="#FAFAFA"/>
<path d="M375.087 131.462H372.52V133.083H375.087V131.462Z" fill="#FAFAFA"/>
<path d="M375.087 139.616H372.52V141.238H375.087V139.616Z" fill="#FAFAFA"/>
<path d="M375.087 142.334H372.52V143.956H375.087V142.334Z" fill="#FAFAFA"/>
<path d="M375.087 145.052H372.52V146.673H375.087V145.052Z" fill="#FAFAFA"/>
<path d="M375.087 147.77H372.52V149.392H375.087V147.77Z" fill="#FAFAFA"/>
<path d="M375.087 150.488H372.52V152.11H375.087V150.488Z" fill="#FAFAFA"/>
<path d="M375.087 161.36H372.52V162.981H375.087V161.36Z" fill="#FAFAFA"/>
<path d="M371.008 106.999H368.44V108.619H371.008V106.999Z" fill="#FAFAFA"/>
<path d="M371.008 109.717H368.44V111.338H371.008V109.717Z" fill="#FAFAFA"/>
<path d="M371.008 112.435H368.44V114.056H371.008V112.435Z" fill="#FAFAFA"/>
<path d="M371.008 115.153H368.44V116.774H371.008V115.153Z" fill="#FAFAFA"/>
<path d="M371.008 117.871H368.44V119.493H371.008V117.871Z" fill="#FAFAFA"/>
<path d="M371.008 120.589H368.44V122.211H371.008V120.589Z" fill="#FAFAFA"/>
<path d="M371.008 123.307H368.44V124.928H371.008V123.307Z" fill="#FAFAFA"/>
<path d="M371.008 126.025H368.44V127.647H371.008V126.025Z" fill="#FAFAFA"/>
<path d="M371.008 128.743H368.44V130.364H371.008V128.743Z" fill="#FAFAFA"/>
<path d="M371.008 131.462H368.44V133.083H371.008V131.462Z" fill="#FAFAFA"/>
<path d="M371.008 134.18H368.44V135.802H371.008V134.18Z" fill="#FAFAFA"/>
<path d="M371.008 136.898H368.44V138.519H371.008V136.898Z" fill="#FAFAFA"/>
<path d="M371.008 139.616H368.44V141.238H371.008V139.616Z" fill="#FAFAFA"/>
<path d="M371.008 142.334H368.44V143.956H371.008V142.334Z" fill="#FAFAFA"/>
<path d="M371.008 145.052H368.44V146.673H371.008V145.052Z" fill="#FAFAFA"/>
<path d="M371.008 147.77H368.44V149.392H371.008V147.77Z" fill="#FAFAFA"/>
<path d="M371.008 150.488H368.44V152.11H371.008V150.488Z" fill="#FAFAFA"/>
<path d="M371.008 153.206H368.44V154.827H371.008V153.206Z" fill="#FAFAFA"/>
<path d="M366.929 106.999H364.361V108.619H366.929V106.999Z" fill="#FAFAFA"/>
<path d="M366.929 109.717H364.361V111.338H366.929V109.717Z" fill="#FAFAFA"/>
<path d="M366.929 112.435H364.361V114.056H366.929V112.435Z" fill="#FAFAFA"/>
<path d="M366.929 115.153H364.361V116.774H366.929V115.153Z" fill="#FAFAFA"/>
<path d="M366.929 117.871H364.361V119.493H366.929V117.871Z" fill="#FAFAFA"/>
<path d="M366.929 120.589H364.361V122.211H366.929V120.589Z" fill="#FAFAFA"/>
<path d="M366.929 123.307H364.361V124.928H366.929V123.307Z" fill="#FAFAFA"/>
<path d="M366.929 126.025H364.361V127.647H366.929V126.025Z" fill="#FAFAFA"/>
<path d="M366.929 128.743H364.361V130.364H366.929V128.743Z" fill="#FAFAFA"/>
<path d="M366.929 131.462H364.361V133.083H366.929V131.462Z" fill="#FAFAFA"/>
<path d="M366.929 139.616H364.361V141.238H366.929V139.616Z" fill="#FAFAFA"/>
<path d="M366.929 142.334H364.361V143.956H366.929V142.334Z" fill="#FAFAFA"/>
<path d="M366.929 145.052H364.361V146.673H366.929V145.052Z" fill="#FAFAFA"/>
<path d="M366.929 147.77H364.361V149.392H366.929V147.77Z" fill="#FAFAFA"/>
<path d="M362.849 106.999H360.281V108.619H362.849V106.999Z" fill="#FAFAFA"/>
<path d="M362.849 109.717H360.281V111.338H362.849V109.717Z" fill="#FAFAFA"/>
<path d="M362.849 112.435H360.281V114.056H362.849V112.435Z" fill="#FAFAFA"/>
<path d="M362.849 115.153H360.281V116.774H362.849V115.153Z" fill="#FAFAFA"/>
<path d="M362.849 117.871H360.281V119.493H362.849V117.871Z" fill="#FAFAFA"/>
<path d="M362.849 120.589H360.281V122.211H362.849V120.589Z" fill="#FAFAFA"/>
<path d="M362.849 123.307H360.281V124.928H362.849V123.307Z" fill="#FAFAFA"/>
<path d="M362.849 126.025H360.281V127.647H362.849V126.025Z" fill="#FAFAFA"/>
<path d="M362.849 128.743H360.281V130.364H362.849V128.743Z" fill="#FAFAFA"/>
<path d="M362.849 131.462H360.281V133.083H362.849V131.462Z" fill="#FAFAFA"/>
<path d="M362.849 139.616H360.281V141.238H362.849V139.616Z" fill="#FAFAFA"/>
<path d="M362.849 142.334H360.281V143.956H362.849V142.334Z" fill="#FAFAFA"/>
<path d="M362.849 145.052H360.281V146.673H362.849V145.052Z" fill="#FAFAFA"/>
<path d="M316.921 99.9419H314.352V101.563H316.921V99.9419Z" fill="#FAFAFA"/>
<path d="M316.921 102.66H314.352V104.281H316.921V102.66Z" fill="#FAFAFA"/>
<path d="M316.921 105.378H314.352V106.999H316.921V105.378Z" fill="#FAFAFA"/>
<path d="M316.921 108.096H314.352V109.717H316.921V108.096Z" fill="#FAFAFA"/>
<path d="M316.921 110.814H314.352V112.436H316.921V110.814Z" fill="#FAFAFA"/>
<path d="M316.921 113.532H314.352V115.153H316.921V113.532Z" fill="#FAFAFA"/>
<path d="M316.921 116.25H314.352V117.871H316.921V116.25Z" fill="#FAFAFA"/>
<path d="M316.921 118.968H314.352V120.589H316.921V118.968Z" fill="#FAFAFA"/>
<path d="M316.921 127.122H314.352V128.743H316.921V127.122Z" fill="#FAFAFA"/>
<path d="M316.921 129.84H314.352V131.461H316.921V129.84Z" fill="#FAFAFA"/>
<path d="M312.841 99.9419H310.272V101.563H312.841V99.9419Z" fill="#FAFAFA"/>
<path d="M312.841 102.66H310.272V104.281H312.841V102.66Z" fill="#FAFAFA"/>
<path d="M312.841 105.378H310.272V106.999H312.841V105.378Z" fill="#FAFAFA"/>
<path d="M312.841 108.096H310.272V109.717H312.841V108.096Z" fill="#FAFAFA"/>
<path d="M312.841 110.814H310.272V112.436H312.841V110.814Z" fill="#FAFAFA"/>
<path d="M312.841 113.532H310.272V115.153H312.841V113.532Z" fill="#FAFAFA"/>
<path d="M312.841 116.25H310.272V117.871H312.841V116.25Z" fill="#FAFAFA"/>
<path d="M312.841 118.968H310.272V120.589H312.841V118.968Z" fill="#FAFAFA"/>
<path d="M312.841 129.84H310.272V131.461H312.841V129.84Z" fill="#FAFAFA"/>
<path d="M308.762 99.9419H306.192V101.563H308.762V99.9419Z" fill="#FAFAFA"/>
<path d="M308.762 102.66H306.192V104.281H308.762V102.66Z" fill="#FAFAFA"/>
<path d="M308.762 105.378H306.192V106.999H308.762V105.378Z" fill="#FAFAFA"/>
<path d="M308.762 108.096H306.192V109.717H308.762V108.096Z" fill="#FAFAFA"/>
<path d="M308.762 110.814H306.192V112.436H308.762V110.814Z" fill="#FAFAFA"/>
<path d="M308.762 113.532H306.192V115.153H308.762V113.532Z" fill="#FAFAFA"/>
<path d="M308.762 116.25H306.192V117.871H308.762V116.25Z" fill="#FAFAFA"/>
<path d="M308.762 118.968H306.192V120.589H308.762V118.968Z" fill="#FAFAFA"/>
<path d="M304.683 99.9419H302.114V101.563H304.683V99.9419Z" fill="#FAFAFA"/>
<path d="M304.683 102.66H302.114V104.281H304.683V102.66Z" fill="#FAFAFA"/>
<path d="M304.683 105.378H302.114V106.999H304.683V105.378Z" fill="#FAFAFA"/>
<path d="M304.683 108.096H302.114V109.717H304.683V108.096Z" fill="#FAFAFA"/>
<path d="M304.683 110.814H302.114V112.436H304.683V110.814Z" fill="#FAFAFA"/>
<path d="M304.683 113.532H302.114V115.153H304.683V113.532Z" fill="#FAFAFA"/>
<path d="M304.683 118.968H302.114V120.589H304.683V118.968Z" fill="#FAFAFA"/>
<path d="M304.683 121.686H302.114V123.306H304.683V121.686Z" fill="#FAFAFA"/>
<path d="M304.683 129.84H302.114V131.461H304.683V129.84Z" fill="#FAFAFA"/>
<path d="M304.683 132.558H302.114V134.179H304.683V132.558Z" fill="#FAFAFA"/>
<path d="M304.683 135.275H302.114V136.896H304.683V135.275Z" fill="#FAFAFA"/>
<path d="M304.683 137.994H302.114V139.615H304.683V137.994Z" fill="#FAFAFA"/>
<path d="M304.683 140.712H302.114V142.333H304.683V140.712Z" fill="#FAFAFA"/>
<path d="M304.683 143.431H302.114V145.052H304.683V143.431Z" fill="#FAFAFA"/>
<path d="M304.683 146.149H302.114V147.77H304.683V146.149Z" fill="#FAFAFA"/>
<path d="M300.603 99.9419H298.034V101.563H300.603V99.9419Z" fill="#FAFAFA"/>
<path d="M300.603 102.66H298.034V104.281H300.603V102.66Z" fill="#FAFAFA"/>
<path d="M300.603 105.378H298.034V106.999H300.603V105.378Z" fill="#FAFAFA"/>
<path d="M300.603 108.096H298.034V109.717H300.603V108.096Z" fill="#FAFAFA"/>
<path d="M300.603 110.814H298.034V112.436H300.603V110.814Z" fill="#FAFAFA"/>
<path d="M300.603 113.532H298.034V115.153H300.603V113.532Z" fill="#FAFAFA"/>
<path d="M300.603 121.686H298.034V123.306H300.603V121.686Z" fill="#FAFAFA"/>
<path d="M300.603 124.404H298.034V126.025H300.603V124.404Z" fill="#FAFAFA"/>
<path d="M300.603 127.122H298.034V128.743H300.603V127.122Z" fill="#FAFAFA"/>
<path d="M300.603 129.84H298.034V131.461H300.603V129.84Z" fill="#FAFAFA"/>
<path d="M300.603 132.558H298.034V134.179H300.603V132.558Z" fill="#FAFAFA"/>
<path d="M300.603 135.275H298.034V136.896H300.603V135.275Z" fill="#FAFAFA"/>
<path d="M300.603 137.994H298.034V139.615H300.603V137.994Z" fill="#FAFAFA"/>
<path d="M300.603 140.712H298.034V142.333H300.603V140.712Z" fill="#FAFAFA"/>
<path d="M300.603 143.431H298.034V145.052H300.603V143.431Z" fill="#FAFAFA"/>
<path d="M300.603 146.149H298.034V147.77H300.603V146.149Z" fill="#FAFAFA"/>
<path d="M300.603 148.867H298.034V150.488H300.603V148.867Z" fill="#FAFAFA"/>
<path d="M300.603 154.303H298.034V155.924H300.603V154.303Z" fill="#FAFAFA"/>
<path d="M296.525 99.9419H293.955V101.563H296.525V99.9419Z" fill="#FAFAFA"/>
<path d="M296.525 102.66H293.955V104.281H296.525V102.66Z" fill="#FAFAFA"/>
<path d="M296.525 105.378H293.955V106.999H296.525V105.378Z" fill="#FAFAFA"/>
<path d="M296.525 108.096H293.955V109.717H296.525V108.096Z" fill="#FAFAFA"/>
<path d="M296.525 110.814H293.955V112.436H296.525V110.814Z" fill="#FAFAFA"/>
<path d="M296.525 113.532H293.955V115.153H296.525V113.532Z" fill="#FAFAFA"/>
<path d="M296.525 121.686H293.955V123.306H296.525V121.686Z" fill="#FAFAFA"/>
<path d="M296.525 124.404H293.955V126.025H296.525V124.404Z" fill="#FAFAFA"/>
<path d="M296.525 127.122H293.955V128.743H296.525V127.122Z" fill="#FAFAFA"/>
<path d="M296.525 129.84H293.955V131.461H296.525V129.84Z" fill="#FAFAFA"/>
<path d="M296.525 137.994H293.955V139.615H296.525V137.994Z" fill="#FAFAFA"/>
<path d="M296.525 140.712H293.955V142.333H296.525V140.712Z" fill="#FAFAFA"/>
<path d="M296.525 143.431H293.955V145.052H296.525V143.431Z" fill="#FAFAFA"/>
<path d="M296.525 146.149H293.955V147.77H296.525V146.149Z" fill="#FAFAFA"/>
<path d="M296.525 148.867H293.955V150.488H296.525V148.867Z" fill="#FAFAFA"/>
<path d="M296.525 154.303H293.955V155.924H296.525V154.303Z" fill="#FAFAFA"/>
<path d="M296.525 157.021H293.955V158.642H296.525V157.021Z" fill="#FAFAFA"/>
<path d="M259.507 125.215H256.939V126.836H259.507V125.215Z" fill="#FAFAFA"/>
<path d="M259.507 127.933H256.939V129.554H259.507V127.933Z" fill="#FAFAFA"/>
<path d="M259.507 130.651H256.939V132.272H259.507V130.651Z" fill="#FAFAFA"/>
<path d="M259.507 133.369H256.939V134.99H259.507V133.369Z" fill="#FAFAFA"/>
<path d="M259.507 136.087H256.939V137.708H259.507V136.087Z" fill="#FAFAFA"/>
<path d="M259.507 138.805H256.939V140.426H259.507V138.805Z" fill="#FAFAFA"/>
<path d="M259.507 141.523H256.939V143.144H259.507V141.523Z" fill="#FAFAFA"/>
<path d="M259.507 149.677H256.939V151.298H259.507V149.677Z" fill="#FAFAFA"/>
<path d="M259.507 152.395H256.939V154.016H259.507V152.395Z" fill="#FAFAFA"/>
<path d="M259.507 155.113H256.939V156.734H259.507V155.113Z" fill="#FAFAFA"/>
<path d="M255.427 125.215H252.859V126.836H255.427V125.215Z" fill="#FAFAFA"/>
<path d="M255.427 127.933H252.859V129.554H255.427V127.933Z" fill="#FAFAFA"/>
<path d="M255.427 130.651H252.859V132.272H255.427V130.651Z" fill="#FAFAFA"/>
<path d="M255.427 133.369H252.859V134.99H255.427V133.369Z" fill="#FAFAFA"/>
<path d="M255.427 136.087H252.859V137.708H255.427V136.087Z" fill="#FAFAFA"/>
<path d="M255.427 138.805H252.859V140.426H255.427V138.805Z" fill="#FAFAFA"/>
<path d="M255.427 141.523H252.859V143.144H255.427V141.523Z" fill="#FAFAFA"/>
<path d="M251.348 125.215H247.66V126.836H251.348V125.215Z" fill="#FAFAFA"/>
<path d="M251.348 127.933H247.66V129.554H251.348V127.933Z" fill="#FAFAFA"/>
<path d="M251.348 130.651H247.66V132.272H251.348V130.651Z" fill="#FAFAFA"/>
<path d="M251.348 133.369H247.66V134.99H251.348V133.369Z" fill="#FAFAFA"/>
<path d="M251.348 136.087H247.66V137.708H251.348V136.087Z" fill="#FAFAFA"/>
<path d="M251.348 138.805H247.66V140.426H251.348V138.805Z" fill="#FAFAFA"/>
<path d="M251.348 141.523H247.66V143.144H251.348V141.523Z" fill="#FAFAFA"/>
<path d="M475.711 128.743H473.143V130.364H475.711V128.743Z" fill="#FAFAFA"/>
<path d="M475.711 131.462H473.143V133.083H475.711V131.462Z" fill="#FAFAFA"/>
<path d="M475.711 134.18H473.143V135.802H475.711V134.18Z" fill="#FAFAFA"/>
<path d="M475.711 136.898H473.143V138.519H475.711V136.898Z" fill="#FAFAFA"/>
<path d="M475.711 139.616H473.143V141.238H475.711V139.616Z" fill="#FAFAFA"/>
<path d="M475.711 142.334H473.143V143.956H475.711V142.334Z" fill="#FAFAFA"/>
<path d="M475.711 145.052H473.143V146.673H475.711V145.052Z" fill="#FAFAFA"/>
<path d="M475.711 147.77H473.143V149.392H475.711V147.77Z" fill="#FAFAFA"/>
<path d="M475.711 150.488H473.143V152.11H475.711V150.488Z" fill="#FAFAFA"/>
<path d="M475.711 153.206H473.143V154.827H475.711V153.206Z" fill="#FAFAFA"/>
<path d="M475.711 155.924H473.143V157.546H475.711V155.924Z" fill="#FAFAFA"/>
<path d="M475.711 158.642H473.143V160.263H475.711V158.642Z" fill="#FAFAFA"/>
<path d="M475.711 161.36H473.143V162.981H475.711V161.36Z" fill="#FAFAFA"/>
<path d="M475.711 164.078H473.143V165.699H475.711V164.078Z" fill="#FAFAFA"/>
<path d="M475.711 166.796H473.143V168.418H475.711V166.796Z" fill="#FAFAFA"/>
<path d="M475.711 169.514H473.143V171.135H475.711V169.514Z" fill="#FAFAFA"/>
<path d="M475.711 172.232H473.143V173.854H475.711V172.232Z" fill="#FAFAFA"/>
<path d="M475.711 174.95H473.143V176.572H475.711V174.95Z" fill="#FAFAFA"/>
<path d="M475.711 177.668H473.143V179.289H475.711V177.668Z" fill="#FAFAFA"/>
<path d="M475.711 180.387H473.143V182.009H475.711V180.387Z" fill="#FAFAFA"/>
<path d="M471.631 128.743H469.063V130.364H471.631V128.743Z" fill="#FAFAFA"/>
<path d="M471.631 131.462H469.063V133.083H471.631V131.462Z" fill="#FAFAFA"/>
<path d="M471.631 134.18H469.063V135.802H471.631V134.18Z" fill="#FAFAFA"/>
<path d="M471.631 136.898H469.063V138.519H471.631V136.898Z" fill="#FAFAFA"/>
<path d="M471.631 139.616H469.063V141.238H471.631V139.616Z" fill="#FAFAFA"/>
<path d="M471.631 142.334H469.063V143.956H471.631V142.334Z" fill="#FAFAFA"/>
<path d="M471.631 145.052H469.063V146.673H471.631V145.052Z" fill="#FAFAFA"/>
<path d="M471.631 147.77H469.063V149.392H471.631V147.77Z" fill="#FAFAFA"/>
<path d="M471.631 150.488H469.063V152.11H471.631V150.488Z" fill="#FAFAFA"/>
<path d="M471.631 153.206H469.063V154.827H471.631V153.206Z" fill="#FAFAFA"/>
<path d="M471.631 155.924H469.063V157.546H471.631V155.924Z" fill="#FAFAFA"/>
<path d="M471.631 158.642H469.063V160.263H471.631V158.642Z" fill="#FAFAFA"/>
<path d="M471.631 161.36H469.063V162.981H471.631V161.36Z" fill="#FAFAFA"/>
<path d="M471.631 164.078H469.063V165.699H471.631V164.078Z" fill="#FAFAFA"/>
<path d="M471.631 166.796H469.063V168.418H471.631V166.796Z" fill="#FAFAFA"/>
<path d="M471.631 169.514H469.063V171.135H471.631V169.514Z" fill="#FAFAFA"/>
<path d="M471.631 172.232H469.063V173.854H471.631V172.232Z" fill="#FAFAFA"/>
<path d="M471.631 174.95H469.063V176.572H471.631V174.95Z" fill="#FAFAFA"/>
<path d="M467.551 128.743H464.983V130.364H467.551V128.743Z" fill="#FAFAFA"/>
<path d="M467.551 131.462H464.983V133.083H467.551V131.462Z" fill="#FAFAFA"/>
<path d="M467.551 134.18H464.983V135.802H467.551V134.18Z" fill="#FAFAFA"/>
<path d="M467.551 136.898H464.983V138.519H467.551V136.898Z" fill="#FAFAFA"/>
<path d="M467.551 139.616H464.983V141.238H467.551V139.616Z" fill="#FAFAFA"/>
<path d="M467.551 142.334H464.983V143.956H467.551V142.334Z" fill="#FAFAFA"/>
<path d="M467.551 145.052H464.983V146.673H467.551V145.052Z" fill="#FAFAFA"/>
<path d="M467.551 147.77H464.983V149.392H467.551V147.77Z" fill="#FAFAFA"/>
<path d="M467.551 150.488H464.983V152.11H467.551V150.488Z" fill="#FAFAFA"/>
<path d="M467.551 153.206H464.983V154.827H467.551V153.206Z" fill="#FAFAFA"/>
<path d="M467.551 155.924H464.983V157.546H467.551V155.924Z" fill="#FAFAFA"/>
<path d="M467.551 158.642H464.983V160.263H467.551V158.642Z" fill="#FAFAFA"/>
<path d="M467.551 161.36H464.983V162.981H467.551V161.36Z" fill="#FAFAFA"/>
<path d="M467.551 164.078H464.983V165.699H467.551V164.078Z" fill="#FAFAFA"/>
<path d="M467.551 166.796H464.983V168.418H467.551V166.796Z" fill="#FAFAFA"/>
<path d="M467.551 169.514H464.983V171.135H467.551V169.514Z" fill="#FAFAFA"/>
<path d="M467.551 172.232H464.983V173.854H467.551V172.232Z" fill="#FAFAFA"/>
<path d="M467.551 174.95H464.983V176.572H467.551V174.95Z" fill="#FAFAFA"/>
<path d="M490.972 148.581H488.403V150.202H490.972V148.581Z" fill="#FAFAFA"/>
<path d="M490.972 151.299H488.403V152.92H490.972V151.299Z" fill="#FAFAFA"/>
<path d="M490.972 154.017H488.403V155.638H490.972V154.017Z" fill="#FAFAFA"/>
<path d="M490.972 156.735H488.403V158.356H490.972V156.735Z" fill="#FAFAFA"/>
<path d="M490.972 159.453H488.403V161.074H490.972V159.453Z" fill="#FAFAFA"/>
<path d="M490.972 162.171H488.403V163.792H490.972V162.171Z" fill="#FAFAFA"/>
<path d="M490.972 164.889H488.403V166.51H490.972V164.889Z" fill="#FAFAFA"/>
<path d="M490.972 167.607H488.403V169.228H490.972V167.607Z" fill="#FAFAFA"/>
<path d="M490.972 170.325H488.403V171.946H490.972V170.325Z" fill="#FAFAFA"/>
<path d="M490.972 173.042H488.403V174.663H490.972V173.042Z" fill="#FAFAFA"/>
<path d="M490.972 175.761H488.403V177.382H490.972V175.761Z" fill="#FAFAFA"/>
<path d="M490.972 178.479H488.403V180.099H490.972V178.479Z" fill="#FAFAFA"/>
<path d="M490.972 181.197H488.403V182.818H490.972V181.197Z" fill="#FAFAFA"/>
<path d="M486.892 148.581H484.323V150.202H486.892V148.581Z" fill="#FAFAFA"/>
<path d="M486.892 151.299H484.323V152.92H486.892V151.299Z" fill="#FAFAFA"/>
<path d="M486.892 154.017H484.323V155.638H486.892V154.017Z" fill="#FAFAFA"/>
<path d="M486.892 156.735H484.323V158.356H486.892V156.735Z" fill="#FAFAFA"/>
<path d="M486.892 159.453H484.323V161.074H486.892V159.453Z" fill="#FAFAFA"/>
<path d="M486.892 162.171H484.323V163.792H486.892V162.171Z" fill="#FAFAFA"/>
<path d="M486.892 164.889H484.323V166.51H486.892V164.889Z" fill="#FAFAFA"/>
<path d="M486.892 167.607H484.323V169.228H486.892V167.607Z" fill="#FAFAFA"/>
<path d="M486.892 170.325H484.323V171.946H486.892V170.325Z" fill="#FAFAFA"/>
<path d="M486.892 173.042H484.323V174.663H486.892V173.042Z" fill="#FAFAFA"/>
<path d="M486.892 175.761H484.323V177.382H486.892V175.761Z" fill="#FAFAFA"/>
<path d="M486.892 178.479H484.323V180.099H486.892V178.479Z" fill="#FAFAFA"/>
<path d="M486.892 181.197H484.323V182.818H486.892V181.197Z" fill="#FAFAFA"/>
<path d="M482.814 148.581H480.244V150.202H482.814V148.581Z" fill="#FAFAFA"/>
<path d="M482.814 151.299H480.244V152.92H482.814V151.299Z" fill="#FAFAFA"/>
<path d="M482.814 154.017H480.244V155.638H482.814V154.017Z" fill="#FAFAFA"/>
<path d="M482.814 156.735H480.244V158.356H482.814V156.735Z" fill="#FAFAFA"/>
<path d="M482.814 159.453H480.244V161.074H482.814V159.453Z" fill="#FAFAFA"/>
<path d="M482.814 162.171H480.244V163.792H482.814V162.171Z" fill="#FAFAFA"/>
<path d="M482.814 164.889H480.244V166.51H482.814V164.889Z" fill="#FAFAFA"/>
<path d="M482.814 167.607H480.244V169.228H482.814V167.607Z" fill="#FAFAFA"/>
<path d="M482.814 170.325H480.244V171.946H482.814V170.325Z" fill="#FAFAFA"/>
<path d="M482.814 173.042H480.244V174.663H482.814V173.042Z" fill="#FAFAFA"/>
<path d="M482.814 175.761H480.244V177.382H482.814V175.761Z" fill="#FAFAFA"/>
<path d="M482.814 178.479H480.244V180.099H482.814V178.479Z" fill="#FAFAFA"/>
<path d="M482.814 181.197H480.244V182.818H482.814V181.197Z" fill="#FAFAFA"/>
<path d="M482.814 183.916H480.244V185.537H482.814V183.916Z" fill="#FAFAFA"/>
<path d="M460.15 149.391H457.581V151.012H460.15V149.391Z" fill="#FAFAFA"/>
<path d="M460.15 152.109H457.581V153.73H460.15V152.109Z" fill="#FAFAFA"/>
<path d="M460.15 154.827H457.581V156.448H460.15V154.827Z" fill="#FAFAFA"/>
<path d="M460.15 157.545H457.581V159.166H460.15V157.545Z" fill="#FAFAFA"/>
<path d="M460.15 160.264H457.581V161.885H460.15V160.264Z" fill="#FAFAFA"/>
<path d="M460.15 162.981H457.581V164.602H460.15V162.981Z" fill="#FAFAFA"/>
<path d="M460.15 165.699H457.581V167.32H460.15V165.699Z" fill="#FAFAFA"/>
<path d="M460.15 168.417H457.581V170.038H460.15V168.417Z" fill="#FAFAFA"/>
<path d="M460.15 171.135H457.581V172.756H460.15V171.135Z" fill="#FAFAFA"/>
<path d="M460.15 173.854H457.581V175.474H460.15V173.854Z" fill="#FAFAFA"/>
<path d="M460.15 182.007H457.581V183.628H460.15V182.007Z" fill="#FAFAFA"/>
<path d="M456.069 149.391H453.501V151.012H456.069V149.391Z" fill="#FAFAFA"/>
<path d="M456.069 152.109H453.501V153.73H456.069V152.109Z" fill="#FAFAFA"/>
<path d="M456.069 154.827H453.501V156.448H456.069V154.827Z" fill="#FAFAFA"/>
<path d="M456.069 157.545H453.501V159.166H456.069V157.545Z" fill="#FAFAFA"/>
<path d="M456.069 160.264H453.501V161.885H456.069V160.264Z" fill="#FAFAFA"/>
<path d="M456.069 162.981H453.501V164.602H456.069V162.981Z" fill="#FAFAFA"/>
<path d="M456.069 165.699H453.501V167.32H456.069V165.699Z" fill="#FAFAFA"/>
<path d="M456.069 168.417H453.501V170.038H456.069V168.417Z" fill="#FAFAFA"/>
<path d="M456.069 171.135H453.501V172.756H456.069V171.135Z" fill="#FAFAFA"/>
<path d="M456.069 179.29H453.501V180.91H456.069V179.29Z" fill="#FAFAFA"/>
<path d="M456.069 182.007H453.501V183.628H456.069V182.007Z" fill="#FAFAFA"/>
<path d="M451.992 149.391H449.423V151.012H451.992V149.391Z" fill="#FAFAFA"/>
<path d="M451.992 152.109H449.423V153.73H451.992V152.109Z" fill="#FAFAFA"/>
<path d="M451.992 154.827H449.423V156.448H451.992V154.827Z" fill="#FAFAFA"/>
<path d="M451.992 157.545H449.423V159.166H451.992V157.545Z" fill="#FAFAFA"/>
<path d="M451.992 160.264H449.423V161.885H451.992V160.264Z" fill="#FAFAFA"/>
<path d="M451.992 162.981H449.423V164.602H451.992V162.981Z" fill="#FAFAFA"/>
<path d="M451.992 165.699H449.423V167.32H451.992V165.699Z" fill="#FAFAFA"/>
<path d="M451.992 168.417H449.423V170.038H451.992V168.417Z" fill="#FAFAFA"/>
<path d="M451.992 176.572H449.423V178.193H451.992V176.572Z" fill="#FAFAFA"/>
<path d="M451.992 179.29H449.423V180.91H451.992V179.29Z" fill="#FAFAFA"/>
<path d="M451.992 182.007H449.423V183.628H451.992V182.007Z" fill="#FAFAFA"/>
<path d="M414.068 108.096H411.5V109.717H414.068V108.096Z" fill="#FAFAFA"/>
<path d="M414.068 110.814H411.5V112.436H414.068V110.814Z" fill="#FAFAFA"/>
<path d="M414.068 113.532H411.5V115.153H414.068V113.532Z" fill="#FAFAFA"/>
<path d="M414.068 116.25H411.5V117.871H414.068V116.25Z" fill="#FAFAFA"/>
<path d="M414.068 118.968H411.5V120.589H414.068V118.968Z" fill="#FAFAFA"/>
<path d="M414.068 121.686H411.5V123.306H414.068V121.686Z" fill="#FAFAFA"/>
<path d="M414.068 124.404H411.5V126.025H414.068V124.404Z" fill="#FAFAFA"/>
<path d="M414.068 127.122H411.5V128.743H414.068V127.122Z" fill="#FAFAFA"/>
<path d="M414.068 129.84H411.5V131.461H414.068V129.84Z" fill="#FAFAFA"/>
<path d="M414.068 132.558H411.5V134.179H414.068V132.558Z" fill="#FAFAFA"/>
<path d="M414.068 135.275H411.5V136.896H414.068V135.275Z" fill="#FAFAFA"/>
<path d="M414.068 137.994H411.5V139.615H414.068V137.994Z" fill="#FAFAFA"/>
<path d="M414.068 140.712H411.5V142.333H414.068V140.712Z" fill="#FAFAFA"/>
<path d="M414.068 143.431H411.5V145.052H414.068V143.431Z" fill="#FAFAFA"/>
<path d="M414.068 146.149H411.5V147.77H414.068V146.149Z" fill="#FAFAFA"/>
<path d="M414.068 148.867H411.5V150.488H414.068V148.867Z" fill="#FAFAFA"/>
<path d="M414.068 151.585H411.5V153.206H414.068V151.585Z" fill="#FAFAFA"/>
<path d="M414.068 157.021H411.5V158.642H414.068V157.021Z" fill="#FAFAFA"/>
<path d="M414.068 159.739H411.5V161.36H414.068V159.739Z" fill="#FAFAFA"/>
<path d="M414.068 162.457H411.5V164.078H414.068V162.457Z" fill="#FAFAFA"/>
<path d="M414.068 165.175H411.5V166.796H414.068V165.175Z" fill="#FAFAFA"/>
<path d="M414.068 167.893H411.5V169.513H414.068V167.893Z" fill="#FAFAFA"/>
<path d="M409.988 108.096H407.42V109.717H409.988V108.096Z" fill="#FAFAFA"/>
<path d="M409.988 110.814H407.42V112.436H409.988V110.814Z" fill="#FAFAFA"/>
<path d="M409.988 113.532H407.42V115.153H409.988V113.532Z" fill="#FAFAFA"/>
<path d="M409.988 116.25H407.42V117.871H409.988V116.25Z" fill="#FAFAFA"/>
<path d="M409.988 118.968H407.42V120.589H409.988V118.968Z" fill="#FAFAFA"/>
<path d="M409.988 121.686H407.42V123.306H409.988V121.686Z" fill="#FAFAFA"/>
<path d="M409.988 124.404H407.42V126.025H409.988V124.404Z" fill="#FAFAFA"/>
<path d="M409.988 127.122H407.42V128.743H409.988V127.122Z" fill="#FAFAFA"/>
<path d="M409.988 129.84H407.42V131.461H409.988V129.84Z" fill="#FAFAFA"/>
<path d="M409.988 132.558H407.42V134.179H409.988V132.558Z" fill="#FAFAFA"/>
<path d="M409.988 135.275H407.42V136.896H409.988V135.275Z" fill="#FAFAFA"/>
<path d="M409.988 137.994H407.42V139.615H409.988V137.994Z" fill="#FAFAFA"/>
<path d="M409.988 140.712H407.42V142.333H409.988V140.712Z" fill="#FAFAFA"/>
<path d="M409.988 143.431H407.42V145.052H409.988V143.431Z" fill="#FAFAFA"/>
<path d="M409.988 146.149H407.42V147.77H409.988V146.149Z" fill="#FAFAFA"/>
<path d="M409.988 148.867H407.42V150.488H409.988V148.867Z" fill="#FAFAFA"/>
<path d="M409.988 165.175H407.42V166.796H409.988V165.175Z" fill="#FAFAFA"/>
<path d="M409.988 167.893H407.42V169.513H409.988V167.893Z" fill="#FAFAFA"/>
<path d="M405.909 108.096H403.341V109.717H405.909V108.096Z" fill="#FAFAFA"/>
<path d="M405.909 110.814H403.341V112.436H405.909V110.814Z" fill="#FAFAFA"/>
<path d="M405.909 113.532H403.341V115.153H405.909V113.532Z" fill="#FAFAFA"/>
<path d="M405.909 116.25H403.341V117.871H405.909V116.25Z" fill="#FAFAFA"/>
<path d="M405.909 118.968H403.341V120.589H405.909V118.968Z" fill="#FAFAFA"/>
<path d="M405.909 121.686H403.341V123.306H405.909V121.686Z" fill="#FAFAFA"/>
<path d="M405.909 124.404H403.341V126.025H405.909V124.404Z" fill="#FAFAFA"/>
<path d="M405.909 127.122H403.341V128.743H405.909V127.122Z" fill="#FAFAFA"/>
<path d="M405.909 129.84H403.341V131.461H405.909V129.84Z" fill="#FAFAFA"/>
<path d="M405.909 132.558H403.341V134.179H405.909V132.558Z" fill="#FAFAFA"/>
<path d="M405.909 135.275H403.341V136.896H405.909V135.275Z" fill="#FAFAFA"/>
<path d="M405.909 137.994H403.341V139.615H405.909V137.994Z" fill="#FAFAFA"/>
<path d="M405.909 140.712H403.341V142.333H405.909V140.712Z" fill="#FAFAFA"/>
<path d="M405.909 143.431H403.341V145.052H405.909V143.431Z" fill="#FAFAFA"/>
<path d="M405.909 146.149H403.341V147.77H405.909V146.149Z" fill="#FAFAFA"/>
<path d="M405.909 148.867H403.341V150.488H405.909V148.867Z" fill="#FAFAFA"/>
<path d="M405.909 154.303H403.341V155.924H405.909V154.303Z" fill="#FAFAFA"/>
<path d="M405.909 157.021H403.341V158.642H405.909V157.021Z" fill="#FAFAFA"/>
<path d="M405.909 159.739H403.341V161.36H405.909V159.739Z" fill="#FAFAFA"/>
<path d="M405.909 162.457H403.341V164.078H405.909V162.457Z" fill="#FAFAFA"/>
<path d="M405.909 167.893H403.341V169.513H405.909V167.893Z" fill="#FAFAFA"/>
<path d="M428.875 142.334H426.306V143.956H428.875V142.334Z" fill="#FAFAFA"/>
<path d="M428.875 145.052H426.306V146.673H428.875V145.052Z" fill="#FAFAFA"/>
<path d="M428.875 147.77H426.306V149.392H428.875V147.77Z" fill="#FAFAFA"/>
<path d="M428.875 150.488H426.306V152.11H428.875V150.488Z" fill="#FAFAFA"/>
<path d="M428.875 153.206H426.306V154.827H428.875V153.206Z" fill="#FAFAFA"/>
<path d="M428.875 155.924H426.306V157.546H428.875V155.924Z" fill="#FAFAFA"/>
<path d="M428.875 158.642H426.306V160.263H428.875V158.642Z" fill="#FAFAFA"/>
<path d="M428.875 164.078H426.306V165.699H428.875V164.078Z" fill="#FAFAFA"/>
<path d="M428.875 166.796H426.306V168.418H428.875V166.796Z" fill="#FAFAFA"/>
<path d="M428.875 169.514H426.306V171.135H428.875V169.514Z" fill="#FAFAFA"/>
<path d="M428.875 172.232H426.306V173.854H428.875V172.232Z" fill="#FAFAFA"/>
<path d="M428.875 174.95H426.306V176.572H428.875V174.95Z" fill="#FAFAFA"/>
<path d="M428.875 177.668H426.306V179.289H428.875V177.668Z" fill="#FAFAFA"/>
<path d="M428.875 180.387H426.306V182.009H428.875V180.387Z" fill="#FAFAFA"/>
<path d="M428.875 183.105H426.306V184.727H428.875V183.105Z" fill="#FAFAFA"/>
<path d="M424.795 142.334H422.226V143.956H424.795V142.334Z" fill="#FAFAFA"/>
<path d="M424.795 145.052H422.226V146.673H424.795V145.052Z" fill="#FAFAFA"/>
<path d="M424.795 147.77H422.226V149.392H424.795V147.77Z" fill="#FAFAFA"/>
<path d="M424.795 150.488H422.226V152.11H424.795V150.488Z" fill="#FAFAFA"/>
<path d="M424.795 153.206H422.226V154.827H424.795V153.206Z" fill="#FAFAFA"/>
<path d="M424.795 155.924H422.226V157.546H424.795V155.924Z" fill="#FAFAFA"/>
<path d="M424.795 164.078H422.226V165.699H424.795V164.078Z" fill="#FAFAFA"/>
<path d="M424.795 166.796H422.226V168.418H424.795V166.796Z" fill="#FAFAFA"/>
<path d="M424.795 169.514H422.226V171.135H424.795V169.514Z" fill="#FAFAFA"/>
<path d="M424.795 172.232H422.226V173.854H424.795V172.232Z" fill="#FAFAFA"/>
<path d="M424.795 174.95H422.226V176.572H424.795V174.95Z" fill="#FAFAFA"/>
<path d="M424.795 177.668H422.226V179.289H424.795V177.668Z" fill="#FAFAFA"/>
<path d="M424.795 180.387H422.226V182.009H424.795V180.387Z" fill="#FAFAFA"/>
<path d="M424.795 183.105H422.226V184.727H424.795V183.105Z" fill="#FAFAFA"/>
<path d="M420.717 142.334H418.148V143.956H420.717V142.334Z" fill="#FAFAFA"/>
<path d="M420.717 145.052H418.148V146.673H420.717V145.052Z" fill="#FAFAFA"/>
<path d="M420.717 147.77H418.148V149.392H420.717V147.77Z" fill="#FAFAFA"/>
<path d="M420.717 150.488H418.148V152.11H420.717V150.488Z" fill="#FAFAFA"/>
<path d="M420.717 153.206H418.148V154.827H420.717V153.206Z" fill="#FAFAFA"/>
<path d="M420.717 155.924H418.148V157.546H420.717V155.924Z" fill="#FAFAFA"/>
<path d="M420.717 161.36H418.148V162.981H420.717V161.36Z" fill="#FAFAFA"/>
<path d="M420.717 164.078H418.148V165.699H420.717V164.078Z" fill="#FAFAFA"/>
<path d="M420.717 166.796H418.148V168.418H420.717V166.796Z" fill="#FAFAFA"/>
<path d="M420.717 169.514H418.148V171.135H420.717V169.514Z" fill="#FAFAFA"/>
<path d="M420.717 172.232H418.148V173.854H420.717V172.232Z" fill="#FAFAFA"/>
<path d="M420.717 174.95H418.148V176.572H420.717V174.95Z" fill="#FAFAFA"/>
<path d="M420.717 177.668H418.148V179.289H420.717V177.668Z" fill="#FAFAFA"/>
<path d="M420.717 180.387H418.148V182.009H420.717V180.387Z" fill="#FAFAFA"/>
<path d="M420.717 183.105H418.148V184.727H420.717V183.105Z" fill="#FAFAFA"/>
<path d="M334.747 127.122H332.179V128.743H334.747V127.122Z" fill="#FAFAFA"/>
<path d="M334.747 129.84H332.179V131.461H334.747V129.84Z" fill="#FAFAFA"/>
<path d="M334.747 132.558H332.179V134.179H334.747V132.558Z" fill="#FAFAFA"/>
<path d="M334.747 135.275H332.179V136.896H334.747V135.275Z" fill="#FAFAFA"/>
<path d="M334.747 137.994H332.179V139.615H334.747V137.994Z" fill="#FAFAFA"/>
<path d="M334.747 140.712H332.179V142.333H334.747V140.712Z" fill="#FAFAFA"/>
<path d="M334.747 143.431H332.179V145.052H334.747V143.431Z" fill="#FAFAFA"/>
<path d="M334.747 146.149H332.179V147.77H334.747V146.149Z" fill="#FAFAFA"/>
<path d="M334.747 148.867H332.179V150.488H334.747V148.867Z" fill="#FAFAFA"/>
<path d="M334.747 151.585H332.179V153.206H334.747V151.585Z" fill="#FAFAFA"/>
<path d="M334.747 154.303H332.179V155.924H334.747V154.303Z" fill="#FAFAFA"/>
<path d="M334.747 157.021H332.179V158.642H334.747V157.021Z" fill="#FAFAFA"/>
<path d="M334.747 159.739H332.179V161.36H334.747V159.739Z" fill="#FAFAFA"/>
<path d="M334.747 165.175H332.179V166.796H334.747V165.175Z" fill="#FAFAFA"/>
<path d="M334.747 167.893H332.179V169.513H334.747V167.893Z" fill="#FAFAFA"/>
<path d="M334.747 170.611H332.179V172.232H334.747V170.611Z" fill="#FAFAFA"/>
<path d="M334.747 173.329H332.179V174.95H334.747V173.329Z" fill="#FAFAFA"/>
<path d="M334.747 178.765H332.179V180.386H334.747V178.765Z" fill="#FAFAFA"/>
<path d="M334.747 181.483H332.179V183.104H334.747V181.483Z" fill="#FAFAFA"/>
<path d="M334.747 184.201H332.179V185.822H334.747V184.201Z" fill="#FAFAFA"/>
<path d="M330.669 127.122H328.101V128.743H330.669V127.122Z" fill="#FAFAFA"/>
<path d="M330.669 129.84H328.101V131.461H330.669V129.84Z" fill="#FAFAFA"/>
<path d="M330.669 132.558H328.101V134.179H330.669V132.558Z" fill="#FAFAFA"/>
<path d="M330.669 135.275H328.101V136.896H330.669V135.275Z" fill="#FAFAFA"/>
<path d="M330.669 137.994H328.101V139.615H330.669V137.994Z" fill="#FAFAFA"/>
<path d="M330.669 140.712H328.101V142.333H330.669V140.712Z" fill="#FAFAFA"/>
<path d="M330.669 143.431H328.101V145.052H330.669V143.431Z" fill="#FAFAFA"/>
<path d="M330.669 146.149H328.101V147.77H330.669V146.149Z" fill="#FAFAFA"/>
<path d="M330.669 148.867H328.101V150.488H330.669V148.867Z" fill="#FAFAFA"/>
<path d="M330.669 151.585H328.101V153.206H330.669V151.585Z" fill="#FAFAFA"/>
<path d="M330.669 154.303H328.101V155.924H330.669V154.303Z" fill="#FAFAFA"/>
<path d="M330.669 157.021H328.101V158.642H330.669V157.021Z" fill="#FAFAFA"/>
<path d="M330.669 159.739H328.101V161.36H330.669V159.739Z" fill="#FAFAFA"/>
<path d="M330.669 167.893H328.101V169.513H330.669V167.893Z" fill="#FAFAFA"/>
<path d="M330.669 170.611H328.101V172.232H330.669V170.611Z" fill="#FAFAFA"/>
<path d="M330.669 176.047H328.101V177.668H330.669V176.047Z" fill="#FAFAFA"/>
<path d="M330.669 178.765H328.101V180.386H330.669V178.765Z" fill="#FAFAFA"/>
<path d="M330.669 181.483H328.101V183.104H330.669V181.483Z" fill="#FAFAFA"/>
<path d="M330.669 184.201H328.101V185.822H330.669V184.201Z" fill="#FAFAFA"/>
<path d="M326.589 127.122H324.021V128.743H326.589V127.122Z" fill="#FAFAFA"/>
<path d="M326.589 129.84H324.021V131.461H326.589V129.84Z" fill="#FAFAFA"/>
<path d="M326.589 132.558H324.021V134.179H326.589V132.558Z" fill="#FAFAFA"/>
<path d="M326.589 135.275H324.021V136.896H326.589V135.275Z" fill="#FAFAFA"/>
<path d="M326.589 137.994H324.021V139.615H326.589V137.994Z" fill="#FAFAFA"/>
<path d="M326.589 140.712H324.021V142.333H326.589V140.712Z" fill="#FAFAFA"/>
<path d="M326.589 143.431H324.021V145.052H326.589V143.431Z" fill="#FAFAFA"/>
<path d="M326.589 146.149H324.021V147.77H326.589V146.149Z" fill="#FAFAFA"/>
<path d="M326.589 148.867H324.021V150.488H326.589V148.867Z" fill="#FAFAFA"/>
<path d="M326.589 151.585H324.021V153.206H326.589V151.585Z" fill="#FAFAFA"/>
<path d="M326.589 154.303H324.021V155.924H326.589V154.303Z" fill="#FAFAFA"/>
<path d="M326.589 157.021H324.021V158.642H326.589V157.021Z" fill="#FAFAFA"/>
<path d="M326.589 159.739H324.021V161.36H326.589V159.739Z" fill="#FAFAFA"/>
<path d="M326.589 162.457H324.021V164.078H326.589V162.457Z" fill="#FAFAFA"/>
<path d="M326.589 167.893H324.021V169.513H326.589V167.893Z" fill="#FAFAFA"/>
<path d="M326.589 173.329H324.021V174.95H326.589V173.329Z" fill="#FAFAFA"/>
<path d="M326.589 176.047H324.021V177.668H326.589V176.047Z" fill="#FAFAFA"/>
<path d="M326.589 178.765H324.021V180.386H326.589V178.765Z" fill="#FAFAFA"/>
<path d="M326.589 181.483H324.021V183.104H326.589V181.483Z" fill="#FAFAFA"/>
<path d="M326.589 184.201H324.021V185.822H326.589V184.201Z" fill="#FAFAFA"/>
<path d="M351.368 142.62H348.799V144.241H351.368V142.62Z" fill="#FAFAFA"/>
<path d="M351.368 145.338H348.799V146.959H351.368V145.338Z" fill="#FAFAFA"/>
<path d="M351.368 148.056H348.799V149.677H351.368V148.056Z" fill="#FAFAFA"/>
<path d="M351.368 150.774H348.799V152.395H351.368V150.774Z" fill="#FAFAFA"/>
<path d="M351.368 153.492H348.799V155.113H351.368V153.492Z" fill="#FAFAFA"/>
<path d="M351.368 156.21H348.799V157.831H351.368V156.21Z" fill="#FAFAFA"/>
<path d="M351.368 164.364H348.799V165.985H351.368V164.364Z" fill="#FAFAFA"/>
<path d="M351.368 167.082H348.799V168.703H351.368V167.082Z" fill="#FAFAFA"/>
<path d="M351.368 169.8H348.799V171.421H351.368V169.8Z" fill="#FAFAFA"/>
<path d="M351.368 172.519H348.799V174.14H351.368V172.519Z" fill="#FAFAFA"/>
<path d="M351.368 175.237H348.799V176.858H351.368V175.237Z" fill="#FAFAFA"/>
<path d="M351.368 177.955H348.799V179.576H351.368V177.955Z" fill="#FAFAFA"/>
<path d="M351.368 180.673H348.799V182.294H351.368V180.673Z" fill="#FAFAFA"/>
<path d="M347.288 142.62H344.721V144.241H347.288V142.62Z" fill="#FAFAFA"/>
<path d="M347.288 145.338H344.721V146.959H347.288V145.338Z" fill="#FAFAFA"/>
<path d="M347.288 148.056H344.721V149.677H347.288V148.056Z" fill="#FAFAFA"/>
<path d="M347.288 150.774H344.721V152.395H347.288V150.774Z" fill="#FAFAFA"/>
<path d="M347.288 153.492H344.721V155.113H347.288V153.492Z" fill="#FAFAFA"/>
<path d="M347.288 156.21H344.721V157.831H347.288V156.21Z" fill="#FAFAFA"/>
<path d="M347.288 164.364H344.721V165.985H347.288V164.364Z" fill="#FAFAFA"/>
<path d="M347.288 167.082H344.721V168.703H347.288V167.082Z" fill="#FAFAFA"/>
<path d="M347.288 169.8H344.721V171.421H347.288V169.8Z" fill="#FAFAFA"/>
<path d="M347.288 172.519H344.721V174.14H347.288V172.519Z" fill="#FAFAFA"/>
<path d="M347.288 175.237H344.721V176.858H347.288V175.237Z" fill="#FAFAFA"/>
<path d="M347.288 177.955H344.721V179.576H347.288V177.955Z" fill="#FAFAFA"/>
<path d="M347.288 183.391H344.721V185.012H347.288V183.391Z" fill="#FAFAFA"/>
<path d="M252.051 53.7432H246.951V230.364H252.051V53.7432Z" fill="#EBEBEB"/>
<path d="M333.148 53.7432H328.833V230.364H333.148V53.7432Z" fill="#EBEBEB"/>
<path d="M414.245 53.7432H409.93V230.364H414.245V53.7432Z" fill="#EBEBEB"/>
<path d="M93.2411 49.167C104.795 49.167 114.162 41.372 114.162 31.7564C114.162 22.1407 104.795 14.3457 93.2411 14.3457C81.6868 14.3457 72.3202 22.1407 72.3202 31.7564C72.3202 41.372 81.6868 49.167 93.2411 49.167Z" fill="#E0E0E0"/>
<path d="M93.241 46.5591C103.065 46.5591 111.029 39.9316 111.029 31.7561C111.029 23.5806 103.065 16.9531 93.241 16.9531C83.4173 16.9531 75.4535 23.5806 75.4535 31.7561C75.4535 39.9316 83.4173 46.5591 93.241 46.5591Z" fill="#F0F0F0"/>
<path d="M94.0812 21.6021V31.9504L102.321 28.0696" fill="#F0F0F0"/>
<path d="M94.0812 33.1791C93.8243 33.1791 93.5674 33.1238 93.337 33.012C92.8837 32.792 92.6046 32.3877 92.6046 31.9502V21.6019C92.6046 20.9236 93.2661 20.373 94.0812 20.373C94.8963 20.373 95.5579 20.9236 95.5579 21.6019V29.844L101.594 27.0016C102.305 26.6661 103.205 26.875 103.607 27.4649C104.009 28.056 103.759 28.8056 103.049 29.1398L94.8077 33.0206C94.5818 33.1263 94.3308 33.1791 94.0812 33.1791Z" fill="#E0E0E0"/>
<path d="M33.0963 121.502H-0.127914V297.654H33.0963V121.502Z" fill="#E0E0E0"/>
<path d="M122.732 121.502H29.4697V297.654H122.732V121.502Z" fill="#EBEBEB"/>
<path d="M113.23 127.5H38.9688V174.376H113.23V127.5Z" fill="#FAFAFA"/>
<path d="M96.1899 155.079H56.0092C54.8825 155.079 53.9685 154.502 53.9685 153.791C53.9685 153.079 54.8825 152.502 56.0092 152.502H96.1899C97.3165 152.502 98.2306 153.079 98.2306 153.791C98.2306 154.502 97.3165 155.079 96.1899 155.079Z" fill="#E0E0E0"/>
<path d="M96.1899 160.231H56.0092C54.8825 160.231 53.9685 159.654 53.9685 158.942C53.9685 158.231 54.8825 157.654 56.0092 157.654H96.1899C97.3165 157.654 98.2306 158.231 98.2306 158.942C98.2306 159.655 97.3165 160.231 96.1899 160.231Z" fill="#E0E0E0"/>
<path d="M96.1899 165.383H56.0092C54.8825 165.383 53.9685 164.806 53.9685 164.095C53.9685 163.384 54.8825 162.807 56.0092 162.807H96.1899C97.3165 162.807 98.2306 163.384 98.2306 164.095C98.2306 164.806 97.3165 165.383 96.1899 165.383Z" fill="#E0E0E0"/>
<path d="M84.009 145.568H68.1899L64.0139 142.932V137.305L68.1899 134.669H84.009L88.185 137.305V142.932L84.009 145.568Z" fill="#EBEBEB"/>
<path d="M113.23 178.863H38.9688V225.739H113.23V178.863Z" fill="#FAFAFA"/>
<path d="M96.1899 206.444H56.0092C54.8825 206.444 53.9685 205.867 53.9685 205.155C53.9685 204.444 54.8825 203.867 56.0092 203.867H96.1899C97.3165 203.867 98.2306 204.444 98.2306 205.155C98.2306 205.867 97.3165 206.444 96.1899 206.444Z" fill="#E0E0E0"/>
<path d="M96.1899 211.595H56.0092C54.8825 211.595 53.9685 211.018 53.9685 210.307C53.9685 209.596 54.8825 209.019 56.0092 209.019H96.1899C97.3165 209.019 98.2306 209.596 98.2306 210.307C98.2306 211.018 97.3165 211.595 96.1899 211.595Z" fill="#E0E0E0"/>
<path d="M96.1899 216.747H56.0092C54.8825 216.747 53.9685 216.17 53.9685 215.459C53.9685 214.747 54.8825 214.17 56.0092 214.17H96.1899C97.3165 214.17 98.2306 214.747 98.2306 215.459C98.2306 216.17 97.3165 216.747 96.1899 216.747Z" fill="#E0E0E0"/>
<path d="M84.009 196.931H68.1899L64.0139 194.295V188.669L68.1899 186.033H84.009L88.185 188.669V194.295L84.009 196.931Z" fill="#EBEBEB"/>
<path d="M113.23 230.227H38.9688V277.103H113.23V230.227Z" fill="#FAFAFA"/>
<path d="M96.1899 257.807H56.0092C54.8825 257.807 53.9685 257.23 53.9685 256.519C53.9685 255.807 54.8825 255.23 56.0092 255.23H96.1899C97.3165 255.23 98.2306 255.807 98.2306 256.519C98.2306 257.23 97.3165 257.807 96.1899 257.807Z" fill="#E0E0E0"/>
<path d="M96.1899 262.958H56.0092C54.8825 262.958 53.9685 262.381 53.9685 261.67C53.9685 260.959 54.8825 260.382 56.0092 260.382H96.1899C97.3165 260.382 98.2306 260.959 98.2306 261.67C98.2306 262.382 97.3165 262.958 96.1899 262.958Z" fill="#E0E0E0"/>
<path d="M96.1899 268.111H56.0092C54.8825 268.111 53.9685 267.534 53.9685 266.823C53.9685 266.112 54.8825 265.535 56.0092 265.535H96.1899C97.3165 265.535 98.2306 266.112 98.2306 266.823C98.2306 267.534 97.3165 268.111 96.1899 268.111Z" fill="#E0E0E0"/>
<path d="M84.009 248.295H68.1899L64.0139 245.659V240.033L68.1899 237.397H84.009L88.185 240.033V245.659L84.009 248.295Z" fill="#EBEBEB"/>
<path d="M458.855 222.16C459.181 224.192 452.996 225.53 447.951 226.279C448.362 229.969 451.117 233.697 454.923 237.181C459.71 234.778 466.544 231.601 467.804 232.377C469.178 233.224 462.181 237.255 457.804 239.626C460.883 242.06 464.349 244.329 467.717 246.317C469.863 244.531 472.374 242.963 473.872 243.81C475.425 244.691 475.004 247.454 474.238 249.92C479.446 252.624 483.345 254.271 483.345 254.271C483.345 254.271 485.531 248.367 486.823 241.097C486.561 240.635 486.301 240.168 486.06 239.674C485.221 237.945 486.038 237.21 487.424 236.966C487.782 233.784 487.885 230.512 487.509 227.475C481.615 226.373 474.449 224.336 477.133 221.185C478.753 219.286 481.716 219.07 484.8 219.547C484.369 218.914 483.893 218.317 483.345 217.78C472.618 207.25 465.135 217.78 465.135 217.78C458.901 213.152 450.145 214.405 448.252 221.637C451.754 220.838 458.453 219.649 458.855 222.16Z" fill="#407BFF"/>
<path opacity="0.3" d="M458.855 222.16C459.181 224.192 452.996 225.53 447.951 226.279C448.362 229.969 451.117 233.697 454.923 237.181C459.71 234.778 466.544 231.601 467.804 232.377C469.178 233.224 462.181 237.255 457.804 239.626C460.883 242.06 464.349 244.329 467.717 246.317C469.863 244.531 472.374 242.963 473.872 243.81C475.425 244.691 475.004 247.454 474.238 249.92C479.446 252.624 483.345 254.271 483.345 254.271C483.345 254.271 485.531 248.367 486.823 241.097C486.561 240.635 486.301 240.168 486.06 239.674C485.221 237.945 486.038 237.21 487.424 236.966C487.782 233.784 487.885 230.512 487.509 227.475C481.615 226.373 474.449 224.336 477.133 221.185C478.753 219.286 481.716 219.07 484.8 219.547C484.369 218.914 483.893 218.317 483.345 217.78C472.618 207.25 465.135 217.78 465.135 217.78C458.901 213.152 450.145 214.405 448.252 221.637C451.754 220.838 458.453 219.649 458.855 222.16Z" fill="white"/>
<path d="M472.239 299.553L470.692 299.44C470.759 298.728 477.044 228.213 459.283 221.566C457.376 220.851 455.614 220.891 453.899 221.686C447.482 224.659 444.406 237.005 444.376 237.131L442.86 236.837C442.991 236.303 446.122 223.735 453.182 220.46C455.303 219.477 457.558 219.42 459.885 220.291C478.673 227.323 472.511 296.607 472.239 299.553Z" fill="#407BFF"/>
<path d="M474.478 298.026C474.163 294.853 466.915 220.243 480.47 212.323C483.72 210.425 486.617 210.019 489.079 211.13C495.485 214.008 496.326 226.212 496.359 226.729L494.81 226.808C494.803 226.689 493.99 214.883 488.379 212.363C486.449 211.499 484.074 211.871 481.32 213.48C468.533 220.952 475.947 297.137 476.023 297.905L474.478 298.026Z" fill="#407BFF"/>
<path d="M476.515 304.057C476.414 301.628 474.182 244.517 486.525 239.517C488.966 238.529 491.436 238.512 493.867 239.464C502.338 242.785 507.57 256.85 507.789 257.448L506.313 257.878C506.262 257.737 501.078 243.801 493.242 240.731C491.205 239.934 489.216 239.947 487.168 240.776C477.702 244.61 477.387 287.719 478.065 304.006L476.515 304.057Z" fill="#407BFF"/>
<path d="M473.375 301.444L471.834 301.288C474.01 284.29 478.168 238.997 471.374 233.593C470.36 232.786 469.453 232.537 468.593 232.828C464.04 234.384 461.267 249.116 460.583 254.662L459.041 254.511C459.303 252.385 461.785 233.675 468.036 231.538C469.467 231.05 470.936 231.393 472.405 232.562C481.187 239.544 473.698 298.92 473.375 301.444Z" fill="#407BFF"/>
<path d="M447.484 269.221H503.224L498.57 324.853H452.138L447.484 269.221Z" fill="#263238"/>
<path d="M455.077 248.806C454.495 250.16 450.166 249.095 446.767 248.016C445.602 250.417 445.866 253.558 446.873 256.868C450.75 256.849 456.186 256.978 456.664 257.84C457.185 258.783 451.319 259.131 447.709 259.256C448.671 261.697 449.935 264.155 451.248 266.41C453.259 265.963 455.412 265.764 456.008 266.744C456.627 267.761 455.305 269.337 453.882 270.624C456.053 273.883 457.825 276.089 457.825 276.089C457.825 276.089 461.444 273.115 465.039 269.028C465.054 268.663 465.073 268.295 465.115 267.918C465.262 266.595 466.051 266.39 466.999 266.664C468.444 264.812 469.766 262.825 470.703 260.837C467.492 258.357 463.857 254.911 466.724 253.789C468.454 253.111 470.364 253.884 472.083 255.12C472.061 254.597 471.996 254.084 471.866 253.585C469.302 243.813 460.634 248.023 460.634 248.023C458.571 243.263 452.689 241.361 448.737 245.244C451.206 245.822 455.795 247.135 455.077 248.806Z" fill="#407BFF"/>
<path opacity="0.3" d="M455.077 248.806C454.495 250.16 450.166 249.095 446.767 248.016C445.602 250.417 445.866 253.558 446.873 256.868C450.75 256.849 456.186 256.978 456.664 257.84C457.185 258.783 451.319 259.131 447.709 259.256C448.671 261.697 449.935 264.155 451.248 266.41C453.259 265.963 455.412 265.764 456.008 266.744C456.627 267.761 455.305 269.337 453.882 270.624C456.053 273.883 457.825 276.089 457.825 276.089C457.825 276.089 461.444 273.115 465.039 269.028C465.054 268.663 465.073 268.295 465.115 267.918C465.262 266.595 466.051 266.39 466.999 266.664C468.444 264.812 469.766 262.825 470.703 260.837C467.492 258.357 463.857 254.911 466.724 253.789C468.454 253.111 470.364 253.884 472.083 255.12C472.061 254.597 471.996 254.084 471.866 253.585C469.302 243.813 460.634 248.023 460.634 248.023C458.571 243.263 452.689 241.361 448.737 245.244C451.206 245.822 455.795 247.135 455.077 248.806Z" fill="white"/>
<path d="M496.465 255.412C494.707 255.528 493.019 255.887 491.371 256.367C490.941 255.318 490.66 254.224 490.62 253.081C490.266 243.064 498.314 247.287 502.567 244.344C504.687 242.876 507.285 241.934 509.68 242.357C509.32 242.908 508.993 243.479 508.718 244.071C508.273 245.03 508.974 246.029 510.079 246.213C511.117 246.386 512.282 246.306 513.236 245.88C513.534 245.747 513.784 245.554 514.048 245.38C514.642 246.273 515.168 247.369 515.591 248.729C516.024 250.121 516.248 251.564 516.319 253.013C515.686 253.139 515.058 253.29 514.439 253.486C513.472 253.791 512.955 255.168 513.734 255.866C514.418 256.479 515.202 256.965 516.054 257.316C515.776 258.967 515.259 260.53 514.639 262.011C514.448 262.037 514.255 262.057 514.066 262.09C513.657 262.16 513.253 262.256 512.853 262.357C512.623 262.415 512.395 262.485 512.18 262.576C511.623 262.811 511.216 263.236 511.129 263.791C511.042 264.337 511.298 264.903 511.792 265.237C512.054 265.416 512.342 265.555 512.628 265.696C511.346 267.503 509.831 268.935 508.175 269.7C508.175 269.7 506.124 268.902 503.44 267.47C503.775 267.069 504.112 266.668 504.424 266.253C504.793 265.765 504.956 265.264 504.9 264.68C504.847 264.115 504.462 263.621 503.989 263.268C503.533 262.925 502.804 262.775 502.224 262.842C501.656 262.907 500.965 263.218 500.638 263.653C500.266 264.147 499.855 264.617 499.448 265.088C497.394 263.708 495.351 262.043 493.739 260.149C493.801 260.132 493.867 260.116 493.909 260.105C494.947 259.863 496.008 259.707 497.077 259.636C498.413 259.548 499.245 258.35 499.141 257.252C499.029 256.06 497.709 255.329 496.465 255.412Z" fill="#407BFF"/>
<path opacity="0.5" d="M496.465 255.412C494.707 255.528 493.019 255.887 491.371 256.367C490.941 255.318 490.66 254.224 490.62 253.081C490.266 243.064 498.314 247.287 502.567 244.344C504.687 242.876 507.285 241.934 509.68 242.357C509.32 242.908 508.993 243.479 508.718 244.071C508.273 245.03 508.974 246.029 510.079 246.213C511.117 246.386 512.282 246.306 513.236 245.88C513.534 245.747 513.784 245.554 514.048 245.38C514.642 246.273 515.168 247.369 515.591 248.729C516.024 250.121 516.248 251.564 516.319 253.013C515.686 253.139 515.058 253.29 514.439 253.486C513.472 253.791 512.955 255.168 513.734 255.866C514.418 256.479 515.202 256.965 516.054 257.316C515.776 258.967 515.259 260.53 514.639 262.011C514.448 262.037 514.255 262.057 514.066 262.09C513.657 262.16 513.253 262.256 512.853 262.357C512.623 262.415 512.395 262.485 512.18 262.576C511.623 262.811 511.216 263.236 511.129 263.791C511.042 264.337 511.298 264.903 511.792 265.237C512.054 265.416 512.342 265.555 512.628 265.696C511.346 267.503 509.831 268.935 508.175 269.7C508.175 269.7 506.124 268.902 503.44 267.47C503.775 267.069 504.112 266.668 504.424 266.253C504.793 265.765 504.956 265.264 504.9 264.68C504.847 264.115 504.462 263.621 503.989 263.268C503.533 262.925 502.804 262.775 502.224 262.842C501.656 262.907 500.965 263.218 500.638 263.653C500.266 264.147 499.855 264.617 499.448 265.088C497.394 263.708 495.351 262.043 493.739 260.149C493.801 260.132 493.867 260.116 493.909 260.105C494.947 259.863 496.008 259.707 497.077 259.636C498.413 259.548 499.245 258.35 499.141 257.252C499.029 256.06 497.709 255.329 496.465 255.412Z" fill="white"/>
<path d="M499.681 220.877C500.661 220.251 501.724 219.78 502.827 219.387C502.535 218.668 502.144 217.984 501.603 217.367C496.855 211.968 494.708 217.333 491.023 217.449C489.186 217.507 487.357 218.027 486.307 219.187C486.768 219.336 487.221 219.507 487.657 219.712C488.363 220.042 488.487 220.841 487.996 221.369C487.537 221.866 486.885 222.28 486.173 222.428C485.951 222.475 485.725 222.471 485.5 222.482C485.627 223.184 485.891 223.965 486.339 224.846C486.797 225.747 487.391 226.592 488.068 227.38C488.462 227.199 488.867 227.033 489.289 226.893C489.948 226.676 490.898 227.197 490.831 227.869C490.774 228.458 490.601 229.021 490.327 229.538C491.285 230.295 492.327 230.916 493.383 231.451C493.496 231.39 493.607 231.325 493.723 231.268C493.973 231.145 494.232 231.038 494.492 230.934C494.641 230.874 494.795 230.822 494.955 230.786C495.363 230.692 495.785 230.756 496.104 231.013C496.419 231.266 496.564 231.662 496.469 232.031C496.419 232.228 496.337 232.413 496.255 232.6C497.819 233.047 499.319 233.208 500.567 232.962C500.567 232.962 501.251 231.741 501.957 229.939C501.583 229.86 501.209 229.78 500.841 229.684C500.407 229.572 500.075 229.373 499.816 229.044C499.564 228.726 499.524 228.317 499.598 227.945C499.67 227.587 499.978 227.224 500.317 227.031C500.647 226.843 501.162 226.737 501.55 226.838C501.989 226.951 502.436 227.037 502.881 227.125C503.28 225.598 503.535 223.924 503.448 222.298C503.407 222.315 503.364 222.331 503.336 222.341C502.672 222.62 502.037 222.952 501.44 223.334C500.695 223.809 499.668 223.505 499.181 222.887C498.654 222.221 498.987 221.321 499.681 220.877Z" fill="#407BFF"/>
<path opacity="0.3" d="M499.681 220.877C500.661 220.251 501.724 219.78 502.827 219.387C502.535 218.668 502.144 217.984 501.603 217.367C496.855 211.968 494.708 217.333 491.023 217.449C489.186 217.507 487.357 218.027 486.307 219.187C486.768 219.336 487.221 219.507 487.657 219.712C488.363 220.042 488.487 220.841 487.996 221.369C487.537 221.866 486.885 222.28 486.173 222.428C485.951 222.475 485.725 222.471 485.5 222.482C485.627 223.184 485.891 223.965 486.339 224.846C486.797 225.747 487.391 226.592 488.068 227.38C488.462 227.199 488.867 227.033 489.289 226.893C489.948 226.676 490.898 227.197 490.831 227.869C490.774 228.458 490.601 229.021 490.327 229.538C491.285 230.295 492.327 230.916 493.383 231.451C493.496 231.39 493.607 231.325 493.723 231.268C493.973 231.145 494.232 231.038 494.492 230.934C494.641 230.874 494.795 230.822 494.955 230.786C495.363 230.692 495.785 230.756 496.104 231.013C496.419 231.266 496.564 231.662 496.469 232.031C496.419 232.228 496.337 232.413 496.255 232.6C497.819 233.047 499.319 233.208 500.567 232.962C500.567 232.962 501.251 231.741 501.957 229.939C501.583 229.86 501.209 229.78 500.841 229.684C500.407 229.572 500.075 229.373 499.816 229.044C499.564 228.726 499.524 228.317 499.598 227.945C499.67 227.587 499.978 227.224 500.317 227.031C500.647 226.843 501.162 226.737 501.55 226.838C501.989 226.951 502.436 227.037 502.881 227.125C503.28 225.598 503.535 223.924 503.448 222.298C503.407 222.315 503.364 222.331 503.336 222.341C502.672 222.62 502.037 222.952 501.44 223.334C500.695 223.809 499.668 223.505 499.181 222.887C498.654 222.221 498.987 221.321 499.681 220.877Z" fill="white"/>
<path d="M454.265 230.902C453.94 232.934 460.125 234.272 465.169 235.021C464.758 238.711 462.003 242.441 458.197 245.923C453.411 243.52 446.576 240.344 445.316 241.119C443.942 241.966 450.939 245.997 455.314 248.368C452.236 250.802 448.77 253.071 445.402 255.059C443.256 253.273 440.744 251.705 439.247 252.553C437.694 253.433 438.114 256.196 438.881 258.663C433.674 261.368 429.774 263.013 429.774 263.013C429.774 263.013 427.588 257.109 426.295 249.839C426.557 249.377 426.818 248.91 427.058 248.417C427.898 246.687 427.08 245.952 425.695 245.708C425.336 242.526 425.232 239.254 425.609 236.217C431.503 235.115 438.67 233.076 435.986 229.927C434.366 228.028 431.403 227.814 428.318 228.289C428.75 227.656 429.227 227.059 429.774 226.523C440.501 215.992 447.983 226.523 447.983 226.523C454.217 221.893 462.974 223.147 464.867 230.379C461.367 229.582 454.667 228.392 454.265 230.902Z" fill="#407BFF"/>
<path opacity="0.5" d="M454.265 230.902C453.94 232.934 460.125 234.272 465.169 235.021C464.758 238.711 462.003 242.441 458.197 245.923C453.411 243.52 446.576 240.344 445.316 241.119C443.942 241.966 450.939 245.997 455.314 248.368C452.236 250.802 448.77 253.071 445.402 255.059C443.256 253.273 440.744 251.705 439.247 252.553C437.694 253.433 438.114 256.196 438.881 258.663C433.674 261.368 429.774 263.013 429.774 263.013C429.774 263.013 427.588 257.109 426.295 249.839C426.557 249.377 426.818 248.91 427.058 248.417C427.898 246.687 427.08 245.952 425.695 245.708C425.336 242.526 425.232 239.254 425.609 236.217C431.503 235.115 438.67 233.076 435.986 229.927C434.366 228.028 431.403 227.814 428.318 228.289C428.75 227.656 429.227 227.059 429.774 226.523C440.501 215.992 447.983 226.523 447.983 226.523C454.217 221.893 462.974 223.147 464.867 230.379C461.367 229.582 454.667 228.392 454.265 230.902Z" fill="white"/>
<path d="M116.998 344.981C115.207 344.981 113.71 343.768 113.541 342.18L112.436 331.851V246.121H121.557V331.851L120.453 342.18C120.285 343.768 118.788 344.981 116.998 344.981Z" fill="#263238"/>
<path opacity="0.3" d="M116.998 344.981C115.207 344.981 113.71 343.768 113.541 342.18L112.436 331.851V246.121H121.557V331.851L120.453 342.18C120.285 343.768 118.788 344.981 116.998 344.981Z" fill="white"/>
<path opacity="0.2" d="M121.559 246.123H112.438V256.106H121.559V246.123Z" fill="black"/>
<path d="M96.5411 157.798C97.8459 157.776 99.1554 158.296 100.029 159.588C116.735 184.341 122.67 214.096 116.906 242.485C116.544 244.264 115.178 245.093 113.66 245.184C111.131 245.338 66.1133 245.195 64.4811 245.193C62.0267 245.188 59.3286 243.329 59.9058 240.49C65.2615 214.109 59.3643 186.321 43.8774 163.373C41.9535 160.521 44.7912 157.845 47.6599 157.797C48.9647 157.776 93.6724 157.848 96.5411 157.798Z" fill="#407BFF"/>
<path opacity="0.2" d="M96.5411 157.798C97.8459 157.776 99.1554 158.296 100.029 159.588C116.735 184.341 122.67 214.096 116.906 242.485C116.544 244.264 115.178 245.093 113.66 245.184C111.131 245.338 66.1133 245.195 64.4811 245.193C62.0267 245.188 59.3286 243.329 59.9058 240.49C65.2615 214.109 59.3643 186.321 43.8774 163.373C41.9535 160.521 44.7912 157.845 47.6599 157.797C48.9647 157.776 93.6724 157.848 96.5411 157.798Z" fill="black"/>
<path d="M59.9058 240.491C65.2616 214.11 59.3644 186.322 43.8774 163.375C41.0785 159.226 48.355 155.451 51.1477 159.588C67.8541 184.341 73.7886 214.096 68.0248 242.485C67.0613 247.229 58.9455 245.219 59.9058 240.491Z" fill="#407BFF"/>
<g opacity="0.1">
<path d="M59.9058 240.491C65.2616 214.11 59.3644 186.322 43.8774 163.375C41.0785 159.226 48.355 155.451 51.1477 159.588C67.8541 184.341 73.7886 214.096 68.0248 242.485C67.0613 247.229 58.9455 245.219 59.9058 240.491Z" fill="white"/>
</g>
<path d="M200.288 238.319C189.969 235.975 179.364 234.685 168.732 234.447C157.774 234.202 116.755 234.41 107.015 234.407C95.1586 234.403 83.3006 235.705 71.7963 238.319C64.5648 239.963 66.7943 249.261 73.3261 249.368C73.9032 249.378 197.898 249.345 198.354 249.363C205.187 249.639 207.679 239.999 200.288 238.319Z" fill="#407BFF"/>
<path opacity="0.3" d="M200.288 238.319C189.969 235.975 179.364 234.685 168.732 234.447C157.774 234.202 116.755 234.41 107.015 234.407C95.1586 234.403 83.3006 235.705 71.7963 238.319C64.5648 239.963 66.7943 249.261 73.3261 249.368C73.9032 249.378 197.898 249.345 198.354 249.363C205.187 249.639 207.679 239.999 200.288 238.319Z" fill="black"/>
<path d="M75.1539 249.169C95.9827 244.436 118.046 244.436 138.875 249.169C146.754 250.959 150.116 240.109 142.233 238.318C119.226 233.089 94.8035 233.089 71.7965 238.318C63.9258 240.106 67.2615 250.963 75.1539 249.169Z" fill="#407BFF"/>
<g opacity="0.3">
<path d="M75.1539 249.169C95.9827 244.436 118.046 244.436 138.875 249.169C146.754 250.959 150.116 240.109 142.233 238.318C119.226 233.089 94.8035 233.089 71.7965 238.318C63.9258 240.106 67.2615 250.963 75.1539 249.169Z" fill="white"/>
</g>
<path d="M151.94 194.662H96.4016V214.496H151.94V194.662Z" fill="#263238"/>
<path opacity="0.2" d="M151.94 194.662H96.4016V214.496H151.94V194.662Z" fill="white"/>
<path d="M108.309 212.06L152.863 209.873C152.863 209.873 226.888 220.188 225.835 238.63C224.783 257.072 194.611 315.213 194.611 315.213L176.946 310.837C176.946 310.837 190.4 252.383 199.171 242.695C199.171 242.695 143.89 236.916 130.058 233.63C122.448 231.819 104.098 234.876 108.309 212.06Z" fill="#263238"/>
<path opacity="0.2" d="M108.309 212.06L152.863 209.873C152.863 209.873 226.888 220.188 225.835 238.63C224.783 257.072 194.611 315.213 194.611 315.213L176.946 310.837C176.946 310.837 190.4 252.383 199.171 242.695C199.171 242.695 143.89 236.916 130.058 233.63C122.448 231.819 104.098 234.876 108.309 212.06Z" fill="white"/>
<path opacity="0.2" d="M191.694 241.89C191.894 238.169 191.48 232.372 188.298 225.971C184.18 217.686 150.296 212.719 134.084 210.795L108.311 212.06C104.102 234.877 122.45 231.821 130.063 233.629C140.738 236.167 176.116 240.188 191.694 241.89Z" fill="black"/>
<path d="M120.237 212.061C120.237 212.061 179.878 213.937 183.386 230.191C186.894 246.445 166.897 319.276 166.897 319.276H149.005C149.005 319.276 151.11 253.947 157.074 240.192C157.074 240.192 107.959 247.07 94.9789 237.137C85.701 230.039 96.7336 212.057 96.7336 212.057L120.237 212.061Z" fill="#263238"/>
<path opacity="0.2" d="M120.237 212.061C120.237 212.061 179.878 213.937 183.386 230.191C186.894 246.445 166.897 319.276 166.897 319.276H149.005C149.005 319.276 151.11 253.947 157.074 240.192C157.074 240.192 107.959 247.07 94.9789 237.137C85.701 230.039 96.7336 212.057 96.7336 212.057L120.237 212.061Z" fill="white"/>
<path d="M199.465 150.423L209.029 147.244L200.882 140.238C200.882 140.238 192.541 143.535 194.628 147.292L199.465 150.423Z" fill="#B55B52"/>
<path d="M215.281 140.162L205.982 136.258L200.884 140.237L209.029 147.243L215.281 140.162Z" fill="#B55B52"/>
<path d="M187.324 150.797L192.952 145.331L200.483 151.046L194.38 157.467L187.324 150.797Z" fill="#407BFF"/>
<path opacity="0.8" d="M187.324 150.797L192.952 145.331L200.483 151.046L194.38 157.467L187.324 150.797Z" fill="white"/>
<path d="M149.169 117.169C149.169 117.169 155.043 123.124 163.53 142.592C172.015 162.06 181.42 156.382 191.747 145.886L200.232 152.769C200.232 152.769 184.368 170.38 174.384 170.38C163.269 170.38 152.482 155.029 150.311 144.305C148.141 133.58 149.169 117.169 149.169 117.169Z" fill="#263238"/>
<path opacity="0.4" d="M151.247 128.431L148.089 126.08L146.612 133.57C146.82 135.743 147.106 137.861 147.497 139.793C148.735 145.907 153.382 153.926 158.376 160.599C156.554 145.775 151.247 128.431 151.247 128.431Z" fill="black"/>
<path d="M90.914 175.137L91.7952 215.69L125.309 216.698C129.686 216.739 130.7 214.109 131.617 211.162L133.265 205.86L134.725 210.654C135.614 213.574 140.197 214.059 143.523 213.453L158.115 210.235L154.767 170.292C154.767 170.292 157.018 140.214 151.742 120.955C150.736 117.289 146.985 114.735 142.866 113.858C133.49 111.864 113.347 109.359 90.4764 117.396C88.3509 118.142 87.0476 120.075 87.3285 122.094L90.914 175.137Z" fill="#263238"/>
<path opacity="0.5" d="M132.472 157.955C132.472 158.64 131.849 159.196 131.079 159.196C130.309 159.196 129.686 158.64 129.686 157.955C129.686 157.269 130.309 156.713 131.079 156.713C131.849 156.713 132.472 157.269 132.472 157.955Z" fill="black"/>
<path opacity="0.5" d="M133.842 175.137C133.842 175.823 133.218 176.379 132.449 176.379C131.679 176.379 131.056 175.823 131.056 175.137C131.056 174.452 131.679 173.896 132.449 173.896C133.218 173.896 133.842 174.452 133.842 175.137Z" fill="black"/>
<path opacity="0.5" d="M134.404 192.11C134.404 192.796 133.78 193.351 133.011 193.351C132.241 193.351 131.617 192.796 131.617 192.11C131.617 191.424 132.241 190.869 133.011 190.869C133.78 190.867 134.404 191.424 134.404 192.11Z" fill="black"/>
<path d="M110.061 111.336C110.061 111.336 117.465 108.474 126.736 110.304L130.159 112.042L131.36 115.438L127.025 118.466L116.79 119.393L108.329 116.276L108.8 112.927L110.061 111.336Z" fill="#263238"/>
<path d="M128.792 113.089C125.4 112.284 122.997 107.016 125.79 103.629L110.958 93.397C113.12 111.854 112.061 108.497 108.976 113.803C108.976 113.803 111.114 119.956 123.069 118.043C130.832 116.802 128.792 113.089 128.792 113.089Z" fill="#B55B52"/>
<path opacity="0.2" d="M125.79 103.629L110.858 93.7656C111.242 96.3672 111.282 96.3866 111.488 98.2652C113.066 101.121 116.261 108.398 124.677 108.615C124.308 107.306 124.727 104.461 125.79 103.629Z" fill="black"/>
<path d="M109.192 122.835L113.265 134.655L122.732 146.844L130.499 154.041L133.408 143.488L132.472 121.465L132.323 116.723L130.148 113.995L126.694 116.693L123.753 117.705L119.446 117.737L108.131 114.672L109.192 122.835Z" fill="#407BFF"/>
<path opacity="0.8" d="M109.192 122.835L113.265 134.655L122.732 146.844L130.499 154.041L133.408 143.488L132.472 121.465L132.323 116.723L130.148 113.995L126.694 116.693L123.753 117.705L119.446 117.737L108.131 114.672L109.192 122.835Z" fill="#407BFF"/>
<path opacity="0.5" d="M109.192 122.835L113.265 134.655L122.732 146.844L130.499 154.041L133.408 143.488L132.472 121.465L132.323 116.723L130.148 113.995L126.694 116.693L123.753 117.705L119.446 117.737L108.131 114.672L109.192 122.835Z" fill="white"/>
<path d="M118.326 121.466C118.326 121.466 119.7 124.175 122.732 126.484C122.732 126.484 120.834 138.533 123.751 146.969L130.497 154.041L132.471 145.294C132.471 145.294 129.45 131.296 125.397 126C125.397 126 127.085 123.155 127.642 120.236L125.222 118.466C125.222 118.466 121.863 120.603 119.845 119.115L118.326 121.466Z" fill="#407BFF"/>
<path d="M108.925 112.427C108.925 112.427 115.168 117.167 121.441 117.167C127.714 117.167 128.409 111.334 128.409 111.334L131.054 113.882C131.054 113.882 131.475 118.024 128.898 122.384L122.352 118.45L117.916 124.138C117.916 124.138 110.978 121.16 107.579 115.824L108.925 112.427Z" fill="#407BFF"/>
<path opacity="0.8" d="M108.925 112.427C108.925 112.427 115.168 117.167 121.441 117.167C127.714 117.167 128.409 111.334 128.409 111.334L131.054 113.882C131.054 113.882 131.475 118.024 128.898 122.384L122.352 118.45L117.916 124.138C117.916 124.138 110.978 121.16 107.579 115.824L108.925 112.427Z" fill="white"/>
<path d="M110.061 111.336C110.061 111.336 104.939 125.399 130.148 152.221C130.148 152.221 134.674 119.362 126.738 110.303L132.253 112.245L137.992 119.976L133.786 122.384L138.988 124.45C138.988 124.45 138.248 135.099 130.927 155.583C130.927 155.583 114.355 144.166 103.523 128.755L108.565 125.173L101.826 124.225L104.821 113.555L110.061 111.336Z" fill="#263238"/>
<path opacity="0.3" d="M110.061 111.336C110.061 111.336 104.939 125.399 130.148 152.221C130.148 152.221 134.674 119.362 126.738 110.303L132.253 112.245L137.992 119.976L133.786 122.384L138.988 124.45C138.988 124.45 138.248 135.099 130.927 155.583C130.927 155.583 114.355 144.166 103.523 128.755L108.565 125.173L101.826 124.225L104.821 113.555L110.061 111.336Z" fill="black"/>
<path opacity="0.4" d="M88.0002 126.009L94.5646 158.594L95.3326 157.745C98.9258 141.04 93.9099 125.042 93.9099 125.042L91.9146 125.988L88.0002 126.009Z" fill="black"/>
<path d="M129.769 68.3706C129.769 68.3706 136.905 80.1414 131.416 87.2993C125.926 94.4572 116.599 71.2819 116.599 71.2819L129.769 68.3706Z" fill="#263238"/>
<path d="M136.087 93.961C136.055 94.4393 135.993 94.9121 135.901 95.3779C135.592 97.0727 134.913 98.6444 133.974 100.036C132.989 101.523 131.693 102.789 130.199 103.803C127.479 105.647 124.102 106.625 120.653 106.357C118.368 106.18 116.047 105.464 113.874 104.079C107.605 100.14 106.64 94.5969 104.165 85.3503C103.602 83.3638 103.548 81.2917 104.057 79.3038C105.791 72.2856 113.594 67.8634 121.446 69.4144C132.475 71.5142 136.677 85.1885 136.087 93.961Z" fill="#B55B52"/>
<path d="M120.628 85.4494C120.72 86.2138 121.348 86.7557 121.916 86.6658C122.484 86.576 122.802 85.8821 122.656 85.1231C122.51 84.3628 121.922 83.8168 121.368 83.9066C120.814 83.9951 120.481 84.6766 120.628 85.4494Z" fill="#263238"/>
<path d="M130.299 83.923C130.39 84.6874 131.032 85.2293 131.586 85.1395C132.14 85.051 132.472 84.357 132.326 83.5967C132.181 82.8364 131.592 82.2904 131.039 82.3803C130.485 82.4688 130.157 83.2 130.299 83.923Z" fill="#263238"/>
<path d="M127.301 84.7832C128.783 86.9535 130.593 88.9317 132.683 90.6596C131.644 91.6052 130.188 92.0932 128.708 91.9922L127.301 84.7832Z" fill="#A02724"/>
<path d="M133.152 79.677C133.004 79.7834 132.803 79.8125 132.626 79.7517C131.434 79.2955 130.07 79.366 128.947 79.9438C128.718 80.0876 128.403 80.0378 128.241 79.8346C128.08 79.63 128.136 79.348 128.364 79.2056L128.365 79.2042C129.765 78.4426 131.492 78.332 133 78.9084C133.262 78.9941 133.397 79.254 133.301 79.4876C133.299 79.4918 133.298 79.4945 133.296 79.4973C133.259 79.565 133.211 79.6245 133.152 79.677Z" fill="#263238"/>
<path d="M118.029 82.3059C117.927 82.3197 117.823 82.3031 117.731 82.2617C117.513 82.1055 117.477 81.8221 117.652 81.6272C117.654 81.6244 117.657 81.6216 117.66 81.6189C118.676 80.466 120.26 79.8273 121.903 79.9047C122.181 79.9324 122.381 80.1563 122.35 80.4038V80.4052C122.311 80.6512 122.065 80.8254 121.789 80.8033C120.49 80.7756 119.252 81.2968 118.451 82.2078C118.333 82.2935 118.18 82.3294 118.029 82.3059Z" fill="#263238"/>
<path d="M109.55 72.4536L111.15 76.4265C109.828 77.4439 109.305 79.1401 110.408 80.6095C112.764 83.7475 111.93 89.5217 109.512 92.2449C109.512 92.2449 109.042 90.7741 107.721 91.4127C106.401 92.0514 108.762 99.7262 112.455 102.87C112.455 102.87 107.444 100.365 103.023 92.6983C98.9351 85.6082 97.0687 79.3875 98.0648 76.1252L109.55 72.4536Z" fill="#263238"/>
<path d="M101.098 93.7463C102.684 95.6802 105.067 96.9754 107.723 97.3459C111.243 97.8159 112.565 94.9116 111.228 92.151C110.013 89.707 106.717 86.4308 103.358 87.2547C99.9995 88.08 99.185 91.3506 101.098 93.7463Z" fill="#B55B52"/>
<path d="M97.8026 78.1397C97.8026 78.1397 95.3699 72.9904 103.839 66.955C112.309 60.9196 123.882 63.7175 129.344 58.882C134.807 54.0479 138.639 68.8599 125.489 73.1466C112.338 77.432 97.8026 78.1397 97.8026 78.1397Z" fill="#263238"/>
<path d="M128.511 94.7683C127.399 95.8921 125.909 98.1592 125.909 98.1592C125.655 98.0763 125.4 97.9933 125.151 97.8979C121.726 96.6925 120.585 95.1249 120.358 93.7536C120.237 93.003 120.4 92.3049 120.614 91.7644C120.853 91.1368 121.183 90.7373 121.183 90.7373C122.57 92.3422 125.664 93.6859 127.352 94.3411C128.053 94.6217 128.511 94.7683 128.511 94.7683Z" fill="#263238"/>
<path d="M127.351 94.3407L126.555 95.3236C123.332 94.1817 121.236 92.9915 120.613 91.7654C120.852 91.1378 121.182 90.7383 121.182 90.7383C122.569 92.3418 125.664 93.6855 127.351 94.3407Z" fill="white"/>
<path d="M125.151 97.8977C121.727 96.6923 120.585 95.1247 120.358 93.7534C121.508 94.2041 122.836 94.8621 123.863 95.7634C124.65 96.4504 125 97.2066 125.151 97.8977Z" fill="#A02724"/>
<path d="M68.07 162.099C69.6929 165.199 72.4793 165.494 75.3449 164.232C77.6132 163.235 79.9436 161.243 81.7697 158.9C83.0776 157.23 84.8245 154.718 86.6196 152.067C90.4626 146.329 94.4624 139.959 94.4624 139.959C96.875 136.96 98.4311 133.427 97.1077 128.463C94.7866 122.314 91.9335 118.78 89.0942 118.464C81.3616 121.761 65.1734 156.543 68.07 162.099Z" fill="#263238"/>
<path opacity="0.2" d="M75.3447 164.231C77.613 163.235 79.9433 161.243 81.7694 158.9C83.0773 157.23 84.8243 154.718 86.6194 152.067C84.4147 148.46 82.0689 145.612 82.0689 145.612L78.1638 155.391C78.1638 155.391 71.3139 156.78 70.2279 159.965C69.8183 161.174 72.1486 162.885 75.3447 164.231Z" fill="black"/>
<path d="M75.5805 136.28L88.5215 180.214C88.8241 181.244 90.0404 181.969 91.2258 181.828L125.549 177.752C126.736 177.611 127.456 176.657 127.154 175.628L114.213 131.695C113.91 130.665 112.695 129.941 111.508 130.082L77.1848 134.157C75.9979 134.296 75.2764 135.25 75.5805 136.28Z" fill="#263238"/>
<path opacity="0.4" d="M75.5806 136.28L88.5215 180.215C88.8241 181.244 90.0404 181.969 91.2258 181.828L123.989 177.938C125.176 177.797 125.895 176.843 125.593 175.813L112.652 131.879C112.349 130.849 111.133 130.125 109.948 130.266L77.1848 134.156C75.9979 134.297 75.2765 135.25 75.5806 136.28Z" fill="white"/>
<path opacity="0.3" d="M99.4053 153.033C101.11 152.831 102.846 153.867 103.281 155.346C103.717 156.825 102.688 158.189 100.983 158.391C99.278 158.593 97.5419 157.557 97.106 156.078C98.8126 155.875 99.8412 154.512 99.4053 153.033Z" fill="white"/>
<path d="M72.7941 172.454C75.1089 173.549 80.3219 171.893 81.9122 171.332C82.2272 171.234 82.4009 171.163 82.4009 171.163C82.4009 171.163 85.251 162.885 77.8349 158.409C77.7868 158.382 77.7247 158.339 77.6611 158.325C75.2997 157.189 67.9767 158.647 67.7564 160.851C66.8736 169.689 70.0386 171.163 72.7941 172.454Z" fill="#263238"/>
<path opacity="0.2" d="M77.3136 165.382C78.2119 168.37 80.1792 170.223 81.9122 171.33C82.2271 171.232 82.4009 171.161 82.4009 171.161C82.4009 171.161 85.251 162.884 77.8349 158.408C77.7868 158.38 77.7247 158.337 77.6611 158.323C77.0141 159.068 76.0072 161.033 77.3136 165.382Z" fill="black"/>
<path d="M88.0064 154.884C88.0064 154.884 83.2496 154.699 81.0604 154.884C78.8697 155.069 79.5461 161.341 79.5461 161.341L77.6688 162.247C77.6688 162.247 76.1453 165.94 79.4174 167.794L81.0976 167.281C81.0976 167.281 81.5724 168.762 82.9206 169.501C84.2689 170.241 90.9139 168.576 90.9139 168.576L88.0064 154.884Z" fill="#B55B52"/>
<path d="M211.642 181.833C212.518 181.833 213.229 181.2 213.229 180.419C213.229 179.637 212.518 179.004 211.642 179.004H168.375C167.499 179.004 166.788 179.637 166.788 180.419C166.788 181.2 167.499 181.833 168.375 181.833H211.642Z" fill="#407BFF"/>
<path opacity="0.5" d="M211.642 181.833C212.518 181.833 213.229 181.2 213.229 180.419C213.229 179.637 212.518 179.004 211.642 179.004H168.375C167.499 179.004 166.788 179.637 166.788 180.419C166.788 181.2 167.499 181.833 168.375 181.833H211.642Z" fill="white"/>
<path d="M207.969 179.385L213.729 142.869C213.941 141.526 215.334 140.437 216.842 140.437H222.361V181.816H210.317C208.807 181.818 207.757 180.728 207.969 179.385Z" fill="#407BFF"/>
<path opacity="0.6" d="M207.969 179.385L213.729 142.869C213.941 141.526 215.334 140.437 216.842 140.437H222.361V181.816H210.317C208.807 181.818 207.757 180.728 207.969 179.385Z" fill="white"/>
<path d="M212.697 181.818H261.618C263.126 181.818 264.52 180.728 264.732 179.385L270.491 142.869C270.704 141.526 269.653 140.437 268.145 140.437H219.224C217.716 140.437 216.323 141.526 216.11 142.869L210.351 179.385C210.138 180.728 211.189 181.818 212.697 181.818Z" fill="#407BFF"/>
<path opacity="0.5" d="M212.697 181.818H261.618C263.126 181.818 264.52 180.728 264.732 179.385L270.491 142.869C270.704 141.526 269.653 140.437 268.145 140.437H219.224C217.716 140.437 216.323 141.526 216.11 142.869L210.351 179.385C210.138 180.728 211.189 181.818 212.697 181.818Z" fill="white"/>
<path opacity="0.7" d="M236.357 163.012C236.03 165.084 237.649 166.764 239.977 166.764C242.302 166.764 244.453 165.084 244.78 163.012C245.107 160.94 243.486 159.26 241.16 159.26C238.835 159.26 236.684 160.94 236.357 163.012Z" fill="white"/>
<path d="M62.1945 345.912H66.2501L71.4709 190.849H66.1105L62.1945 345.912Z" fill="#263238"/>
<path opacity="0.6" d="M62.1945 345.912H66.2501L71.4709 190.849H66.1105L62.1945 345.912Z" fill="white"/>
<path d="M127.598 190.849V345.912H123.303L118.255 197.935H66.4549L62.6693 345.912H58.4182V190.849H127.598Z" fill="#263238"/>
<path opacity="0.4" d="M127.598 190.849V345.912H123.303L118.255 197.935H66.4549L62.6693 345.912H58.4182V190.849H127.598Z" fill="white"/>
<path d="M127.598 345.912H131.652L132.958 190.849H127.598V345.912Z" fill="#263238"/>
<path opacity="0.6" d="M127.598 345.912H131.652L132.958 190.849H127.598V345.912Z" fill="white"/>
<path d="M282.348 345.912H286.403L291.624 190.849H286.264L282.348 345.912Z" fill="#263238"/>
<path opacity="0.6" d="M282.348 345.912H286.403L291.624 190.849H286.264L282.348 345.912Z" fill="white"/>
<path d="M347.749 190.849V345.912H343.456L338.408 197.935H286.608L282.823 345.912H278.571V190.849H347.749Z" fill="#263238"/>
<path opacity="0.4" d="M347.749 190.849V345.912H343.456L338.408 197.935H286.608L282.823 345.912H278.571V190.849H347.749Z" fill="white"/>
<path d="M347.749 345.912H351.805L353.11 190.849H347.749V345.912Z" fill="#263238"/>
<path opacity="0.6" d="M347.749 345.912H351.805L353.11 190.849H347.749V345.912Z" fill="white"/>
<path d="M130.941 190.849L360.207 190.849V181.932L130.941 181.932V190.849Z" fill="#263238"/>
<path opacity="0.5" d="M130.941 190.849L360.207 190.849V181.932L130.941 181.932V190.849Z" fill="white"/>
<path d="M51.3223 190.849H137.176V181.932H51.3223V190.849Z" fill="#263238"/>
<path opacity="0.3" d="M51.3223 190.849H137.176V181.932H51.3223V190.849Z" fill="white"/>
<path d="M316.032 130.7L319.979 124.3L325.279 130.881C325.279 130.881 321.369 136.402 318.262 134.489L316.032 130.7Z" fill="#E4897B"/>
<path d="M327.02 120.698L329.421 127.735L325.28 130.882L319.979 124.3L327.02 120.698Z" fill="#E4897B"/>
<path opacity="0.2" d="M321.905 123.314C322.545 126.227 323.642 128.772 325.279 130.881L326.142 130.226L323.419 122.54L321.905 123.314Z" fill="black"/>
<path d="M315.031 143.117L316.032 130.7L321.281 131.589V144.091L315.031 143.117Z" fill="#E4897B"/>
<path d="M254.011 278.597L264.912 283.808C264.912 283.808 306.093 219.289 312.428 219.825C318.763 220.362 378.84 254.479 397.161 241.88C415.481 229.292 397.655 191.349 397.655 191.349C397.655 191.349 359.755 181.697 355.645 189.119C354.846 190.554 353.774 193.429 352.93 195.899C352.121 198.225 351.512 200.186 351.512 200.186C351.512 200.186 351.499 200.185 351.488 200.172C350.334 199.756 312.9 186.081 296.189 193.41C279.211 200.868 254.011 278.597 254.011 278.597Z" fill="#263238"/>
<path opacity="0.3" d="M254.011 278.597L264.912 283.808C264.912 283.808 306.093 219.289 312.428 219.825C318.763 220.362 378.84 254.479 397.161 241.88C415.481 229.292 397.655 191.349 397.655 191.349C397.655 191.349 359.755 181.697 355.645 189.119C354.846 190.554 353.774 193.429 352.93 195.899C352.121 198.225 351.512 200.186 351.512 200.186C351.512 200.186 351.499 200.185 351.488 200.172C350.334 199.756 312.9 186.081 296.189 193.41C279.211 200.868 254.011 278.597 254.011 278.597Z" fill="white"/>
<path d="M368.859 241.982C368.859 241.982 366.232 241.717 325.943 235.066C325.943 235.066 325.034 280.977 323.123 315.196L310.712 315.553C310.712 315.553 292.912 239.598 295.002 228.132C297.092 216.667 312.413 215.113 312.413 215.113C312.413 215.113 339.007 233.522 368.859 241.982Z" fill="#263238"/>
<path opacity="0.4" d="M368.859 241.982C368.859 241.982 366.232 241.717 325.943 235.066C325.943 235.066 325.034 280.977 323.123 315.196L310.712 315.553C310.712 315.553 292.912 239.598 295.002 228.132C297.092 216.667 312.413 215.113 312.413 215.113C312.413 215.113 339.007 233.522 368.859 241.982Z" fill="white"/>
<path opacity="0.3" d="M368.859 241.982C368.859 241.982 366.232 241.717 325.943 235.066C325.943 235.066 325.034 280.977 323.123 315.196L310.712 315.553C310.712 315.553 292.912 239.598 295.002 228.132C297.092 216.667 312.413 215.113 312.413 215.113C312.413 215.113 339.007 233.522 368.859 241.982Z" fill="black"/>
<path d="M327.287 111.387C327.159 111.387 327.037 111.332 326.962 111.231C325.717 109.535 322.994 109.569 322.964 109.575C322.961 109.575 322.956 109.575 322.956 109.575C322.745 109.575 322.573 109.426 322.569 109.238C322.564 109.047 322.731 108.889 322.946 108.884C323.079 108.874 326.129 108.834 327.612 110.854C327.729 111.013 327.679 111.228 327.499 111.332C327.434 111.369 327.361 111.387 327.287 111.387Z" fill="#263238"/>
<path d="M324.246 115.489C324.246 115.489 322.53 117.767 320.784 119.039C320.784 119.039 321.524 120.377 323.394 120.335L324.246 115.489Z" fill="#DE5753"/>
<path d="M322.745 112.786C322.637 113.542 323.007 114.208 323.574 114.272C324.14 114.337 324.686 113.775 324.795 113.018C324.903 112.262 324.533 111.595 323.966 111.532C323.402 111.468 322.854 112.029 322.745 112.786Z" fill="#263238"/>
<path d="M324.198 111.596L322.443 110.74C322.443 110.74 323.164 112.23 324.198 111.596Z" fill="#263238"/>
<path d="M344.803 130.92C344.694 130.996 344.572 131.073 344.452 131.126C342.822 132.055 340.958 132.934 338.878 133.262C333.055 134.195 329.161 133.321 326.722 130.89C326.71 130.89 326.71 130.89 326.71 130.89C323.306 127.251 322.745 121.044 323.661 113.627C324.07 110.225 324.779 107.28 325.96 105.016C325.974 104.994 325.979 104.908 325.993 104.885C326.05 104.793 326.095 104.666 326.153 104.575C327.906 101.418 330.638 99.4408 334.867 98.7413C336.33 98.5021 337.98 98.4054 339.83 98.4621C356.121 99.0205 357.735 123.176 344.803 130.92Z" fill="#E4897B"/>
<path opacity="0.2" d="M344.452 131.126C342.822 132.055 340.969 132.731 338.889 133.06C333.066 133.993 329.181 132.952 326.744 130.485C329.539 131.165 333.331 131.539 337.114 130.179C339.497 129.328 342.061 129.929 344.452 131.126Z" fill="black"/>
<path d="M325.957 104.921C325.957 104.921 324.502 115.055 335.083 119.894C335.083 119.894 339.149 130.664 345.982 131.111C355.296 131.721 364.162 120.255 361.592 108.074C358.257 92.2776 331.777 89.8516 325.957 104.921Z" fill="#263238"/>
<path d="M329.763 116.736C329.854 115.149 331.432 112.546 334.18 113.028C337.025 113.527 338.268 119.89 331.148 120.991C330.129 121.147 329.574 120.045 329.763 116.736Z" fill="#E4897B"/>
<path d="M346.434 94.9733C346.434 94.9733 335.676 92.0455 329.44 95.6852C322.159 99.9374 319.234 104.535 327.158 112.216C327.158 112.216 345.737 107.728 351.755 109.112C357.773 110.494 362.035 112.264 362.035 112.264C363.905 101.556 352.636 93.038 346.434 94.9733Z" fill="#263238"/>
<path d="M336.202 132.274C336.202 132.274 344.199 135.757 341.864 143.393L362.229 135.839C362.229 135.839 351.107 135.217 351.668 128.247C351.668 128.247 340.032 124.266 336.202 132.274Z" fill="#E4897B"/>
<path d="M358.127 108.208C358.127 108.208 362.15 97.8789 371.285 99.6607C380.421 101.443 379.713 110.178 373.183 112.879C366.651 115.579 357.499 114.553 358.127 108.208Z" fill="#263238"/>
<path d="M368.912 113.201C368.912 113.201 377.004 113.158 376.007 119.341C376.007 119.341 375.31 117.338 373.487 116.515C373.487 116.515 375.937 118.187 373.498 121.08C373.498 121.08 374.48 119.194 371.133 117.878C367.787 116.561 358.627 116.686 360.332 112.653C362.037 108.621 368.912 113.201 368.912 113.201Z" fill="#263238"/>
<path d="M360.831 135.325L355.86 132.139C355.86 132.139 339.517 134.11 339.349 143.394C339.18 152.677 360.831 135.325 360.831 135.325Z" fill="#407BFF"/>
<path opacity="0.2" d="M351.512 200.186L367.087 207.153C367.087 207.153 361.927 199.473 352.93 195.899C352.121 198.225 351.512 200.186 351.512 200.186Z" fill="black"/>
<path d="M363.819 135.326C363.819 135.326 351.563 133.226 334.506 143.395C334.506 143.395 328.796 165.651 352.929 195.9L398.692 193.344C398.692 193.344 386.302 148.778 363.819 135.326Z" fill="#263238"/>
<path opacity="0.1" d="M335.89 163.906C336.656 166.766 337.71 169.882 339.115 173.196C341.973 179.982 346.333 187.636 352.927 195.902L398.689 193.342C398.689 193.342 386.299 148.783 363.817 135.324C363.817 135.324 351.569 133.233 334.5 143.391C334.5 143.391 332.489 151.231 335.89 163.906Z" fill="white"/>
<path opacity="0.2" d="M335.89 163.906C336.656 166.767 337.71 169.882 339.115 173.196C339.61 168.345 341.43 161.258 341.43 161.258C340.249 161.373 336.799 163.508 335.89 163.906Z" fill="black"/>
<path d="M347.431 151.318C339.334 164.33 330.775 177.106 322.015 189.775C318.183 195.28 308.593 192.483 309.054 186.102C309.635 177.758 310.372 169.42 311.168 161.083C312.015 152.738 312.945 144.405 314.16 136.09C314.841 132.011 321.481 132.228 321.839 136.319C322.969 153.035 323.213 169.788 323.175 186.524L309.975 183.197C315.728 173.394 321.686 163.697 327.752 154.05C329.814 150.855 331.828 147.635 333.949 144.473C339.357 136.914 351.965 143.325 347.431 151.318Z" fill="#263238"/>
<path opacity="0.1" d="M347.431 151.318C339.334 164.33 330.775 177.106 322.015 189.775C318.183 195.28 308.593 192.483 309.054 186.102C309.635 177.758 310.372 169.42 311.168 161.083C312.015 152.738 312.945 144.405 314.16 136.09C314.841 132.011 321.481 132.228 321.839 136.319C322.969 153.035 323.213 169.788 323.175 186.524L309.975 183.197C315.728 173.394 321.686 163.697 327.752 154.05C329.814 150.855 331.828 147.635 333.949 144.473C339.357 136.914 351.965 143.325 347.431 151.318Z" fill="white"/>
<path opacity="0.2" d="M323.14 160.938L319.205 167.228L322.764 153.079L323.14 160.938Z" fill="black"/>
<path d="M391.818 346.84C390.027 346.84 388.53 345.627 388.361 344.039L387.256 333.71V247.98H396.378V333.71L395.273 344.039C395.104 345.627 393.608 346.84 391.818 346.84Z" fill="#263238"/>
<path opacity="0.3" d="M391.818 346.84C390.027 346.84 388.53 345.627 388.361 344.039L387.256 333.71V247.98H396.378V333.71L395.273 344.039C395.104 345.627 393.608 346.84 391.818 346.84Z" fill="white"/>
<path opacity="0.2" d="M396.378 247.98H387.256V257.963H396.378V247.98Z" fill="black"/>
<path d="M455.26 240.177C444.941 237.832 434.336 236.542 423.702 236.305C412.744 236.06 371.726 236.267 361.986 236.264C350.129 236.26 338.271 237.562 326.767 240.177C319.535 241.82 321.765 251.118 328.297 251.226C328.874 251.235 452.869 251.202 453.325 251.22C460.158 251.498 462.65 241.856 455.26 240.177Z" fill="#407BFF"/>
<path opacity="0.3" d="M455.26 240.177C444.941 237.832 434.336 236.542 423.702 236.305C412.744 236.06 371.726 236.267 361.986 236.264C350.129 236.26 338.271 237.562 326.767 240.177C319.535 241.82 321.765 251.118 328.297 251.226C328.874 251.235 452.869 251.202 453.325 251.22C460.158 251.498 462.65 241.856 455.26 240.177Z" fill="black"/>
<path d="M330.124 251.028C350.953 246.295 373.017 246.295 393.845 251.028C401.725 252.818 405.086 241.968 397.203 240.176C374.196 234.948 349.774 234.948 326.767 240.176C318.898 241.965 322.232 252.821 330.124 251.028Z" fill="#407BFF"/>
<g opacity="0.3">
<path d="M330.124 251.028C350.953 246.295 373.017 246.295 393.845 251.028C401.725 252.818 405.086 241.968 397.203 240.176C374.196 234.948 349.774 234.948 326.767 240.176C318.898 241.965 322.232 252.821 330.124 251.028Z" fill="white"/>
</g>
<path d="M422.097 159.657C420.792 159.635 419.482 160.154 418.609 161.447C401.902 186.199 395.968 215.955 401.732 244.343C402.093 246.122 403.46 246.951 404.977 247.043C407.506 247.196 452.524 247.054 454.157 247.051C456.611 247.047 459.309 245.188 458.732 242.348C453.376 215.967 459.273 188.179 474.76 165.232C476.684 162.38 473.847 159.704 470.978 159.655C469.675 159.633 424.965 159.705 422.097 159.657Z" fill="#407BFF"/>
<path opacity="0.2" d="M422.097 159.657C420.792 159.635 419.482 160.154 418.609 161.447C401.902 186.199 395.968 215.955 401.732 244.343C402.093 246.122 403.46 246.951 404.977 247.043C407.506 247.196 452.524 247.054 454.157 247.051C456.611 247.047 459.309 245.188 458.732 242.348C453.376 215.967 459.273 188.179 474.76 165.232C476.684 162.38 473.847 159.704 470.978 159.655C469.675 159.633 424.965 159.705 422.097 159.657Z" fill="black"/>
<path d="M409.851 242.35C404.495 215.969 410.392 188.18 425.879 165.233C428.678 161.086 421.401 157.31 418.609 161.447C401.902 186.2 395.968 215.955 401.732 244.343C402.695 249.087 410.811 247.077 409.851 242.35Z" fill="#407BFF"/>
<g opacity="0.2">
<path d="M409.851 242.35C404.495 215.969 410.392 188.18 425.879 165.233C428.678 161.086 421.401 157.31 418.609 161.447C401.902 186.2 395.968 215.955 401.732 244.343C402.695 249.087 410.811 247.077 409.851 242.35Z" fill="white"/>
</g>
<path d="M401.648 64.3636C390.058 74.4038 371.527 74.1729 360.259 63.8466C348.99 53.5204 349.25 37.0094 360.839 26.9693C372.429 16.9292 390.96 17.1601 402.228 27.4864C413.497 37.8126 413.238 54.3235 401.648 64.3636Z" fill="#263238"/>
<path d="M381.243 45.6669L401.648 64.3647C390.136 74.3385 371.452 74.1049 360.259 63.8477C349.065 53.5906 349.327 36.9442 360.839 26.9704C366.515 22.0533 374.195 19.3923 382.109 19.5997L381.243 45.6669Z" fill="#407BFF"/>
<path opacity="0.5" d="M381.243 45.6665L401.648 64.3643C398.534 67.0613 394.786 69.1086 390.674 70.3555C386.563 71.6024 382.192 72.0185 377.878 71.5734L381.243 45.6665Z" fill="white"/>
<path opacity="0.4" d="M381.243 45.6665L406.591 58.705C405.313 60.679 403.749 62.4954 401.94 64.1072C390.586 74.2234 371.9 74.2234 360.546 64.1072C359.471 63.1492 358.479 62.1166 357.584 61.0218L381.243 45.6665Z" fill="white"/>
<path d="M370.249 55.4622C364.176 50.0516 364.176 41.2805 370.249 35.8699C376.322 30.4594 386.166 30.4594 392.238 35.8699C398.311 41.2805 398.311 50.0516 392.238 55.4622C386.166 60.8727 376.32 60.8727 370.249 55.4622Z" fill="white"/>
<path d="M474.224 24.1807H436.924C436.633 24.1807 436.397 23.9706 436.397 23.7107C436.397 23.4508 436.633 23.2407 436.924 23.2407H474.224C474.515 23.2407 474.751 23.4508 474.751 23.7107C474.751 23.9706 474.515 24.1807 474.224 24.1807Z" fill="#263238"/>
<path d="M467.892 35.1593H436.924C436.633 35.1593 436.397 34.9491 436.397 34.6893C436.397 34.4294 436.633 34.2192 436.924 34.2192H467.892C468.184 34.2192 468.419 34.4294 468.419 34.6893C468.419 34.9478 468.184 35.1593 467.892 35.1593Z" fill="#263238"/>
<path d="M480.555 46.1368H436.924C436.633 46.1368 436.397 45.9267 436.397 45.6668C436.397 45.4069 436.633 45.1968 436.924 45.1968H480.555C480.847 45.1968 481.083 45.4069 481.083 45.6668C481.083 45.9253 480.847 46.1368 480.555 46.1368Z" fill="#263238"/>
<path d="M474.224 57.1143H436.924C436.633 57.1143 436.397 56.9042 436.397 56.6443C436.397 56.3844 436.633 56.1743 436.924 56.1743H474.224C474.515 56.1743 474.751 56.3844 474.751 56.6443C474.751 56.9042 474.515 57.1143 474.224 57.1143Z" fill="#263238"/>
<path d="M476.334 68.0914H436.924C436.633 68.0914 436.397 67.8812 436.397 67.6214C436.397 67.3615 436.633 67.1514 436.924 67.1514H476.334C476.625 67.1514 476.861 67.3615 476.861 67.6214C476.861 67.8812 476.625 68.0914 476.334 68.0914Z" fill="#263238"/>
<path d="M428.02 20.458H420.506V26.962H428.02V20.458Z" fill="#263238"/>
<path d="M428.02 31.437H420.506V37.941H428.02V31.437Z" fill="#263238"/>
<path d="M428.02 42.4141H420.506V48.9181H428.02V42.4141Z" fill="#407BFF"/>
<path d="M428.02 53.3911H420.506V59.8951H428.02V53.3911Z" fill="#407BFF"/>
<path d="M428.02 64.3691H420.506V70.8731H428.02V64.3691Z" fill="#407BFF"/>
<path opacity="0.4" d="M428.02 31.437H420.506V37.941H428.02V31.437Z" fill="white"/>
<path opacity="0.4" d="M428.02 53.3911H420.506V59.8951H428.02V53.3911Z" fill="white"/>
<path opacity="0.6" d="M428.02 64.3691H420.506V70.8731H428.02V64.3691Z" fill="white"/>
<path d="M483.823 82.116H349.921C342.708 82.116 336.841 76.8879 336.841 70.4613V17.373C336.841 10.9464 342.708 5.71826 349.921 5.71826H483.823C491.036 5.71826 496.903 10.9464 496.903 17.373V70.4613C496.903 76.8879 491.036 82.116 483.823 82.116ZM349.921 7.09925C343.563 7.09925 338.392 11.7081 338.392 17.3716V70.4599C338.392 76.1248 343.563 80.7322 349.921 80.7322H483.823C490.181 80.7322 495.352 76.1248 495.352 70.4599V17.3716C495.352 11.7067 490.181 7.09925 483.823 7.09925H349.921Z" fill="#407BFF"/>
<path d="M212.635 36.9785H208.413V105.798H212.635V36.9785Z" fill="#407BFF"/>
<path opacity="0.2" d="M212.635 36.9785H208.413V105.798H212.635V36.9785Z" fill="black"/>
<path d="M219.647 52.2603H215.426V105.796H219.647V52.2603Z" fill="#263238"/>
<path opacity="0.4" d="M219.647 52.2603H215.426V105.796H219.647V52.2603Z" fill="white"/>
<path d="M198.611 77.7319H194.389V105.797H198.611V77.7319Z" fill="#407BFF"/>
<path d="M205.623 67.5425H201.402V105.797H205.623V67.5425Z" fill="#407BFF"/>
<path d="M226.659 47.1665H222.437V105.797H226.659V47.1665Z" fill="#263238"/>
<path opacity="0.4" d="M219.647 59.1582H215.426V105.796H219.647V59.1582Z" fill="white"/>
<path opacity="0.4" d="M226.659 56.2925H222.437V105.798H226.659V56.2925Z" fill="white"/>
<path d="M212.635 43.0454H208.413V105.798H212.635V43.0454Z" fill="#407BFF"/>
<path opacity="0.4" d="M205.623 81.1157H201.402V105.796H205.623V81.1157Z" fill="white"/>
<path opacity="0.2" d="M198.611 77.7319H194.389V105.797H198.611V77.7319Z" fill="white"/>
<path opacity="0.4" d="M198.611 84.1152H194.389V105.796H198.611V84.1152Z" fill="white"/>
<path d="M228.894 106.029H192.153C192.011 106.029 191.894 105.925 191.894 105.798C191.894 105.671 192.011 105.567 192.153 105.567H228.894C229.037 105.567 229.153 105.671 229.153 105.798C229.153 105.925 229.037 106.029 228.894 106.029Z" fill="#263238"/>
<path d="M271.376 52.2603H267.154V105.796H271.376V52.2603Z" fill="#407BFF"/>
<path opacity="0.2" d="M271.376 52.2603H267.154V105.796H271.376V52.2603Z" fill="black"/>
<path d="M278.387 53.7383H274.165V105.798H278.387V53.7383Z" fill="#263238"/>
<path opacity="0.4" d="M278.387 53.7383H274.165V105.798H278.387V53.7383Z" fill="white"/>
<path d="M257.35 62.6089H253.129V105.797H257.35V62.6089Z" fill="#407BFF"/>
<path d="M264.363 61.3687H260.141V105.796H264.363V61.3687Z" fill="#407BFF"/>
<path d="M285.4 66.9014H281.178V105.797H285.4V66.9014Z" fill="#263238"/>
<path opacity="0.4" d="M278.387 60.4453H274.165V105.797H278.387V60.4453Z" fill="white"/>
<path opacity="0.4" d="M285.4 72.9561H281.178V105.797H285.4V72.9561Z" fill="white"/>
<path d="M271.376 56.9814H267.154V105.798H271.376V56.9814Z" fill="#407BFF"/>
<path opacity="0.4" d="M264.363 69.0947H260.141V105.796H264.363V69.0947Z" fill="white"/>
<path opacity="0.2" d="M257.35 62.6089H253.129V105.797H257.35V62.6089Z" fill="white"/>
<path opacity="0.4" d="M257.35 72.4331H253.129V105.796H257.35V72.4331Z" fill="white"/>
<path d="M287.634 106.029H250.893C250.75 106.029 250.634 105.925 250.634 105.798C250.634 105.671 250.75 105.567 250.893 105.567H287.634C287.777 105.567 287.893 105.671 287.893 105.798C287.894 105.925 287.778 106.029 287.634 106.029Z" fill="#263238"/>
<path d="M293.204 120.842H187.637C180.424 120.842 174.556 115.614 174.556 109.188V36.724C174.556 30.2974 180.424 25.0693 187.637 25.0693H293.204C300.416 25.0693 306.284 30.2974 306.284 36.724V109.188C306.284 115.614 300.416 120.842 293.204 120.842ZM187.637 26.4517C181.279 26.4517 176.108 31.0605 176.108 36.724V109.188C176.108 114.852 181.281 119.46 187.637 119.46H293.204C299.562 119.46 304.733 114.852 304.733 109.188V36.724C304.733 31.0591 299.56 26.4517 293.204 26.4517H187.637Z" fill="#407BFF"/>
</g>
<defs>
<clipPath id="clip0_1149_1981">
<rect width="508" height="271" fill="white"/>
</clipPath>
</defs>
</svg>
