<svg width="140" height="140" viewBox="0 0 140 140" fill="none" xmlns="http://www.w3.org/2000/svg">
<path d="M66.5792 51.0534L44.0075 43.1189C44.0075 50.3634 43.9464 50.312 44.1733 50.9956C44.486 51.9769 45.2269 52.7916 46.2207 53.1741C70.8146 62.6738 69.0855 62.1123 70.0037 62.1123C70.9141 62.1123 69.1636 62.6842 93.7845 53.1741C95.1037 52.6651 96 51.3936 96 49.9365V43.4982L73.2809 51.1043C71.1011 51.8339 68.7438 51.8157 66.5792 51.0534Z" fill="#131F75"/>
<path d="M33.4523 31.8172C34.2837 32.3767 31.5028 31.2687 68.9874 44.5931C69.7071 44.8518 70.4894 44.8579 71.2213 44.6118C84.2802 40.1903 92.6239 37.3652 103.09 33.8218V53.6101C103.09 54.5785 103.477 55.4579 104.103 56.0918C106.268 58.2905 109.999 56.7252 109.999 53.6101C109.999 29.687 109.993 29.146 109.992 29.1491C110.096 27.6528 109.168 26.1443 107.636 25.6258C70.7568 13.1411 70.9484 13.1189 70.1297 13.1189C69.2801 13.1189 69.527 13.1261 34.309 25.6421C31.6818 26.5759 31.1604 30.1525 33.4523 31.8172Z" fill="#131F75"/>
<path d="M32 86.1189H38V93.1189H32V86.1189Z" fill="#131F75"/>
<path d="M125.542 28.1189H116.824V52.8128C116.824 58.6273 112.17 63.3548 106.45 63.3548C102.769 63.3548 99.53 61.3963 97.6881 58.4516C96.7356 59.0005 98.3176 58.331 73.7253 67.944C71.3693 68.8656 68.7171 68.8977 66.2748 67.944L43.7112 59.1239C39.7047 57.5565 37.0629 53.6508 37.0629 49.2848V39.9212L31.86 38.0682C27.7037 36.5923 24.912 32.5934 24.912 28.1189H14.4578C12.5491 28.1189 11 29.6932 11 31.6329V107.495C11 109.435 12.5491 111.009 14.4578 111.009H45.7137V118.091H35.2856C33.3768 118.091 31.8277 119.665 31.8277 121.605C31.8277 123.547 33.3768 125.119 35.2856 125.119H104.714C106.623 125.119 108.172 123.547 108.172 121.605C108.172 119.665 106.623 118.091 104.714 118.091H94.286V111.009H125.542C127.451 111.009 129 109.435 129 107.495V31.6329C129 29.6932 127.451 28.1189 125.542 28.1189ZM45.6868 96.8969C45.6868 98.839 44.1376 100.411 42.2289 100.411H28.3422C26.4335 100.411 24.8844 98.839 24.8844 96.8969V82.7871C24.8844 80.845 26.4335 79.2731 28.3422 79.2731H42.2289C44.1376 79.2731 45.6868 80.845 45.6868 82.7871V96.8969ZM111.658 100.411H56.1133C54.2046 100.411 52.6555 98.839 52.6555 96.8969C52.6555 94.9572 54.2046 93.3829 56.1133 93.3829H111.658C113.566 93.3829 115.116 94.9572 115.116 96.8969C115.116 98.839 113.566 100.411 111.658 100.411ZM111.658 86.3011H56.1133C54.2046 86.3011 52.6555 84.7268 52.6555 82.7871C52.6555 80.845 54.2046 79.2731 56.1133 79.2731H111.658C113.566 79.2731 115.116 80.845 115.116 82.7871C115.116 84.7268 113.566 86.3011 111.658 86.3011Z" fill="#131F75"/>
</svg>
