<svg width="24" height="24" viewBox="0 0 24 24" fill="none" xmlns="http://www.w3.org/2000/svg">
<path d="M21.75 6V7.5H2.25V6C2.25 5.60218 2.40804 5.22064 2.68934 4.93934C2.97064 4.65804 3.35218 4.5 3.75 4.5H6V2.25C6 2.05109 6.07902 1.86032 6.21967 1.71967C6.36032 1.57902 6.55109 1.5 6.75 1.5C6.94891 1.5 7.13968 1.57902 7.28033 1.71967C7.42098 1.86032 7.5 2.05109 7.5 2.25V4.5H16.5V2.25C16.5 2.05109 16.579 1.86032 16.7197 1.71967C16.8603 1.57902 17.0511 1.5 17.25 1.5C17.4489 1.5 17.6397 1.57902 17.7803 1.71967C17.921 1.86032 18 2.05109 18 2.25V4.5H20.25C20.6478 4.5 21.0294 4.65804 21.3107 4.93934C21.592 5.22064 21.75 5.60218 21.75 6ZM2.25 9H21.75V20.25C21.75 20.6478 21.592 21.0294 21.3107 21.3107C21.0294 21.592 20.6478 21.75 20.25 21.75H3.75C3.35218 21.75 2.97064 21.592 2.68934 21.3107C2.40804 21.0294 2.25 20.6478 2.25 20.25V9ZM7.7625 14.3625L9.2625 15.8025C9.33341 15.8682 9.38645 15.9509 9.41663 16.0427C9.4468 16.1345 9.45313 16.2325 9.435 16.3275L9.09 18.3675C9.07171 18.4776 9.08448 18.5906 9.12687 18.6938C9.16926 18.797 9.2396 18.8864 9.32998 18.9518C9.42036 19.0173 9.5272 19.0562 9.63849 19.0643C9.74979 19.0723 9.86112 19.0492 9.96 18.9975L11.7825 18.0375C11.8697 17.9933 11.966 17.9703 12.0637 17.9703C12.1615 17.9703 12.2578 17.9933 12.345 18.0375L14.1675 18.9975C14.265 19.0396 14.3718 19.055 14.4772 19.0423C14.5826 19.0296 14.6827 18.9891 14.7673 18.9251C14.8519 18.861 14.9181 18.7757 14.9589 18.6777C14.9998 18.5798 15.014 18.4727 15 18.3675L14.655 16.3275C14.6369 16.2325 14.6432 16.1345 14.6734 16.0427C14.7035 15.9509 14.7566 15.8682 14.8275 15.8025L16.3275 14.3625C16.4061 14.2835 16.4614 14.1844 16.4874 14.0761C16.5135 13.9678 16.5092 13.8544 16.4752 13.7483C16.4411 13.6423 16.3785 13.5476 16.2943 13.4747C16.21 13.4018 16.1074 13.3535 15.9975 13.335L13.95 13.0425C13.8574 13.032 13.7686 13.0001 13.6905 12.9494C13.6124 12.8986 13.5472 12.8303 13.5 12.75L12.585 10.8975C12.5351 10.798 12.4585 10.7144 12.3638 10.656C12.2691 10.5976 12.16 10.5666 12.0487 10.5666C11.9375 10.5666 11.8284 10.5976 11.7337 10.656C11.639 10.7144 11.5624 10.798 11.5125 10.8975L10.59 12.75C10.5473 12.8373 10.4841 12.913 10.4057 12.9705C10.3273 13.028 10.2361 13.0656 10.14 13.08L8.1 13.3725C7.99663 13.394 7.90066 13.4421 7.82154 13.512C7.74243 13.582 7.6829 13.6713 7.64883 13.7712C7.61476 13.8712 7.60733 13.9782 7.62726 14.0819C7.64719 14.1856 7.6938 14.2823 7.7625 14.3625Z" fill="#316FF6"/>
</svg>
