<svg width="116" height="116" viewBox="0 0 116 116" fill="none" xmlns="http://www.w3.org/2000/svg">
<path fill-rule="evenodd" clip-rule="evenodd" d="M47.5418 100.84C44.0075 101.266 40.2013 101.5 36.25 101.5C22.7831 101.5 11.1107 98.7776 5.31072 95.0457C1.68572 92.713 0 89.8076 0 87V14.5C0 11.6924 1.68572 8.78699 5.31072 6.45431C11.1107 2.72237 22.7831 0 36.25 0C49.7169 0 61.3893 2.72237 67.1893 6.45431C70.8143 8.78699 72.5 11.6924 72.5 14.5V40.2611C74.2763 40.0073 76.0888 39.875 77.9375 39.875C98.9444 39.875 116 56.9306 116 77.9375C116 98.9444 98.9444 116 77.9375 116C65.5219 116 54.4837 110.044 47.5418 100.84ZM92.4375 56.1875H63.4375V63.4375H72.5C76.2156 63.4375 79.4055 65.6759 80.8012 68.875H63.4375V76.125H80.8193C79.4056 79.3259 76.2156 81.5625 72.5 81.5625H63.4375V88.7418L82.9219 104.331L87.4531 98.6689L74.9105 88.6349C81.5805 87.6489 86.9276 82.6246 88.4138 76.125H92.4375V68.875H88.4138C87.9607 66.903 87.1631 65.0669 86.0575 63.4375H92.4375V56.1875ZM40.9443 86.8894C39.4037 86.9619 37.845 87 36.25 87C24.1425 87 13.5031 84.8014 7.25 81.6477V87C7.25 87.3335 7.55805 87.5727 7.84805 87.8736C8.6818 88.7001 9.91446 89.4324 11.4188 90.1211C17.0195 92.6659 26.0637 94.25 36.25 94.25C38.715 94.25 41.1074 94.1576 43.4093 93.9799C42.358 91.727 41.5243 89.3544 40.9443 86.8894ZM40.2737 72.4184C38.9506 72.4728 37.6094 72.5 36.25 72.5C24.1425 72.5 13.5031 70.3014 7.25 67.1477V72.5C7.25 72.8335 7.55805 73.0727 7.84805 73.3736C8.6818 74.2001 9.91446 74.9324 11.4188 75.6211C17.0195 78.1659 26.0637 79.75 36.25 79.75C37.4825 79.75 38.715 79.7264 39.9113 79.6811C39.8932 79.103 39.875 78.5211 39.875 77.9375C39.875 76.0634 40.0199 74.2219 40.2737 72.4184ZM45.8201 57.5306C42.7751 57.8351 39.5669 58 36.25 58C24.1425 58 13.5031 55.8014 7.25 52.6477V58C7.25 58.3335 7.55805 58.5728 7.84805 58.8736C8.6818 59.7001 9.91446 60.4324 11.4188 61.1211C17.0195 63.6659 26.0637 65.25 36.25 65.25C38.2619 65.25 40.2193 65.1884 42.1043 65.0706C43.065 62.4062 44.3157 59.8814 45.8201 57.5306ZM65.25 42.0446V38.1477C58.9969 41.3014 48.3575 43.5 36.25 43.5C24.1425 43.5 13.5031 41.3014 7.25 38.1477V43.5C7.25 43.8335 7.55805 44.0728 7.84805 44.3736C8.6818 45.2001 9.91446 45.9324 11.4188 46.6211C17.0195 49.1659 26.0637 50.75 36.25 50.75C42.4487 50.75 48.2307 50.1609 53.0701 49.126C56.6226 46.0611 60.7369 43.6396 65.25 42.0446ZM65.25 23.6477C58.9969 26.8014 48.3575 29 36.25 29C24.1425 29 13.5031 26.8014 7.25 23.6477V29C7.25 29.3335 7.55805 29.5728 7.84805 29.8736C8.6818 30.7001 9.91446 31.4324 11.4188 32.1211C17.0195 34.6659 26.0637 36.25 36.25 36.25C46.4362 36.25 55.4805 34.6659 61.0812 32.1211C62.5855 31.4324 63.8182 30.7001 64.652 29.8736C64.942 29.5728 65.25 29.3335 65.25 29V23.6477Z" fill="#14847F"/>
</svg>
