<svg width="140" height="140" viewBox="0 0 140 140" fill="none" xmlns="http://www.w3.org/2000/svg">
<path d="M91.6103 54.1471C104.027 54.1471 114.128 44.0452 114.128 31.629C114.128 19.2127 104.027 9.11084 91.6103 9.11084C79.194 9.11084 69.0922 19.2127 69.0922 31.629C69.0922 44.0452 79.194 54.1471 91.6103 54.1471Z" fill="#14847F"/>
<path d="M99.0937 66.1172H84.7875C75.0815 66.1172 66.0887 70.4025 60.0162 77.7547H82.029C83.0484 77.7547 83.9322 78.4591 84.1619 79.45L91.9034 112.912H105.632C107.962 112.912 109.861 110.884 109.861 108.393V97.9191C109.861 96.7116 110.841 95.7316 112.048 95.7316C113.256 95.7316 114.236 96.7116 114.236 97.9191V108.393C114.236 113.297 110.377 117.287 105.632 117.287H92.9162L96.064 130.889H113.929C123.48 130.889 131.248 123.119 131.248 113.571V98.2734C131.248 80.5437 116.826 66.1172 99.0937 66.1172Z" fill="#14847F"/>
<path d="M55.7376 82.1296H9.31006L20.5954 130.889H91.5732L80.2901 82.1296H55.7376Z" fill="#14847F"/>
</svg>
