<svg width="44" height="44" viewBox="0 0 44 44" fill="none" xmlns="http://www.w3.org/2000/svg">
<path d="M23.7188 32.1406C23.7188 33.0899 22.9493 33.8594 22 33.8594H11.8594C10.9101 33.8594 10.1406 33.0899 10.1406 32.1406C10.1406 31.1914 10.9101 30.4219 11.8594 30.4219H22C22.9493 30.4219 23.7188 31.1914 23.7188 32.1406ZM44 10.3254V30.4505C44 33.0895 42.9724 35.5703 41.1063 37.4363L37.4363 41.1064C35.5703 42.9724 33.0895 44 30.4505 44H10.3254C4.6182 44 0 39.3813 0 33.6746V10.3254C0 4.6182 4.61871 0 10.3254 0H33.6746C39.3818 0 44 4.61871 44 10.3254ZM40.3319 32.1692H35.6067C33.7113 32.1692 32.1692 33.7113 32.1692 35.6067V40.3319C33.2316 40.0397 34.2053 39.4759 35.0055 38.6757L38.6757 35.0055C39.4759 34.2053 40.0397 33.2316 40.3319 32.1692ZM40.5625 10.3254C40.5625 6.51827 37.4816 3.4375 33.6746 3.4375H10.3254C6.51827 3.4375 3.4375 6.51845 3.4375 10.3254V33.6746C3.4375 37.4817 6.51845 40.5625 10.3254 40.5625H28.7317V35.6067C28.7317 31.8159 31.8159 28.7317 35.6067 28.7317H40.5625V10.3254ZM32.1406 20.2812H11.8594C10.9101 20.2812 10.1406 21.0507 10.1406 22C10.1406 22.9493 10.9101 23.7188 11.8594 23.7188H32.1406C33.0899 23.7188 33.8594 22.9493 33.8594 22C33.8594 21.0507 33.0899 20.2812 32.1406 20.2812ZM32.1406 10.1406H11.8594C10.9101 10.1406 10.1406 10.9101 10.1406 11.8594C10.1406 12.8086 10.9101 13.5781 11.8594 13.5781H32.1406C33.0899 13.5781 33.8594 12.8086 33.8594 11.8594C33.8594 10.9101 33.0899 10.1406 32.1406 10.1406Z" fill="white"/>
</svg>
