<svg width="176" height="56" viewBox="0 0 176 56" fill="none" xmlns="http://www.w3.org/2000/svg">
<g clip-path="url(#clip0_1008_5486)">
<path d="M22.0625 19.8281V25.6802H36.1855C35.8106 28.9176 34.6857 31.4079 32.936 33.0266C30.9363 35.0188 27.6867 37.2601 22.0625 37.2601C13.4388 37.2601 6.68974 30.2873 6.68974 21.6958C6.68974 13.1043 13.3138 6.13147 22.0625 6.13147C26.6869 6.13147 30.1864 7.99919 32.686 10.365L36.8104 6.25599C33.3109 2.8941 28.5616 0.279297 22.0625 0.279297C10.1892 0.279297 0.190674 9.86691 0.190674 21.6958C0.190674 33.5246 10.1892 43.1122 22.0625 43.1122C28.4366 43.1122 33.3109 40.9955 37.0604 37.1356C40.9348 33.2756 42.1847 27.797 42.1847 23.439C42.1847 22.0693 42.0597 20.8242 41.9347 19.8281H22.0625Z" fill="#4285F4"/>
<path d="M59.6822 14.9722C52.0583 14.9722 45.6842 20.8243 45.6842 28.7933C45.6842 36.7622 51.9333 42.6144 59.6822 42.6144C67.4311 42.6144 73.6802 36.8867 73.6802 28.9178C73.6802 20.8243 67.4311 14.9722 59.6822 14.9722ZM59.6822 37.2602C55.4328 37.2602 51.8083 33.7738 51.8083 28.9178C51.8083 23.9372 55.4328 20.5753 59.6822 20.5753C63.9316 20.5753 67.5561 23.9372 67.5561 28.9178C67.5561 33.7738 63.9316 37.2602 59.6822 37.2602Z" fill="#EA4335"/>
<path d="M128.047 18.085H127.797C126.423 16.4663 123.798 14.9722 120.424 14.9722C113.425 14.9722 107.425 20.9489 107.425 28.7933C107.425 36.5132 113.425 42.6144 120.424 42.6144C123.798 42.6144 126.423 41.1202 127.797 39.5015H128.047V41.4937C128.047 46.7233 125.173 49.5872 120.674 49.5872C116.924 49.5872 114.674 46.9724 113.675 44.6066L108.425 46.8479C109.925 50.4588 114.049 55.0658 120.798 55.0658C127.922 55.0658 134.047 50.8323 134.047 40.6221V15.7193H128.297V18.085H128.047ZM121.048 37.2602C116.799 37.2602 113.675 33.6493 113.675 28.9178C113.675 24.0617 116.924 20.5753 121.048 20.5753C125.173 20.5753 128.422 24.1862 128.422 29.0423C128.547 33.7738 125.298 37.2602 121.048 37.2602Z" fill="#4285F4"/>
<path d="M90.8028 14.9722C83.1789 14.9722 76.8048 20.8243 76.8048 28.7933C76.8048 36.7622 83.0539 42.6144 90.8028 42.6144C98.5517 42.6144 104.801 36.8867 104.801 28.9178C104.801 20.8243 98.5517 14.9722 90.8028 14.9722ZM90.8028 37.2602C86.5534 37.2602 82.9289 33.7738 82.9289 28.9178C82.9289 23.9372 86.5534 20.5753 90.8028 20.5753C95.0522 20.5753 98.6767 23.9372 98.6767 28.9178C98.6767 33.7738 95.0522 37.2602 90.8028 37.2602Z" fill="#FBBC05"/>
<path d="M138.671 0.901855H144.67V42.7387H138.671V0.901855Z" fill="#34A853"/>
<path d="M163.167 37.2602C160.043 37.2602 157.918 35.8906 156.418 33.0268L175.041 25.4314L174.416 23.8127C173.291 20.6998 169.667 14.9722 162.543 14.9722C155.419 14.9722 149.419 20.5753 149.419 28.7933C149.419 36.5132 155.294 42.6144 163.167 42.6144C169.542 42.6144 173.166 38.7544 174.791 36.5132L170.041 33.4003C168.417 35.7661 166.292 37.2602 163.167 37.2602ZM162.793 20.2018C165.292 20.2018 167.417 21.4469 168.042 23.1901L155.544 28.4197C155.419 22.6921 159.668 20.2018 162.793 20.2018Z" fill="#EA4335"/>
</g>
<defs>
<clipPath id="clip0_1008_5486">
<rect width="174.85" height="54.7863" fill="white" transform="translate(0.190674 0.279297)"/>
</clipPath>
</defs>
</svg>
