<svg width="24" height="24" viewBox="0 0 24 24" fill="none" xmlns="http://www.w3.org/2000/svg">
<path d="M12.0002 13.0912C13.1103 13.0912 14.0102 12.1913 14.0102 11.0812C14.0102 9.97115 13.1103 9.07124 12.0002 9.07124C10.8901 9.07124 9.99023 9.97115 9.99023 11.0812C9.99023 12.1913 10.8901 13.0912 12.0002 13.0912Z" fill="#316FF6"/>
<path d="M17.3327 10.2225C17.4483 10.4969 17.6676 10.7146 17.9428 10.8284C18.218 10.9421 18.527 10.9427 18.8027 10.83L20.1902 10.2563C20.327 10.201 20.4514 10.1188 20.5558 10.0144C20.6602 9.91 20.7424 9.78565 20.7977 9.64875C20.8794 9.44328 20.8992 9.21836 20.8545 9.00178C20.8098 8.7852 20.7027 8.58645 20.5463 8.43008C20.39 8.27371 20.1912 8.16658 19.9746 8.12191C19.7581 8.07725 19.5331 8.09701 19.3277 8.17875L17.9439 8.7525C17.6682 8.86673 17.449 9.08561 17.3345 9.36117C17.2199 9.63672 17.2192 9.94647 17.3327 10.2225Z" fill="#316FF6"/>
<path d="M14.2612 6.76125C14.4835 6.76125 14.7009 6.69535 14.8858 6.57187C15.0706 6.44839 15.2148 6.27287 15.3 6.0675L15.8737 4.68C15.9553 4.47453 15.975 4.24965 15.9303 4.03312C15.8856 3.8166 15.7785 3.6179 15.6221 3.46156C15.4658 3.30523 15.2671 3.19809 15.0506 3.15339C14.8341 3.10868 14.6092 3.12836 14.4037 3.21C14.267 3.26655 14.1429 3.34971 14.0386 3.45465C13.9343 3.55958 13.8519 3.6842 13.7962 3.82125L13.2225 5.20498C13.1532 5.37596 13.1268 5.5613 13.1455 5.74484C13.1642 5.92837 13.2276 6.10454 13.33 6.258C13.4324 6.41145 13.5708 6.53752 13.7331 6.62524C13.8954 6.71296 14.0767 6.75965 14.2612 6.76125Z" fill="#316FF6"/>
<path d="M17.5689 8.02124L18.6302 6.96374C18.8415 6.7524 18.9603 6.46575 18.9603 6.16687C18.9603 5.86798 18.8415 5.58134 18.6302 5.36999C18.4188 5.15865 18.1322 5.03992 17.8333 5.03992C17.5344 5.03992 17.2478 5.15865 17.0364 5.36999L15.9789 6.43124C15.874 6.53526 15.7908 6.65911 15.7341 6.79558C15.6774 6.93206 15.6485 7.07843 15.6489 7.2262C15.6521 7.44719 15.72 7.6624 15.8441 7.84527C15.9683 8.02813 16.1432 8.17063 16.3474 8.25519C16.5516 8.33975 16.7761 8.36265 16.9932 8.32108C17.2103 8.2795 17.4104 8.17527 17.5689 8.02124Z" fill="#316FF6"/>
<path d="M12 7.5C11.11 7.5 10.24 7.76392 9.49994 8.25839C8.75991 8.75285 8.18314 9.45566 7.84254 10.2779C7.50195 11.1002 7.41283 12.005 7.58647 12.8779C7.7601 13.7508 8.18869 14.5526 8.81802 15.182C9.44736 15.8113 10.2492 16.2399 11.1221 16.4135C11.995 16.5872 12.8998 16.4981 13.7221 16.1575C14.5443 15.8169 15.2471 15.2401 15.7416 14.5001C16.2361 13.76 16.5 12.89 16.5 12C16.4991 10.8068 16.0246 9.66277 15.1809 8.81906C14.3372 7.97535 13.1932 7.50094 12 7.5ZM15.2963 13.7888C15.0833 13.4038 14.7342 13.1122 14.3175 12.9713L14.0775 12.8925C13.8194 13.1903 13.5004 13.4291 13.1419 13.5928C12.7835 13.7565 12.3941 13.8412 12 13.8412C11.6059 13.8412 11.2165 13.7565 10.8581 13.5928C10.4996 13.4291 10.1806 13.1903 9.9225 12.8925L9.6825 12.9713C9.26576 13.1122 8.9167 13.4038 8.70375 13.7888C8.3939 13.2176 8.2378 12.5757 8.25075 11.926C8.26369 11.2763 8.44524 10.6411 8.7776 10.0827C9.10995 9.52431 9.5817 9.06186 10.1466 8.74069C10.7115 8.41953 11.3502 8.25067 12 8.25067C12.6498 8.25067 13.2885 8.41953 13.8534 8.74069C14.4183 9.06186 14.8901 9.52431 15.2224 10.0827C15.5548 10.6411 15.7363 11.2763 15.7493 11.926C15.7622 12.5757 15.6061 13.2176 15.2963 13.7888Z" fill="#316FF6"/>
<path d="M22.125 11.625H18C17.9006 11.6253 17.8054 11.6649 17.7352 11.7352C17.6649 11.8054 17.6253 11.9006 17.625 12C17.625 13.1125 17.2951 14.2001 16.677 15.1251C16.0589 16.0501 15.1804 16.7711 14.1526 17.1968C13.1248 17.6226 11.9938 17.734 10.9026 17.5169C9.81147 17.2999 8.80919 16.7641 8.02252 15.9775C7.23585 15.1908 6.70012 14.1885 6.48308 13.0974C6.26604 12.0062 6.37743 10.8752 6.80318 9.84741C7.22892 8.81957 7.94989 7.94107 8.87492 7.32298C9.79994 6.7049 10.8875 6.375 12 6.375C12.0994 6.3747 12.1946 6.3351 12.2648 6.26484C12.3351 6.19458 12.3747 6.09936 12.375 6V1.875C12.3747 1.77564 12.3351 1.68042 12.2648 1.61016C12.1946 1.5399 12.0994 1.5003 12 1.5H10.5C10.4097 1.50013 10.3224 1.53281 10.2543 1.59204C10.1861 1.65127 10.1415 1.73309 10.1287 1.8225L9.92625 3.24C8.98916 3.4613 8.09391 3.83231 7.275 4.33875L6.1275 3.48C6.05521 3.42569 5.96579 3.39922 5.87559 3.40541C5.78539 3.41161 5.70043 3.45007 5.63625 3.51375L3.51375 5.63625C3.45007 5.70043 3.41161 5.78539 3.40541 5.87559C3.39922 5.96579 3.42569 6.05521 3.48 6.1275L4.33875 7.275C3.83232 8.09392 3.4613 8.98917 3.24 9.92625L1.8225 10.1287C1.73309 10.1415 1.65127 10.1861 1.59204 10.2543C1.53281 10.3224 1.50013 10.4097 1.5 10.5V13.5C1.50013 13.5903 1.53281 13.6776 1.59204 13.7457C1.65127 13.8139 1.73309 13.8585 1.8225 13.8713L3.24 14.0737C3.4613 15.0108 3.83231 15.9061 4.33875 16.725L3.48 17.8725C3.42569 17.9448 3.39921 18.0342 3.40541 18.1244C3.41161 18.2146 3.45007 18.2996 3.51375 18.3638L5.63625 20.4862C5.70043 20.5499 5.78539 20.5884 5.87559 20.5946C5.96579 20.6008 6.05521 20.5743 6.1275 20.52L7.275 19.6613C8.09392 20.1677 8.98917 20.5387 9.92625 20.76L10.1287 22.1775C10.1415 22.2669 10.1861 22.3487 10.2543 22.408C10.3224 22.4672 10.4097 22.4999 10.5 22.5H13.5C13.5903 22.4999 13.6776 22.4672 13.7457 22.408C13.8139 22.3487 13.8585 22.2669 13.8713 22.1775L14.0737 20.76C15.0108 20.5387 15.9061 20.1677 16.725 19.6613L17.8725 20.52C17.9448 20.5743 18.0342 20.6008 18.1244 20.5946C18.2146 20.5884 18.2996 20.5499 18.3638 20.4862L20.4862 18.3638C20.5499 18.2996 20.5884 18.2146 20.5946 18.1244C20.6008 18.0342 20.5743 17.9448 20.52 17.8725L19.6613 16.725C20.1677 15.9061 20.5387 15.0108 20.76 14.0737L22.1775 13.8713C22.2669 13.8585 22.3487 13.8139 22.408 13.7457C22.4672 13.6776 22.4999 13.5903 22.5 13.5V12C22.4997 11.9006 22.4601 11.8054 22.3898 11.7352C22.3196 11.6649 22.2244 11.6253 22.125 11.625Z" fill="#316FF6"/>
</svg>
