<svg width="80" height="80" viewBox="0 0 80 80" fill="none" xmlns="http://www.w3.org/2000/svg">
<rect width="80" height="80" rx="12" fill="#316FF6"/>
<path d="M33.7925 38.0651H28.7079C28.4745 38.0651 28.2507 37.9724 28.0856 37.8074C27.9206 37.6423 27.8279 37.4185 27.8279 37.1851C27.8279 36.9517 27.9206 36.7279 28.0856 36.5629C28.2507 36.3978 28.4745 36.3051 28.7079 36.3051H32.9125V30.4742C32.9125 30.2408 33.0052 30.017 33.1703 29.852C33.3353 29.687 33.5591 29.5942 33.7925 29.5942C34.0259 29.5942 34.2498 29.687 34.4148 29.852C34.5798 30.017 34.6725 30.2408 34.6725 30.4742V37.1851C34.6725 37.4185 34.5798 37.6423 34.4148 37.8074C34.2498 37.9724 34.0259 38.0651 33.7925 38.0651Z" fill="white"/>
<path d="M49.9862 56.7892H41.4537C40.8759 56.7892 40.3038 56.6754 39.7699 56.4543C39.2361 56.2332 38.7511 55.9091 38.3425 55.5005C37.9339 55.0919 37.6098 54.6069 37.3887 54.073C37.1676 53.5392 37.0537 52.9671 37.0537 52.3892V38.0382C37.0537 37.8048 37.1465 37.581 37.3115 37.4159C37.4765 37.2509 37.7004 37.1582 37.9337 37.1582H53.5062C53.7396 37.1582 53.9635 37.2509 54.1285 37.4159C54.2935 37.581 54.3862 37.8048 54.3862 38.0382V52.3892C54.3862 52.9671 54.2724 53.5392 54.0513 54.073C53.8302 54.6069 53.5061 55.0919 53.0975 55.5005C52.6889 55.9091 52.2039 56.2332 51.67 56.4543C51.1362 56.6754 50.564 56.7892 49.9862 56.7892ZM38.8137 38.9182V52.3892C38.8137 53.0894 39.0919 53.7609 39.587 54.256C40.0821 54.7511 40.7536 55.0292 41.4537 55.0292H49.9862C50.6864 55.0292 51.3579 54.7511 51.853 54.256C52.3481 53.7609 52.6262 53.0894 52.6262 52.3892V38.9182H38.8137Z" fill="white"/>
<path d="M55.8242 51.365H53.501C53.2676 51.365 53.0437 51.2722 52.8787 51.1072C52.7137 50.9422 52.621 50.7184 52.621 50.485C52.621 50.2516 52.7137 50.0277 52.8787 49.8627C53.0437 49.6977 53.2676 49.605 53.501 49.605H55.8242C56.0576 49.605 56.2814 49.5122 56.4464 49.3472C56.6115 49.1822 56.7042 48.9584 56.7042 48.725V45.1874C56.7042 44.954 56.6115 44.7301 56.4464 44.5651C56.2814 44.4001 56.0576 44.3074 55.8242 44.3074H53.501C53.2676 44.3074 53.0437 44.2146 52.8787 44.0496C52.7137 43.8846 52.621 43.6608 52.621 43.4274C52.621 43.194 52.7137 42.9701 52.8787 42.8051C53.0437 42.6401 53.2676 42.5474 53.501 42.5474H55.8242C56.5243 42.5474 57.1958 42.8255 57.6909 43.3206C58.186 43.8157 58.4642 44.4872 58.4642 45.1874V48.725C58.4642 49.4251 58.186 50.0966 57.6909 50.5917C57.1958 51.0868 56.5243 51.365 55.8242 51.365Z" fill="white"/>
<path d="M44.1131 36.2037C43.8797 36.2037 43.6559 36.111 43.4909 35.946C43.3258 35.781 43.2331 35.5571 43.2331 35.3237V32.4884C43.2331 31.3214 43.6967 30.2023 44.5218 29.3771C45.347 28.552 46.4662 28.0884 47.6331 28.0884H50.8786C51.1119 28.0884 51.3358 27.9957 51.5008 27.8306C51.6658 27.6656 51.7586 27.4418 51.7586 27.2084C51.7595 26.1486 52.1809 25.1325 52.9303 24.3831C53.6796 23.6338 54.6957 23.2124 55.7555 23.2114H57.5842C57.8175 23.2114 58.0414 23.3041 58.2064 23.4692C58.3714 23.6342 58.4642 23.858 58.4642 24.0914C58.4642 24.3248 58.3714 24.5486 58.2064 24.7137C58.0414 24.8787 57.8175 24.9714 57.5842 24.9714H55.7555C55.1624 24.9719 54.5937 25.2077 54.1743 25.6271C53.7549 26.0465 53.519 26.6152 53.5186 27.2084C53.5186 27.9086 53.2404 28.5801 52.7453 29.0751C52.2502 29.5702 51.5787 29.8484 50.8786 29.8484H47.6331C46.9329 29.8484 46.2615 30.1265 45.7664 30.6216C45.2713 31.1167 44.9931 31.7882 44.9931 32.4884V35.3237C44.9931 35.5571 44.9004 35.781 44.7354 35.946C44.5703 36.111 44.3465 36.2037 44.1131 36.2037Z" fill="white"/>
<path d="M51.5174 32.6741H47.4941C47.2607 32.6741 47.0369 32.5814 46.8718 32.4163C46.7068 32.2513 46.6141 32.0275 46.6141 31.7941C46.6141 31.5607 46.7068 31.3369 46.8718 31.1718C47.0369 31.0068 47.2607 30.9141 47.4941 30.9141H51.5174C52.4344 30.9132 53.3135 30.5485 53.9619 29.9001C54.6102 29.2517 54.9749 28.3726 54.9758 27.4557C54.9758 27.2223 55.0686 26.9985 55.2336 26.8334C55.3986 26.6684 55.6224 26.5757 55.8558 26.5757C56.0892 26.5757 56.3131 26.6684 56.4781 26.8334C56.6431 26.9985 56.7358 27.2223 56.7358 27.4557C56.7344 28.8393 56.1842 30.1658 55.2059 31.1441C54.2275 32.1224 52.901 32.6727 51.5174 32.6741Z" fill="white"/>
<path d="M33.7854 49.4363C30.5343 49.4363 27.4163 48.1448 25.1174 45.8459C22.8185 43.547 21.527 40.429 21.527 37.1779C21.527 33.9267 22.8185 30.8088 25.1174 28.5099C27.4163 26.211 30.5343 24.9195 33.7854 24.9195C36.9104 24.9115 39.9167 26.116 42.1718 28.2793C42.26 28.358 42.3315 28.4536 42.3819 28.5604C42.4323 28.6673 42.4607 28.7832 42.4654 28.9013C42.4701 29.0194 42.4509 29.1372 42.4091 29.2477C42.3672 29.3582 42.3036 29.4591 42.2219 29.5445C42.1402 29.6299 42.0421 29.6979 41.9335 29.7446C41.825 29.7912 41.7081 29.8155 41.5899 29.816C41.4718 29.8166 41.3547 29.7933 41.2457 29.7476C41.1368 29.7019 41.0381 29.6347 40.9557 29.55C39.0273 27.7011 36.457 26.6721 33.7854 26.6795C31.0011 26.6939 28.3365 27.8139 26.3779 29.793C24.4193 31.772 23.3271 34.4481 23.3416 37.2324C23.3561 40.0168 24.476 42.6813 26.4551 44.6399C28.4342 46.5985 31.1102 47.6907 33.8946 47.6763C34.0217 47.6792 34.1488 47.6715 34.2747 47.6534C34.3903 47.6306 34.5093 47.6312 34.6246 47.6552C34.7399 47.6792 34.8492 47.7261 34.9461 47.7932C35.0429 47.8602 35.1253 47.946 35.1884 48.0455C35.2515 48.145 35.2939 48.2561 35.3133 48.3723C35.3326 48.4885 35.3284 48.6074 35.3009 48.722C35.2734 48.8365 35.2233 48.9444 35.1533 49.0392C35.0834 49.134 34.9951 49.2138 34.8938 49.2738C34.7925 49.3338 34.6801 49.3729 34.5634 49.3888C34.3059 49.4265 34.0456 49.4424 33.7854 49.4363Z" fill="white"/>
<path d="M55.6429 56.7878H35.7972C35.5638 56.7878 35.34 56.6951 35.1749 56.5301C35.0099 56.3651 34.9172 56.1412 34.9172 55.9078C34.9172 55.6744 35.0099 55.4506 35.1749 55.2856C35.34 55.1205 35.5638 55.0278 35.7972 55.0278H55.6429C55.8763 55.0278 56.1002 55.1205 56.2652 55.2856C56.4302 55.4506 56.5229 55.6744 56.5229 55.9078C56.5229 56.1412 56.4302 56.3651 56.2652 56.5301C56.1002 56.6951 55.8763 56.7878 55.6429 56.7878Z" fill="white"/>
</svg>
