<svg width="80" height="80" viewBox="0 0 80 80" fill="none" xmlns="http://www.w3.org/2000/svg">
<rect width="80" height="80" rx="12" fill="#316FF6"/>
<path fill-rule="evenodd" clip-rule="evenodd" d="M31.8944 48.6625C32.1831 47.9997 32.597 47.3893 33.1181 46.8681C34.214 45.7723 35.7004 45.1562 37.25 45.1562H42.75C44.2996 45.1562 45.786 45.7723 46.8819 46.8681C47.403 47.3893 47.8169 47.9997 48.1056 48.6625C48.3339 49.1836 48.9416 49.4229 49.4641 49.1946C49.9852 48.9678 50.2245 48.3586 49.9963 47.8375C49.6044 46.9396 49.0461 46.1146 48.3407 45.4092C46.8585 43.927 44.8469 43.0938 42.75 43.0938C40.9625 43.0938 39.0375 43.0938 37.25 43.0938C35.1531 43.0938 33.1415 43.927 31.6593 45.4092C30.9539 46.1146 30.3956 46.9396 30.0037 47.8375C29.7755 48.3586 30.0147 48.9678 30.5359 49.1946C31.0584 49.4229 31.6661 49.1836 31.8944 48.6625Z" fill="white"/>
<path fill-rule="evenodd" clip-rule="evenodd" d="M40 29.3438C35.6358 29.3438 32.0938 32.8858 32.0938 37.25C32.0938 41.6143 35.6358 45.1562 40 45.1562C44.3643 45.1562 47.9062 41.6143 47.9062 37.25C47.9062 32.8858 44.3643 29.3438 40 29.3438ZM40 31.4062C43.2257 31.4062 45.8438 34.0243 45.8438 37.25C45.8438 40.4757 43.2257 43.0938 40 43.0938C36.7743 43.0938 34.1562 40.4757 34.1562 37.25C34.1562 34.0243 36.7743 31.4062 40 31.4062Z" fill="white"/>
<path fill-rule="evenodd" clip-rule="evenodd" d="M55.4687 40C55.4687 48.5374 48.5374 55.4688 40 55.4688C33.2694 55.4688 27.5384 51.1623 25.4126 45.1562C25.2229 44.62 24.633 44.3381 24.0967 44.5279C23.5591 44.7176 23.2786 45.3075 23.4684 45.8438C25.8774 52.65 32.3729 57.5312 40 57.5312C49.6759 57.5312 57.5312 49.6759 57.5312 40C57.5312 39.4307 57.0692 38.9688 56.5 38.9688C55.9307 38.9688 55.4687 39.4307 55.4687 40Z" fill="white"/>
<path fill-rule="evenodd" clip-rule="evenodd" d="M24.5312 40C24.5312 31.4626 31.4626 24.5312 40 24.5312C46.7306 24.5312 52.4616 28.8377 54.5874 34.8438C54.7771 35.38 55.367 35.6619 55.9033 35.4721C56.4409 35.2824 56.7214 34.6925 56.5316 34.1562C54.1226 27.35 47.6271 22.4688 40 22.4688C30.3241 22.4688 22.4688 30.3241 22.4688 40C22.4688 40.5693 22.9307 41.0312 23.5 41.0312C24.0692 41.0312 24.5312 40.5693 24.5312 40Z" fill="white"/>
<path fill-rule="evenodd" clip-rule="evenodd" d="M20.0212 37.9789L22.7712 40.7289C23.1741 41.1318 23.8259 41.1318 24.2287 40.7289L26.9787 37.9789C27.3816 37.5774 27.3816 36.9229 26.9787 36.5214C26.5772 36.1185 25.9227 36.1185 25.5212 36.5214L23.5 38.5413L21.4787 36.5214C21.0772 36.1185 20.4227 36.1185 20.0212 36.5214C19.6184 36.9229 19.6184 37.5774 20.0212 37.9789Z" fill="white"/>
<path fill-rule="evenodd" clip-rule="evenodd" d="M54.4788 43.4789L56.5 41.459L58.5212 43.4789C58.9227 43.8818 59.5773 43.8818 59.9788 43.4789C60.3816 43.0774 60.3816 42.4229 59.9788 42.0214L57.2288 39.2714C56.8259 38.8685 56.1741 38.8685 55.7712 39.2714L53.0212 42.0214C52.6184 42.4229 52.6184 43.0774 53.0212 43.4789C53.4227 43.8818 54.0773 43.8818 54.4788 43.4789Z" fill="white"/>
</svg>
