<svg width="80" height="80" viewBox="0 0 80 80" fill="none" xmlns="http://www.w3.org/2000/svg">
<rect width="80" height="80" rx="12" fill="#316FF6"/>
<path d="M56.0538 38.3241C57.3423 37.4187 58.1955 35.9125 58.1955 34.2149C58.1955 31.4377 55.9493 29.1915 53.1721 29.1915C50.3949 29.1915 48.1488 31.4377 48.1488 34.2149C48.1488 35.9125 48.9933 37.4187 50.2905 38.3241C49.1848 38.7072 48.1749 39.2992 47.3217 40.0653C46.1464 39.0641 44.7622 38.298 43.2473 37.8453C45.0843 36.7309 46.3205 34.7024 46.3205 32.3953C46.3205 28.8781 43.4737 26.0312 39.9565 26.0312C36.4393 26.0312 33.5924 28.8868 33.5924 32.3953C33.5924 34.7024 34.8199 36.7309 36.6656 37.8453C35.1682 38.298 33.8013 39.0554 32.6347 40.0392C31.7816 39.2905 30.7891 38.7072 29.7008 38.3328C30.9893 37.4274 31.8425 35.9212 31.8425 34.2236C31.8425 31.4464 29.5964 29.2002 26.8192 29.2002C24.0419 29.2002 21.7958 31.4464 21.7958 34.2236C21.7958 35.9212 22.6403 37.4274 23.9375 38.3328C20.4812 39.5255 18 42.8077 18 46.6644V47.239C18 47.2564 18.0174 47.2738 18.0348 47.2738H28.6822C28.6213 47.7527 28.5865 48.2489 28.5865 48.7451V49.3371C28.5865 51.8967 30.6585 53.9687 33.218 53.9687H46.7123C49.2719 53.9687 51.3439 51.8967 51.3439 49.3371V48.7451C51.3439 48.2489 51.3091 47.7527 51.2481 47.2738H61.9652C61.9826 47.2738 62 47.2564 62 47.239V46.6644C61.9826 42.799 59.5101 39.5168 56.0538 38.3241ZM49.5417 34.2062C49.5417 32.2038 51.1698 30.5758 53.1721 30.5758C55.1745 30.5758 56.8025 32.2038 56.8025 34.2062C56.8025 36.1824 55.2093 37.793 53.2418 37.8366C53.2157 37.8366 53.1983 37.8366 53.1721 37.8366C53.146 37.8366 53.1286 37.8366 53.1025 37.8366C51.1262 37.8017 49.5417 36.1911 49.5417 34.2062ZM34.9679 32.3953C34.9679 29.6529 37.1967 27.4242 39.9391 27.4242C42.6814 27.4242 44.9102 29.6529 44.9102 32.3953C44.9102 35.0419 42.8294 37.2097 40.2264 37.3577C40.1306 37.3577 40.0348 37.3577 39.9391 37.3577C39.8433 37.3577 39.7475 37.3577 39.6518 37.3577C37.0487 37.2097 34.9679 35.0419 34.9679 32.3953ZM23.1626 34.2062C23.1626 32.2038 24.7907 30.5758 26.793 30.5758C28.7954 30.5758 30.4234 32.2038 30.4234 34.2062C30.4234 36.1824 28.8302 37.793 26.8627 37.8366C26.8366 37.8366 26.8192 37.8366 26.793 37.8366C26.7669 37.8366 26.7495 37.8366 26.7234 37.8366C24.7558 37.8017 23.1626 36.1911 23.1626 34.2062ZM28.926 45.8722H19.4104C19.8021 42.1634 22.9363 39.2556 26.7408 39.2295C26.7582 39.2295 26.7756 39.2295 26.793 39.2295C26.8104 39.2295 26.8279 39.2295 26.8453 39.2295C28.6561 39.2382 30.3103 39.9086 31.59 40.9968C30.3364 42.355 29.4048 44.0265 28.926 45.8722ZM49.9335 49.3371C49.9335 51.1219 48.4796 52.5758 46.6949 52.5758H33.2006C31.4159 52.5758 29.962 51.1219 29.962 49.3371V48.7451C29.962 43.3387 34.2802 38.9161 39.6518 38.7594C39.7475 38.7681 39.852 38.7681 39.9478 38.7681C40.0435 38.7681 40.148 38.7681 40.2438 38.7594C45.6154 38.9161 49.9335 43.3387 49.9335 48.7451V49.3371ZM50.9695 45.8722C50.4907 44.0352 49.5766 42.3898 48.3316 41.0316C49.6201 39.9173 51.2917 39.2469 53.1199 39.2295C53.1373 39.2295 53.1547 39.2295 53.1721 39.2295C53.1896 39.2295 53.207 39.2295 53.2244 39.2295C57.0289 39.2556 60.163 42.1634 60.5548 45.8722H50.9695Z" fill="white"/>
</svg>
