<svg width="80" height="80" viewBox="0 0 80 80" fill="none" xmlns="http://www.w3.org/2000/svg">
<rect width="80" height="80" rx="12" fill="#316FF6"/>
<path fill-rule="evenodd" clip-rule="evenodd" d="M56.94 42.6516C56.4811 42.4131 56.0961 42.0535 55.8268 41.6119C55.5575 41.1702 55.4141 40.6633 55.4122 40.1461C55.3619 39.5808 55.4801 39.0133 55.7521 38.5151C56.024 38.017 56.4373 37.6106 56.94 37.3472C57.716 36.8884 58.2796 36.142 58.5084 35.2701C58.7373 34.3982 58.6129 33.4712 58.1622 32.6905L55.3878 27.7772C54.9315 27.0086 54.1918 26.45 53.3277 26.2214C52.4637 25.9928 51.5444 26.1126 50.7678 26.555C50.3193 26.8243 49.806 26.9666 49.2828 26.9666C48.7596 26.9666 48.2463 26.8243 47.7978 26.555C47.2917 26.3138 46.8696 25.9263 46.5863 25.4425C46.303 24.9587 46.1715 24.401 46.2089 23.8416C46.2025 22.9382 45.8391 22.074 45.198 21.4375C44.5569 20.801 43.6901 20.4438 42.7867 20.4438H37.2134C36.31 20.4471 35.4445 20.8074 34.8057 21.4462C34.1669 22.085 33.8066 22.9505 33.8034 23.8538C33.8195 24.4266 33.6716 24.9921 33.3771 25.4836C33.0826 25.9751 32.6538 26.3723 32.1411 26.6283C31.7019 26.8744 31.2044 26.9976 30.7011 26.9847C30.1977 26.9717 29.7072 26.8233 29.2811 26.555C28.8954 26.3243 28.4675 26.1731 28.0226 26.1101C27.5776 26.0472 27.1246 26.0737 26.69 26.1883C26.2565 26.3004 25.85 26.4989 25.4951 26.7719C25.1401 27.0449 24.844 27.3869 24.6245 27.7772L21.8134 32.6661C21.3627 33.4468 21.2383 34.3738 21.4672 35.2457C21.696 36.1176 22.2596 36.864 23.0356 37.3227C23.4847 37.5574 23.863 37.9077 24.1316 38.3374C24.4002 38.7671 24.5492 39.2607 24.5634 39.7672C24.6137 40.3325 24.4955 40.9 24.2235 41.3981C23.9516 41.8962 23.5383 42.3027 23.0356 42.5661C22.2596 43.0248 21.696 43.7712 21.4672 44.6431C21.2383 45.515 21.3627 46.442 21.8134 47.2227L24.6245 52.1116C24.8324 52.5224 25.1233 52.8855 25.4789 53.1779C25.8344 53.4704 26.2469 53.6858 26.69 53.8105C27.1439 53.9337 27.6178 53.9648 28.0838 53.9018C28.5498 53.8388 28.9985 53.6831 29.4034 53.4438C29.877 53.1783 30.4158 53.0512 30.9583 53.0771C31.5007 53.1031 32.0249 53.281 32.4711 53.5905C32.8782 53.841 33.2144 54.1915 33.4476 54.6087C33.6808 55.0259 33.8033 55.4959 33.8034 55.9738C33.7798 56.4537 33.8567 56.9331 34.0293 57.3814C34.2019 57.8298 34.4663 58.2371 34.8056 58.5772C35.1242 58.9007 35.5051 59.1563 35.9252 59.3285C36.3453 59.5008 36.796 59.5861 37.25 59.5794H42.8234C43.7268 59.5762 44.5922 59.2159 45.231 58.5771C45.8698 57.9383 46.2301 57.0728 46.2334 56.1694C46.212 55.6478 46.3325 55.1301 46.5822 54.6717C46.8319 54.2132 47.2013 53.8311 47.6511 53.5661C48.0917 53.2414 48.6194 53.0562 49.1663 53.0345C49.7131 53.0127 50.2539 53.1553 50.7189 53.4438C51.1056 53.6705 51.5333 53.8187 51.9773 53.8799C52.4214 53.9412 52.8731 53.9143 53.3068 53.8008C53.7404 53.6872 54.1474 53.4893 54.5045 53.2184C54.8616 52.9474 55.1617 52.6087 55.3878 52.2216L58.1867 47.3327C58.4126 46.9436 58.5596 46.5138 58.6192 46.0678C58.6788 45.6218 58.6499 45.1684 58.5341 44.7336C58.4183 44.2989 58.2179 43.8912 57.9444 43.5339C57.6709 43.1766 57.3296 42.8768 56.94 42.6516ZM56.5734 46.3183L53.7745 51.2072C53.5637 51.5634 53.2212 51.8224 52.8211 51.9283C52.6176 51.9889 52.4037 52.0061 52.1931 51.9787C51.9826 51.9513 51.7801 51.88 51.5989 51.7694C50.8522 51.305 49.9882 51.064 49.1089 51.0749C48.2296 51.0857 47.3718 51.3479 46.6367 51.8305C45.9039 52.262 45.2998 52.8816 44.8872 53.6252C44.4746 54.3688 44.2684 55.2093 44.29 56.0594C44.2911 56.2617 44.2516 56.4622 44.1739 56.649C44.0963 56.8358 43.982 57.0052 43.8378 57.1472C43.6942 57.2934 43.523 57.4097 43.3342 57.4894C43.1454 57.5691 42.9427 57.6107 42.7378 57.6116H37.2134C37.0084 57.6107 36.8057 57.5691 36.6169 57.4894C36.4281 57.4097 36.257 57.2934 36.1134 57.1472C35.949 56.9791 35.8234 56.7772 35.7453 56.5555C35.6672 56.3339 35.6385 56.0978 35.6611 55.8638C35.6704 55.0192 35.4472 54.1883 35.0161 53.4618C34.585 52.7354 33.9625 52.1415 33.2167 51.745C32.5264 51.3315 31.7394 51.107 30.9348 51.0942C30.1303 51.0813 29.3365 51.2804 28.6334 51.6716C28.4279 51.8057 28.1978 51.8974 27.9564 51.9415C27.7151 51.9856 27.4674 51.9811 27.2278 51.9283C26.8328 51.8183 26.4956 51.56 26.2867 51.2072L23.4878 46.3183C23.2833 45.963 23.2277 45.5413 23.333 45.1452C23.4384 44.749 23.6961 44.4106 24.05 44.2038C24.8293 43.7769 25.4722 43.1386 25.9047 42.3623C26.3372 41.586 26.5416 40.7034 26.4945 39.8161C26.5001 38.9689 26.2757 38.1361 25.8452 37.4064C25.4147 36.6767 24.7943 36.0775 24.05 35.6727C23.6961 35.4659 23.4384 35.1275 23.333 34.7314C23.2277 34.3353 23.2833 33.9136 23.4878 33.5583L26.2867 28.6694C26.4956 28.3166 26.8328 28.0582 27.2278 27.9483C27.4315 27.8892 27.6452 27.8728 27.8555 27.9001C28.0658 27.9275 28.2682 27.998 28.45 28.1072C29.1968 28.5716 30.0608 28.8126 30.9401 28.8017C31.8193 28.7909 32.6772 28.5287 33.4122 28.0461C34.1451 27.6146 34.7491 26.9949 35.1617 26.2513C35.5744 25.5078 35.7806 24.6673 35.7589 23.8172C35.7579 23.6149 35.7973 23.4144 35.875 23.2276C35.9527 23.0407 36.067 22.8714 36.2111 22.7294C36.3547 22.5832 36.5259 22.4669 36.7147 22.3872C36.9035 22.3075 37.1062 22.2659 37.3111 22.265H42.8845C43.0894 22.2659 43.2921 22.3075 43.4809 22.3872C43.6697 22.4669 43.8409 22.5832 43.9845 22.7294C44.1286 22.8714 44.2429 23.0407 44.3206 23.2276C44.3983 23.4144 44.4377 23.6149 44.4367 23.8172C44.4037 24.6695 44.6036 25.5147 45.0149 26.262C45.4262 27.0092 46.0334 27.6302 46.7711 28.0583C47.5244 28.5034 48.3834 28.7383 49.2584 28.7383C50.1333 28.7383 50.9923 28.5034 51.7456 28.0583C51.9268 27.9477 52.1293 27.8764 52.3398 27.849C52.5504 27.8216 52.7643 27.8388 52.9678 27.8994C53.3679 28.0053 53.7103 28.2643 53.9211 28.6205L56.72 33.5094C56.9245 33.8647 56.9801 34.2864 56.8748 34.6825C56.7695 35.0787 56.5117 35.417 56.1578 35.6238C55.3785 36.0508 54.7356 36.6891 54.3031 37.4654C53.8707 38.2417 53.6662 39.1243 53.7134 40.0116C53.7077 40.8588 53.9321 41.6916 54.3626 42.4213C54.7931 43.151 55.4135 43.7502 56.1578 44.155C56.3364 44.2693 56.4897 44.4189 56.6082 44.5948C56.7267 44.7706 56.8079 44.9688 56.8468 45.1773C56.8858 45.3857 56.8816 45.5999 56.8346 45.8067C56.7875 46.0134 56.6986 46.2083 56.5734 46.3794V46.3183Z" fill="white"/>
<path fill-rule="evenodd" clip-rule="evenodd" d="M40 40.9282C41.1691 40.933 42.3134 40.5906 43.2876 39.9444C44.2619 39.2981 45.0224 38.3771 45.4726 37.2981C45.9228 36.2192 46.0424 35.0308 45.8164 33.8837C45.5904 32.7367 45.0289 31.6825 44.2031 30.855C43.3772 30.0274 42.3243 29.4637 41.1777 29.2353C40.0311 29.0069 38.8425 29.1241 37.7626 29.5721C36.6826 30.0201 35.7601 30.7786 35.1118 31.7515C34.4635 32.7244 34.1187 33.868 34.1211 35.0371C34.1195 35.8101 34.2704 36.5759 34.5651 37.2906C34.8598 38.0053 35.2926 38.6548 35.8387 39.202C36.3848 39.7492 37.0334 40.1833 37.7474 40.4795C38.4615 40.7757 39.227 40.9282 40 40.9282ZM40 30.9915C40.8012 30.9867 41.5857 31.2198 42.2542 31.6614C42.9227 32.103 43.4451 32.7331 43.755 33.4719C44.065 34.2107 44.1486 35.0249 43.9952 35.8112C43.8419 36.5976 43.4586 37.3207 42.8938 37.889C42.329 38.4572 41.6082 38.8449 40.8227 39.003C40.0373 39.1611 39.2226 39.0824 38.482 38.777C37.7413 38.4715 37.1081 37.953 36.6624 37.2872C36.2168 36.6214 35.9789 35.8383 35.9789 35.0371C35.9773 34.5074 36.08 33.9826 36.2812 33.4927C36.4825 33.0027 36.7782 32.5572 37.1516 32.1815C37.525 31.8058 37.9687 31.5074 38.4575 31.3032C38.9462 31.099 39.4704 30.9931 40 30.9915Z" fill="white"/>
<path fill-rule="evenodd" clip-rule="evenodd" d="M31.6278 47.4059C31.6218 47.3736 31.6218 47.3404 31.6278 47.3081C31.6189 47.3401 31.6189 47.3739 31.6278 47.4059Z" fill="white"/>
<path fill-rule="evenodd" clip-rule="evenodd" d="M43.7278 42.7984H36.3334C35.1035 42.7983 33.9233 43.2835 33.0491 44.1486C32.1749 45.0136 31.6773 46.1886 31.6645 47.4184C31.6645 47.5404 31.6885 47.6612 31.7352 47.7739C31.7819 47.8866 31.8503 47.989 31.9365 48.0752C32.0228 48.1615 32.1252 48.2299 32.2379 48.2766C32.3506 48.3233 32.4714 48.3473 32.5934 48.3473C32.8359 48.3354 33.0653 48.2338 33.237 48.0621C33.4087 47.8904 33.5104 47.6609 33.5222 47.4184C33.5351 46.6814 33.8369 45.9788 34.3627 45.4622C34.8885 44.9455 35.5962 44.6561 36.3334 44.6562H43.7645C44.1314 44.6562 44.4948 44.7287 44.8337 44.8695C45.1726 45.0103 45.4803 45.2166 45.7393 45.4767C45.9982 45.7368 46.2032 46.0454 46.3425 46.3849C46.4819 46.7244 46.5527 47.0881 46.5511 47.4551C46.551 47.5742 46.5772 47.6919 46.6279 47.7996C46.6786 47.9074 46.7526 48.0026 46.8445 48.0784C46.9984 48.2309 47.2026 48.3221 47.4189 48.3351H47.5167C47.7545 48.3225 47.9784 48.2192 48.1421 48.0463C48.3059 47.8734 48.397 47.6443 48.3967 47.4062C48.387 46.1765 47.89 45.0009 47.0148 44.1371C46.1396 43.2733 44.9575 42.7919 43.7278 42.7984Z" fill="white"/>
</svg>
