<svg width="80" height="80" viewBox="0 0 80 80" fill="none" xmlns="http://www.w3.org/2000/svg">
<rect width="80" height="80" rx="12" fill="#316FF6"/>
<g clip-path="url(#clip0_2384_1782)">
<path d="M30.375 48.25H31.75V49.625H30.375V48.25Z" fill="white"/>
<path d="M47.7619 18.8869C45.8162 20.8394 43.355 22.1181 40.6394 22.5719L39.8831 22.6956C39.5256 22.7575 39.2712 23.0875 39.3125 23.4519C39.8625 28.2438 42.3306 32.3756 46.4556 35.4006L47.8375 36.4181C47.9612 36.5075 48.0987 36.5488 48.2431 36.5488C48.3875 36.5488 48.5387 36.5006 48.6625 36.4044L50.3881 35.0706C54.2794 32.0594 56.6237 28.0444 57.1737 23.4588V23.445C57.215 23.0806 56.9675 22.7506 56.6031 22.6888L55.8469 22.565C53.1312 22.1113 50.67 20.8325 48.7244 18.88C48.4631 18.6188 48.0094 18.6188 47.7481 18.88L47.7619 18.8869ZM55.7231 23.9469C55.0837 27.8931 52.9662 31.3581 49.5562 33.9913L48.2362 35.0088L47.2669 34.3006C43.6506 31.64 41.4094 28.0719 40.7631 23.9469L40.8594 23.9331C43.6369 23.4656 46.1737 22.2281 48.2431 20.3306C50.3056 22.2281 52.8494 23.4656 55.6269 23.9331L55.7231 23.9469Z" fill="white"/>
<path d="M46.16 27.4049L45.1906 28.3743L46.8888 30.0724C47.0263 30.2099 47.1981 30.2718 47.3769 30.2718C47.5556 30.2718 47.7275 30.2031 47.865 30.0724L51.9969 25.9406L51.0275 24.9712L47.3838 28.6149L46.1669 27.3981L46.16 27.4049Z" fill="white"/>
<path d="M59.9375 51.6875H57.875V42.0625C57.875 41.6844 57.5656 41.375 57.1875 41.375H49.625C49.2469 41.375 48.9375 41.6844 48.9375 42.0625V44.8125H44.125C43.7469 44.8125 43.4375 45.1219 43.4375 45.5V51.6875H40V46.1875C40 43.2106 37.8825 40.715 35.0775 40.1306C35.7856 39.2437 36.2188 38.1231 36.2188 36.9062C36.2188 34.06 33.9087 31.75 31.0625 31.75C28.2163 31.75 25.9062 34.06 25.9062 36.9062C25.9062 38.1231 26.3325 39.2506 27.0475 40.1306C24.2425 40.715 22.125 43.2106 22.125 46.1875V51.6875H20.0625C19.3062 51.6875 18.6875 52.3062 18.6875 53.0625V55.8125C18.6875 56.5688 19.3062 57.1875 20.0625 57.1875H22.125V61.3125H23.5V57.1875H56.5V61.3125H57.875V57.1875H59.9375C60.6937 57.1875 61.3125 56.5688 61.3125 55.8125V53.0625C61.3125 52.3062 60.6937 51.6875 59.9375 51.6875ZM50.3125 42.75H56.5V44.8125H53.75V46.1875H56.5V48.25H53.75V49.625H56.5V51.6875H52.375V45.5C52.375 45.1219 52.0656 44.8125 51.6875 44.8125H50.3125V42.75ZM44.8125 46.1875H51V48.25H44.8125V46.1875ZM44.8125 49.625H51V51.6875H44.8125V49.625ZM31.0625 33.125C33.1456 33.125 34.8438 34.8231 34.8438 36.9062C34.8438 38.9894 33.1456 40.6875 31.0625 40.6875C28.9794 40.6875 27.2812 38.9894 27.2812 36.9062C27.2812 34.8231 28.9794 33.125 31.0625 33.125ZM23.5 46.1875C23.5 43.5338 25.6588 41.375 28.3125 41.375H28.4981C29.2544 41.8081 30.1275 42.0625 31.0625 42.0625C31.9975 42.0625 32.8706 41.8081 33.6269 41.375H33.8125C36.4662 41.375 38.625 43.5338 38.625 46.1875V51.6875H35.3387L36.3837 46.4556C36.4662 46.05 36.3631 45.6306 36.1019 45.3144C35.8406 44.9913 35.4487 44.8125 35.0363 44.8125H27.0887C26.6762 44.8125 26.2844 44.9981 26.0231 45.3144C25.7619 45.6306 25.6588 46.05 25.7413 46.4556L26.7863 51.6875H23.5V46.1875ZM35.0363 46.1875L33.9363 51.6875H28.1887L27.0887 46.1875H35.0363ZM20.0625 55.8125V53.0625H59.9375V55.8125H20.0625Z" fill="white"/>
</g>
<defs>
<clipPath id="clip0_2384_1782">
<rect width="44" height="44" fill="white" transform="translate(18 18)"/>
</clipPath>
</defs>
</svg>
