<svg width="80" height="80" viewBox="0 0 80 80" fill="none" xmlns="http://www.w3.org/2000/svg">
<rect width="80" height="80" rx="12" fill="#316FF6"/>
<path d="M34.5 36.3333C29.4455 36.3333 25.3333 32.2212 25.3333 27.1667C25.3333 22.1122 29.4455 18 34.5 18C39.5545 18 43.6667 22.1122 43.6667 27.1667C43.6667 32.2212 39.5545 36.3333 34.5 36.3333ZM34.5 19.8333C30.4557 19.8333 27.1667 23.1223 27.1667 27.1667C27.1667 31.211 30.4557 34.5 34.5 34.5C38.5443 34.5 41.8333 31.211 41.8333 27.1667C41.8333 23.1223 38.5443 19.8333 34.5 19.8333Z" fill="white"/>
<path d="M33.5833 56.5H18.9167C18.4107 56.5 18 56.0893 18 55.5833V48.25C18 43.7015 21.7015 40 26.25 40H37.25C37.756 40 38.1667 40.4107 38.1667 40.9167C38.1667 41.4227 37.756 41.8333 37.25 41.8333H26.25C22.7117 41.8333 19.8333 44.7117 19.8333 48.25V54.6667H33.5833C34.0893 54.6667 34.5 55.0773 34.5 55.5833C34.5 56.0893 34.0893 56.5 33.5833 56.5Z" fill="white"/>
<path d="M49.1667 54.6667C46.6403 54.6667 44.5833 52.6097 44.5833 50.0833C44.5833 47.557 46.6403 45.5 49.1667 45.5C51.693 45.5 53.75 47.557 53.75 50.0833C53.75 52.6097 51.693 54.6667 49.1667 54.6667ZM49.1667 47.3333C47.6505 47.3333 46.4167 48.5672 46.4167 50.0833C46.4167 51.5995 47.6505 52.8333 49.1667 52.8333C50.6828 52.8333 51.9167 51.5995 51.9167 50.0833C51.9167 48.5672 50.6828 47.3333 49.1667 47.3333Z" fill="white"/>
<path d="M50.6278 62H47.7037C46.7577 62 45.973 61.2905 45.8795 60.3481L45.6467 58.018C45.0912 57.7705 44.5613 57.4625 44.0608 57.0958L41.9195 58.062C41.0597 58.4543 40.0495 58.1261 39.5783 57.3066L38.1172 54.7748C37.6442 53.9553 37.8678 52.9213 38.6342 52.3695L40.5207 51.0128C40.484 50.7286 40.4583 50.4133 40.4583 50.0833C40.4583 49.7533 40.484 49.4361 40.5207 49.1538L38.6342 47.7971C37.8678 47.2453 37.6442 46.2113 38.1172 45.3918L39.5783 42.86C40.0513 42.0405 41.056 41.716 41.9195 42.1046L44.0608 43.0708C44.5613 42.7041 45.0912 42.3961 45.6467 42.1486L45.8795 39.8185C45.973 38.878 46.7577 38.1685 47.7037 38.1685H50.6278C51.5738 38.1685 52.3585 38.878 52.452 39.8203L52.6848 42.1505C53.2422 42.398 53.772 42.7078 54.2707 43.0726L56.412 42.1065C57.2755 41.7196 58.282 42.0441 58.7532 42.8618L60.2143 45.3936C60.6873 46.2131 60.4637 47.2471 59.6973 47.799L57.8108 49.1556C57.8475 49.4398 57.8732 49.7551 57.8732 50.0851C57.8732 50.4151 57.8475 50.7323 57.8108 51.0146L59.6973 52.3713C60.4637 52.9231 60.6873 53.9571 60.2143 54.7766L58.755 57.3066C58.282 58.1243 57.2792 58.4525 56.4138 58.062L54.2725 57.0958C53.772 57.4625 53.2422 57.7705 52.6867 58.018L52.452 60.35C52.3585 61.2905 51.5738 62 50.6278 62ZM44.1892 55.1158C44.4 55.1158 44.609 55.1891 44.7777 55.3303C45.3992 55.851 46.0867 56.2488 46.8182 56.5165C47.1482 56.6375 47.381 56.9363 47.4158 57.2865L47.7055 60.1666H50.6297L50.9175 57.2865C50.9523 56.9363 51.1852 56.6375 51.5152 56.5165C52.2467 56.2488 52.9342 55.8491 53.5557 55.3303C53.827 55.1048 54.201 55.0535 54.52 55.1983L57.1673 56.3936L58.6285 53.8618L56.2855 52.1788C55.9995 51.9735 55.8583 51.6215 55.917 51.275C55.9848 50.8881 56.0398 50.494 56.0398 50.087C56.0398 49.68 55.9848 49.2858 55.917 48.899C55.8565 48.5525 55.9995 48.2023 56.2855 47.9951L58.6285 46.3121L57.1673 43.7803L54.52 44.9738C54.1992 45.1186 53.8252 45.0673 53.5538 44.8418C52.9342 44.3211 52.2485 43.9233 51.5133 43.6556C51.1833 43.5346 50.9505 43.2358 50.9157 42.8856L50.6278 40H47.7037L47.4158 42.8801C47.381 43.2303 47.1482 43.5291 46.8182 43.6501C46.0867 43.9178 45.3992 44.3175 44.7777 44.8363C44.5082 45.0618 44.1342 45.115 43.8133 44.9683L41.166 43.773L39.7048 46.3048L42.0478 47.9878C42.3338 48.1931 42.475 48.5451 42.4163 48.8916C42.3485 49.2785 42.2935 49.6726 42.2935 50.0796C42.2935 50.4866 42.3485 50.8808 42.4163 51.2676C42.4768 51.6141 42.3338 51.9643 42.0478 52.1715L39.7048 53.8545L41.166 56.3863L43.8133 55.1928C43.9343 55.1415 44.0608 55.1158 44.1892 55.1158Z" fill="white"/>
</svg>
