<svg width="24" height="19" viewBox="0 0 24 19" fill="none" xmlns="http://www.w3.org/2000/svg">
<path d="M3.72326 12.0404C3.72306 12.0404 3.72306 12.0404 3.72286 12.0404C3.25304 12.0658 2.81419 11.8743 2.50939 11.5498H0.471019C0.210911 11.5498 0 11.7607 0 12.0208V17.1239C0 17.3841 0.210911 17.5949 0.471019 17.5949H0.542658V17.9623H1.7951V17.5949H4.24989V17.9623H5.50233V17.5949H5.57407C5.83428 17.5949 6.04509 17.3841 6.04509 17.1239V12.0208C6.04509 11.9261 6.01653 11.8383 5.96834 11.7643C5.29963 11.8023 4.6139 11.8866 3.92896 12.0156C3.86103 12.0284 3.79189 12.0367 3.72326 12.0404Z" fill="#316FF6"/>
<path d="M15.4452 13.3994L15.4241 13.426L15.397 13.4468C15.2981 13.5246 15.1884 13.5883 15.0711 13.6374C15.0432 13.6864 15.0147 13.735 14.987 13.7841L14.8924 13.7256C14.7188 13.8032 14.5315 13.8497 14.3415 13.86C14.3128 13.8616 14.2843 13.8622 14.2556 13.8623C13.9098 13.8617 13.5824 13.7494 13.3096 13.5385C13.2937 13.5261 12.1988 12.7102 10.2301 12.1817L8.2124 15.4496L9.15013 16.0286L9.88707 14.835L13.3755 16.9889C13.1831 17.4208 12.9969 17.8554 12.8206 18.2947L13.7732 18.883C15.1286 15.4554 16.988 12.2536 19.2873 9.38257C17.829 10.56 16.9408 11.5453 15.4452 13.3994ZM13.6267 16.4373L10.203 14.3234L11.1856 12.732L14.4602 14.754C14.1686 15.3078 13.8909 15.8691 13.6267 16.4373Z" fill="#316FF6"/>
<path d="M3.3534 8.9634C4.18542 8.80659 5.02215 8.7045 5.84075 8.66031C6.16979 8.64247 6.50163 8.63366 6.82747 8.63406C8.83929 8.63696 10.7536 8.98214 12.5194 9.65986C12.5386 9.64603 12.5567 9.6324 12.5758 9.61858C10.9737 8.77704 8.62017 7.95774 5.58986 7.95874C4.85803 7.95874 4.08763 8.00643 3.28025 8.11184C2.59452 8.20141 2.11097 8.83014 2.20065 9.51588C2.21237 9.60615 2.23411 9.69272 2.26347 9.77518C2.29213 9.72008 2.32309 9.66597 2.35856 9.61397C2.59231 9.2714 2.9456 9.04045 3.3534 8.9634Z" fill="#316FF6"/>
<path d="M21.7207 3.27596C21.7382 3.70449 21.644 4.14275 21.4243 4.54604C21.361 4.66196 21.2885 4.77047 21.2093 4.87297C21.583 5.1452 21.8593 5.38447 22.0472 5.58226C22.3004 5.84487 22.3832 6.02983 22.3936 6.08053C22.3747 6.10177 22.3291 6.14415 22.2514 6.19124C22.0623 6.31078 21.7001 6.43893 21.3072 6.52329C20.8551 6.62429 20.3658 6.67909 19.9957 6.70825C19.9311 6.64262 19.8653 6.59062 19.8028 6.56076C18.7649 6.05558 17.7272 5.55069 16.6897 5.04561C16.6419 4.95523 16.5837 4.84191 16.5206 4.71276C16.3545 4.3725 16.1567 3.91811 16.0351 3.50641C15.9529 3.23338 15.909 2.97788 15.9108 2.82247C15.9107 2.78761 15.9128 2.75815 15.9156 2.7356C15.9305 2.7342 15.9486 2.7335 15.9704 2.7335C16.121 2.72979 16.4217 2.7849 16.8525 2.94241C16.8973 2.68791 16.983 2.43632 17.1133 2.19726C17.2525 1.94186 17.4334 1.71842 17.6444 1.53196C16.9985 1.27085 16.4681 1.13568 15.9729 1.13037C15.7349 1.12997 15.4998 1.16404 15.2756 1.25121C15.0519 1.33698 14.8436 1.48206 14.6908 1.66241C14.3804 2.03193 14.3093 2.45716 14.3078 2.81997C14.3089 3.21845 14.391 3.59608 14.4983 3.962C14.6066 4.32671 14.7447 4.67639 14.8807 4.98599C14.9398 5.12056 14.9986 5.2468 15.0548 5.36343C14.8463 7.2992 14.6083 8.58601 12.56 9.99857C11.1778 9.4505 9.2376 8.9382 6.8267 8.93469C5.77285 8.93309 4.63022 9.02838 3.40894 9.25873C2.72911 9.38698 2.28194 10.042 2.41009 10.7218C2.53814 11.4013 3.19312 11.8486 3.87294 11.7204C4.93912 11.5194 5.92304 11.4383 6.8228 11.4396C11.0325 11.4429 13.4627 13.2771 13.4924 13.3C13.7196 13.4759 13.9888 13.5614 14.2559 13.5618C14.4842 13.5621 14.7109 13.4996 14.9094 13.379C15.0136 13.3406 15.1161 13.2854 15.2112 13.2107C17.0083 10.9826 17.9435 9.97392 20.199 8.30016C20.2776 8.29354 20.3601 8.28593 20.4466 8.27721C21.0315 8.21559 21.7639 8.10808 22.4359 7.86571C22.8815 7.69788 23.3243 7.48557 23.6699 7.05082C23.8642 6.80424 24.0026 6.45917 23.9997 6.10077C23.9955 5.55731 23.7407 5.08749 23.3601 4.64423C22.9828 4.20898 22.4537 3.76852 21.7207 3.27596Z" fill="#316FF6"/>
<path d="M21.2583 4.45477C21.8547 3.3616 21.452 1.99194 20.3588 1.39555C19.2656 0.799162 17.896 1.20188 17.2996 2.29505C16.7032 3.38822 17.1059 4.75788 18.1991 5.35427C19.2923 5.95066 20.6619 5.54794 21.2583 4.45477Z" fill="#316FF6"/>
</svg>
