<svg width="45" height="45" viewBox="0 0 45 45" fill="none" xmlns="http://www.w3.org/2000/svg">
<path d="M6.98111 26.326C6.98074 26.326 6.98074 26.326 6.98036 26.326C6.09946 26.3738 5.2766 26.0147 4.70511 25.4062H0.88316C0.395459 25.4062 0 25.8017 0 26.2894V35.8576C0 36.3455 0.395459 36.7408 0.88316 36.7408H1.01748V37.4297H3.36581V36.7408H7.96854V37.4297H10.3169V36.7408H10.4514C10.9393 36.7408 11.3345 36.3455 11.3345 35.8576V26.2894C11.3345 26.1119 11.281 25.9471 11.1906 25.8085C9.93682 25.8797 8.65106 26.0377 7.3668 26.2796C7.23943 26.3037 7.1098 26.3191 6.98111 26.326Z" fill="#DBDBDB"/>
<path d="M28.9598 28.8742L28.9201 28.924L28.8694 28.9631C28.684 29.109 28.4783 29.2283 28.2583 29.3204C28.206 29.4123 28.1525 29.5034 28.1007 29.5954L27.9233 29.4859C27.5977 29.6313 27.2466 29.7185 26.8902 29.7378C26.8365 29.7408 26.7831 29.742 26.7292 29.7422C26.0809 29.741 25.467 29.5304 24.9556 29.135C24.9257 29.1119 22.8727 27.5819 19.1815 26.5911L15.3983 32.7183L17.1565 33.804L18.5383 31.566L25.079 35.6045C24.7183 36.4144 24.3692 37.2292 24.0386 38.053L25.8248 39.156C28.3661 32.7292 31.8525 26.7258 36.1637 21.3427C33.4293 23.5503 31.764 25.3977 28.9598 28.8742ZM25.55 34.5703L19.1306 30.6067L20.973 27.6228L27.1129 31.4142C26.5662 32.4525 26.0454 33.5049 25.55 34.5703Z" fill="#DBDBDB"/>
<path d="M6.28749 20.5565C7.84754 20.2625 9.41641 20.071 10.9513 19.9882C11.5682 19.9547 12.1904 19.9382 12.8014 19.9389C16.5736 19.9444 20.1629 20.5916 23.4737 21.8623C23.5098 21.8364 23.5438 21.8108 23.5795 21.7849C20.5755 20.207 16.1627 18.6709 10.4809 18.6727C9.10868 18.6727 7.66418 18.7622 6.15035 18.9598C4.86459 19.1277 3.95795 20.3066 4.12609 21.5924C4.14807 21.7616 4.18884 21.9239 4.24388 22.0786C4.29761 21.9752 4.35567 21.8738 4.42217 21.7763C4.86046 21.134 5.52288 20.7009 6.28749 20.5565Z" fill="#DBDBDB"/>
<path d="M40.7268 9.89261C40.7595 10.6961 40.5829 11.5178 40.1709 12.274C40.0523 12.4914 39.9163 12.6948 39.7679 12.887C40.4685 13.3974 40.9866 13.8461 41.3388 14.2169C41.8136 14.7093 41.9689 15.0561 41.9883 15.1512C41.953 15.191 41.8675 15.2705 41.7217 15.3588C41.3672 15.5829 40.6881 15.8232 39.9514 15.9814C39.1036 16.1707 38.1862 16.2735 37.4923 16.3282C37.3711 16.2051 37.2479 16.1076 37.1306 16.0516C35.1845 15.1044 33.2388 14.1577 31.2936 13.2107C31.204 13.0412 31.0949 12.8288 30.9765 12.5866C30.665 11.9486 30.2942 11.0966 30.0661 10.3247C29.9121 9.81276 29.8298 9.3337 29.8331 9.04232C29.833 8.97694 29.8369 8.92171 29.8422 8.87944C29.87 8.87681 29.904 8.8755 29.9449 8.8755C30.2273 8.86855 30.7911 8.97187 31.5987 9.2672C31.6829 8.79002 31.8435 8.31829 32.0877 7.87004C32.3489 7.39117 32.688 6.97222 33.0836 6.6226C31.8726 6.13302 30.8781 5.87959 29.9496 5.86964C29.5033 5.86888 29.0625 5.93276 28.6421 6.0962C28.2228 6.25702 27.8322 6.52905 27.5457 6.86721C26.9637 7.56006 26.8303 8.35736 26.8275 9.03763C26.8295 9.78477 26.9834 10.4928 27.1846 11.1789C27.3877 11.8628 27.6468 12.5184 27.9017 13.0989C28.0125 13.3512 28.1228 13.5879 28.2282 13.8066C27.8373 17.4362 27.3909 19.849 23.5503 22.4975C20.9587 21.4699 17.3209 20.5093 12.8004 20.5027C10.8245 20.4997 8.68203 20.6784 6.39213 21.1103C5.11745 21.3508 4.27901 22.5788 4.51929 23.8535C4.75938 25.1276 5.98746 25.9663 7.26213 25.726C9.26122 25.3491 11.1061 25.1969 12.7931 25.1994C20.6863 25.2056 25.243 28.6447 25.2986 28.6877C25.7247 29.0176 26.2293 29.1778 26.7302 29.1786C27.1583 29.1792 27.5833 29.0619 27.9554 28.8357C28.1508 28.7638 28.343 28.6603 28.5213 28.5203C31.8909 24.3425 33.6444 22.4513 37.8735 19.313C38.0209 19.3006 38.1755 19.2863 38.3377 19.27C39.4344 19.1544 40.8077 18.9528 42.0678 18.4984C42.9032 18.1837 43.7334 17.7856 44.3815 16.9705C44.7458 16.5081 45.0052 15.8611 44.9998 15.1891C44.9919 14.1701 44.5142 13.2892 43.8006 12.4581C43.0931 11.642 42.101 10.8162 40.7268 9.89261Z" fill="#DBDBDB"/>
<path d="M39.8596 12.1028C40.9778 10.0531 40.2227 7.48501 38.173 6.36678C36.1233 5.24855 33.5552 6.00365 32.437 8.05335C31.3187 10.103 32.0738 12.6712 34.1235 13.7894C36.1732 14.9076 38.7413 14.1525 39.8596 12.1028Z" fill="#DBDBDB"/>
</svg>
