<svg width="173" height="46" viewBox="0 0 173 46" fill="none" xmlns="http://www.w3.org/2000/svg">
<path d="M13.5303 28.7623V33.5261H2.32959V15.3762H7.09621V28.7623H13.5303Z" fill="#00267C"/>
<path d="M40.223 25.5231C40.223 26.6821 39.9493 27.8177 39.4001 28.9299C38.8526 30.0421 38.0927 30.9906 37.1239 31.7752C36.1551 32.5617 35.0656 33.0818 33.8591 33.3356C33.2558 33.4633 32.676 33.5263 32.1196 33.5263C30.7366 33.5263 29.4112 33.2168 28.1399 32.5977C26.8685 31.9786 25.7845 31.113 24.8877 30.0007C23.9891 28.8903 23.3895 27.6342 23.0887 26.2376C22.9771 25.6977 22.9213 25.1182 22.9213 24.4991C22.9213 23.1331 23.2184 21.8158 23.8144 20.5452C24.4105 19.2746 25.2479 18.1948 26.3283 17.3057C27.4088 16.4167 28.6405 15.821 30.0217 15.5186C30.6898 15.3909 31.3488 15.3279 31.9989 15.3279C33.0956 15.3279 34.1562 15.4827 35.1809 15.7922C36.2055 16.1017 37.0429 16.5499 37.6947 17.1384L35.1683 21.0437C34.8189 20.7108 34.3615 20.4516 33.7979 20.2698C33.2342 20.0881 32.658 19.9963 32.0709 19.9963C31.7216 19.9963 31.3632 20.0359 30.9977 20.1151C30.1243 20.322 29.404 20.8097 28.8404 21.58C28.2767 22.3503 27.994 23.2033 27.994 24.141C27.994 24.3947 28.0174 24.6575 28.066 24.9274C28.2875 25.9119 28.7647 26.7253 29.4959 27.3696C30.227 28.0121 31.0535 28.3342 31.9737 28.3342C32.1952 28.3342 32.4257 28.3108 32.6652 28.2622C33.1892 28.1507 33.7024 27.9365 34.2031 27.6198C34.7037 27.303 35.0098 26.9449 35.1214 26.5471L30.8788 25.7373L31.8567 21.4738L39.7458 23.0449C40.0627 23.7918 40.223 24.6161 40.223 25.5213V25.5231Z" fill="#00267C"/>
<path d="M51.71 26.9285L46.3726 26.3562V33.4542H41.606V15.3997H46.3726V21.6158L51.6866 22.1629L51.6398 15.4699L56.4064 15.3745L56.5253 33.6432L51.7587 33.6198L51.7118 26.9267L51.71 26.9285Z" fill="#00267C"/>
<path d="M68.2735 19.9027L68.3204 33.4309L63.6024 33.6451L63.5555 20.0214L58.598 20.1402L58.2649 15.3764L73.231 15.0183L73.6128 19.7821L68.2735 19.9009V19.9027Z" fill="#00267C"/>
<path d="M85.5753 26.9285L80.2378 26.3562V33.4542H75.4712V15.3997H80.2378V21.6158L85.5519 22.1629L85.5051 15.4699L90.2717 15.3745L90.3905 33.6432L85.6239 33.6198L85.5771 26.9267L85.5753 26.9285Z" fill="#00267C"/>
<path d="M97.0155 32.3474C95.5695 31.4818 94.4134 30.339 93.5472 28.9172C92.6811 27.4955 92.2489 25.9837 92.2489 24.3802C92.2489 22.7767 92.6811 21.2721 93.5472 19.8666C94.4134 18.461 95.5695 17.3416 97.0155 16.5084C98.4615 15.6751 100.003 15.2576 101.638 15.2576C103.273 15.2576 104.784 15.6751 106.214 16.5084C107.644 17.3416 108.784 18.4574 109.633 19.854C110.483 21.2523 110.908 22.7605 110.908 24.3802C110.908 25.9999 110.483 27.544 109.633 28.9658C108.784 30.3876 107.644 31.5232 106.214 32.3708C104.784 33.2203 103.259 33.645 101.638 33.645C100.017 33.645 98.4597 33.2131 97.0155 32.3474ZM103.819 28.2873C104.525 27.8896 105.09 27.3497 105.512 26.6676C105.933 25.9855 106.144 25.2224 106.144 24.3802C106.144 23.5379 105.933 22.8091 105.512 22.1414C105.09 21.4737 104.523 20.9554 103.808 20.581C103.093 20.2085 102.299 20.0213 101.426 20.0213C100.599 20.0213 99.8481 20.2085 99.1728 20.581C98.4976 20.9536 97.9699 21.4701 97.5882 22.1288C97.2064 22.7875 97.0155 23.5307 97.0155 24.355C97.0155 25.1793 97.21 25.9873 97.599 26.6766C97.9879 27.3677 98.521 27.9076 99.1962 28.2963C99.8715 28.6851 100.639 28.8794 101.496 28.8794C102.353 28.8794 103.113 28.6815 103.819 28.2837V28.2873Z" fill="#00267C"/>
<path d="M116.008 32.407C114.849 31.5342 113.959 30.2762 113.339 28.6313C112.72 26.9864 112.41 25.0463 112.41 22.8075C112.41 20.1871 112.727 17.7108 113.363 15.3766L118.486 16.6147C118.328 17.3616 118.2 18.1751 118.104 19.0569C118.009 19.9388 117.906 21.0546 117.795 22.4025L117.723 23.0936C117.723 26.999 118.524 28.9534 120.13 28.9534C121.736 28.9534 122.489 27.0403 122.489 23.2142C122.489 22.5627 122.385 21.5711 122.179 20.2375C121.972 18.904 121.711 17.6334 121.392 16.4258L126.445 14.9968C127.288 17.3472 127.708 20.0863 127.708 23.2142C127.708 25.3414 127.398 27.1951 126.779 28.7752C126.159 30.3554 125.28 31.5738 124.146 32.4304C123.01 33.2871 121.672 33.7172 120.13 33.7172C118.589 33.7172 117.166 33.2799 116.006 32.407H116.008Z" fill="#00267C"/>
<path d="M131.787 32.8226C130.499 32.2593 129.442 31.5088 128.617 30.5712L131.835 27.0456C132.343 27.6179 132.943 28.066 133.634 28.3918C134.326 28.7175 135.021 28.8795 135.719 28.8795C136.355 28.8795 136.872 28.7607 137.268 28.5213C137.664 28.2838 137.864 28.0048 137.864 27.6881C137.864 27.3713 137.673 27.141 137.291 26.997C136.91 26.8548 136.418 26.7828 135.813 26.7828C134.637 26.7828 133.553 26.5363 132.559 26.045C131.567 25.5536 130.771 24.8734 130.177 24.0077C129.581 23.1421 129.283 22.1702 129.283 21.0904C129.283 20.0106 129.593 18.9794 130.213 18.0903C130.832 17.2013 131.666 16.503 132.716 15.9937C133.764 15.4862 134.909 15.2324 136.148 15.2324C137.387 15.2324 138.626 15.4754 139.818 15.9595C141.01 16.4436 142.058 17.1383 142.964 18.0435L140.27 21.6879C138.777 20.5919 137.362 20.0448 136.027 20.0448C135.438 20.0448 134.931 20.1474 134.502 20.3543C134.074 20.5613 133.859 20.8061 133.859 21.0922C133.859 21.3946 134.113 21.6195 134.623 21.7707C135.131 21.9219 135.734 21.9975 136.434 21.9975C137.706 21.9975 138.842 22.1954 139.843 22.5931C140.844 22.9909 141.631 23.5776 142.202 24.355C142.775 25.1325 143.059 26.0773 143.059 27.1896C143.059 28.381 142.721 29.4716 142.047 30.465C141.372 31.4566 140.47 32.2395 139.343 32.8118C138.213 33.3841 136.991 33.6684 135.673 33.6684C134.354 33.6684 133.074 33.3859 131.788 32.8226H131.787Z" fill="#00267C"/>
<path d="M157.881 28.4294V33.1932L145.298 33.4793L144.678 15.3781L157.262 14.9731L157.595 19.7369L149.54 19.8323L149.636 21.7148L156.333 21.5726L156.57 26.3364L149.922 26.4786L150.041 28.7408L157.881 28.4312V28.4294Z" fill="#00267C"/>
<path d="M21.9741 20.0322H14.373V23.6946H21.9741V20.0322Z" fill="#00267C"/>
<path d="M21.9741 24.7959H14.373V28.4583H21.9741V24.7959Z" fill="#00267C"/>
<path d="M21.9741 29.5779H14.373V33.2402H21.9741V29.5779Z" fill="#00267C"/>
<path d="M21.9741 14.948H14.373V18.6104H21.9741V14.948Z" fill="#00267C"/>
<path d="M21.9741 7.77271H14.373V13.3535H21.9741V7.77271Z" fill="#00267C"/>
<path d="M23.0073 8.42773H21.9417V9.35422H23.0073V8.42773Z" fill="#00267C"/>
<path d="M14.3726 8.42773H13.307V9.35422H14.3726V8.42773Z" fill="#00267C"/>
<path d="M21.9741 4.47583H14.373V5.2479H21.9741V4.47583Z" fill="#00267C"/>
<path d="M17.9169 0.164V1.229H18.4335V0.164H17.9169Z" fill="#00267C"/>
<path d="M21.3726 4.47565H14.9745C14.9907 2.72275 16.4151 1.3064 18.1726 1.3064C19.9302 1.3064 21.3564 2.72455 21.3708 4.47565H21.3726Z" fill="#00267C"/>
<path d="M172.07 10.3946L22.1721 7.77242V5.44542L172.07 3.08423V10.3946Z" fill="url(#paint0_linear_1107_2658)"/>
<path d="M14.0543 7.77274L0.0695801 8.82916V4.60889L14.0543 5.44574V7.77274Z" fill="url(#paint1_linear_1107_2658)"/>
<path d="M46.1152 45.1129H45.132V40.3401H46.1152V45.1129Z" fill="black"/>
<path d="M57.8633 45.1129H56.8801L54.9641 41.9724V45.1129H53.9808V40.3401H54.9641L56.8819 43.4859V40.3401H57.8633V45.1129Z" fill="black"/>
<path d="M69.5574 45.1129H68.5742L66.6581 41.9724V45.1129H65.6749V40.3401H66.6581L68.576 43.4859V40.3401H69.5574V45.1129Z" fill="black"/>
<path d="M81.2912 42.8359C81.2912 43.3056 81.2084 43.7178 81.0427 44.0723C80.877 44.4268 80.6394 44.6986 80.3296 44.8912C80.0199 45.0837 79.6651 45.1791 79.2654 45.1791C78.8656 45.1791 78.5162 45.0837 78.2065 44.8948C77.8968 44.704 77.6555 44.4322 77.4844 44.0795C77.3133 43.7268 77.2269 43.32 77.2251 42.8629V42.6272C77.2251 42.1574 77.3097 41.7435 77.479 41.3872C77.6483 41.0308 77.8878 40.7555 78.1975 40.5647C78.5072 40.374 78.8602 40.2786 79.2582 40.2786C79.6561 40.2786 80.0091 40.374 80.3188 40.5647C80.6285 40.7555 80.868 41.0308 81.0373 41.3872C81.2066 41.7453 81.2912 42.1574 81.2912 42.6254V42.8377V42.8359ZM80.2936 42.62C80.2936 42.1196 80.2036 41.7399 80.0253 41.479C79.8452 41.2198 79.5895 41.0884 79.2582 41.0884C78.9268 41.0884 78.6729 41.2162 78.4946 41.4736C78.3146 41.7309 78.2245 42.107 78.2227 42.602V42.8341C78.2227 43.3218 78.3128 43.6998 78.491 43.9679C78.6693 44.2361 78.9286 44.3711 79.2654 44.3711C79.6021 44.3711 79.8488 44.2415 80.0271 43.9823C80.2036 43.7232 80.2936 43.3452 80.2954 42.8503V42.6182L80.2936 42.62Z" fill="black"/>
<path d="M90.6498 43.9304L91.7321 40.3418H92.8269L91.1648 45.1146H90.1384L88.4817 40.3418H89.573L90.648 43.9304H90.6498Z" fill="black"/>
<path d="M102.679 44.1302H100.954L100.626 45.1129H99.5797L101.357 40.3401H102.268L104.056 45.1129H103.01L102.679 44.1302ZM101.22 43.3348H102.414L101.814 41.5477L101.22 43.3348Z" fill="black"/>
<path d="M114.656 41.1373H113.194V45.1128H112.21V41.1373H110.768V40.3418H114.658V41.1373H114.656Z" fill="black"/>
<path d="M123.215 45.1129H122.232V40.3401H123.215V45.1129Z" fill="black"/>
<path d="M135.001 42.8359C135.001 43.3056 134.918 43.7178 134.752 44.0723C134.587 44.4268 134.349 44.6986 134.039 44.8912C133.729 45.0837 133.375 45.1791 132.975 45.1791C132.575 45.1791 132.226 45.0837 131.916 44.8948C131.606 44.704 131.365 44.4322 131.194 44.0795C131.023 43.7268 130.936 43.32 130.935 42.8629V42.6272C130.935 42.1574 131.019 41.7435 131.189 41.3872C131.358 41.0308 131.597 40.7555 131.907 40.5647C132.217 40.374 132.57 40.2786 132.968 40.2786C133.366 40.2786 133.719 40.374 134.028 40.5647C134.338 40.7555 134.578 41.0308 134.747 41.3872C134.916 41.7453 135.001 42.1574 135.001 42.6254V42.8377V42.8359ZM134.003 42.62C134.003 42.1196 133.913 41.7399 133.735 41.479C133.555 41.2198 133.299 41.0884 132.968 41.0884C132.636 41.0884 132.383 41.2162 132.204 41.4736C132.024 41.7309 131.934 42.107 131.932 42.602V42.8341C131.932 43.3218 132.022 43.6998 132.201 43.9679C132.379 44.2361 132.638 44.3711 132.975 44.3711C133.312 44.3711 133.558 44.2415 133.737 43.9823C133.913 43.7232 134.003 43.3452 134.005 42.8503V42.6182L134.003 42.62Z" fill="black"/>
<path d="M146.553 45.1129H145.57L143.654 41.9724V45.1129H142.67V40.3401H143.654L145.571 43.4859V40.3401H146.553V45.1129Z" fill="black"/>
<path d="M156.839 43.8618C156.839 43.6765 156.774 43.5343 156.642 43.4335C156.511 43.3327 156.275 43.2283 155.935 43.1186C155.594 43.0088 155.324 42.899 155.124 42.7928C154.582 42.4995 154.31 42.1053 154.31 41.6104C154.31 41.3531 154.382 41.1227 154.528 40.9211C154.674 40.7196 154.883 40.5612 155.155 40.4478C155.427 40.3344 155.733 40.2769 156.072 40.2769C156.41 40.2769 156.716 40.338 156.983 40.4622C157.249 40.5864 157.456 40.7592 157.604 40.9841C157.752 41.2091 157.826 41.4647 157.826 41.7508H156.842C156.842 41.533 156.774 41.3621 156.635 41.2415C156.497 41.1209 156.304 41.0597 156.055 41.0597C155.807 41.0597 155.629 41.1101 155.495 41.2127C155.362 41.3153 155.295 41.4485 155.295 41.614C155.295 41.7688 155.373 41.8984 155.53 42.0046C155.686 42.1089 155.917 42.2079 156.219 42.2997C156.779 42.4671 157.186 42.6758 157.442 42.926C157.698 43.1744 157.826 43.4857 157.826 43.8564C157.826 44.2686 157.669 44.5925 157.357 44.8283C157.044 45.064 156.624 45.181 156.095 45.181C155.728 45.181 155.393 45.1144 155.092 44.9794C154.791 44.8445 154.561 44.6609 154.402 44.4269C154.244 44.193 154.165 43.923 154.165 43.6135H155.151C155.151 44.1408 155.467 44.4035 156.097 44.4035C156.331 44.4035 156.513 44.3568 156.644 44.2614C156.776 44.166 156.84 44.0328 156.84 43.8636L156.839 43.8618Z" fill="black"/>
<defs>
<linearGradient id="paint0_linear_1107_2658" x1="22.1721" y1="6.7394" x2="172.07" y2="6.7394" gradientUnits="userSpaceOnUse">
<stop stop-color="#FBB03B"/>
<stop offset="1" stop-color="#FBB03B" stop-opacity="0"/>
</linearGradient>
<linearGradient id="paint1_linear_1107_2658" x1="0.0695801" y1="6.71992" x2="14.0543" y2="6.71992" gradientUnits="userSpaceOnUse">
<stop stop-color="#FBB03B" stop-opacity="0"/>
<stop offset="1" stop-color="#FBB03B"/>
</linearGradient>
</defs>
</svg>
