<svg width="24" height="24" viewBox="0 0 24 24" fill="none" xmlns="http://www.w3.org/2000/svg">
<path d="M15.6028 10.8692C15.573 10.851 10.4866 8.23493 10.4539 8.21707C10.0441 7.9805 9.55627 7.98123 9.14758 8.21707C8.73889 8.45364 8.49463 8.87625 8.49463 9.34866V14.6514C8.49463 15.1238 8.73889 15.5464 9.14758 15.783C9.35596 15.9031 9.58484 15.9617 9.80933 15.9617C10.0254 15.9617 10.2371 15.9075 10.4224 15.7998L15.6028 13.1309C16.0115 12.8943 16.2554 12.4717 16.2554 12C16.2554 11.5284 16.0115 11.1057 15.6028 10.8692Z" fill="#316FF6"/>
<path d="M19.4287 4.57544C19.1357 4.28247 18.6611 4.28247 18.3682 4.57544C18.0752 4.86841 18.0752 5.34302 18.3682 5.63599C20.0652 7.33301 20.9998 9.59326 20.9998 12C20.9998 14.4067 20.0652 16.667 18.3682 18.364C18.0752 18.657 18.0752 19.1316 18.3682 19.4246C18.5146 19.571 18.7065 19.6443 18.8984 19.6443C19.0903 19.6443 19.2822 19.571 19.4287 19.4246C21.4092 17.4448 22.4998 14.8081 22.4998 12C22.4998 9.19189 21.4092 6.55518 19.4287 4.57544Z" fill="#316FF6"/>
<path d="M17.2749 6.73022C16.9819 6.43726 16.5073 6.43726 16.2144 6.73022C15.9214 7.02319 15.9214 7.4978 16.2144 7.79077C18.5354 10.1118 18.5354 13.8882 16.2144 16.2092C15.9214 16.5022 15.9214 16.9768 16.2144 17.2698C16.3608 17.4163 16.5527 17.4895 16.7446 17.4895C16.9365 17.4895 17.1284 17.4163 17.2749 17.2698C18.6804 15.8643 19.4546 13.9929 19.4546 12C19.4546 10.0071 18.6804 8.13574 17.2749 6.73022Z" fill="#316FF6"/>
<path d="M5.63123 5.63599C5.92419 5.34302 5.92419 4.86841 5.63123 4.57544C5.33826 4.28247 4.86365 4.28247 4.57068 4.57544C2.59058 6.55518 1.5 9.19263 1.5 12C1.5 14.8074 2.59058 17.4448 4.57068 19.4246C4.71716 19.571 4.90906 19.6443 5.10095 19.6443C5.29285 19.6443 5.48474 19.571 5.63123 19.4246C5.92419 19.1316 5.92419 18.657 5.63123 18.364C2.12219 14.855 2.12219 9.14502 5.63123 5.63599Z" fill="#316FF6"/>
<path d="M7.78601 6.73022C7.49304 6.43726 7.01843 6.43726 6.72546 6.73022C5.31958 8.13574 4.54541 10.0071 4.54541 12C4.54541 13.9929 5.31958 15.8643 6.72546 17.2698C6.87195 17.4163 7.06384 17.4895 7.25574 17.4895C7.44763 17.4895 7.63953 17.4163 7.78601 17.2698C8.07898 16.9768 8.07898 16.5022 7.78601 16.2092C6.66357 15.0872 6.04541 13.5923 6.04541 12C6.04541 10.4077 6.66357 8.91284 7.78601 7.79077C8.07898 7.4978 8.07898 7.02319 7.78601 6.73022Z" fill="#316FF6"/>
</svg>
