<svg width="55" height="54" viewBox="0 0 55 54" fill="none" xmlns="http://www.w3.org/2000/svg">
<path d="M27.4648 0.0295067C42.8263 0.0295067 55 11.9213 55 26.9277C55 41.9341 42.8263 53.826 27.4648 53.826C12.1032 53.826 0 42.0046 0 26.9277C0 11.8509 12.1032 0.0295067 27.4648 0.0295067ZM27.4648 44.127C36.8085 44.127 44.1708 36.5534 44.1708 26.9277C44.1708 17.3021 36.8085 9.72843 27.4648 9.72843C18.121 9.72843 10.8292 17.3021 10.8292 26.9277C10.8292 36.5534 18.121 44.127 27.4648 44.127Z" fill="#316FF6"/>
<path d="M27.5 20C24.4686 20 22 22.3729 22 25.2863C22 29.4289 26.9821 33.7067 27.1962 33.8879C27.2825 33.9604 27.393 34 27.5 34C27.607 34 27.7175 33.9637 27.8038 33.8912C28.0144 33.71 33 29.4322 33 25.2895C33 22.3729 30.5314 20.0033 27.5 20.0033V20ZM27.5 28.1667C25.8151 28.1667 24.4444 26.8583 24.4444 25.25C24.4444 23.6417 25.8151 22.3333 27.5 22.3333C29.1849 22.3333 30.5556 23.6417 30.5556 25.25C30.5556 26.8583 29.1849 28.1667 27.5 28.1667Z" fill="#FF1010"/>
</svg>
