<svg width="168" height="49" viewBox="0 0 168 49" fill="none" xmlns="http://www.w3.org/2000/svg">
<path d="M3.68003 6.54396H4.29747C6.32876 6.54396 7.97751 8.19047 7.97751 10.224V40.1944H20.814C22.8453 40.1944 24.494 41.841 24.494 43.8745C24.494 45.9058 22.8475 47.5545 20.814 47.5545H3.68003C1.64874 47.5545 0 45.908 0 43.8745V10.224C0 8.1927 1.64651 6.54396 3.68003 6.54396Z" fill="black"/>
<path d="M118.425 6.54396H118.555C120.17 6.54396 121.622 7.53052 122.217 9.03385L133.367 37.2191L144.624 9.02267C145.221 7.52605 146.671 6.54396 148.282 6.54396C151.098 6.54396 153.002 9.41192 151.913 12.0092L137.978 45.1452C137.363 46.606 135.933 47.5567 134.347 47.5567H131.862C130.258 47.5567 128.815 46.5836 128.213 45.0982L114.777 11.9622C113.728 9.37389 115.631 6.54396 118.425 6.54396Z" fill="black"/>
<path d="M93.0765 5.70055C105.269 5.70055 114.931 15.1389 114.931 27.0492C114.931 38.9595 105.269 48.3979 93.0765 48.3979C80.8843 48.3979 71.2782 39.0155 71.2782 27.0492C71.2782 15.083 80.8843 5.70055 93.0765 5.70055ZM93.0765 40.7C100.493 40.7 106.336 34.6889 106.336 27.0492C106.336 19.4095 100.493 13.3984 93.0765 13.3984C85.6605 13.3984 79.8731 19.4095 79.8731 27.0492C79.8731 34.6889 85.6605 40.7 93.0765 40.7Z" fill="#316FF6"/>
<path d="M93.1037 22.2976C91.1395 22.2976 89.54 23.9083 89.54 25.8859C89.54 28.698 92.7681 31.6017 92.9068 31.7248C92.9628 31.774 93.0343 31.8008 93.1037 31.8008C93.173 31.8008 93.2446 31.7762 93.3006 31.727C93.437 31.604 96.6674 28.7002 96.6674 25.8882C96.6674 23.9083 95.0679 22.2998 93.1037 22.2998V22.2976ZM93.1037 27.8411C92.012 27.8411 91.1239 26.953 91.1239 25.8613C91.1239 24.7696 92.012 23.8815 93.1037 23.8815C94.1954 23.8815 95.0835 24.7696 95.0835 25.8613C95.0835 26.953 94.1954 27.8411 93.1037 27.8411Z" fill="#FF1010"/>
<path d="M46.2924 5.70057C58.4846 5.70057 68.1466 15.1389 68.1466 27.0492C68.1466 38.9596 58.4846 48.3979 46.2924 48.3979C34.1002 48.3979 24.494 39.0155 24.494 27.0492C24.494 15.083 34.1024 5.70057 46.2924 5.70057ZM46.2924 40.7C53.7084 40.7 59.5517 34.6889 59.5517 27.0492C59.5517 19.4095 53.7084 13.3984 46.2924 13.3984C38.8764 13.3984 33.089 19.4095 33.089 27.0492C33.089 34.6889 38.8764 40.7 46.2924 40.7Z" fill="#316FF6"/>
<path d="M46.3211 22.2976C44.3569 22.2976 42.7574 23.9083 42.7574 25.8859C42.7574 28.698 45.9855 31.6017 46.1242 31.7248C46.1801 31.774 46.2517 31.8008 46.3211 31.8008C46.3904 31.8008 46.462 31.7762 46.5179 31.727C46.6544 31.604 49.8848 28.7002 49.8848 25.8882C49.8848 23.9083 48.2852 22.2999 46.3211 22.2999V22.2976ZM46.3211 27.8412C45.2294 27.8412 44.3412 26.953 44.3412 25.8613C44.3412 24.7696 45.2294 23.8815 46.3211 23.8815C47.4128 23.8815 48.3009 24.7696 48.3009 25.8613C48.3009 26.953 47.4128 27.8412 46.3211 27.8412Z" fill="#FF1010"/>
<path d="M162.302 0.427685C159.154 0.427685 156.604 2.97798 156.604 6.12558C156.604 9.27319 159.154 11.8235 162.302 11.8235C165.45 11.8235 168 9.27319 168 6.12558C167.996 2.98022 165.447 0.432159 162.302 0.427685ZM162.302 11.253C159.47 11.253 157.175 8.95775 157.175 6.12558C157.175 3.29341 159.47 0.998146 162.302 0.998146C165.134 0.998146 167.43 3.29341 167.43 6.12558C167.427 8.95552 165.132 11.2508 162.302 11.253Z" fill="black"/>
<path d="M160.222 2.76101H162.432C162.894 2.76101 163.291 2.83224 163.623 2.97469C163.954 3.11714 164.209 3.32796 164.387 3.60717C164.566 3.88637 164.655 4.22967 164.655 4.63708C164.655 4.95901 164.599 5.23822 164.488 5.47468C164.376 5.71115 164.219 5.90916 164.015 6.0687C163.815 6.22824 163.578 6.3536 163.305 6.44477L162.946 6.6328H160.995L160.986 5.70545H162.445C162.681 5.70545 162.878 5.66272 163.034 5.57725C163.19 5.49178 163.307 5.37354 163.385 5.22255C163.465 5.07155 163.506 4.89919 163.506 4.70545C163.506 4.49748 163.467 4.31799 163.389 4.16699C163.311 4.01315 163.192 3.89491 163.034 3.81229C162.875 3.72967 162.674 3.68836 162.432 3.68836H161.371V8.98322H160.222V2.76101ZM163.656 8.98322L162.248 6.1969L163.464 6.19263L164.889 8.92339V8.98322H163.656Z" fill="black"/>
</svg>
