<svg width="140" height="140" viewBox="0 0 140 140" fill="none" xmlns="http://www.w3.org/2000/svg">
<path fill-rule="evenodd" clip-rule="evenodd" d="M84.4323 121.393V111.014H66.4347V121.393H84.4323ZM58.234 6.29077C51.8782 12.7395 39.3682 13.2823 28.3927 14.4603V39.062C39.3682 40.2402 51.8782 40.7904 58.234 47.2391V6.29077ZM24.5637 14.9177C15.1772 16.1889 7.73639 18.584 7.73639 26.7611C7.73639 34.9383 15.1774 37.3412 24.5637 38.6045V14.9177ZM37.1282 60.4626L32.5396 43.3328C29.2223 42.9995 25.8349 42.6894 22.5176 42.1778L27.4162 60.4623L37.1282 60.4626ZM62.0632 17.7702C65.5588 19.2585 68.016 22.7233 68.016 26.7614C68.016 30.7995 65.5588 34.2722 62.0632 35.7602V17.7702ZM49.1657 133.709H101.71V129.469C101.71 127.136 99.7951 125.222 97.4622 125.222H53.4056C51.0803 125.222 49.166 127.136 49.166 129.469V133.709H49.1657ZM29.6642 107.193H121.211C126.776 107.193 131.411 103.023 132.155 97.6517H18.7196C19.4559 103.023 24.0989 107.193 29.6642 107.193ZM132.264 93.8228V37.814C132.264 31.7371 127.288 26.7611 121.211 26.7611H71.8372C71.8372 32.9463 67.7138 38.1629 62.0632 39.8216V56.5716L55.5136 49.9289C51.3357 45.6969 42.7476 44.4413 36.6166 43.7591L42.1198 64.2915H24.4787L18.6113 42.3796V93.8228H132.264ZM121.312 45.1465C119.374 45.1465 118.397 47.5027 119.769 48.8669C121.141 50.2387 123.498 49.27 123.498 47.3244C123.498 46.123 122.521 45.1465 121.312 45.1465ZM66.613 81.4678H71.7519V68.5003H66.613V81.4678ZM73.6663 85.2967H64.6983C63.6442 85.2967 62.7837 84.4441 62.7837 83.3824V66.5859C62.7837 65.5318 63.644 64.6792 64.6983 64.6792H73.6663C74.7204 64.6792 75.5809 65.5318 75.5809 66.5859V83.3824C75.5809 84.4441 74.7206 85.2967 73.6663 85.2967ZM83.9905 81.4678H89.1294V55.5251H83.9905V81.4678ZM91.0438 85.2967H82.0758C81.0217 85.2967 80.1612 84.4441 80.1612 83.3824V53.6108C80.1612 52.5567 81.0215 51.7041 82.0758 51.7041H91.0438C92.0979 51.7041 92.9584 52.5567 92.9584 53.6108V83.3824C92.9584 84.4441 92.0981 85.2967 91.0438 85.2967ZM101.368 81.4678H106.507V68.5003H101.368V81.4678ZM108.421 85.2967H99.4533C98.3992 85.2967 97.5387 84.4441 97.5387 83.3824V66.5859C97.5387 65.5318 98.399 64.6792 99.4533 64.6792H108.421C109.475 64.6792 110.336 65.5318 110.336 66.5859V83.3824C110.336 84.4441 109.476 85.2967 108.421 85.2967ZM118.745 81.4678H123.884V59.6409H118.745V81.4678ZM125.799 85.2967H116.831C115.777 85.2967 114.916 84.4441 114.916 83.3824V57.7266C114.916 56.6725 115.776 55.8119 116.831 55.8119H125.799C126.853 55.8119 127.705 56.6722 127.705 57.7266V83.3824C127.705 84.4441 126.853 85.2967 125.799 85.2967ZM72.6037 51.2466L80.8508 45.0924C79.5796 41.2246 82.4554 37.2018 86.5632 37.2018C90.6711 37.2018 93.5392 41.2246 92.268 45.0924L100.515 51.2466C102.887 49.6033 106.088 49.8825 108.142 51.8977L115.366 48.2159C114.831 44.5728 117.645 41.3173 121.311 41.3173C126.652 41.3173 129.341 47.7972 125.566 51.5797C123.233 53.905 119.459 53.9282 117.11 51.6185L109.886 55.3003C110.421 58.9354 107.607 62.1986 103.933 62.1986C99.8331 62.1986 96.9574 58.1758 98.2286 54.308L89.9815 48.1538C87.9274 49.58 85.1914 49.58 83.1373 48.1538L74.8902 54.308C76.1614 58.1758 73.2856 62.1986 69.1855 62.1986C63.8449 62.1986 61.1554 55.7187 64.9302 51.9362C66.9843 49.8901 70.2163 49.5877 72.6037 51.2464V51.2466ZM69.1855 54.0059C67.2399 54.0059 66.2712 56.3621 67.643 57.7342C69.0072 59.0984 71.3634 58.1296 71.3634 56.1917C71.3634 54.9826 70.3867 54.0059 69.1855 54.0059ZM86.5632 41.0307C84.6177 41.0307 83.6489 43.3869 85.0131 44.7591C86.3849 46.1232 88.7414 45.1544 88.7414 43.2166C88.7414 42.0075 87.7647 41.0307 86.5635 41.0307H86.5632ZM103.933 54.0059C101.995 54.0059 101.026 56.3621 102.391 57.7342C103.762 59.0984 106.119 58.1296 106.119 56.1917C106.119 54.9826 105.142 54.0059 103.933 54.0059ZM54.2027 81.4678C55.2568 81.4678 56.1173 82.328 56.1173 83.3821C56.1173 84.4439 55.2571 85.2964 54.2027 85.2964H27.4154C26.3613 85.2964 25.5008 84.4439 25.5008 83.3821C25.5008 82.328 26.361 81.4678 27.4154 81.4678H54.2027ZM42.4135 73.1276C43.4676 73.1276 44.3281 73.9802 44.3281 75.042C44.3281 76.0961 43.4678 76.9487 42.4135 76.9487H27.4154C26.3613 76.9487 25.5008 76.0961 25.5008 75.042C25.5008 73.9802 26.361 73.1276 27.4154 73.1276H42.4135Z" fill="#826222"/>
</svg>
