<svg width="24" height="24" viewBox="0 0 24 24" fill="none" xmlns="http://www.w3.org/2000/svg">
<g clip-path="url(#clip0_1129_2261)">
<path d="M12.0001 5.37599C5.76005 5.37599 0.864055 11.136 0.672055 11.424C0.384055 11.808 0.384055 12.288 0.672055 12.672C0.864055 12.96 5.76005 18.72 12.0001 18.72C18.2401 18.72 23.0401 12.96 23.3281 12.672C23.6161 12.288 23.6161 11.808 23.3281 11.424C23.0401 11.136 18.2401 5.37599 12.0001 5.37599ZM12.0001 16.608C9.50405 16.608 7.39205 14.496 7.39205 12C7.39205 9.40799 9.50405 7.39199 12.0001 7.39199C14.5921 7.39199 16.6081 9.40799 16.6081 12C16.6081 14.496 14.5921 16.608 12.0001 16.608Z" fill="#316FF6"/>
<path d="M12.0002 9.79199H11.9042C12.0002 9.98399 12.0002 10.272 12.0002 10.464C12.0002 11.616 11.0402 12.576 9.88818 12.672C10.1762 13.632 11.1362 14.208 12.0002 14.208C13.2482 14.208 14.2082 13.248 14.2082 12C14.2082 10.752 13.2482 9.79199 12.0002 9.79199Z" fill="#316FF6"/>
<path d="M1.43998 17.376C0.86398 17.376 0.47998 17.76 0.47998 18.336V22.56C0.47998 23.136 0.86398 23.52 1.43998 23.52H5.66398C6.23998 23.52 6.62398 23.136 6.62398 22.56C6.62398 21.984 6.23998 21.6 5.66398 21.6H2.39998V18.336C2.39998 17.76 2.01598 17.376 1.43998 17.376Z" fill="#316FF6"/>
<path d="M1.43998 6.624C2.01598 6.624 2.39998 6.24 2.39998 5.664V2.4H5.66398C6.23998 2.4 6.62398 2.016 6.62398 1.44C6.62398 0.863996 6.23998 0.479996 5.66398 0.479996H1.43998C0.86398 0.479996 0.47998 0.863996 0.47998 1.44V5.664C0.47998 6.24 0.86398 6.624 1.43998 6.624Z" fill="#316FF6"/>
<path d="M22.56 6.624C23.136 6.624 23.52 6.24 23.52 5.664V1.44C23.52 0.863996 23.136 0.479996 22.56 0.479996H18.336C17.76 0.479996 17.376 0.863996 17.376 1.44C17.376 2.016 17.76 2.4 18.336 2.4H21.6V5.664C21.6 6.24 21.984 6.624 22.56 6.624Z" fill="#316FF6"/>
<path d="M22.56 23.52C23.136 23.52 23.52 23.136 23.52 22.56V18.336C23.52 17.76 23.136 17.376 22.56 17.376C21.984 17.376 21.6 17.76 21.6 18.336V21.6H18.336C17.76 21.6 17.376 21.984 17.376 22.56C17.376 23.136 17.76 23.52 18.336 23.52H22.56Z" fill="#316FF6"/>
</g>
<defs>
<clipPath id="clip0_1129_2261">
<rect width="24" height="24" fill="white"/>
</clipPath>
</defs>
</svg>
