<svg width="45" height="45" viewBox="0 0 45 45" fill="none" xmlns="http://www.w3.org/2000/svg">
<path d="M24.8255 22.0277C24.8255 22.1403 24.8189 22.2527 24.8056 22.3652L23.727 21.9483C22.6056 21.4993 21.5194 22.6256 21.9535 23.7019C22.1189 24.1322 22.2777 24.549 22.4365 24.9594C22.238 25.0057 22.0394 25.0255 21.8277 25.0255C20.1733 25.0255 18.83 23.6821 18.83 22.0277C18.83 20.3733 20.1733 19.0299 21.8277 19.0299C23.4821 19.0299 24.8255 20.3733 24.8255 22.0277Z" fill="#DBDBDB"/>
<path d="M20.5512 2.02706C10.6862 2.64618 2.65144 10.681 2.03232 20.5527C1.31906 31.7704 10.0066 41.1779 20.9685 41.6557C21.4396 41.6759 21.8298 41.2789 21.8298 40.8078V38.1364C21.8298 37.6854 21.4866 37.3018 21.0357 37.275C12.8732 36.8644 6.366 30.0948 6.366 21.8313C6.366 13.3053 13.2971 6.36074 21.8298 6.36074C30.1 6.36074 36.863 12.8747 37.2802 21.0372C37.3004 21.4814 37.6906 21.8313 38.1348 21.8313H40.8064C41.2841 21.8313 41.6744 21.4343 41.6543 20.9633C41.1832 10.008 31.7757 1.32053 20.5512 2.02706Z" fill="#DBDBDB"/>
<path d="M20.5377 10.5665C15.3495 11.1452 11.1505 15.3443 10.5718 20.5325C9.84503 27.0397 14.6699 32.6183 20.9012 33.123C21.3991 33.1633 21.8298 32.7798 21.8298 32.2751V29.5834C21.8298 29.1527 21.5068 28.7893 21.0761 28.7422C17.1731 28.3183 14.2258 24.6576 14.9996 20.5056C15.511 17.7332 17.7384 15.5057 20.5108 14.9943C24.6629 14.2273 28.3235 17.1679 28.7475 21.0709C28.7946 21.4747 29.1108 21.7909 29.5079 21.8245C29.5281 21.8313 29.555 21.8313 29.5819 21.8313H32.2804C32.7783 21.8313 33.1686 21.4006 33.1282 20.9026C32.6168 14.6646 27.045 9.8465 20.5377 10.5665Z" fill="#DBDBDB"/>
<path d="M20.554 2.02634C10.684 2.64886 2.65209 10.6807 2.02957 20.5507C1.32188 31.7712 10.008 41.1796 20.9653 41.6533C21.4401 41.6738 21.8322 41.2806 21.8322 40.8054V38.1343C21.8322 37.6845 21.4864 37.2992 21.0372 37.2764C12.8732 36.8615 6.36471 30.0947 6.36471 21.829C6.36471 13.304 13.2999 6.36148 21.8322 6.36148C30.0979 6.36148 36.8647 12.8769 37.2796 21.0346C37.3024 21.4835 37.6874 21.829 38.1369 21.829H40.8086C41.2838 21.829 41.6771 21.4368 41.6565 20.962C41.1828 10.0048 31.7744 1.31865 20.554 2.02634Z" fill="#DBDBDB"/>
<path d="M20.5372 10.5688C15.3463 11.1473 11.1505 15.3431 10.572 20.534C9.84678 27.0413 14.6687 32.616 20.9036 33.1238C21.4013 33.1644 21.8322 32.7767 21.8322 32.2773V29.5819C21.8322 29.15 21.5057 28.7918 21.0764 28.7452C17.1738 28.3216 14.2289 24.6568 14.9979 20.5067C15.5113 17.7355 17.7388 15.5081 20.51 14.9946C24.66 14.2257 28.3248 17.1705 28.7484 21.0731C28.795 21.5025 29.1533 21.829 29.5851 21.829H32.2805C32.7799 21.829 33.1676 21.3981 33.1271 20.9003C32.6193 14.6655 27.0445 9.84354 20.5372 10.5688Z" fill="#DBDBDB"/>
<path d="M42.8784 30.4386C42.8086 30.3829 43.8062 30.7791 23.3563 22.8681C23.0585 22.7489 22.7608 23.0467 22.8798 23.3445C30.4771 43.0316 30.3385 42.7561 30.4372 42.8799C30.6093 43.0916 30.9732 43.0519 31.0726 42.7673L34.0638 34.2901C34.1034 34.1843 34.1828 34.1048 34.2887 34.0652L42.7659 31.074C43.0599 30.968 43.0786 30.6079 42.8784 30.4386ZM28.6228 27.8136C28.5465 28.0107 28.3591 28.131 28.1601 28.131C28.1006 28.131 28.0399 28.1206 27.9811 28.0973L27.1377 27.771C26.8818 27.6721 26.7551 27.3845 26.854 27.1293C26.9529 26.8733 27.2404 26.7441 27.4957 26.8456L28.3391 27.1719C28.595 27.2708 28.7217 27.5584 28.6228 27.8136ZM36.3513 30.8039C36.2751 31.001 36.0877 31.1212 35.8886 31.1212C35.8292 31.1212 35.7684 31.1108 35.7096 31.0876L30.1053 28.9194C29.8494 28.8205 29.7227 28.5329 29.8216 28.2777C29.9205 28.0217 30.2074 27.8931 30.4633 27.9939L36.0676 30.1621C36.3236 30.261 36.4502 30.5486 36.3513 30.8039Z" fill="#DBDBDB"/>
</svg>
