<svg width="24" height="24" viewBox="0 0 24 24" fill="none" xmlns="http://www.w3.org/2000/svg">
<path d="M13.2406 11.7481C13.2406 11.8081 13.2371 11.8681 13.23 11.9281L12.6547 11.7058C12.0567 11.4663 11.4773 12.067 11.7088 12.641C11.7971 12.8705 11.8818 13.0928 11.9665 13.3117C11.8606 13.3364 11.7547 13.3469 11.6418 13.3469C10.7594 13.3469 10.043 12.6305 10.043 11.7481C10.043 10.8658 10.7594 10.1493 11.6418 10.1493C12.5241 10.1493 13.2406 10.8658 13.2406 11.7481Z" fill="#316FF6"/>
<path d="M10.9606 1.08115C5.69928 1.41135 1.41407 5.69657 1.08387 10.9615C0.703466 16.9443 5.3368 21.9616 11.1832 22.2165C11.4344 22.2272 11.6425 22.0155 11.6425 21.7642V20.3394C11.6425 20.0989 11.4595 19.8944 11.219 19.8801C6.86569 19.6611 3.39517 16.0506 3.39517 11.6434C3.39517 7.09622 7.09175 3.39245 11.6425 3.39245C16.0533 3.39245 19.6602 6.86656 19.8828 11.2199C19.8935 11.4568 20.1016 11.6434 20.3385 11.6434H21.7634C22.0182 11.6434 22.2263 11.4317 22.2156 11.1805C21.9643 5.33767 16.947 0.704342 10.9606 1.08115Z" fill="#316FF6"/>
<path d="M10.9535 5.63548C8.18644 5.94412 5.94695 8.18362 5.63831 10.9507C5.25072 14.4212 7.82396 17.3964 11.1473 17.6656C11.4129 17.6871 11.6426 17.4826 11.6426 17.2134V15.7778C11.6426 15.5481 11.4703 15.3543 11.2406 15.3292C9.15903 15.1031 7.58712 13.1507 7.99981 10.9363C8.27257 9.45771 9.46053 8.26975 10.9391 7.99698C13.1536 7.58788 15.1059 9.1562 15.332 11.2378C15.3571 11.4532 15.5258 11.6218 15.7376 11.6398C15.7484 11.6434 15.7627 11.6434 15.7771 11.6434H17.2162C17.4818 11.6434 17.6899 11.4137 17.6684 11.1481C17.3957 7.82113 14.424 5.25148 10.9535 5.63548Z" fill="#316FF6"/>
<path d="M10.9622 1.08074C5.69824 1.41275 1.41458 5.69641 1.08257 10.9604C0.705133 16.9446 5.33775 21.9625 11.1816 22.2151C11.4348 22.2261 11.644 22.0163 11.644 21.7629V20.3383C11.644 20.0984 11.4596 19.8929 11.22 19.8807C6.86586 19.6595 3.39464 16.0505 3.39464 11.6422C3.39464 7.09548 7.09342 3.39281 11.644 3.39281C16.0523 3.39281 19.6613 6.86768 19.8826 11.2185C19.8948 11.4579 20.1001 11.6422 20.3398 11.6422H21.7647C22.0182 11.6422 22.2279 11.433 22.217 11.1798C21.9643 5.33592 16.9465 0.703302 10.9622 1.08074Z" fill="#316FF6"/>
<path d="M10.9534 5.63671C8.18496 5.94525 5.94721 8.18301 5.63866 10.9515C5.25187 14.4221 7.82359 17.3952 11.1488 17.6661C11.4143 17.6877 11.6441 17.4809 11.6441 17.2146V15.777C11.6441 15.5467 11.47 15.3557 11.241 15.3308C9.15961 15.1049 7.58902 13.1503 7.99912 10.937C8.27297 9.45899 9.46094 8.27102 10.9389 7.99717C13.1523 7.58706 15.1068 9.15765 15.3328 11.239C15.3576 11.468 15.5487 11.6422 15.779 11.6422H17.2165C17.4829 11.6422 17.6897 11.4123 17.668 11.1469C17.3972 7.82164 14.424 5.24992 10.9534 5.63671Z" fill="#316FF6"/>
<path d="M22.8687 16.234C22.8315 16.2043 23.3635 16.4155 12.4569 12.1964C12.2981 12.1328 12.1393 12.2916 12.2028 12.4505C16.2547 22.9502 16.1808 22.8033 16.2334 22.8693C16.3252 22.9822 16.5193 22.9611 16.5723 22.8093L18.1676 18.2881C18.1887 18.2316 18.2311 18.1893 18.2875 18.1681L22.8087 16.5728C22.9655 16.5163 22.9755 16.3242 22.8687 16.234ZM15.2657 14.834C15.225 14.9391 15.1251 15.0032 15.0189 15.0032C14.9872 15.0032 14.9548 14.9977 14.9235 14.9853L14.4737 14.8112C14.3372 14.7585 14.2696 14.6051 14.3224 14.469C14.3751 14.3325 14.5285 14.2636 14.6646 14.3177L15.1144 14.4917C15.2509 14.5445 15.3184 14.6978 15.2657 14.834ZM19.3876 16.4288C19.3469 16.5339 19.247 16.598 19.1408 16.598C19.1091 16.598 19.0767 16.5925 19.0454 16.5801L16.0564 15.4237C15.9199 15.371 15.8523 15.2176 15.9051 15.0815C15.9578 14.945 16.1108 14.8764 16.2473 14.9301L19.2363 16.0865C19.3728 16.1392 19.4403 16.2926 19.3876 16.4288Z" fill="#316FF6"/>
</svg>
