<svg width="76" height="41" viewBox="0 0 76 41" fill="none" xmlns="http://www.w3.org/2000/svg">
<path d="M4.87957 27.1098L4.97448 32.2776C4.17879 32.3417 3.40626 32.1887 2.81634 31.8504C2.22642 31.5121 1.86415 31.0141 1.80431 30.4593C1.31738 27.9279 0.783945 25.3462 1.02328 22.774C1.28537 19.9351 3.47886 19.0983 7.11082 20.0504C10.337 20.9075 13.5241 21.837 16.7118 22.772C17.6969 23.0634 18.9202 23.2688 18.4768 24.5367C16.2343 25.2394 14.422 24.2494 12.4918 23.9196C10.5616 23.5898 8.53588 23.0756 5.88423 22.5054C6.66649 23.6136 7.05812 24.2995 7.60174 24.9158C12.8192 30.809 19.9275 35.056 29.738 36.8871C34.1625 37.789 38.9623 37.795 43.6206 36.9044C50.6758 35.4846 54.3881 32.5994 55.3637 27.572C55.7735 25.461 55.4811 23.326 55.5051 21.1512C53.8285 21.1768 52.7069 21.2055 51.5825 21.2121C46.1144 21.254 42.774 19.2327 40.9075 15.8926C40.1622 14.5665 39.8488 13.0963 41.6279 11.8401C43.407 10.584 45.4105 10.6015 47.4075 10.951C50.4152 11.4765 52.6139 12.8556 54.4211 14.5084C55.601 15.5835 56.5489 16.7944 57.6843 18.0266C59.8312 17.97 61.4426 16.9145 63.057 16.0101C67.1701 13.6918 69.5361 10.5829 71.1945 7.21508C72.3421 4.8991 73.3748 2.56388 74.5202 0.102263C76.069 1.49013 76.1034 2.14799 73.0713 7.75924C71.8353 10.2594 70.0401 12.6351 67.7583 14.7907C65.3433 16.9349 61.9451 18.5461 58.3515 20.7767C58.4903 21.8816 58.8727 23.517 58.9069 25.1963C58.9143 32.7376 52.8743 37.8851 42.2783 39.5255C35.3081 40.5979 28.8527 39.8828 22.7418 38.0077C16.4989 36.0991 11.2429 32.9978 7.51517 29.0233L5.51381 26.9123L4.87957 27.1098ZM53.8097 18.7885C51.6815 14.6451 47.6736 12.5562 43.7403 13.5556C44.2606 17.6317 48.3274 19.7413 53.8097 18.7885Z" fill="white"/>
</svg>
