<svg width="24" height="24" viewBox="0 0 24 24" fill="none" xmlns="http://www.w3.org/2000/svg">
<path d="M19.7561 2.07111L22.85 18.4053C22.9685 19.0309 22.557 19.6348 21.9313 19.7533L5.59718 22.8473C4.96632 22.9668 4.36244 22.5552 4.24393 21.9296L1.14998 5.5954C1.03147 4.96974 1.44301 4.36586 2.07386 4.24637L18.408 1.15242C19.0337 1.03391 19.6376 1.44545 19.7561 2.07111Z" fill="#C2C2EF"/>
<path d="M21.4689 3.68843V20.3118C21.4689 20.9503 20.9527 21.4666 20.3142 21.4666H3.6908C3.04776 21.4666 2.53159 20.9503 2.53159 20.3118V3.68843C2.53159 3.04995 3.04776 2.53372 3.6908 2.53372H20.3142C20.9527 2.53372 21.4689 3.04996 21.4689 3.68843Z" fill="#E4E3FF"/>
<path d="M21.4689 3.68844V20.3118C21.4689 20.9504 20.9527 21.4666 20.3142 21.4666H3.6908C3.1383 21.4666 2.67646 21.0817 2.55872 20.57C2.64479 20.5881 2.7308 20.5971 2.82135 20.5971H19.4447C20.0832 20.5971 20.5995 20.0809 20.5995 19.4424V2.81901C20.5995 2.73297 20.5904 2.64694 20.5677 2.56543C21.084 2.67864 21.4689 3.136 21.4689 3.68844Z" fill="#D0D0F7"/>
<path d="M18.1532 4.46731V6.64996C18.1532 6.95788 17.9041 7.20693 17.5962 7.20693H5.00754C4.69959 7.20693 4.45057 6.95788 4.45057 6.64996V4.46731C4.45057 4.15939 4.69959 3.91034 5.00754 3.91034H17.5962C17.9041 3.91034 18.1532 4.15939 18.1532 4.46731Z" fill="#A2A2F9"/>
<path d="M18.1532 4.46731V6.64996C18.1532 6.95788 17.9041 7.20693 17.5962 7.20693H5.00754C4.69959 7.20693 4.45057 6.95788 4.45057 6.64996V6.36014H16.7494C17.0573 6.36014 17.3064 6.11109 17.3064 5.80317V3.91034H17.5962C17.9041 3.91034 18.1532 4.15939 18.1532 4.46731Z" fill="#7979F7"/>
<path d="M17.5577 8.71715C17.5577 8.92093 17.3947 9.08394 17.1909 9.08394H10.3894C10.1902 9.08394 10.0272 8.92093 10.0272 8.71715C10.0272 8.5179 10.1902 8.35489 10.3894 8.35489H17.1909C17.3947 8.35489 17.5577 8.5179 17.5577 8.71715Z" fill="#D0D0F7"/>
<path d="M17.5577 10.8048C17.5577 11.0086 17.3947 11.1716 17.1909 11.1716H10.3894C10.1902 11.1716 10.0272 11.0086 10.0272 10.8048C10.0272 10.6056 10.1902 10.4426 10.3894 10.4426H17.1909C17.3947 10.4426 17.5577 10.6056 17.5577 10.8048Z" fill="#D0D0F7"/>
<path d="M12.5766 12.8925C12.5766 13.0963 12.4136 13.2593 12.2098 13.2593H5.40827C5.20906 13.2593 5.04604 13.0963 5.04604 12.8925C5.04604 12.6933 5.20906 12.5302 5.40827 12.5302H12.2098C12.4136 12.5302 12.5766 12.6933 12.5766 12.8925Z" fill="#D0D0F7"/>
<path d="M12.5766 14.9802C12.5766 15.184 12.4136 15.347 12.2098 15.347H5.40827C5.20906 15.347 5.04604 15.184 5.04604 14.9802C5.04604 14.7809 5.20906 14.6179 5.40827 14.6179H12.2098C12.4136 14.6179 12.5766 14.7809 12.5766 14.9802Z" fill="#D0D0F7"/>
<path d="M12.5766 17.1948C12.5766 17.3986 12.4136 17.5616 12.2098 17.5616H5.40827C5.20906 17.5616 5.04604 17.3986 5.04604 17.1948C5.04604 16.9955 5.20906 16.8325 5.40827 16.8325H12.2098C12.4136 16.8325 12.5766 16.9955 12.5766 17.1948Z" fill="#D0D0F7"/>
<path d="M12.5766 19.2825C12.5766 19.4862 12.4136 19.6492 12.2098 19.6492H5.40827C5.20906 19.6492 5.04604 19.4862 5.04604 19.2825C5.04604 19.0832 5.20906 18.9202 5.40827 18.9202H12.2098C12.4136 18.9202 12.5766 19.0832 12.5766 19.2825Z" fill="#D0D0F7"/>
<path d="M18.6071 13.053V19.13C18.6071 19.4153 18.3716 19.6507 18.0862 19.6507H14.3142C14.0244 19.6507 13.7934 19.4153 13.7934 19.13V13.053C13.7934 12.7632 14.0244 12.5322 14.3142 12.5322H18.0862C18.3716 12.5322 18.6071 12.7632 18.6071 13.053Z" fill="#A2A2F9"/>
<path d="M18.6071 13.053V19.13C18.6071 19.4153 18.3716 19.6507 18.0862 19.6507H14.3142C14.0244 19.6507 13.7934 19.4153 13.7934 19.13V19.0847H17.5202C17.8055 19.0847 18.041 18.8492 18.041 18.5639V12.5322H18.0862C18.3716 12.5322 18.6071 12.7632 18.6071 13.053Z" fill="#7979F7"/>
<path d="M8.32325 8.95486V11.0334C8.32325 11.3639 8.05156 11.6311 7.721 11.6311H5.64701C5.31645 11.6311 5.04476 11.3639 5.04476 11.0334V8.95486C5.04476 8.6243 5.31645 8.35715 5.64701 8.35715H7.721C8.05156 8.35715 8.32325 8.6243 8.32325 8.95486Z" fill="#F9B938"/>
<path d="M8.32325 8.95487V11.0334C8.32325 11.3639 8.05156 11.6311 7.721 11.6311H5.64701C5.32551 11.6311 5.0583 11.3775 5.04929 11.056C5.0583 11.0605 5.06737 11.0605 5.07643 11.0605H7.15043C7.48099 11.0605 7.75268 10.7934 7.75268 10.4628V8.38433C7.75268 8.37526 7.75268 8.37073 7.74814 8.36166C8.06516 8.37073 8.32325 8.63338 8.32325 8.95487Z" fill="#ECB021"/>
<g opacity="0.5">
<path d="M5.3623 3.26579C5.3623 3.09803 5.49839 2.96194 5.66615 2.96194H8.95427C9.12202 2.96194 9.25811 3.09803 9.25811 3.26579C9.25811 3.43354 9.12202 3.56963 8.95427 3.56963H5.66615C5.49839 3.56963 5.3623 3.43354 5.3623 3.26579Z" fill="white"/>
<path d="M9.68962 3.26579C9.68962 3.09803 9.82571 2.96194 9.99346 2.96194H10.5408C10.7085 2.96194 10.8446 3.09803 10.8446 3.26579C10.8446 3.43354 10.7085 3.56963 10.5408 3.56963H9.99346C9.82571 3.56963 9.68962 3.43354 9.68962 3.26579Z" fill="white"/>
</g>
<g opacity="0.3">
<path d="M5.04929 4.95524C5.04929 4.78748 5.18538 4.6514 5.35313 4.6514H8.64125C8.80901 4.6514 8.94509 4.78748 8.94509 4.95524C8.94509 5.12299 8.80901 5.25908 8.64125 5.25908H5.35313C5.18538 5.25908 5.04929 5.12299 5.04929 4.95524Z" fill="white"/>
<path d="M9.37661 4.95524C9.37661 4.78748 9.5127 4.6514 9.68045 4.6514H10.2278C10.3955 4.6514 10.5316 4.78748 10.5316 4.95524C10.5316 5.12299 10.3955 5.25908 10.2278 5.25908H9.68045C9.5127 5.25908 9.37661 5.12299 9.37661 4.95524Z" fill="white"/>
</g>
<g opacity="0.3">
<path d="M14.0814 22.0267C14.0814 21.9158 14.1713 21.8259 14.2822 21.8259H16.4554C16.5662 21.8259 16.6562 21.9158 16.6562 22.0267C16.6562 22.1376 16.5662 22.2275 16.4554 22.2275H14.2822C14.1713 22.2275 14.0814 22.1376 14.0814 22.0267Z" fill="white"/>
<path d="M16.9414 22.0267C16.9414 21.9158 17.0313 21.8259 17.1422 21.8259H17.5039C17.6148 21.8259 17.7048 21.9158 17.7048 22.0267C17.7048 22.1376 17.6148 22.2275 17.5039 22.2275H17.1422C17.0313 22.2275 16.9414 22.1376 16.9414 22.0267Z" fill="white"/>
</g>
<g opacity="0.5">
<path d="M3.38414 6.62039C3.6007 6.62039 3.77637 6.79606 3.77637 7.01262V11.2572C3.77637 11.4738 3.6007 11.6495 3.38414 11.6495C3.16758 11.6495 2.99191 11.4738 2.99191 11.2572V7.01262C2.99191 6.79606 3.16758 6.62039 3.38414 6.62039Z" fill="white"/>
<path d="M3.38414 12.2065C3.6007 12.2065 3.77637 12.3822 3.77637 12.5987V13.3053C3.77637 13.5218 3.6007 13.6975 3.38414 13.6975C3.16758 13.6975 2.99191 13.5218 2.99191 13.3053V12.5987C2.99191 12.3822 3.16758 12.2065 3.38414 12.2065Z" fill="white"/>
</g>
</svg>
