<svg width="175" height="44" viewBox="0 0 175 44" fill="none" xmlns="http://www.w3.org/2000/svg">
<g clip-path="url(#clip0_1008_5494)">
<path d="M68.969 15.7013H74.4917V33.0728H68.969V15.7013Z" fill="#E60023"/>
<mask id="mask0_1008_5494" style="mask-type:luminance" maskUnits="userSpaceOnUse" x="0" y="0" width="175" height="44">
<path d="M0.0893555 0.277912H174.939V43.0676H0.0893555V0.277912Z" fill="white"/>
</mask>
<g mask="url(#mask0_1008_5494)">
<path d="M75.6449 15.7013H80.9642V18.0763H81.0658C82.3533 16.2102 84.0134 15.1925 86.4191 15.1925C90.2137 15.1925 92.4498 17.9067 92.4498 21.7746V33.0728H86.9273V22.8943C86.9273 21.062 86.0125 19.8066 84.2168 19.8066C82.3873 19.8066 81.1675 21.3335 81.1675 23.4709V33.0728H75.6449V15.7013Z" fill="#E60023"/>
<path d="M75.0431 11.0539C75.0431 9.22161 73.5599 7.73646 71.7304 7.73646C69.9008 7.73646 68.4176 9.22161 68.4176 11.0539C68.4176 12.8859 69.9008 14.3711 71.7304 14.3711C73.5599 14.3711 75.0431 12.8859 75.0431 11.0539Z" fill="#E60023"/>
<path d="M131.291 15.4506C131.134 15.4364 130.953 15.43 130.742 15.43C128.641 15.43 127.218 16.3461 125.998 18.4157H125.897V15.7015H120.611V33.0728H126.134V25.2693C126.134 21.6535 128.133 19.9781 131.291 20.2704V15.4506Z" fill="#E60023"/>
<path d="M158.393 22.1138C156.19 21.7068 154.225 21.5372 154.225 20.3158C154.225 19.23 155.276 18.7211 156.631 18.7211C158.155 18.7211 159.206 19.1961 159.409 20.7569H164.491C164.22 17.3301 161.578 15.1925 156.665 15.1925C152.565 15.1925 149.177 17.0926 149.177 20.7569C149.177 24.8281 152.396 25.6425 155.411 26.1515C157.715 26.5587 159.816 26.7283 159.816 28.2889C159.816 29.4086 158.765 30.0193 157.105 30.0193C155.44 30.0193 154.338 29.3136 154 27.8819H148.738C149.125 31.453 152.255 33.6157 157.139 33.6157C161.679 33.6157 165.033 31.6479 165.033 27.848C165.033 23.4032 161.442 22.6229 158.393 22.1138Z" fill="#E60023"/>
<path d="M139.858 19.1281C141.654 19.1281 142.941 20.4513 143.145 22.5212H136.301C136.673 20.4513 137.758 19.1281 139.858 19.1281ZM140.163 29.6119C137.893 29.6119 136.606 28.1531 136.267 25.812H148.735C148.769 22.2836 147.753 19.2638 145.686 17.364C144.195 16.0069 142.23 15.1925 139.756 15.1925C134.471 15.1925 130.846 19.162 130.846 24.3532C130.846 29.6119 134.369 33.5818 140.095 33.5818C142.297 33.5818 144.059 33.005 145.516 31.9871C147.041 30.9353 148.057 29.4425 148.43 27.8819H143.043C142.568 28.9675 141.62 29.6119 140.163 29.6119Z" fill="#E60023"/>
<path d="M174.76 28.9765C174.504 28.9866 174.16 29.0015 173.845 29.0015C172.659 29.0015 171.914 28.6621 171.914 27.305V19.1621H174.76V15.7014H171.914V10.205H166.526V15.7014H164.831V19.1621H166.526V28.4925C166.526 32.2248 168.83 33.2764 172.049 33.2764C173.277 33.2764 174.205 33.1843 174.76 33.0759V28.9765Z" fill="#E60023"/>
<path d="M102.312 28.9844C102.092 28.9929 101.838 29.0015 101.6 29.0015C100.414 29.0015 99.6689 28.6621 99.6689 27.305V19.1621H102.312V15.7014H99.6689V10.205H94.2818V15.7014H92.4855V19.1621H94.2818V28.4925C94.2818 32.2248 96.5856 33.2764 99.8044 33.2764C100.893 33.2764 101.746 33.2038 102.312 33.1119V28.9844Z" fill="#E60023"/>
<path d="M114.342 22.5212C114.138 20.4515 112.851 19.1281 111.055 19.1281C108.954 19.1281 107.87 20.4515 107.497 22.5212H114.342ZM102.043 24.3532C102.043 19.1622 105.668 15.1926 110.953 15.1926C113.427 15.1926 115.392 16.0069 116.883 17.364C118.949 19.264 119.966 22.2836 119.932 25.8122H107.464C107.802 28.1531 109.09 29.6121 111.36 29.6121C112.817 29.6121 113.766 28.9675 114.24 27.8819H119.627C119.254 29.4425 118.238 30.9353 116.713 31.9873C115.256 33.005 113.494 33.5818 111.292 33.5818C105.566 33.5818 102.043 29.6121 102.043 24.3532Z" fill="#E60023"/>
<path d="M59.3782 20.2139C61.5467 20.2139 62.7663 18.9246 62.7663 16.9905C62.7663 15.0567 61.5127 13.8692 59.3782 13.8692H55.1429V20.2139H59.3782ZM49.5518 8.81389H59.142C62.0895 8.81389 64.258 9.6281 65.7487 11.0532C67.3073 12.512 68.1882 14.5818 68.1882 17.0246C68.1882 21.6727 64.9695 24.9639 59.9889 24.9639H55.1429V33.0728H49.5518V8.81389Z" fill="#E60023"/>
<path d="M41.9706 21.6727C41.9706 33.2044 32.6354 42.5527 21.1199 42.5527C9.60441 42.5527 0.269165 33.2044 0.269165 21.6727C0.269165 10.1409 9.60441 0.792713 21.1199 0.792713C32.6354 0.792713 41.9706 10.1409 41.9706 21.6727Z" fill="white"/>
<path d="M21.1197 0.792469C9.60417 0.792469 0.268921 10.1408 0.268921 21.6725C0.268921 30.5183 5.76482 38.0803 13.5211 41.1226C13.3389 39.4706 13.1741 36.9299 13.5934 35.1264C13.9723 33.4968 16.0384 24.7477 16.0384 24.7477C16.0384 24.7477 15.4147 23.4969 15.4147 21.6477C15.4147 18.7443 17.0952 16.5767 19.1876 16.5767C20.9665 16.5767 21.8257 17.9142 21.8257 19.5179C21.8257 21.3095 20.6867 23.9879 20.0989 26.4701C19.6077 28.5483 21.1397 30.2431 23.1866 30.2431C26.8924 30.2431 29.7411 26.3301 29.7411 20.6816C29.7411 15.6823 26.1539 12.1869 21.0316 12.1869C15.0989 12.1869 11.6166 16.643 11.6166 21.2482C11.6166 23.0428 12.3069 24.9671 13.1683 26.0132C13.3387 26.22 13.3637 26.4011 13.3129 26.6121C13.1547 27.2716 12.8029 28.6898 12.7339 28.9801C12.6429 29.3623 12.4317 29.4434 12.0365 29.2593C9.43239 28.0454 7.80422 24.2327 7.80422 21.1703C7.80422 14.5838 12.5831 8.53484 21.5811 8.53484C28.8142 8.53484 34.4353 13.6963 34.4353 20.5942C34.4353 27.7902 29.9044 33.5815 23.6156 33.5815C21.5027 33.5815 19.5164 32.4824 18.8365 31.184C18.8365 31.184 17.791 35.1706 17.5375 36.1476C17.0668 37.9612 15.796 40.2345 14.9461 41.6214C16.8969 42.2263 18.9702 42.5525 21.1197 42.5525C32.6353 42.5525 41.9706 33.2041 41.9706 21.6725C41.9706 10.1408 32.6353 0.792469 21.1197 0.792469Z" fill="#E60023"/>
</g>
</g>
<defs>
<clipPath id="clip0_1008_5494">
<rect width="174.85" height="42.7897" fill="white" transform="translate(0.0893555 0.277832)"/>
</clipPath>
</defs>
</svg>
