<svg width="45" height="45" viewBox="0 0 45 45" fill="none" xmlns="http://www.w3.org/2000/svg">
<path d="M29.2553 20.3797C29.1995 20.3455 19.6624 15.4405 19.601 15.407C18.8327 14.9634 17.9181 14.9648 17.1518 15.407C16.3855 15.8506 15.9275 16.643 15.9275 17.5287V27.4714C15.9275 28.3571 16.3855 29.1495 17.1518 29.5931C17.5425 29.8183 17.9716 29.9282 18.3925 29.9282C18.7977 29.9282 19.1945 29.8265 19.542 29.6247L29.2553 24.6204C30.0216 24.1768 30.4789 23.3844 30.4789 22.5C30.4789 21.6156 30.0216 20.8233 29.2553 20.3797Z" fill="#DBDBDB"/>
<path d="M36.4293 8.57898C35.88 8.02966 34.9901 8.02966 34.4408 8.57898C33.8915 9.1283 33.8915 10.0182 34.4408 10.5675C37.6227 13.7494 39.375 17.9874 39.375 22.5C39.375 27.0127 37.6227 31.2506 34.4408 34.4326C33.8915 34.9819 33.8915 35.8718 34.4408 36.4211C34.7155 36.6957 35.0753 36.8331 35.4351 36.8331C35.7949 36.8331 36.1547 36.6957 36.4293 36.4211C40.1427 32.7091 42.1875 27.7652 42.1875 22.5C42.1875 17.2348 40.1427 12.291 36.4293 8.57898Z" fill="#DBDBDB"/>
<path d="M32.3905 12.6191C31.8412 12.0698 30.9513 12.0698 30.402 12.6191C29.8527 13.1685 29.8527 14.0583 30.402 14.6077C34.7539 18.9596 34.7539 26.0403 30.402 30.3923C29.8527 30.9416 29.8527 31.8315 30.402 32.3808C30.6766 32.6555 31.0364 32.7928 31.3962 32.7928C31.756 32.7928 32.1158 32.6555 32.3905 32.3808C35.0258 29.7455 36.4774 26.2367 36.4774 22.5C36.4774 18.7632 35.0258 15.2545 32.3905 12.6191Z" fill="#DBDBDB"/>
<path d="M10.5585 10.5675C11.1079 10.0182 11.1079 9.1283 10.5585 8.57898C10.0092 8.02966 9.11934 8.02966 8.57002 8.57898C4.85733 12.291 2.8125 17.2362 2.8125 22.5C2.8125 27.7639 4.85733 32.7091 8.57002 36.4211C8.84468 36.6957 9.20448 36.8331 9.56429 36.8331C9.92409 36.8331 10.2839 36.6957 10.5585 36.4211C11.1079 35.8718 11.1079 34.9819 10.5585 34.4326C3.97911 27.8531 3.97911 17.1469 10.5585 10.5675Z" fill="#DBDBDB"/>
<path d="M14.5988 12.6191C14.0495 12.0698 13.1596 12.0698 12.6103 12.6191C9.97427 15.2545 8.52271 18.7632 8.52271 22.5C8.52271 26.2367 9.97427 29.7455 12.6103 32.3808C12.885 32.6555 13.2448 32.7928 13.6046 32.7928C13.9644 32.7928 14.3242 32.6555 14.5988 32.3808C15.1481 31.8315 15.1481 30.9416 14.5988 30.3923C12.4943 28.2884 11.3352 25.4855 11.3352 22.5C11.3352 19.5144 12.4943 16.7115 14.5988 14.6077C15.1481 14.0583 15.1481 13.1685 14.5988 12.6191Z" fill="#DBDBDB"/>
</svg>
