<svg width="24" height="24" viewBox="0 0 24 24" fill="none" xmlns="http://www.w3.org/2000/svg">
<path d="M23.2467 3.87183H15.6019C15.1861 3.87183 14.8486 4.20886 14.8486 4.62511V6.14667C14.8486 6.56245 15.1861 6.89995 15.6019 6.89995H18.8311L12.2236 13.507L9.42234 10.7057C8.83078 10.1146 7.87219 10.1146 7.28063 10.7057L0.220781 17.7665C-0.0735938 18.0604 -0.0735938 18.5376 0.220781 18.8315L1.29656 19.9078C1.59047 20.2017 2.06766 20.2017 2.36156 19.9078L8.35172 13.9176L11.1525 16.7189C11.744 17.3106 12.7027 17.3108 13.2942 16.7189L20.9719 9.0412V12.2704C20.9719 12.6862 21.3089 13.0237 21.7252 13.0237H23.2467C23.663 13.0237 24 12.6862 24 12.2704V4.62511C24 4.20886 23.663 3.87183 23.2467 3.87183Z" fill="#316FF6"/>
</svg>
