<svg width="28" height="28" viewBox="0 0 28 28" fill="none" xmlns="http://www.w3.org/2000/svg">
<g clip-path="url(#clip0_1008_2536)">
<path d="M3.28125 8.23047C3.28125 8.83455 3.77092 9.32422 4.375 9.32422C4.97908 9.32422 5.46875 8.83455 5.46875 8.23047V5.49609H8.14844C8.75252 5.49609 9.24219 5.00642 9.24219 4.40234C9.24219 3.79827 8.75252 3.30859 8.14844 3.30859H5.46875V1.12109C5.46875 0.517016 4.97908 0.0273438 4.375 0.0273438C3.77092 0.0273438 3.28125 0.517016 3.28125 1.12109V3.30859H1.09375C0.489672 3.30859 0 3.79827 0 4.40234C0 5.00642 0.489672 5.49609 1.09375 5.49609H3.28125V8.23047Z" fill="#316FF6"/>
<path d="M23.625 11.5117C23.0209 11.5117 22.5312 12.0014 22.5312 12.6055V15.4492C22.5312 16.0533 23.0209 16.543 23.625 16.543C24.2291 16.543 24.7188 16.0533 24.7188 15.4492V12.6055C24.7188 12.0014 24.2291 11.5117 23.625 11.5117Z" fill="#316FF6"/>
<path d="M19.7969 5.49609H20.3438C21.5499 5.49609 22.5312 6.47741 22.5312 7.68359V8.23047C22.5312 8.83455 23.0209 9.32422 23.625 9.32422C24.2291 9.32422 24.7188 8.83455 24.7188 8.23047V7.68359C24.7188 5.27122 22.7561 3.30859 20.3438 3.30859H19.7969C19.1928 3.30859 18.7031 3.79827 18.7031 4.40234C18.7031 5.00642 19.1928 5.49609 19.7969 5.49609Z" fill="#316FF6"/>
<path d="M4.375 11.5117C3.77092 11.5117 3.28125 12.0014 3.28125 12.6055V15.4492C3.28125 16.0533 3.77092 16.543 4.375 16.543C4.97908 16.543 5.46875 16.0533 5.46875 15.4492V12.6055C5.46875 12.0014 4.97908 11.5117 4.375 11.5117Z" fill="#316FF6"/>
<path d="M8.20312 22.5039H7.65625C6.45006 22.5039 5.46875 21.5226 5.46875 20.3164V19.8242C5.46875 19.2201 4.97908 18.7305 4.375 18.7305C3.77092 18.7305 3.28125 19.2201 3.28125 19.8242V20.3164C3.28125 22.7288 5.24388 24.6914 7.65625 24.6914H8.20312C8.8072 24.6914 9.29688 24.2017 9.29688 23.5977C9.29688 22.9936 8.8072 22.5039 8.20312 22.5039Z" fill="#316FF6"/>
<path d="M26.9062 22.5039H24.7188V19.8242C24.7188 19.2201 24.2291 18.7305 23.625 18.7305C23.0209 18.7305 22.5312 19.2201 22.5312 19.8242V22.5039H19.7969C19.1928 22.5039 18.7031 22.9936 18.7031 23.5977C18.7031 24.2017 19.1928 24.6914 19.7969 24.6914H22.5312V26.8789C22.5312 27.483 23.0209 27.9727 23.625 27.9727C24.2291 27.9727 24.7188 27.483 24.7188 26.8789V24.6914H26.9062C27.5103 24.6914 28 24.2017 28 23.5977C28 22.9936 27.5103 22.5039 26.9062 22.5039Z" fill="#316FF6"/>
<path d="M15.4219 3.30859H12.5781C11.974 3.30859 11.4844 3.79827 11.4844 4.40234C11.4844 5.00642 11.974 5.49609 12.5781 5.49609H15.4219C16.026 5.49609 16.5156 5.00642 16.5156 4.40234C16.5156 3.79827 16.026 3.30859 15.4219 3.30859Z" fill="#316FF6"/>
<path d="M15.4219 22.5039H12.5781C11.974 22.5039 11.4844 22.9936 11.4844 23.5977C11.4844 24.2017 11.974 24.6914 12.5781 24.6914H15.4219C16.026 24.6914 16.5156 24.2017 16.5156 23.5977C16.5156 22.9936 16.026 22.5039 15.4219 22.5039Z" fill="#316FF6"/>
</g>
<defs>
<clipPath id="clip0_1008_2536">
<rect width="28" height="28" fill="white"/>
</clipPath>
</defs>
</svg>
