<svg width="45" height="45" viewBox="0 0 45 45" fill="none" xmlns="http://www.w3.org/2000/svg">
<g clip-path="url(#clip0_2154_1112)">
<path d="M19.0494 11.6553C16.556 11.6553 14.5275 13.6839 14.5275 16.1773C14.5275 18.6709 16.556 20.6994 19.0494 20.6994C21.5429 20.6994 23.5714 18.6708 23.5714 16.1773C23.5714 13.6838 21.5429 11.6553 19.0494 11.6553Z" fill="#DBDBDB"/>
<path d="M43.4303 36.5877H39.7277C39.7277 34.9465 39.7277 8.47626 39.7277 6.84211C39.7277 5.97516 39.0248 5.27238 38.158 5.27238H8.41228V1.56973C8.41228 0.702861 7.70941 0 6.84255 0C5.9756 0 5.27282 0.702861 5.27282 1.56973V5.27273H1.56973C0.702861 5.27273 0 5.9756 0 6.84255C0 7.7095 0.702861 8.41228 1.56973 8.41228H5.27229C5.27229 9.63079 5.27229 36.7859 5.27229 38.1579C5.27229 39.0248 5.97516 39.7276 6.84202 39.7276H36.5876V43.4302C36.5876 44.2971 37.2905 44.9999 38.1574 44.9999C39.0243 44.9999 39.7271 44.2971 39.7271 43.4302V39.7272H43.4301C44.2971 39.7272 44.9998 39.0243 44.9998 38.1575C45 37.2906 44.2971 36.5877 43.4303 36.5877ZM36.5882 22.8448L32.1101 18.099C31.4979 17.45 30.4494 17.4389 29.8265 18.0991L19.9318 28.5886L15.1787 23.5494C14.56 22.8931 13.5126 22.8951 12.8949 23.5494L8.41184 28.3017V8.41184H36.5881V22.8448H36.5882Z" fill="#DBDBDB"/>
</g>
<defs>
<clipPath id="clip0_2154_1112">
<rect width="45" height="45" fill="white"/>
</clipPath>
</defs>
</svg>
