<svg width="24" height="24" viewBox="0 0 24 24" fill="none" xmlns="http://www.w3.org/2000/svg">
<g clip-path="url(#clip0_1149_2973)">
<path d="M10.1598 6.21619C8.82992 6.21619 7.74805 7.29811 7.74805 8.62791C7.74805 9.9578 8.82992 11.0397 10.1598 11.0397C11.4896 11.0397 12.5715 9.95775 12.5715 8.62791C12.5715 7.29806 11.4896 6.21619 10.1598 6.21619Z" fill="#316FF6"/>
<path d="M23.1628 19.5135H21.1881C21.1881 18.6381 21.1881 4.52067 21.1881 3.64913C21.1881 3.18675 20.8133 2.81194 20.3509 2.81194H4.48655V0.837188C4.48655 0.374859 4.11169 0 3.64936 0C3.18698 0 2.81217 0.374859 2.81217 0.837188V2.81212H0.837188C0.374859 2.81212 0 3.18698 0 3.64936C0 4.11173 0.374859 4.48655 0.837188 4.48655H2.81189C2.81189 5.13642 2.81189 19.6192 2.81189 20.3509C2.81189 20.8132 3.18675 21.1881 3.64908 21.1881H19.5134V23.1628C19.5134 23.6251 19.8883 24 20.3506 24C20.813 24 21.1878 23.6251 21.1878 23.1628V21.1878H23.1627C23.6251 21.1878 23.9999 20.813 23.9999 20.3506C24 19.8883 23.6251 19.5135 23.1628 19.5135ZM19.5137 12.1839L17.1254 9.65278C16.7989 9.30666 16.2397 9.30075 15.9075 9.65283L10.6303 15.2473L8.09531 12.5597C7.76536 12.2097 7.2067 12.2107 6.87727 12.5597L4.48631 15.0943V4.48631H19.5136V12.1839H19.5137Z" fill="#316FF6"/>
</g>
<defs>
<clipPath id="clip0_1149_2973">
<rect width="24" height="24" fill="white"/>
</clipPath>
</defs>
</svg>
