<svg width="44" height="44" viewBox="0 0 44 44" fill="none" xmlns="http://www.w3.org/2000/svg">
<g clip-path="url(#clip0_684_430)">
<path d="M22 33.9934C15.3869 33.9934 10.0066 28.6132 10.0066 22C10.0066 15.3868 15.3869 10.0066 22 10.0066C28.6132 10.0066 33.9935 15.3868 33.9935 22C33.9935 28.6132 28.6132 33.9934 22 33.9934ZM22 12.5847C16.8085 12.5847 12.5847 16.8083 12.5847 22C12.5847 27.1917 16.8085 31.4153 22 31.4153C27.1916 31.4153 31.4153 27.1916 31.4153 22C31.4153 16.8084 27.1916 12.5847 22 12.5847Z" fill="white"/>
<path d="M20.6521 26.6586L16.8555 22.862L18.6785 21.039L20.6521 23.0126L25.4119 18.2529L27.2349 20.0759L20.6521 26.6586Z" fill="white"/>
<path d="M25.5577 44H18.4422L17.1657 39.6054C15.7024 39.2034 14.2984 38.6199 12.9753 37.8639L8.95933 40.0721L3.92786 35.0406L6.13594 31.0246C5.37995 29.7015 4.79643 28.2974 4.39441 26.8342L0 25.5578V18.4422L4.39459 17.1658C4.7966 15.7026 5.38012 14.2985 6.13611 12.9754L3.92803 8.95941L8.9595 3.92795L12.9754 6.13611C14.2985 5.38012 15.7025 4.79669 17.1658 4.39459L18.4423 0H25.5578L26.8343 4.39459C28.2976 4.7966 29.7016 5.38012 31.0247 6.13611L35.0407 3.92795L40.0721 8.95941L37.8641 12.9754C38.6201 14.2985 39.2036 15.7026 39.6056 17.1658L44 18.4422V25.5578L39.6054 26.8342C39.2034 28.2974 38.6199 29.7015 37.8639 31.0246L40.072 35.0406L35.0405 40.0721L31.0246 37.8639C29.7015 38.6199 28.2975 39.2033 26.8342 39.6054L25.5577 44ZM20.378 41.4219H23.622L24.7757 37.4498L25.5137 37.2801C27.2121 36.8898 28.8264 36.219 30.3116 35.2861L30.9538 34.8828L34.5865 36.8802L36.8803 34.5863L34.883 30.9537L35.2862 30.3114C36.219 28.8261 36.8899 27.2119 37.2802 25.5135L37.4498 24.7755L41.4219 23.622V20.378L37.4498 19.2243L37.2801 18.4864C36.8898 16.788 36.2189 15.1737 35.2861 13.6884L34.8829 13.0462L36.8802 9.41351L34.5864 7.11975L30.9537 9.11711L30.3115 8.71381C28.8263 7.78104 27.212 7.11013 25.5136 6.7198L24.7756 6.55016L23.622 2.57812H20.378L19.2243 6.55024L18.4863 6.71988C16.7879 7.11021 15.1736 7.78104 13.6884 8.71389L13.0462 9.1172L9.41359 7.11975L7.11975 9.41359L9.11711 13.0463L8.71389 13.6885C7.78113 15.1738 7.11021 16.7881 6.71988 18.4864L6.55024 19.2244L2.57812 20.378V23.622L6.55024 24.7757L6.71988 25.5136C7.11021 27.212 7.78113 28.8263 8.71389 30.3116L9.11711 30.9538L7.11975 34.5864L9.41359 36.8802L13.0463 34.8829L13.6885 35.2862C15.1737 36.219 16.788 36.8899 18.4864 37.2802L19.2244 37.4498L20.378 41.4219Z" fill="white"/>
</g>
<defs>
<clipPath id="clip0_684_430">
<rect width="44" height="44" fill="white"/>
</clipPath>
</defs>
</svg>
