<svg width="140" height="140" viewBox="0 0 140 140" fill="none" xmlns="http://www.w3.org/2000/svg">
<path d="M104.59 115.117H17.3633C15.369 115.117 13.4564 115.909 12.0462 117.32C10.636 118.73 9.84375 120.642 9.84375 122.637C9.84375 124.631 10.636 126.544 12.0462 127.954C13.4564 129.364 15.369 130.156 17.3633 130.156H104.59C106.584 130.156 108.497 129.364 109.907 127.954C111.317 126.544 112.109 124.631 112.109 122.637C112.109 120.642 111.317 118.73 109.907 117.32C108.497 115.909 106.584 115.117 104.59 115.117Z" fill="#A82C50"/>
<path d="M104.59 109.102C105.094 109.124 105.596 109.175 106.094 109.255V80.4236C105.566 80.6424 105.049 80.8912 104.511 81.0826V83.0623C104.508 85.1802 103.665 87.2107 102.168 88.7088C100.671 90.2069 98.6414 91.0505 96.5234 91.0549H88.5938C86.4749 91.052 84.4436 90.209 82.9453 88.7107C81.4471 87.2124 80.6041 85.1812 80.6012 83.0623V81.0826C79.4506 80.674 78.3225 80.2048 77.2215 79.6772L75.8187 81.0799C75.0763 81.8227 74.1947 82.4119 73.2245 82.8139C72.2542 83.2159 71.2143 83.4228 70.1641 83.4228C69.1138 83.4228 68.0739 83.2159 67.1036 82.8139C66.1334 82.4119 65.2519 81.8227 64.5094 81.0799L58.923 75.4689C58.1797 74.7271 57.59 73.8459 57.1876 72.8758C56.7852 71.9057 56.5781 70.8658 56.5781 69.8156C56.5781 68.7654 56.7852 67.7255 57.1876 66.7554C57.59 65.7854 58.1797 64.9042 58.923 64.1623L60.3203 62.7623C59.7933 61.661 59.3242 60.5329 58.9148 59.3826H56.9352C55.4556 59.3759 54.0072 58.9577 52.7517 58.175C51.4962 57.3922 50.4831 56.2757 49.8258 54.9502H21.875C20.2796 54.9502 18.7495 55.584 17.6213 56.7121C16.4932 57.8403 15.8594 59.3704 15.8594 60.9658V109.255C16.3573 109.175 16.8594 109.124 17.3633 109.102H104.59Z" fill="#A82C50"/>
<path d="M128.177 41.5051H122.806C122.471 41.503 122.146 41.3876 121.884 41.1776C121.623 40.9677 121.44 40.6755 121.365 40.3484C120.651 37.4361 119.496 34.6496 117.942 32.0852C117.764 31.8012 117.687 31.4656 117.724 31.1326C117.761 30.7996 117.909 30.4887 118.144 30.2504L121.953 26.4523C122.137 26.2689 122.283 26.051 122.383 25.8109C122.483 25.5709 122.534 25.3136 122.534 25.0537C122.534 24.7938 122.483 24.5365 122.383 24.2965C122.283 24.0565 122.137 23.8385 121.953 23.6551L116.345 18.0469C116.161 17.8628 115.944 17.7167 115.704 17.617C115.464 17.5173 115.206 17.466 114.946 17.466C114.686 17.466 114.429 17.5173 114.189 17.617C113.949 17.7167 113.731 17.8628 113.548 18.0469L109.744 21.875C109.506 22.1104 109.195 22.2585 108.862 22.2952C108.529 22.3319 108.193 22.2552 107.909 22.0773C105.348 20.5136 102.562 19.3508 99.6488 18.6293C99.3225 18.5537 99.0312 18.3704 98.8219 18.109C98.6125 17.8475 98.4973 17.5232 98.4949 17.1883V11.8234C98.4949 11.2998 98.2875 10.7975 97.918 10.4265C97.5485 10.0555 97.0471 9.84592 96.5234 9.84375H88.5938C88.0687 9.84375 87.5652 10.0523 87.1939 10.4236C86.8226 10.7949 86.6141 11.2984 86.6141 11.8234V17.1746C86.612 17.5093 86.4969 17.8335 86.2874 18.0946C86.078 18.3557 85.7865 18.5383 85.4602 18.6129C82.5439 19.3315 79.7545 20.4915 77.1887 22.0527C76.9048 22.2312 76.5687 22.308 76.2355 22.2708C75.9022 22.2335 75.5914 22.0844 75.3539 21.8477L71.5695 18.0469C71.3861 17.8628 71.1681 17.7167 70.9281 17.617C70.6881 17.5173 70.4308 17.466 70.1709 17.466C69.911 17.466 69.6537 17.5173 69.4137 17.617C69.1737 17.7167 68.9557 17.8628 68.7723 18.0469L63.1641 23.6551C62.9799 23.8385 62.8339 24.0565 62.7342 24.2965C62.6345 24.5365 62.5832 24.7938 62.5832 25.0537C62.5832 25.3136 62.6345 25.5709 62.7342 25.8109C62.8339 26.051 62.9799 26.2689 63.1641 26.4523L66.9566 30.2449C67.1921 30.4833 67.3401 30.7941 67.3768 31.1271C67.4136 31.4601 67.3368 31.7958 67.159 32.0797C65.6061 34.6475 64.4526 37.4366 63.7383 40.3512C63.6637 40.6775 63.4811 40.969 63.22 41.1785C62.9589 41.3879 62.6347 41.503 62.3 41.5051H56.9406C56.417 41.5051 55.9147 41.7125 55.5437 42.082C55.1726 42.4515 54.9631 42.9529 54.9609 43.4766V51.4062C54.9609 51.6662 55.0121 51.9237 55.1116 52.1638C55.2111 52.404 55.3569 52.6223 55.5408 52.8061C55.7246 52.9899 55.9428 53.1358 56.183 53.2352C56.4232 53.3347 56.6807 53.3859 56.9406 53.3859H62.2918C62.6265 53.388 62.9507 53.5031 63.2118 53.7126C63.4729 53.922 63.6555 54.2135 63.7301 54.5398C64.4487 57.4561 65.6087 60.2455 67.1699 62.8113C67.3477 63.0953 67.4245 63.4309 67.3878 63.7639C67.351 64.0969 67.203 64.4077 66.9676 64.6461L63.1641 68.4305C62.9799 68.6139 62.8339 68.8319 62.7342 69.0719C62.6345 69.3119 62.5832 69.5692 62.5832 69.8291C62.5832 70.089 62.6345 70.3463 62.7342 70.5863C62.8339 70.8263 62.9799 71.0443 63.1641 71.2277L68.7723 76.8359C68.9557 77.0201 69.1737 77.1661 69.4137 77.2658C69.6537 77.3655 69.911 77.4168 70.1709 77.4168C70.4308 77.4168 70.6881 77.3655 70.9281 77.2658C71.1681 77.1661 71.3861 77.0201 71.5695 76.8359L75.3621 73.0434C75.6005 72.8079 75.9113 72.6599 76.2443 72.6232C76.5773 72.5864 76.9129 72.6632 77.1969 72.841C79.7627 74.4023 82.5521 75.5623 85.4684 76.2809C85.7947 76.3554 86.0862 76.5381 86.2956 76.7992C86.5051 77.0602 86.6202 77.3844 86.6223 77.7191V83.0703C86.6251 83.592 86.8339 84.0915 87.203 84.4602C87.5722 84.8289 88.072 85.0369 88.5938 85.0391H96.5234C97.0485 85.0391 97.552 84.8305 97.9233 84.4592C98.2945 84.088 98.5031 83.5844 98.5031 83.0594V77.7082C98.5052 77.3735 98.6203 77.0493 98.8298 76.7882C99.0392 76.5271 99.3307 76.3445 99.657 76.2699C102.573 75.5513 105.363 74.3913 107.929 72.8301C108.212 72.6523 108.548 72.5755 108.881 72.6122C109.214 72.6489 109.525 72.797 109.763 73.0324L113.548 76.8359C113.731 77.0201 113.949 77.1661 114.189 77.2658C114.429 77.3655 114.686 77.4168 114.946 77.4168C115.206 77.4168 115.464 77.3655 115.704 77.2658C115.944 77.1661 116.161 77.0201 116.345 76.8359L121.953 71.2277C122.137 71.0443 122.283 70.8263 122.383 70.5863C122.483 70.3463 122.534 70.089 122.534 69.8291C122.534 69.5692 122.483 69.3119 122.383 69.0719C122.283 68.8319 122.137 68.6139 121.953 68.4305L118.161 64.6379C117.925 64.3995 117.777 64.0887 117.74 63.7557C117.704 63.4227 117.78 63.0871 117.958 62.8031C119.519 60.2373 120.679 57.4479 121.398 54.5316C121.473 54.2053 121.655 53.9138 121.916 53.7044C122.177 53.4949 122.502 53.3798 122.836 53.3777H128.188C128.709 53.3749 129.209 53.1661 129.577 52.797C129.946 52.4278 130.154 51.928 130.156 51.4062V43.4766C130.154 42.9529 129.945 42.4515 129.574 42.082C129.202 41.7125 128.7 41.5051 128.177 41.5051ZM92.5586 63.9844C89.2867 63.9844 86.0883 63.0141 83.3678 61.1964C80.6473 59.3786 78.527 56.795 77.2749 53.7721C76.0228 50.7493 75.6952 47.4231 76.3335 44.214C76.9718 41.005 78.5474 38.0573 80.8609 35.7438C83.1745 33.4302 86.1222 31.8546 89.3312 31.2163C92.5402 30.578 95.8665 30.9056 98.8893 32.1577C101.912 33.4098 104.496 35.5301 106.314 38.2506C108.131 40.9711 109.102 44.1695 109.102 47.4414C109.102 51.8289 107.359 56.0366 104.256 59.139C101.154 62.2415 96.9461 63.9844 92.5586 63.9844Z" fill="#A82C50"/>
</svg>
