<svg width="135" height="57" viewBox="0 0 135 57" fill="none" xmlns="http://www.w3.org/2000/svg">
<path fill-rule="evenodd" clip-rule="evenodd" d="M134.634 29.478C134.634 19.8886 130.001 12.322 121.147 12.322C112.255 12.322 106.875 19.8886 106.875 29.4031C106.875 40.6781 113.226 46.3718 122.342 46.3718C126.788 46.3718 130.151 45.3604 132.691 43.937V36.4453C130.151 37.7189 127.237 38.5055 123.538 38.5055C119.914 38.5055 116.701 37.2319 116.29 32.8118H134.56C134.56 32.3249 134.634 30.377 134.634 29.478ZM116.178 25.9195C116.178 21.6866 118.756 19.9261 121.11 19.9261C123.389 19.9261 125.817 21.6866 125.817 25.9195H116.178Z" fill="#635BFF"/>
<path fill-rule="evenodd" clip-rule="evenodd" d="M92.4536 12.322C88.7922 12.322 86.4384 14.0451 85.1308 15.2438L84.6451 12.9214H76.4257V56.598L85.7659 54.6127L85.8033 44.0119C87.1483 44.9858 89.1284 46.3718 92.4162 46.3718C99.1038 46.3718 105.194 40.9778 105.194 29.1034C105.156 18.2405 98.9918 12.322 92.4536 12.322ZM90.2119 38.1309C88.0076 38.1309 86.7 37.3443 85.8033 36.3704L85.7659 22.4733C86.7373 21.387 88.0823 20.6378 90.2119 20.6378C93.6118 20.6378 95.9655 24.4586 95.9655 29.3656C95.9655 34.3851 93.6491 38.1309 90.2119 38.1309Z" fill="#635BFF"/>
<path fill-rule="evenodd" clip-rule="evenodd" d="M63.5734 10.1119L72.9511 8.08918V0.485107L63.5734 2.47041V10.1119Z" fill="#635BFF"/>
<path d="M72.9511 12.9587H63.5734V45.7349H72.9511V12.9587Z" fill="#635BFF"/>
<path fill-rule="evenodd" clip-rule="evenodd" d="M53.5232 15.7307L52.9255 12.9587H44.8555V45.7349H54.1957V23.522C56.4001 20.6377 60.1362 21.1621 61.2944 21.5742V12.9587C60.0988 12.5092 55.7275 11.6851 53.5232 15.7307Z" fill="#635BFF"/>
<path fill-rule="evenodd" clip-rule="evenodd" d="M34.8427 4.83032L25.7266 6.77816L25.6892 36.7824C25.6892 42.3263 29.8363 46.4093 35.3657 46.4093C38.4293 46.4093 40.671 45.8474 41.9039 45.1731V37.5691C40.7084 38.056 34.8053 39.7791 34.8053 34.2352V20.9375H41.9039V12.9588H34.8053L34.8427 4.83032Z" fill="#635BFF"/>
<path fill-rule="evenodd" clip-rule="evenodd" d="M9.58658 22.4733C9.58658 21.0124 10.7821 20.4505 12.7623 20.4505C15.6017 20.4505 19.1884 21.3121 22.0278 22.8479V14.0451C18.9269 12.809 15.8632 12.322 12.7623 12.322C5.17797 12.322 0.134216 16.2926 0.134216 22.9228C0.134216 33.2613 14.3314 31.6131 14.3314 36.0707C14.3314 37.7938 12.837 38.3557 10.7448 38.3557C7.6438 38.3557 3.68352 37.0821 0.545188 35.359V44.2741C4.01977 45.7725 7.53172 46.4093 10.7448 46.4093C18.5159 46.4093 23.8585 42.551 23.8585 35.846C23.8212 24.6833 9.58658 26.6686 9.58658 22.4733Z" fill="#635BFF"/>
</svg>
