<svg width="140" height="140" viewBox="0 0 140 140" fill="none" xmlns="http://www.w3.org/2000/svg">
<path d="M22.8359 72.0948C25.1969 72.0948 27.4738 71.5712 29.3745 70.7015C29.6525 70.5743 29.9548 70.5716 30.2355 70.6928C32.5062 71.673 35.0367 72.182 37.5546 72.1543C37.9346 72.1501 38.1566 71.7303 37.9738 71.397C36.9461 69.5244 36.214 67.5136 35.774 65.4201C35.7197 65.162 35.7655 64.8937 35.8861 64.6593C36.7062 63.0627 37.1691 61.2884 37.1691 59.4091C37.1691 52.4144 30.7506 46.7336 22.8359 46.7336C14.9213 46.7336 8.51282 52.4144 8.51282 59.4091C8.51282 60.1672 8.5836 60.9153 8.73515 61.6329C9.91789 67.5765 15.7805 72.0948 22.8359 72.0948Z" fill="#A82C50"/>
<path d="M130.755 129.484H127.69L130.068 89.629C130.305 85.7196 127.188 82.4177 123.279 82.4177H33.626C29.7166 82.4177 26.5997 85.7196 26.8375 89.629L29.2154 129.484H9.24527C7.78651 129.484 6.60376 130.667 6.60376 132.126C6.60376 133.585 7.78651 134.767 9.24527 134.767H130.755C132.213 134.767 133.396 133.585 133.396 132.126C133.396 130.667 132.213 129.484 130.755 129.484ZM78.4525 98.7158C83.2601 98.7158 87.1695 102.625 87.1695 107.433C87.1695 112.267 83.2601 116.176 78.4525 116.176C73.645 116.176 69.7356 112.267 69.7356 107.433C69.7356 102.625 73.645 98.7158 78.4525 98.7158Z" fill="#A82C50"/>
<path d="M40.4676 77.1346H116.437C113.241 71.6138 107.298 68.127 100.852 68.127H91.7129C96.3091 64.2705 99.8751 58.8026 101.988 53.3346H109.464C112.871 53.3346 115.645 50.5611 115.645 47.1534V41.5007C115.645 39.4138 114.588 37.5647 113.004 36.4553C111.339 18.8365 96.4412 5.23267 78.4525 5.23267C60.4638 5.23267 45.5921 18.8365 43.9015 36.4553C42.3167 37.5647 41.26 39.4138 41.26 41.5007V47.1534C41.26 50.5611 44.0336 53.3346 47.4412 53.3346H54.9166C57.0299 58.8026 60.5959 64.2705 65.1921 68.127H56.0526C49.6073 68.127 43.6639 71.6138 40.4676 77.1346ZM53.9657 31.0403V31.0667C53.4902 32.4139 53.1468 33.8667 52.8827 35.3195H49.3166C51.4826 21.2139 63.7657 10.5157 78.4525 10.5157C93.1393 10.5157 105.422 21.2139 107.588 35.3195H104.075C101.751 22.5874 91.1317 13.263 78.4525 13.263C67.2525 13.263 57.6638 20.5798 53.9657 31.0403ZM64.4261 59.727C66.2223 60.1497 68.3619 60.4932 70.8449 60.7044C71.9279 63.5044 74.7016 65.4855 77.9771 65.4855C82.2034 65.4855 85.6111 62.21 85.6111 58.1686C85.6111 54.1535 82.2034 50.878 77.9771 50.878C74.8072 50.878 72.1128 52.7271 70.9506 55.3686C65.1656 54.8667 61.7582 53.5195 60.4374 52.8856C60.0148 51.8818 59.6185 50.878 59.2751 49.8742C58.1922 46.6252 57.6374 43.4818 57.6374 40.4969C57.6374 39.7308 57.6638 38.9912 57.743 38.2251C57.8752 36.7723 58.1657 35.3724 58.5619 33.9987C60.6488 33.3648 65.8525 32.3081 72.4562 35.161C74.226 35.927 76.0486 36.244 77.8977 36.244C85.0827 36.244 92.3469 31.3837 95.9393 28.5572C97.6826 31.3837 98.8186 34.6856 99.1619 38.2515C99.2412 38.9912 99.2676 39.7308 99.2676 40.4969C99.2676 43.4818 98.7128 46.6252 97.6299 49.8742C94.6977 58.6705 87.46 68.127 78.4525 68.127C72.9052 68.127 68.0185 64.5346 64.4261 59.727Z" fill="#A82C50"/>
</svg>
