<svg width="114" height="114" viewBox="0 0 114 114" fill="none" xmlns="http://www.w3.org/2000/svg">
<path d="M113.5 21.7812V11.1406C113.5 8.31856 112.379 5.61207 110.383 3.61657C108.388 1.62106 105.681 0.5 102.859 0.5L10.6406 0.5C7.81856 0.5 5.11207 1.62106 3.11657 3.61657C1.12106 5.61207 0 8.31856 0 11.1406L0 21.7812H113.5ZM74.4844 7.59375H102.859C103.8 7.59375 104.702 7.96744 105.367 8.63261C106.033 9.29777 106.406 10.1999 106.406 11.1406C106.406 12.0813 106.033 12.9835 105.367 13.6486C104.702 14.3138 103.8 14.6875 102.859 14.6875H74.4844C73.5437 14.6875 72.6415 14.3138 71.9764 13.6486C71.3112 12.9835 70.9375 12.0813 70.9375 11.1406C70.9375 10.1999 71.3112 9.29777 71.9764 8.63261C72.6415 7.96744 73.5437 7.59375 74.4844 7.59375ZM39.0156 7.59375H42.5625C43.5032 7.59375 44.4053 7.96744 45.0705 8.63261C45.7357 9.29777 46.1094 10.1999 46.1094 11.1406C46.1094 12.0813 45.7357 12.9835 45.0705 13.6486C44.4053 14.3138 43.5032 14.6875 42.5625 14.6875H39.0156C38.0749 14.6875 37.1728 14.3138 36.5076 13.6486C35.8424 12.9835 35.4688 12.0813 35.4688 11.1406C35.4688 10.1999 35.8424 9.29777 36.5076 8.63261C37.1728 7.96744 38.0749 7.59375 39.0156 7.59375ZM24.8281 7.59375H28.375C29.3157 7.59375 30.2178 7.96744 30.883 8.63261C31.5482 9.29777 31.9219 10.1999 31.9219 11.1406C31.9219 12.0813 31.5482 12.9835 30.883 13.6486C30.2178 14.3138 29.3157 14.6875 28.375 14.6875H24.8281C23.8874 14.6875 22.9853 14.3138 22.3201 13.6486C21.6549 12.9835 21.2812 12.0813 21.2812 11.1406C21.2812 10.1999 21.6549 9.29777 22.3201 8.63261C22.9853 7.96744 23.8874 7.59375 24.8281 7.59375ZM10.6406 7.59375H14.1875C15.1282 7.59375 16.0303 7.96744 16.6955 8.63261C17.3607 9.29777 17.7344 10.1999 17.7344 11.1406C17.7344 12.0813 17.3607 12.9835 16.6955 13.6486C16.0303 14.3138 15.1282 14.6875 14.1875 14.6875H10.6406C9.69993 14.6875 8.79777 14.3138 8.13261 13.6486C7.46744 12.9835 7.09375 12.0813 7.09375 11.1406C7.09375 10.1999 7.46744 9.29777 8.13261 8.63261C8.79777 7.96744 9.69993 7.59375 10.6406 7.59375Z" fill="#826222"/>
<path d="M45.4674 78.5312H75.3569L80.4254 60.7969H41.9205L45.4674 78.5312Z" fill="#826222"/>
<path d="M0 28.875V103.359C0 106.181 1.12106 108.888 3.11657 110.883C5.11207 112.879 7.81856 114 10.6406 114H102.859C105.681 114 108.388 112.879 110.383 110.883C112.379 108.888 113.5 106.181 113.5 103.359V28.875H0ZM47.8828 99.8125C46.8306 99.8125 45.8019 99.5005 44.927 98.9159C44.0521 98.3313 43.3702 97.5003 42.9675 96.5282C42.5648 95.556 42.4594 94.4863 42.6647 93.4542C42.87 92.4222 43.3767 91.4742 44.1208 90.7302C44.8648 89.9861 45.8128 89.4794 46.8449 89.2741C47.8769 89.0688 48.9466 89.1742 49.9188 89.5769C50.891 89.9795 51.7219 90.6615 52.3065 91.5364C52.8911 92.4113 53.2031 93.4399 53.2031 94.4922C53.2031 95.9032 52.6426 97.2565 51.6448 98.2542C50.6471 99.252 49.2938 99.8125 47.8828 99.8125ZM69.1641 99.8125C68.1118 99.8125 67.0832 99.5005 66.2083 98.9159C65.3333 98.3313 64.6514 97.5003 64.2487 96.5282C63.8461 95.556 63.7407 94.4863 63.946 93.4542C64.1513 92.4222 64.658 91.4742 65.402 90.7302C66.1461 89.9861 67.0941 89.4794 68.1261 89.2741C69.1582 89.0688 70.2279 89.1742 71.2001 89.5769C72.1722 89.9795 73.0031 90.6615 73.5877 91.5364C74.1723 92.4113 74.4844 93.4399 74.4844 94.4922C74.4844 95.9032 73.9238 97.2565 72.9261 98.2542C71.9283 99.252 70.5751 99.8125 69.1641 99.8125ZM88.5371 58.2254L82.1776 80.482C81.7496 81.9615 80.8536 83.2624 79.6239 84.1896C78.3941 85.1168 76.897 85.6205 75.3569 85.625H45.4674C43.8292 85.6203 42.2428 85.0508 40.9757 84.0124C39.7086 82.9741 38.8385 81.5305 38.512 79.9252L32.5603 50.1562H24.8281C23.8874 50.1562 22.9853 49.7826 22.3201 49.1174C21.6549 48.4522 21.2812 47.5501 21.2812 46.6094C21.2812 45.6687 21.6549 44.7665 22.3201 44.1014C22.9853 43.4362 23.8874 43.0625 24.8281 43.0625H35.4688C36.2864 43.0623 37.079 43.3447 37.7124 43.8617C38.3458 44.3788 38.7812 45.0989 38.9447 45.9L40.5053 53.7031H85.125C85.6742 53.7028 86.216 53.8301 86.7077 54.0749C87.1994 54.3196 87.6275 54.6753 87.9583 55.1137C88.2891 55.5522 88.5136 56.0614 88.614 56.6014C88.7145 57.1414 88.6881 57.6973 88.5371 58.2254Z" fill="#826222"/>
</svg>
