<svg width="624" height="436" viewBox="0 0 624 436" fill="none" xmlns="http://www.w3.org/2000/svg">
<path d="M612.28 435.583H40.8861C34.8057 435.583 29.875 430.654 29.875 424.572C29.875 418.491 34.8042 413.561 40.8861 413.561H612.28C618.361 413.561 623.292 418.49 623.292 424.572C623.29 430.654 618.361 435.583 612.28 435.583Z" fill="#FF7129"/>
<path d="M557.314 303.503H198.158C180.631 303.503 166.422 289.295 166.422 271.767V32.0565C166.422 14.53 180.63 0.320801 198.158 0.320801H557.314C574.84 0.320801 589.049 14.5286 589.049 32.0565V271.767C589.049 289.294 574.84 303.503 557.314 303.503Z" fill="#F5F5F5"/>
<path opacity="0.5" d="M589.051 46.4006H166.422V32.0565C166.422 14.53 180.63 0.320801 198.158 0.320801H557.314C574.84 0.320801 589.049 14.5286 589.049 32.0565V46.4006H589.051Z" fill="#D6D6D6"/>
<path d="M518.332 30.3181H268.317C264.474 30.3181 261.359 27.2033 261.359 23.3607C261.359 19.5181 264.474 16.4032 268.317 16.4032H518.334C522.176 16.4032 525.291 19.5181 525.291 23.3607C525.291 27.2033 522.175 30.3181 518.332 30.3181Z" fill="#F5F5F5"/>
<path d="M196.771 23.3605C196.771 26.4998 194.226 29.0448 191.087 29.0448C187.947 29.0448 185.402 26.4998 185.402 23.3605C185.402 20.2213 187.947 17.6763 191.087 17.6763C194.226 17.6763 196.771 20.2213 196.771 23.3605Z" fill="#F5F5F5"/>
<path d="M217.994 23.3605C217.994 26.4998 215.449 29.0448 212.309 29.0448C209.17 29.0448 206.625 26.4998 206.625 23.3605C206.625 20.2213 209.17 17.6763 212.309 17.6763C215.449 17.6763 217.994 20.2213 217.994 23.3605Z" fill="#F5F5F5"/>
<path d="M238.869 23.3605C238.869 26.4998 236.324 29.0448 233.184 29.0448C230.045 29.0448 227.5 26.4998 227.5 23.3605C227.5 20.2213 230.045 17.6763 233.184 17.6763C236.324 17.6763 238.869 20.2213 238.869 23.3605Z" fill="#F5F5F5"/>
<path d="M407.903 112.77L372.17 148.502L336.438 112.77L314.875 134.333L350.608 170.065L314.875 205.797L336.438 227.359L372.17 191.626L407.903 227.359L429.466 205.797L393.733 170.065L429.466 134.331L407.903 112.77Z" fill="#D6D6D6"/>
<path d="M520.511 413.562H374.152L385.715 247.994C386.404 238.117 394.97 230.11 404.847 230.11H515.439C525.316 230.11 532.763 238.117 532.074 247.994L520.511 413.562Z" fill="#1282D6"/>
<path d="M498.979 413.562H352.621L364.183 247.994C364.872 238.117 373.439 230.11 383.316 230.11H493.908C503.785 230.11 511.232 238.117 510.543 247.994L498.979 413.562Z" fill="#3897E9"/>
<path d="M439.671 230.111C445.133 235.2 447.283 240.023 448.186 243.7C450.028 251.212 448.455 261.267 448.45 261.359C451.275 264.711 454.874 269.226 458.736 274.786C458.736 274.786 467.373 287.218 473.465 300.119C481.056 316.195 493.36 342.252 487.619 369.974C483.219 391.215 468.199 413.562 468.199 413.562H384.926L395.129 230.09L439.671 230.111Z" fill="#1282D6"/>
<path d="M283.855 126.253C284.265 124.941 290.964 104.348 306.699 97.3365C314.229 93.9819 322.717 93.6603 322.717 93.6603C323.594 93.6273 327.217 93.5182 332.097 94.3192C332.097 94.3192 343.359 95.6828 351.571 101.505C366.022 111.752 374.396 137.409 372.856 159.723C372.307 167.656 370.426 175.805 375.584 181.901C378.368 185.19 382.984 186.282 389.532 188.289C403.137 192.457 425.518 197.724 434.514 215.937C443.511 234.149 444.608 259.822 438.683 266.844C432.759 273.866 291.367 273.207 286.36 267.721C281.354 262.235 272.138 235.685 271.04 214.619C270.064 195.894 283.182 188.138 286.36 165.057C288.574 148.983 286.195 135.285 283.855 126.253Z" fill="#262626"/>
<path d="M364.52 124.216C367.231 129.504 371.12 138.032 373.955 149.067C378.433 166.503 374.896 169.285 379.001 176C388.116 190.913 407.905 181.807 426.837 198.821C437.455 208.363 441.132 220.128 442.371 224.275C447.755 242.276 442.733 257.717 440.61 263.292" stroke="#262626" stroke-miterlimit="10" stroke-linecap="round" stroke-linejoin="round"/>
<path d="M289.032 159.105C286.382 165.08 282.11 174.538 276.525 186.096C266.324 207.205 263.477 211.04 264.248 218.568C265.584 231.607 276.706 245.264 276.706 245.264" stroke="#262626" stroke-miterlimit="10" stroke-linecap="round" stroke-linejoin="round"/>
<path d="M310.663 204.888C310.663 204.888 346.949 204.888 347.108 204.888C375.924 204.888 407.491 225.512 426.442 245.661C441.603 261.779 452.698 281.373 461.115 301.838C472.079 328.493 482.814 365.427 469.404 393.013C467.402 397.131 462.863 406.164 453.237 411.039C442.647 416.401 431.583 413.199 428.152 413.199C405.771 413.199 207.409 413.259 207.409 413.259C202.108 361.732 212.321 322.91 219.698 301.73C226.55 282.052 234.566 259.834 255.484 238.737C275.518 218.533 297.606 209.222 310.663 204.888Z" fill="#FEC02D"/>
<path d="M309 204.888L283.545 414.151L267.09 414.024L292.58 211.416L309 204.888Z" fill="#EAA418"/>
<path d="M328.811 220.289C339.019 220.327 347.326 212.084 347.365 201.875L347.516 162.1L310.549 161.959L310.399 201.736C310.36 211.943 318.603 220.25 328.811 220.289Z" fill="#F7A99C"/>
<path d="M310.44 190.601L334.517 178.232C334.273 180.316 332.905 190.082 324.317 196.825C318.833 201.131 313.071 202.115 310.41 202.393L310.44 190.601Z" fill="#FF7769"/>
<path d="M348.415 149.776C348.531 149.175 350.115 148.268 350.601 147.956C351.424 147.431 352.312 147.012 353.241 146.712C355.045 146.132 357.026 145.997 358.879 146.422C362.565 147.267 365.832 150.364 366.445 154.156C366.801 156.359 366.293 158.637 365.349 160.66C363.929 163.7 361.522 166.255 358.614 167.93C356.204 169.318 353.462 170.103 350.69 170.268C350.135 170.301 344.455 170.169 344.496 169.953C345.804 163.228 347.11 156.503 348.415 149.776Z" fill="#F7A99C"/>
<path d="M353.487 150.161C353.049 153.13 350.441 168.783 336.332 179.843C333.732 181.88 316.453 195.424 300.644 188.814C280.329 180.321 282.545 146.953 282.689 145.146C283.173 139.037 284.599 121.044 299.5 111.444C311.661 103.609 324.84 106.49 326.709 106.929C328.678 107.393 341.224 110.558 348.9 122.858C355.865 134.02 354.201 145.305 353.487 150.161Z" fill="#F7A99C"/>
<path d="M294.213 145.169C293.886 147.774 291.877 149.666 289.726 149.396C287.574 149.126 286.097 146.795 286.424 144.19C286.752 141.585 288.76 139.691 290.911 139.963C293.062 140.234 294.54 142.563 294.213 145.169Z" fill="#262626"/>
<path d="M317.688 148.117C317.361 150.722 315.353 152.614 313.202 152.344C311.052 152.075 309.574 149.743 309.901 147.138C310.228 144.533 312.236 142.641 314.387 142.911C316.537 143.181 318.015 145.512 317.688 148.117Z" fill="#262626"/>
<path d="M301.298 149.067L297.7 153.928C297.038 154.821 297.286 156.089 298.237 156.668L301.541 158.679" stroke="#262626" stroke-width="1.3478" stroke-miterlimit="10" stroke-linecap="round" stroke-linejoin="round"/>
<path d="M325.564 160.387C325.197 163.31 322.53 165.382 319.608 165.015C316.685 164.647 314.612 161.98 314.98 159.058C315.347 156.135 318.014 154.063 320.937 154.43C323.861 154.798 325.932 157.465 325.564 160.387Z" fill="#FF7769"/>
<path d="M350.894 163.143C350.877 162.557 350.826 158.588 354.011 155.725C356.506 153.481 359.409 153.335 360.201 153.32" stroke="#262626" stroke-width="1.3478" stroke-miterlimit="10" stroke-linecap="round" stroke-linejoin="round"/>
<path d="M353.703 156.509C353.88 156.481 356.016 156.184 357.506 157.799C358.731 159.125 358.619 160.767 358.596 161.04" stroke="#262626" stroke-width="1.3478" stroke-miterlimit="10" stroke-linecap="round" stroke-linejoin="round"/>
<path d="M285.451 151.951C284.44 151.825 283.467 152.006 282.602 152.396C282.705 155.26 282.981 158.733 283.609 162.418C283.78 162.457 283.944 162.513 284.122 162.536C287.044 162.903 289.713 160.831 290.079 157.908C290.446 154.986 288.375 152.319 285.451 151.951Z" fill="#FF7769"/>
<path d="M296.41 168.424C297.026 167.676 298.941 165.549 302.252 164.721C306.004 163.783 309.016 165.147 309.823 165.543" stroke="#262626" stroke-width="1.3478" stroke-miterlimit="10" stroke-linecap="round" stroke-linejoin="round"/>
<path d="M281.023 135.955H304.283C304.283 135.955 305.16 128.384 307.465 124.654C309.771 120.923 313.28 118.619 313.28 118.619C312.752 119.956 312.15 121.725 311.69 123.859C311.361 125.38 310.923 127.398 310.949 130.029C310.949 130.029 310.959 131.026 311.525 135.953H331.712C331.249 134.725 330.254 131.595 331.11 127.726C331.856 124.348 333.629 122.123 334.517 121.143C333.834 127.2 334.6 132.026 335.332 135.076C336.609 140.395 338.736 144.306 340.325 147.227C341.851 150.033 343.348 152.274 344.498 153.873C344.498 153.873 347.238 150.412 349.458 149.067C351.68 147.722 353.95 146.511 353.95 146.511C354.459 143.865 354.917 139.846 354.204 135.078C352.737 125.262 347.292 118.849 345.016 116.455C337.295 108.333 328.056 106.509 324.692 105.894C317.513 104.584 311.757 105.678 309.771 106.114C308.217 106.456 304.613 107.353 300.417 109.543C297.506 111.062 289.26 115.486 284.372 125.178C283.214 127.47 281.701 131.12 281.023 135.955Z" fill="#262626"/>
<path d="M305.738 206.619C305.738 206.619 283.219 298.879 280.586 329.818C277.954 360.757 276.966 414.149 276.966 414.149L207.407 413.262C205.991 403.272 204.723 389.682 205.213 373.594C206.359 335.989 216.403 308.021 220.353 297.892C229.652 274.042 240.88 245.242 270.053 224.164C283.543 214.419 296.666 209.361 305.738 206.619Z" fill="#FDB6D6"/>
<path d="M259.853 264.868L230.887 413.562H248.224L259.853 264.868Z" fill="#FF94CA"/>
<path d="M264.899 238.318C263.309 247.262 260.823 262.211 258.599 280.892C255.876 303.771 256.285 309.26 251.807 367.735C250.465 385.266 248.223 413.562 248.223 413.562" stroke="#262626" stroke-miterlimit="10" stroke-linecap="round" stroke-linejoin="round"/>
<path d="M328.067 380.342C330.697 383.068 332.212 385.688 333.087 387.501C335.833 393.201 335.927 398.618 335.995 402.449C336.035 404.731 335.904 406.626 335.775 407.935C335.775 407.935 301.764 396.964 296.717 397.402C292.27 397.788 270.111 403.455 264.901 404.799C264.178 404.985 263.424 404.965 262.709 404.746L255.245 402.449L248.207 402.749C245.681 402.857 243.95 400.273 244.979 397.963C245.235 397.389 245.578 396.765 246.03 396.086C249.102 391.478 252.174 388.187 252.174 388.187L240.895 390.221C239.802 390.225 238.01 390.073 237.396 388.976C236.48 387.34 238.731 384.58 240.27 382.729C243.839 378.439 247.741 376.131 248.991 375.406C253.398 372.851 257.508 370.468 264.241 368.44C269.548 366.841 284.16 362.2 302.148 366.766C313.935 369.757 322.591 375.67 328.067 380.342Z" fill="#F7A99C"/>
<path d="M326.269 378.861C326.418 380.012 327.207 387.02 322.171 393.014C316.557 399.694 308.401 399.529 307.41 399.492L335.775 407.935C335.775 407.935 335.985 397.79 335.484 395.295C334.983 392.8 333.236 387.038 331.436 384.574C329.636 382.109 326.269 378.861 326.269 378.861Z" fill="#FF7769"/>
<path d="M255.242 402.449C258.506 398.878 264.136 393.595 272.486 389.427C280.355 385.498 287.526 384.113 292.216 383.578" stroke="#262626" stroke-miterlimit="10" stroke-linecap="round" stroke-linejoin="round"/>
<path d="M248.207 402.749C253.353 393.974 259.049 389.41 263.253 386.87C263.253 386.87 266.359 384.994 282.673 378.861" stroke="#262626" stroke-miterlimit="10" stroke-linecap="round" stroke-linejoin="round"/>
<path d="M251.66 388.279C255.798 382.171 260.119 379.334 263.254 377.873C268.829 375.272 277.297 373.923 277.297 373.923" stroke="#262626" stroke-miterlimit="10" stroke-linecap="round" stroke-linejoin="round"/>
<path d="M350.894 204.888C350.894 204.888 343.783 257.736 342.795 289.334C341.808 320.932 340.797 374.911 340.797 374.911L328.066 380.342C328.066 380.342 334.143 398.281 334.519 403.876C334.896 409.471 334.519 414.151 334.519 414.151C353.137 413.787 368.268 414.248 378.671 414.738C387.52 415.155 400.697 415.236 427.054 415.397C436.426 415.454 444.345 415.411 453.236 411.041C454.289 410.523 463.218 406.017 469.843 396.964C474.13 391.105 480.86 378.683 477.083 347.922C475.494 334.979 469.979 294.487 438.574 256.091C420.631 234.155 402.924 223.52 397.999 220.688C383.06 212.101 369.919 208.603 367.19 207.897C360.689 206.219 355.067 205.36 350.894 204.888Z" fill="#FDB6D6"/>
<path d="M393.637 305.901C393.975 314.171 393.41 329.012 385.806 345.07C381.738 353.661 376.799 360.186 372.641 364.808C381.711 362.471 390.78 360.133 399.85 357.796L393.637 305.901Z" fill="#FF94CA"/>
<path d="M430.786 350.885C430.786 350.885 351.342 370.413 340.797 374.912C330.253 379.411 328.066 380.344 328.066 380.344" stroke="#262626" stroke-miterlimit="10" stroke-linecap="round" stroke-linejoin="round"/>
<path d="M436.927 268.599C436.927 268.599 475.985 342.107 464.355 372.169C462.577 376.765 458.648 386.708 448.824 393.931C439.61 400.704 429.681 401.776 412.571 402.231C397.608 402.629 377.708 402.541 353.984 400.695" stroke="white" stroke-miterlimit="10" stroke-linecap="round" stroke-linejoin="round"/>
<path d="M425.506 241.849C409.392 248.229 401.885 256.83 398.091 262.675C398.091 262.675 386.45 280.606 400.791 358.39" stroke="#262626" stroke-miterlimit="10" stroke-linecap="round" stroke-linejoin="round"/>
<path d="M331.689 415.405H225.07V402.633H337.198V409.896C337.198 412.939 334.732 415.405 331.689 415.405Z" fill="#374ACC"/>
<path d="M236.743 415.405H89.6182C86.255 415.405 83.1961 412.679 82.7842 409.316L69.4247 300.042C69.0142 296.679 71.4071 293.953 74.7688 293.953H221.895C225.258 293.953 228.317 296.679 228.729 300.042L242.087 409.316C242.499 412.679 240.106 415.405 236.743 415.405Z" fill="#374ACC"/>
<path d="M228.13 415.405H81.0049C77.6417 415.405 74.5829 412.679 74.1709 409.316L60.8115 300.042C60.4009 296.679 62.7938 293.953 66.1555 293.953H213.282C216.645 293.953 219.704 296.679 220.116 300.042L233.474 409.316C233.886 412.679 231.493 415.405 228.13 415.405Z" fill="#4450E4"/>
<path d="M60.8086 300.042C61.8737 299.751 65.7723 333.819 88.0371 364.488C91.8883 369.792 98.8358 379.218 110.638 388.405C110.638 388.405 122.639 397.747 167.36 415.404C164.95 415.404 162.538 415.404 160.128 415.404C154.198 415.404 148.269 415.404 142.338 415.404C134.832 415.404 127.326 415.404 119.82 415.404C112.683 415.404 105.546 415.404 98.408 415.404C94.5783 415.404 90.7501 415.408 86.9204 415.407C83.8701 415.405 80.0748 416.087 77.3519 414.383C75.0982 412.974 74.1135 410.186 73.7906 407.548C73.5623 405.68 73.5882 403.793 73.3786 401.924C73.1705 400.075 72.8131 398.24 72.5877 396.389C72.0939 392.347 71.5987 388.303 71.1049 384.261C70.2968 377.648 69.4886 371.036 68.679 364.423C67.8078 357.292 66.935 350.161 66.0637 343.031C65.2541 336.41 64.4446 329.788 63.635 323.168C63.0135 318.085 62.4838 312.989 61.7704 307.917C60.9536 302.098 60.5488 300.112 60.8086 300.042Z" fill="#5D6FF4"/>
<path d="M66.1562 293.953H213.282C216.646 293.953 219.704 296.679 220.116 300.042L233.474 409.316" stroke="#262626" stroke-miterlimit="10" stroke-linecap="round" stroke-linejoin="round"/>
<path d="M151.399 351.635C151.399 356.316 147.605 360.111 142.924 360.111C138.243 360.111 134.449 356.316 134.449 351.635C134.449 346.954 138.243 343.161 142.924 343.161C147.603 343.159 151.399 346.954 151.399 351.635Z" fill="#FEC02D"/>
<path d="M465.453 240.073H481.79C488.961 240.073 494.618 246.171 494.081 253.322L489.094 319.724" stroke="white" stroke-miterlimit="10" stroke-linecap="round" stroke-linejoin="round"/>
<path d="M185.914 316.973H16.013C7.72207 316.973 1 310.252 1 301.96V188.564C1 180.273 7.72207 173.551 16.013 173.551H185.914C194.205 173.551 200.927 180.273 200.927 188.564V301.96C200.927 310.252 194.205 316.973 185.914 316.973Z" fill="#F5F5F5"/>
<path d="M127.243 243.875C124.918 243.875 122.9 243.552 121.188 242.906C119.477 242.228 118.056 241.308 116.926 240.146C115.828 238.983 114.988 237.627 114.407 236.077C113.826 234.527 113.487 232.864 113.39 231.088C113.358 230.216 113.325 229.231 113.293 228.133C113.293 227.003 113.293 225.873 113.293 224.742C113.325 223.58 113.358 222.546 113.39 221.642C113.487 219.866 113.826 218.219 114.407 216.702C115.021 215.152 115.892 213.811 117.023 212.681C118.185 211.519 119.606 210.615 121.285 209.969C122.997 209.323 124.983 209 127.243 209C129.536 209 131.522 209.323 133.201 209.969C134.88 210.615 136.285 211.519 137.415 212.681C138.578 213.811 139.466 215.152 140.079 216.702C140.693 218.219 141.032 219.866 141.096 221.642C141.161 222.546 141.193 223.58 141.193 224.742C141.225 225.873 141.225 227.003 141.193 228.133C141.193 229.231 141.161 230.216 141.096 231.088C141.032 232.864 140.693 234.527 140.079 236.077C139.498 237.627 138.642 238.983 137.512 240.146C136.414 241.308 135.009 242.228 133.298 242.906C131.619 243.552 129.6 243.875 127.243 243.875ZM127.243 236.852C128.922 236.852 130.133 236.319 130.876 235.253C131.651 234.155 132.055 232.686 132.087 230.845C132.151 229.909 132.184 228.924 132.184 227.891C132.216 226.857 132.216 225.824 132.184 224.791C132.184 223.757 132.151 222.805 132.087 221.933C132.055 220.157 131.651 218.72 130.876 217.622C130.133 216.524 128.922 215.959 127.243 215.927C125.564 215.959 124.353 216.524 123.61 217.622C122.868 218.72 122.464 220.157 122.399 221.933C122.367 222.805 122.335 223.757 122.302 224.791C122.302 225.824 122.302 226.857 122.302 227.891C122.335 228.924 122.367 229.909 122.399 230.845C122.464 232.686 122.884 234.155 123.659 235.253C124.434 236.319 125.628 236.852 127.243 236.852Z" fill="#316FF6"/>
<path d="M63.779 243.391C63.4561 243.391 63.1655 243.278 62.9071 243.052C62.6811 242.826 62.5681 242.535 62.5681 242.18V236.706H47.5039C47.181 236.706 46.8904 236.593 46.632 236.367C46.406 236.141 46.293 235.851 46.293 235.495V230.894C46.293 230.603 46.3414 230.345 46.4383 230.119C46.5674 229.861 46.6966 229.618 46.8258 229.392L60.9212 210.308C61.341 209.759 61.9384 209.484 62.7134 209.484H69.7369C70.0921 209.484 70.3827 209.597 70.6087 209.823C70.8671 210.049 70.9963 210.34 70.9963 210.695V229.489H75.2588C75.6463 229.489 75.9531 229.618 76.1791 229.877C76.4051 230.103 76.5182 230.377 76.5182 230.7V235.495C76.5182 235.851 76.389 236.141 76.1307 236.367C75.9046 236.593 75.6301 236.706 75.3072 236.706H70.9963V242.18C70.9963 242.535 70.8671 242.826 70.6087 243.052C70.3827 243.278 70.0921 243.391 69.7369 243.391H63.779ZM54.6243 229.828H62.7618V218.397L54.6243 229.828Z" fill="#316FF6"/>
<path d="M94.3743 243.875C92.0493 243.875 90.031 243.552 88.3196 242.906C86.6081 242.228 85.1873 241.308 84.057 240.146C82.9591 238.983 82.1195 237.627 81.5383 236.077C80.957 234.527 80.618 232.864 80.5211 231.088C80.4888 230.216 80.4565 229.231 80.4242 228.133C80.4242 227.003 80.4242 225.873 80.4242 224.742C80.4565 223.58 80.4888 222.546 80.5211 221.642C80.618 219.866 80.957 218.219 81.5383 216.702C82.1518 215.152 83.0237 213.811 84.1539 212.681C85.3164 211.519 86.7373 210.615 88.4165 209.969C90.1279 209.323 92.1139 209 94.3743 209C96.667 209 98.653 209.323 100.332 209.969C102.011 210.615 103.416 211.519 104.546 212.681C105.709 213.811 106.597 215.152 107.21 216.702C107.824 218.219 108.163 219.866 108.228 221.642C108.292 222.546 108.324 223.58 108.324 224.742C108.357 225.873 108.357 227.003 108.324 228.133C108.324 229.231 108.292 230.216 108.228 231.088C108.163 232.864 107.824 234.527 107.21 236.077C106.629 237.627 105.773 238.983 104.643 240.146C103.545 241.308 102.14 242.228 100.429 242.906C98.7498 243.552 96.7316 243.875 94.3743 243.875ZM94.3743 236.852C96.0535 236.852 97.2644 236.319 98.0071 235.253C98.7821 234.155 99.1858 232.686 99.2181 230.845C99.2827 229.909 99.315 228.924 99.315 227.891C99.3472 226.857 99.3472 225.824 99.315 224.791C99.315 223.757 99.2827 222.805 99.2181 221.933C99.1858 220.157 98.7821 218.72 98.0071 217.622C97.2644 216.524 96.0535 215.959 94.3743 215.927C92.6951 215.959 91.4842 216.524 90.7415 217.622C89.9987 218.72 89.5951 220.157 89.5305 221.933C89.4982 222.805 89.4659 223.757 89.4336 224.791C89.4336 225.824 89.4336 226.857 89.4336 227.891C89.4659 228.924 89.4982 229.909 89.5305 230.845C89.5951 232.686 90.0149 234.155 90.7899 235.253C91.5649 236.319 92.7597 236.852 94.3743 236.852Z" fill="#316FF6"/>
<path d="M47.3185 290.239C47.0904 290.239 46.9141 290.176 46.7897 290.052C46.6653 289.907 46.6031 289.731 46.6031 289.523V269.21C46.6031 268.982 46.6653 268.806 46.7897 268.681C46.9141 268.536 47.0904 268.463 47.3185 268.463H60.1659C60.3941 268.463 60.5703 268.536 60.6948 268.681C60.8192 268.806 60.8814 268.982 60.8814 269.21V270.392C60.8814 270.62 60.8192 270.796 60.6948 270.921C60.5703 271.045 60.3941 271.107 60.1659 271.107H49.5894V277.92H59.4816C59.7097 277.92 59.886 277.993 60.0104 278.138C60.1348 278.262 60.197 278.438 60.197 278.667V279.818C60.197 280.025 60.1348 280.201 60.0104 280.346C59.886 280.471 59.7097 280.533 59.4816 280.533H49.5894V287.594H60.4148C60.6429 287.594 60.8192 287.657 60.9436 287.781C61.0681 287.906 61.1303 288.082 61.1303 288.31V289.523C61.1303 289.731 61.0681 289.907 60.9436 290.052C60.8192 290.176 60.6429 290.239 60.4148 290.239H47.3185Z" fill="#316FF6"/>
<path d="M66.1835 290.239C65.9554 290.239 65.7791 290.176 65.6547 290.052C65.5303 289.907 65.4681 289.731 65.4681 289.523V269.21C65.4681 268.982 65.5303 268.806 65.6547 268.681C65.7791 268.536 65.9554 268.463 66.1835 268.463H73.7738C76.1172 268.463 77.9733 269.013 79.342 270.112C80.7107 271.211 81.3951 272.839 81.3951 274.996C81.3951 276.593 80.9907 277.899 80.1819 278.915C79.3939 279.911 78.3155 280.606 76.9467 281L81.7373 289.274C81.7995 289.399 81.8306 289.513 81.8306 289.616C81.8306 289.782 81.758 289.928 81.6129 290.052C81.4884 290.176 81.3433 290.239 81.1774 290.239H79.6842C79.3316 290.239 79.0724 290.145 78.9065 289.959C78.7406 289.772 78.5954 289.585 78.471 289.399L73.9604 281.497H68.5166V289.523C68.5166 289.731 68.444 289.907 68.2988 290.052C68.1744 290.176 67.9981 290.239 67.77 290.239H66.1835ZM68.5166 278.853H73.6493C75.2047 278.853 76.3661 278.532 77.1334 277.889C77.9007 277.225 78.2844 276.251 78.2844 274.965C78.2844 273.7 77.9007 272.735 77.1334 272.072C76.3868 271.408 75.2254 271.076 73.6493 271.076H68.5166V278.853Z" fill="#316FF6"/>
<path d="M86.5675 290.239C86.3393 290.239 86.1631 290.176 86.0386 290.052C85.9142 289.907 85.852 289.731 85.852 289.523V269.21C85.852 268.982 85.9142 268.806 86.0386 268.681C86.1631 268.536 86.3393 268.463 86.5675 268.463H94.1577C96.5011 268.463 98.3572 269.013 99.7259 270.112C101.095 271.211 101.779 272.839 101.779 274.996C101.779 276.593 101.375 277.899 100.566 278.915C99.7778 279.911 98.6994 280.606 97.3307 281L102.121 289.274C102.183 289.399 102.215 289.513 102.215 289.616C102.215 289.782 102.142 289.928 101.997 290.052C101.872 290.176 101.727 290.239 101.561 290.239H100.068C99.7156 290.239 99.4563 290.145 99.2904 289.959C99.1245 289.772 98.9793 289.585 98.8549 289.399L94.3443 281.497H88.9005V289.523C88.9005 289.731 88.8279 289.907 88.6828 290.052C88.5583 290.176 88.3821 290.239 88.1539 290.239H86.5675ZM88.9005 278.853H94.0333C95.5886 278.853 96.75 278.532 97.5173 277.889C98.2846 277.225 98.6683 276.251 98.6683 274.965C98.6683 273.7 98.2846 272.735 97.5173 272.072C96.7707 271.408 95.6094 271.076 94.0333 271.076H88.9005V278.853Z" fill="#316FF6"/>
<path d="M114.014 290.55C112.251 290.55 110.737 290.249 109.472 289.648C108.207 289.025 107.232 288.082 106.548 286.817C105.863 285.531 105.48 283.924 105.397 281.995C105.376 281.083 105.366 280.212 105.366 279.382C105.366 278.532 105.376 277.65 105.397 276.738C105.48 274.83 105.874 273.244 106.579 271.979C107.305 270.693 108.3 269.739 109.565 269.117C110.851 268.474 112.334 268.152 114.014 268.152C115.714 268.152 117.197 268.474 118.462 269.117C119.748 269.739 120.753 270.693 121.479 271.979C122.205 273.244 122.599 274.83 122.661 276.738C122.703 277.65 122.724 278.532 122.724 279.382C122.724 280.212 122.703 281.083 122.661 281.995C122.599 283.924 122.216 285.531 121.51 286.817C120.826 288.082 119.851 289.025 118.586 289.648C117.321 290.249 115.797 290.55 114.014 290.55ZM114.014 287.906C115.61 287.906 116.907 287.429 117.902 286.475C118.918 285.521 119.468 283.976 119.551 281.84C119.592 280.906 119.613 280.077 119.613 279.351C119.613 278.604 119.592 277.775 119.551 276.862C119.509 275.431 119.24 274.27 118.742 273.378C118.265 272.487 117.622 271.833 116.813 271.419C116.004 271.004 115.071 270.796 114.014 270.796C112.997 270.796 112.085 271.004 111.276 271.419C110.467 271.833 109.814 272.487 109.316 273.378C108.839 274.27 108.57 275.431 108.507 276.862C108.487 277.775 108.476 278.604 108.476 279.351C108.476 280.077 108.487 280.906 108.507 281.84C108.59 283.976 109.14 285.521 110.156 286.475C111.172 287.429 112.458 287.906 114.014 287.906Z" fill="#316FF6"/>
<path d="M127.973 290.239C127.745 290.239 127.569 290.176 127.444 290.052C127.32 289.907 127.258 289.731 127.258 289.523V269.21C127.258 268.982 127.32 268.806 127.444 268.681C127.569 268.536 127.745 268.463 127.973 268.463H135.563C137.907 268.463 139.763 269.013 141.132 270.112C142.5 271.211 143.185 272.839 143.185 274.996C143.185 276.593 142.78 277.899 141.972 278.915C141.184 279.911 140.105 280.606 138.736 281L143.527 289.274C143.589 289.399 143.62 289.513 143.62 289.616C143.62 289.782 143.548 289.928 143.403 290.052C143.278 290.176 143.133 290.239 142.967 290.239H141.474C141.121 290.239 140.862 290.145 140.696 289.959C140.53 289.772 140.385 289.585 140.261 289.399L135.75 281.497H130.306V289.523C130.306 289.731 130.234 289.907 130.089 290.052C129.964 290.176 129.788 290.239 129.56 290.239H127.973ZM130.306 278.853H135.439C136.994 278.853 138.156 278.532 138.923 277.889C139.69 277.225 140.074 276.251 140.074 274.965C140.074 273.7 139.69 272.735 138.923 272.072C138.176 271.408 137.015 271.076 135.439 271.076H130.306V278.853Z" fill="#316FF6"/>
<path opacity="0.5" d="M200.927 195.35H1V188.564C1 180.273 7.72207 173.551 16.013 173.551H185.914C194.205 173.551 200.927 180.273 200.927 188.564V195.35Z" fill="#D6D6D6"/>
<path d="M167.477 187.742H49.2055C47.3882 187.742 45.9141 186.268 45.9141 184.451C45.9141 182.633 47.3882 181.159 49.2055 181.159H167.477C169.294 181.159 170.768 182.633 170.768 184.451C170.768 186.269 169.295 187.742 167.477 187.742Z" fill="#F5F5F5"/>
<path d="M15.3629 184.451C15.3629 185.936 14.1586 187.14 12.6744 187.14C11.1887 187.14 9.98438 185.936 9.98438 184.451C9.98438 182.965 11.1887 181.762 12.6744 181.762C14.1586 181.762 15.3629 182.966 15.3629 184.451Z" fill="#F5F5F5"/>
<path d="M25.398 184.451C25.398 185.936 24.1937 187.14 22.7081 187.14C21.2224 187.14 20.0195 185.936 20.0195 184.451C20.0195 182.965 21.2238 181.762 22.7081 181.762C24.1937 181.762 25.398 182.966 25.398 184.451Z" fill="#F5F5F5"/>
<path d="M35.273 184.451C35.273 185.936 34.0687 187.14 32.5845 187.14C31.0988 187.14 29.8945 185.936 29.8945 184.451C29.8945 182.965 31.0988 181.762 32.5845 181.762C34.0687 181.762 35.273 182.966 35.273 184.451Z" fill="#F5F5F5"/>
<path d="M185.914 316.973H16.013C7.72207 316.973 1 310.252 1 301.96V188.564C1 180.273 7.72207 173.551 16.013 173.551H185.914C194.205 173.551 200.927 180.273 200.927 188.564V301.96C200.927 310.252 194.205 316.973 185.914 316.973Z" stroke="#262626" stroke-miterlimit="10" stroke-linecap="round" stroke-linejoin="round"/>
<path d="M255.977 95.6741L278.182 104.887" stroke="#FF7129" stroke-miterlimit="10" stroke-linecap="round" stroke-linejoin="round"/>
<path d="M255.02 71.3682L283.125 98.0598" stroke="#FF7129" stroke-miterlimit="10" stroke-linecap="round" stroke-linejoin="round"/>
<path d="M279.438 70.972L289.783 92.6741" stroke="#FF7129" stroke-miterlimit="10" stroke-linecap="round" stroke-linejoin="round"/>
<path d="M548.368 190.212C550.381 184.933 552.405 180.835 554.441 177.921C556.475 175.007 559.168 172.65 562.518 170.854C564.476 169.755 566.524 168.95 568.67 168.434C570.812 167.92 572.849 167.287 574.776 166.535C576.701 165.784 578.464 164.79 580.064 163.555C581.664 162.319 582.958 160.406 583.949 157.809C585.621 153.425 585.582 149.899 583.831 147.232C582.08 144.565 579.548 142.6 576.239 141.336C571.494 139.526 567.724 139.602 564.929 141.559C562.13 143.517 559.656 146.647 557.503 150.951L540.187 144.345C541.859 139.961 544.093 136.251 546.892 133.216C549.688 130.183 552.885 127.917 556.482 126.418C560.076 124.92 563.988 124.208 568.215 124.282C572.439 124.355 576.79 125.247 581.266 126.953C590.931 130.64 597.808 135.52 601.9 141.59C605.99 147.662 606.347 155.126 602.968 163.987C601.874 166.852 600.628 169.245 599.229 171.172C597.826 173.096 596.211 174.71 594.384 176.012C592.554 177.312 590.499 178.4 588.219 179.273C585.937 180.147 583.416 180.978 580.654 181.769C578.104 182.54 575.978 183.344 574.275 184.179C572.572 185.016 571.132 186.032 569.962 187.224C568.789 188.417 567.813 189.763 567.038 191.26C566.26 192.759 565.498 194.493 564.747 196.461L548.368 190.212ZM537.949 215.916L544.657 198.331L562.779 205.244L556.071 222.829L537.949 215.916Z" fill="#FDB6D6"/>
<path d="M81.0977 99.3015C79.8145 96.0187 79.0307 93.2785 78.7479 91.0794C78.4652 88.8804 78.7207 86.6641 79.5145 84.4291C79.958 83.1014 80.5652 81.8698 81.3403 80.7315C82.114 79.5961 82.7887 78.4492 83.3643 77.2937C83.9384 76.1396 84.336 74.941 84.5571 73.7008C84.7767 72.4606 84.5729 71.0338 83.9413 69.419C82.8748 66.6931 81.3791 65.0811 79.4513 64.583C77.5235 64.085 75.5312 64.24 73.4742 65.0453C70.5244 66.1993 68.8149 67.8142 68.344 69.8898C67.8732 71.9668 68.0426 74.4501 68.8522 77.341L58.0865 81.5511C57.02 78.8253 56.4961 76.1755 56.5162 73.6018C56.5363 71.0295 57.0616 68.6424 58.0937 66.4419C59.1258 64.2428 60.633 62.2735 62.6153 60.5352C64.5962 58.7983 66.979 57.3844 69.7622 56.2964C75.7709 53.9466 80.993 53.3164 85.4284 54.4031C89.8624 55.4925 93.1581 58.7897 95.3112 64.2974C96.0074 66.0787 96.4352 67.7065 96.5974 69.1836C96.7567 70.6606 96.6878 72.0831 96.3892 73.4511C96.0892 74.819 95.5969 76.1827 94.9093 77.542C94.2218 78.9028 93.4064 80.3425 92.4634 81.8669C91.6093 83.2923 90.9648 84.5555 90.5284 85.655C90.0935 86.756 89.8538 87.8282 89.8136 88.8689C89.772 89.9125 89.8868 90.9431 90.1552 91.9579C90.4237 92.9756 90.7997 94.0967 91.2777 95.3197L81.0977 99.3015ZM87.0633 115.54L82.7872 104.608L94.0538 100.202L98.3299 111.134L87.0633 115.54Z" fill="#FDB6D6"/>
<path d="M584.346 413.562H538.552L535.496 364.808H587.401L584.346 413.562Z" fill="#FEC02D"/>
<path d="M581.191 364.808H541.711V323.243C541.711 312.341 550.549 303.503 561.451 303.503C572.353 303.503 581.191 312.341 581.191 323.243V364.808Z" fill="#94E261"/>
<mask id="mask0_3248_2722" style="mask-type:luminance" maskUnits="userSpaceOnUse" x="541" y="303" width="41" height="62">
<path d="M581.191 364.808H541.711V323.243C541.711 312.341 550.549 303.503 561.451 303.503C572.353 303.503 581.191 312.341 581.191 323.243V364.808Z" fill="white"/>
</mask>
<g mask="url(#mask0_3248_2722)">
<path d="M548.923 309.52C548.923 315.046 545.605 315.046 545.605 320.574C545.605 326.103 548.923 326.103 548.923 331.631C548.923 337.158 545.605 337.158 545.605 342.685C545.605 348.216 548.923 348.216 548.923 353.747C548.923 359.277 545.605 359.277 545.605 364.808" stroke="#262626" stroke-width="0.5" stroke-miterlimit="10" stroke-linecap="round" stroke-linejoin="round"/>
<path d="M557.605 304.328C557.605 310.374 553.977 310.374 553.977 316.42C553.977 322.468 557.605 322.468 557.605 328.516C557.605 334.562 553.977 334.562 553.977 340.608C553.977 346.659 557.605 346.659 557.605 352.709C557.605 358.759 553.977 358.759 553.977 364.81" stroke="#262626" stroke-width="0.5" stroke-miterlimit="10" stroke-linecap="round" stroke-linejoin="round"/>
<path d="M570.376 304.831C570.376 310.826 566.777 310.826 566.777 316.822C566.777 322.819 570.376 322.819 570.376 328.818C570.376 334.814 566.777 334.814 566.777 340.809C566.777 346.809 570.376 346.809 570.376 352.809C570.376 358.809 566.777 358.81 566.777 364.81" stroke="#262626" stroke-width="0.5" stroke-miterlimit="10" stroke-linecap="round" stroke-linejoin="round"/>
<path d="M579.302 312.059C579.302 317.332 576.137 317.332 576.137 322.605C576.137 327.88 579.302 327.88 579.302 333.154C579.302 338.427 576.137 338.427 576.137 343.7C576.137 348.977 579.302 348.977 579.302 354.253C579.302 359.53 576.137 359.53 576.137 364.807" stroke="#262626" stroke-width="0.5" stroke-miterlimit="10" stroke-linecap="round" stroke-linejoin="round"/>
</g>
<path d="M587.403 364.808L584.349 413.562H538.555C544.671 411.904 556.707 407.753 567.998 397.134C581.001 384.903 585.718 370.956 587.403 364.808Z" fill="#EAA418"/>
<path d="M584.78 372.555C582.921 377.176 579.783 383.536 574.495 390.107C569.213 396.673 563.676 401.095 559.562 403.9" stroke="#262626" stroke-width="0.5" stroke-miterlimit="10" stroke-linecap="round" stroke-linejoin="round"/>
</svg>
