<svg width="426" height="514" viewBox="0 0 426 514" fill="none" xmlns="http://www.w3.org/2000/svg">
<path opacity="0.51" d="M425.616 463.438H0.671875L46.2921 174.478H379.995L425.616 463.438Z" fill="#F0F0F0"/>
<path d="M213.14 513.197C330.33 513.197 425.331 491.809 425.331 465.425C425.331 439.041 330.33 417.653 213.14 417.653C95.9503 417.653 0.949219 439.041 0.949219 465.425C0.949219 491.809 95.9503 513.197 213.14 513.197Z" fill="#316FF6" fill-opacity="0.22"/>
<path d="M334.749 492.093H92.2044C85.928 492.093 81.4057 486.077 83.1324 480.033L93.8077 442.718H333.132L343.808 480.033C345.534 486.077 341.012 492.093 334.736 492.093H334.749Z" fill="#3C5D73"/>
<path d="M106.693 283.095H319.61C325.53 283.095 330.34 287.905 330.34 293.825V426.122C330.34 426.246 330.245 426.342 330.121 426.342H96.1685C96.0452 426.342 95.9492 426.246 95.9492 426.122V293.825C95.9492 287.905 100.759 283.095 106.679 283.095H106.693Z" fill="#3C5D73"/>
<path d="M110.758 299.074H315.535V412.172C315.535 412.295 315.439 412.391 315.316 412.391H110.977C110.854 412.391 110.758 412.295 110.758 412.172V299.074Z" fill="#80B4CF"/>
<path d="M344.192 476.224H82.1055L95.9464 426.095H330.351L344.192 476.224Z" fill="#55687A"/>
<path d="M323.333 458.546H102.961L108.922 432.851H317.372L323.333 458.546Z" fill="#3A4454"/>
<g style="mix-blend-mode:overlay">
<path d="M334.051 439.429H92.2461L95.9461 426.095H330.351L334.051 439.429Z" fill="#46435A"/>
</g>
<path d="M82.1055 476.224H344.192V481.486C344.192 484.254 341.945 486.515 339.163 486.515H87.1348C84.3666 486.515 82.1055 484.268 82.1055 481.486V476.224Z" fill="#3A4454"/>
<path d="M186.984 476.224H239.333V476.977C239.333 479.184 237.552 480.965 235.345 480.965H190.986C188.78 480.965 186.998 479.184 186.998 476.977V476.224H186.984Z" fill="#55687A"/>
<g style="mix-blend-mode:overlay">
<path d="M299.142 412.391H127.46L119.457 283.095H307.159L299.142 412.391Z" fill="#46435A"/>
</g>
<path d="M133.642 260.703H292.662C296.17 260.703 299.034 263.553 299.034 267.075V412.185C299.034 412.309 298.938 412.405 298.815 412.405H127.489C127.365 412.405 127.27 412.309 127.27 412.185V267.075C127.27 263.567 130.12 260.703 133.642 260.703Z" fill="white"/>
<path d="M171.575 351C171.125 351 170.72 350.843 170.36 350.528C170.045 350.213 169.888 349.808 169.888 349.313V341.686H148.898C148.448 341.686 148.043 341.529 147.683 341.214C147.368 340.899 147.211 340.494 147.211 339.999V333.587C147.211 333.182 147.278 332.822 147.413 332.508C147.593 332.148 147.773 331.81 147.953 331.495L167.593 304.904C168.178 304.139 169.011 303.756 170.09 303.756H179.877C180.372 303.756 180.776 303.914 181.091 304.229C181.451 304.544 181.631 304.949 181.631 305.444V331.63H187.571C188.111 331.63 188.538 331.81 188.853 332.17C189.168 332.485 189.325 332.867 189.325 333.317V339.999C189.325 340.494 189.145 340.899 188.785 341.214C188.47 341.529 188.088 341.686 187.638 341.686H181.631V349.313C181.631 349.808 181.451 350.213 181.091 350.528C180.776 350.843 180.372 351 179.877 351H171.575ZM158.819 332.103H170.158V316.175L158.819 332.103Z" fill="black"/>
<path d="M214.205 351.675C210.966 351.675 208.154 351.225 205.769 350.325C203.384 349.38 201.404 348.098 199.83 346.478C198.3 344.858 197.13 342.969 196.32 340.809C195.51 338.649 195.038 336.332 194.903 333.857C194.858 332.642 194.813 331.27 194.768 329.74C194.768 328.166 194.768 326.591 194.768 325.016C194.813 323.396 194.858 321.956 194.903 320.697C195.038 318.222 195.51 315.927 196.32 313.812C197.175 311.653 198.39 309.786 199.965 308.211C201.584 306.591 203.564 305.331 205.904 304.431C208.289 303.531 211.056 303.081 214.205 303.081C217.4 303.081 220.167 303.531 222.507 304.431C224.846 305.331 226.804 306.591 228.378 308.211C229.998 309.786 231.236 311.653 232.09 313.812C232.945 315.927 233.418 318.222 233.508 320.697C233.598 321.956 233.643 323.396 233.643 325.016C233.688 326.591 233.688 328.166 233.643 329.74C233.643 331.27 233.598 332.642 233.508 333.857C233.418 336.332 232.945 338.649 232.09 340.809C231.281 342.969 230.088 344.858 228.513 346.478C226.984 348.098 225.026 349.38 222.642 350.325C220.302 351.225 217.49 351.675 214.205 351.675ZM214.205 341.889C216.545 341.889 218.232 341.146 219.267 339.662C220.347 338.132 220.909 336.085 220.954 333.52C221.044 332.215 221.089 330.843 221.089 329.403C221.134 327.963 221.134 326.523 221.089 325.083C221.089 323.644 221.044 322.316 220.954 321.102C220.909 318.627 220.347 316.625 219.267 315.095C218.232 313.565 216.545 312.778 214.205 312.733C211.866 312.778 210.178 313.565 209.143 315.095C208.109 316.625 207.546 318.627 207.456 321.102C207.411 322.316 207.366 323.644 207.321 325.083C207.321 326.523 207.321 327.963 207.321 329.403C207.366 330.843 207.411 332.215 207.456 333.52C207.546 336.085 208.131 338.132 209.211 339.662C210.291 341.146 211.956 341.889 214.205 341.889Z" fill="black"/>
<path d="M259.133 351.675C255.624 351.675 252.632 351.27 250.157 350.46C247.682 349.605 245.658 348.525 244.083 347.221C242.508 345.871 241.338 344.453 240.573 342.969C239.808 341.439 239.403 339.977 239.358 338.582C239.358 338.177 239.493 337.839 239.763 337.569C240.078 337.299 240.438 337.164 240.843 337.164H249.617C250.157 337.164 250.584 337.277 250.899 337.502C251.214 337.682 251.507 337.997 251.777 338.447C252.137 339.302 252.654 339.999 253.329 340.539C254.049 341.079 254.904 341.461 255.894 341.686C256.884 341.866 257.963 341.956 259.133 341.956C261.428 341.956 263.205 341.439 264.465 340.404C265.77 339.324 266.422 337.862 266.422 336.017C266.422 334.082 265.815 332.71 264.6 331.9C263.385 331.045 261.653 330.618 259.403 330.618H251.912C251.417 330.618 251.012 330.46 250.697 330.145C250.382 329.83 250.224 329.425 250.224 328.93V325.151C250.224 324.611 250.337 324.139 250.562 323.734C250.787 323.329 251.034 323.036 251.304 322.856L262.373 313.475H243.61C243.16 313.475 242.755 313.318 242.395 313.003C242.08 312.688 241.923 312.283 241.923 311.788V305.444C241.923 304.949 242.08 304.544 242.395 304.229C242.755 303.914 243.16 303.756 243.61 303.756H274.656C275.151 303.756 275.556 303.914 275.871 304.229C276.231 304.544 276.411 304.949 276.411 305.444V311.18C276.411 311.675 276.298 312.125 276.073 312.53C275.848 312.89 275.601 313.183 275.331 313.408L265.072 322.924L265.545 323.059C268.11 323.374 270.404 324.071 272.429 325.151C274.454 326.186 276.051 327.648 277.221 329.538C278.391 331.428 278.976 333.835 278.976 336.759C278.976 339.819 278.098 342.474 276.343 344.723C274.634 346.928 272.294 348.638 269.324 349.853C266.355 351.068 262.958 351.675 259.133 351.675Z" fill="black"/>
<path d="M149.937 389.658C149.648 389.658 149.412 389.566 149.229 389.383C149.045 389.199 148.953 388.963 148.953 388.674V363.105C148.953 362.816 149.045 362.58 149.229 362.397C149.412 362.213 149.648 362.121 149.937 362.121H168.308C168.596 362.121 168.832 362.213 169.016 362.397C169.199 362.58 169.291 362.816 169.291 363.105V366.803C169.291 367.091 169.199 367.327 169.016 367.511C168.832 367.694 168.596 367.786 168.308 367.786H155.759V373.097H167.442C167.731 373.097 167.967 373.202 168.15 373.411C168.334 373.595 168.426 373.831 168.426 374.119V377.542C168.426 377.804 168.334 378.04 168.15 378.25C167.967 378.434 167.731 378.525 167.442 378.525H155.759V383.993H168.622C168.911 383.993 169.147 384.085 169.33 384.269C169.514 384.452 169.606 384.688 169.606 384.977V388.674C169.606 388.963 169.514 389.199 169.33 389.383C169.147 389.566 168.911 389.658 168.622 389.658H149.937Z" fill="black"/>
<path d="M175.061 389.658C174.772 389.658 174.536 389.566 174.353 389.383C174.169 389.199 174.077 388.963 174.077 388.674V363.105C174.077 362.816 174.169 362.58 174.353 362.397C174.536 362.213 174.772 362.121 175.061 362.121H185.761C189.144 362.121 191.806 362.908 193.746 364.482C195.713 366.029 196.697 368.232 196.697 371.09C196.697 372.952 196.238 374.526 195.32 375.811C194.428 377.096 193.248 378.066 191.779 378.722L197.208 388.399C197.287 388.556 197.326 388.701 197.326 388.832C197.326 389.042 197.234 389.238 197.051 389.422C196.893 389.579 196.697 389.658 196.461 389.658H191.268C190.77 389.658 190.403 389.54 190.167 389.304C189.931 389.042 189.76 388.806 189.655 388.596L185.171 379.941H181.119V388.674C181.119 388.963 181.027 389.199 180.843 389.383C180.66 389.566 180.424 389.658 180.135 389.658H175.061ZM181.119 374.395H185.682C186.915 374.395 187.832 374.093 188.436 373.49C189.065 372.887 189.38 372.061 189.38 371.012C189.38 369.989 189.078 369.163 188.475 368.534C187.898 367.904 186.967 367.589 185.682 367.589H181.119V374.395Z" fill="black"/>
<path d="M202.259 389.658C201.971 389.658 201.735 389.566 201.551 389.383C201.368 389.199 201.276 388.963 201.276 388.674V363.105C201.276 362.816 201.368 362.58 201.551 362.397C201.735 362.213 201.971 362.121 202.259 362.121H212.959C216.342 362.121 219.004 362.908 220.945 364.482C222.912 366.029 223.895 368.232 223.895 371.09C223.895 372.952 223.436 374.526 222.518 375.811C221.626 377.096 220.446 378.066 218.978 378.722L224.406 388.399C224.485 388.556 224.524 388.701 224.524 388.832C224.524 389.042 224.433 389.238 224.249 389.422C224.092 389.579 223.895 389.658 223.659 389.658H218.466C217.968 389.658 217.601 389.54 217.365 389.304C217.129 389.042 216.958 388.806 216.854 388.596L212.369 379.941H208.317V388.674C208.317 388.963 208.225 389.199 208.042 389.383C207.858 389.566 207.622 389.658 207.334 389.658H202.259ZM208.317 374.395H212.88C214.113 374.395 215.031 374.093 215.634 373.49C216.263 372.887 216.578 372.061 216.578 371.012C216.578 369.989 216.277 369.163 215.673 368.534C215.096 367.904 214.165 367.589 212.88 367.589H208.317V374.395Z" fill="black"/>
<path d="M239.609 390.051C237.197 390.051 235.099 389.658 233.315 388.871C231.532 388.084 230.142 386.904 229.146 385.331C228.149 383.731 227.598 381.738 227.493 379.351C227.467 378.224 227.454 377.096 227.454 375.968C227.454 374.841 227.467 373.7 227.493 372.546C227.598 370.186 228.149 368.206 229.146 366.606C230.168 364.98 231.571 363.761 233.355 362.948C235.138 362.135 237.223 361.728 239.609 361.728C241.97 361.728 244.042 362.135 245.825 362.948C247.634 363.761 249.051 364.98 250.073 366.606C251.096 368.206 251.647 370.186 251.725 372.546C251.778 373.7 251.804 374.841 251.804 375.968C251.804 377.096 251.778 378.224 251.725 379.351C251.621 381.738 251.07 383.731 250.073 385.331C249.077 386.904 247.687 388.084 245.904 388.871C244.12 389.658 242.022 390.051 239.609 390.051ZM239.609 384.387C240.999 384.387 242.127 383.967 242.993 383.128C243.884 382.289 244.356 380.951 244.409 379.115C244.461 377.961 244.487 376.873 244.487 375.85C244.487 374.828 244.461 373.765 244.409 372.664C244.356 371.431 244.12 370.435 243.701 369.674C243.307 368.888 242.756 368.311 242.048 367.943C241.34 367.576 240.527 367.393 239.609 367.393C238.718 367.393 237.918 367.576 237.21 367.943C236.502 368.311 235.938 368.888 235.518 369.674C235.099 370.435 234.863 371.431 234.81 372.664C234.784 373.765 234.771 374.828 234.771 375.85C234.771 376.873 234.784 377.961 234.81 379.115C234.889 380.951 235.361 382.289 236.226 383.128C237.092 383.967 238.22 384.387 239.609 384.387Z" fill="black"/>
<path d="M257.347 389.658C257.059 389.658 256.823 389.566 256.639 389.383C256.456 389.199 256.364 388.963 256.364 388.674V363.105C256.364 362.816 256.456 362.58 256.639 362.397C256.823 362.213 257.059 362.121 257.347 362.121H268.047C271.43 362.121 274.092 362.908 276.033 364.482C278 366.029 278.983 368.232 278.983 371.09C278.983 372.952 278.524 374.526 277.606 375.811C276.715 377.096 275.535 378.066 274.066 378.722L279.495 388.399C279.573 388.556 279.613 388.701 279.613 388.832C279.613 389.042 279.521 389.238 279.337 389.422C279.18 389.579 278.983 389.658 278.747 389.658H273.555C273.056 389.658 272.689 389.54 272.453 389.304C272.217 389.042 272.047 388.806 271.942 388.596L267.457 379.941H263.405V388.674C263.405 388.963 263.314 389.199 263.13 389.383C262.946 389.566 262.71 389.658 262.422 389.658H257.347ZM263.405 374.395H267.969C269.201 374.395 270.119 374.093 270.722 373.49C271.352 372.887 271.666 372.061 271.666 371.012C271.666 369.989 271.365 369.163 270.762 368.534C270.185 367.904 269.254 367.589 267.969 367.589H263.405V374.395Z" fill="black"/>
<path d="M133.642 260.703H292.662C296.17 260.703 299.034 263.553 299.034 267.075V278.011C299.034 278.134 298.938 278.23 298.815 278.23H127.489C127.365 278.23 127.27 278.134 127.27 278.011V267.075C127.27 263.567 130.12 260.703 133.642 260.703Z" fill="#0A3A4A"/>
<path d="M140.554 268.637C140.554 270.405 139.115 271.844 137.347 271.844C135.58 271.844 134.141 270.405 134.141 268.637C134.141 266.869 135.58 265.431 137.347 265.431C139.115 265.431 140.554 266.869 140.554 268.637Z" fill="#FF656F"/>
<path d="M150.558 268.637C150.558 270.405 149.119 271.844 147.351 271.844C145.583 271.844 144.145 270.405 144.145 268.637C144.145 266.869 145.583 265.431 147.351 265.431C149.119 265.431 150.558 266.869 150.558 268.637Z" fill="#FFED92"/>
<path d="M161.035 268.637C161.035 270.405 159.596 271.844 157.828 271.844C156.06 271.844 154.621 270.405 154.621 268.637C154.621 266.869 156.06 265.431 157.828 265.431C159.596 265.431 161.035 266.869 161.035 268.637Z" fill="#53C17B"/>
<path d="M299.014 219.111C299.014 208.902 260.561 208.135 213.146 208.135C165.73 208.135 127.277 208.902 127.277 219.111C127.277 229.321 165.73 237.612 213.146 237.612C260.561 237.612 299.014 229.334 299.014 219.111Z" fill="black"/>
<path d="M380.669 176.068C380.669 206.011 305.668 226.292 213.153 226.292C120.638 226.292 45.6367 206.011 45.6367 176.068C45.6367 146.125 120.638 139.876 213.153 139.876C305.668 139.876 380.669 146.111 380.669 176.068Z" fill="#3C5D73"/>
<path d="M380.669 175.369C380.669 202.406 305.668 208.505 213.153 208.505C120.638 208.505 45.6367 202.406 45.6367 175.369C45.6367 148.331 120.638 126.405 213.153 126.405C305.668 126.405 380.669 148.331 380.669 175.369Z" fill="#316FF6"/>
<g style="mix-blend-mode:overlay">
<path d="M213.138 126.418C189.471 126.418 166.942 127.857 146.523 130.447C144.947 133.147 144.125 135.915 144.125 138.738C144.125 165.776 219.126 190.004 311.641 190.004C334.472 190.004 356.22 188.524 376.05 185.893C379.051 182.796 380.654 179.302 380.654 175.369C380.654 148.331 305.653 126.405 213.138 126.405V126.418Z" fill="#46435A"/>
</g>
<path d="M288.74 119.183C288.74 160.938 254.891 164.063 213.136 164.063C171.38 164.063 137.531 160.938 137.531 119.183C137.531 77.427 171.38 43.5784 213.136 43.5784C254.891 43.5784 288.74 77.427 288.74 119.183Z" fill="#1B3AF3"/>
<path d="M227.811 46.8125C227.811 50.307 221.247 53.13 213.148 53.13C205.049 53.13 198.484 50.307 198.484 46.8125C198.484 43.318 205.049 42.1669 213.148 42.1669C221.247 42.1669 227.811 43.3317 227.811 46.8125Z" fill="#A0D1EA"/>
<path d="M220.209 43.0713C220.209 47.4018 217.043 47.6484 213.138 47.6484C209.232 47.6484 206.066 47.4018 206.066 43.0713C206.066 38.7409 209.232 14.0465 213.138 14.0465C217.043 14.0465 220.209 38.7409 220.209 43.0713Z" fill="#E1F4FF"/>
<path d="M213.134 14.0465C213.01 14.0465 212.887 14.0739 212.777 14.115C215.107 23.1733 216.71 39.3713 216.71 43.0987C216.71 45.4695 216.066 46.8262 214.997 47.6073C217.999 47.4566 220.205 46.6755 220.205 43.0713C220.205 38.7409 217.039 14.0465 213.134 14.0465Z" fill="#A0D1EA"/>
<path d="M213.139 18.7469C218.316 18.7469 222.513 14.5503 222.513 9.37346C222.513 4.19664 218.316 0 213.139 0C207.962 0 203.766 4.19664 203.766 9.37346C203.766 14.5503 207.962 18.7469 213.139 18.7469Z" fill="#FF656F"/>
<g style="mix-blend-mode:overlay" opacity="0.47">
<path d="M214.575 0.123291C215.507 2.13776 216.055 4.46742 216.055 6.94783C216.055 11.7579 214.054 15.9924 211.012 18.4865C211.697 18.6509 212.41 18.7469 213.15 18.7469C218.33 18.7469 222.523 14.5535 222.523 9.37341C222.523 4.68669 219.083 0.822189 214.588 0.123291H214.575Z" fill="#46435A"/>
</g>
<path d="M213.135 193.321C221.158 193.321 227.662 190.695 227.662 187.455C227.662 184.216 221.158 181.59 213.135 181.59C205.113 181.59 198.609 184.216 198.609 187.455C198.609 190.695 205.113 193.321 213.135 193.321Z" fill="#E1F4FF"/>
<path d="M330.345 168.613C330.345 171.86 323.836 174.478 315.819 174.478C307.802 174.478 301.293 171.847 301.293 168.613C301.293 165.378 307.802 162.747 315.819 162.747C323.836 162.747 330.345 165.378 330.345 168.613Z" fill="#E1F4FF"/>
<path d="M124.994 168.613C124.994 171.86 118.484 174.478 110.468 174.478C102.451 174.478 95.9414 171.847 95.9414 168.613C95.9414 165.378 102.451 162.747 110.468 162.747C118.484 162.747 124.994 165.378 124.994 168.613Z" fill="#E1F4FF"/>
<path d="M247.301 51.7459C249.042 58.5841 249.96 65.7375 249.96 73.1102C249.96 120.06 212.548 158.239 165.914 159.541C178.851 163.474 195.268 164.049 213.138 164.049C254.893 164.049 288.742 160.925 288.742 119.169C288.742 89.7193 271.886 64.2164 247.301 51.7322V51.7459Z" fill="#4078F0"/>
</svg>
