<svg width="466" height="453" viewBox="0 0 466 453" fill="none" xmlns="http://www.w3.org/2000/svg">
<path d="M415.737 28.6383L444.666 28.6384L444.666 16.4139L415.737 16.4138L415.737 28.6383Z" stroke="#EBEBEB" stroke-width="0.75" stroke-miterlimit="10"/>
<path d="M431.874 13.2245L460.803 13.2245V1L431.874 1V13.2245Z" stroke="#EBEBEB" stroke-width="0.75" stroke-miterlimit="10"/>
<path d="M232.852 148.941H261.781V136.717H232.852V148.941Z" stroke="#EBEBEB" stroke-width="0.75" stroke-miterlimit="10"/>
<path d="M248.989 133.527H277.918V121.303H248.989V133.527Z" stroke="#EBEBEB" stroke-width="0.75" stroke-miterlimit="10"/>
<path d="M265.065 148.941H293.994V136.717H265.065V148.941Z" stroke="#EBEBEB" stroke-width="0.75" stroke-miterlimit="10"/>
<path d="M4.90293 13.2245L33.832 13.2245V1L4.90293 1V13.2245Z" stroke="#EBEBEB" stroke-width="0.75" stroke-miterlimit="10"/>
<path d="M21.0416 300.659H49.9707V288.435H21.0416V300.659Z" stroke="#EBEBEB" stroke-width="0.75" stroke-miterlimit="10"/>
<path d="M4.90293 285.245H33.832V273.021H4.90293V285.245Z" stroke="#EBEBEB" stroke-width="0.75" stroke-miterlimit="10"/>
<path d="M415.737 300.659L444.666 300.659L444.666 288.435L415.737 288.435L415.737 300.659Z" stroke="#EBEBEB" stroke-width="0.75" stroke-miterlimit="10"/>
<path d="M187.869 410.453V273.173L217.071 233.318V158.665" stroke="#EBEBEB" stroke-miterlimit="10"/>
<path d="M214.477 156.115C214.477 157.548 215.638 158.71 217.071 158.71C218.504 158.71 219.666 157.548 219.666 156.115C219.666 154.682 218.504 153.52 217.071 153.52C215.638 153.52 214.477 154.683 214.477 156.115Z" stroke="#EBEBEB" stroke-miterlimit="10"/>
<path d="M195.391 410.453V277.988L224.592 238.133V185.974" stroke="#EBEBEB" stroke-miterlimit="10"/>
<path d="M221.998 183.424C221.998 184.857 223.159 186.019 224.593 186.019C226.026 186.019 227.187 184.857 227.187 183.424C227.187 181.991 226.026 180.829 224.593 180.829C223.16 180.829 221.998 181.991 221.998 183.424Z" stroke="#EBEBEB" stroke-miterlimit="10"/>
<path d="M180.623 410.453V228.659" stroke="#EBEBEB" stroke-miterlimit="10"/>
<path d="M178.029 226.064C178.029 227.498 179.191 228.659 180.624 228.659C182.057 228.659 183.218 227.498 183.218 226.064C183.218 224.631 182.057 223.47 180.624 223.47C179.192 223.47 178.029 224.631 178.029 226.064Z" stroke="#EBEBEB" stroke-miterlimit="10"/>
<path d="M173.648 410.453V318.059L153.822 280.665V213.629" stroke="#EBEBEB" stroke-miterlimit="10"/>
<path d="M151.227 211.035C151.227 212.468 152.388 213.629 153.821 213.629C155.254 213.629 156.416 212.468 156.416 211.035C156.416 209.601 155.254 208.44 153.821 208.44C152.388 208.44 151.227 209.601 151.227 211.035Z" stroke="#EBEBEB" stroke-miterlimit="10"/>
<path d="M166.713 410.453V322.055L143.34 280.715V236.564" stroke="#EBEBEB" stroke-miterlimit="10"/>
<path d="M140.744 233.969C140.744 235.403 141.905 236.564 143.339 236.564C144.772 236.564 145.933 235.403 145.933 233.969C145.933 232.536 144.772 231.375 143.339 231.375C141.907 231.375 140.744 232.536 140.744 233.969Z" stroke="#EBEBEB" stroke-miterlimit="10"/>
<path d="M160.526 452.904C224.729 452.904 276.777 444.596 276.777 434.347C276.777 424.099 224.729 415.791 160.526 415.791C96.3226 415.791 44.2754 424.099 44.2754 434.347C44.2754 444.596 96.3226 452.904 160.526 452.904Z" fill="#EBEBEB"/>
<path d="M322.866 142.673H251.834V410.51H322.866V142.673Z" fill="#37474F"/>
<path d="M453.592 142.673H322.867V410.51H453.592V142.673Z" fill="#455A64"/>
<path d="M445.422 375.772H332.668V401.812H445.422V375.772Z" fill="#37474F"/>
<path d="M401.595 380.073H337.414V382.272H401.595V380.073Z" fill="#455A64"/>
<path d="M401.595 383.883H337.414V386.081H401.595V383.883Z" fill="#455A64"/>
<path d="M401.595 387.693H337.414V389.891H401.595V387.693Z" fill="#455A64"/>
<path d="M401.595 391.503H337.414V393.701H401.595V391.503Z" fill="#455A64"/>
<path d="M401.595 395.313H337.414V397.511H401.595V395.313Z" fill="#455A64"/>
<path d="M413.294 382.253C413.294 383.457 412.319 384.432 411.115 384.432C409.911 384.432 408.936 383.457 408.936 382.253C408.936 381.049 409.911 380.073 411.115 380.073C412.319 380.073 413.294 381.049 413.294 382.253Z" fill="#316FF6"/>
<path d="M420.48 382.253C420.48 383.457 419.504 384.432 418.301 384.432C417.097 384.432 416.121 383.457 416.121 382.253C416.121 381.049 417.097 380.073 418.301 380.073C419.504 380.073 420.48 381.049 420.48 382.253Z" fill="#316FF6"/>
<path d="M427.665 382.253C427.665 383.457 426.69 384.432 425.486 384.432C424.282 384.432 423.307 383.457 423.307 382.253C423.307 381.049 424.282 380.073 425.486 380.073C426.69 380.073 427.665 381.049 427.665 382.253Z" fill="#316FF6"/>
<path d="M434.851 382.253C434.851 383.457 433.875 384.432 432.672 384.432C431.468 384.432 430.492 383.457 430.492 382.253C430.492 381.049 431.468 380.073 432.672 380.073C433.875 380.073 434.851 381.049 434.851 382.253Z" fill="#316FF6"/>
<path d="M442.037 382.253C442.037 383.457 441.061 384.432 439.857 384.432C438.653 384.432 437.678 383.457 437.678 382.253C437.678 381.049 438.653 380.073 439.857 380.073C441.061 380.073 442.037 381.049 442.037 382.253Z" fill="#316FF6"/>
<path d="M413.294 388.792C413.294 389.996 412.319 390.972 411.115 390.972C409.911 390.972 408.936 389.996 408.936 388.792C408.936 387.588 409.911 386.613 411.115 386.613C412.319 386.613 413.294 387.588 413.294 388.792Z" fill="#316FF6"/>
<path d="M420.48 388.792C420.48 389.996 419.504 390.972 418.301 390.972C417.097 390.972 416.121 389.996 416.121 388.792C416.121 387.588 417.097 386.613 418.301 386.613C419.504 386.612 420.48 387.588 420.48 388.792Z" fill="#316FF6"/>
<path d="M427.665 388.792C427.665 389.996 426.69 390.972 425.486 390.972C424.282 390.972 423.307 389.996 423.307 388.792C423.307 387.588 424.282 386.613 425.486 386.613C426.69 386.613 427.665 387.588 427.665 388.792Z" fill="#316FF6"/>
<path d="M434.851 388.792C434.851 389.996 433.875 390.972 432.672 390.972C431.468 390.972 430.492 389.996 430.492 388.792C430.492 387.588 431.468 386.613 432.672 386.613C433.875 386.613 434.851 387.588 434.851 388.792Z" fill="#316FF6"/>
<path d="M442.037 388.792C442.037 389.996 441.061 390.972 439.857 390.972C438.653 390.972 437.678 389.996 437.678 388.792C437.678 387.588 438.653 386.613 439.857 386.613C441.061 386.612 442.037 387.588 442.037 388.792Z" fill="#316FF6"/>
<path d="M411.115 397.51C412.319 397.51 413.294 396.534 413.294 395.331C413.294 394.127 412.319 393.151 411.115 393.151C409.911 393.151 408.936 394.127 408.936 395.331C408.936 396.534 409.911 397.51 411.115 397.51Z" fill="#316FF6"/>
<path d="M420.48 395.331C420.48 396.534 419.504 397.51 418.301 397.51C417.097 397.51 416.121 396.534 416.121 395.331C416.121 394.127 417.097 393.151 418.301 393.151C419.504 393.151 420.48 394.127 420.48 395.331Z" fill="#316FF6"/>
<path d="M425.486 397.51C426.69 397.51 427.665 396.534 427.665 395.331C427.665 394.127 426.69 393.151 425.486 393.151C424.282 393.151 423.307 394.127 423.307 395.331C423.307 396.534 424.282 397.51 425.486 397.51Z" fill="#316FF6"/>
<path d="M434.851 395.331C434.851 396.534 433.875 397.51 432.672 397.51C431.468 397.51 430.492 396.534 430.492 395.331C430.492 394.127 431.468 393.151 432.672 393.151C433.875 393.151 434.851 394.127 434.851 395.331Z" fill="#316FF6"/>
<path d="M442.037 395.331C442.037 396.534 441.061 397.51 439.857 397.51C438.653 397.51 437.678 396.534 437.678 395.331C437.678 394.127 438.653 393.151 439.857 393.151C441.061 393.151 442.037 394.127 442.037 395.331Z" fill="#316FF6"/>
<path d="M406.056 380.073H404.801V397.511H406.056V380.073Z" fill="#263238"/>
<path d="M445.422 344.389H332.668V370.428H445.422V344.389Z" fill="#37474F"/>
<path d="M401.595 348.69H337.414V350.888H401.595V348.69Z" fill="#455A64"/>
<path d="M401.595 352.5H337.414V354.698H401.595V352.5Z" fill="#455A64"/>
<path d="M401.595 356.309H337.414V358.507H401.595V356.309Z" fill="#455A64"/>
<path d="M401.595 360.12H337.414V362.318H401.595V360.12Z" fill="#455A64"/>
<path d="M401.595 363.929H337.414V366.127H401.595V363.929Z" fill="#455A64"/>
<path d="M413.294 350.869C413.294 352.073 412.319 353.049 411.115 353.049C409.911 353.049 408.936 352.073 408.936 350.869C408.936 349.665 409.911 348.69 411.115 348.69C412.319 348.69 413.294 349.665 413.294 350.869Z" fill="#316FF6"/>
<path d="M420.48 350.869C420.48 352.073 419.504 353.049 418.301 353.049C417.097 353.049 416.121 352.073 416.121 350.869C416.121 349.665 417.097 348.69 418.301 348.69C419.504 348.69 420.48 349.665 420.48 350.869Z" fill="#316FF6"/>
<path d="M427.665 350.869C427.665 352.073 426.69 353.049 425.486 353.049C424.282 353.049 423.307 352.073 423.307 350.869C423.307 349.665 424.282 348.69 425.486 348.69C426.69 348.69 427.665 349.665 427.665 350.869Z" fill="#316FF6"/>
<path d="M434.851 350.869C434.851 352.073 433.875 353.049 432.672 353.049C431.468 353.049 430.492 352.073 430.492 350.869C430.492 349.665 431.468 348.69 432.672 348.69C433.875 348.69 434.851 349.665 434.851 350.869Z" fill="#316FF6"/>
<path d="M442.037 350.869C442.037 352.073 441.061 353.049 439.857 353.049C438.653 353.049 437.678 352.073 437.678 350.869C437.678 349.665 438.653 348.69 439.857 348.69C441.061 348.69 442.037 349.665 442.037 350.869Z" fill="#316FF6"/>
<path d="M413.294 357.408C413.294 358.612 412.319 359.588 411.115 359.588C409.911 359.588 408.936 358.612 408.936 357.408C408.936 356.205 409.911 355.229 411.115 355.229C412.319 355.229 413.294 356.205 413.294 357.408Z" fill="#316FF6"/>
<path d="M420.48 357.408C420.48 358.612 419.504 359.588 418.301 359.588C417.097 359.588 416.121 358.612 416.121 357.408C416.121 356.205 417.097 355.229 418.301 355.229C419.504 355.229 420.48 356.205 420.48 357.408Z" fill="#316FF6"/>
<path d="M427.665 357.408C427.665 358.612 426.69 359.588 425.486 359.588C424.282 359.588 423.307 358.612 423.307 357.408C423.307 356.205 424.282 355.229 425.486 355.229C426.69 355.229 427.665 356.205 427.665 357.408Z" fill="#316FF6"/>
<path d="M434.851 357.408C434.851 358.612 433.875 359.588 432.672 359.588C431.468 359.588 430.492 358.612 430.492 357.408C430.492 356.205 431.468 355.229 432.672 355.229C433.875 355.229 434.851 356.205 434.851 357.408Z" fill="#316FF6"/>
<path d="M442.037 357.408C442.037 358.612 441.061 359.588 439.857 359.588C438.653 359.588 437.678 358.612 437.678 357.408C437.678 356.205 438.653 355.229 439.857 355.229C441.061 355.229 442.037 356.205 442.037 357.408Z" fill="#316FF6"/>
<path d="M413.294 363.948C413.294 365.152 412.319 366.127 411.115 366.127C409.911 366.127 408.936 365.152 408.936 363.948C408.936 362.744 409.911 361.768 411.115 361.768C412.319 361.768 413.294 362.744 413.294 363.948Z" fill="#316FF6"/>
<path d="M420.48 363.948C420.48 365.152 419.504 366.127 418.301 366.127C417.097 366.127 416.121 365.152 416.121 363.948C416.121 362.744 417.097 361.768 418.301 361.768C419.504 361.767 420.48 362.744 420.48 363.948Z" fill="#316FF6"/>
<path d="M427.665 363.948C427.665 365.152 426.69 366.127 425.486 366.127C424.282 366.127 423.307 365.152 423.307 363.948C423.307 362.744 424.282 361.768 425.486 361.768C426.69 361.768 427.665 362.744 427.665 363.948Z" fill="#316FF6"/>
<path d="M434.851 363.948C434.851 365.152 433.875 366.127 432.672 366.127C431.468 366.127 430.492 365.152 430.492 363.948C430.492 362.744 431.468 361.768 432.672 361.768C433.875 361.768 434.851 362.744 434.851 363.948Z" fill="#316FF6"/>
<path d="M442.037 363.948C442.037 365.152 441.061 366.127 439.857 366.127C438.653 366.127 437.678 365.152 437.678 363.948C437.678 362.744 438.653 361.768 439.857 361.768C441.061 361.767 442.037 362.744 442.037 363.948Z" fill="#316FF6"/>
<path d="M406.056 348.69H404.801V366.127H406.056V348.69Z" fill="#263238"/>
<path d="M445.422 313.005H332.668V339.044H445.422V313.005Z" fill="#37474F"/>
<path d="M401.595 317.306H337.414V319.504H401.595V317.306Z" fill="#455A64"/>
<path d="M401.595 321.116H337.414V323.314H401.595V321.116Z" fill="#455A64"/>
<path d="M401.595 324.926H337.414V327.124H401.595V324.926Z" fill="#455A64"/>
<path d="M401.595 328.736H337.414V330.934H401.595V328.736Z" fill="#455A64"/>
<path d="M401.595 332.546H337.414V334.744H401.595V332.546Z" fill="#455A64"/>
<path d="M411.115 321.666C412.319 321.666 413.294 320.69 413.294 319.486C413.294 318.283 412.319 317.307 411.115 317.307C409.911 317.307 408.936 318.283 408.936 319.486C408.936 320.69 409.911 321.666 411.115 321.666Z" fill="#316FF6"/>
<path d="M420.48 319.486C420.48 320.69 419.504 321.666 418.301 321.666C417.097 321.666 416.121 320.69 416.121 319.486C416.121 318.282 417.097 317.307 418.301 317.307C419.504 317.306 420.48 318.282 420.48 319.486Z" fill="#316FF6"/>
<path d="M425.486 321.666C426.69 321.666 427.665 320.69 427.665 319.486C427.665 318.283 426.69 317.307 425.486 317.307C424.282 317.307 423.307 318.283 423.307 319.486C423.307 320.69 424.282 321.666 425.486 321.666Z" fill="#316FF6"/>
<path d="M434.851 319.486C434.851 320.69 433.875 321.666 432.672 321.666C431.468 321.666 430.492 320.69 430.492 319.486C430.492 318.282 431.468 317.307 432.672 317.307C433.875 317.307 434.851 318.282 434.851 319.486Z" fill="#316FF6"/>
<path d="M442.037 319.486C442.037 320.69 441.061 321.666 439.857 321.666C438.653 321.666 437.678 320.69 437.678 319.486C437.678 318.282 438.653 317.307 439.857 317.307C441.061 317.306 442.037 318.282 442.037 319.486Z" fill="#316FF6"/>
<path d="M413.294 326.025C413.294 327.229 412.319 328.204 411.115 328.204C409.911 328.204 408.936 327.229 408.936 326.025C408.936 324.821 409.911 323.845 411.115 323.845C412.319 323.845 413.294 324.821 413.294 326.025Z" fill="#316FF6"/>
<path d="M420.48 326.025C420.48 327.229 419.504 328.204 418.301 328.204C417.097 328.204 416.121 327.229 416.121 326.025C416.121 324.821 417.097 323.845 418.301 323.845C419.504 323.845 420.48 324.821 420.48 326.025Z" fill="#316FF6"/>
<path d="M427.665 326.025C427.665 327.229 426.69 328.204 425.486 328.204C424.282 328.204 423.307 327.229 423.307 326.025C423.307 324.821 424.282 323.845 425.486 323.845C426.69 323.845 427.665 324.821 427.665 326.025Z" fill="#316FF6"/>
<path d="M434.851 326.025C434.851 327.229 433.875 328.204 432.672 328.204C431.468 328.204 430.492 327.229 430.492 326.025C430.492 324.821 431.468 323.845 432.672 323.845C433.875 323.845 434.851 324.821 434.851 326.025Z" fill="#316FF6"/>
<path d="M442.037 326.025C442.037 327.229 441.061 328.204 439.857 328.204C438.653 328.204 437.678 327.229 437.678 326.025C437.678 324.821 438.653 323.845 439.857 323.845C441.061 323.845 442.037 324.821 442.037 326.025Z" fill="#316FF6"/>
<path d="M413.294 332.564C413.294 333.768 412.319 334.743 411.115 334.743C409.911 334.743 408.936 333.768 408.936 332.564C408.936 331.36 409.911 330.385 411.115 330.385C412.319 330.385 413.294 331.36 413.294 332.564Z" fill="#316FF6"/>
<path d="M420.48 332.564C420.48 333.768 419.504 334.744 418.301 334.744C417.097 334.744 416.121 333.768 416.121 332.564C416.121 331.36 417.097 330.385 418.301 330.385C419.504 330.384 420.48 331.36 420.48 332.564Z" fill="#316FF6"/>
<path d="M427.665 332.564C427.665 333.768 426.69 334.743 425.486 334.743C424.282 334.743 423.307 333.768 423.307 332.564C423.307 331.36 424.282 330.385 425.486 330.385C426.69 330.385 427.665 331.36 427.665 332.564Z" fill="#316FF6"/>
<path d="M434.851 332.564C434.851 333.768 433.875 334.743 432.672 334.743C431.468 334.743 430.492 333.768 430.492 332.564C430.492 331.36 431.468 330.385 432.672 330.385C433.875 330.385 434.851 331.36 434.851 332.564Z" fill="#316FF6"/>
<path d="M442.037 332.564C442.037 333.768 441.061 334.744 439.857 334.744C438.653 334.744 437.678 333.768 437.678 332.564C437.678 331.36 438.653 330.385 439.857 330.385C441.061 330.384 442.037 331.36 442.037 332.564Z" fill="#316FF6"/>
<path d="M406.056 317.306H404.801V334.744H406.056V317.306Z" fill="#263238"/>
<path d="M445.422 281.621H332.668V307.661H445.422V281.621Z" fill="#37474F"/>
<path d="M401.595 285.923H337.414V288.121H401.595V285.923Z" fill="#455A64"/>
<path d="M401.595 289.732H337.414V291.93H401.595V289.732Z" fill="#455A64"/>
<path d="M401.595 293.543H337.414V295.741H401.595V293.543Z" fill="#455A64"/>
<path d="M401.595 297.352H337.414V299.55H401.595V297.352Z" fill="#455A64"/>
<path d="M401.595 301.162H337.414V303.36H401.595V301.162Z" fill="#455A64"/>
<path d="M413.294 288.103C413.294 289.306 412.319 290.282 411.115 290.282C409.911 290.282 408.936 289.306 408.936 288.103C408.936 286.899 409.911 285.923 411.115 285.923C412.319 285.923 413.294 286.899 413.294 288.103Z" fill="#316FF6"/>
<path d="M420.48 288.103C420.48 289.306 419.504 290.282 418.301 290.282C417.097 290.282 416.121 289.306 416.121 288.103C416.121 286.899 417.097 285.923 418.301 285.923C419.504 285.923 420.48 286.899 420.48 288.103Z" fill="#316FF6"/>
<path d="M427.665 288.103C427.665 289.306 426.69 290.282 425.486 290.282C424.282 290.282 423.307 289.306 423.307 288.103C423.307 286.899 424.282 285.923 425.486 285.923C426.69 285.923 427.665 286.899 427.665 288.103Z" fill="#316FF6"/>
<path d="M434.851 288.103C434.851 289.306 433.875 290.282 432.672 290.282C431.468 290.282 430.492 289.306 430.492 288.103C430.492 286.899 431.468 285.923 432.672 285.923C433.875 285.923 434.851 286.899 434.851 288.103Z" fill="#316FF6"/>
<path d="M442.037 288.103C442.037 289.306 441.061 290.282 439.857 290.282C438.653 290.282 437.678 289.306 437.678 288.103C437.678 286.899 438.653 285.923 439.857 285.923C441.061 285.923 442.037 286.899 442.037 288.103Z" fill="#316FF6"/>
<path d="M411.115 296.82C412.319 296.82 413.294 295.844 413.294 294.641C413.294 293.437 412.319 292.461 411.115 292.461C409.911 292.461 408.936 293.437 408.936 294.641C408.936 295.844 409.911 296.82 411.115 296.82Z" fill="#316FF6"/>
<path d="M420.48 294.641C420.48 295.845 419.504 296.82 418.301 296.82C417.097 296.82 416.121 295.845 416.121 294.641C416.121 293.437 417.097 292.461 418.301 292.461C419.504 292.461 420.48 293.438 420.48 294.641Z" fill="#316FF6"/>
<path d="M425.486 296.82C426.69 296.82 427.665 295.844 427.665 294.641C427.665 293.437 426.69 292.461 425.486 292.461C424.282 292.461 423.307 293.437 423.307 294.641C423.307 295.844 424.282 296.82 425.486 296.82Z" fill="#316FF6"/>
<path d="M434.851 294.641C434.851 295.845 433.875 296.82 432.672 296.82C431.468 296.82 430.492 295.845 430.492 294.641C430.492 293.437 431.468 292.461 432.672 292.461C433.875 292.461 434.851 293.438 434.851 294.641Z" fill="#316FF6"/>
<path d="M442.037 294.641C442.037 295.845 441.061 296.82 439.857 296.82C438.653 296.82 437.678 295.845 437.678 294.641C437.678 293.437 438.653 292.461 439.857 292.461C441.061 292.461 442.037 293.438 442.037 294.641Z" fill="#316FF6"/>
<path d="M411.115 303.36C412.319 303.36 413.294 302.384 413.294 301.18C413.294 299.977 412.319 299.001 411.115 299.001C409.911 299.001 408.936 299.977 408.936 301.18C408.936 302.384 409.911 303.36 411.115 303.36Z" fill="#316FF6"/>
<path d="M420.48 301.18C420.48 302.384 419.504 303.36 418.301 303.36C417.097 303.36 416.121 302.384 416.121 301.18C416.121 299.976 417.097 299.001 418.301 299.001C419.504 299.001 420.48 299.976 420.48 301.18Z" fill="#316FF6"/>
<path d="M425.486 303.36C426.69 303.36 427.665 302.384 427.665 301.18C427.665 299.977 426.69 299.001 425.486 299.001C424.282 299.001 423.307 299.977 423.307 301.18C423.307 302.384 424.282 303.36 425.486 303.36Z" fill="#316FF6"/>
<path d="M434.851 301.18C434.851 302.384 433.875 303.36 432.672 303.36C431.468 303.36 430.492 302.384 430.492 301.18C430.492 299.976 431.468 299.001 432.672 299.001C433.875 299.001 434.851 299.976 434.851 301.18Z" fill="#316FF6"/>
<path d="M442.037 301.18C442.037 302.384 441.061 303.36 439.857 303.36C438.653 303.36 437.678 302.384 437.678 301.18C437.678 299.976 438.653 299.001 439.857 299.001C441.061 299.001 442.037 299.976 442.037 301.18Z" fill="#316FF6"/>
<path d="M406.056 285.923H404.801V303.361H406.056V285.923Z" fill="#263238"/>
<path d="M445.422 250.238H332.668V276.278H445.422V250.238Z" fill="#37474F"/>
<path d="M401.595 254.539H337.414V256.737H401.595V254.539Z" fill="#455A64"/>
<path d="M401.595 258.349H337.414V260.547H401.595V258.349Z" fill="#455A64"/>
<path d="M401.595 262.159H337.414V264.357H401.595V262.159Z" fill="#455A64"/>
<path d="M401.595 265.968H337.414V268.166H401.595V265.968Z" fill="#455A64"/>
<path d="M401.595 269.779H337.414V271.977H401.595V269.779Z" fill="#455A64"/>
<path d="M411.115 258.898C412.319 258.898 413.294 257.922 413.294 256.719C413.294 255.515 412.319 254.539 411.115 254.539C409.911 254.539 408.936 255.515 408.936 256.719C408.936 257.922 409.911 258.898 411.115 258.898Z" fill="#316FF6"/>
<path d="M420.48 256.719C420.48 257.922 419.504 258.898 418.301 258.898C417.097 258.898 416.121 257.922 416.121 256.719C416.121 255.515 417.097 254.539 418.301 254.539C419.504 254.539 420.48 255.515 420.48 256.719Z" fill="#316FF6"/>
<path d="M425.486 258.898C426.69 258.898 427.665 257.922 427.665 256.719C427.665 255.515 426.69 254.539 425.486 254.539C424.282 254.539 423.307 255.515 423.307 256.719C423.307 257.922 424.282 258.898 425.486 258.898Z" fill="#316FF6"/>
<path d="M434.851 256.719C434.851 257.922 433.875 258.898 432.672 258.898C431.468 258.898 430.492 257.922 430.492 256.719C430.492 255.515 431.468 254.539 432.672 254.539C433.875 254.539 434.851 255.515 434.851 256.719Z" fill="#316FF6"/>
<path d="M442.037 256.719C442.037 257.922 441.061 258.898 439.857 258.898C438.653 258.898 437.678 257.922 437.678 256.719C437.678 255.515 438.653 254.539 439.857 254.539C441.061 254.539 442.037 255.515 442.037 256.719Z" fill="#316FF6"/>
<path d="M411.115 265.437C412.319 265.437 413.294 264.462 413.294 263.258C413.294 262.054 412.319 261.079 411.115 261.079C409.911 261.079 408.936 262.054 408.936 263.258C408.936 264.462 409.911 265.437 411.115 265.437Z" fill="#316FF6"/>
<path d="M420.48 263.258C420.48 264.462 419.504 265.437 418.301 265.437C417.097 265.437 416.121 264.462 416.121 263.258C416.121 262.054 417.097 261.079 418.301 261.079C419.504 261.077 420.48 262.054 420.48 263.258Z" fill="#316FF6"/>
<path d="M425.486 265.437C426.69 265.437 427.665 264.462 427.665 263.258C427.665 262.054 426.69 261.079 425.486 261.079C424.282 261.079 423.307 262.054 423.307 263.258C423.307 264.462 424.282 265.437 425.486 265.437Z" fill="#316FF6"/>
<path d="M434.851 263.258C434.851 264.462 433.875 265.437 432.672 265.437C431.468 265.437 430.492 264.462 430.492 263.258C430.492 262.054 431.468 261.079 432.672 261.079C433.875 261.079 434.851 262.054 434.851 263.258Z" fill="#316FF6"/>
<path d="M442.037 263.258C442.037 264.462 441.061 265.437 439.857 265.437C438.653 265.437 437.678 264.462 437.678 263.258C437.678 262.054 438.653 261.079 439.857 261.079C441.061 261.077 442.037 262.054 442.037 263.258Z" fill="#316FF6"/>
<path d="M413.294 269.796C413.294 271 412.319 271.976 411.115 271.976C409.911 271.976 408.936 271 408.936 269.796C408.936 268.592 409.911 267.617 411.115 267.617C412.319 267.617 413.294 268.592 413.294 269.796Z" fill="#316FF6"/>
<path d="M420.48 269.796C420.48 271 419.504 271.976 418.301 271.976C417.097 271.976 416.121 271 416.121 269.796C416.121 268.592 417.097 267.617 418.301 267.617C419.504 267.617 420.48 268.592 420.48 269.796Z" fill="#316FF6"/>
<path d="M427.665 269.796C427.665 271 426.69 271.976 425.486 271.976C424.282 271.976 423.307 271 423.307 269.796C423.307 268.592 424.282 267.617 425.486 267.617C426.69 267.617 427.665 268.592 427.665 269.796Z" fill="#316FF6"/>
<path d="M434.851 269.796C434.851 271 433.875 271.976 432.672 271.976C431.468 271.976 430.492 271 430.492 269.796C430.492 268.592 431.468 267.617 432.672 267.617C433.875 267.617 434.851 268.592 434.851 269.796Z" fill="#316FF6"/>
<path d="M442.037 269.796C442.037 271 441.061 271.976 439.857 271.976C438.653 271.976 437.678 271 437.678 269.796C437.678 268.592 438.653 267.617 439.857 267.617C441.061 267.617 442.037 268.592 442.037 269.796Z" fill="#316FF6"/>
<path d="M406.056 254.539H404.801V271.977H406.056V254.539Z" fill="#263238"/>
<path d="M445.422 218.854H332.668V244.894H445.422V218.854Z" fill="#37474F"/>
<path d="M401.595 223.155H337.414V225.353H401.595V223.155Z" fill="#455A64"/>
<path d="M401.595 226.965H337.414V229.163H401.595V226.965Z" fill="#455A64"/>
<path d="M401.595 230.775H337.414V232.973H401.595V230.775Z" fill="#455A64"/>
<path d="M401.595 234.585H337.414V236.783H401.595V234.585Z" fill="#455A64"/>
<path d="M401.595 238.395H337.414V240.593H401.595V238.395Z" fill="#455A64"/>
<path d="M413.294 225.335C413.294 226.539 412.319 227.514 411.115 227.514C409.911 227.514 408.936 226.539 408.936 225.335C408.936 224.131 409.911 223.155 411.115 223.155C412.319 223.155 413.294 224.131 413.294 225.335Z" fill="#316FF6"/>
<path d="M420.48 225.335C420.48 226.539 419.504 227.514 418.301 227.514C417.097 227.514 416.121 226.539 416.121 225.335C416.121 224.131 417.097 223.155 418.301 223.155C419.504 223.155 420.48 224.131 420.48 225.335Z" fill="#316FF6"/>
<path d="M427.665 225.335C427.665 226.539 426.69 227.514 425.486 227.514C424.282 227.514 423.307 226.539 423.307 225.335C423.307 224.131 424.282 223.155 425.486 223.155C426.69 223.155 427.665 224.131 427.665 225.335Z" fill="#316FF6"/>
<path d="M434.851 225.335C434.851 226.539 433.875 227.514 432.672 227.514C431.468 227.514 430.492 226.539 430.492 225.335C430.492 224.131 431.468 223.155 432.672 223.155C433.875 223.155 434.851 224.131 434.851 225.335Z" fill="#316FF6"/>
<path d="M442.037 225.335C442.037 226.539 441.061 227.514 439.857 227.514C438.653 227.514 437.678 226.539 437.678 225.335C437.678 224.131 438.653 223.155 439.857 223.155C441.061 223.155 442.037 224.131 442.037 225.335Z" fill="#316FF6"/>
<path d="M413.294 231.874C413.294 233.078 412.319 234.054 411.115 234.054C409.911 234.054 408.936 233.078 408.936 231.874C408.936 230.67 409.911 229.695 411.115 229.695C412.319 229.695 413.294 230.67 413.294 231.874Z" fill="#316FF6"/>
<path d="M420.48 231.874C420.48 233.078 419.504 234.054 418.301 234.054C417.097 234.054 416.121 233.078 416.121 231.874C416.121 230.67 417.097 229.695 418.301 229.695C419.504 229.695 420.48 230.67 420.48 231.874Z" fill="#316FF6"/>
<path d="M427.665 231.874C427.665 233.078 426.69 234.054 425.486 234.054C424.282 234.054 423.307 233.078 423.307 231.874C423.307 230.67 424.282 229.695 425.486 229.695C426.69 229.695 427.665 230.67 427.665 231.874Z" fill="#316FF6"/>
<path d="M434.851 231.874C434.851 233.078 433.875 234.054 432.672 234.054C431.468 234.054 430.492 233.078 430.492 231.874C430.492 230.67 431.468 229.695 432.672 229.695C433.875 229.695 434.851 230.67 434.851 231.874Z" fill="#316FF6"/>
<path d="M442.037 231.874C442.037 233.078 441.061 234.054 439.857 234.054C438.653 234.054 437.678 233.078 437.678 231.874C437.678 230.67 438.653 229.695 439.857 229.695C441.061 229.695 442.037 230.67 442.037 231.874Z" fill="#316FF6"/>
<path d="M413.294 238.413C413.294 239.616 412.319 240.592 411.115 240.592C409.911 240.592 408.936 239.616 408.936 238.413C408.936 237.209 409.911 236.233 411.115 236.233C412.319 236.233 413.294 237.21 413.294 238.413Z" fill="#316FF6"/>
<path d="M420.48 238.413C420.48 239.616 419.504 240.592 418.301 240.592C417.097 240.592 416.121 239.616 416.121 238.413C416.121 237.209 417.097 236.233 418.301 236.233C419.504 236.233 420.48 237.21 420.48 238.413Z" fill="#316FF6"/>
<path d="M427.665 238.413C427.665 239.616 426.69 240.592 425.486 240.592C424.282 240.592 423.307 239.616 423.307 238.413C423.307 237.209 424.282 236.233 425.486 236.233C426.69 236.233 427.665 237.21 427.665 238.413Z" fill="#316FF6"/>
<path d="M434.851 238.413C434.851 239.616 433.875 240.592 432.672 240.592C431.468 240.592 430.492 239.616 430.492 238.413C430.492 237.209 431.468 236.233 432.672 236.233C433.875 236.233 434.851 237.21 434.851 238.413Z" fill="#316FF6"/>
<path d="M442.037 238.413C442.037 239.616 441.061 240.592 439.857 240.592C438.653 240.592 437.678 239.616 437.678 238.413C437.678 237.209 438.653 236.233 439.857 236.233C441.061 236.233 442.037 237.21 442.037 238.413Z" fill="#316FF6"/>
<path d="M406.056 223.155H404.801V240.593H406.056V223.155Z" fill="#263238"/>
<path d="M445.422 187.471H332.668V213.51H445.422V187.471Z" fill="#37474F"/>
<path d="M401.595 191.772H337.414V193.97H401.595V191.772Z" fill="#455A64"/>
<path d="M401.595 195.582H337.414V197.78H401.595V195.582Z" fill="#455A64"/>
<path d="M401.595 199.391H337.414V201.589H401.595V199.391Z" fill="#455A64"/>
<path d="M401.595 203.202H337.414V205.4H401.595V203.202Z" fill="#455A64"/>
<path d="M401.595 207.011H337.414V209.209H401.595V207.011Z" fill="#455A64"/>
<path d="M413.294 193.951C413.294 195.155 412.319 196.13 411.115 196.13C409.911 196.13 408.936 195.155 408.936 193.951C408.936 192.747 409.911 191.772 411.115 191.772C412.319 191.772 413.294 192.748 413.294 193.951Z" fill="#316FF6"/>
<path d="M420.48 193.951C420.48 195.155 419.504 196.13 418.301 196.13C417.097 196.13 416.121 195.155 416.121 193.951C416.121 192.747 417.097 191.772 418.301 191.772C419.504 191.772 420.48 192.748 420.48 193.951Z" fill="#316FF6"/>
<path d="M427.665 193.951C427.665 195.155 426.69 196.13 425.486 196.13C424.282 196.13 423.307 195.155 423.307 193.951C423.307 192.747 424.282 191.772 425.486 191.772C426.69 191.772 427.665 192.748 427.665 193.951Z" fill="#316FF6"/>
<path d="M434.851 193.951C434.851 195.155 433.875 196.13 432.672 196.13C431.468 196.13 430.492 195.155 430.492 193.951C430.492 192.747 431.468 191.772 432.672 191.772C433.875 191.772 434.851 192.748 434.851 193.951Z" fill="#316FF6"/>
<path d="M442.037 193.951C442.037 195.155 441.061 196.13 439.857 196.13C438.653 196.13 437.678 195.155 437.678 193.951C437.678 192.747 438.653 191.772 439.857 191.772C441.061 191.772 442.037 192.748 442.037 193.951Z" fill="#316FF6"/>
<path d="M413.294 200.49C413.294 201.694 412.319 202.67 411.115 202.67C409.911 202.67 408.936 201.694 408.936 200.49C408.936 199.287 409.911 198.311 411.115 198.311C412.319 198.311 413.294 199.287 413.294 200.49Z" fill="#316FF6"/>
<path d="M420.48 200.49C420.48 201.694 419.504 202.67 418.301 202.67C417.097 202.67 416.121 201.694 416.121 200.49C416.121 199.287 417.097 198.311 418.301 198.311C419.504 198.311 420.48 199.287 420.48 200.49Z" fill="#316FF6"/>
<path d="M427.665 200.49C427.665 201.694 426.69 202.67 425.486 202.67C424.282 202.67 423.307 201.694 423.307 200.49C423.307 199.287 424.282 198.311 425.486 198.311C426.69 198.311 427.665 199.287 427.665 200.49Z" fill="#316FF6"/>
<path d="M434.851 200.49C434.851 201.694 433.875 202.67 432.672 202.67C431.468 202.67 430.492 201.694 430.492 200.49C430.492 199.287 431.468 198.311 432.672 198.311C433.875 198.311 434.851 199.287 434.851 200.49Z" fill="#316FF6"/>
<path d="M442.037 200.49C442.037 201.694 441.061 202.67 439.857 202.67C438.653 202.67 437.678 201.694 437.678 200.49C437.678 199.287 438.653 198.311 439.857 198.311C441.061 198.311 442.037 199.287 442.037 200.49Z" fill="#316FF6"/>
<path d="M413.294 207.03C413.294 208.234 412.319 209.209 411.115 209.209C409.911 209.209 408.936 208.234 408.936 207.03C408.936 205.826 409.911 204.85 411.115 204.85C412.319 204.85 413.294 205.826 413.294 207.03Z" fill="#316FF6"/>
<path d="M420.48 207.03C420.48 208.234 419.504 209.209 418.301 209.209C417.097 209.209 416.121 208.234 416.121 207.03C416.121 205.826 417.097 204.85 418.301 204.85C419.504 204.849 420.48 205.826 420.48 207.03Z" fill="#316FF6"/>
<path d="M427.665 207.03C427.665 208.234 426.69 209.209 425.486 209.209C424.282 209.209 423.307 208.234 423.307 207.03C423.307 205.826 424.282 204.85 425.486 204.85C426.69 204.85 427.665 205.826 427.665 207.03Z" fill="#316FF6"/>
<path d="M434.851 207.03C434.851 208.234 433.875 209.209 432.672 209.209C431.468 209.209 430.492 208.234 430.492 207.03C430.492 205.826 431.468 204.85 432.672 204.85C433.875 204.85 434.851 205.826 434.851 207.03Z" fill="#316FF6"/>
<path d="M442.037 207.03C442.037 208.234 441.061 209.209 439.857 209.209C438.653 209.209 437.678 208.234 437.678 207.03C437.678 205.826 438.653 204.85 439.857 204.85C441.061 204.849 442.037 205.826 442.037 207.03Z" fill="#316FF6"/>
<path d="M406.056 191.772H404.801V209.209H406.056V191.772Z" fill="#263238"/>
<path d="M445.422 156.087H332.668V182.126H445.422V156.087Z" fill="#37474F"/>
<path d="M401.595 160.389H337.414V162.587H401.595V160.389Z" fill="#455A64"/>
<path d="M401.595 164.198H337.414V166.396H401.595V164.198Z" fill="#455A64"/>
<path d="M401.595 168.008H337.414V170.206H401.595V168.008Z" fill="#455A64"/>
<path d="M401.595 171.818H337.414V174.016H401.595V171.818Z" fill="#455A64"/>
<path d="M401.595 175.627H337.414V177.825H401.595V175.627Z" fill="#455A64"/>
<path d="M413.294 162.568C413.294 163.772 412.319 164.748 411.115 164.748C409.911 164.748 408.936 163.772 408.936 162.568C408.936 161.364 409.911 160.389 411.115 160.389C412.319 160.389 413.294 161.364 413.294 162.568Z" fill="#316FF6"/>
<path d="M420.48 162.568C420.48 163.772 419.504 164.748 418.301 164.748C417.097 164.748 416.121 163.772 416.121 162.568C416.121 161.364 417.097 160.389 418.301 160.389C419.504 160.389 420.48 161.364 420.48 162.568Z" fill="#316FF6"/>
<path d="M427.665 162.568C427.665 163.772 426.69 164.748 425.486 164.748C424.282 164.748 423.307 163.772 423.307 162.568C423.307 161.364 424.282 160.389 425.486 160.389C426.69 160.389 427.665 161.364 427.665 162.568Z" fill="#316FF6"/>
<path d="M434.851 162.568C434.851 163.772 433.875 164.748 432.672 164.748C431.468 164.748 430.492 163.772 430.492 162.568C430.492 161.364 431.468 160.389 432.672 160.389C433.875 160.389 434.851 161.364 434.851 162.568Z" fill="#316FF6"/>
<path d="M442.037 162.568C442.037 163.772 441.061 164.748 439.857 164.748C438.653 164.748 437.678 163.772 437.678 162.568C437.678 161.364 438.653 160.389 439.857 160.389C441.061 160.389 442.037 161.364 442.037 162.568Z" fill="#316FF6"/>
<path d="M411.115 171.286C412.319 171.286 413.294 170.31 413.294 169.107C413.294 167.903 412.319 166.927 411.115 166.927C409.911 166.927 408.936 167.903 408.936 169.107C408.936 170.31 409.911 171.286 411.115 171.286Z" fill="#316FF6"/>
<path d="M420.48 169.107C420.48 170.31 419.504 171.286 418.301 171.286C417.097 171.286 416.121 170.31 416.121 169.107C416.121 167.903 417.097 166.927 418.301 166.927C419.504 166.927 420.48 167.903 420.48 169.107Z" fill="#316FF6"/>
<path d="M425.486 171.286C426.69 171.286 427.665 170.31 427.665 169.107C427.665 167.903 426.69 166.927 425.486 166.927C424.282 166.927 423.307 167.903 423.307 169.107C423.307 170.31 424.282 171.286 425.486 171.286Z" fill="#316FF6"/>
<path d="M434.851 169.107C434.851 170.31 433.875 171.286 432.672 171.286C431.468 171.286 430.492 170.31 430.492 169.107C430.492 167.903 431.468 166.927 432.672 166.927C433.875 166.927 434.851 167.903 434.851 169.107Z" fill="#316FF6"/>
<path d="M442.037 169.107C442.037 170.31 441.061 171.286 439.857 171.286C438.653 171.286 437.678 170.31 437.678 169.107C437.678 167.903 438.653 166.927 439.857 166.927C441.061 166.927 442.037 167.903 442.037 169.107Z" fill="#316FF6"/>
<path d="M413.294 175.646C413.294 176.85 412.319 177.825 411.115 177.825C409.911 177.825 408.936 176.85 408.936 175.646C408.936 174.442 409.911 173.466 411.115 173.466C412.319 173.466 413.294 174.442 413.294 175.646Z" fill="#316FF6"/>
<path d="M420.48 175.646C420.48 176.85 419.504 177.825 418.301 177.825C417.097 177.825 416.121 176.85 416.121 175.646C416.121 174.442 417.097 173.466 418.301 173.466C419.504 173.466 420.48 174.442 420.48 175.646Z" fill="#316FF6"/>
<path d="M427.665 175.646C427.665 176.85 426.69 177.825 425.486 177.825C424.282 177.825 423.307 176.85 423.307 175.646C423.307 174.442 424.282 173.466 425.486 173.466C426.69 173.466 427.665 174.442 427.665 175.646Z" fill="#316FF6"/>
<path d="M434.851 175.646C434.851 176.85 433.875 177.825 432.672 177.825C431.468 177.825 430.492 176.85 430.492 175.646C430.492 174.442 431.468 173.466 432.672 173.466C433.875 173.466 434.851 174.442 434.851 175.646Z" fill="#316FF6"/>
<path d="M442.037 175.646C442.037 176.85 441.061 177.825 439.857 177.825C438.653 177.825 437.678 176.85 437.678 175.646C437.678 174.442 438.653 173.466 439.857 173.466C441.061 173.466 442.037 174.442 442.037 175.646Z" fill="#316FF6"/>
<path d="M406.056 160.389H404.801V177.826H406.056V160.389Z" fill="#263238"/>
<path d="M427.027 134.415H278.398V142.673H427.027V134.415Z" fill="#37474F"/>
<path d="M279.891 369.517H263.293V386.115H279.891V369.517Z" fill="#263238"/>
<path d="M28.5703 197.606V181.884H31.0502V197.606H28.5703Z" fill="#263238"/>
<path d="M37.0736 186.534V197.606H34.5938V181.884H36.5416L45.5324 193.221V181.906H48.0341V197.606H45.9749L37.0736 186.534Z" fill="#263238"/>
<path d="M63.1128 184.076H57.8865V197.606H55.3848V184.076H50.1367V181.884H63.1128V184.076Z" fill="#263238"/>
<path d="M76.0023 195.414V197.606H65.2188V181.884H75.8035V184.076H67.6986V188.549H74.7176V190.608H67.6986V195.413L76.0023 195.414Z" fill="#263238"/>
<path d="M78.5703 197.606V181.884H85.4123C86.1213 181.884 86.7746 182.031 87.3722 182.326C87.9708 182.621 88.4832 183.009 88.9114 183.489C89.3397 183.968 89.675 184.514 89.9187 185.127C90.1623 185.74 90.2846 186.364 90.2846 186.999C90.2846 187.53 90.2103 188.04 90.0629 188.526C89.9154 189.013 89.7089 189.464 89.4423 189.877C89.1769 190.29 88.8513 190.649 88.4679 190.951C88.0844 191.254 87.6628 191.48 87.2061 191.626L90.904 197.605H88.0921L84.6815 192.135H81.0502V197.605H78.5703V197.606ZM81.0502 189.944H85.3905C85.7444 189.944 86.0656 189.866 86.354 189.711C86.6424 189.556 86.8893 189.343 87.0958 189.069C87.3022 188.796 87.465 188.482 87.583 188.128C87.701 187.774 87.76 187.397 87.76 186.999C87.76 186.6 87.6901 186.223 87.5491 185.869C87.4093 185.515 87.2247 185.205 86.9964 184.939C86.7669 184.674 86.5015 184.463 86.1989 184.309C85.8963 184.154 85.5827 184.076 85.2583 184.076H81.0513L81.0502 189.944Z" fill="#263238"/>
<path d="M95.6888 186.534V197.606H93.209V181.884H95.1579L104.149 193.221V181.906H106.65V197.606H104.591L95.6888 186.534Z" fill="#263238"/>
<path d="M114.819 181.884H116.989L123.189 197.606H120.576L118.915 193.333H112.848L111.209 197.606H108.574L114.819 181.884ZM118.428 191.494L115.903 184.741L113.29 191.494H118.428Z" fill="#263238"/>
<path d="M125.139 197.606V181.884H127.619V195.414H136.056V197.606H125.139Z" fill="#263238"/>
<path d="M152.243 185.582C152.095 185.419 151.881 185.246 151.601 185.061C151.32 184.876 150.992 184.703 150.615 184.54C150.238 184.378 149.825 184.245 149.375 184.141C148.925 184.037 148.464 183.986 147.992 183.986C146.944 183.986 146.172 184.178 145.678 184.561C145.184 184.946 144.937 185.477 144.937 186.156C144.937 186.541 145.014 186.854 145.169 187.097C145.324 187.341 145.565 187.555 145.889 187.739C146.214 187.924 146.62 188.086 147.107 188.227C147.595 188.367 148.163 188.518 148.813 188.68C149.61 188.872 150.329 189.086 150.971 189.322C151.614 189.558 152.157 189.847 152.599 190.185C153.042 190.525 153.386 190.942 153.629 191.437C153.873 191.932 153.994 192.533 153.994 193.242C153.994 194.039 153.842 194.726 153.541 195.301C153.238 195.877 152.824 196.346 152.301 196.707C151.776 197.069 151.168 197.334 150.474 197.505C149.781 197.674 149.036 197.759 148.238 197.759C147.042 197.759 145.887 197.579 144.773 197.216C143.657 196.855 142.65 196.327 141.75 195.633L142.88 193.507C143.071 193.7 143.348 193.914 143.71 194.15C144.071 194.386 144.492 194.604 144.972 194.803C145.451 195.002 145.971 195.172 146.533 195.312C147.093 195.452 147.677 195.523 148.282 195.523C149.256 195.523 150.009 195.354 150.541 195.013C151.073 194.674 151.338 194.172 151.338 193.507C151.338 193.109 151.238 192.777 151.039 192.511C150.84 192.246 150.555 192.013 150.187 191.813C149.818 191.614 149.368 191.433 148.836 191.27C148.305 191.107 147.698 190.938 147.02 190.761C146.237 190.555 145.554 190.336 144.972 190.108C144.388 189.878 143.904 189.602 143.521 189.277C143.137 188.952 142.846 188.573 142.647 188.137C142.447 187.702 142.348 187.173 142.348 186.554C142.348 185.786 142.495 185.103 142.79 184.506C143.085 183.908 143.487 183.407 143.996 183C144.506 182.595 145.107 182.288 145.801 182.082C146.495 181.875 147.247 181.771 148.06 181.771C149.123 181.771 150.104 181.942 151.005 182.28C151.905 182.62 152.695 183.041 153.375 183.543L152.243 185.582Z" fill="#263238"/>
<path d="M167.256 195.414V197.606H156.473V181.884H167.057V184.076H158.953V188.549H165.973V190.608H158.953V195.413L167.256 195.414Z" fill="#263238"/>
<path d="M169.824 197.606V181.884H176.666C177.375 181.884 178.028 182.031 178.626 182.326C179.225 182.621 179.737 183.009 180.165 183.489C180.594 183.968 180.929 184.514 181.173 185.127C181.416 185.74 181.539 186.364 181.539 186.999C181.539 187.53 181.464 188.04 181.317 188.526C181.169 189.013 180.963 189.464 180.696 189.877C180.431 190.29 180.105 190.649 179.722 190.951C179.338 191.254 178.917 191.48 178.46 191.626L182.158 197.605H179.346L175.935 192.135H172.304V197.605H169.824V197.606ZM172.304 189.944H176.644C176.998 189.944 177.32 189.866 177.608 189.711C177.896 189.556 178.143 189.343 178.35 189.069C178.556 188.796 178.719 188.482 178.837 188.128C178.955 187.774 179.014 187.397 179.014 186.999C179.014 186.6 178.944 186.223 178.803 185.869C178.663 185.515 178.478 185.205 178.249 184.939C178.02 184.674 177.754 184.463 177.452 184.309C177.149 184.154 176.834 184.076 176.51 184.076H172.303V189.944H172.304Z" fill="#263238"/>
<path d="M185.081 181.884L189.82 194.483L194.537 181.884H197.172L190.882 197.606H188.756L182.445 181.884H185.081Z" fill="#263238"/>
<path d="M209.883 195.414V197.606H199.1V181.884H209.684V184.076H201.579V188.549H208.598V190.608H201.579V195.413L209.883 195.414Z" fill="#263238"/>
<path d="M212.451 197.606V181.884H219.293C220.002 181.884 220.655 182.031 221.253 182.326C221.852 182.621 222.364 183.009 222.792 183.489C223.219 183.968 223.556 184.514 223.8 185.127C224.043 185.74 224.165 186.364 224.165 186.999C224.165 187.53 224.091 188.04 223.944 188.526C223.796 189.013 223.59 189.464 223.324 189.877C223.058 190.29 222.733 190.649 222.35 190.951C221.966 191.254 221.545 191.48 221.088 191.626L224.786 197.605H221.974L218.563 192.135H214.932V197.605H212.451V197.606ZM214.931 189.944H219.271C219.625 189.944 219.946 189.866 220.235 189.711C220.523 189.556 220.77 189.343 220.977 189.069C221.183 188.796 221.346 188.482 221.464 188.128C221.582 187.774 221.641 187.397 221.641 186.999C221.641 186.6 221.571 186.223 221.43 185.869C221.29 185.515 221.104 185.205 220.876 184.939C220.647 184.674 220.381 184.463 220.079 184.309C219.776 184.154 219.462 184.076 219.137 184.076H214.93V189.944H214.931Z" fill="#263238"/>
<path d="M104.033 218.565V221.754H92.9824V206.032H103.833V209.221H96.6137V212.278H102.813V215.223H96.6137V218.567H104.033V218.565Z" fill="#263238"/>
<path d="M106.246 221.754V206.032H113.332C114.069 206.032 114.753 206.187 115.38 206.497C116.007 206.807 116.549 207.213 117.008 207.715C117.464 208.216 117.823 208.785 118.082 209.42C118.339 210.055 118.47 210.697 118.47 211.346C118.47 211.833 118.411 212.302 118.293 212.752C118.175 213.202 118.004 213.626 117.783 214.025C117.562 214.423 117.292 214.782 116.975 215.099C116.658 215.416 116.3 215.685 115.901 215.907L119.355 221.754H115.259L112.248 216.683H109.878V221.754H106.246ZM109.878 213.517H113.2C113.628 213.517 113.997 213.314 114.306 212.907C114.616 212.501 114.772 211.981 114.772 211.346C114.772 210.697 114.595 210.18 114.241 209.796C113.887 209.412 113.502 209.22 113.089 209.22H109.878V213.517Z" fill="#263238"/>
<path d="M121.082 221.754V206.032H128.168C128.906 206.032 129.589 206.187 130.216 206.497C130.843 206.807 131.386 207.213 131.844 207.715C132.3 208.216 132.659 208.785 132.918 209.42C133.175 210.055 133.305 210.697 133.305 211.346C133.305 211.833 133.246 212.302 133.128 212.752C133.01 213.202 132.84 213.626 132.619 214.025C132.398 214.423 132.128 214.782 131.811 215.099C131.494 215.416 131.136 215.685 130.737 215.907L134.191 221.754H130.095L127.084 216.683H124.714V221.754H121.082ZM124.714 213.517H128.035C128.464 213.517 128.833 213.314 129.142 212.907C129.452 212.501 129.607 211.981 129.607 211.346C129.607 210.697 129.431 210.18 129.075 209.796C128.722 209.412 128.337 209.22 127.924 209.22H124.713V213.517H124.714Z" fill="#263238"/>
<path d="M142.807 221.886C141.641 221.886 140.578 221.658 139.619 221.2C138.659 220.743 137.839 220.141 137.161 219.395C136.481 218.65 135.953 217.797 135.577 216.838C135.201 215.878 135.012 214.889 135.012 213.871C135.012 212.837 135.207 211.841 135.598 210.882C135.989 209.923 136.536 209.077 137.237 208.346C137.938 207.615 138.769 207.032 139.729 206.597C140.688 206.162 141.737 205.944 142.873 205.944C144.039 205.944 145.102 206.172 146.062 206.63C147.021 207.088 147.84 207.693 148.52 208.446C149.198 209.198 149.723 210.055 150.092 211.014C150.461 211.973 150.646 212.948 150.646 213.937C150.646 214.971 150.449 215.967 150.059 216.926C149.668 217.885 149.125 218.731 148.431 219.462C147.737 220.193 146.911 220.779 145.951 221.222C144.992 221.665 143.944 221.886 142.807 221.886ZM138.711 213.914C138.711 214.52 138.799 215.106 138.976 215.675C139.153 216.243 139.415 216.749 139.763 217.192C140.109 217.634 140.541 217.989 141.058 218.255C141.575 218.52 142.165 218.653 142.829 218.653C143.523 218.653 144.128 218.514 144.645 218.233C145.162 217.952 145.59 217.587 145.929 217.137C146.268 216.687 146.523 216.178 146.692 215.609C146.861 215.041 146.947 214.461 146.947 213.871C146.947 213.265 146.858 212.679 146.681 212.11C146.504 211.542 146.239 211.039 145.884 210.604C145.53 210.169 145.097 209.822 144.588 209.563C144.079 209.305 143.492 209.175 142.827 209.175C142.133 209.175 141.533 209.312 141.022 209.585C140.513 209.858 140.085 210.216 139.739 210.659C139.391 211.101 139.134 211.607 138.964 212.175C138.795 212.745 138.711 213.324 138.711 213.914Z" fill="#263238"/>
<path d="M152.748 221.754V206.032H159.834C160.571 206.032 161.255 206.187 161.882 206.497C162.509 206.807 163.052 207.213 163.51 207.715C163.966 208.216 164.325 208.785 164.584 209.42C164.841 210.055 164.971 210.697 164.971 211.346C164.971 211.833 164.912 212.302 164.794 212.752C164.676 213.202 164.506 213.626 164.285 214.025C164.064 214.423 163.794 214.782 163.477 215.099C163.16 215.416 162.802 215.685 162.403 215.907L165.857 221.754H161.761L158.75 216.683H156.38V221.754H152.748ZM156.379 213.517H159.7C160.128 213.517 160.498 213.314 160.807 212.907C161.117 212.501 161.272 211.981 161.272 211.346C161.272 210.697 161.095 210.18 160.741 209.796C160.388 209.412 160.003 209.22 159.59 209.22H156.379V213.517Z" fill="#263238"/>
<path d="M50.1113 73.6922V97.9565C51.8002 95.552 54.1807 93.6872 57.2548 92.3643C58.8826 91.7033 60.7823 91.3723 62.953 91.3723C70.4276 91.3723 75.9455 93.9876 79.5036 99.2194C82.5788 103.729 84.117 110.105 84.117 118.342V142.696C84.117 151.055 81.47 157.91 76.1793 163.261C71.1278 168.434 64.7534 171.018 57.0571 171.018C49.6 171.018 43.4059 168.312 38.4756 162.9C33.7246 157.73 31.3496 151.415 31.3496 143.958V141.252L47.6762 139.99L48.0378 143.869C48.4573 148.378 50.2927 151.386 53.5394 152.888C54.5008 153.37 55.5233 153.61 56.6059 153.61C63.5812 153.61 67.0694 149.972 67.0694 142.697V115.005C67.0694 111.698 65.86 108.962 63.4413 106.797C62.2932 105.775 60.6906 105.263 58.6357 105.263C55.6129 105.263 53.3755 106.435 51.9259 108.78C50.7165 110.826 50.1113 112.991 50.1113 115.275V118.342H33.0637V56.5538H82.9448V73.6922H50.1113Z" fill="#316FF6"/>
<path d="M152.489 143.957C152.489 151.476 149.842 157.849 144.552 163.08C139.26 168.311 132.916 170.927 125.52 170.927C118.002 170.927 111.613 168.297 106.352 163.034C101.089 157.774 98.459 151.414 98.459 143.956V82.2603C98.459 74.7442 101.105 68.3556 106.397 63.0932C111.687 57.832 118.062 55.2003 125.519 55.2003C133.035 55.2003 139.409 57.8462 144.641 63.1369C149.872 68.4299 152.488 74.8043 152.488 82.2592V143.957H152.489ZM134.809 81.8997C134.809 79.1937 133.848 76.8799 131.923 74.954C129.997 73.0302 127.683 72.0677 124.977 72.0677C122.271 72.0677 119.971 73.0302 118.076 74.954C116.182 76.8788 115.235 79.1927 115.235 81.8997V143.686C115.235 146.392 116.182 148.708 118.076 150.632C119.97 152.557 122.271 153.518 124.977 153.518C127.683 153.518 129.997 152.557 131.923 150.632C133.847 148.708 134.809 146.393 134.809 143.686V81.8997Z" fill="#316FF6"/>
<path d="M221.22 143.957C221.22 151.476 218.573 157.849 213.282 163.08C207.99 168.311 201.646 170.927 194.25 170.927C186.732 170.927 180.345 168.297 175.082 163.034C169.819 157.774 167.189 151.414 167.189 143.956V82.2603C167.189 74.7442 169.835 68.3556 175.127 63.0932C180.418 57.832 186.792 55.2003 194.249 55.2003C201.765 55.2003 208.14 57.8462 213.372 63.1369C218.603 68.4299 221.219 74.8043 221.219 82.2592V143.957H221.22ZM203.541 81.8997C203.541 79.1937 202.578 76.8799 200.654 74.954C198.73 73.0302 196.415 72.0677 193.709 72.0677C191.003 72.0677 188.703 73.0302 186.809 74.954C184.914 76.8788 183.967 79.1927 183.967 81.8997V143.686C183.967 146.392 184.914 148.708 186.809 150.632C188.703 152.557 191.004 153.518 193.709 153.518C196.414 153.518 198.728 152.557 200.654 150.632C202.578 148.708 203.541 146.393 203.541 143.686V81.8997Z" fill="#316FF6"/>
<path d="M36.2267 336.382H7.2168V365.392H36.2267V336.382Z" fill="#37474F"/>
<path d="M21.7193 360.578C27.071 360.578 31.4093 356.239 31.4093 350.888C31.4093 345.536 27.071 341.198 21.7193 341.198C16.3677 341.198 12.0293 345.536 12.0293 350.888C12.0293 356.239 16.3677 360.578 21.7193 360.578Z" fill="#455A64"/>
<path d="M19.947 346.973H17.7676V354.966H19.947V346.973Z" fill="#263238"/>
<path d="M26.0212 346.973H23.8418V354.966H26.0212V346.973Z" fill="#263238"/>
<path d="M0 410.51L58.2133 410.245L116.427 410.148L232.853 409.965L349.28 410.147L407.493 410.244L465.705 410.51L407.493 410.778L349.28 410.874L232.853 411.055L116.427 410.873L58.2133 410.776L0 410.51Z" fill="#263238"/>
<path d="M99.6688 383.126C100.725 385.436 96.5586 402.032 95.2509 405.437C93.9433 408.842 89.3637 427.866 87.1329 428.687C84.9022 429.51 74.0989 429.274 72.5717 428.687C71.0455 428.1 72.5717 424.854 74.3327 423.718C76.0938 422.582 78.1923 420.838 78.1923 420.838C78.1923 420.838 75.0374 391.463 75.6251 388.175C76.2117 384.887 96.8219 376.902 99.6688 383.126Z" fill="#FFC727"/>
<path opacity="0.1" d="M99.6688 383.126C100.725 385.436 96.5586 402.032 95.2509 405.437C93.9433 408.842 89.3637 427.866 87.1329 428.687C84.9022 429.51 74.0989 429.274 72.5717 428.687C71.0455 428.1 72.5717 424.854 74.3327 423.718C76.0938 422.582 78.1923 420.838 78.1923 420.838C78.1923 420.838 75.0374 391.463 75.6251 388.175C76.2117 384.887 96.8219 376.902 99.6688 383.126Z" fill="black"/>
<path opacity="0.1" d="M77.0728 427.408C77.1919 426.835 77.4312 426.259 77.7786 425.784C78.1292 425.303 78.5466 424.88 79.0229 424.523C79.4653 424.191 80.0192 423.873 80.5709 423.771C80.643 423.758 80.6998 423.846 80.6419 423.9C80.4496 424.08 80.2311 424.23 80.041 424.419C79.8498 424.609 79.6543 424.797 79.4719 424.995C79.1146 425.378 78.8131 425.808 78.5476 426.259C78.28 426.714 78.0211 427.172 77.7895 427.647C77.5557 428.128 77.4192 428.645 77.2356 429.144C77.1996 429.242 77.0488 429.25 77.0226 429.139C76.886 428.568 76.9549 427.975 77.0728 427.408Z" fill="black"/>
<path opacity="0.1" d="M73.9123 425.677C74.4814 424.617 75.4734 423.861 76.5505 423.375C76.6182 423.344 76.6947 423.43 76.6314 423.485C75.835 424.177 75.0495 424.916 74.5393 425.852C74.0324 426.783 73.7681 427.941 74.1231 428.968C74.1395 429.016 74.0718 429.034 74.0466 428.998C73.3617 428.019 73.354 426.719 73.9123 425.677Z" fill="black"/>
<path opacity="0.1" d="M76.5681 404.37L91.4144 418.418C93.0531 413.033 94.5825 407.177 95.2489 405.44C96.5599 402.032 100.722 385.437 99.6733 383.121C96.822 376.905 76.2076 384.891 75.6286 388.179C75.3554 389.731 75.9017 397.05 76.5681 404.37Z" fill="black"/>
<path d="M155.736 399.728C156.339 400.298 162.181 394.769 163.079 392.179C163.977 389.589 160.236 382.279 160.929 381.037C161.62 379.795 164.805 378.794 166.455 380.707C168.105 382.62 172.34 393.099 171.458 397.578C170.575 402.057 161.56 412.066 160.618 412.014C159.677 411.963 155.736 399.728 155.736 399.728Z" fill="#FFC727"/>
<path opacity="0.1" d="M155.738 399.73C155.738 399.73 159.68 411.961 160.616 412.014C161.305 412.049 166.308 406.712 169.294 402.09L161.111 395.187C159.053 397.627 156.153 400.119 155.738 399.73Z" fill="black"/>
<path d="M122.724 349.189H74.2159C74.2159 349.189 70.6152 381.129 71.0063 385.357C71.3974 389.584 92.7176 420.907 99.3291 424.948C106.038 429.049 143.933 429.187 153.176 427.152C160.362 425.572 166.362 416.398 163.377 402.265C162.073 396.089 145.235 381.364 142.886 378.545C140.537 375.728 122.724 349.189 122.724 349.189Z" fill="#C7C7C7"/>
<path d="M71.0067 385.361C71.4 389.589 92.7136 420.909 99.3339 424.951C106.042 429.048 143.928 429.19 153.181 427.158C160.358 425.574 166.366 416.397 163.373 402.261C162.073 396.089 145.239 381.363 142.89 378.544C141.448 376.818 134.216 366.199 128.819 358.224C125.4 353.177 122.723 349.19 122.723 349.19H74.2185C74.2185 349.19 73.3118 357.209 72.4597 365.741C71.6076 374.24 70.8101 383.252 71.0067 385.361Z" fill="#FFC727"/>
<path opacity="0.1" d="M72.4609 365.741C98.5267 373.781 121.708 362.343 128.82 358.224C125.401 353.177 122.724 349.19 122.724 349.19H74.2198C74.2198 349.19 73.313 357.209 72.4609 365.741Z" fill="black"/>
<path d="M154.1 400.725C154.1 400.725 140.746 392.349 131.386 393.862C122.025 395.376 118.721 414.6 123.206 425.418C123.206 425.418 114.664 427.954 114.664 432.082C114.664 434.431 119.543 435.181 126.586 435.015C133.63 434.849 147.623 434.707 147.933 432.937C148.244 431.167 147.011 428.73 147.011 428.73C147.011 428.73 159.647 427.305 162.127 418.936C164.606 410.567 156.208 402.144 154.1 400.725Z" fill="#FFC727"/>
<path opacity="0.1" d="M135.872 426.366C139.41 427.887 143.278 428.617 147.108 428.863C147.181 428.868 147.204 428.99 147.123 429C143.156 429.45 139.273 428.45 135.83 426.46C135.78 426.431 135.818 426.342 135.872 426.366Z" fill="black"/>
<path opacity="0.1" d="M120.157 435.065C120.507 433.467 121.755 432.205 123.064 431.305C123.823 430.783 124.66 430.361 125.533 430.063C126.532 429.721 127.57 429.538 128.575 429.223C128.658 429.196 128.717 429.32 128.633 429.348C127.766 429.639 126.927 430.081 126.119 430.506C125.309 430.933 124.513 431.398 123.755 431.912C122.445 432.803 121.45 433.952 120.488 435.191C120.385 435.323 120.115 435.256 120.157 435.065Z" fill="black"/>
<path opacity="0.1" d="M121.887 428.437C121.975 428.424 122.004 428.541 121.921 428.572C119.339 429.522 117.282 431.798 116.171 434.273C116.124 434.378 115.932 434.378 115.948 434.237C116.292 431.167 118.901 428.873 121.887 428.437Z" fill="black"/>
<path opacity="0.1" d="M117.719 427.835C117.686 427.857 117.741 427.901 117.774 427.89C117.992 427.846 120.385 426.24 123.028 425.476C123.247 425.858 123.476 426.24 123.728 426.612C123.771 426.688 123.891 426.623 123.848 426.546C122.187 423.214 121.521 419.456 121.51 415.753C121.499 413.786 121.652 411.798 121.859 409.843C121.849 409.832 121.849 409.821 121.859 409.81C122.362 406.358 123.356 402.982 125.028 399.956C126.044 398.077 127.354 396.264 129.146 395.215C130.938 394.177 133.177 394.013 135.318 394.1C137.492 394.21 139.655 394.679 141.764 395.291C143.883 395.87 145.97 396.635 148.013 397.498C144.113 395.4 139.885 393.751 135.384 393.27C133.144 393.052 130.752 393.205 128.654 394.352C126.579 395.542 125.17 397.465 124.066 399.421C121.947 403.441 120.898 407.92 120.712 412.399C120.691 412.912 120.669 413.437 120.669 413.95C120.669 413.961 120.669 413.961 120.669 413.972C120.636 414.66 120.625 415.338 120.647 416.026C120.734 419.26 121.39 422.504 122.952 425.344C120.581 425.825 119.205 426.502 117.719 427.835Z" fill="black"/>
<path d="M115.343 387.236C116.399 389.546 112.232 406.141 110.925 409.547C109.617 412.952 105.038 431.976 102.807 432.797C100.576 433.619 89.7717 433.384 88.2455 432.797C86.7194 432.209 88.2455 428.964 90.0066 427.828C91.7676 426.691 93.8662 424.948 93.8662 424.948C93.8662 424.948 90.7112 395.573 91.2989 392.285C91.8856 388.997 112.496 381.012 115.343 387.236Z" fill="#FFC727"/>
<path opacity="0.1" d="M108.06 418.765C109.056 415.768 110.357 412.873 111.352 409.883C111.391 409.764 111.581 409.82 111.543 409.94C110.776 412.348 110.189 414.809 109.476 417.236C109.58 417.071 109.677 416.903 109.783 416.74C110.408 415.775 111.178 414.824 111.5 413.711C111.535 413.59 111.724 413.647 111.692 413.768C111.548 414.289 111.299 414.756 111.046 415.231C110.76 415.767 110.468 416.3 110.179 416.834C109.803 417.529 109.396 418.211 108.973 418.882C108.957 418.929 108.945 418.975 108.93 419.021C107.931 422.028 106.943 425.013 105.618 427.895C105.548 428.047 105.322 427.988 105.36 427.819C106.051 424.739 107.064 421.765 108.06 418.765Z" fill="black"/>
<path opacity="0.1" d="M90.8862 396.977C90.8895 396.914 91.0086 396.895 91.0184 396.964C91.333 399.191 91.4685 401.444 91.6935 403.68C91.9273 406.006 92.2113 408.326 92.4681 410.65C92.9772 415.274 93.7506 419.878 94.1198 424.512C94.1351 424.709 93.7834 424.735 93.7331 424.549C92.5129 420.08 91.9732 415.483 91.4914 410.912C91.2522 408.644 91.108 406.368 90.9987 404.092C90.884 401.731 90.7486 399.338 90.8862 396.977Z" fill="black"/>
<path opacity="0.1" d="M92.219 431.286C92.3381 430.712 92.5773 430.137 92.9247 429.662C93.2754 429.181 93.6938 428.757 94.169 428.401C94.6115 428.069 95.1654 427.751 95.717 427.65C95.7891 427.636 95.8459 427.724 95.788 427.778C95.5958 427.959 95.3762 428.108 95.1872 428.297C94.996 428.487 94.8016 428.675 94.618 428.873C94.2608 429.257 93.9582 429.686 93.6938 430.137C93.4262 430.593 93.1673 431.05 92.9357 431.526C92.7019 432.006 92.5642 432.523 92.3818 433.022C92.3457 433.121 92.195 433.128 92.1688 433.017C92.0322 432.448 92.1021 431.854 92.219 431.286Z" fill="black"/>
<path opacity="0.1" d="M89.0596 429.556C89.6287 428.496 90.6207 427.74 91.6978 427.254C91.7656 427.223 91.842 427.31 91.7787 427.364C90.9823 428.056 90.1957 428.797 89.6866 429.732C89.1797 430.663 88.9154 431.82 89.2704 432.847C89.2868 432.895 89.2191 432.913 89.1939 432.877C88.5079 431.898 88.5002 430.598 89.0596 429.556Z" fill="black"/>
<path d="M92.7772 304.776C93.3016 302.861 88.521 296.083 86.6977 293.803C84.8744 291.523 74.8294 288.101 71.622 289.857C70.3624 290.546 68.0234 295.369 64.8652 299.561C59.9786 306.046 54.2673 312.85 56.3419 314.681C61.3781 319.125 72.851 312.116 76.574 309.76C80.2982 307.405 83.7033 304.541 84.6101 304.642C85.8074 304.775 88.3288 306.671 89.3338 306.783C91.7285 307.049 92.7772 304.776 92.7772 304.776Z" fill="#FFC727"/>
<path opacity="0.1" d="M92.7772 304.776C93.3016 302.861 88.521 296.083 86.6977 293.803C84.8744 291.523 74.8294 288.101 71.622 289.857C70.3624 290.546 68.0234 295.369 64.8652 299.561C59.9786 306.046 54.2673 312.85 56.3419 314.681C61.3781 319.125 72.851 312.116 76.574 309.76C80.2982 307.405 83.7033 304.541 84.6101 304.642C85.8074 304.775 88.3288 306.671 89.3338 306.783C91.7285 307.049 92.7772 304.776 92.7772 304.776Z" fill="black"/>
<path d="M115.911 297.988C127.63 304.995 132.832 323.641 133.149 326.617C133.407 329.047 138.996 337.647 137.997 346.901C137.355 352.852 126.673 360.75 117.976 360.672C116.376 360.657 102.838 365.567 91.4099 364.777C79.9818 363.987 71.3143 355.878 70.9768 355.189C70.6403 354.499 61.3742 353.161 60.7919 343.605C59.8622 328.35 75.4296 302.358 79.8835 298.806C87.2542 292.927 107.95 293.227 115.911 297.988Z" fill="#FFC727"/>
<path d="M110.395 306.029C110.169 303.955 116.256 297.716 118.527 295.652C120.798 293.59 131.79 291.709 134.827 294.063C136.019 294.987 137.646 300.382 140.226 305.255C144.219 312.796 149.016 320.806 146.558 322.362C140.593 326.137 129.853 316.956 126.381 313.893C122.908 310.83 119.85 307.292 118.893 307.245C117.629 307.184 114.697 308.733 113.635 308.682C111.105 308.562 110.395 306.029 110.395 306.029Z" fill="#FFC727"/>
<path opacity="0.1" d="M110.395 306.029C110.169 303.955 116.256 297.716 118.527 295.652C120.798 293.59 131.79 291.709 134.827 294.063C136.019 294.987 137.646 300.382 140.226 305.255C144.219 312.796 149.016 320.806 146.558 322.362C140.593 326.137 129.853 316.956 126.381 313.893C122.908 310.83 119.85 307.292 118.893 307.245C117.629 307.184 114.697 308.733 113.635 308.682C111.105 308.562 110.395 306.029 110.395 306.029Z" fill="black"/>
<path opacity="0.1" d="M88.9818 332.222C96.1723 332.286 99.4442 339.987 100.312 341.992C101.18 343.998 105.612 348.591 105.729 353.386C105.846 358.181 96.736 363.54 87.1159 361.847C77.5428 360.162 72.4673 354.764 72.5219 349.89C72.5656 345.968 76.2635 342.573 76.6721 341.538C77.0818 340.504 82.4304 332.163 88.9818 332.222Z" fill="black"/>
<path opacity="0.1" d="M106.654 345.749C107.611 346.838 108.42 348.057 109.066 349.365C109.716 350.67 110.226 352.064 110.476 353.54C110.704 355.003 110.69 356.607 110.007 358.017C109.679 358.717 109.189 359.333 108.611 359.816C108.006 360.271 107.348 360.615 106.654 360.824C107.861 360.019 108.805 358.952 109.219 357.691C109.651 356.439 109.625 355.06 109.4 353.715C109.192 352.36 108.758 351.026 108.289 349.7C107.792 348.383 107.255 347.064 106.654 345.749Z" fill="black"/>
<path opacity="0.1" d="M73.7199 342.876C73.0961 343.647 72.5072 344.4 71.9632 345.168C71.4345 345.942 70.9199 346.718 70.5758 347.553C70.2087 348.377 69.9913 349.239 69.9422 350.129C69.9039 351.031 70.1508 351.916 70.4502 352.873C69.7696 352.168 69.219 351.235 69.0912 350.18C68.9557 349.132 69.172 348.063 69.5773 347.112C69.9957 346.162 70.6097 345.334 71.3132 344.62C72.0167 343.911 72.8131 343.293 73.7199 342.876Z" fill="black"/>
<path d="M186.034 445.758C174.261 445.758 161.274 445.558 148.224 445.315C141.494 445.191 136.179 445.092 132.861 445.092C115.901 445.092 111.02 423.291 106.299 402.208C105.64 399.27 104.982 396.328 104.292 393.44C102.945 387.801 101.833 382.101 100.757 376.589C97.4305 359.54 94.5574 344.815 87.0457 344.01C77.1198 342.953 68.2808 357.798 65.0537 380.97L62.8906 380.67C66.2925 356.246 76.0863 340.625 87.2784 341.838C96.3938 342.815 99.409 358.273 102.902 376.171C103.973 381.661 105.081 387.339 106.418 392.933C107.111 395.831 107.772 398.783 108.433 401.732C113.174 422.907 117.652 442.908 132.862 442.908C136.2 442.908 141.525 443.007 148.265 443.132C163.033 443.408 183.258 443.784 200.38 443.447C228.146 442.904 231.432 440.712 231.779 440.053C231.763 435.508 202.455 430.038 191.423 427.978C180.27 425.897 179.835 425.815 179.961 424.446C180.074 423.219 181.439 423.219 183.504 423.219H229.325C243.697 423.219 248.328 402.543 251.095 390.191C251.89 386.647 252.517 383.846 253.209 382.404C256.42 375.713 264.544 376.691 264.887 376.735L264.606 378.9C264.323 378.867 257.699 378.094 255.178 383.349C254.593 384.567 253.96 387.394 253.227 390.668C250.316 403.659 245.446 425.403 229.325 425.403H189.539C190.284 425.543 191.05 425.686 191.823 425.831C218.502 430.811 233.948 434.747 233.948 440.133C233.948 440.528 233.826 441.119 233.243 441.692C229.989 444.882 210.687 445.758 186.034 445.758Z" fill="#263238"/>
<path d="M70.9081 379.382L57.5137 378.579L57.0325 386.612L70.4268 387.414L70.9081 379.382Z" fill="#455A64"/>
<path d="M68.536 376.684L60.1797 376.184L60.0271 378.731L68.3834 379.232L68.536 376.684Z" fill="#37474F"/>
<path d="M61.4644 386.879L59.8887 386.784L59.5215 392.914L61.0972 393.008L61.4644 386.879Z" fill="#FFC727"/>
<path d="M67.525 387.242L65.9492 387.147L65.582 393.277L67.1578 393.371L67.525 387.242Z" fill="#FFC727"/>
<path d="M268.963 371.106V384.525H274.825V371.106H268.963Z" fill="#455A64"/>
<path d="M264.225 373.63V382.001H268.961V373.63H264.225Z" fill="#37474F"/>
<path d="M79.8594 343.882C79.8594 343.882 82.7107 347.18 83.8151 346.484C84.9196 345.788 87.6824 339.286 87.6824 339.286C87.6824 339.286 88.3411 347.55 90.4747 347.777C92.6093 348.005 96.2505 344.744 96.2505 344.744L87.6365 338.764L79.8594 343.882Z" fill="#FFC727"/>
<path opacity="0.1" d="M79.8594 343.882C79.8594 343.882 82.7107 347.18 83.8151 346.484C84.9196 345.788 87.6824 339.286 87.6824 339.286C87.6824 339.286 88.3411 347.55 90.4747 347.777C92.6093 348.005 96.2505 344.744 96.2505 344.744L87.6365 338.764L79.8594 343.882Z" fill="black"/>
<path opacity="0.1" d="M122.134 333.624C122.978 331.002 123.279 328.197 123.013 325.384C122.889 323.975 122.557 322.566 122.014 321.202C121.746 320.521 121.387 319.865 120.968 319.245C120.555 318.62 120.062 318.037 119.502 317.52C119.227 317.255 118.918 317.03 118.611 316.803C118.3 316.59 117.972 316.414 117.651 316.222L117.164 315.948L116.646 315.735C116.297 315.606 115.964 315.428 115.601 315.347C114.174 314.92 112.685 314.803 111.253 314.934C108.381 315.186 105.703 316.304 103.521 317.979C106.099 317.063 108.741 316.48 111.307 316.543C112.58 316.609 113.841 316.746 114.991 317.203C115.286 317.293 115.554 317.449 115.837 317.565L116.256 317.751L116.646 317.995C116.903 318.159 117.178 318.303 117.424 318.476C117.661 318.656 117.899 318.834 118.113 319.043C119.013 319.826 119.704 320.858 120.234 321.988C120.794 323.11 121.136 324.359 121.43 325.629C121.963 328.192 122.134 330.884 122.134 333.624Z" fill="black"/>
<path opacity="0.1" d="M68.8481 328.042C69.0229 325.709 69.3463 323.435 69.9963 321.322C70.6561 319.223 71.706 317.296 73.3282 316.119C73.7237 315.817 74.1716 315.579 74.6162 315.364C75.0368 315.181 75.5022 315.049 75.9982 314.98C76.9912 314.838 78.0705 314.906 79.1575 315.05C81.337 315.384 83.5404 316.041 85.7756 316.761C84.8841 315.979 83.8791 315.352 82.8391 314.779C82.3125 314.505 81.775 314.247 81.2223 314.011C80.6651 313.79 80.096 313.588 79.5093 313.42C78.3371 313.086 77.0863 312.891 75.772 313.003C75.1177 313.064 74.4458 313.206 73.8034 313.483C73.2004 313.755 72.6192 314.063 72.1003 314.473C71.0374 315.256 70.2148 316.314 69.6281 317.435C69.0382 318.561 68.6821 319.762 68.48 320.96C68.0834 323.358 68.2101 325.775 68.8481 328.042Z" fill="black"/>
<path d="M104.343 330.191C104.377 330.067 104.618 330.359 104.608 330.495C104.349 333.785 104.662 337.599 107.884 338.837C107.984 338.875 107.966 339.04 107.846 339.019C103.878 338.333 103.52 333.267 104.343 330.191Z" fill="#263238"/>
<path d="M107.721 326.889C113.554 326.739 113.545 337.393 108.142 337.531C102.826 337.668 102.833 327.014 107.721 326.889Z" fill="#263238"/>
<path d="M81.8058 327.606C81.7905 327.479 81.5097 327.734 81.501 327.87C81.2989 331.165 80.4577 334.897 77.094 335.673C76.9902 335.697 76.9848 335.863 77.106 335.859C81.1317 335.734 82.1925 330.768 81.8058 327.606Z" fill="#263238"/>
<path d="M78.9211 323.866C73.1672 322.905 71.6902 333.455 77.0202 334.346C82.2662 335.222 83.7432 324.671 78.9211 323.866Z" fill="#263238"/>
<path d="M87.4663 338.988C88.4997 339.324 95.6968 337.047 95.1494 334.867C94.5562 332.507 84.4358 331.951 83.1642 333.484C81.8926 335.015 86.3836 338.635 87.4663 338.988Z" fill="#263238"/>
<path d="M96.4388 344.628C95.2808 345.467 94.0912 346.291 92.7769 346.917C92.1368 347.222 91.4059 347.497 90.7909 347.483C90.379 347.565 90.0305 346.998 89.7935 346.469C89.3172 345.376 89.0877 344.169 88.878 342.98C88.6639 341.787 88.5382 340.574 88.4159 339.378L88.075 336.054L87.0798 339.282C86.7739 340.276 86.4145 341.273 86.054 342.259C85.6749 343.24 85.2773 344.225 84.7682 345.146C84.6393 345.375 84.4984 345.598 84.3422 345.803C84.1914 346.008 84.0155 346.213 83.8407 346.322C83.7173 346.418 83.4944 346.423 83.2333 346.387C82.9788 346.316 82.7046 346.216 82.4533 346.063C81.4362 345.459 80.6169 344.594 79.8555 343.736C80.3864 344.7 81.0244 345.643 82.048 346.429C82.3004 346.629 82.6215 346.796 82.9941 346.924C83.2016 346.965 83.4027 347.028 83.6397 347.009C83.8516 347.026 84.1586 346.949 84.3345 346.85C84.7103 346.652 84.9288 346.422 85.1429 346.192C85.3494 345.961 85.5264 345.725 85.6891 345.485C86.3435 344.532 86.8155 343.543 87.2524 342.548C87.6971 341.553 88.0587 340.55 88.3984 339.526L87.0623 339.431C87.1443 340.673 87.3333 341.891 87.5649 343.119C87.6785 343.732 87.8391 344.342 88.0215 344.951C88.2138 345.56 88.4115 346.171 88.7469 346.772C88.9173 347.073 89.0987 347.374 89.3904 347.668C89.5444 347.813 89.7148 347.962 89.9781 348.079C90.1081 348.139 90.2545 348.185 90.426 348.205C90.603 348.236 90.6915 348.207 90.828 348.208C91.8265 348.13 92.5257 347.735 93.1855 347.362C94.4702 346.57 95.5234 345.634 96.4388 344.628Z" fill="#263238"/>
<path d="M41.5684 382.436C43.75 382.262 45.9141 382.335 48.075 382.469C50.2337 382.628 52.388 382.848 54.5259 383.319C52.3443 383.495 50.1801 383.422 48.0193 383.286C45.8606 383.127 43.7052 382.905 41.5684 382.436Z" fill="#263238"/>
<path d="M73.0137 389.346C75.0893 390.032 77.0535 390.939 78.9894 391.901C80.9143 392.885 82.8118 393.925 84.5969 395.188C82.5202 394.504 80.557 393.596 78.6212 392.632C76.6963 391.647 74.7998 390.608 73.0137 389.346Z" fill="#263238"/>
<path d="M48.5039 404.367C49.5472 402.444 50.7893 400.669 52.0795 398.931C53.3893 397.209 54.7494 395.523 56.3094 393.988C55.2672 395.913 54.0262 397.687 52.7339 399.424C51.4229 401.146 50.0628 402.831 48.5039 404.367Z" fill="#263238"/>
<path d="M36.2285 369.514C37.9142 370.051 39.5638 370.672 41.209 371.303C42.8575 371.927 44.4809 372.61 46.1032 373.294C47.7189 373.995 49.3335 374.698 50.923 375.459C52.5158 376.213 54.1042 376.977 55.6555 377.827C53.9699 377.291 52.3192 376.67 50.675 376.039C49.0265 375.414 47.4032 374.731 45.7809 374.048C44.1662 373.345 42.5516 372.643 40.9621 371.881C39.3693 371.128 37.7809 370.363 36.2285 369.514Z" fill="#263238"/>
<path d="M74.5898 379.204C76.1149 378.399 77.7121 377.831 79.3278 377.321C80.9501 376.834 82.592 376.407 84.3061 376.219C82.7821 377.027 81.1839 377.595 79.5681 378.103C77.9448 378.588 76.3039 379.014 74.5898 379.204Z" fill="#263238"/>
<path d="M58.8851 373.671C57.9914 372.253 57.1776 370.794 56.3757 369.33C55.5662 367.87 54.8135 366.381 54.0619 364.893C53.3278 363.395 52.5948 361.897 51.9174 360.37C51.2336 358.847 50.5617 357.319 49.9707 355.749C50.8665 357.167 51.6793 358.625 52.4811 360.089C53.2906 361.55 54.0433 363.038 54.7939 364.528C55.5269 366.026 56.261 367.525 56.9361 369.051C57.6211 370.574 58.293 372.102 58.8851 373.671Z" fill="#263238"/>
<path d="M81.0055 408.228C80.0299 407.112 79.1297 405.944 78.2394 404.769C77.3414 403.599 76.4969 402.393 75.6525 401.187C74.8244 399.97 73.9974 398.751 73.2229 397.497C72.4418 396.247 71.6705 394.99 70.9746 393.681C71.9513 394.796 72.8514 395.964 73.7418 397.139C74.6387 398.309 75.4831 399.515 76.3276 400.722C77.1546 401.94 77.9827 403.158 78.7561 404.413C79.5383 405.662 80.3085 406.919 81.0055 408.228Z" fill="#263238"/>
<path d="M374.808 134.415H284.507L277.516 73.0846H367.817L374.808 134.415Z" fill="#A6A6A6"/>
<path d="M369.887 130.302H288.489L282.436 77.1987H363.834L369.887 130.302Z" fill="white"/>
<path d="M319.615 105.141L318.315 106.687L305.51 95.6316L306.81 94.0858L319.615 105.141Z" fill="#FFC727"/>
<path d="M316.32 94.0858L318.111 95.6316L308.806 106.687L307.016 105.141L316.32 94.0858Z" fill="#FFC727"/>
<path d="M346.992 105.141L345.69 106.687L332.885 95.6316L334.186 94.0858L346.992 105.141Z" fill="#FFC727"/>
<path d="M343.695 94.0858L345.484 95.6316L336.181 106.687L334.391 105.141L343.695 94.0858Z" fill="#FFC727"/>
<path d="M303.873 115.767L303.527 113.581H353.155L353.501 115.767H303.873Z" fill="#FFC727"/>
<path d="M401.307 130.302H285.139V134.416H401.307V130.302Z" fill="#A6A6A6"/>
<path d="M411.116 130.302H310.369V134.416H411.116V130.302Z" fill="#C7C7C7"/>
<path d="M364.128 79.7758L363.834 77.1987H282.436L282.729 79.7758H364.128Z" fill="#263238"/>
<path d="M289.288 78.4867C289.327 78.8407 289.616 79.1269 289.935 79.1269C290.253 79.1269 290.481 78.8407 290.441 78.4867C290.402 78.1328 290.112 77.8466 289.793 77.8466C289.474 77.8466 289.248 78.1339 289.288 78.4867Z" fill="#C7C7C7"/>
<path d="M286.934 78.4867C286.973 78.8407 287.263 79.1269 287.582 79.1269C287.901 79.1269 288.127 78.8407 288.088 78.4867C288.048 78.1328 287.759 77.8466 287.44 77.8466C287.121 77.8466 286.895 78.1339 286.934 78.4867Z" fill="white"/>
<path d="M284.579 78.4867C284.618 78.8407 284.907 79.1269 285.226 79.1269C285.545 79.1269 285.772 78.8407 285.732 78.4867C285.693 78.1328 285.403 77.8466 285.084 77.8466C284.767 77.8466 284.539 78.1339 284.579 78.4867Z" fill="#FFC727"/>
</svg>
