<svg width="50" height="50" viewBox="0 0 50 50" fill="none" xmlns="http://www.w3.org/2000/svg">
<path fill-rule="evenodd" clip-rule="evenodd" d="M41.6667 14.5833C38.2148 14.5833 35.4167 11.7851 35.4167 8.33333C35.4167 7.20856 35.7137 6.15319 36.2337 5.24142C35.6225 5.11477 34.9787 5.01892 34.299 4.94527C31.9196 4.68748 28.9204 4.68748 25.0942 4.6875H24.9058C21.0796 4.68748 18.0804 4.68748 15.701 4.94527C13.2728 5.20835 11.3053 5.75483 9.6255 6.97531C8.60852 7.71419 7.71419 8.60852 6.97531 9.6255C5.75483 11.3053 5.20835 13.2728 4.94527 15.701C4.68748 18.0804 4.68748 21.0796 4.6875 24.9056V25.0942C4.68748 28.9204 4.68748 31.9196 4.94527 34.299C5.20835 36.7273 5.75483 38.6946 6.97531 40.3746C7.71419 41.3915 8.60852 42.2858 9.6255 43.0246C11.3053 44.2452 13.2728 44.7917 15.701 45.0548C18.0804 45.3125 21.0796 45.3125 24.9056 45.3125H25.0944C28.9204 45.3125 31.9196 45.3125 34.299 45.0548C36.7273 44.7917 38.6946 44.2452 40.3746 43.0246C41.3915 42.2858 42.2858 41.3915 43.0246 40.3746C44.2452 38.6946 44.7917 36.7273 45.0548 34.299C45.3125 31.9196 45.3125 28.9204 45.3125 25.0944V24.9056C45.3125 21.0796 45.3125 18.0804 45.0548 15.701C44.981 15.0212 44.8852 14.3776 44.7585 13.7662C43.8469 14.2862 42.7915 14.5833 41.6667 14.5833ZM36.1048 17.6448C36.8796 18.0248 37.1996 18.961 36.8196 19.7357L33.7771 25.9379C31.6467 30.2808 25.3854 30.0688 23.5538 25.5917C22.7431 23.6098 19.9715 23.5158 19.0285 25.4383L15.9861 31.6404C15.6061 32.4152 14.67 32.7352 13.8952 32.3552C13.1205 31.9752 12.8005 31.039 13.1805 30.2642L16.2229 24.0621C18.3532 19.7191 24.6146 19.9312 26.4462 24.4083C27.2569 26.3902 30.0285 26.4842 30.9715 24.5617L34.0137 18.3595C34.394 17.5847 35.33 17.2647 36.1048 17.6448Z" fill="#316FF6"/>
<path d="M37.5 8.33335C37.5 10.6345 39.3654 12.5 41.6667 12.5C43.9679 12.5 45.8333 10.6345 45.8333 8.33335C45.8333 6.03217 43.9679 4.16669 41.6667 4.16669C39.3654 4.16669 37.5 6.03217 37.5 8.33335Z" fill="#316FF6"/>
</svg>
