<svg width="24" height="24" viewBox="0 0 24 24" fill="none" xmlns="http://www.w3.org/2000/svg">
<path d="M12.9402 8.98954C13.7754 10.2196 14.5388 11.4971 15.2264 12.8153C15.2575 12.8779 15.3054 12.9306 15.3648 12.9674C15.4241 13.0042 15.4926 13.0237 15.5624 13.0237C15.6323 13.0237 15.7008 13.0042 15.7601 12.9674C15.8195 12.9306 15.8674 12.8779 15.8984 12.8153C16.5861 11.4971 17.3495 10.2196 18.1847 8.98954L18.3255 8.77311C18.9697 7.78205 19.5443 6.79419 19.4978 5.60849C19.4805 5.1622 19.3913 4.72162 19.2335 4.30377C18.9433 3.56678 18.4379 2.93423 17.7831 2.48842C17.1284 2.04261 16.3546 1.8042 15.5625 1.8042C14.7705 1.8042 13.9967 2.04261 13.342 2.48842C12.6872 2.93423 12.1818 3.56678 11.8916 4.30377C11.7337 4.72159 11.6444 5.16218 11.6272 5.60849C11.5807 6.79419 12.1552 7.78205 12.7994 8.77329L12.9402 8.98954ZM12.3764 5.6377C12.3907 5.27183 12.4639 4.91067 12.5934 4.56818C12.8299 3.97389 13.2393 3.46425 13.7687 3.1052C14.298 2.74614 14.9229 2.5542 15.5625 2.5542C16.2022 2.5542 16.8271 2.74614 17.3564 3.1052C17.8857 3.46425 18.2952 3.97389 18.5317 4.56818C18.661 4.91071 18.7342 5.27185 18.7485 5.6377C18.7862 6.60349 18.2724 7.47864 17.6967 8.36423L17.5561 8.58029C16.8727 9.62985 16.1698 10.7094 15.5624 11.8341C14.9551 10.7095 14.2521 9.62985 13.5688 8.58029L13.4282 8.36441C12.8525 7.47864 12.3387 6.60358 12.3764 5.6377Z" fill="black"/>
<path d="M15.5625 8.25C16.0446 8.25 16.5159 8.10704 16.9167 7.83921C17.3175 7.57137 17.63 7.19069 17.8145 6.74529C17.9989 6.2999 18.0472 5.8098 17.9532 5.33697C17.8591 4.86414 17.627 4.42982 17.2861 4.08893C16.9452 3.74804 16.5109 3.51589 16.038 3.42184C15.5652 3.32779 15.0751 3.37606 14.6297 3.56054C14.1843 3.74503 13.8036 4.05745 13.5358 4.4583C13.268 4.85914 13.125 5.33041 13.125 5.8125C13.1257 6.45874 13.3828 7.0783 13.8397 7.53527C14.2967 7.99223 14.9163 8.24927 15.5625 8.25ZM15.5625 4.125C15.8963 4.125 16.2225 4.22397 16.5 4.4094C16.7775 4.59482 16.9938 4.85837 17.1215 5.16672C17.2493 5.47507 17.2827 5.81437 17.2176 6.14172C17.1525 6.46906 16.9917 6.76974 16.7557 7.00574C16.5197 7.24174 16.2191 7.40246 15.8917 7.46758C15.5644 7.53269 15.2251 7.49927 14.9167 7.37155C14.6084 7.24382 14.3448 7.02753 14.1594 6.75003C13.974 6.47252 13.875 6.14626 13.875 5.8125C13.8755 5.3651 14.0535 4.93617 14.3698 4.61981C14.6862 4.30346 15.1151 4.1255 15.5625 4.125Z" fill="black"/>
<path d="M10.961 6.57467L8.64016 4.97388C8.56005 5.21663 8.45976 5.45225 8.34033 5.67826L11.3523 7.75573C11.1767 7.37846 11.0454 6.98214 10.961 6.57467Z" fill="black"/>
<path d="M23.1401 14.8307C23.0952 14.7842 23.0391 14.7499 22.9771 14.7314C22.9151 14.7129 22.8494 14.7106 22.7863 14.7249L20.8359 15.1695L19.3993 13.1352C19.3709 13.0951 19.335 13.0609 19.2936 13.0346L18.1737 12.3253L17.6169 11.2764C17.4637 11.5274 17.3147 11.7798 17.1697 12.0334L17.5579 12.7648C17.5885 12.8223 17.6335 12.8709 17.6885 12.9058L18.8294 13.6285L20.3681 15.8072C20.411 15.8678 20.471 15.9143 20.5403 15.9409C20.6096 15.9674 20.6853 15.9729 20.7577 15.9566L22.7462 15.5033L23.1939 15.9695L22.3454 18.3559L16.2535 20.0663C16.1609 20.0923 16.0818 20.1529 16.0327 20.2356L15.3136 21.445L13.8953 20.5004C13.8516 20.4713 13.8022 20.4516 13.7504 20.4428C13.6986 20.434 13.6455 20.4362 13.5946 20.4493L11.2816 21.0409C11.1938 21.0632 11.1171 21.1167 11.0658 21.1915L10.4221 22.1251H9.72964L6.22262 17.0648L6.17868 15.6034C6.17662 15.5361 6.15651 15.4706 6.12045 15.4137L3.00473 10.506C2.97735 10.4628 2.94145 10.4257 2.89923 10.397C2.857 10.3682 2.80935 10.3484 2.75918 10.3387L1.35696 10.0682L0.85159 8.77561L3.36003 7.58755C3.22548 7.37398 3.0886 7.16173 2.9514 6.95117L0.214385 8.24755C0.128593 8.28821 0.0614189 8.3599 0.0264163 8.44815C-0.00858639 8.53641 -0.00881168 8.63465 0.0257858 8.72306L0.733855 10.5338C0.756905 10.5927 0.794496 10.6449 0.843128 10.6854C0.891761 10.7259 0.949852 10.7534 1.01199 10.7654L2.45816 11.0445L5.43216 15.7289L5.47628 17.1983C5.47845 17.2708 5.50161 17.3412 5.54294 17.4008L9.22519 22.7138C9.25968 22.7636 9.30574 22.8043 9.35941 22.8324C9.41309 22.8605 9.47277 22.8751 9.53335 22.8751H10.6192C10.6799 22.8751 10.7398 22.8604 10.7936 22.8321C10.8473 22.8038 10.8934 22.7629 10.9279 22.7129L11.6035 21.7327L13.6186 21.2173L15.2265 22.2881C15.2688 22.3162 15.3164 22.3355 15.3664 22.3447C15.4164 22.3539 15.4678 22.3528 15.5174 22.3416C15.5669 22.3303 15.6137 22.3091 15.6548 22.2791C15.696 22.2492 15.7306 22.2113 15.7566 22.1676L16.6007 20.7478L22.7351 19.0255C22.7928 19.0093 22.8459 18.9794 22.8897 18.9384C22.9336 18.8975 22.9669 18.8466 22.987 18.79L23.9784 16.0024C24.0016 15.9368 24.0062 15.866 23.9915 15.7979C23.9769 15.7299 23.9436 15.6672 23.8954 15.617L23.1401 14.8307Z" fill="black"/>
<path d="M5.24994 1.12502C4.68341 1.11726 4.12816 1.28361 3.65922 1.6016C3.19029 1.91958 2.83029 2.37387 2.62787 2.90306C2.51532 3.19944 2.45169 3.51214 2.43945 3.82894C2.40594 4.6714 2.80896 5.36199 3.26086 6.05367L3.35882 6.20336C3.92687 7.03561 4.44623 7.90006 4.91431 8.79238C4.94543 8.85476 4.99332 8.90723 5.0526 8.94391C5.11189 8.98059 5.18022 9.00002 5.24994 9.00002C5.31965 9.00002 5.38799 8.98059 5.44727 8.94391C5.50656 8.90723 5.55445 8.85476 5.58557 8.79238C6.05364 7.90006 6.57301 7.03561 7.14105 6.20336L7.23901 6.05357C7.69092 5.36207 8.09375 4.6715 8.06042 3.82912C8.0482 3.51226 7.98457 3.1995 7.87201 2.90306C7.66959 2.37387 7.30958 1.91958 6.84065 1.60159C6.37172 1.28361 5.81646 1.11725 5.24994 1.12502ZM7.31115 3.8586C7.33569 4.48088 7.00867 5.03496 6.61133 5.64314L6.51355 5.79265C6.08343 6.44963 5.64215 7.12383 5.24994 7.82466C4.85773 7.12383 4.41644 6.44963 3.98633 5.79265L3.88855 5.64323C3.49121 5.03496 3.16418 4.48088 3.18872 3.85842C3.19804 3.62247 3.24547 3.38957 3.32916 3.16876C3.47614 2.7809 3.73981 2.44818 4.08383 2.21647C4.42785 1.98475 4.83527 1.86545 5.24994 1.87502C5.6646 1.86545 6.07202 1.98475 6.41604 2.21646C6.76005 2.44817 7.02373 2.78089 7.17071 3.16875C7.2544 3.38956 7.30183 3.62264 7.31115 3.8586Z" fill="black"/>
<path d="M5.25 2.625C4.99041 2.625 4.73665 2.70198 4.52081 2.8462C4.30498 2.99042 4.13675 3.1954 4.03741 3.43523C3.93807 3.67506 3.91208 3.93896 3.96272 4.19356C4.01336 4.44816 4.13837 4.68202 4.32192 4.86558C4.50548 5.04913 4.73934 5.17414 4.99394 5.22478C5.24854 5.27542 5.51244 5.24943 5.75227 5.15009C5.9921 5.05075 6.19709 4.88253 6.3413 4.66669C6.48552 4.45085 6.5625 4.19709 6.5625 3.9375C6.56209 3.58953 6.42368 3.25592 6.17763 3.00987C5.93158 2.76382 5.59797 2.62541 5.25 2.625ZM5.25 4.5C5.13875 4.5 5.02999 4.46701 4.93749 4.4052C4.84499 4.34339 4.77289 4.25554 4.73032 4.15276C4.68774 4.04998 4.6766 3.93688 4.69831 3.82776C4.72001 3.71865 4.77359 3.61842 4.85225 3.53975C4.93092 3.46109 5.03115 3.40751 5.14026 3.38581C5.24938 3.3641 5.36248 3.37524 5.46526 3.41782C5.56804 3.46039 5.65589 3.53249 5.7177 3.62499C5.77951 3.71749 5.8125 3.82625 5.8125 3.9375C5.81234 4.08663 5.75302 4.22961 5.64757 4.33507C5.54211 4.44052 5.39914 4.49984 5.25 4.5Z" fill="black"/>
<path d="M7.31537 13.5905C7.20282 13.8869 7.13918 14.1996 7.12695 14.5164C7.09344 15.3589 7.49646 16.0494 7.94836 16.7412L8.04577 16.89C8.61396 17.7226 9.13351 18.5873 9.60181 19.4799C9.63293 19.5422 9.68082 19.5947 9.7401 19.6314C9.79939 19.6681 9.86772 19.6875 9.93744 19.6875C10.0072 19.6875 10.0755 19.6681 10.1348 19.6314C10.1941 19.5947 10.2419 19.5422 10.2731 19.4799C10.7414 18.5873 11.2609 17.7226 11.8291 16.89L11.9265 16.741C12.3784 16.0496 12.7812 15.3591 12.7479 14.5166C12.7357 14.1998 12.6721 13.887 12.5595 13.5906C12.3505 13.0659 11.989 12.616 11.5215 12.299C11.0541 11.982 10.5023 11.8125 9.9375 11.8125C9.37271 11.8125 8.82091 11.9819 8.35344 12.2989C7.88598 12.6158 7.52437 13.0658 7.31537 13.5905ZM8.01666 13.8561C8.17173 13.4738 8.43737 13.1465 8.77956 12.916C9.12175 12.6856 9.52494 12.5625 9.9375 12.5625C10.3501 12.5625 10.7532 12.6857 11.0954 12.9162C11.4376 13.1466 11.7032 13.474 11.8582 13.8563C11.9419 14.0771 11.9893 14.31 11.9986 14.5459C12.0232 15.1681 11.6962 15.7225 11.2988 16.3306L11.2016 16.4793C10.7713 17.1367 10.3298 17.8111 9.93743 18.5122C9.54504 17.8111 9.10357 17.1367 8.67327 16.4793L8.57604 16.3308C8.1787 15.7226 7.85168 15.1683 7.87621 14.5459C7.88555 14.3099 7.93297 14.077 8.01666 13.8561Z" fill="black"/>
<path d="M9.9375 15.9375C10.1971 15.9375 10.4508 15.8605 10.6667 15.7163C10.8825 15.5721 11.0508 15.3671 11.1501 15.1273C11.2494 14.8874 11.2754 14.6235 11.2248 14.3689C11.1741 14.1143 11.0491 13.8805 10.8656 13.6969C10.682 13.5134 10.4482 13.3884 10.1936 13.3377C9.93896 13.2871 9.67506 13.3131 9.43523 13.4124C9.1954 13.5117 8.99042 13.68 8.8462 13.8958C8.70198 14.1117 8.625 14.3654 8.625 14.625C8.62542 14.973 8.76384 15.3066 9.00989 15.5526C9.25594 15.7987 9.58953 15.9371 9.9375 15.9375ZM9.9375 14.0625C10.0488 14.0625 10.1575 14.0955 10.25 14.1573C10.3425 14.2191 10.4146 14.307 10.4572 14.4097C10.4998 14.5125 10.5109 14.6256 10.4892 14.7347C10.4675 14.8439 10.4139 14.9441 10.3352 15.0227C10.2566 15.1014 10.1564 15.155 10.0472 15.1767C9.93812 15.1984 9.82502 15.1873 9.72224 15.1447C9.61946 15.1021 9.53161 15.03 9.4698 14.9375C9.40799 14.845 9.375 14.7363 9.375 14.625C9.37516 14.4759 9.43448 14.3329 9.53993 14.2274C9.64539 14.122 9.78837 14.0627 9.9375 14.0625Z" fill="black"/>
</svg>
