<svg width="45" height="45" viewBox="0 0 45 45" fill="none" xmlns="http://www.w3.org/2000/svg">
<path d="M24.4978 40.3125H8.64328C6.49312 40.3125 4.6875 38.4047 4.6875 36.173V15.4688H39.8438V22.7906C39.8438 23.5927 40.448 24.2433 41.25 24.2433C42.052 24.2433 42.6562 23.5931 42.6562 22.7906V8.85656C42.6562 5.07234 39.6361 1.875 35.8927 1.875H8.64328C4.89141 1.875 1.875 5.00672 1.875 8.85656V36.173C1.875 40.0064 4.89141 43.125 8.64328 43.125H24.4978C25.2998 43.125 25.9505 42.5208 25.9505 41.7188C25.9505 40.9167 25.2998 40.3125 24.4978 40.3125ZM4.6875 8.85656C4.6875 6.64687 6.52969 4.6875 8.64328 4.6875H35.8927C38.0616 4.6875 39.8438 6.64687 39.8438 8.85656V12.6562H4.6875V8.85656Z" fill="#316FF6"/>
<path d="M34.9556 7.5H34.3748C33.5727 7.5 32.9221 8.33859 32.9221 9.14063C32.9221 9.94266 33.5723 10.7813 34.3748 10.7813H34.9556C35.7576 10.7813 36.4082 9.94266 36.4082 9.14063C36.4082 8.33859 35.7576 7.5 34.9556 7.5Z" fill="#316FF6"/>
<path d="M30.0168 7.5H29.4361C28.634 7.5 27.9834 8.33859 27.9834 9.14063C27.9834 9.94266 28.6336 10.7813 29.4361 10.7813H30.0168C30.8189 10.7813 31.4695 9.94266 31.4695 9.14063C31.4695 8.33859 30.8193 7.5 30.0168 7.5Z" fill="#316FF6"/>
<path d="M24.7883 7.5H24.2075C23.4055 7.5 22.7549 8.33859 22.7549 9.14063C22.7549 9.94266 23.405 10.7813 24.2075 10.7813H24.7883C25.5904 10.7813 26.241 9.94266 26.241 9.14063C26.241 8.33859 25.5904 7.5 24.7883 7.5Z" fill="#316FF6"/>
<path d="M23.8528 28.3195C22.5741 27.0407 22.5741 24.9595 23.8528 23.6807L23.873 23.6606C25.1536 22.4006 27.2208 22.4062 28.4935 23.6788L31.8797 27.0651C32.4469 27.6323 33.3666 27.6323 33.9338 27.0651C34.501 26.4979 34.501 25.5782 33.9338 25.011L30.5471 21.6243C28.1358 19.2135 24.2119 19.214 21.8002 21.6243L21.7566 21.6684C18.8082 24.667 20.6302 29.2049 21.7983 30.3731L25.1846 33.7593C25.4682 34.0429 26.3667 34.7451 27.2386 33.7593C27.7702 33.1584 27.8058 32.2724 27.2386 31.7053L23.8528 28.3195Z" fill="#316FF6"/>
<path d="M41.3841 32.462L37.9979 29.0758C37.4307 28.5086 36.511 28.5086 35.9438 29.0758C35.3766 29.643 35.3766 30.5627 35.9438 31.1298L39.3301 34.5161C40.6088 35.7948 40.6088 37.8761 39.3301 39.1548L39.3169 39.168C38.0368 40.4355 35.9644 40.4317 34.6894 39.1567L31.3032 35.77C30.736 35.2028 29.8163 35.2028 29.2491 35.77C28.6819 36.3372 28.6819 37.2569 29.2491 37.8241L32.6358 41.2108C33.8415 42.4159 37.9693 44.5895 41.3822 41.2108L41.4047 41.1883C43.7954 38.7752 43.7883 34.8663 41.3841 32.462Z" fill="#316FF6"/>
<path d="M26.9244 26.8748C26.3572 27.442 26.3572 28.3617 26.9244 28.9288L34.1136 36.1181C34.3972 36.4017 35.5077 37.0312 36.1677 36.1181C36.6374 35.4679 36.7349 34.6312 36.1677 34.064L28.9785 26.8748C28.4113 26.3076 27.4921 26.3071 26.9244 26.8748Z" fill="#316FF6"/>
</svg>
