<svg width="22" height="21" viewBox="0 0 22 21" fill="none" xmlns="http://www.w3.org/2000/svg">
<path d="M3.83005 3.72468C4.16308 3.72468 4.43305 3.4547 4.43305 3.12168C4.43305 2.78865 4.16308 2.51868 3.83005 2.51868C3.49702 2.51868 3.22705 2.78865 3.22705 3.12168C3.22705 3.4547 3.49702 3.72468 3.83005 3.72468Z" fill="#316FF6"/>
<path d="M5.95407 3.72468C6.2871 3.72468 6.55707 3.4547 6.55707 3.12168C6.55707 2.78865 6.2871 2.51868 5.95407 2.51868C5.62105 2.51868 5.35107 2.78865 5.35107 3.12168C5.35107 3.4547 5.62105 3.72468 5.95407 3.72468Z" fill="#316FF6"/>
<path d="M8.0781 3.72468C8.41113 3.72468 8.6811 3.4547 8.6811 3.12168C8.6811 2.78865 8.41113 2.51868 8.0781 2.51868C7.74507 2.51868 7.4751 2.78865 7.4751 3.12168C7.4751 3.4547 7.74507 3.72468 8.0781 3.72468Z" fill="#316FF6"/>
<path d="M14.0533 13.3044L16.0205 19.7709C16.211 20.3972 17.093 20.4107 17.3023 19.7897L18.2233 17.0567C18.2908 16.8572 18.4468 16.7012 18.6463 16.6337L21.3793 15.7127C21.9995 15.5034 21.9868 14.6214 21.3605 14.4309L14.894 12.4637C14.3788 12.3077 13.8973 12.7892 14.0533 13.3044Z" fill="#316FF6"/>
<path d="M12.9778 13.6315C12.8098 13.081 12.9103 12.4997 13.2523 12.0385C13.5913 11.5817 14.1298 11.3087 14.6946 11.3087C14.8723 11.3087 15.0493 11.335 15.2218 11.3875L21.0358 13.1552V2.86446C21.0358 1.32696 19.7833 0.0744629 18.2458 0.0744629H2.9526C1.4151 0.0744629 0.162598 1.32696 0.162598 2.86446V15.352C0.162598 16.897 1.4151 18.1495 2.9601 18.1495H14.3511L12.9778 13.6315ZM1.5126 4.82946V2.86521C1.5126 2.07096 2.15835 1.42521 2.9526 1.42521H18.2451C19.0393 1.42521 19.6851 2.07096 19.6851 2.86521V4.82946H1.5126Z" fill="#316FF6"/>
</svg>
