<svg width="75" height="75" viewBox="0 0 75 75" fill="none" xmlns="http://www.w3.org/2000/svg">
<rect width="75" height="75" rx="22" fill="#C4DEFF"/>
<path d="M23.4166 19.25H27.5833V23.4167H23.4166V19.25Z" fill="#316FF6"/>
<path fill-rule="evenodd" clip-rule="evenodd" d="M52.5833 23.4166H54.6666C56.9679 23.4166 58.8333 25.2821 58.8333 27.5833V52.5833C58.8333 54.8845 56.9679 56.75 54.6666 56.75H21.3333C19.0321 56.75 17.1666 54.8845 17.1666 52.5833V27.5833C17.1666 25.2821 19.0321 23.4166 21.3333 23.4166H23.4166V25.5H27.5833V23.4166H48.4166V25.5H52.5833V23.4166ZM23.4166 33.8333H27.5833V38H23.4166V33.8333ZM35.9166 42.1666H23.4166V46.3333H35.9166V42.1666ZM31.75 33.8333H35.9166V38H31.75V33.8333ZM44.25 33.8333H40.0833V38H44.25V33.8333ZM48.4166 33.8333H52.5833V38H48.4166V33.8333ZM43.7662 43.156L45.2393 44.6293L49.7854 40.0833L52.7316 43.0295L45.2393 50.5218L40.82 46.1025L43.7662 43.156Z" fill="#316FF6"/>
<path d="M52.5833 23.4167H48.4166V19.25H52.5833V23.4167Z" fill="#316FF6"/>
</svg>
