<svg width="24" height="24" viewBox="0 0 24 24" fill="none" xmlns="http://www.w3.org/2000/svg">
<path d="M12.39 6.41248H6.38995C6.19104 6.41248 6.00028 6.49149 5.85962 6.63215C5.71897 6.7728 5.63995 6.96356 5.63995 7.16248C5.63995 7.36139 5.71897 7.55215 5.85962 7.69281C6.00028 7.83346 6.19104 7.91248 6.38995 7.91248H12.39C12.5889 7.91248 12.7796 7.83346 12.9203 7.69281C13.0609 7.55215 13.14 7.36139 13.14 7.16248C13.14 6.96356 13.0609 6.7728 12.9203 6.63215C12.7796 6.49149 12.5889 6.41248 12.39 6.41248Z" fill="#6B6B6B"/>
<path d="M12.39 10.425H6.38995C6.19104 10.425 6.00028 10.5041 5.85962 10.6447C5.71897 10.7854 5.63995 10.9761 5.63995 11.175C5.63995 11.374 5.71897 11.5647 5.85962 11.7054C6.00028 11.846 6.19104 11.925 6.38995 11.925H12.39C12.5889 11.925 12.7796 11.846 12.9203 11.7054C13.0609 11.5647 13.14 11.374 13.14 11.175C13.14 10.9761 13.0609 10.7854 12.9203 10.6447C12.7796 10.5041 12.5889 10.425 12.39 10.425Z" fill="#6B6B6B"/>
<path d="M12.39 14.5275H6.38995C6.19104 14.5275 6.00028 14.6065 5.85962 14.7471C5.71897 14.8878 5.63995 15.0786 5.63995 15.2775C5.63995 15.4764 5.71897 15.6671 5.85962 15.8078C6.00028 15.9484 6.19104 16.0275 6.38995 16.0275H12.39C12.5889 16.0275 12.7796 15.9484 12.9203 15.8078C13.0609 15.6671 13.14 15.4764 13.14 15.2775C13.14 15.0786 13.0609 14.8878 12.9203 14.7471C12.7796 14.6065 12.5889 14.5275 12.39 14.5275Z" fill="#6B6B6B"/>
<path d="M19.4025 0.75H4.59747C4.21272 0.750981 3.83194 0.827861 3.47695 0.976234C3.12196 1.12461 2.79973 1.34156 2.52871 1.61466C2.2577 1.88777 2.04323 2.21166 1.89759 2.56778C1.75195 2.9239 1.678 3.30525 1.67997 3.69V21.9825C1.67948 22.1702 1.72896 22.3547 1.82334 22.5169C1.91771 22.6792 2.05357 22.8134 2.21697 22.9058C2.38038 22.9982 2.56542 23.0454 2.75311 23.0426C2.94081 23.0399 3.12437 22.9872 3.28497 22.89L6.04497 21.2325C6.08661 21.2066 6.13467 21.1928 6.18372 21.1928C6.23277 21.1928 6.28083 21.2066 6.32247 21.2325L9.38997 23.07C9.55131 23.1728 9.73865 23.2275 9.92997 23.2275C10.1225 23.2265 10.3113 23.1748 10.4775 23.0775L13.56 21.2325C13.6016 21.2066 13.6497 21.1928 13.6987 21.1928C13.7478 21.1928 13.7958 21.2066 13.8375 21.2325L16.5825 22.89C16.7436 22.9857 16.9276 23.0363 17.115 23.0363C17.3024 23.0363 17.4863 22.9857 17.6475 22.89C17.8088 22.7977 17.943 22.6646 18.0365 22.5039C18.1299 22.3433 18.1794 22.1609 18.18 21.975V9.33H20.535C21.0078 9.32803 21.4606 9.13933 21.795 8.80501C22.1293 8.47068 22.318 8.0178 22.32 7.545V3.69C22.3219 3.30525 22.248 2.9239 22.1024 2.56778C21.9567 2.21166 21.7422 1.88777 21.4712 1.61466C21.2002 1.34156 20.878 1.12461 20.523 0.976234C20.168 0.827861 19.7872 0.750981 19.4025 0.75ZM16.68 21.195L14.61 19.95C14.3342 19.7863 14.0194 19.6999 13.6987 19.6999C13.378 19.6999 13.0632 19.7863 12.7875 19.95L9.93747 21.66L7.09497 19.9425C6.81592 19.7756 6.49658 19.6881 6.17143 19.6894C5.84627 19.6907 5.52765 19.7808 5.24997 19.95L3.17997 21.2025V3.69C3.17698 3.50197 3.21145 3.31522 3.28134 3.14063C3.35124 2.96605 3.45518 2.80712 3.58711 2.6731C3.71903 2.53908 3.87631 2.43265 4.04977 2.36001C4.22323 2.28737 4.40941 2.24998 4.59747 2.25H16.9875C16.7894 2.62732 16.684 3.04637 16.68 3.4725V21.1725V21.195ZM20.82 7.545C20.82 7.62059 20.7899 7.69308 20.7365 7.74653C20.683 7.79997 20.6106 7.83 20.535 7.83H18.18V3.495C18.177 3.33258 18.2064 3.17118 18.2665 3.02026C18.3266 2.86933 18.4162 2.73189 18.53 2.61598C18.6438 2.50007 18.7796 2.408 18.9294 2.34516C19.0792 2.28232 19.24 2.24997 19.4025 2.25C19.7784 2.25 20.139 2.39934 20.4048 2.66518C20.6706 2.93101 20.82 3.29156 20.82 3.6675V7.545Z" fill="#6B6B6B"/>
</svg>
