<svg width="24" height="24" viewBox="0 0 24 24" fill="none" xmlns="http://www.w3.org/2000/svg">
<path d="M22.5168 23.191H21.8427V2.02247C21.8427 1.79902 21.6616 1.61798 21.4382 1.61798H13.8876C13.6642 1.61798 13.4831 1.79902 13.4831 2.02247V3.77527H12.6742V2.02247C12.6742 1.79902 12.4931 1.61798 12.2697 1.61798H10.5168V0.404484C10.5168 0.181031 10.3357 0 10.1124 0C9.889 0 9.70788 0.181031 9.70788 0.404484V1.61798H7.95508C7.73168 1.61798 7.5506 1.79902 7.5506 2.02247V3.77527H6.3371C6.11369 3.77527 5.93261 3.9563 5.93261 4.17975V7.55053H2.56183C2.33843 7.55053 2.15735 7.73156 2.15735 7.95502V23.191H1.4831C1.25969 23.191 1.07861 23.372 1.07861 23.5955C1.07861 23.8189 1.25974 24 1.4831 24H22.5168C22.7403 24 22.9213 23.819 22.9213 23.5955C22.9213 23.3721 22.7402 23.191 22.5168 23.191ZM8.35952 2.42695H11.8651V3.77527H8.35952V2.42695ZM7.01121 23.191H6.74154V22.5169C6.74154 22.2934 6.56041 22.1124 6.33705 22.1124C6.11369 22.1124 5.93257 22.2934 5.93257 22.5169V23.191H5.66289V21.8427H7.01121V23.191ZM9.70783 12.809V13.5048V23.191H7.82018V21.4382C7.82018 21.2148 7.63905 21.0338 7.41569 21.0338H5.25841C5.035 21.0338 4.85393 21.2148 4.85393 21.4382V23.191H2.96627V8.35955H9.70783V12.809ZM10.1123 7.55058H6.74154V4.58428H13.4831V12.4045H10.5168V11.0562H11.7303C11.9538 11.0562 12.1348 10.8751 12.1348 10.6517C12.1348 10.4282 11.9537 10.2472 11.7303 10.2472H10.5168V8.89889H11.7303C11.9538 8.89889 12.1348 8.71786 12.1348 8.49441C12.1348 8.27095 11.9537 8.08992 11.7303 8.08992H10.5168V7.95511C10.5168 7.73161 10.3357 7.55058 10.1123 7.55058ZM17.2584 23.191H10.5168V13.5048V13.2135H17.2584V23.191ZM21.0337 23.191H18.0674V12.809V12.2696C18.0674 12.0462 17.8863 11.8651 17.6629 11.8651C17.4395 11.8651 17.2584 12.0462 17.2584 12.2696V12.4044H16.4494V12.2696C16.4494 12.0462 16.2683 11.8651 16.045 11.8651C15.8216 11.8651 15.6405 12.0462 15.6405 12.2696V12.4044H14.2922V4.1798V2.42695H21.0337V23.191H21.0337Z" fill="#316FF6"/>
<path d="M12.2697 22.3822C12.4931 22.3822 12.6742 22.2011 12.6742 21.9777V14.4272C12.6742 14.2037 12.4931 14.0227 12.2697 14.0227C12.0464 14.0227 11.8652 14.2037 11.8652 14.4272V21.9778C11.8652 22.2011 12.0463 22.3822 12.2697 22.3822Z" fill="#316FF6"/>
<path d="M13.8876 22.3822C14.111 22.3822 14.2921 22.2011 14.2921 21.9777V14.4272C14.2921 14.2037 14.111 14.0227 13.8876 14.0227C13.6643 14.0227 13.4832 14.2037 13.4832 14.4272V21.9778C13.4831 22.2011 13.6642 22.3822 13.8876 22.3822Z" fill="#316FF6"/>
<path d="M15.5056 22.3822C15.729 22.3822 15.91 22.2011 15.91 21.9777V14.4272C15.91 14.2037 15.7289 14.0227 15.5056 14.0227C15.2822 14.0227 15.1011 14.2037 15.1011 14.4272V21.9778C15.1011 22.2011 15.2822 22.3822 15.5056 22.3822Z" fill="#316FF6"/>
<path d="M16.0449 5.12366C16.2683 5.12366 16.4493 4.94263 16.4493 4.71917V4.17987C16.4493 3.95642 16.2682 3.77539 16.0449 3.77539C15.8215 3.77539 15.6404 3.95642 15.6404 4.17987V4.71922C15.6404 4.94263 15.8215 5.12366 16.0449 5.12366Z" fill="#316FF6"/>
<path d="M17.6628 5.12366C17.8862 5.12366 18.0673 4.94263 18.0673 4.71917V4.17987C18.0673 3.95642 17.8861 3.77539 17.6628 3.77539C17.4394 3.77539 17.2583 3.95642 17.2583 4.17987V4.71922C17.2583 4.94263 17.4394 5.12366 17.6628 5.12366Z" fill="#316FF6"/>
<path d="M19.2809 5.12366C19.5044 5.12366 19.6854 4.94263 19.6854 4.71917V4.17987C19.6854 3.95642 19.5043 3.77539 19.2809 3.77539C19.0576 3.77539 18.8765 3.95642 18.8765 4.17987V4.71922C18.8765 4.94263 19.0575 5.12366 19.2809 5.12366Z" fill="#316FF6"/>
<path d="M16.0449 7.82024C16.2683 7.82024 16.4493 7.6392 16.4493 7.41575V6.87641C16.4493 6.65295 16.2682 6.47192 16.0449 6.47192C15.8215 6.47192 15.6404 6.65295 15.6404 6.87641V7.41575C15.6404 7.6392 15.8215 7.82024 16.0449 7.82024Z" fill="#316FF6"/>
<path d="M17.6628 7.82024C17.8862 7.82024 18.0673 7.6392 18.0673 7.41575V6.87641C18.0673 6.65295 17.8861 6.47192 17.6628 6.47192C17.4394 6.47192 17.2583 6.65295 17.2583 6.87641V7.41575C17.2583 7.6392 17.4394 7.82024 17.6628 7.82024Z" fill="#316FF6"/>
<path d="M19.2809 7.82024C19.5044 7.82024 19.6854 7.6392 19.6854 7.41575V6.87641C19.6854 6.65295 19.5043 6.47192 19.2809 6.47192C19.0576 6.47192 18.8765 6.65295 18.8765 6.87641V7.41575C18.8765 7.6392 19.0575 7.82024 19.2809 7.82024Z" fill="#316FF6"/>
<path d="M16.0449 10.5168C16.2683 10.5168 16.4493 10.3357 16.4493 10.1123V9.57294C16.4493 9.34949 16.2682 9.16846 16.0449 9.16846C15.8215 9.16846 15.6404 9.34949 15.6404 9.57294V10.1123C15.6404 10.3357 15.8215 10.5168 16.0449 10.5168Z" fill="#316FF6"/>
<path d="M17.6628 10.5168C17.8862 10.5168 18.0673 10.3357 18.0673 10.1123V9.57294C18.0673 9.34949 17.8861 9.16846 17.6628 9.16846C17.4394 9.16846 17.2583 9.34949 17.2583 9.57294V10.1123C17.2583 10.3357 17.4394 10.5168 17.6628 10.5168Z" fill="#316FF6"/>
<path d="M19.2809 10.5168C19.5044 10.5168 19.6854 10.3357 19.6854 10.1123V9.57294C19.6854 9.34949 19.5043 9.16846 19.2809 9.16846C19.0576 9.16846 18.8765 9.34949 18.8765 9.57294V10.1123C18.8765 10.3357 19.0575 10.5168 19.2809 10.5168Z" fill="#316FF6"/>
<path d="M4.71918 11.5956C4.94259 11.5956 5.12367 11.4146 5.12367 11.1911V10.6518C5.12367 10.4283 4.94254 10.2473 4.71918 10.2473C4.49582 10.2473 4.3147 10.4283 4.3147 10.6518V11.1911C4.3147 11.4145 4.49582 11.5956 4.71918 11.5956Z" fill="#316FF6"/>
<path d="M6.3371 11.5956C6.56051 11.5956 6.74159 11.4146 6.74159 11.1911V10.6518C6.74159 10.4283 6.56046 10.2473 6.3371 10.2473C6.11374 10.2473 5.93262 10.4283 5.93262 10.6518V11.1911C5.93262 11.4145 6.1137 11.5956 6.3371 11.5956Z" fill="#316FF6"/>
<path d="M7.95502 11.5956C8.17843 11.5956 8.35951 11.4146 8.35951 11.1911V10.6518C8.35951 10.4283 8.17838 10.2473 7.95502 10.2473C7.73166 10.2473 7.55054 10.4283 7.55054 10.6518V11.1911C7.55054 11.4145 7.73162 11.5956 7.95502 11.5956Z" fill="#316FF6"/>
<path d="M4.71918 14.2922C4.94259 14.2922 5.12367 14.1111 5.12367 13.8877V13.3483C5.12367 13.1249 4.94254 12.9438 4.71918 12.9438C4.49582 12.9438 4.3147 13.1249 4.3147 13.3483V13.8877C4.3147 14.1111 4.49582 14.2922 4.71918 14.2922Z" fill="#316FF6"/>
<path d="M6.3371 14.2922C6.56051 14.2922 6.74159 14.1111 6.74159 13.8877V13.3483C6.74159 13.1249 6.56046 12.9438 6.3371 12.9438C6.11374 12.9438 5.93262 13.1249 5.93262 13.3483V13.8877C5.93262 14.1111 6.1137 14.2922 6.3371 14.2922Z" fill="#316FF6"/>
<path d="M7.95502 14.2922C8.17843 14.2922 8.35951 14.1111 8.35951 13.8877V13.3483C8.35951 13.1249 8.17838 12.9438 7.95502 12.9438C7.73166 12.9438 7.55054 13.1249 7.55054 13.3483V13.8877C7.55054 14.1111 7.73162 14.2922 7.95502 14.2922Z" fill="#316FF6"/>
<path d="M4.71918 16.9887C4.94259 16.9887 5.12367 16.8077 5.12367 16.5842V16.0449C5.12367 15.8214 4.94254 15.6404 4.71918 15.6404C4.49582 15.6404 4.3147 15.8214 4.3147 16.0449V16.5842C4.3147 16.8077 4.49582 16.9887 4.71918 16.9887Z" fill="#316FF6"/>
<path d="M6.3371 16.9887C6.56051 16.9887 6.74159 16.8077 6.74159 16.5842V16.0449C6.74159 15.8214 6.56046 15.6404 6.3371 15.6404C6.11374 15.6404 5.93262 15.8214 5.93262 16.0449V16.5842C5.93262 16.8077 6.1137 16.9887 6.3371 16.9887Z" fill="#316FF6"/>
<path d="M7.95502 16.9887C8.17843 16.9887 8.35951 16.8077 8.35951 16.5842V16.0449C8.35951 15.8214 8.17838 15.6404 7.95502 15.6404C7.73166 15.6404 7.55054 15.8214 7.55054 16.0449V16.5842C7.55054 16.8077 7.73162 16.9887 7.95502 16.9887Z" fill="#316FF6"/>
<path d="M4.71918 19.6855C4.94259 19.6855 5.12367 19.5044 5.12367 19.281V18.7416C5.12367 18.5182 4.94254 18.3372 4.71918 18.3372C4.49582 18.3372 4.3147 18.5182 4.3147 18.7416V19.281C4.3147 19.5044 4.49582 19.6855 4.71918 19.6855Z" fill="#316FF6"/>
<path d="M6.3371 19.6855C6.56051 19.6855 6.74159 19.5044 6.74159 19.281V18.7416C6.74159 18.5182 6.56046 18.3372 6.3371 18.3372C6.11374 18.3372 5.93262 18.5182 5.93262 18.7416V19.281C5.93262 19.5044 6.1137 19.6855 6.3371 19.6855Z" fill="#316FF6"/>
<path d="M7.95502 19.6855C8.17843 19.6855 8.35951 19.5044 8.35951 19.281V18.7416C8.35951 18.5182 8.17838 18.3372 7.95502 18.3372C7.73166 18.3372 7.55054 18.5182 7.55054 18.7416V19.281C7.55054 19.5044 7.73162 19.6855 7.95502 19.6855Z" fill="#316FF6"/>
<path d="M19.2809 13.2135C19.5044 13.2135 19.6854 13.0325 19.6854 12.8091V12.2697C19.6854 12.0463 19.5043 11.8652 19.2809 11.8652C19.0576 11.8652 18.8765 12.0463 18.8765 12.2697V12.8091C18.8765 13.0325 19.0575 13.2135 19.2809 13.2135Z" fill="#316FF6"/>
<path d="M19.2809 15.9101C19.5044 15.9101 19.6854 15.729 19.6854 15.5056V14.9663C19.6854 14.7428 19.5043 14.5618 19.2809 14.5618C19.0576 14.5618 18.8765 14.7428 18.8765 14.9663V15.5056C18.8765 15.729 19.0575 15.9101 19.2809 15.9101Z" fill="#316FF6"/>
<path d="M19.2809 18.6069C19.5044 18.6069 19.6854 18.4258 19.6854 18.2024V17.663C19.6854 17.4396 19.5043 17.2585 19.2809 17.2585C19.0576 17.2585 18.8765 17.4396 18.8765 17.663V18.2024C18.8765 18.4258 19.0575 18.6069 19.2809 18.6069Z" fill="#316FF6"/>
<path d="M19.2809 21.3034C19.5044 21.3034 19.6854 21.1224 19.6854 20.8989V20.3596C19.6854 20.1361 19.5043 19.9551 19.2809 19.9551C19.0576 19.9551 18.8765 20.1361 18.8765 20.3596V20.8989C18.8765 21.1223 19.0575 21.3034 19.2809 21.3034Z" fill="#316FF6"/>
<path d="M12.1348 6.3371C12.1348 6.11365 11.9537 5.93262 11.7303 5.93262H8.49433C8.27092 5.93262 8.08984 6.11365 8.08984 6.3371C8.08984 6.56055 8.27097 6.74159 8.49433 6.74159H11.7303C11.9537 6.74159 12.1348 6.56055 12.1348 6.3371Z" fill="#316FF6"/>
</svg>
