<svg width="24" height="24" viewBox="0 0 24 24" fill="none" xmlns="http://www.w3.org/2000/svg">
<path fill-rule="evenodd" clip-rule="evenodd" d="M20.48 8.301C20.975 9.434 21.25 10.685 21.25 12C21.25 17.105 17.105 21.25 12 21.25C6.895 21.25 2.75 17.105 2.75 12C2.75 6.895 6.895 2.75 12 2.75C12.414 2.75 12.75 2.414 12.75 2C12.75 1.586 12.414 1.25 12 1.25C6.067 1.25 1.25 6.067 1.25 12C1.25 17.933 6.067 22.75 12 22.75C17.933 22.75 22.75 17.933 22.75 12C22.75 10.471 22.43 9.017 21.854 7.699C21.688 7.32 21.245 7.147 20.866 7.313C20.487 7.479 20.314 7.921 20.48 8.301Z" fill="#316FF6"/>
<path fill-rule="evenodd" clip-rule="evenodd" d="M17.0001 1.25C15.1001 1.25 13.5581 2.792 13.5581 4.692C13.5581 5.286 13.8271 6.009 14.2431 6.715C15.0781 8.136 16.4701 9.53 16.4701 9.53C16.7631 9.823 17.2371 9.823 17.5301 9.53C17.5301 9.53 18.9221 8.136 19.7571 6.715C20.1731 6.009 20.4421 5.286 20.4421 4.692C20.4421 2.792 18.9001 1.25 17.0001 1.25ZM17.0001 2.75C18.0721 2.75 18.9421 3.62 18.9421 4.692C18.9421 5.22 18.5491 5.869 18.1271 6.481C17.7501 7.027 17.3251 7.535 17.0001 7.901C16.6751 7.535 16.2501 7.027 15.8731 6.481C15.4511 5.869 15.0581 5.22 15.0581 4.692C15.0581 3.62 15.9281 2.75 17.0001 2.75Z" fill="#316FF6"/>
<path fill-rule="evenodd" clip-rule="evenodd" d="M1.6029 12.6359L4.8729 14.6799C5.4689 15.0519 6.1579 15.2499 6.8599 15.2499H7.6199C8.2769 15.2499 8.9009 15.5369 9.3289 16.0359L10.3799 17.2629C10.8719 17.8369 11.0429 18.6189 10.8359 19.3449C10.5679 20.2809 10.2789 21.2939 10.2789 21.2939C10.1649 21.6919 10.3959 22.1069 10.7939 22.2209C11.1919 22.3349 11.6069 22.1039 11.7209 21.7059C11.7209 21.7059 12.0099 20.6929 12.2779 19.7569C12.6239 18.5469 12.3389 17.2429 11.5189 16.2869C11.1759 15.8859 10.7979 15.4459 10.4669 15.0599C9.7549 14.2279 8.7149 13.7499 7.6199 13.7499H6.8599C6.4389 13.7499 6.0259 13.6319 5.6679 13.4079L2.3969 11.3639C2.0459 11.1449 1.5829 11.2509 1.3639 11.6029C1.1449 11.9539 1.2509 12.4169 1.6029 12.6359Z" fill="#316FF6"/>
<path fill-rule="evenodd" clip-rule="evenodd" d="M5.32897 4.33521C5.32897 4.33521 6.34097 6.35921 6.92497 7.52721C7.27797 8.23421 7.91797 8.75421 8.68197 8.95621L10.44 9.42121C10.883 9.53821 11.226 9.88821 11.334 10.3332L12.087 13.4202C12.25 14.0902 12.659 14.6742 13.233 15.0572L13.699 15.3672C14.355 15.8052 15.168 15.9402 15.93 15.7372C16.693 15.5352 17.331 15.0152 17.684 14.3092L18.259 13.1582C18.423 12.8322 18.72 12.5932 19.074 12.5052C19.074 12.5042 21.865 11.8072 21.865 11.8072C22.266 11.7062 22.511 11.2992 22.41 10.8972C22.31 10.4962 21.903 10.2512 21.501 10.3522L18.71 11.0492C17.932 11.2442 17.277 11.7692 16.918 12.4872L16.342 13.6382C16.182 13.9592 15.892 14.1952 15.545 14.2872C15.199 14.3792 14.829 14.3182 14.531 14.1192L14.065 13.8092C13.804 13.6352 13.618 13.3692 13.544 13.0652L12.792 9.97821C12.553 8.99921 11.798 8.22921 10.823 7.97121L9.06497 7.50621C8.71797 7.41421 8.42697 7.17821 8.26697 6.85621C7.68197 5.68821 6.67097 3.66521 6.67097 3.66521C6.48597 3.29421 6.03497 3.14421 5.66497 3.32921C5.29397 3.51421 5.14397 3.96521 5.32897 4.33521Z" fill="#316FF6"/>
</svg>
