<svg width="24" height="24" viewBox="0 0 24 24" fill="none" xmlns="http://www.w3.org/2000/svg">
<g clip-path="url(#clip0_3399_1966)">
<path d="M10.1133 22.472C10.4647 23.2324 10.9548 23.9809 11.8418 23.9503C12.4375 23.9325 12.8844 23.569 12.9363 22.7398C12.964 22.3032 12.9987 21.7608 16.792 21.465C17.3656 21.8375 17.7572 22.9806 18.6105 23.5396C19.9367 24.4099 21.7133 23.4239 20.5024 20.9445C19.9304 19.777 19.9606 19.4855 20.8952 18.4588C21.3175 17.9941 21.7541 17.5138 21.8519 16.8448C22.0403 15.509 20.8989 14.7388 22.2586 14.0014C22.4917 13.8752 22.7561 13.7318 22.9604 13.4951C23.3385 13.0551 23.3722 12.553 23.6657 11.0331C23.9823 9.386 23.9823 9.386 23.9192 9.11023C23.8394 8.75281 23.5531 8.47995 23.2248 8.44677C22.6642 8.38222 22.4206 8.86728 22.1842 9.3732C21.7138 10.295 20.0495 10.3851 19.073 12.4655C18.8913 12.8632 18.7096 13.2629 18.4687 13.1953C18.1757 13.1068 18.3267 12.558 18.4172 12.2696C18.648 11.5363 17.3907 10.1767 16.0487 12.1967C16.0026 12.2666 15.8391 12.5278 15.7543 12.5355C15.7324 12.53 15.6752 12.4677 15.6635 12.3849C15.6011 11.9481 16.174 11.5616 15.716 10.7946C15.4097 10.2815 14.7218 9.88864 14.0032 9.81716C13.0046 9.72172 11.7733 10.1479 10.3046 9.85053C11.4421 8.13533 12.6278 6.03144 12.6278 4.71378C12.6278 2.14166 10.5349 0.0488281 7.96281 0.0488281C5.38853 0.0488281 3.2942 2.1417 3.2942 4.71378C3.2942 5.79659 4.09567 7.41036 5.01315 8.90309C4.05226 8.90178 2.86337 8.90924 2.01545 8.35311C1.88814 8.26995 1.72328 8.27216 1.59746 8.35859C1.47236 8.44503 1.41254 8.5993 1.44611 8.74775C1.80287 10.3259 0.212637 11.7339 0.0604805 13.5331C-0.0226758 14.4931 0.320543 15.4111 0.629121 16.1041C3.24817 21.9716 8.20065 18.335 10.1133 22.472ZM7.96281 0.795828C10.1231 0.795828 11.8808 2.5535 11.8808 4.71383C11.8808 6.4168 9.27878 10.1345 7.96281 11.8375C6.64539 10.1349 4.04115 6.41675 4.04115 4.71378C4.04115 2.55345 5.80028 0.795828 7.96281 0.795828ZM0.804527 13.5966C0.92434 12.1816 2.20506 10.8813 2.24561 9.30148C3.25431 9.68764 4.37767 9.65595 5.4872 9.6492C6.53584 11.2525 7.58406 12.5664 7.67143 12.6753C7.74254 12.7636 7.84979 12.815 7.96286 12.815C8.07629 12.815 8.18354 12.7636 8.25428 12.6753C8.32534 12.5867 9.03193 11.7004 9.85675 10.5104C12.2657 11.1351 14.2942 9.87158 15.0748 11.1777C15.3007 11.555 14.8258 11.7957 14.9238 12.4908C14.9778 12.8646 15.2474 13.1816 15.5792 13.2618C16.6277 13.5093 16.7559 11.8171 17.4977 11.8846C17.5623 11.8901 17.6914 12.0101 17.7046 12.0454C17.6207 12.3127 17.5164 12.6454 17.5554 12.997C17.6582 13.9404 18.6895 14.3058 19.3386 13.5233C19.5144 13.3104 19.6182 13.0669 19.7475 12.7865C20.6665 10.8288 22.2268 11.0194 22.9199 9.56923C22.9746 9.4558 23.0881 9.2202 23.1391 9.18772C23.2955 9.26863 23.1106 9.96444 22.9323 10.8925C22.5129 12.7314 22.7758 12.8707 21.9026 13.345C20.0295 14.3597 21.2464 15.7901 21.1126 16.7385C20.9747 17.6822 19.5191 18.3563 19.3848 19.624C19.2669 20.81 20.7552 22.2995 19.9677 22.97C18.8463 23.9233 17.7849 20.6353 16.8488 20.7116C11.2656 21.1317 12.4612 22.3223 12.1353 23.0244C12.0051 23.3011 11.4055 23.3284 10.9795 22.5462C10.9135 22.4233 10.8537 22.2935 10.7913 22.1589C10.3697 21.2467 9.79229 19.9975 6.80326 19.3917C3.76689 18.781 2.57748 18.637 1.31143 15.8005C1.03942 15.1894 0.736324 14.3873 0.804527 13.5966Z" fill="#316FF6"/>
<path d="M10.0242 4.71387C10.0242 3.57916 9.09958 2.65601 7.96272 2.65601C6.82586 2.65601 5.90088 3.57916 5.90088 4.71387C5.90088 5.85072 6.82586 6.77571 7.96272 6.77571C9.09958 6.77571 10.0242 5.85077 10.0242 4.71387ZM6.64783 4.71387C6.64783 3.99096 7.23761 3.40301 7.96272 3.40301C8.68746 3.40301 9.27724 3.99096 9.27724 4.71387C9.27724 5.43897 8.68746 6.02876 7.96272 6.02876C7.23761 6.02876 6.64783 5.43897 6.64783 4.71387Z" fill="#316FF6"/>
</g>
<defs>
<clipPath id="clip0_3399_1966">
<rect width="24" height="24" fill="white"/>
</clipPath>
</defs>
</svg>
