<svg width="24" height="24" viewBox="0 0 24 24" fill="none" xmlns="http://www.w3.org/2000/svg">
<g clip-path="url(#clip0_3399_2014)">
<path d="M21.6281 7.32194V8.83366V12.4665V16.8587V20.6555C21.6281 21.2696 21.614 21.8837 21.6281 22.4977V22.5235C21.9797 22.3219 22.3336 22.118 22.6851 21.9165C21.8672 21.5485 21.0469 21.1829 20.2289 20.8149C19.0242 20.2758 17.8195 19.7344 16.6148 19.1954C16.4695 19.1298 16.3219 19.0641 16.1765 18.9985C15.9703 18.9071 15.7594 18.8087 15.5273 18.8907C15.2437 18.9891 14.9695 19.1133 14.6906 19.2235C13.4297 19.7251 12.1687 20.2266 10.9078 20.7258C9.98202 21.0938 9.05155 21.4501 8.13045 21.8298C8.11639 21.8368 8.10233 21.8415 8.08592 21.8462L8.62733 21.9165C7.88436 21.5837 7.13905 21.2485 6.39608 20.9157C5.21014 20.3837 4.0242 19.8516 2.83826 19.3219C2.56639 19.2001 2.29451 19.0782 2.0203 18.9563C2.13748 19.1579 2.25233 19.3618 2.36951 19.5633C2.36951 19.0594 2.36951 18.5555 2.36951 18.0516C2.36951 16.8399 2.36951 15.6305 2.36951 14.4188C2.36951 12.954 2.36951 11.4891 2.36951 10.0266C2.36951 8.76101 2.36951 7.49538 2.36951 6.22976C2.36951 5.61569 2.38358 5.00163 2.36951 4.38757C2.36951 4.37819 2.36951 4.37116 2.36951 4.36179C2.01795 4.56335 1.66405 4.76726 1.31248 4.96882C1.88436 5.22429 2.45623 5.4821 3.03045 5.73757C3.94217 6.14538 4.85389 6.55554 5.76561 6.96335C5.9742 7.0571 6.1828 7.15085 6.38905 7.24226C6.27186 7.04069 6.15702 6.83679 6.03983 6.63522C5.99998 8.49148 6.77811 10.2962 7.80233 11.8079C8.65545 13.0665 9.68905 14.2055 10.8305 15.2063C11.093 15.4383 11.3648 15.661 11.6437 15.8719C11.8219 16.0055 12.1758 16.0055 12.3539 15.8719C13.2234 15.218 14.0203 14.4563 14.7469 13.6477C16.0945 12.1524 17.2945 10.3829 17.7586 8.39772C18.0422 7.18132 18.0398 5.89226 17.6039 4.71101C17.2594 4.97585 16.9148 5.24069 16.5703 5.50554C17.1797 5.77976 17.789 6.05163 18.3984 6.32585C19.3687 6.76179 20.339 7.19538 21.3094 7.63132C21.5297 7.72976 21.7523 7.83054 21.9726 7.92897C22.1508 8.00866 22.3195 8.05319 22.514 7.99929C22.6781 7.95476 22.8539 7.82819 22.9336 7.67585C23.0953 7.36882 23.039 6.87429 22.6805 6.71491C22.0711 6.44069 21.4617 6.16882 20.8523 5.8946C19.882 5.45866 18.9117 5.02507 17.9414 4.58913C17.7211 4.49069 17.4984 4.38991 17.2781 4.29147C17.0109 4.17194 16.7414 4.15788 16.4976 4.34538C16.2914 4.50476 16.1484 4.82116 16.2445 5.08366C16.3805 5.45397 16.4742 5.83601 16.5281 6.22507C16.5187 6.16179 16.5117 6.10085 16.5023 6.03757C16.5656 6.53913 16.5586 7.04538 16.493 7.54694C16.5023 7.48366 16.5094 7.42272 16.5187 7.35944C16.425 8.04616 16.2281 8.71413 15.9586 9.35163C15.982 9.29538 16.0055 9.23913 16.0289 9.18288C15.764 9.80397 15.4383 10.3946 15.0656 10.9571C14.8875 11.229 14.6976 11.4915 14.5031 11.7493C14.414 11.8665 14.6062 11.618 14.5172 11.7329C14.4937 11.7634 14.468 11.7938 14.4445 11.8266C14.3953 11.8876 14.3484 11.9485 14.2992 12.0094C14.1961 12.1384 14.0883 12.2626 13.9805 12.3891C13.3523 13.1157 12.668 13.793 11.9344 14.4141C11.8312 14.5032 11.7258 14.5899 11.618 14.6743C11.6015 14.6883 11.5851 14.7001 11.5687 14.7141C11.5101 14.761 11.4445 14.768 11.6695 14.6368C11.6601 14.6438 11.6508 14.6509 11.6414 14.6579H12.3515C12.3445 14.6532 12.3375 14.6462 12.3305 14.6415C12.2601 14.6016 12.518 14.7868 12.4406 14.7282C12.4265 14.7165 12.4101 14.7048 12.3961 14.693C12.3094 14.6251 12.225 14.5548 12.1383 14.4844C11.8453 14.2407 11.5617 13.9876 11.2851 13.7251C10.8914 13.3524 10.514 12.9634 10.1555 12.5602C9.94452 12.3235 9.74061 12.0798 9.54373 11.8313C9.5203 11.8008 9.49452 11.7704 9.47108 11.7376C9.37967 11.6227 9.57186 11.8712 9.48514 11.754C9.43592 11.6907 9.38905 11.6274 9.34217 11.5618C9.24608 11.4305 9.15233 11.2993 9.06092 11.1657C8.63436 10.5423 8.25702 9.88366 7.9617 9.18757C7.98514 9.24382 8.00858 9.30007 8.03202 9.35632C7.76248 8.71648 7.56561 8.05085 7.47186 7.36413C7.48123 7.42741 7.48827 7.48835 7.49764 7.55163C7.4578 7.24929 7.4367 6.94226 7.44373 6.63757C7.44842 6.41257 7.31014 6.12663 7.09452 6.03054C6.52264 5.77507 5.95076 5.51726 5.37655 5.26179C4.46483 4.85397 3.55311 4.44382 2.64139 4.03601C2.4328 3.94226 2.2242 3.84851 2.01795 3.7571C1.78123 3.65163 1.54217 3.61882 1.3078 3.7571C1.09451 3.88132 0.958577 4.11569 0.958577 4.36413V5.87585V9.50866V13.9008V17.6977C0.958577 18.3118 0.946859 18.9258 0.958577 19.5399V19.5657C0.958577 19.793 1.08748 20.0743 1.3078 20.1727C2.12576 20.5407 2.94608 20.9063 3.76405 21.2743C4.96873 21.8134 6.17342 22.3548 7.37811 22.8938C7.52342 22.9594 7.67108 23.0251 7.81639 23.0907C8.02264 23.1821 8.23358 23.2805 8.46561 23.1985C8.7492 23.1001 9.02342 22.9758 9.30233 22.8657C10.5633 22.3641 11.8242 21.8626 13.0851 21.3633C14.0109 20.9954 14.9414 20.6391 15.8625 20.2594C15.8765 20.2524 15.8906 20.2477 15.907 20.243C15.7265 20.2196 15.5461 20.1962 15.3656 20.1727C16.1086 20.5055 16.8539 20.8407 17.5969 21.1735C18.7828 21.7055 19.9687 22.2376 21.1547 22.7673C21.4265 22.8891 21.6984 23.011 21.9726 23.1329C22.2094 23.2383 22.4484 23.2712 22.6828 23.1329C22.8961 23.0087 23.032 22.7743 23.032 22.5258C23.032 22.0219 23.032 21.518 23.032 21.0141C23.032 19.8024 23.032 18.593 23.032 17.3813C23.032 15.9165 23.032 14.4516 23.032 12.9891C23.032 11.7235 23.032 10.4579 23.032 9.19226C23.032 8.57819 23.0437 7.96413 23.032 7.35007C23.032 7.34069 23.032 7.33366 23.032 7.32429C23.032 6.95632 22.7086 6.60476 22.3289 6.62116C21.9492 6.63522 21.6281 6.92819 21.6281 7.32194Z" fill="#316FF6"/>
<path d="M8.97658 22.5235C8.97658 22.1485 8.97658 21.7758 8.97658 21.4008C8.97658 20.5032 8.97658 19.6055 8.97658 18.7055C8.97658 17.6204 8.97658 16.5329 8.97658 15.4477C8.97658 14.5102 8.97658 13.5704 8.97658 12.6329C8.97658 12.1782 8.98595 11.7235 8.97658 11.2688C8.97658 11.2618 8.97658 11.2548 8.97658 11.2501C8.97658 10.8821 8.65314 10.5305 8.27345 10.5469C7.89142 10.5633 7.57033 10.8563 7.57033 11.2501V12.3727V15.068V18.3258V21.1407C7.57033 21.5954 7.56095 22.0501 7.57033 22.5048V22.5235C7.57033 22.8915 7.89377 23.243 8.27345 23.2266C8.65549 23.2079 8.97658 22.9173 8.97658 22.5235Z" fill="#316FF6"/>
<path d="M16.4296 19.561C16.4296 19.2868 16.4296 19.0102 16.4296 18.736C16.4296 18.0751 16.4296 17.4141 16.4296 16.7508C16.4296 15.9516 16.4296 15.1501 16.4296 14.3508C16.4296 13.6594 16.4296 12.9657 16.4296 12.2743C16.4296 11.9368 16.4367 11.5993 16.4296 11.2641C16.4296 11.2594 16.4296 11.2548 16.4296 11.2501C16.4296 10.8821 16.1062 10.5305 15.7265 10.5469C15.3445 10.5633 15.0234 10.8563 15.0234 11.2501V12.0751V14.0602V16.4602V18.5368C15.0234 18.8743 15.0164 19.2118 15.0234 19.5469V19.561C15.0234 19.929 15.3468 20.2805 15.7265 20.2641C16.1062 20.2477 16.4296 19.9571 16.4296 19.561Z" fill="#316FF6"/>
<path d="M16.554 6.73366C16.554 7.00787 16.5352 7.27975 16.5001 7.55163C16.5095 7.48834 16.5165 7.42741 16.5259 7.36413C16.4321 8.05084 16.2352 8.71881 15.9657 9.35631C15.9891 9.30006 16.0126 9.24381 16.036 9.18756C15.7712 9.80866 15.4454 10.3993 15.0727 10.9618C14.8946 11.2337 14.7048 11.4962 14.5102 11.754C14.4212 11.8712 14.6134 11.6227 14.5243 11.7376C14.5009 11.768 14.4751 11.7985 14.4516 11.8313C14.4024 11.8923 14.3556 11.9532 14.3063 12.0141C14.2032 12.143 14.0954 12.2673 13.9876 12.3938C13.3595 13.1204 12.6751 13.7977 11.9415 14.4188C11.8384 14.5079 11.7329 14.5946 11.6251 14.679C11.6087 14.693 11.5923 14.7048 11.5759 14.7188C11.5173 14.7657 11.4516 14.7727 11.6766 14.6415C11.6673 14.6485 11.6579 14.6555 11.6485 14.6626H12.3587C12.3516 14.6579 12.3446 14.6508 12.3376 14.6462C12.2673 14.6063 12.5251 14.7915 12.4477 14.7329C12.4337 14.7212 12.4173 14.7094 12.4032 14.6977C12.3165 14.6298 12.2321 14.5594 12.1454 14.4891C11.8524 14.2454 11.5688 13.9923 11.2923 13.7297C10.8985 13.3571 10.5212 12.968 10.1626 12.5649C9.95164 12.3282 9.74774 12.0844 9.55086 11.836C9.52743 11.8055 9.50164 11.7751 9.47821 11.7423C9.3868 11.6274 9.57899 11.8758 9.49227 11.7587C9.44305 11.6954 9.39618 11.6321 9.3493 11.5665C9.25321 11.4352 9.15946 11.304 9.06805 11.1704C8.64149 10.5469 8.26414 9.88834 7.96883 9.19225C7.99227 9.2485 8.01571 9.30475 8.03914 9.361C7.76961 8.72116 7.57274 8.05553 7.47899 7.36881C7.48836 7.43209 7.49539 7.49303 7.50477 7.55631C7.43914 7.04772 7.43211 6.53444 7.49774 6.0235C7.48836 6.08678 7.48133 6.14772 7.47196 6.211C7.53524 5.75163 7.65946 5.30163 7.83993 4.87272C7.81649 4.92897 7.79305 4.98522 7.76961 5.04147C7.87039 4.80475 7.98993 4.57272 8.12352 4.35241C8.19149 4.24225 8.2618 4.13678 8.3368 4.03131C8.35555 4.00553 8.37196 3.98209 8.39071 3.95631C8.40946 3.93288 8.47977 3.83913 8.40008 3.94225C8.32039 4.04538 8.39305 3.95163 8.4118 3.92819C8.43524 3.90006 8.45633 3.87194 8.47977 3.84616C8.64852 3.64694 8.83133 3.45944 9.02821 3.28834C9.07508 3.2485 9.12196 3.20866 9.16883 3.16881C9.19227 3.15006 9.21805 3.13131 9.24149 3.11022C9.29539 3.06334 9.15008 3.18522 9.15946 3.1735C9.16883 3.15944 9.19461 3.14772 9.20868 3.136C9.3118 3.05866 9.41727 2.986 9.52508 2.91569C9.77352 2.75631 10.0337 2.62038 10.3056 2.50319C10.2493 2.52663 10.1931 2.55006 10.1368 2.5735C10.5657 2.39303 11.0134 2.26881 11.4751 2.20553C11.4118 2.21491 11.3509 2.22194 11.2876 2.23131C11.754 2.16803 12.2274 2.16803 12.6938 2.22897C12.6305 2.21959 12.5696 2.21256 12.5063 2.20319C12.9727 2.26647 13.4274 2.38834 13.861 2.57116C13.8048 2.54772 13.7485 2.52428 13.6923 2.50084C14.004 2.63444 14.304 2.79616 14.5852 2.986C14.6485 3.02819 14.7095 3.07272 14.7727 3.11725C14.9157 3.22272 14.6673 3.03288 14.761 3.10553C14.7938 3.13366 14.829 3.15944 14.8618 3.18756C14.986 3.29069 15.1079 3.40084 15.2227 3.51569C15.3376 3.63053 15.4477 3.75006 15.5509 3.87663C15.579 3.90944 15.6048 3.94459 15.6329 3.97741C15.7079 4.06881 15.5157 3.82272 15.6212 3.96334C15.6657 4.02428 15.7102 4.08756 15.7524 4.1485C15.9423 4.42975 16.104 4.72975 16.2376 5.04147C16.2141 4.98522 16.1907 4.92897 16.1673 4.87272C16.3501 5.30631 16.4743 5.76334 16.5376 6.22975C16.5282 6.16647 16.5212 6.10553 16.5118 6.04225C16.5376 6.27194 16.5516 6.50163 16.554 6.73366C16.5563 7.10162 16.8774 7.45319 17.2571 7.43678C17.6368 7.42038 17.9626 7.12741 17.9602 6.73366C17.9509 4.56569 16.7391 2.50084 14.8173 1.48131C13.036 0.536782 10.854 0.550844 9.09149 1.53288C8.26649 1.99225 7.57039 2.65319 7.04071 3.43131C6.49696 4.23288 6.18993 5.15866 6.07743 6.11491C5.94852 7.21413 6.15711 8.36022 6.54383 9.39147C6.95399 10.4813 7.53758 11.4891 8.24071 12.4172C9.16649 13.6407 10.2399 14.7774 11.4516 15.7219C11.5173 15.7735 11.5806 15.8227 11.6462 15.8719C11.8243 16.0055 12.1782 16.0055 12.3563 15.8719C13.0641 15.3399 13.7181 14.7329 14.3321 14.0977C15.5368 12.8462 16.6102 11.4212 17.2876 9.81334C17.7001 8.836 17.9579 7.79772 17.9626 6.73366C17.9649 6.36569 17.6391 6.01413 17.2595 6.03053C16.8751 6.04694 16.554 6.33991 16.554 6.73366Z" fill="#316FF6"/>
<path d="M11.9999 7.93612C11.9132 7.93612 11.8265 7.92909 11.7421 7.91971C11.8054 7.92909 11.8664 7.93612 11.9296 7.94549C11.7632 7.92206 11.6015 7.87752 11.4468 7.81424C11.5031 7.83768 11.5593 7.86112 11.6156 7.88455C11.5078 7.83768 11.4023 7.78377 11.3039 7.71815C11.2781 7.70174 11.2546 7.68299 11.2289 7.66659C11.1609 7.62206 11.3695 7.78143 11.2874 7.71112C11.2406 7.67127 11.196 7.63143 11.1515 7.58924C11.1117 7.5494 11.0742 7.50721 11.039 7.46502C10.9546 7.36893 11.0789 7.52362 11.0835 7.52362C11.0742 7.52362 11.039 7.46268 11.0296 7.44862C10.9617 7.34549 10.9031 7.23768 10.8539 7.12518C10.8773 7.18143 10.9007 7.23768 10.9242 7.29393C10.8609 7.13924 10.8164 6.97752 10.7929 6.81112C10.8023 6.8744 10.8093 6.93534 10.8187 6.99862C10.7976 6.82518 10.7976 6.65409 10.8187 6.48065C10.8093 6.54393 10.8023 6.60487 10.7929 6.66815C10.8164 6.50174 10.8609 6.34002 10.9242 6.18534C10.9007 6.24159 10.8773 6.29784 10.8539 6.35409C10.9007 6.24627 10.9546 6.14081 11.0203 6.04237C11.0367 6.01659 11.0554 5.99315 11.0718 5.96737C11.1164 5.8994 10.957 6.10799 11.0273 6.02596C11.0671 5.97909 11.107 5.93456 11.1492 5.89002C11.189 5.85018 11.2312 5.81268 11.2734 5.77752C11.3695 5.69315 11.2148 5.81737 11.2148 5.82206C11.2148 5.81268 11.2757 5.77752 11.2898 5.76815C11.3929 5.70018 11.5007 5.64159 11.6132 5.59237C11.557 5.61581 11.5007 5.63924 11.4445 5.66268C11.5992 5.5994 11.7609 5.55487 11.9273 5.53143C11.864 5.54081 11.8031 5.54784 11.7398 5.55721C11.9132 5.53612 12.0843 5.53612 12.2578 5.55721C12.1945 5.54784 12.1335 5.54081 12.0703 5.53143C12.2367 5.55487 12.3984 5.5994 12.5531 5.66268C12.4968 5.63924 12.4406 5.61581 12.3843 5.59237C12.4921 5.63924 12.5976 5.69315 12.696 5.75877C12.7218 5.77518 12.7453 5.79393 12.771 5.81034C12.839 5.85487 12.6304 5.69549 12.7124 5.76581C12.7593 5.80565 12.8039 5.84549 12.8484 5.88768C12.8882 5.92752 12.9257 5.96971 12.9609 6.0119C13.0453 6.10799 12.921 5.95331 12.9164 5.95331C12.9257 5.95331 12.9609 6.01424 12.9703 6.02831C13.0382 6.13143 13.0968 6.23924 13.146 6.35174C13.1226 6.29549 13.0992 6.23924 13.0757 6.18299C13.139 6.33768 13.1835 6.4994 13.207 6.66581C13.1976 6.60252 13.1906 6.54159 13.1812 6.47831C13.2023 6.65174 13.2023 6.82284 13.1812 6.99627C13.1906 6.93299 13.1976 6.87206 13.207 6.80877C13.1835 6.97518 13.139 7.1369 13.0757 7.29159C13.0992 7.23534 13.1226 7.17909 13.146 7.12284C13.0992 7.23065 13.0453 7.33612 12.9796 7.43456C12.9632 7.46034 12.9445 7.48377 12.9281 7.50955C12.8835 7.57752 13.0429 7.36893 12.9726 7.45096C12.9328 7.49784 12.8929 7.54237 12.8507 7.5869C12.8109 7.62674 12.7687 7.66424 12.7265 7.6994C12.6304 7.78377 12.7851 7.65956 12.7851 7.65487C12.7851 7.66424 12.7242 7.6994 12.7101 7.70877C12.607 7.77674 12.4992 7.83534 12.3867 7.88455C12.4429 7.86112 12.4992 7.83768 12.5554 7.81424C12.4007 7.87752 12.239 7.92206 12.0726 7.94549C12.1359 7.93612 12.1968 7.92909 12.2601 7.91971C12.1734 7.93143 12.0867 7.93612 11.9999 7.93612C11.632 7.93846 11.2804 8.25721 11.2968 8.63924C11.3132 9.01659 11.6062 9.34471 11.9999 9.34237C12.5156 9.33768 13.0499 9.19002 13.4718 8.88534C13.9382 8.54784 14.271 8.11659 14.4703 7.57518C14.8218 6.6119 14.5031 5.41893 13.7109 4.76502C13.2585 4.39237 12.7476 4.18143 12.164 4.12987C11.6484 4.08534 11.0976 4.22831 10.657 4.49549C10.2281 4.75565 9.85541 5.1494 9.64916 5.60877C9.40776 6.14784 9.33744 6.70799 9.45229 7.28924C9.68666 8.48221 10.807 9.33299 11.9999 9.34237C12.3679 9.34471 12.7195 9.01659 12.7031 8.63924C12.6867 8.25721 12.3937 7.94081 11.9999 7.93612Z" fill="#316FF6"/>
</g>
<defs>
<clipPath id="clip0_3399_2014">
<rect width="24" height="24" fill="white"/>
</clipPath>
</defs>
</svg>
