<svg width="24" height="24" viewBox="0 0 24 24" fill="none" xmlns="http://www.w3.org/2000/svg">
<path d="M21.6002 5.32802H16.3538V4.05122C16.3538 3.60565 16.1768 3.17834 15.8618 2.86328C15.5467 2.54822 15.1194 2.37122 14.6738 2.37122H9.32661C8.88105 2.37122 8.45374 2.54822 8.13868 2.86328C7.82361 3.17834 7.64662 3.60565 7.64662 4.05122V5.32802H2.40021C1.95465 5.32802 1.52734 5.50502 1.21228 5.82008C0.897214 6.13514 0.720215 6.56245 0.720215 7.00802V19.9488C0.720215 20.3944 0.897214 20.8217 1.21228 21.1368C1.52734 21.4518 1.95465 21.6288 2.40021 21.6288H21.6002C22.0458 21.6288 22.4731 21.4518 22.7882 21.1368C23.1032 20.8217 23.2802 20.3944 23.2802 19.9488V7.00802C23.2802 6.56245 23.1032 6.13514 22.7882 5.82008C22.4731 5.50502 22.0458 5.32802 21.6002 5.32802ZM8.60661 4.05122C8.60661 3.86026 8.68247 3.67712 8.8175 3.5421C8.95252 3.40707 9.13566 3.33122 9.32661 3.33122H14.6738C14.8648 3.33122 15.0479 3.40707 15.1829 3.5421C15.318 3.67712 15.3938 3.86026 15.3938 4.05122V5.32802H8.60661V4.05122ZM1.68021 7.00802C1.68021 6.81706 1.75607 6.63393 1.8911 6.4989C2.02612 6.36387 2.20926 6.28802 2.40021 6.28802H21.6002C21.7912 6.28802 21.9743 6.36387 22.1093 6.4989C22.2444 6.63393 22.3202 6.81706 22.3202 7.00802V10.0656C22.3189 10.9003 21.9868 11.7005 21.3965 12.2908C20.8063 12.881 20.0061 13.2131 19.1714 13.2144H13.9706V11.7312C13.9706 11.6039 13.92 11.4818 13.83 11.3918C13.74 11.3018 13.6179 11.2512 13.4906 11.2512H10.5098C10.3825 11.2512 10.2604 11.3018 10.1704 11.3918C10.0804 11.4818 10.0298 11.6039 10.0298 11.7312V13.2144H4.82901C3.99429 13.2131 3.19412 12.881 2.60388 12.2908C2.01364 11.7005 1.68148 10.9003 1.68021 10.0656V7.00802ZM13.0106 12.2112V15.1776H10.9898V12.2112H13.0106ZM22.3202 19.9488C22.3202 20.1398 22.2444 20.3229 22.1093 20.4579C21.9743 20.593 21.7912 20.6688 21.6002 20.6688H2.40021C2.20926 20.6688 2.02612 20.593 1.8911 20.4579C1.75607 20.3229 1.68021 20.1398 1.68021 19.9488V12.7008C2.06513 13.162 2.54666 13.5331 3.09076 13.7877C3.63487 14.0424 4.22827 14.1744 4.82901 14.1744H10.0298V15.6576C10.0298 15.7849 10.0804 15.907 10.1704 15.997C10.2604 16.087 10.3825 16.1376 10.5098 16.1376H13.4906C13.6179 16.1376 13.74 16.087 13.83 15.997C13.92 15.907 13.9706 15.7849 13.9706 15.6576V14.1744H19.1714C19.7722 14.1744 20.3656 14.0424 20.9097 13.7877C21.4538 13.5331 21.9353 13.162 22.3202 12.7008V19.9488Z" fill="black"/>
</svg>
