<svg width="29" height="29" viewBox="0 0 29 29" fill="none" xmlns="http://www.w3.org/2000/svg">
<path d="M19.3738 13.2094C19.4894 13.2094 19.604 13.1866 19.7108 13.1424C19.8177 13.0981 19.9148 13.0333 19.9966 12.9515C20.0783 12.8697 20.1432 12.7726 20.1874 12.6658C20.2317 12.5589 20.2544 12.4444 20.2544 12.3287V5.28373C20.2544 5.05018 20.1616 4.82619 19.9965 4.66104C19.8313 4.49589 19.6073 4.40311 19.3738 4.40311C19.1402 4.40311 18.9162 4.49589 18.7511 4.66104C18.5859 4.82619 18.4932 5.05018 18.4932 5.28373V12.3287C18.4931 12.4444 18.5159 12.5589 18.5601 12.6658C18.6044 12.7726 18.6692 12.8697 18.751 12.9515C18.8328 13.0333 18.9299 13.0981 19.0368 13.1424C19.1436 13.1866 19.2581 13.2094 19.3738 13.2094Z" fill="#316FF6"/>
<path d="M15.8513 11.4481C15.967 11.4481 16.0815 11.4254 16.1884 11.3811C16.2952 11.3369 16.3923 11.272 16.4741 11.1903C16.5559 11.1085 16.6207 11.0114 16.665 10.9045C16.7092 10.7977 16.732 10.6831 16.732 10.5675V7.04499C16.732 6.81144 16.6392 6.58745 16.474 6.4223C16.3089 6.25715 16.0849 6.16437 15.8513 6.16437C15.6178 6.16437 15.3938 6.25715 15.2286 6.4223C15.0635 6.58745 14.9707 6.81144 14.9707 7.04499V10.5675C14.9707 10.6831 14.9934 10.7977 15.0377 10.9045C15.0819 11.0114 15.1468 11.1085 15.2286 11.1903C15.3103 11.272 15.4074 11.3369 15.5143 11.3811C15.6211 11.4254 15.7357 11.4481 15.8513 11.4481Z" fill="#316FF6"/>
<path d="M22.8963 10.5675C23.0119 10.5675 23.1264 10.5448 23.2333 10.5005C23.3401 10.4563 23.4372 10.3914 23.519 10.3096C23.6008 10.2278 23.6657 10.1307 23.7099 10.0239C23.7541 9.91704 23.7769 9.80251 23.7769 9.68686V7.92561C23.7769 7.69205 23.6841 7.46806 23.5189 7.30291C23.3538 7.13776 23.1298 7.04498 22.8963 7.04498C22.6627 7.04498 22.4387 7.13776 22.2736 7.30291C22.1084 7.46806 22.0156 7.69205 22.0156 7.92561V9.68686C22.0156 9.80251 22.0384 9.91704 22.0826 10.0239C22.1268 10.1307 22.1917 10.2278 22.2735 10.3096C22.3553 10.3914 22.4524 10.4563 22.5592 10.5005C22.6661 10.5448 22.7806 10.5675 22.8963 10.5675Z" fill="#316FF6"/>
<path d="M24.0774 20.8085L20.5023 17.2335C20.3784 17.1096 20.2205 17.0255 20.0486 16.9919C19.8766 16.9583 19.6986 16.9767 19.5372 17.0448L15.7738 18.633L9.54683 12.4061L11.1351 8.64272C11.2032 8.48132 11.2216 8.30328 11.188 8.13135C11.1544 7.95942 11.0703 7.80142 10.9464 7.67755L7.3714 4.10255C7.28962 4.02077 7.19254 3.9559 7.0857 3.91164C6.97885 3.86738 6.86433 3.8446 6.74868 3.8446C6.63304 3.8446 6.51852 3.86738 6.41167 3.91164C6.30483 3.9559 6.20775 4.02077 6.12597 4.10255L3.68463 6.54392C0.889627 9.33898 4.07663 14.3892 8.93366 19.2463C13.7907 24.1033 18.841 27.2903 21.6361 24.4953L24.0774 22.0539C24.2425 21.8887 24.3353 21.6647 24.3353 21.4312C24.3353 21.1976 24.2425 20.9736 24.0774 20.8085Z" fill="#316FF6"/>
</svg>
