<svg width="75" height="75" viewBox="0 0 75 75" fill="none" xmlns="http://www.w3.org/2000/svg">
<rect width="75" height="75" rx="22" fill="#C4DEFF"/>
<g clip-path="url(#clip0_42_540)">
<path d="M37.0238 46.4532C37.0238 39.4898 41.9752 33.6608 48.5432 32.3029V31.3706C48.5432 30.5623 47.8871 29.9062 47.0788 29.9062H23.3567C22.5484 29.9062 21.8924 30.5623 21.8924 31.3706V35.0802H20.9056C16.5513 35.0802 13.0088 38.6227 13.0088 42.977V47.2936C13.0088 51.6479 16.5513 55.1904 20.9056 55.1904H21.8924V56.6733C21.8924 60.1623 24.7303 63.0002 28.2193 63.0002H42.2163C44.3513 63.0002 46.2422 61.9381 47.3883 60.3136C41.4031 58.5476 37.0238 53.0026 37.0238 46.4532ZM20.9056 52.2617C18.1662 52.2617 15.9374 50.033 15.9374 47.2935V42.977C15.9374 40.2375 18.1662 38.0088 20.9056 38.0088H21.8924V52.2616H20.9056V52.2617Z" fill="#316FF6"/>
<path d="M27.0628 22.5796C26.563 23.2188 26.6674 24.1544 27.3173 24.6485C27.9707 25.1576 28.9165 25.0204 29.3983 24.3467C30.2097 23.2744 31.2577 20.573 29.4181 18.0232C29.0256 17.4794 28.9336 16.9602 29.1283 16.3892C29.3043 15.8729 29.6379 15.5216 29.6379 15.5216C30.2246 14.9555 30.2403 14.0122 29.6635 13.4333C29.0885 12.8521 28.1457 12.857 27.5754 13.4424C26.5525 14.457 25.1247 17.0784 27.0431 19.7369C28.0469 21.1281 27.0628 22.5796 27.0628 22.5796Z" fill="#316FF6"/>
<path d="M40.9508 22.5796C40.451 23.2188 40.5554 24.1544 41.2053 24.6485C41.8587 25.1576 42.8045 25.0204 43.2863 24.3467C44.0977 23.2744 45.1457 20.573 43.3061 18.0232C42.9136 17.4794 42.8216 16.9602 43.0163 16.3892C43.1923 15.8729 43.5259 15.5216 43.5259 15.5216C44.1126 14.9555 44.1283 14.0122 43.5515 13.4333C42.9765 12.8521 42.0337 12.857 41.4634 13.4424C40.4405 14.457 39.0127 17.0784 40.9311 19.7369C41.9349 21.1281 40.9508 22.5796 40.9508 22.5796Z" fill="#316FF6"/>
<path d="M33.9477 22.5797C33.4479 23.2191 33.5523 24.1543 34.2025 24.6483C34.5032 24.8835 34.8663 24.9802 35.2178 24.9509C35.6288 24.9177 36.0232 24.7098 36.2828 24.3466C37.0941 23.2747 38.1425 20.5726 36.3033 18.0227C35.9109 17.4789 35.8182 16.9605 36.0134 16.3895C36.1891 15.873 36.523 15.5216 36.523 15.5216C37.1097 14.9554 37.1253 14.0124 36.5484 13.4335C36.1881 13.0693 35.6844 12.9346 35.2178 13.0293C34.9396 13.085 34.674 13.2226 34.4602 13.4423C33.4372 14.4565 32.0099 17.0787 33.9282 19.7369C34.9317 21.128 33.9477 22.5797 33.9477 22.5797Z" fill="#316FF6"/>
<path d="M51.4718 34.9337C45.1196 34.9337 39.9525 40.1008 39.9525 46.4531C39.9525 52.8054 45.1196 57.9725 51.4718 57.9725C57.8241 57.9725 62.9912 52.8054 62.9912 46.4531C62.9912 40.1008 57.8241 34.9337 51.4718 34.9337ZM52.9362 46.4531C52.9362 47.2614 52.2802 47.9174 51.4718 47.9174H48.2503C47.442 47.9174 46.786 47.2614 46.786 46.4531C46.786 45.6448 47.442 44.9888 48.2503 44.9888H50.0075V42.2554C50.0075 41.4471 50.6635 40.791 51.4718 40.791C52.2802 40.791 52.9362 41.4471 52.9362 42.2554V46.4531Z" fill="#316FF6"/>
</g>
<defs>
<clipPath id="clip0_42_540">
<rect width="50" height="50" fill="white" transform="translate(13 13)"/>
</clipPath>
</defs>
</svg>
