<svg width="24" height="24" viewBox="0 0 24 24" fill="none" xmlns="http://www.w3.org/2000/svg">
<path d="M8.61428 10.9445H5.84084C5.71354 10.9445 5.59145 10.8939 5.50143 10.8039C5.41141 10.7139 5.36084 10.5918 5.36084 10.4645C5.36084 10.3372 5.41141 10.2151 5.50143 10.1251C5.59145 10.0351 5.71354 9.98452 5.84084 9.98452H8.13428V6.80404C8.13428 6.67673 8.18485 6.55464 8.27487 6.46462C8.36489 6.37461 8.48698 6.32404 8.61428 6.32404C8.74158 6.32404 8.86367 6.37461 8.95369 6.46462C9.04371 6.55464 9.09428 6.67673 9.09428 6.80404V10.4645C9.09428 10.5918 9.04371 10.7139 8.95369 10.8039C8.86367 10.8939 8.74158 10.9445 8.61428 10.9445Z" fill="black"/>
<path d="M17.4471 21.1579H12.7931C12.4779 21.1579 12.1658 21.0958 11.8746 20.9752C11.5834 20.8546 11.3189 20.6778 11.096 20.4549C10.8731 20.232 10.6964 19.9675 10.5758 19.6763C10.4551 19.3851 10.3931 19.073 10.3931 18.7579V10.93C10.3931 10.8027 10.4436 10.6806 10.5337 10.5906C10.6237 10.5006 10.7458 10.45 10.8731 10.45H19.3671C19.4944 10.45 19.6165 10.5006 19.7066 10.5906C19.7966 10.6806 19.8471 10.8027 19.8471 10.93V18.7579C19.8471 19.073 19.7851 19.3851 19.6645 19.6763C19.5438 19.9675 19.3671 20.232 19.1442 20.4549C18.9213 20.6778 18.6568 20.8546 18.3656 20.9752C18.0744 21.0958 17.7623 21.1579 17.4471 21.1579ZM11.3531 11.41V18.7579C11.3531 19.1398 11.5048 19.506 11.7748 19.7761C12.0449 20.0461 12.4112 20.1979 12.7931 20.1979H17.4471C17.8291 20.1979 18.1953 20.0461 18.4654 19.7761C18.7354 19.506 18.8871 19.1398 18.8871 18.7579V11.41H11.3531Z" fill="black"/>
<path d="M20.6315 18.1991H19.3643C19.237 18.1991 19.1149 18.1485 19.0249 18.0585C18.9348 17.9685 18.8843 17.8464 18.8843 17.7191C18.8843 17.5918 18.9348 17.4697 19.0249 17.3797C19.1149 17.2896 19.237 17.2391 19.3643 17.2391H20.6315C20.7588 17.2391 20.8809 17.1885 20.9709 17.0985C21.0609 17.0085 21.1115 16.8864 21.1115 16.7591V14.8295C21.1115 14.7022 21.0609 14.5801 20.9709 14.4901C20.8809 14.4 20.7588 14.3495 20.6315 14.3495H19.3643C19.237 14.3495 19.1149 14.2989 19.0249 14.2089C18.9348 14.1189 18.8843 13.9968 18.8843 13.8695C18.8843 13.7422 18.9348 13.6201 19.0249 13.5301C19.1149 13.44 19.237 13.3895 19.3643 13.3895H20.6315C21.0134 13.3895 21.3797 13.5412 21.6497 13.8112C21.9198 14.0813 22.0715 14.4476 22.0715 14.8295V16.7591C22.0715 17.141 21.9198 17.5072 21.6497 17.7773C21.3797 18.0474 21.0134 18.1991 20.6315 18.1991Z" fill="black"/>
<path d="M14.2437 9.92931C14.1164 9.92931 13.9943 9.87874 13.9043 9.78872C13.8142 9.6987 13.7637 9.57661 13.7637 9.44931V7.90275C13.7637 7.26623 14.0165 6.65578 14.4666 6.20569C14.9167 5.75561 15.5272 5.50275 16.1637 5.50275H17.9339C18.0612 5.50275 18.1833 5.45218 18.2733 5.36216C18.3633 5.27214 18.4139 5.15005 18.4139 5.02275C18.4144 4.44469 18.6443 3.89046 19.053 3.48171C19.4618 3.07296 20.016 2.8431 20.5941 2.84259H21.5915C21.7188 2.84259 21.8409 2.89316 21.9309 2.98318C22.0209 3.0732 22.0715 3.19529 22.0715 3.32259C22.0715 3.44989 22.0209 3.57198 21.9309 3.662C21.8409 3.75202 21.7188 3.80259 21.5915 3.80259H20.5941C20.2705 3.80284 19.9603 3.93148 19.7316 4.16025C19.5028 4.38902 19.3742 4.69922 19.3739 5.02275C19.3739 5.40466 19.2222 5.77093 18.9521 6.04098C18.6821 6.31104 18.3158 6.46275 17.9339 6.46275H16.1637C15.7818 6.46275 15.4155 6.61446 15.1454 6.88452C14.8754 7.15457 14.7237 7.52084 14.7237 7.90275V9.44931C14.7237 9.57661 14.6731 9.6987 14.5831 9.78872C14.4931 9.87874 14.371 9.92931 14.2437 9.92931Z" fill="black"/>
<path d="M18.282 8.00395H16.0874C15.9601 8.00395 15.838 7.95338 15.748 7.86336C15.658 7.77334 15.6074 7.65125 15.6074 7.52395C15.6074 7.39665 15.658 7.27456 15.748 7.18454C15.838 7.09452 15.9601 7.04395 16.0874 7.04395H18.282C18.7821 7.04344 19.2616 6.84453 19.6153 6.49088C19.969 6.13722 20.1679 5.6577 20.1684 5.15755C20.1684 5.03025 20.219 4.90816 20.309 4.81814C20.399 4.72812 20.5211 4.67755 20.6484 4.67755C20.7757 4.67755 20.8978 4.72812 20.9878 4.81814C21.0778 4.90816 21.1284 5.03025 21.1284 5.15755C21.1276 5.91223 20.8275 6.63578 20.2938 7.16942C19.7602 7.70306 19.0367 8.00319 18.282 8.00395Z" fill="black"/>
<path d="M8.61023 17.1471C6.83688 17.1471 5.13617 16.4426 3.88223 15.1887C2.62829 13.9347 1.92383 12.234 1.92383 10.4607C1.92383 8.68731 2.62829 6.9866 3.88223 5.73265C5.13617 4.47871 6.83688 3.77425 8.61023 3.77425C10.3148 3.76993 11.9546 4.42688 13.1846 5.60689C13.2327 5.64979 13.2717 5.70194 13.2992 5.76023C13.3267 5.81852 13.3422 5.88175 13.3448 5.94616C13.3473 6.01056 13.3369 6.07482 13.314 6.13509C13.2912 6.19537 13.2565 6.25044 13.2119 6.297C13.1673 6.34357 13.1139 6.38068 13.0546 6.40612C12.9954 6.43157 12.9317 6.44483 12.8672 6.44511C12.8028 6.44539 12.7389 6.43269 12.6795 6.40776C12.62 6.38283 12.5662 6.34619 12.5213 6.30001C11.4694 5.29148 10.0674 4.73021 8.61023 4.73425C7.09149 4.74215 5.6381 5.35303 4.56977 6.43252C3.50144 7.51201 2.9057 8.97168 2.91359 10.4904C2.92148 12.0091 3.53237 13.4625 4.61186 14.5309C5.69134 15.5992 7.15101 16.1949 8.66975 16.1871C8.73909 16.1886 8.80845 16.1845 8.87711 16.1746C8.94014 16.1621 9.00503 16.1625 9.06794 16.1756C9.13084 16.1887 9.19047 16.2142 9.2433 16.2508C9.29613 16.2874 9.34108 16.3342 9.37549 16.3885C9.40989 16.4427 9.43305 16.5033 9.44359 16.5667C9.45413 16.6301 9.45184 16.695 9.43686 16.7574C9.42187 16.8199 9.39449 16.8788 9.35635 16.9305C9.3182 16.9822 9.27006 17.0257 9.21478 17.0584C9.15951 17.0912 9.09822 17.1125 9.03455 17.1211C8.89409 17.1417 8.75215 17.1504 8.61023 17.1471Z" fill="black"/>
<path d="M20.5325 21.1571H9.70754C9.58024 21.1571 9.45814 21.1065 9.36813 21.0165C9.27811 20.9265 9.22754 20.8044 9.22754 20.6771C9.22754 20.5498 9.27811 20.4277 9.36813 20.3377C9.45814 20.2477 9.58024 20.1971 9.70754 20.1971H20.5325C20.6598 20.1971 20.7819 20.2477 20.8719 20.3377C20.9619 20.4277 21.0125 20.5498 21.0125 20.6771C21.0125 20.8044 20.9619 20.9265 20.8719 21.0165C20.7819 21.1065 20.6598 21.1571 20.5325 21.1571Z" fill="black"/>
</svg>
