<svg width="440" height="333" viewBox="0 0 440 333" fill="none" xmlns="http://www.w3.org/2000/svg">
<path d="M378.438 13.2435L91.0525 10.0431C80.4526 9.92469 70.6224 12.9919 62.409 18.3123C62.2974 18.3829 62.1881 18.4558 62.0777 18.5275C61.9672 18.5981 61.8579 18.671 61.7486 18.7416C61.637 18.8122 61.5277 18.885 61.4173 18.9568C61.3069 19.0273 61.1976 19.1002 61.086 19.1719C60.9755 19.2425 60.8662 19.3154 60.7558 19.3871C60.6454 19.4577 60.5361 19.5306 60.4256 19.6012C60.3152 19.6718 60.2059 19.7446 60.0954 19.8164C59.9839 19.887 59.8746 19.9598 59.7641 20.0315C59.6537 20.1021 59.5444 20.175 59.4351 20.2456C59.3235 20.3162 59.2142 20.389 59.1038 20.4608C58.9933 20.5314 58.884 20.6042 58.7747 20.6748C58.6632 20.7454 58.5539 20.8183 58.4434 20.89C58.3318 20.9606 58.2225 21.0335 58.1121 21.1052C58.0017 21.1758 57.8924 21.2475 57.7831 21.3192C57.6715 21.3898 57.5622 21.4627 57.4517 21.5344C57.3413 21.605 57.232 21.6779 57.1227 21.7485C57.0111 21.8191 56.9018 21.8919 56.7914 21.9637C56.6809 22.0343 56.5717 22.1071 56.4612 22.1777C56.3496 22.2483 56.2403 22.3212 56.1299 22.3929C56.0195 22.4635 55.9102 22.5363 55.7997 22.6069C55.6893 22.6775 55.58 22.7504 55.4695 22.8221C55.358 22.8927 55.2487 22.9656 55.1382 23.0373C55.0278 23.1079 54.9185 23.1808 54.808 23.2525C54.6976 23.3231 54.5883 23.3959 54.4779 23.4677C54.3674 23.5383 54.2581 23.6111 54.1477 23.6829C54.0361 23.7534 53.9268 23.8263 53.8164 23.898C53.7059 23.9686 53.5966 24.0415 53.4862 24.1121C53.3758 24.1827 53.2665 24.2555 53.156 24.3273C53.0444 24.3979 52.9351 24.4707 52.8247 24.5425C52.7143 24.6131 52.605 24.6859 52.4945 24.7565C52.3829 24.8271 52.2736 24.9 52.1632 24.9717C52.0528 25.0423 51.9435 25.1151 51.833 25.1869C51.7226 25.2575 51.6133 25.3303 51.5029 25.4021C51.3924 25.4726 51.2831 25.5455 51.1738 25.6161C51.0634 25.6867 50.9541 25.7596 50.8436 25.8313C50.7321 25.9019 50.6228 25.9747 50.5123 26.0465C50.4019 26.1171 50.2926 26.1899 50.1821 26.2605C50.0706 26.3311 49.9613 26.404 49.8508 26.4757C49.7404 26.5463 49.6311 26.6192 49.5207 26.6898C49.4091 26.7603 49.2998 26.8332 49.1893 26.9049C49.0789 26.9755 48.9696 27.0484 48.8592 27.119C48.7476 27.1896 48.6383 27.2636 48.5278 27.3342C48.4174 27.4048 48.3081 27.4776 48.1977 27.5493C48.0872 27.6199 47.9779 27.6928 47.8686 27.7634C47.757 27.834 47.6477 27.9068 47.5373 27.9786C47.4269 28.0492 47.3176 28.122 47.2071 28.1926C47.0955 28.2632 46.9862 28.3361 46.8758 28.4078C46.7654 28.4784 46.6561 28.5513 46.5456 28.6219C46.4352 28.6924 46.3259 28.7653 46.2155 28.837C46.105 28.9076 45.9946 28.9805 45.8841 29.0522C30.2166 39.0327 20.342 57.1891 22.0954 77.2286L35.5439 230.777C38.027 259.138 62.9623 280.16 91.3348 277.813L268.597 263.146C268.698 263.321 268.781 263.501 268.894 263.673L298.167 308.559C301.692 313.964 308.492 314.839 313.266 311.881C313.379 311.816 313.484 311.736 313.596 311.666C313.71 311.601 313.814 311.52 313.926 311.451C314.04 311.386 314.145 311.305 314.256 311.236C314.37 311.171 314.475 311.09 314.586 311.021C314.7 310.956 314.805 310.875 314.916 310.805C315.03 310.741 315.135 310.66 315.247 310.59C315.36 310.525 315.465 310.445 315.577 310.375C315.691 310.31 315.795 310.229 315.907 310.16C316.021 310.095 316.126 310.014 316.237 309.945C316.351 309.88 316.456 309.799 316.567 309.73C316.681 309.665 316.786 309.584 316.897 309.514C317.011 309.449 317.116 309.369 317.228 309.299C317.341 309.234 317.446 309.153 317.558 309.084C317.672 309.019 317.776 308.938 317.888 308.869C318.002 308.804 318.107 308.723 318.218 308.654C318.332 308.589 318.437 308.508 318.548 308.438C318.662 308.374 318.767 308.293 318.879 308.223C318.992 308.158 319.097 308.078 319.209 308.008C319.323 307.943 319.427 307.862 319.539 307.793C319.653 307.728 319.758 307.647 319.869 307.578C319.983 307.513 320.088 307.432 320.199 307.363C320.313 307.298 320.418 307.217 320.529 307.147C320.643 307.082 320.748 307.002 320.86 306.932C320.973 306.867 321.078 306.786 321.19 306.717C321.304 306.652 321.408 306.571 321.52 306.502C321.634 306.437 321.739 306.356 321.85 306.287C321.964 306.222 322.069 306.141 322.18 306.071C322.294 306.007 322.399 305.926 322.51 305.856C322.624 305.791 322.729 305.71 322.841 305.641C322.955 305.576 323.059 305.495 323.171 305.426C323.285 305.361 323.389 305.28 323.501 305.211C323.615 305.146 323.72 305.065 323.831 304.995C323.945 304.931 324.05 304.85 324.161 304.78C324.275 304.715 324.38 304.635 324.492 304.565C324.605 304.5 324.71 304.419 324.822 304.35C324.936 304.285 325.04 304.204 325.152 304.135C325.266 304.07 325.371 303.989 325.483 303.92C325.597 303.855 325.702 303.774 325.813 303.704C325.927 303.639 326.032 303.559 326.144 303.489C326.257 303.424 326.362 303.343 326.474 303.274C326.588 303.209 326.692 303.128 326.804 303.059C326.918 302.994 327.023 302.913 327.134 302.844C327.248 302.779 327.353 302.698 327.464 302.628C327.578 302.564 327.683 302.483 327.794 302.413C327.908 302.348 328.013 302.268 328.125 302.198C328.239 302.133 328.343 302.052 328.455 301.983C328.569 301.918 328.673 301.837 328.785 301.768C328.899 301.703 329.004 301.622 329.115 301.553C329.229 301.488 329.334 301.407 329.445 301.337C329.559 301.272 329.664 301.192 329.776 301.122C331.954 299.879 333.75 297.862 334.685 295.13L347.874 256.577L365.274 255.136C374.496 254.374 382.987 251.223 390.159 246.323C390.268 246.25 390.38 246.183 390.488 246.109C390.598 246.036 390.71 245.968 390.819 245.894C390.928 245.821 391.041 245.752 391.15 245.678C391.258 245.606 391.372 245.538 391.479 245.464C391.588 245.392 391.701 245.323 391.81 245.249C391.92 245.176 392.031 245.109 392.139 245.035C392.249 244.962 392.362 244.894 392.471 244.82C392.58 244.747 392.693 244.679 392.801 244.605C392.909 244.532 393.022 244.465 393.13 244.391C393.239 244.318 393.352 244.25 393.461 244.176C393.569 244.103 393.682 244.036 393.79 243.962C393.899 243.889 394.012 243.82 394.122 243.746C394.231 243.673 394.342 243.606 394.451 243.532C394.56 243.459 394.673 243.391 394.782 243.317C394.891 243.244 395.003 243.177 395.111 243.103C395.22 243.03 395.333 242.962 395.441 242.888C395.55 242.815 395.663 242.747 395.772 242.673C395.882 242.599 395.994 242.532 396.103 242.458C396.212 242.385 396.325 242.316 396.433 242.243C396.542 242.171 396.655 242.102 396.762 242.029C396.871 241.957 396.984 241.888 397.093 241.814C397.202 241.741 397.314 241.674 397.422 241.6C397.531 241.527 397.644 241.459 397.752 241.385C397.862 241.312 397.974 241.244 398.084 241.17C398.193 241.097 398.305 241.03 398.413 240.956C398.522 240.883 398.635 240.815 398.744 240.741C398.853 240.668 398.966 240.599 399.074 240.525C399.183 240.453 399.296 240.384 399.404 240.31C399.513 240.237 399.625 240.169 399.733 240.096C399.843 240.023 399.955 239.955 400.064 239.881C400.173 239.808 400.287 239.74 400.395 239.666C400.503 239.593 400.616 239.526 400.724 239.452C400.833 239.379 400.946 239.311 401.055 239.237C401.165 239.164 401.276 239.097 401.384 239.023C401.494 238.95 401.606 238.881 401.716 238.807C401.824 238.734 401.936 238.667 402.045 238.593C402.154 238.52 402.268 238.452 402.376 238.377C402.485 238.304 402.598 238.236 402.706 238.162C402.815 238.089 402.927 238.022 403.035 237.948C403.144 237.874 403.257 237.807 403.366 237.733C403.475 237.66 403.587 237.591 403.696 237.519C403.805 237.445 403.918 237.377 404.027 237.303C404.136 237.23 404.248 237.163 404.356 237.089C404.465 237.016 404.578 236.948 404.686 236.874C404.795 236.801 404.908 236.733 405.017 236.659C405.127 236.585 405.239 236.518 405.348 236.444C405.457 236.371 405.57 236.303 405.678 236.229C405.786 236.156 405.899 236.087 406.007 236.014C406.116 235.94 406.229 235.873 406.338 235.799C406.446 235.726 406.559 235.658 406.667 235.585C420.54 226.262 429.571 210.436 429.571 192.637V64.9631C429.586 36.6224 406.778 13.5589 378.438 13.2435Z" fill="#E2A232"/>
<path d="M378.439 13.2435L91.0532 10.0431C60.4798 9.70266 36.2846 35.8152 38.9511 66.2735L52.3916 219.813C54.8748 248.174 79.81 269.197 108.183 266.85L285.446 252.182C285.547 252.357 285.63 252.537 285.743 252.709L315.016 297.595C320.037 305.294 331.719 303.836 334.694 295.14L351.251 246.737L382.13 244.182C408.951 241.963 429.588 219.548 429.588 192.636V64.963C429.587 36.6224 406.778 13.5589 378.439 13.2435Z" fill="#316FF6"/>
<path d="M381.248 5.59922L60.8039 2.0037C26.7136 1.62115 -0.264196 30.9603 2.70854 65.1826L17.6952 237.696C20.4641 269.562 48.2674 293.183 79.9041 290.545L277.556 274.066C277.669 274.263 277.761 274.464 277.888 274.658L310.528 325.091C316.126 333.74 329.151 332.103 332.468 322.332L350.931 267.948L385.361 265.078C415.267 262.585 438.278 237.399 438.278 207.161V63.7105C438.279 31.8666 412.847 5.95331 381.248 5.59922Z" stroke="white" stroke-width="3" stroke-miterlimit="10" stroke-linecap="round"/>
<path d="M78.7949 91.252C78.7949 75.5845 90.8191 64.5804 107.215 64.5804C115.59 64.5804 122.477 67.1444 127.448 71.8421C129.01 73.3176 128.911 75.8418 127.308 77.2729L121.957 82.0491C120.51 83.3414 118.354 83.2617 116.909 81.966C114.423 79.7379 111.545 78.4991 108.09 78.4991C100.948 78.4991 96.1384 83.4552 96.1384 91.252C96.1384 99.0487 100.949 104.005 108.09 104.005C111.545 104.005 114.422 102.766 116.909 100.538C118.354 99.2434 120.51 99.1626 121.957 100.455L127.308 105.232C128.911 106.663 129.009 109.186 127.448 110.662C122.477 115.36 115.59 117.923 107.215 117.923C90.8191 117.923 78.7949 106.919 78.7949 91.252ZM131.913 91.252C131.913 75.8031 144.082 64.5804 160.697 64.5804C177.312 64.5804 189.482 75.8031 189.482 91.252C189.482 106.701 177.312 117.923 160.697 117.923C144.082 117.923 131.913 106.701 131.913 91.252ZM172.138 91.252C172.138 83.3083 167.038 78.4991 160.697 78.4991C154.358 78.4991 149.256 83.3083 149.256 91.252C149.256 99.1956 154.358 104.005 160.697 104.005C167.038 104.005 172.138 99.1956 172.138 91.252ZM241.275 114.992L241.181 99.9038C241.169 98.1037 238.796 97.4604 237.877 99.0077L230.58 111.296C230.26 111.836 229.679 112.166 229.052 112.166H223.473C222.858 112.166 222.288 111.848 221.963 111.326L214.694 99.6077C213.751 98.0878 211.408 98.7561 211.408 100.545V114.98C211.408 115.962 210.612 116.756 209.632 116.756H197.518C196.536 116.756 195.742 115.961 195.742 114.98V67.5224C195.742 66.541 196.537 65.7463 197.518 65.7463H208.883C209.502 65.7463 210.076 66.0685 210.398 66.5968L224.958 90.4151C225.656 91.556 227.316 91.5468 228 90.3969L242.154 66.615C242.474 66.0765 243.055 65.7474 243.681 65.7474H255.037C256.016 65.7474 256.811 66.5399 256.813 67.519L256.949 114.977C256.952 115.961 256.155 116.759 255.172 116.759H243.051C242.075 116.758 241.281 115.969 241.275 114.992ZM268.934 65.7463H278.769C280.802 65.7463 282.451 67.3949 282.451 69.4284V113.076C282.451 115.109 280.802 116.758 278.769 116.758H268.934C266.901 116.758 265.252 115.109 265.252 113.076V69.4284C265.253 67.3949 266.901 65.7463 268.934 65.7463ZM341.037 67.9972V114.507C341.037 115.75 340.029 116.758 338.786 116.758H327.952C327.286 116.758 326.653 116.463 326.226 115.952L311.493 98.3383C310.144 96.7249 307.516 97.6791 307.516 99.7819V114.508C307.516 115.751 306.508 116.759 305.265 116.759H293.005C291.762 116.759 290.754 115.751 290.754 114.508V67.9984C290.754 66.7551 291.762 65.7474 293.005 65.7474H303.842C304.508 65.7474 305.141 66.0423 305.568 66.5535L320.299 84.1657C321.649 85.779 324.276 84.8249 324.276 82.722V67.9984C324.276 66.7551 325.284 65.7474 326.527 65.7474H338.787C340.029 65.7463 341.037 66.7539 341.037 67.9972ZM385.182 89.8675H395.91C397.073 89.8675 398.015 90.8102 398.015 91.9738V110.293C398.015 111.007 397.664 111.685 397.058 112.065C390.961 115.887 382.914 117.923 375.788 117.923C359.318 117.923 347.294 106.919 347.294 91.252C347.294 75.5845 359.319 64.5804 376.152 64.5804C385.305 64.5804 392.827 67.4769 398.005 72.7757C398.844 73.6341 398.776 75.0311 397.875 75.8236L389.985 82.7721C389.159 83.4996 387.92 83.4529 387.125 82.6901C384.231 79.9109 380.927 78.4991 377.026 78.4991C369.448 78.4991 364.637 83.3812 364.637 91.252C364.637 98.9041 369.447 104.005 376.807 104.005C378.418 104.005 379.985 103.793 381.576 103.306C382.464 103.034 383.075 102.208 383.075 101.28V91.9749C383.076 90.8102 384.019 89.8675 385.182 89.8675Z" fill="white"/>
<path d="M116.908 81.966C118.098 83.0328 119.766 83.2605 121.128 82.5899C120.788 82.4283 120.461 82.229 120.167 81.966C117.682 79.7379 114.803 78.4991 111.348 78.4991C110.779 78.4991 110.23 78.5413 109.691 78.6039C112.447 78.9307 114.818 80.0931 116.908 81.966Z" fill="#D0D9CA"/>
<path d="M82.0546 91.252C82.0546 76.1868 93.1736 65.44 108.605 64.6351C108.141 64.6191 107.689 64.5804 107.215 64.5804C90.8191 64.5804 78.7949 75.5845 78.7949 91.252C78.7949 106.919 90.8191 117.923 107.215 117.923C107.69 117.923 108.141 117.886 108.605 117.869C93.1736 117.064 82.0546 106.317 82.0546 91.252Z" fill="#D0D9CA"/>
<path d="M228.217 90.4138C228.915 91.5557 230.575 91.5455 231.259 90.3956L245.413 66.6137C245.733 66.0751 246.314 65.7461 246.94 65.7461H243.679C243.053 65.7461 242.473 66.0763 242.153 66.6137L228.1 90.2248L228.217 90.4138Z" fill="#D0D9CA"/>
<path d="M120.168 100.538C120.461 100.275 120.788 100.075 121.129 99.9138C119.767 99.2432 118.098 99.4698 116.908 100.538C114.819 102.411 112.447 103.573 109.693 103.9C110.232 103.961 110.781 104.005 111.35 104.005C114.804 104.005 117.683 102.766 120.168 100.538Z" fill="#D0D9CA"/>
<path d="M162.326 103.882C162.86 103.955 163.401 104.005 163.957 104.005C170.297 104.005 175.398 99.1956 175.398 91.252C175.398 83.3084 170.297 78.4991 163.957 78.4991C163.401 78.4991 162.86 78.5492 162.326 78.6221C167.886 79.3792 172.137 84.004 172.137 91.252C172.137 98.5 167.886 103.125 162.326 103.882Z" fill="#D0D9CA"/>
<path d="M387.125 82.6902C387.92 83.453 389.159 83.5008 389.985 82.7721L390.232 82.5547C387.375 79.87 384.121 78.498 380.287 78.498C379.718 78.498 379.17 78.5345 378.633 78.5891C381.846 78.9307 384.639 80.3026 387.125 82.6902Z" fill="#D0D9CA"/>
<path d="M327.536 82.7206V67.997C327.536 66.7537 328.543 65.7461 329.786 65.7461H326.526C325.282 65.7461 324.275 66.7537 324.275 67.997V82.7206C324.275 83.3514 324.022 83.8615 323.654 84.2474C325.026 85.7196 327.536 84.7791 327.536 82.7206Z" fill="#D0D9CA"/>
<path d="M384.837 103.306C385.726 103.033 386.337 102.208 386.337 101.28V91.9736C386.337 90.8111 387.28 89.8684 388.443 89.8684H385.182C384.019 89.8684 383.076 90.8111 383.076 91.9736V101.28C383.076 102.209 382.466 103.033 381.577 103.306C380.543 103.622 379.517 103.812 378.484 103.913C378.999 103.968 379.525 104.005 380.068 104.005C381.679 104.005 383.247 103.793 384.837 103.306Z" fill="#D0D9CA"/>
<path d="M350.556 91.2518C350.556 76.0807 361.83 65.2828 377.827 64.6144C377.275 64.5928 376.717 64.5814 376.152 64.5814C359.319 64.5814 347.295 75.5855 347.295 91.253C347.295 106.92 359.319 117.924 375.788 117.924C376.261 117.924 376.747 117.891 377.227 117.874C361.702 117.091 350.556 106.335 350.556 91.2518Z" fill="#D0D9CA"/>
<path d="M135.173 91.2518C135.173 76.313 146.553 65.3283 162.327 64.619C161.789 64.5951 161.246 64.5814 160.697 64.5814C144.082 64.5814 131.912 75.8029 131.912 91.253C131.912 106.702 144.082 117.924 160.697 117.924C161.246 117.924 161.789 117.911 162.327 117.886C146.553 117.175 135.173 106.191 135.173 91.2518Z" fill="#D0D9CA"/>
<path d="M294.015 114.507V67.997C294.015 66.7537 295.022 65.7461 296.266 65.7461H293.005C291.762 65.7461 290.754 66.7537 290.754 67.997V114.507C290.754 115.75 291.762 116.757 293.005 116.757H296.266C295.022 116.757 294.015 115.75 294.015 114.507Z" fill="#D0D9CA"/>
<path d="M314.752 98.3368C313.808 97.2085 312.254 97.3542 311.396 98.2537C311.426 98.2856 311.463 98.3027 311.492 98.3368L326.225 115.95C326.653 116.461 327.285 116.756 327.951 116.756H331.212C330.546 116.756 329.913 116.461 329.486 115.95L314.752 98.3368Z" fill="#D0D9CA"/>
<path d="M268.511 113.075V69.4281C268.511 67.3947 270.159 65.7461 272.193 65.7461H268.932C266.899 65.7461 265.25 67.3947 265.25 69.4281V113.075C265.25 115.109 266.899 116.757 268.932 116.757H272.193C270.159 116.757 268.511 115.109 268.511 113.075Z" fill="#D0D9CA"/>
<path d="M244.535 114.992L244.44 99.9039C244.429 98.1038 242.055 97.4606 241.136 99.0078L241.023 99.198C241.115 99.4086 241.178 99.6386 241.181 99.9027L241.275 114.991C241.281 115.968 242.074 116.757 243.051 116.757H246.312C245.334 116.758 244.54 115.969 244.535 114.992Z" fill="#D0D9CA"/>
<path d="M199.001 114.98V67.5222C199.001 66.5408 199.797 65.7461 200.777 65.7461H197.516C196.535 65.7461 195.74 66.5419 195.74 67.5222V114.98C195.74 115.962 196.536 116.757 197.516 116.757H200.777C199.796 116.757 199.001 115.962 199.001 114.98Z" fill="#D0D9CA"/>
<path d="M225.222 111.327L217.953 99.6087C217.152 98.3187 215.356 98.6159 214.826 99.8262L221.961 111.327C222.286 111.849 222.856 112.167 223.471 112.167H226.732C226.117 112.167 225.547 111.849 225.222 111.327Z" fill="#D0D9CA"/>
<path d="M121.454 179.554C121.454 181.774 119.517 183.189 114.306 183.513C115.081 183.557 115.851 183.586 116.609 183.586C123.716 183.586 126.261 182.1 126.261 179.554C126.261 170.221 85.2112 177.752 85.2112 150.067C85.2112 136.786 95.9409 125.871 117.295 125.083C116.525 125.058 115.753 125.033 114.984 125.033C91.9662 125.033 80.4043 136.277 80.4043 150.067C80.4032 177.752 121.454 170.221 121.454 179.554Z" fill="#E2A232"/>
<path d="M130.874 147.542C132.308 148.127 133.848 147.991 135.123 147.328C129.696 145.184 124.513 144.124 119.578 144.124C118.701 144.124 117.899 144.156 117.16 144.214C121.545 144.509 126.114 145.602 130.874 147.542Z" fill="#E2A232"/>
<path d="M88.5436 197.362C85.983 196.244 84.8377 193.244 85.9671 190.688L89.9418 181.692C90.4188 180.612 91.2386 179.799 92.2086 179.283C92.0686 179.222 91.9217 179.168 91.7828 179.106C89.2404 177.968 86.2608 179.145 85.136 181.692L81.1613 190.688C80.0319 193.244 81.1772 196.244 83.7378 197.362C91.1896 200.615 101.425 202.678 111.59 202.678C112.39 202.678 113.173 202.661 113.946 202.634C104.604 202.334 95.3954 200.353 88.5436 197.362Z" fill="#E2A232"/>
<path d="M81.1614 190.688L85.1361 181.692C86.2621 179.145 89.2417 177.967 91.7829 179.105C98.0107 181.894 105.279 183.586 111.802 183.586C118.909 183.586 121.455 182.1 121.455 179.554C121.455 170.22 80.4043 177.752 80.4043 150.067C80.4043 136.277 91.9662 125.033 114.984 125.033C123.127 125.033 131.482 126.448 138.489 129.334C141.047 130.387 142.215 133.364 141.155 135.918L137.462 144.811C136.396 147.381 133.451 148.594 130.875 147.543C125.244 145.247 119.876 144.125 114.772 144.125C107.454 144.125 105.12 146.246 105.12 148.792C105.12 157.702 146.171 150.276 146.171 177.644C146.171 191.221 134.609 202.677 111.59 202.677C101.425 202.677 91.1897 200.614 83.7379 197.361C81.1774 196.245 80.032 193.244 81.1614 190.688Z" fill="#F4D133"/>
<path d="M148.035 163.855C148.035 141.368 165.75 125.033 189.935 125.033C214.12 125.033 231.834 141.368 231.834 163.855C231.834 186.342 214.12 202.678 189.935 202.678C165.75 202.678 148.035 186.342 148.035 163.855ZM206.589 163.855C206.589 152.293 199.164 145.292 189.935 145.292C180.706 145.292 173.281 152.293 173.281 163.855C173.281 175.418 180.706 182.419 189.935 182.419C199.164 182.419 206.589 175.418 206.589 163.855Z" fill="#F4D133"/>
<path d="M235.994 163.855C235.994 141.368 253.709 125.033 277.895 125.033C302.08 125.033 319.794 141.368 319.794 163.855C319.794 186.342 302.08 202.678 277.895 202.678C253.709 202.678 235.994 186.342 235.994 163.855ZM294.548 163.855C294.548 152.293 287.123 145.292 277.895 145.292C268.666 145.292 261.24 152.293 261.24 163.855C261.24 175.418 268.666 182.419 277.895 182.419C287.123 182.419 294.548 175.418 294.548 163.855Z" fill="#F4D133"/>
<path d="M397.525 130.289V197.423C397.525 199.388 395.932 200.982 393.966 200.982H378.611C377.556 200.982 376.557 200.515 375.882 199.707L355.02 174.768C352.886 172.218 348.732 173.726 348.732 177.051V197.423C348.732 199.388 347.139 200.982 345.173 200.982H327.893C325.928 200.982 324.334 199.389 324.334 197.423V130.289C324.334 128.323 325.927 126.729 327.893 126.729H343.25C344.304 126.729 345.304 127.196 345.98 128.005L366.84 152.943C368.974 155.494 373.129 153.985 373.129 150.661V130.289C373.129 128.323 374.721 126.729 376.688 126.729H393.967C395.931 126.729 397.525 128.323 397.525 130.289Z" fill="#F4D133"/>
<path d="M192.338 182.235C193.125 182.344 193.923 182.419 194.741 182.419C203.97 182.419 211.396 175.418 211.396 163.855C211.396 152.293 203.97 145.292 194.741 145.292C193.923 145.292 193.125 145.366 192.338 145.475C200.416 146.59 206.589 153.319 206.589 163.855C206.589 174.392 200.416 181.121 192.338 182.235Z" fill="#E2A232"/>
<path d="M152.842 163.855C152.842 142.119 169.393 126.135 192.338 125.09C191.545 125.053 190.744 125.032 189.935 125.032C165.75 125.032 148.035 141.366 148.035 163.854C148.035 186.341 165.75 202.677 189.935 202.677C190.743 202.677 191.543 202.655 192.338 202.62C169.393 201.576 152.842 185.591 152.842 163.855Z" fill="#E2A232"/>
<path d="M240.801 163.855C240.801 142.119 257.351 126.135 280.298 125.09C279.505 125.053 278.704 125.032 277.895 125.032C253.709 125.032 235.994 141.366 235.994 163.854C235.994 186.341 253.709 202.677 277.895 202.677C278.704 202.677 279.504 202.655 280.298 202.62C257.351 201.576 240.801 185.591 240.801 163.855Z" fill="#E2A232"/>
<path d="M280.297 182.235C281.084 182.344 281.882 182.419 282.7 182.419C291.928 182.419 299.354 175.418 299.354 163.855C299.354 152.293 291.928 145.292 282.7 145.292C281.882 145.292 281.084 145.366 280.297 145.475C288.375 146.59 294.547 153.319 294.547 163.855C294.548 174.392 288.375 181.121 280.297 182.235Z" fill="#E2A232"/>
<path d="M377.935 150.661V130.289C377.935 128.323 379.527 126.729 381.494 126.729H376.687C374.722 126.729 373.128 128.322 373.128 130.289V150.661C373.128 151.764 372.665 152.66 371.977 153.281C374.181 155.334 377.935 153.822 377.935 150.661Z" fill="#E2A232"/>
<path d="M359.827 174.768C358.401 173.063 356.077 173.178 354.689 174.43C354.803 174.536 354.916 174.643 355.02 174.768L375.881 199.706C376.557 200.515 377.557 200.982 378.61 200.982H383.417C382.363 200.982 381.363 200.515 380.688 199.706L359.827 174.768Z" fill="#E2A232"/>
<path d="M329.141 197.423V130.289C329.141 128.323 330.734 126.729 332.7 126.729H327.893C325.928 126.729 324.334 128.322 324.334 130.289V197.423C324.334 199.388 325.927 200.982 327.893 200.982H332.7C330.734 200.982 329.141 199.388 329.141 197.423Z" fill="#E2A232"/>
<path d="M111.844 34.7083C111.422 33.202 110.66 31.895 109.558 30.786C108.958 30.3226 108.359 29.8593 107.759 29.3959C106.372 28.5921 104.877 28.1867 103.272 28.1822C102.048 28.1366 100.906 28.3917 99.8471 28.9484C98.745 29.3071 97.7909 29.9196 96.986 30.786C96.1195 31.591 95.507 32.5451 95.1484 33.6472C94.5916 34.706 94.3366 35.848 94.3821 37.0719C94.488 37.8598 94.5939 38.6477 94.6998 39.4355C95.1222 40.9418 95.8839 42.2489 96.986 43.3578C97.586 43.8212 98.1849 44.2846 98.7849 44.748C100.172 45.5518 101.667 45.956 103.272 45.9617C104.496 46.0084 105.638 45.7522 106.697 45.1966C107.799 44.8379 108.753 44.2254 109.558 43.359C110.424 42.554 111.038 41.5999 111.395 40.4978C111.952 39.439 112.207 38.297 112.16 37.0731C112.056 36.2829 111.95 35.4951 111.844 34.7083Z" fill="#F4D133"/>
<path d="M109.361 43.0012C108.302 43.5579 107.16 43.813 105.936 43.7663C104.332 43.7617 102.836 43.3564 101.449 42.5526C100.849 42.0892 100.25 41.6258 99.6502 41.1624C98.5481 40.0535 97.7864 38.7453 97.364 37.2402C97.2581 36.4523 97.1522 35.6644 97.0463 34.8765C96.9996 33.6526 97.2558 32.5107 97.8126 31.4518C98.0721 30.6526 98.4695 29.9353 98.9966 29.292C98.2475 29.654 97.5757 30.1493 96.986 30.7846C96.1195 31.5896 95.507 32.5437 95.1484 33.6458C94.5916 34.7046 94.3366 35.8466 94.3821 37.0705C94.488 37.8584 94.5939 38.6463 94.6998 39.4341C95.1222 40.9404 95.8839 42.2475 96.986 43.3564C97.586 43.8198 98.1849 44.2832 98.7849 44.7466C100.172 45.5504 101.667 45.9546 103.272 45.9603C104.496 46.007 105.638 45.7508 106.697 45.1952C107.799 44.8365 108.753 44.224 109.558 43.3576C109.797 43.1356 110.011 42.8999 110.211 42.6562C109.938 42.7883 109.656 42.9044 109.361 43.0012Z" fill="#E2A232"/>
<path d="M164.932 34.7083C164.509 33.202 163.748 31.895 162.646 30.786C162.046 30.3226 161.447 29.8593 160.847 29.3959C159.46 28.5921 157.965 28.1867 156.36 28.1822C155.136 28.1366 153.994 28.3917 152.935 28.9484C151.833 29.3071 150.879 29.9196 150.074 30.786C149.207 31.591 148.595 32.5451 148.236 33.6472C147.68 34.706 147.424 35.848 147.47 37.0719C147.576 37.8598 147.682 38.6477 147.788 39.4355C148.21 40.9418 148.972 42.2489 150.074 43.3578C150.674 43.8212 151.273 44.2846 151.873 44.748C153.26 45.5518 154.754 45.956 156.36 45.9617C157.584 46.0084 158.726 45.7522 159.785 45.1966C160.887 44.8379 161.841 44.2254 162.646 43.359C163.512 42.554 164.125 41.5999 164.483 40.4978C165.04 39.439 165.295 38.297 165.25 37.0731C165.144 36.2829 165.038 35.4951 164.932 34.7083Z" fill="white"/>
<path d="M162.449 43.0012C161.39 43.5579 160.248 43.813 159.024 43.7663C157.42 43.7617 155.924 43.3564 154.537 42.5526C153.937 42.0892 153.338 41.6258 152.738 41.1624C151.636 40.0535 150.874 38.7453 150.452 37.2402C150.346 36.4523 150.24 35.6644 150.134 34.8765C150.089 33.6526 150.344 32.5107 150.9 31.4518C151.16 30.6526 151.557 29.9353 152.085 29.292C151.335 29.654 150.664 30.1493 150.074 30.7846C149.207 31.5896 148.595 32.5437 148.236 33.6458C147.68 34.7046 147.424 35.8466 147.47 37.0705C147.576 37.8584 147.682 38.6463 147.788 39.4341C148.21 40.9404 148.972 42.2475 150.074 43.3564C150.674 43.8198 151.273 44.2832 151.873 44.7466C153.26 45.5504 154.754 45.9546 156.36 45.9603C157.584 46.007 158.726 45.7508 159.785 45.1952C160.887 44.8365 161.841 44.224 162.646 43.3576C162.885 43.1356 163.099 42.8999 163.299 42.6562C163.025 42.7883 162.742 42.9044 162.449 43.0012Z" fill="#D0D9CA"/>
<path d="M218.02 34.7083C217.597 33.202 216.836 31.895 215.734 30.786C215.134 30.3226 214.534 29.8593 213.935 29.3959C212.548 28.5921 211.053 28.1867 209.448 28.1822C208.224 28.1366 207.082 28.3917 206.023 28.9484C204.921 29.3071 203.967 29.9196 203.162 30.786C202.295 31.591 201.683 32.5451 201.324 33.6472C200.767 34.706 200.512 35.848 200.558 37.0719C200.664 37.8598 200.77 38.6477 200.876 39.4355C201.298 40.9418 202.06 42.2489 203.162 43.3578C203.762 43.8212 204.361 44.2846 204.961 44.748C206.347 45.5518 207.842 45.956 209.448 45.9617C210.672 46.0084 211.814 45.7522 212.872 45.1966C213.975 44.8379 214.929 44.2254 215.734 43.359C216.6 42.554 217.213 41.5999 217.571 40.4978C218.128 39.439 218.383 38.297 218.337 37.0731C218.232 36.2829 218.126 35.4951 218.02 34.7083Z" fill="#F4D133"/>
<path d="M215.537 43.0012C214.478 43.5579 213.336 43.813 212.112 43.7663C210.508 43.7617 209.012 43.3564 207.625 42.5526C207.025 42.0892 206.426 41.6258 205.826 41.1624C204.724 40.0535 203.962 38.7453 203.54 37.2402C203.434 36.4523 203.328 35.6644 203.222 34.8765C203.176 33.6526 203.432 32.5107 203.987 31.4518C204.247 30.6526 204.644 29.9353 205.172 29.292C204.422 29.654 203.751 30.1493 203.161 30.7846C202.294 31.5896 201.682 32.5437 201.323 33.6458C200.767 34.7046 200.511 35.8466 200.558 37.0705C200.664 37.8584 200.77 38.6463 200.876 39.4341C201.298 40.9404 202.06 42.2475 203.162 43.3564C203.762 43.8198 204.361 44.2832 204.961 44.7466C206.348 45.5504 207.843 45.9546 209.448 45.9603C210.672 46.007 211.814 45.7508 212.873 45.1952C213.975 44.8365 214.929 44.224 215.734 43.3576C215.973 43.1356 216.187 42.8999 216.387 42.6562C216.114 42.7883 215.832 42.9044 215.537 43.0012Z" fill="#E2A232"/>
<path d="M271.11 34.7083C270.687 33.202 269.926 31.895 268.823 30.786C268.223 30.3226 267.625 29.8593 267.024 29.3959C265.638 28.5921 264.143 28.1867 262.538 28.1822C261.314 28.1366 260.172 28.3917 259.113 28.9484C258.011 29.3071 257.057 29.9196 256.252 30.786C255.385 31.591 254.772 32.5451 254.414 33.6472C253.857 34.706 253.602 35.848 253.648 37.0719C253.754 37.8598 253.86 38.6477 253.965 39.4355C254.388 40.9418 255.149 42.2489 256.252 43.3578C256.852 43.8212 257.45 44.2846 258.051 44.748C259.437 45.5518 260.932 45.956 262.538 45.9617C263.761 46.0084 264.903 45.7522 265.962 45.1966C267.064 44.8379 268.018 44.2254 268.823 43.359C269.69 42.554 270.302 41.5999 270.661 40.4978C271.218 39.439 271.473 38.297 271.426 37.0731C271.321 36.2829 271.215 35.4951 271.11 34.7083Z" fill="white"/>
<path d="M268.626 43.0012C267.566 43.5579 266.425 43.813 265.201 43.7663C263.597 43.7617 262.101 43.3564 260.714 42.5526C260.114 42.0892 259.515 41.6258 258.915 41.1624C257.813 40.0535 257.051 38.7453 256.629 37.2402C256.523 36.4523 256.417 35.6644 256.311 34.8765C256.264 33.6526 256.521 32.5107 257.076 31.4518C257.336 30.6526 257.734 29.9353 258.26 29.292C257.511 29.654 256.839 30.1493 256.25 30.7846C255.383 31.5896 254.771 32.5437 254.412 33.6458C253.855 34.7046 253.6 35.8466 253.646 37.0705C253.752 37.8584 253.858 38.6463 253.963 39.4341C254.386 40.9404 255.148 42.2475 256.25 43.3564C256.85 43.8198 257.449 44.2832 258.049 44.7466C259.435 45.5504 260.93 45.9546 262.536 45.9603C263.76 46.007 264.901 45.7508 265.96 45.1952C267.062 44.8365 268.017 44.224 268.821 43.3576C269.061 43.1356 269.275 42.8999 269.475 42.6562C269.203 42.7883 268.921 42.9044 268.626 43.0012Z" fill="#D0D9CA"/>
<path d="M324.197 34.7083C323.775 33.202 323.013 31.895 321.911 30.786C321.311 30.3226 320.712 29.8593 320.112 29.3959C318.726 28.5921 317.231 28.1867 315.625 28.1822C314.401 28.1366 313.26 28.3917 312.201 28.9484C311.099 29.3071 310.144 29.9196 309.34 30.786C308.473 31.591 307.861 32.5451 307.502 33.6472C306.945 34.706 306.69 35.848 306.736 37.0719C306.842 37.8598 306.947 38.6477 307.053 39.4355C307.476 40.9418 308.237 42.2489 309.34 43.3578C309.94 43.8212 310.538 44.2846 311.138 44.748C312.525 45.5518 314.02 45.956 315.625 45.9617C316.849 46.0084 317.991 45.7522 319.05 45.1966C320.152 44.8379 321.106 44.2254 321.911 43.359C322.778 42.554 323.39 41.5999 323.749 40.4978C324.306 39.439 324.561 38.297 324.515 37.0731C324.409 36.2829 324.303 35.4951 324.197 34.7083Z" fill="#F4D133"/>
<path d="M321.713 43.0012C320.655 43.5579 319.513 43.813 318.289 43.7663C316.685 43.7617 315.188 43.3564 313.802 42.5526C313.202 42.0892 312.603 41.6258 312.003 41.1624C310.901 40.0535 310.139 38.7453 309.717 37.2402C309.611 36.4523 309.505 35.6644 309.399 34.8765C309.353 33.6526 309.609 32.5107 310.164 31.4518C310.424 30.6526 310.822 29.9353 311.348 29.292C310.599 29.654 309.927 30.1493 309.338 30.7846C308.471 31.5896 307.859 32.5437 307.5 33.6458C306.943 34.7046 306.688 35.8466 306.734 37.0705C306.84 37.8584 306.945 38.6463 307.051 39.4341C307.474 40.9404 308.235 42.2475 309.338 43.3564C309.938 43.8198 310.536 44.2832 311.136 44.7466C312.523 45.5504 314.018 45.9546 315.623 45.9603C316.847 46.007 317.989 45.7508 319.048 45.1952C320.15 44.8365 321.104 44.224 321.909 43.3576C322.148 43.1356 322.362 42.8999 322.563 42.6562C322.291 42.7883 322.008 42.9044 321.713 43.0012Z" fill="#E2A232"/>
<path d="M377.286 34.7083C376.864 33.202 376.102 31.895 375 30.786C374.4 30.3226 373.8 29.8593 373.201 29.3959C371.815 28.5921 370.32 28.1867 368.714 28.1822C367.49 28.1366 366.348 28.3917 365.29 28.9484C364.188 29.3071 363.233 29.9196 362.428 30.786C361.562 31.591 360.949 32.5451 360.591 33.6472C360.034 34.706 359.779 35.848 359.826 37.0719C359.932 37.8598 360.037 38.6477 360.143 39.4355C360.566 40.9418 361.327 42.2489 362.43 43.3578C363.03 43.8212 363.63 44.2846 364.228 44.748C365.615 45.5518 367.11 45.956 368.715 45.9617C369.939 46.0084 371.081 45.7522 372.14 45.1966C373.242 44.8379 374.196 44.2254 375.001 43.359C375.868 42.554 376.48 41.5999 376.839 40.4978C377.396 39.439 377.651 38.297 377.604 37.0731C377.497 36.2829 377.391 35.4951 377.286 34.7083Z" fill="white"/>
<path d="M374.803 43.0012C373.743 43.5579 372.602 43.813 371.379 43.7663C369.774 43.7617 368.278 43.3564 366.892 42.5526C366.292 42.0892 365.693 41.6258 365.093 41.1624C363.991 40.0535 363.229 38.7453 362.806 37.2402C362.701 36.4523 362.595 35.6644 362.489 34.8765C362.443 33.6526 362.698 32.5107 363.255 31.4518C363.515 30.6526 363.912 29.9353 364.439 29.292C363.69 29.654 363.018 30.1493 362.428 30.7846C361.562 31.5896 360.949 32.5437 360.591 33.6458C360.034 34.7046 359.779 35.8466 359.826 37.0705C359.932 37.8584 360.037 38.6463 360.143 39.4341C360.566 40.9404 361.327 42.2475 362.43 43.3564C363.03 43.8198 363.63 44.2832 364.228 44.7466C365.615 45.5504 367.11 45.9546 368.715 45.9603C369.939 46.007 371.081 45.7508 372.14 45.1952C373.242 44.8365 374.196 44.224 375.001 43.3576C375.24 43.1356 375.455 42.8999 375.655 42.6562C375.379 42.7883 375.097 42.9044 374.803 43.0012Z" fill="#D0D9CA"/>
<path d="M106.752 222.719C106.312 221.151 105.519 219.791 104.372 218.635C103.748 218.152 103.123 217.671 102.499 217.188C101.056 216.351 99.4993 215.93 97.8291 215.924C96.555 215.876 95.3664 216.142 94.2631 216.721C93.1155 217.095 92.1227 217.732 91.2847 218.635C90.3818 219.473 89.7443 220.466 89.3708 221.614C88.7913 222.717 88.526 223.905 88.5738 225.18C88.6843 225.999 88.7947 226.819 88.904 227.64C89.3435 229.208 90.137 230.569 91.2836 231.724C91.9075 232.207 92.5325 232.688 93.1565 233.171C94.6001 234.008 96.1565 234.429 97.8268 234.435C99.1008 234.483 100.289 234.217 101.393 233.638C102.54 233.264 103.533 232.627 104.371 231.724C105.274 230.886 105.912 229.893 106.285 228.745C106.865 227.642 107.13 226.455 107.082 225.18C106.973 224.36 106.862 223.539 106.752 222.719Z" fill="white"/>
<path d="M104.168 231.352C103.065 231.932 101.877 232.197 100.602 232.149C98.932 232.144 97.3745 231.724 95.9319 230.886C95.308 230.403 94.683 229.921 94.059 229.438C92.9125 228.284 92.1189 226.922 91.6795 225.354C91.569 224.535 91.4597 223.715 91.3493 222.894C91.3015 221.62 91.5667 220.431 92.1463 219.328C92.4172 218.497 92.8305 217.749 93.3793 217.08C92.5994 217.456 91.9003 217.972 91.2867 218.634C90.3838 219.472 89.7462 220.464 89.3728 221.612C88.7932 222.715 88.528 223.904 88.5758 225.178C88.6862 225.998 88.7967 226.818 88.906 227.638C89.3455 229.206 90.139 230.568 91.2855 231.722C91.9095 232.204 92.5345 232.687 93.1584 233.169C94.6021 234.006 96.1585 234.428 97.8287 234.433C99.1028 234.481 100.291 234.216 101.395 233.636C102.542 233.263 103.535 232.625 104.373 231.722C104.621 231.491 104.846 231.246 105.054 230.993C104.768 231.13 104.474 231.252 104.168 231.352Z" fill="#D0D9CA"/>
<path d="M162.017 222.719C161.578 221.151 160.784 219.791 159.638 218.635C159.014 218.152 158.389 217.671 157.765 217.188C156.321 216.351 154.765 215.93 153.095 215.924C151.821 215.876 150.632 216.142 149.529 216.721C148.381 217.095 147.388 217.732 146.55 218.635C145.647 219.473 145.01 220.466 144.636 221.614C144.057 222.717 143.792 223.905 143.839 225.18C143.95 225.999 144.059 226.819 144.17 227.64C144.609 229.208 145.403 230.569 146.549 231.724C147.173 232.207 147.798 232.688 148.422 233.171C149.866 234.008 151.422 234.429 153.092 234.435C154.366 234.483 155.555 234.217 156.658 233.638C157.806 233.264 158.799 232.627 159.637 231.724C160.54 230.886 161.177 229.893 161.551 228.745C162.13 227.642 162.395 226.455 162.348 225.18C162.237 224.36 162.128 223.539 162.017 222.719Z" fill="#F4D133"/>
<path d="M159.432 231.352C158.329 231.932 157.141 232.197 155.866 232.149C154.196 232.144 152.638 231.724 151.196 230.886C150.572 230.403 149.947 229.921 149.323 229.438C148.176 228.284 147.383 226.922 146.943 225.354C146.833 224.535 146.722 223.715 146.613 222.894C146.565 221.62 146.83 220.431 147.41 219.328C147.681 218.497 148.094 217.749 148.643 217.08C147.863 217.456 147.164 217.972 146.55 218.634C145.647 219.472 145.01 220.464 144.636 221.612C144.057 222.715 143.792 223.904 143.839 225.178C143.95 225.998 144.059 226.818 144.17 227.638C144.609 229.206 145.403 230.568 146.549 231.722C147.173 232.204 147.798 232.687 148.422 233.169C149.866 234.006 151.422 234.428 153.092 234.433C154.366 234.481 155.555 234.216 156.658 233.636C157.806 233.263 158.799 232.625 159.637 231.722C159.885 231.491 160.109 231.246 160.318 230.993C160.033 231.13 159.739 231.252 159.432 231.352Z" fill="#E2A232"/>
<path d="M217.283 222.719C216.844 221.151 216.05 219.791 214.904 218.635C214.28 218.152 213.655 217.671 213.031 217.188C211.587 216.351 210.031 215.93 208.36 215.924C207.086 215.876 205.898 216.142 204.794 216.721C203.647 217.095 202.654 217.732 201.816 218.635C200.913 219.473 200.276 220.466 199.902 221.614C199.323 222.717 199.057 223.905 199.105 225.18C199.216 225.999 199.326 226.819 199.435 227.64C199.875 229.208 200.668 230.569 201.815 231.724C202.439 232.207 203.064 232.688 203.688 233.171C205.131 234.008 206.688 234.429 208.359 234.435C209.633 234.483 210.822 234.217 211.925 233.638C213.073 233.264 214.066 232.627 214.904 231.724C215.806 230.886 216.444 229.893 216.817 228.745C217.397 227.642 217.662 226.455 217.614 225.18C217.504 224.36 217.394 223.539 217.283 222.719Z" fill="white"/>
<path d="M214.699 231.352C213.596 231.932 212.407 232.197 211.133 232.149C209.463 232.144 207.906 231.724 206.463 230.886C205.839 230.403 205.214 229.921 204.59 229.438C203.444 228.284 202.65 226.922 202.211 225.354C202.1 224.535 201.991 223.715 201.881 222.894C201.833 221.62 202.098 220.431 202.677 219.328C202.948 218.497 203.362 217.749 203.911 217.08C203.131 217.456 202.432 217.972 201.818 218.634C200.915 219.472 200.277 220.464 199.904 221.612C199.324 222.715 199.059 223.904 199.107 225.178C199.217 225.998 199.328 226.818 199.437 227.638C199.877 229.206 200.67 230.568 201.817 231.722C202.441 232.204 203.066 232.687 203.69 233.169C205.133 234.006 206.69 234.428 208.361 234.433C209.635 234.481 210.824 234.216 211.927 233.636C213.075 233.263 214.067 232.625 214.905 231.722C215.154 231.491 215.378 231.246 215.586 230.993C215.301 231.13 215.006 231.252 214.699 231.352Z" fill="#D0D9CA"/>
<path d="M272.549 222.719C272.109 221.151 271.316 219.791 270.169 218.635C269.545 218.152 268.92 217.671 268.296 217.188C266.853 216.351 265.296 215.93 263.626 215.924C262.352 215.876 261.163 216.142 260.06 216.721C258.912 217.095 257.92 217.732 257.082 218.635C256.179 219.473 255.541 220.466 255.168 221.614C254.588 222.717 254.323 223.905 254.371 225.18C254.481 225.999 254.59 226.819 254.701 227.64C255.14 229.208 255.934 230.569 257.08 231.724C257.704 232.207 258.329 232.688 258.953 233.171C260.397 234.008 261.953 234.429 263.624 234.435C264.898 234.483 266.086 234.217 267.19 233.638C268.337 233.264 269.33 232.627 270.168 231.724C271.071 230.886 271.708 229.893 272.082 228.745C272.661 227.642 272.927 226.455 272.879 225.18C272.77 224.36 272.659 223.539 272.549 222.719Z" fill="#F4D133"/>
<path d="M269.964 231.352C268.861 231.932 267.672 232.197 266.398 232.149C264.728 232.144 263.171 231.724 261.727 230.886C261.103 230.403 260.478 229.921 259.854 229.438C258.707 228.284 257.914 226.922 257.474 225.354C257.364 224.535 257.253 223.715 257.144 222.894C257.096 221.62 257.362 220.431 257.941 219.328C258.212 218.497 258.625 217.749 259.174 217.08C258.394 217.456 257.695 217.972 257.082 218.634C256.179 219.472 255.541 220.464 255.168 221.612C254.588 222.715 254.323 223.904 254.371 225.178C254.481 225.998 254.59 226.818 254.701 227.638C255.14 229.206 255.934 230.568 257.08 231.722C257.704 232.204 258.329 232.687 258.953 233.169C260.397 234.006 261.953 234.428 263.624 234.433C264.898 234.481 266.086 234.216 267.19 233.636C268.337 233.263 269.33 232.625 270.168 231.722C270.416 231.491 270.64 231.246 270.849 230.993C270.564 231.13 270.27 231.252 269.964 231.352Z" fill="#E2A232"/>
<path d="M327.814 222.719C327.375 221.151 326.581 219.791 325.435 218.635C324.811 218.152 324.186 217.671 323.562 217.188C322.118 216.351 320.562 215.93 318.892 215.924C317.618 215.876 316.429 216.142 315.326 216.721C314.178 217.095 313.185 217.732 312.347 218.635C311.444 219.473 310.807 220.466 310.433 221.614C309.854 222.717 309.589 223.905 309.636 225.18C309.747 225.999 309.857 226.819 309.967 227.64C310.406 229.208 311.2 230.569 312.346 231.724C312.97 232.207 313.595 232.688 314.219 233.171C315.663 234.008 317.219 234.429 318.89 234.435C320.164 234.483 321.353 234.217 322.456 233.638C323.604 233.264 324.597 232.627 325.435 231.724C326.338 230.886 326.975 229.893 327.349 228.745C327.928 227.642 328.193 226.455 328.146 225.18C328.034 224.36 327.925 223.539 327.814 222.719Z" fill="white"/>
<path d="M325.229 231.352C324.125 231.932 322.938 232.197 321.663 232.149C319.993 232.144 318.435 231.724 316.992 230.886C316.369 230.403 315.743 229.921 315.12 229.438C313.973 228.284 313.18 226.922 312.74 225.354C312.63 224.535 312.519 223.715 312.41 222.894C312.362 221.62 312.627 220.431 313.207 219.328C313.478 218.497 313.891 217.749 314.44 217.08C313.66 217.456 312.961 217.972 312.347 218.634C311.444 219.472 310.807 220.464 310.433 221.612C309.854 222.715 309.589 223.904 309.636 225.178C309.747 225.998 309.857 226.818 309.967 227.638C310.406 229.206 311.2 230.568 312.346 231.722C312.97 232.204 313.595 232.687 314.219 233.169C315.663 234.006 317.219 234.428 318.89 234.433C320.164 234.481 321.353 234.216 322.456 233.636C323.604 233.263 324.597 232.625 325.435 231.722C325.683 231.491 325.907 231.246 326.116 230.993C325.83 231.13 325.536 231.252 325.229 231.352Z" fill="#D0D9CA"/>
<path d="M383.08 222.719C382.64 221.151 381.847 219.791 380.7 218.635C380.076 218.152 379.451 217.671 378.827 217.188C377.384 216.351 375.827 215.93 374.157 215.924C372.883 215.876 371.694 216.142 370.591 216.721C369.444 217.095 368.451 217.732 367.613 218.635C366.71 219.473 366.072 220.466 365.699 221.614C365.119 222.717 364.854 223.905 364.902 225.18C365.012 225.999 365.123 226.819 365.232 227.64C365.672 229.208 366.465 230.569 367.612 231.724C368.236 232.207 368.861 232.688 369.485 233.171C370.928 234.008 372.485 234.429 374.155 234.435C375.429 234.483 376.618 234.217 377.721 233.638C378.868 233.264 379.861 232.627 380.699 231.724C381.602 230.886 382.24 229.893 382.613 228.745C383.193 227.642 383.458 226.455 383.41 225.18C383.301 224.36 383.19 223.539 383.08 222.719Z" fill="#F4D133"/>
<path d="M380.495 231.352C379.392 231.932 378.205 232.197 376.93 232.149C375.259 232.144 373.702 231.724 372.258 230.886C371.634 230.403 371.009 229.921 370.385 229.438C369.239 228.284 368.445 226.922 368.006 225.354C367.895 224.535 367.786 223.715 367.675 222.894C367.628 221.62 367.893 220.431 368.472 219.328C368.743 218.497 369.157 217.749 369.705 217.08C368.926 217.456 368.226 217.972 367.613 218.634C366.71 219.472 366.072 220.464 365.699 221.612C365.119 222.715 364.854 223.904 364.902 225.178C365.012 225.998 365.123 226.818 365.232 227.638C365.672 229.206 366.465 230.568 367.612 231.722C368.236 232.204 368.861 232.687 369.485 233.169C370.928 234.006 372.485 234.428 374.155 234.433C375.429 234.481 376.618 234.216 377.721 233.636C378.868 233.263 379.861 232.625 380.699 231.722C380.947 231.491 381.172 231.246 381.38 230.993C381.097 231.13 380.802 231.252 380.495 231.352Z" fill="#E2A232"/>
</svg>
