<svg width="24" height="24" viewBox="0 0 24 24" fill="none" xmlns="http://www.w3.org/2000/svg">
<path fill-rule="evenodd" clip-rule="evenodd" d="M7.78735 2.21422C7.14574 2.02173 6.5 2.50218 6.5 3.17204V22H10V18.5C10 17.9477 10.4477 17.5 11 17.5H13C13.5523 17.5 14 17.9477 14 18.5V22H17.5V5.87204C17.5 5.43043 17.2103 5.04111 16.7873 4.91422L7.78735 2.21422ZM10 8.00003C9.72386 8.00003 9.5 8.22389 9.5 8.50003V9.50003C9.5 9.77617 9.72386 10 10 10H11C11.2761 10 11.5 9.77617 11.5 9.50003V8.50003C11.5 8.22389 11.2761 8.00003 11 8.00003H10ZM9.5 11.5C9.5 11.2239 9.72386 11 10 11H11C11.2761 11 11.5 11.2239 11.5 11.5V12.5C11.5 12.7761 11.2761 13 11 13H10C9.72386 13 9.5 12.7761 9.5 12.5V11.5ZM10 14C9.72386 14 9.5 14.2239 9.5 14.5V15.5C9.5 15.7761 9.72386 16 10 16H11C11.2761 16 11.5 15.7761 11.5 15.5V14.5C11.5 14.2239 11.2761 14 11 14H10ZM12.5 8.50003C12.5 8.22389 12.7239 8.00003 13 8.00003H14C14.2761 8.00003 14.5 8.22389 14.5 8.50003V9.50003C14.5 9.77617 14.2761 10 14 10H13C12.7239 10 12.5 9.77617 12.5 9.50003V8.50003ZM13 11C12.7239 11 12.5 11.2239 12.5 11.5V12.5C12.5 12.7761 12.7239 13 13 13H14C14.2761 13 14.5 12.7761 14.5 12.5V11.5C14.5 11.2239 14.2761 11 14 11H13ZM12.5 14.5C12.5 14.2239 12.7239 14 13 14H14C14.2761 14 14.5 14.2239 14.5 14.5V15.5C14.5 15.7761 14.2761 16 14 16H13C12.7239 16 12.5 15.7761 12.5 15.5V14.5Z" fill="#316FF6"/>
<path d="M5.5 22V5H4C3.44772 5 3 5.44772 3 6V21H2.5C2.22386 21 2 21.2239 2 21.5C2 21.7761 2.22386 22 2.5 22H5.5Z" fill="#316FF6"/>
<path d="M21.5 22H18.5V8.78125L20.4961 9.9219C20.8077 10.1 21 10.4313 21 10.7902V21H21.5C21.7761 21 22 21.2239 22 21.5C22 21.7761 21.7761 22 21.5 22Z" fill="#316FF6"/>
<path d="M13 22V18.5H11V22H13Z" fill="#316FF6"/>
</svg>
