<svg width="24" height="24" viewBox="0 0 24 24" fill="none" xmlns="http://www.w3.org/2000/svg">
<path d="M2.25 19.5C2.25 20.0967 2.48705 20.669 2.90901 21.091C3.33097 21.5129 3.90326 21.75 4.5 21.75H19.5C20.0967 21.75 20.669 21.5129 21.091 21.091C21.5129 20.669 21.75 20.0967 21.75 19.5V8.75H2.25V19.5ZM14.5 12C14.5013 11.8417 14.5527 11.6878 14.6468 11.5605C14.7409 11.4332 14.8729 11.3389 15.0239 11.2912C15.1748 11.2435 15.337 11.2447 15.4872 11.2948C15.6374 11.3449 15.7679 11.4412 15.86 11.57L17 13.19L18.14 11.57C18.2321 11.4412 18.3626 11.3449 18.5128 11.2948C18.663 11.2447 18.8252 11.2435 18.9761 11.2912C19.1271 11.3389 19.2591 11.4332 19.3532 11.5605C19.4473 11.6878 19.4987 11.8417 19.5 12V17C19.5 17.1989 19.421 17.3897 19.2803 17.5303C19.1397 17.671 18.9489 17.75 18.75 17.75C18.5511 17.75 18.3603 17.671 18.2197 17.5303C18.079 17.3897 18 17.1989 18 17V14.38L17.61 14.93C17.5381 15.0234 17.4457 15.099 17.3399 15.151C17.2342 15.203 17.1179 15.2301 17 15.2301C16.8821 15.2301 16.7658 15.203 16.6601 15.151C16.5543 15.099 16.4619 15.0234 16.39 14.93L16 14.38V17C16 17.1989 15.921 17.3897 15.7803 17.5303C15.6397 17.671 15.4489 17.75 15.25 17.75C15.0511 17.75 14.8603 17.671 14.7197 17.5303C14.579 17.3897 14.5 17.1989 14.5 17V12ZM9.25 14.51V12C9.25259 11.8019 9.33244 11.6126 9.47253 11.4725C9.61263 11.3324 9.80189 11.2526 10 11.25H11.51C11.7885 11.2338 12.0675 11.2727 12.3309 11.3645C12.5943 11.4563 12.8371 11.5992 13.0452 11.785C13.2533 11.9708 13.4226 12.1959 13.5436 12.4473C13.6645 12.6987 13.7347 12.9714 13.75 13.25C13.7418 13.7348 13.5627 14.2012 13.2445 14.5671C12.9262 14.9329 12.489 15.1747 12.01 15.25L13.48 16.47C13.5823 16.5718 13.653 16.7009 13.6838 16.8419C13.7145 16.983 13.7039 17.1298 13.6532 17.2649C13.6025 17.4001 13.5139 17.5177 13.3981 17.6037C13.2822 17.6898 13.144 17.7406 13 17.75C12.8255 17.7486 12.6565 17.6888 12.52 17.58L10.75 16.1V17C10.75 17.1989 10.671 17.3897 10.5303 17.5303C10.3897 17.671 10.1989 17.75 10 17.75C9.80109 17.75 9.61032 17.671 9.46967 17.5303C9.32902 17.3897 9.25 17.1989 9.25 17V14.51ZM4.5 12.83C4.5 12.411 4.66646 12.0091 4.96277 11.7128C5.25908 11.4165 5.66096 11.25 6.08 11.25H7.75C7.94891 11.25 8.13968 11.329 8.28033 11.4697C8.42098 11.6103 8.5 11.8011 8.5 12C8.5 12.1989 8.42098 12.3897 8.28033 12.5303C8.13968 12.671 7.94891 12.75 7.75 12.75H6.08C6.05953 12.7522 6.04042 12.7613 6.02586 12.7759C6.0113 12.7904 6.00217 12.8095 6 12.83V16.17C6.00217 16.1905 6.0113 16.2096 6.02586 16.2241C6.04042 16.2387 6.05953 16.2478 6.08 16.25H7.75C7.94891 16.25 8.13968 16.329 8.28033 16.4697C8.42098 16.6103 8.5 16.8011 8.5 17C8.5 17.1989 8.42098 17.3897 8.28033 17.5303C8.13968 17.671 7.94891 17.75 7.75 17.75H6.08C5.66096 17.75 5.25908 17.5835 4.96277 17.2872C4.66646 16.9909 4.5 16.589 4.5 16.17V12.83ZM11.5 13.75H10.74V12.75H11.5C11.94 12.75 12.24 13.01 12.24 13.26C12.24 13.51 12 13.75 11.51 13.75H11.5ZM19.5 2.25H4.5C3.90326 2.25 3.33097 2.48705 2.90901 2.90901C2.48705 3.33097 2.25 3.90326 2.25 4.5V7.25H21.75V4.5C21.75 3.90326 21.5129 3.33097 21.091 2.90901C20.669 2.48705 20.0967 2.25 19.5 2.25ZM6.5 5.75H5.5C5.30109 5.75 5.11032 5.67098 4.96967 5.53033C4.82902 5.38968 4.75 5.19891 4.75 5C4.75 4.80109 4.82902 4.61032 4.96967 4.46967C5.11032 4.32902 5.30109 4.25 5.5 4.25H6.5C6.69891 4.25 6.88968 4.32902 7.03033 4.46967C7.17098 4.61032 7.25 4.80109 7.25 5C7.25 5.19891 7.17098 5.38968 7.03033 5.53033C6.88968 5.67098 6.69891 5.75 6.5 5.75ZM9.5 5.75H8.5C8.30109 5.75 8.11032 5.67098 7.96967 5.53033C7.82902 5.38968 7.75 5.19891 7.75 5C7.75 4.80109 7.82902 4.61032 7.96967 4.46967C8.11032 4.32902 8.30109 4.25 8.5 4.25H9.5C9.69891 4.25 9.88968 4.32902 10.0303 4.46967C10.171 4.61032 10.25 4.80109 10.25 5C10.25 5.19891 10.171 5.38968 10.0303 5.53033C9.88968 5.67098 9.69891 5.75 9.5 5.75Z" fill="#316FF6"/>
</svg>
