<svg width="20" height="21" viewBox="0 0 20 21" fill="none" xmlns="http://www.w3.org/2000/svg">
<path d="M13.024 20.1613C14.2771 20.1613 15.3524 20.0955 16.2508 19.8958C17.1607 19.6936 17.9494 19.3411 18.5646 18.7259C19.1798 18.1107 19.5323 17.322 19.7345 16.4121C19.9342 15.5137 20 14.4384 20 13.1853V10.1613C20 9.05665 19.1046 8.16125 18 8.16125H10C8.8954 8.16125 8 9.05665 8 10.1613V18.1613C8 19.2659 8.8954 20.1613 10 20.1613H13.024Z" fill="#316FF6"/>
<path d="M0 13.1853C0 14.4384 0.0658401 15.5137 0.26552 16.4121C0.46772 17.322 0.82021 18.1107 1.43543 18.7259C2.05065 19.3411 2.83933 19.6936 3.74915 19.8958C3.83628 19.9151 3.92385 19.9333 4.01178 19.9503C5.09629 20.1598 6 19.2419 6 18.1373V10.1613C6 9.05665 5.10457 8.16125 4 8.16125H2C0.89543 8.16125 0 9.05665 0 10.1613V13.1853Z" fill="#316FF6"/>
<path d="M6.97594 0.161255C5.72282 0.161255 4.64756 0.227095 3.74909 0.426775C2.83927 0.628975 2.05059 0.981465 1.43537 1.59668C0.820154 2.21191 0.467665 3.00058 0.265465 3.9104C0.248865 3.98511 0.233245 4.06006 0.218575 4.13523C0.00419454 5.23392 0.938874 6.16125 2.05827 6.16125H17.976C19.0806 6.16125 19.9985 5.25754 19.789 4.17303C19.772 4.0851 19.7538 3.99753 19.7345 3.9104C19.5322 3.00058 19.1798 2.21191 18.5645 1.59668C17.9493 0.981465 17.1606 0.628975 16.2508 0.426775C15.3523 0.227095 14.2771 0.161255 13.024 0.161255H6.97594Z" fill="#316FF6"/>
</svg>
