<svg width="41" height="41" viewBox="0 0 41 41" fill="none" xmlns="http://www.w3.org/2000/svg">
<path d="M36.7155 40.1875H25.3783C23.4644 40.1875 21.9062 38.6294 21.9062 36.7155V22.5658C21.9062 20.6519 23.4644 19.0938 25.3783 19.0938H36.7155C38.6294 19.0938 40.1875 20.6519 40.1875 22.5658V36.7155C40.1875 38.6294 38.6294 40.1875 36.7155 40.1875ZM25.3783 21.9062C25.0141 21.9062 24.7188 22.2016 24.7188 22.5658V36.7155C24.7188 37.0797 25.0141 37.375 25.3783 37.375H36.7155C37.0797 37.375 37.375 37.0797 37.375 36.7155V22.5658C37.375 22.2016 37.0797 21.9062 36.7155 21.9062H25.3783Z" fill="#316FF6"/>
<path d="M36.7155 16.2812H25.3783C23.4644 16.2812 21.9062 14.7231 21.9062 12.8092V4.28453C21.9062 2.37062 23.4644 0.8125 25.3783 0.8125H36.7155C38.6294 0.8125 40.1875 2.37062 40.1875 4.28453V12.8092C40.1875 14.7231 38.6294 16.2812 36.7155 16.2812ZM25.3783 3.625C25.0141 3.625 24.7188 3.92031 24.7188 4.28453V12.8092C24.7188 13.1734 25.0141 13.4688 25.3783 13.4688H36.7155C37.0797 13.4688 37.375 13.1734 37.375 12.8092V4.28453C37.375 3.92031 37.0797 3.625 36.7155 3.625H25.3783Z" fill="#316FF6"/>
<path d="M15.6217 21.9062H4.28453C2.37062 21.9062 0.8125 20.3481 0.8125 18.4342V4.28453C0.8125 2.37062 2.37062 0.8125 4.28453 0.8125H15.6217C17.5356 0.8125 19.0938 2.37062 19.0938 4.28453V18.4342C19.0938 20.3481 17.5356 21.9062 15.6217 21.9062ZM4.28453 3.625C3.92031 3.625 3.625 3.92031 3.625 4.28453V18.4342C3.625 18.7984 3.92031 19.0938 4.28453 19.0938H15.6217C15.9859 19.0938 16.2812 18.7984 16.2812 18.4342V4.28453C16.2812 3.92031 15.9859 3.625 15.6217 3.625H4.28453Z" fill="#316FF6"/>
<path d="M15.6217 40.1875H4.28453C2.37062 40.1875 0.8125 38.6294 0.8125 36.7155V28.1908C0.8125 26.2769 2.37062 24.7188 4.28453 24.7188H15.6217C17.5356 24.7188 19.0938 26.2769 19.0938 28.1908V36.7155C19.0938 38.6294 17.5356 40.1875 15.6217 40.1875ZM4.28453 27.5312C3.92031 27.5312 3.625 27.8266 3.625 28.1908V36.7155C3.625 37.0797 3.92031 37.375 4.28453 37.375H15.6217C15.9859 37.375 16.2812 37.0797 16.2812 36.7155V28.1908C16.2812 27.8266 15.9859 27.5312 15.6217 27.5312H4.28453Z" fill="#316FF6"/>
</svg>
