<svg width="24" height="24" viewBox="0 0 24 24" fill="none" xmlns="http://www.w3.org/2000/svg">
<path d="M20.6831 6.45263L14.3694 0.138938C14.2804 0.0499687 14.1598 0 14.034 0H5.13741C4.05699 0 3.17804 0.878953 3.17804 1.95937V22.0406C3.17804 23.121 4.05699 24 5.13741 24H18.8626C19.943 24 20.822 23.121 20.822 22.0406V6.78802C20.822 6.66225 20.772 6.54155 20.6831 6.45263ZM14.5083 1.61948L19.2025 6.31359H15.519C14.9617 6.31359 14.5084 5.86022 14.5084 5.30288V1.61948H14.5083ZM19.8733 22.0406C19.8733 22.5979 19.4199 23.0513 18.8626 23.0513H5.13741C4.58012 23.0513 4.1267 22.5979 4.1267 22.0406V1.95937C4.1267 1.40208 4.58012 0.948656 5.13741 0.948656H13.5596V5.30297C13.5596 6.38339 14.4385 7.26234 15.519 7.26234H19.8733V22.0406Z" fill="#6B6B6B"/>
<path d="M15.7945 12.0475H8.20553C7.94359 12.0475 7.7312 12.2599 7.7312 12.5218C7.7312 12.7838 7.94359 12.9961 8.20553 12.9961H15.7945C16.0565 12.9961 16.2688 12.7838 16.2688 12.5218C16.2688 12.2599 16.0565 12.0475 15.7945 12.0475Z" fill="#6B6B6B"/>
<path d="M15.7945 14.166H8.20553C7.94359 14.166 7.7312 14.3784 7.7312 14.6403C7.7312 14.9023 7.94359 15.1147 8.20553 15.1147H15.7945C16.0565 15.1147 16.2688 14.9023 16.2688 14.6403C16.2688 14.3784 16.0565 14.166 15.7945 14.166Z" fill="#6B6B6B"/>
<path d="M15.7945 16.2845H8.20553C7.94359 16.2845 7.7312 16.4969 7.7312 16.7589C7.7312 17.0208 7.94359 17.2332 8.20553 17.2332H15.7945C16.0565 17.2332 16.2688 17.0208 16.2688 16.7589C16.2688 16.4969 16.0565 16.2845 15.7945 16.2845Z" fill="#6B6B6B"/>
<path d="M13.3281 18.4032H8.20553C7.94359 18.4032 7.7312 18.6156 7.7312 18.8775C7.7312 19.1395 7.94359 19.3519 8.20553 19.3519H13.3281C13.5901 19.3519 13.8024 19.1395 13.8024 18.8775C13.8024 18.6156 13.5901 18.4032 13.3281 18.4032Z" fill="#6B6B6B"/>
</svg>
