<svg width="28" height="28" viewBox="0 0 28 28" fill="none" xmlns="http://www.w3.org/2000/svg">
<g clip-path="url(#clip0_350_2307)">
<path d="M0.00638017 12.1986C-0.0544323 12.688 0.327232 13.1201 0.820404 13.1201H4.15776C4.55835 13.1201 4.90036 12.8308 4.9667 12.4356C5.609 8.61053 8.61047 5.609 12.4356 4.96675C12.8307 4.90042 13.1201 4.5584 13.1201 4.15776V0.820404C13.1201 0.327232 12.688 -0.0544323 12.1986 0.00638017C9.12131 0.38881 6.21423 1.81172 4.01295 4.01295C1.81172 6.21423 0.38881 9.12131 0.00638017 12.1986Z" fill="#316FF6"/>
<path d="M19.2268 21.3653C17.6698 22.477 15.8442 23.0645 13.9473 23.0645C9.48361 23.0645 5.70679 19.8659 4.96675 15.4587C4.90042 15.0636 4.5584 14.7742 4.15782 14.7742H0.820404C0.327232 14.7742 -0.0544323 15.2063 0.00638017 15.6957V15.6957C0.878154 22.7103 6.87141 28 13.9473 28C17.0994 28 20.0805 26.9768 22.5681 25.0412C22.9575 24.7382 22.9932 24.1625 22.6444 23.8137L20.2835 21.4528C20 21.1693 19.5531 21.1323 19.2268 21.3653Z" fill="#316FF6"/>
<path d="M15.4589 4.96675C19.866 5.70679 23.0648 9.48361 23.0648 13.9473C23.0648 15.8442 22.4772 17.6698 21.3656 19.2268C21.1326 19.5531 21.1696 20 21.4531 20.2835L23.8141 22.6444C24.1629 22.9933 24.7385 22.9575 25.0415 22.5681L25.0416 22.5681C26.9771 20.0806 28.0002 17.0995 28.0002 13.9473C28.0002 6.87141 22.7105 0.878154 15.696 0.00638017H15.6959C15.2065 -0.0544323 14.7744 0.327232 14.7744 0.820404V4.15776C14.7745 4.5584 15.0638 4.90042 15.4589 4.96675Z" fill="#316FF6"/>
<path d="M14.4938 8.31049H13.3994C12.9464 8.31049 12.5791 8.67777 12.5791 9.1308V18.701H15.3141V9.1308C15.3141 8.67777 14.9469 8.31049 14.4938 8.31049Z" fill="#316FF6"/>
<path d="M16.9541 18.701H18.8688C19.3219 18.701 19.6891 18.3337 19.6891 17.8807V11.3182C19.6891 10.8652 19.3219 10.4979 18.8688 10.4979H16.9541V18.701Z" fill="#316FF6"/>
<path d="M10.938 12.6854H9.02539C8.57236 12.6854 8.20508 13.0527 8.20508 13.5057V17.8807C8.20508 18.3337 8.57236 18.701 9.02539 18.701H10.938V12.6854Z" fill="#316FF6"/>
</g>
<defs>
<clipPath id="clip0_350_2307">
<rect width="28" height="28" fill="white"/>
</clipPath>
</defs>
</svg>
