<svg width="50" height="50" viewBox="0 0 50 50" fill="none" xmlns="http://www.w3.org/2000/svg">
<rect x="0.5" y="0.5" width="49" height="49" rx="7.5" fill="#E8F2FF" stroke="#316FF6"/>
<path d="M17.6839 10H27.7217L36.2186 18.8649V36.0973C36.2186 38.2529 34.4715 40 32.3159 40H17.6839C15.5283 40 13.7812 38.2529 13.7812 36.0973V13.9027C13.7812 11.7471 15.5283 10 17.6839 10Z" fill="#0263D1"/>
<path opacity="0.302" fill-rule="evenodd" clip-rule="evenodd" d="M27.709 10V18.7921H36.218L27.709 10Z" fill="white"/>
<path d="M17.4043 31.406V26.4397H19.1635C19.5154 26.4397 19.843 26.4923 20.1463 26.5894C20.4496 26.6905 20.7246 26.8361 20.9713 27.0302C21.218 27.2243 21.4122 27.4832 21.5537 27.8067C21.6952 28.1302 21.7681 28.5023 21.7681 28.9229C21.7681 29.3435 21.6952 29.7156 21.5537 30.0391C21.4122 30.3626 21.218 30.6215 20.9713 30.8156C20.7247 31.0097 20.4496 31.1553 20.1463 31.2564C19.843 31.3535 19.5154 31.406 19.1635 31.406H17.4043ZM18.6459 30.3263H19.0139C19.2121 30.3263 19.3981 30.302 19.5639 30.2575C19.7337 30.209 19.8874 30.1321 20.033 30.031C20.1786 29.9299 20.2918 29.7843 20.3727 29.5942C20.4577 29.4082 20.4981 29.1817 20.4981 28.9229C20.4981 28.6641 20.4576 28.4376 20.3727 28.2475C20.2918 28.0615 20.1786 27.9159 20.033 27.8148C19.8874 27.7096 19.7337 27.6369 19.5639 27.5883C19.3981 27.5438 19.2121 27.5195 19.0139 27.5195H18.6459V30.3263ZM24.781 31.4627C24.0328 31.4627 23.414 31.22 22.9247 30.7388C22.4353 30.2575 22.1927 29.6509 22.1927 28.9229C22.1927 28.195 22.4353 27.5883 22.9247 27.1071C23.414 26.6258 24.0328 26.3832 24.781 26.3832C25.517 26.3832 26.1277 26.6259 26.617 27.1071C27.1023 27.5884 27.345 28.195 27.345 28.9229C27.345 29.6509 27.1023 30.2575 26.617 30.7388C26.1277 31.22 25.517 31.4627 24.781 31.4627ZM23.8265 29.9704C24.0732 30.2454 24.3887 30.3829 24.7729 30.3829C25.1571 30.3829 25.4685 30.2454 25.7152 29.9704C25.9619 29.6913 26.0832 29.3435 26.0832 28.9229C26.0832 28.5023 25.9619 28.1545 25.7152 27.8754C25.4685 27.6004 25.1571 27.4629 24.7729 27.4629C24.3887 27.4629 24.0732 27.6004 23.8265 27.8754C23.5798 28.1545 23.4545 28.5023 23.4545 28.9229C23.4545 29.3435 23.5798 29.6913 23.8265 29.9704ZM30.2973 31.4627C29.5734 31.4627 28.9708 31.2362 28.4936 30.7913C28.0123 30.3424 27.7737 29.7196 27.7737 28.9229C27.7737 28.1302 28.0164 27.5074 28.5017 27.0585C28.991 26.6096 29.5855 26.3831 30.2973 26.3831C30.9403 26.3831 31.4661 26.5408 31.8826 26.8603C32.2952 27.1758 32.5338 27.5964 32.5944 28.1221L31.3407 28.3769C31.2881 28.1019 31.1628 27.8795 30.9686 27.7137C30.7745 27.5478 30.5481 27.4629 30.2892 27.4629C29.9333 27.4629 29.6381 27.5883 29.3995 27.8431C29.1608 28.1019 29.0395 28.4578 29.0395 28.9229C29.0395 29.388 29.1608 29.7438 29.3954 29.9986C29.634 30.2575 29.9293 30.3828 30.2892 30.3828C30.548 30.3828 30.7704 30.3101 30.9524 30.1645C31.1344 30.0189 31.2477 29.8248 31.2962 29.5821L32.5782 29.8733C32.4609 30.3748 32.2021 30.763 31.7977 31.042C31.3973 31.3211 30.8958 31.4627 30.2973 31.4627Z" fill="white"/>
</svg>
