<svg width="22" height="22" viewBox="0 0 22 22" fill="none" xmlns="http://www.w3.org/2000/svg">
<path d="M20.94 1.76006L20.23 1.05006C19.16 -0.0199414 17.41 -0.0199414 16.34 1.05006L6.03 11.3801C5.74 11.6701 5.56 12.0501 5.52 12.4601L5.25 15.3901C5.22 15.7601 5.35 16.1201 5.61 16.3901C5.85 16.6301 6.16 16.7601 6.49 16.7601H6.6L9.53 16.4901C9.94 16.4501 10.32 16.2701 10.61 15.9801L20.93 5.66006C21.45 5.14006 21.74 4.45006 21.74 3.72006C21.74 2.99006 21.45 2.29006 20.93 1.78006L20.94 1.76006ZM9.56 14.9101C9.56 14.9101 9.46 14.9801 9.41 14.9801L6.78 15.2201L7.02 12.5901C7.02 12.5301 7.05 12.4801 7.09 12.4301L15.47 4.05006L17.94 6.52006L9.56 14.9001V14.9101ZM19.88 4.59006L19 5.47006L16.53 3.00006L17.41 2.12006C17.65 1.88006 17.97 1.75006 18.29 1.75006C18.61 1.75006 18.93 1.87006 19.17 2.12006L19.88 2.83006C20.12 3.07006 20.25 3.38006 20.25 3.71006C20.25 4.04006 20.12 4.36006 19.88 4.59006ZM19.75 12.1901V18.0001C19.75 20.0701 18.07 21.7501 16 21.7501H4C1.93 21.7501 0.25 20.0701 0.25 18.0001V6.00006C0.25 3.93006 1.93 2.25006 4 2.25006H9.81C10.22 2.25006 10.56 2.59006 10.56 3.00006C10.56 3.41006 10.22 3.75006 9.81 3.75006H4C2.76 3.75006 1.75 4.76006 1.75 6.00006V18.0001C1.75 19.2401 2.76 20.2501 4 20.2501H16C17.24 20.2501 18.25 19.2401 18.25 18.0001V12.1901C18.25 11.7801 18.59 11.4401 19 11.4401C19.41 11.4401 19.75 11.7801 19.75 12.1901Z" fill="#316FF6"/>
</svg>
