<svg width="17" height="17" viewBox="0 0 17 17" fill="none" xmlns="http://www.w3.org/2000/svg">
<path d="M7.83398 3.16663H3.16732C2.8137 3.16663 2.47456 3.3071 2.22451 3.55715C1.97446 3.8072 1.83398 4.14634 1.83398 4.49996V13.8333C1.83398 14.1869 1.97446 14.5261 2.22451 14.7761C2.47456 15.0262 2.8137 15.1666 3.16732 15.1666H12.5007C12.8543 15.1666 13.1934 15.0262 13.4435 14.7761C13.6935 14.5261 13.834 14.1869 13.834 13.8333V9.16663" stroke="white" stroke-width="1.5" stroke-linecap="round" stroke-linejoin="round"/>
<path d="M12.834 2.16592C13.0992 1.90071 13.4589 1.75171 13.834 1.75171C14.2091 1.75171 14.5688 1.90071 14.834 2.16592C15.0992 2.43114 15.2482 2.79085 15.2482 3.16592C15.2482 3.541 15.0992 3.90071 14.834 4.16592L8.50065 10.4993L5.83398 11.1659L6.50065 8.49926L12.834 2.16592Z" stroke="white" stroke-width="1.5" stroke-linecap="round" stroke-linejoin="round"/>
</svg>
