<svg width="441" height="332" viewBox="0 0 441 332" fill="none" xmlns="http://www.w3.org/2000/svg">
<path d="M272.364 55.6723C274.534 55.6519 284.924 55.0763 286.218 55.9805C286.51 56.1842 286.414 56.4925 286.433 56.8136C281.948 56.8052 277.287 57.2331 272.83 56.8317C272.348 56.4501 272.437 56.2653 272.364 55.6716V55.6723Z" fill="#2B1D40"/>
<path d="M162.592 56.1207C163.002 55.8859 163.416 55.6898 163.89 55.6277C165.424 55.427 175.629 55.4649 176.771 55.8004C177.136 55.9079 177.388 56.0639 177.689 56.2896L177.713 56.6092C176.136 57.502 167.984 56.9795 165.807 56.9795C165.195 57.006 164.507 57.084 163.901 57.0143C163.185 56.9333 163.011 56.6349 162.592 56.1199V56.1207Z" fill="#34234C"/>
<path d="M185.041 84.6164C185.061 84.6248 185.083 84.6308 185.102 84.6414C185.624 84.9542 185.663 84.9413 185.801 85.5153C184.865 87.7797 178.972 92.9377 176.947 94.7893C176.373 94.5924 176.3 94.6121 175.968 94.1145C176.17 92.812 183.595 85.9425 185.041 84.6164Z" fill="#34234C"/>
<path d="M180.908 15.2823C180.992 15.2982 181.075 15.3149 181.159 15.3301C182.751 15.6118 189.14 22.2268 190.543 23.7013C191.213 24.4056 191.338 24.6373 191.319 25.5612C191.114 25.5862 190.989 25.6097 190.774 25.5938C189.779 25.5203 182.428 18.1555 181.419 16.9938C180.851 16.3395 180.88 16.098 180.908 15.2816V15.2823Z" fill="#34234C"/>
<path d="M263.535 84.1553C263.844 84.2136 264.092 84.2628 264.343 84.4658C265.616 85.4934 272.715 92.2887 273.529 93.458C273.909 94.004 273.746 94.3228 273.596 94.9059C271.835 94.3448 264.497 87.4139 263.497 85.6403C263.169 85.0557 263.352 84.7407 263.535 84.156V84.1553Z" fill="#34234C"/>
<path d="M223.968 0C224.329 0.0583123 224.656 0.149189 225.009 0.246123C225.909 1.69484 225.438 12.5159 225.286 14.8984C224.818 14.8515 224.565 14.7659 224.16 14.5251C223.295 12.8651 223.712 2.32643 223.968 0Z" fill="#34234C"/>
<path d="M267.289 15.3157C267.733 15.4399 267.875 15.5353 268.162 15.8973C267.83 17.5301 259.742 24.8411 258.059 26.4867C257.494 26.1618 257.298 26.1625 257.073 25.531C257.752 23.7899 265.429 16.9447 267.29 15.3157H267.289Z" fill="#34234C"/>
<path d="M188.176 67.2227C186.28 57.4088 188.593 48.1289 194.121 39.9106C194.289 39.6645 194.46 39.4206 194.634 39.1783C194.808 38.936 194.984 38.6967 195.164 38.4589C195.344 38.2211 195.527 37.9863 195.712 37.7531C195.897 37.5198 196.085 37.2888 196.277 37.0601C196.468 36.8314 196.661 36.6058 196.859 36.3816C197.055 36.1582 197.255 35.9371 197.457 35.7182C197.659 35.4993 197.863 35.2827 198.071 35.0692C198.278 34.8556 198.489 34.6443 198.701 34.4353C198.913 34.2271 199.129 34.0211 199.347 33.8174C199.564 33.6144 199.784 33.4137 200.007 33.2161C200.23 33.0184 200.455 32.823 200.682 32.6307C200.91 32.4383 201.14 32.249 201.372 32.0619C201.604 31.8756 201.838 31.6916 202.074 31.5106C202.311 31.3296 202.55 31.1517 202.79 30.9767C203.031 30.8018 203.274 30.6299 203.52 30.461C203.765 30.2921 204.013 30.1263 204.261 29.9627C204.511 29.7999 204.762 29.6401 205.015 29.4833C205.268 29.3266 205.523 29.1728 205.78 29.0229C206.037 28.8722 206.296 28.7253 206.556 28.5814C206.817 28.4375 207.079 28.2966 207.343 28.1596C207.608 28.0217 207.873 27.8877 208.14 27.7567C208.407 27.6257 208.676 27.4977 208.947 27.3735C209.217 27.2493 209.489 27.1281 209.762 27.0107C210.036 26.8926 210.311 26.7782 210.586 26.6677C210.862 26.5571 211.141 26.4496 211.419 26.3451C211.698 26.2413 211.978 26.1406 212.259 26.0437C212.54 25.9467 212.823 25.8528 213.106 25.7627C213.39 25.6726 213.674 25.5855 213.96 25.5029C214.246 25.4196 214.533 25.3401 214.821 25.2644C215.108 25.1879 215.397 25.116 215.686 25.0463C215.976 24.9774 216.266 24.9115 216.557 24.8501C216.848 24.7888 217.14 24.7305 217.433 24.676C217.727 24.6192 218.023 24.5662 218.319 24.5162C218.614 24.467 218.911 24.4208 219.208 24.3783C219.505 24.3359 219.803 24.2973 220.1 24.2617C220.398 24.2269 220.697 24.1951 220.995 24.1678C221.294 24.1398 221.593 24.1156 221.893 24.0951C222.192 24.0747 222.492 24.0573 222.792 24.0444C223.091 24.0307 223.391 24.0217 223.691 24.0156C223.991 24.0095 224.291 24.0073 224.592 24.0088C224.892 24.0103 225.192 24.0156 225.492 24.0239C225.792 24.0323 226.091 24.0451 226.392 24.061C226.691 24.0769 226.991 24.0974 227.29 24.1209C227.59 24.1443 227.888 24.1716 228.187 24.2019C228.486 24.2329 228.783 24.267 229.081 24.3049C229.379 24.3428 229.676 24.3844 229.973 24.4298C230.269 24.4753 230.565 24.5238 230.861 24.576C231.156 24.6283 231.451 24.6843 231.745 24.7441C232.039 24.804 232.333 24.8668 232.625 24.9335C232.918 25.0009 233.21 25.0713 233.5 25.1447C233.791 25.219 234.081 25.2962 234.37 25.3772C234.659 25.4583 234.947 25.5423 235.234 25.6309C235.521 25.7188 235.807 25.8104 236.091 25.9058C236.376 26.0005 236.66 26.0989 236.942 26.2012C237.224 26.3034 237.505 26.4087 237.785 26.5177C238.065 26.6268 238.343 26.7389 238.62 26.854C238.897 26.9698 239.173 27.0887 239.447 27.2114C239.722 27.3341 239.994 27.4598 240.264 27.5886C240.536 27.7181 240.805 27.8498 241.073 27.9854C241.341 28.1209 241.608 28.2595 241.872 28.4019C242.136 28.5435 242.399 28.6889 242.659 28.8381C242.92 28.9865 243.179 29.1388 243.437 29.2932C243.694 29.4477 243.95 29.606 244.203 29.7673C244.456 29.9279 244.708 30.0922 244.958 30.2596C252.801 35.6114 258.693 44.1606 260.444 53.5451C261.355 58.4289 261.11 63.0697 260.323 67.9331C258.632 74.714 255.286 80.6262 250.44 85.6388C247.142 89.0497 243.093 91.6457 241.632 96.4311C239.366 103.856 243.951 115.905 238.25 121.874C235.868 124.368 232.684 124.635 229.429 124.745C229.218 125.908 228.982 127.146 228.301 128.136C227.483 129.325 226.269 130.178 224.833 130.401C224.664 130.428 224.495 130.445 224.324 130.454C224.153 130.464 223.983 130.463 223.812 130.453C223.641 130.444 223.472 130.425 223.303 130.398C223.135 130.37 222.969 130.334 222.804 130.289C222.639 130.243 222.477 130.19 222.318 130.128C222.16 130.066 222.004 129.995 221.853 129.917C221.702 129.838 221.554 129.751 221.412 129.657C221.27 129.563 221.132 129.462 221.001 129.353C219.452 128.071 219.069 126.529 218.879 124.632C216.274 124.595 213.856 124.469 211.583 123.05C210.131 122.144 209.002 120.852 208.224 119.33C205.217 113.439 208.855 101.819 206.24 94.9756C204.671 90.8725 201.297 88.7589 198.275 85.8425C192.965 80.7178 189.816 74.3451 188.176 67.222L188.176 67.2227Z" fill="#34234C"/>
<path d="M208.55 110.378C218.86 110.34 229.168 110.37 239.477 110.466V114.447L208.51 114.303L208.55 110.378Z" fill="#FEFEFE"/>
<path d="M208.557 104.405C218.887 104.571 229.217 104.586 239.548 104.453L239.533 108.931C236.389 109.331 232.758 109.005 229.566 108.996L208.532 108.93L208.557 104.405H208.557Z" fill="#FEFEFE"/>
<path d="M208.528 115.966C218.825 115.721 229.162 115.913 239.462 115.944C238.881 117.982 238.345 119.271 236.936 120.857C236.04 121.58 235.131 122.229 234.022 122.578C230.483 123.687 216.466 123.796 213.201 122.083C210.667 120.754 209.386 118.613 208.527 115.966L208.528 115.966Z" fill="#FEFEFE"/>
<path d="M221.814 25.6718C222.765 25.5575 223.72 25.5529 224.677 25.5575C224.964 25.5605 225.252 25.5666 225.538 25.5756C225.825 25.5847 226.112 25.5984 226.399 25.615C226.686 25.6317 226.972 25.6514 227.259 25.6756C227.545 25.6991 227.831 25.7263 228.116 25.7574C228.402 25.7884 228.687 25.8225 228.972 25.8604C229.257 25.8982 229.541 25.9399 229.825 25.9846C230.108 26.0293 230.392 26.0777 230.674 26.1292C230.956 26.1807 231.238 26.236 231.519 26.2951C231.801 26.3534 232.081 26.4155 232.36 26.4814C232.64 26.5473 232.919 26.6162 233.197 26.6881C233.475 26.7608 233.752 26.8365 234.028 26.9153C234.304 26.9948 234.579 27.0774 234.853 27.1637C235.128 27.25 235.401 27.3394 235.672 27.4318C235.944 27.5242 236.215 27.6204 236.484 27.7196C236.753 27.8188 237.021 27.9218 237.289 28.0278C237.556 28.1338 237.822 28.2429 238.086 28.3549C238.35 28.4678 238.613 28.5836 238.874 28.7025C239.136 28.8214 239.396 28.9441 239.654 29.0691C239.913 29.1948 240.17 29.3228 240.426 29.4545C240.681 29.5863 240.934 29.7211 241.187 29.8589C241.439 29.9968 241.69 30.1384 241.938 30.2823C242.187 30.4262 242.433 30.5738 242.678 30.7238C242.923 30.8745 243.167 31.0275 243.408 31.1835C243.649 31.3395 243.888 31.4993 244.125 31.6613C244.363 31.8234 244.598 31.9885 244.831 32.1558C245.065 32.324 245.296 32.4943 245.525 32.6678C245.754 32.8412 245.981 33.0176 246.207 33.1971C246.431 33.3766 246.654 33.5584 246.874 33.7424C247.095 33.9272 247.312 34.1142 247.528 34.3043C247.743 34.4944 247.957 34.6867 248.168 34.8821C248.379 35.0775 248.588 35.2752 248.794 35.4751C249.001 35.6758 249.204 35.878 249.405 36.0832C255.875 42.6861 259.63 51.4299 259.54 60.719C259.45 70.1171 255.636 78.0324 249.213 84.7043C247.623 86.3559 245.804 87.7698 244.181 89.3867C240.148 93.4057 239.53 97.7147 239.503 103.17L229.66 103.142C229.664 98.9234 229.693 94.6999 229.637 90.481C229.602 87.7941 229.362 84.9792 229.583 82.3059C230.003 77.2206 232.188 75.9385 235.801 72.826C236.377 72.3292 236.981 71.8195 237.04 71.0259L236.476 70.8706C234.83 71.166 233.235 72.3989 232.032 73.5159C227.248 77.9597 227.864 83.4706 227.95 89.4389C228.014 93.957 228.263 98.5531 228.067 103.066L220.079 103.054V88.6013C220.103 86.0023 220.57 82.6656 220.002 80.1514C219.306 77.0729 217.38 73.9347 214.648 72.2815C213.74 71.7324 212.39 70.8888 211.308 71.1637L211.153 71.5764C212.135 73.082 214.158 74.1399 215.454 75.4281C216.776 76.7428 217.746 78.2346 218.184 80.0635C218.887 83.0019 218.418 86.7649 218.404 89.7964L218.446 103.094L208.626 103.028C208.651 100.224 208.756 97.4269 207.793 94.7453C206.19 90.2757 202.514 87.7077 199.234 84.5498C198.891 84.2166 198.555 83.8765 198.227 83.5297C197.899 83.1821 197.578 82.8284 197.265 82.4672C196.952 82.106 196.646 81.7387 196.349 81.3646C196.051 80.9905 195.761 80.6103 195.48 80.2233C195.199 79.8371 194.926 79.4448 194.661 79.0465C194.397 78.6481 194.141 78.2452 193.894 77.8355C193.647 77.4258 193.408 77.0116 193.178 76.5928C192.948 76.1733 192.728 75.7492 192.517 75.3205C192.305 74.8919 192.103 74.4587 191.91 74.021C191.717 73.5833 191.534 73.1418 191.359 72.6965C191.185 72.2512 191.02 71.8021 190.865 71.35C190.711 70.8979 190.565 70.442 190.429 69.9838C190.294 69.5249 190.168 69.0637 190.052 68.5995C189.936 68.1353 189.831 67.6688 189.735 67.2007C189.639 66.732 189.552 66.2617 189.477 65.7891C189.4 65.3166 189.335 64.8433 189.279 64.3684C188.26 55.0241 191.111 45.9827 196.971 38.6853C203.23 30.8904 211.996 26.7048 221.815 25.6673L221.814 25.6718Z" fill="#316FF6"/>
<path d="M110.394 145.744C110.375 142.91 109.865 135.925 110.718 133.533C113.023 132.794 122.401 134.302 125.356 134.639C157.82 138.334 192.185 145.352 221.413 160.47L223.032 161.317C225.238 160.256 227.458 159.225 229.691 158.222C231.925 157.22 234.171 156.247 236.429 155.302C238.687 154.359 240.958 153.444 243.24 152.559C245.522 151.675 247.816 150.82 250.12 149.995C252.425 149.17 254.74 148.376 257.065 147.611C259.39 146.847 261.724 146.113 264.069 145.41C266.413 144.707 268.766 144.034 271.128 143.392C273.49 142.75 275.86 142.139 278.237 141.559C280.615 140.979 283 140.431 285.392 139.913C287.784 139.396 290.181 138.91 292.586 138.454C294.991 137.999 297.401 137.576 299.816 137.184C302.232 136.793 304.652 136.432 307.077 136.104C309.503 135.775 311.932 135.478 314.364 135.213C316.796 134.948 319.232 134.715 321.671 134.513C324.11 134.311 326.551 134.142 328.994 134.004C331.437 133.866 333.881 133.76 336.328 133.686L336.329 145.665C339.612 145.383 342.899 145.223 346.194 145.184L346.246 154.345C353.66 154.058 361.047 153.26 368.442 152.699C368.704 153.142 368.807 153.442 368.837 153.956C369.15 159.694 369.017 165.543 369.099 171.295L369.553 213.831L370.058 243.635C370.125 246.57 370.752 257.737 370.235 259.862C370.21 259.965 370.18 260.067 370.151 260.17C370.409 260.789 370.468 261.513 370.571 262.173C370.781 259.409 373.36 250.431 372.715 248.6C372.799 248.519 372.936 248.394 373.007 248.289C373.822 247.051 374.929 240.097 375.383 238.161C377.151 230.62 379.45 223.092 381.812 215.716C382.495 213.586 385.717 205.561 385.772 204.082C385.776 203.947 385.731 203.708 385.713 203.592C385.956 202.255 384.432 198.063 384.026 196.591C382.779 192.094 381.728 187.575 380.557 183.06C380.037 181.053 379.24 179.096 378.863 177.051C378.723 176.3 378.598 175.385 378.845 174.652L379.587 174.681C379.708 174.827 379.723 174.833 379.834 175.025C380.926 176.889 386.048 196.856 386.628 199.957C386.709 200.388 386.643 200.678 386.528 201.091C387.938 199.772 391.418 191.044 392.539 188.808C394.455 184.986 396.79 180.546 399.322 177.119C399.883 176.36 400.588 175.702 401.544 175.565L401.806 176.009L401.647 175.602L401.773 176.235C401.009 178.676 398.972 180.626 397.725 182.84C395.566 186.685 393.455 190.675 391.632 194.691C390.381 197.448 389.145 200.237 388.086 203.075C387.105 205.706 382.739 219.5 381.794 220.699C384.008 219.627 386.071 217.293 387.979 215.693C391.765 212.519 395.551 209.321 399.541 206.406C400.888 205.423 403.928 202.85 405.659 203.121L405.625 203.495C403.902 206.155 400.02 208.289 397.518 210.222C394.203 212.745 390.961 215.358 387.79 218.062C385.602 219.932 383.34 222.36 380.89 223.815C380.982 224.597 375.58 246.038 375.1 246.787C375.115 246.882 375.151 247.074 375.155 247.184C375.196 248.952 374.336 251.402 373.996 253.214C373.225 257.36 372.79 261.761 371.723 265.83C371.609 266.266 371.398 266.607 371.103 266.941C372.933 265.833 376.716 260.42 378.727 258.387C383.742 253.306 390.189 248.749 396.381 245.25C406.973 239.267 420.298 235.918 432.306 239.289C432.922 240.08 433.11 241.257 433.354 242.222C437.428 258.388 431.8 277.13 423.504 291.029C415.873 303.812 403.54 313.651 390.421 320.314C387.332 321.881 384.221 323.544 380.845 324.392C393.964 324.451 407.09 324.205 420.209 324.172C425.523 324.159 431.154 323.769 436.431 324.168C436.638 324.185 436.842 324.216 437.044 324.261C437.243 324.306 437.44 324.365 437.634 324.437C437.826 324.51 438.013 324.596 438.195 324.695C438.377 324.795 438.55 324.906 438.715 325.029C439.556 325.665 440.11 326.616 440.188 327.674C440.195 327.788 440.198 327.902 440.195 328.016C440.193 328.131 440.184 328.244 440.17 328.358C440.154 328.471 440.134 328.583 440.107 328.695C440.082 328.806 440.05 328.916 440.011 329.024C439.974 329.132 439.932 329.238 439.885 329.341C439.836 329.445 439.782 329.545 439.723 329.644C439.666 329.742 439.603 329.837 439.535 329.928C439.466 330.02 439.393 330.108 439.317 330.193C438.203 331.425 436.508 331.734 434.925 331.816C432.291 331.953 429.597 331.782 426.954 331.784L408.543 331.794L353.054 331.79L183.632 331.763L64.0948 331.814L29.1325 331.837L18.0114 331.852C16.1162 331.852 14.103 331.987 12.2191 331.805C11.1358 331.701 10.1137 331.382 9.32149 330.603C8.62675 329.921 8.25935 329.075 8.25708 328.099C8.25481 327.041 8.68723 325.971 9.45529 325.239C10.2355 324.495 11.2197 324.318 12.2547 324.225C17.5941 323.744 25.3693 324.181 30.9627 324.183C41.6726 324.187 52.4346 323.946 63.1377 324.268C41.8722 312.166 25.1107 296.961 13.4982 275.105C2.24784 253.931 -3.10596 229.381 4.04857 205.999C11.0224 205.904 17.3159 206.868 24.069 208.54C23.3622 205.258 21.8774 202.116 21.1426 198.812C18.4121 186.533 19.1431 173.04 22.8315 161.04C24.543 155.061 28.0606 146.422 31.9478 141.6C47.3568 147.177 61.8148 162.312 69.9823 176.216C72.2933 180.151 74.5295 186.269 76.8307 189.534C77.0612 177.384 76.9025 165.193 77.2933 153.052C84.8372 153.283 92.3599 153.999 99.8901 154.249C99.8621 152.025 99.2513 147.654 100.633 145.865C102.369 144.811 108.046 145.734 110.393 145.741L110.394 145.744Z" fill="#34234C"/>
<path d="M24.3571 257.583C26.1593 258.379 27.8883 259.59 29.6429 260.514C33.5535 262.579 37.5708 264.409 41.6938 266.006C43.0183 266.508 50.578 268.744 51.2259 269.36C51.4693 269.591 51.3491 270.109 51.3393 270.43C49.9967 270.335 48.6904 269.915 47.4128 269.512C43.8537 268.387 25.1909 261.183 24.122 258.522C24.0056 258.232 24.2475 257.86 24.3571 257.583Z" fill="#FEFEFE"/>
<path d="M23.6859 229.516C25.6333 230.35 28.5415 234.086 30.1298 235.79C31.8504 237.6 33.5438 239.436 35.2092 241.298C36.8746 243.159 38.5113 245.046 40.1193 246.957C41.7272 248.868 43.3065 250.804 44.8562 252.763C46.406 254.722 47.9255 256.705 49.4147 258.71C50.904 260.716 52.363 262.744 53.7911 264.794C55.2191 266.844 56.6161 268.915 57.9814 271.007C59.3467 273.1 60.6795 275.213 61.9813 277.345C63.2831 279.479 64.5516 281.631 65.7876 283.802C67.9776 287.665 75.3847 300.6 76.0605 303.892C76.1845 304.497 75.9736 305.167 75.8133 305.748C74.6204 304.005 73.7896 301.803 72.8325 299.9C71.0099 296.341 69.157 292.798 67.2753 289.27C64.6332 284.412 61.8376 279.645 58.8871 274.97C55.9365 270.294 52.8378 265.719 49.5916 261.244C45.4837 255.62 41.1595 250.168 36.6199 244.887C34.5659 242.513 24.293 232.04 23.5604 230.496C23.3782 230.112 23.5574 229.898 23.6867 229.514L23.6859 229.516Z" fill="#FEFEFE"/>
<path d="M390.702 257.49C390.875 257.477 391.174 257.448 391.337 257.473C391.592 257.512 391.861 257.605 391.972 257.85C392.385 258.788 392.138 279.378 391.713 280.44C393.082 279.629 394.514 277.355 395.595 276.088C399.106 271.95 402.683 267.871 406.326 263.851C407.654 262.401 408.998 260.682 410.496 259.431C411.031 258.983 411.651 258.698 412.33 258.549L412.44 258.629C412.433 258.698 412.433 258.769 412.415 258.838C412.252 259.524 411.585 260.284 411.13 260.825C408.222 264.278 404.964 267.513 401.967 270.903C399.653 273.521 394.243 280.769 391.974 282.276C397.044 281.801 402.948 279.951 407.967 278.827C409.835 278.409 412.104 277.682 414.012 277.822C414.3 278.195 414.318 278.256 414.37 278.727C413.37 279.564 408.978 280.103 407.406 280.439C405.584 281.079 403.462 281.351 401.557 281.767C398.026 282.541 394.479 283.427 390.911 284.014C390.904 284.085 390.904 284.157 390.889 284.228C390.601 285.448 387.151 289.777 386.192 291.162C383.571 294.94 380.941 298.728 378.487 302.617C376.457 305.833 374.575 309.191 372.442 312.333C372.087 312.852 371.774 313.341 371.232 313.677C370.438 310.722 384.044 291.752 386.524 288.255C387.292 287.168 390.1 283.842 390.222 282.905C390.233 282.823 390.236 282.739 390.244 282.655C391.465 279.524 389.845 262.535 390.701 257.487L390.702 257.49Z" fill="#FEFEFE"/>
<path d="M131.14 136.895C137.795 137.78 144.546 138.625 151.108 140.064C151.259 154.166 151.437 168.425 150.963 182.517L146.394 178.541C144.638 177.025 142.94 175.447 141.3 173.806L131.246 182.819C131.425 167.546 131.408 152.166 131.139 136.895H131.14Z" fill="#FE5168"/>
<path d="M339.68 147.041L344.707 146.864L344.837 304.966L342.813 303.473C340.783 302.215 338.723 301.268 336.476 300.467L336.352 147.041L339.68 147.04V147.041Z" fill="#FEFEFE"/>
<path d="M101.527 147.023L110.168 147.413L109.952 300.474L106.953 301.717L100.873 305.046L101.526 147.023H101.527Z" fill="#FEFEFE"/>
<path d="M97.6199 158.997C98.0864 158.958 98.769 158.822 99.2241 158.898C99.246 158.902 99.7026 158.996 99.7631 159.078C100.093 159.528 99.8909 172.994 99.8879 174.503L99.4834 263.167L99.3564 289.733C99.3163 294.413 99.0268 299.217 99.2423 303.886C99.2891 304.889 99.3337 306.078 100.039 306.832C102.334 306.838 105.32 304.242 107.417 303.27C108.984 302.543 110.69 301.928 112.349 301.438C117.674 299.866 123.309 299.503 128.827 299.302C151.747 298.465 174.549 303.402 195.979 311.276C200.396 312.899 205.183 314.546 209.309 316.805C208.487 317.099 200.85 314.221 199.501 313.762C196.485 312.712 193.445 311.74 190.379 310.845C187.314 309.95 184.228 309.134 181.122 308.396C178.015 307.658 174.892 307 171.751 306.42C168.612 305.841 165.459 305.342 162.293 304.924C139.322 302.089 109.406 304.264 90.4866 319.071L91.328 230.34C91.5714 208.144 91.5714 185.936 92.0469 163.744C93.4734 162.157 95.4616 159.512 97.6192 158.998L97.6199 158.997Z" fill="#FEFEFE"/>
<path d="M346.413 158.296C349.027 159.474 351.491 160.756 353.921 162.276C354.404 170.065 354.272 177.999 354.294 185.803L354.549 214.575L355.873 318.683C353.585 316.997 351.188 315.485 348.682 314.145C341.097 310.136 332.483 307.615 324.071 306.103C298.473 301.502 272.47 305.524 247.864 313.176C245.255 313.926 238.628 316.888 236.385 316.598C236.478 316.519 236.559 316.422 236.664 316.358C237.74 315.714 240.835 314.916 242.312 314.237C265.339 303.655 306.473 296.008 331.396 300.866C334.759 301.521 337.965 302.419 340.901 304.239C342.578 305.278 344.36 307.026 346.226 307.561L346.188 306.896L346.284 307.007C346.748 301.582 346.374 295.856 346.358 290.407L346.349 260.164L346.413 158.296Z" fill="#FEFEFE"/>
<path d="M22.8325 161.042C24.544 155.062 28.0616 146.424 31.9488 141.602C47.3578 147.179 61.8158 162.313 69.9833 176.217C72.2943 180.152 74.5305 186.271 76.8317 189.536C77.1099 196.727 76.6215 203.949 76.5376 211.141C76.4061 222.408 76.5323 233.698 76.2897 244.959C74.687 242.959 73.0412 240.996 71.3531 239.067C69.5834 237.075 67.2528 235.132 66.05 232.726C64.1525 228.929 62.5544 222.208 61.0114 217.926C59.25 213.037 45.8338 178.713 42.7018 177.412C42.1552 177.615 42.1839 177.596 41.9239 178.121C42.2232 179.875 46.8974 188.53 47.9837 190.824C49.9236 194.924 51.7341 199.124 53.4865 203.307C57.28 212.36 60.4074 221.707 63.6074 230.982C55.263 222.841 44.4949 215.819 33.6369 211.568C30.4996 210.339 27.3018 209.467 24.0693 208.54C23.3625 205.257 21.8777 202.116 21.1429 198.812C18.4123 186.532 19.1434 173.04 22.8318 161.04L22.8325 161.042Z" fill="#2D8981"/>
<path d="M363.711 154.524C364.792 154.606 365.9 154.485 366.981 154.425C367.066 154.565 367.158 154.699 367.214 154.854C367.723 156.249 367.447 167.897 367.48 170.367L368.17 230.686L369.247 297.29C369.387 306.011 369.724 314.766 369.712 323.485C369.712 324.062 369.638 324.437 369.414 324.968C365.432 325.195 358.885 325.477 355.074 324.826C351.818 324.27 348.735 322.734 345.616 321.679C341.406 320.253 337.047 319.109 332.713 318.137C320.733 315.449 308.76 314.564 296.509 314.629C281.195 314.711 265.678 317.087 250.822 320.775C244.153 322.43 237.471 325.563 230.568 325.966C225.976 326.234 217.906 326.478 213.469 325.801C205.456 324.578 196.862 321.076 188.761 319.201C185.829 318.513 182.881 317.905 179.916 317.378C176.951 316.85 173.974 316.404 170.985 316.039C167.996 315.674 164.998 315.391 161.994 315.19C158.99 314.988 155.982 314.87 152.971 314.833C149.67 314.797 146.372 314.851 143.074 314.995C139.778 315.139 136.486 315.374 133.202 315.698C129.917 316.023 126.644 316.436 123.382 316.94C120.12 317.444 116.875 318.036 113.644 318.717C108.873 319.76 104.137 320.939 99.4336 322.256C96.2812 323.155 93.0199 324.456 89.7753 324.899C86.0249 325.412 81.4105 324.939 77.5641 324.901C77.4582 288.114 77.6291 251.33 78.0759 214.547C78.4629 194.623 78.6995 174.697 78.785 154.769C81.26 154.787 98.9891 155.435 99.8161 155.996C99.869 156.541 99.894 156.591 99.6226 157.06C98.7729 157.139 97.8498 157.181 97.0236 157.393C94.55 158.03 91.6418 161.469 90.3778 163.583C90.0021 170.684 90.2735 177.918 90.2032 185.037L89.742 229.067L89.2302 280.191C89.0639 293.059 88.7426 306.017 88.9354 318.882C88.9498 319.819 88.9248 321.12 89.3935 321.947C90.9947 321.043 92.5202 319.607 94.0284 318.519C95.4466 317.504 96.9147 316.565 98.4319 315.704C99.9492 314.843 101.506 314.065 103.105 313.368C127.092 302.654 157.315 303.957 182.291 310.293C196.188 313.818 209.797 319.026 223.177 324.142C227.286 322.009 231.811 320.485 236.16 318.915C248.325 314.524 260.742 310.707 273.492 308.442C297.032 304.263 322.121 304.066 344.402 313.872C347.344 315.157 350.163 316.67 352.859 318.414C353.824 319.051 354.978 320.292 355.967 320.754C356.557 321.03 356.827 320.77 357.351 320.505L357.2 320.418C357.547 317.591 357.373 314.607 357.359 311.757C357.349 306.931 357.296 302.105 357.2 297.281L356.746 263.668L355.684 162.068C352.685 159.336 349.223 157.72 345.605 155.989C349.018 155.795 361.275 155.492 363.714 154.523L363.711 154.524Z" fill="#316FF6"/>
<path d="M111.934 134.85C117.831 135.385 123.852 135.771 129.679 136.84C129.667 143.847 129.758 150.869 129.615 157.873C129.67 167.233 129.645 176.593 129.542 185.953C131.367 185.256 139.245 177.782 141.086 176.039C144.28 178.713 147.407 181.463 150.467 184.29C151.051 184.817 151.634 185.512 152.43 185.657L152.688 185.56C152.806 181.644 152.74 177.712 152.743 173.793C152.831 165.237 152.696 156.68 152.806 148.126C152.806 145.525 152.761 142.914 152.821 140.315C178.406 144.876 199.02 151.132 222.332 162.759L222.394 276.762C222.384 291.523 222.046 306.324 222.319 321.077C214.369 316.709 205.839 313.145 197.332 310.032C176.505 302.411 155.091 297.517 132.816 297.626C125.876 297.66 118.563 298.023 111.859 299.986L111.585 300.067L111.934 134.849V134.85Z" fill="#FEFEFE"/>
<path d="M129.381 168.86C129.355 165.439 128.876 161.175 129.615 157.873C129.669 167.233 129.645 176.593 129.542 185.953C128.892 183.728 129.359 175.188 129.375 172.273C128.208 172.429 126.874 172.732 125.886 171.883C125.4 171.465 125.346 171.143 125.26 170.534C125.395 170.204 125.51 169.89 125.767 169.633C126.704 168.694 128.163 168.871 129.381 168.86H129.381Z" fill="#E5E5E6"/>
<path d="M152.806 148.126C153.418 149.223 153.039 167.364 153.018 170.251C166.824 171.144 179.104 172.919 192.363 177.142C194.467 177.812 198.044 178.644 199.527 180.308C199.726 180.799 199.888 181.398 199.701 181.926C199.488 182.524 199.297 182.525 198.749 182.742C196.338 182.598 190.434 180.222 187.744 179.481C185.464 178.829 183.169 178.231 180.861 177.689C178.553 177.147 176.233 176.66 173.902 176.228C171.57 175.797 169.229 175.421 166.88 175.102C164.531 174.783 162.175 174.519 159.814 174.313C157.502 174.092 155.058 173.721 152.744 173.792C152.832 165.236 152.697 156.678 152.807 148.124L152.806 148.126Z" fill="#E5E5E6"/>
<path d="M133.721 260.894C135.581 260.852 137.44 260.858 139.299 260.912C157.069 261.377 175.847 264.36 192.604 270.408C194.343 271.035 197.943 271.96 199.153 273.368C199.44 273.701 199.484 273.947 199.433 274.383C199.355 275.054 198.866 275.556 198.397 275.986C194.14 274.979 189.998 273.041 185.759 271.842C180.323 270.304 174.861 268.792 169.31 267.721C164.116 266.72 158.819 266.124 153.573 265.457C149.419 264.928 145.248 264.617 141.061 264.523C138.927 264.479 136.691 264.698 134.573 264.488C133.963 264.426 133.635 264.294 133.133 263.946C132.789 263.391 132.639 263.138 132.682 262.448C132.727 261.719 133.207 261.343 133.721 260.894V260.894Z" fill="#E5E5E6"/>
<path d="M134.112 214.92C138.566 214.735 143.064 215.119 147.507 215.419C162.504 216.436 177.283 218.669 191.571 223.511C193.756 224.252 196.848 225.058 198.715 226.405C199.343 226.858 199.456 227.235 199.555 227.981C199.319 228.716 199.007 229.14 198.484 229.703C196.772 229.051 195.05 228.428 193.318 227.832C191.586 227.237 189.844 226.67 188.093 226.131C186.342 225.593 184.584 225.083 182.817 224.601C181.049 224.12 179.275 223.668 177.493 223.244C175.711 222.821 173.923 222.427 172.128 222.062C170.333 221.696 168.533 221.36 166.727 221.054C164.922 220.748 163.111 220.471 161.297 220.224C159.483 219.976 157.665 219.759 155.843 219.57C150.976 219.101 146.051 218.86 141.165 218.685C138.994 218.606 136.603 218.797 134.466 218.492C133.89 218.409 133.557 218.223 133.119 217.849C132.853 217.219 132.752 216.944 132.927 216.244C133.092 215.588 133.576 215.267 134.111 214.919L134.112 214.92Z" fill="#E5E5E6"/>
<path d="M133.441 245.595C137.191 245.252 141.182 245.56 144.932 245.782C160.75 246.721 176.99 249.416 192.023 254.55C194.037 255.237 196.924 255.912 198.646 257.159C199.28 257.618 199.416 258.018 199.556 258.74C199.375 259.511 199.11 259.827 198.557 260.382C196.654 260.095 194.685 259.212 192.845 258.594C189.953 257.624 187.044 256.708 184.117 255.848C179.413 254.538 174.666 253.414 169.874 252.475C165.083 251.537 160.262 250.788 155.412 250.229C150.798 249.693 146.17 249.342 141.528 249.178C139.449 249.092 137.336 249.194 135.267 249.012C134.665 248.959 133.888 248.918 133.376 248.575C132.906 248.26 132.621 247.903 132.596 247.32C132.568 246.665 133.071 246.082 133.442 245.595H133.441Z" fill="#E5E5E6"/>
<path d="M133.437 230.366C151.594 229.695 170.485 232.508 187.837 237.794C191.002 238.758 194.466 239.641 197.42 241.151C198.422 241.664 199.287 242.155 199.649 243.273C199.529 244.069 199.406 244.206 198.89 244.836C198.553 244.862 198.283 244.89 197.949 244.816C196.085 244.402 194.166 243.51 192.335 242.909C187.762 241.407 183.19 239.908 178.508 238.781C173.727 237.664 168.909 236.738 164.055 236.003C159.201 235.269 154.326 234.727 149.429 234.38C146.901 234.19 134.863 234.267 133.46 233.545C133.028 233.323 132.789 233.062 132.686 232.58C132.52 231.804 133.065 230.999 133.437 230.365V230.366Z" fill="#E5E5E6"/>
<path d="M150.466 184.289C151.05 184.817 151.633 185.512 152.429 185.657L152.687 185.559C153.669 185.37 154.665 185.388 155.661 185.409C163.003 185.558 195.215 191.435 198.982 195.851C199.451 196.402 199.546 196.974 199.533 197.672C199.344 198.009 199.326 198.194 198.961 198.365C198.294 198.68 197.479 198.474 196.801 198.294C194.549 197.697 192.402 196.555 190.167 195.844C184.345 193.997 178.429 192.537 172.417 191.466C165.525 190.229 158.621 189.113 151.627 188.637C149.401 188.486 134.357 188.128 134.315 188.109C133.833 187.896 133.597 187.601 133.399 187.119C133.196 186.622 133.091 185.896 133.337 185.399C134.742 182.563 147.361 185.776 150.194 184.431C150.286 184.387 150.375 184.337 150.465 184.29L150.466 184.289Z" fill="#E5E5E6"/>
<path d="M134.622 199.689C148.788 199.245 168.79 201.679 182.491 205.411C185.333 206.186 198.675 209.743 199.816 211.743C199.893 212.33 199.883 212.729 199.521 213.226C199.14 213.75 198.725 213.851 198.115 213.953C194.195 212.906 190.351 211.386 186.444 210.253C178.373 207.914 169.792 206.121 161.467 205.099C156.617 204.469 151.748 204.037 146.863 203.804C143.342 203.66 138.147 203.895 134.831 203.225C133.96 203.049 133.133 202.8 132.624 202.032C132.575 201.464 132.572 200.996 132.92 200.512C133.326 199.949 133.984 199.826 134.62 199.688L134.622 199.689Z" fill="#E5E5E6"/>
<path d="M330.68 135.451C331.997 135.223 333.497 135.289 334.84 135.225L334.902 300.061C310.961 295.146 280.796 299.412 257.612 306.782C247.669 309.944 237.98 314.018 228.512 318.386C226.916 319.076 225.331 319.791 223.758 320.532L223.775 162.796C232.153 158.118 241.614 154.512 250.658 151.393C253.878 150.265 257.116 149.195 260.374 148.181C263.631 147.167 266.905 146.209 270.195 145.31C273.486 144.411 276.792 143.569 280.112 142.786C283.432 142.003 286.765 141.279 290.11 140.611C293.456 139.945 296.812 139.338 300.179 138.789C303.546 138.24 306.921 137.75 310.304 137.32C313.688 136.89 317.079 136.519 320.475 136.208C323.872 135.896 327.273 135.645 330.679 135.453L330.68 135.451Z" fill="#FEFEFE"/>
<path d="M309.702 261.175C310.971 261.056 312.199 260.916 313.208 261.833C313.722 262.301 313.825 262.712 313.832 263.384C313.663 263.663 313.522 263.909 313.24 264.087C311.631 265.103 307.386 264.723 305.447 264.783C298.609 264.998 291.912 265.709 285.144 266.676C273.347 268.359 261.334 270.702 250.171 274.959C249.53 275.176 248.871 275.425 248.213 275.575C247.659 275.702 247.098 275.7 246.616 275.354C246.122 274.999 246.034 274.6 245.929 274.04C246.047 273.736 246.153 273.459 246.383 273.219C248.034 271.491 252.177 270.671 254.473 269.963C273.431 264.111 289.979 261.999 309.701 261.175H309.702Z" fill="#E5E5E6"/>
<path d="M309.294 245.723C310.272 245.653 311.385 245.497 312.35 245.683C313.053 245.819 313.686 246.202 314.029 246.852C314.291 247.35 314.257 247.606 314.103 248.125C313.914 248.309 313.74 248.482 313.508 248.613C312.9 248.956 312.089 249.061 311.402 249.132C309.428 249.335 307.402 249.225 305.419 249.309C300.914 249.464 296.424 249.812 291.95 250.352C277.537 252.097 263.265 254.859 249.663 260.048C248.852 260.359 247.91 260.744 247.049 260.432C246.368 260.186 246.074 259.911 245.78 259.274C245.858 258.775 246.058 258.483 246.401 258.127C248.105 256.361 251.73 255.546 254.01 254.786C271.713 248.882 290.697 246.269 309.295 245.722L309.294 245.723Z" fill="#E5E5E6"/>
<path d="M310.514 168.038C311.178 167.982 312.203 167.961 312.842 168.179C313.383 168.363 313.887 168.925 314.109 169.439C314.33 169.949 314.243 170.035 314.064 170.535C313.394 171.126 312.696 171.356 311.825 171.533C309.682 171.967 307.245 171.842 305.059 171.94C301.452 172.103 297.966 172.348 294.384 172.775C278.881 174.623 264.709 177.644 249.781 182.306C248.776 182.617 247.621 183.107 246.608 182.57C246.058 182.279 245.927 182.018 245.744 181.447C245.827 181.127 245.911 180.937 246.125 180.675C247.538 178.953 251.916 178.029 254.053 177.375C272.431 171.755 291.351 169.033 310.513 168.037L310.514 168.038Z" fill="#E5E5E6"/>
<path d="M303.992 214.989L304.265 214.966C306.265 214.82 312.337 214.078 313.829 215.509C314.193 215.859 314.139 216.045 314.168 216.522C313.867 217.315 313.33 217.691 312.694 218.2C292.681 218.748 273.518 221.39 254.397 227.514C252.784 228.006 248.362 229.993 246.998 229.488C246.372 229.256 246.148 228.81 245.928 228.231C245.997 227.752 246.135 227.466 246.467 227.122C248.241 225.283 252.282 224.463 254.679 223.725C256.677 223.106 258.685 222.52 260.703 221.964C262.72 221.408 264.745 220.883 266.779 220.391C268.812 219.898 270.853 219.437 272.901 219.008C274.949 218.579 277.003 218.182 279.063 217.817C281.123 217.452 283.188 217.119 285.258 216.819C287.329 216.518 289.403 216.25 291.482 216.014C293.561 215.778 295.643 215.574 297.728 215.404C299.813 215.233 301.9 215.094 303.99 214.989H303.992Z" fill="#E5E5E6"/>
<path d="M304.988 199.503C307.336 199.322 310.439 198.927 312.73 199.515C313.503 199.713 313.799 199.972 314.208 200.625C314.204 200.98 314.204 201.27 314.047 201.597C313.752 202.214 313.362 202.527 312.714 202.715C311.456 203.081 303.665 203.112 301.507 203.228C291.832 203.752 282.597 205.296 273.128 207.243C266.493 208.606 259.861 210.065 253.484 212.385C251.781 212.848 248.994 214.45 247.335 214.247C246.729 214.173 246.56 213.999 246.212 213.527C246.15 212.687 246.323 212.154 246.902 211.525C248.491 209.796 252.443 209.099 254.684 208.41C256.721 207.77 258.768 207.164 260.824 206.591C262.88 206.017 264.945 205.477 267.019 204.971C269.093 204.464 271.174 203.991 273.263 203.551C275.352 203.112 277.448 202.706 279.55 202.334C281.652 201.961 283.759 201.623 285.872 201.319C287.985 201.015 290.102 200.744 292.223 200.508C294.345 200.272 296.469 200.07 298.598 199.903C300.726 199.735 302.856 199.602 304.988 199.503Z" fill="#E5E5E6"/>
<path d="M303.459 230.437C305.592 230.148 310.689 229.883 312.593 230.508C313.316 230.746 313.595 231.06 313.942 231.705C313.941 232.047 313.955 232.38 313.815 232.699C313.092 234.343 310.54 233.882 309.106 233.903C291.012 234.165 271.277 236.79 254.27 243.152C252.303 243.826 248.691 245.69 246.63 245.173C246.122 245.046 245.933 244.918 245.696 244.462C245.726 243.928 245.972 243.477 246.319 243.071C248.182 240.89 252.117 240.131 254.737 239.284C270.608 234.154 286.822 231.379 303.46 230.438L303.459 230.437Z" fill="#E5E5E6"/>
<path d="M305.273 183.985C307.105 183.746 309.493 183.606 311.321 183.85C312.387 183.992 313.787 184.361 314.423 185.314C314.692 185.718 314.558 185.785 314.454 186.229C313.811 186.821 313.142 187.087 312.285 187.259C310.249 187.667 307.916 187.461 305.833 187.568C302.036 187.789 298.245 188.09 294.459 188.47C280.415 189.831 266.978 192.581 253.486 196.69C251.945 197.097 248.198 199.113 246.829 198.43C246.279 198.156 246.126 197.74 245.946 197.188C246.023 196.728 246.009 196.491 246.307 196.134C247.412 194.814 249.914 194.385 251.515 193.804C268.54 187.628 287.27 185.123 305.271 183.985H305.273Z" fill="#E5E5E6"/>
</svg>
