<svg width="29" height="29" viewBox="0 0 29 29" fill="none" xmlns="http://www.w3.org/2000/svg">
<g clip-path="url(#clip0_3371_1075)">
<path d="M14.9113 0.0744629C9.95969 0.0744629 5.82983 4.06314 5.82983 9.15591C5.82983 11.0934 6.41204 12.8211 7.52939 14.44L14.2163 24.8743C14.5407 25.3815 15.2825 25.3805 15.6063 24.8743L22.3222 14.4045C23.4155 12.8589 23.9927 11.0441 23.9927 9.15591C23.9927 4.1484 19.9188 0.0744629 14.9113 0.0744629ZM14.9113 13.2838C12.6352 13.2838 10.7833 11.4319 10.7833 9.15591C10.7833 6.87988 12.6352 5.02798 14.9113 5.02798C17.1873 5.02798 19.0392 6.87988 19.0392 9.15591C19.0392 11.4319 17.1873 13.2838 14.9113 13.2838Z" fill="#316FF6"/>
<path d="M21.3655 19.0461L17.2083 25.5455C16.1323 27.2232 13.6845 27.2177 12.6136 25.5471L8.44968 19.0478C4.78606 19.8949 2.52759 21.4466 2.52759 23.3009C2.52759 26.5186 8.90816 28.2545 14.9114 28.2545C20.9146 28.2545 27.2952 26.5186 27.2952 23.3009C27.2952 21.4453 25.0336 19.8928 21.3655 19.0461Z" fill="#316FF6"/>
</g>
<defs>
<clipPath id="clip0_3371_1075">
<rect width="28.18" height="28.18" fill="white" transform="translate(0.821289 0.0744629)"/>
</clipPath>
</defs>
</svg>
