<svg width="29" height="29" viewBox="0 0 29 29" fill="none" xmlns="http://www.w3.org/2000/svg">
<g clip-path="url(#clip0_3371_1058)">
<path d="M13.6843 4.24162V0.53125C9.32815 0.918725 5.55908 3.32577 3.31055 6.81891L6.65692 8.44513C8.26553 6.17312 10.7841 4.59387 13.6843 4.24162Z" fill="#316FF6"/>
<path d="M25.0267 14.2983C25.0267 16.6525 24.2165 18.8189 22.8721 20.539L25.4905 23.1633C27.4983 20.7621 28.7018 17.674 28.7018 14.2983C28.7018 11.04 27.5746 8.04588 25.6901 5.67993L23.0599 8.31594C24.2928 9.99499 25.0267 12.0615 25.0267 14.2983Z" fill="#316FF6"/>
<path d="M21.3926 6.5195L23.9992 3.90698C21.8623 2.02831 19.1382 0.801308 16.1323 0.53125V4.24162C18.1225 4.48232 19.9308 5.29837 21.3926 6.5195Z" fill="#316FF6"/>
<path d="M14.9112 24.4374C9.32217 24.4374 4.79576 19.8992 4.79576 14.2984C4.79576 12.9951 5.0482 11.7564 5.49439 10.6116L2.1715 8.99121C1.49048 10.6292 1.11475 12.4198 1.11475 14.2984C1.11475 21.9364 7.29086 28.1243 14.9112 28.1243C18.2811 28.1243 21.3633 26.9149 23.7586 24.9012L21.1402 22.2769C19.42 23.6272 17.2654 24.4374 14.9112 24.4374Z" fill="#316FF6"/>
<path d="M14.9112 13.8932C16.5194 13.8932 17.8231 12.5869 17.8231 10.9754C17.8231 9.36396 16.5194 8.05762 14.9112 8.05762C13.303 8.05762 11.9993 9.36396 11.9993 10.9754C11.9993 12.5869 13.303 13.8932 14.9112 13.8932Z" fill="#316FF6"/>
<path d="M20.5532 17.6859C19.6432 15.4608 17.4592 13.8933 14.9113 13.8933C12.3634 13.8933 10.1794 15.4608 9.26944 17.6859C8.95241 18.4549 9.53949 19.3062 10.3732 19.3062H19.4553C20.2831 19.3062 20.8702 18.4608 20.5532 17.6859Z" fill="#316FF6"/>
</g>
<defs>
<clipPath id="clip0_3371_1058">
<rect width="28.18" height="28.18" fill="white" transform="translate(0.821289 0.237793)"/>
</clipPath>
</defs>
</svg>
