<svg width="29" height="29" viewBox="0 0 29 29" fill="none" xmlns="http://www.w3.org/2000/svg">
<g clip-path="url(#clip0_3371_1046)">
<path fill-rule="evenodd" clip-rule="evenodd" d="M5.31322 13.4125C5.4047 14.588 5.70945 15.75 6.2272 16.8358L4.43557 17.8702C3.74064 16.4632 3.34392 14.9459 3.24557 13.4125H5.31322V13.4125ZM15.5516 5.23115C17.0676 5.23115 18.2967 6.46017 18.2967 7.97623C18.2967 9.49228 17.0676 10.7213 15.5516 10.7213C14.0355 10.7213 12.8065 9.49228 12.8065 7.97623C12.8065 6.46017 14.0355 5.23115 15.5516 5.23115ZM10.7363 16.1167H20.3668C20.6856 16.1167 20.9198 15.8246 20.8504 15.5135C20.3088 13.0862 18.1421 11.2717 15.5516 11.2717C12.961 11.2717 10.7944 13.0862 10.2528 15.5135C10.1834 15.8246 10.4175 16.1167 10.7363 16.1167ZM14.7508 21.0642C15.2204 21.1215 15.6062 20.9802 15.7369 20.4924C15.8544 20.0537 15.5772 19.6423 15.164 19.4976C13.8305 19.2531 12.5385 18.786 11.5224 18.4186C10.0644 17.8915 9.68376 17.7676 8.24559 18.6003L5.65876 20.098L7.80693 23.8937L7.97673 23.7957C8.0813 23.7356 8.2003 23.7234 8.30834 23.7522L14.141 25.3137C14.9877 25.5406 15.5012 25.4496 16.2158 25.0096L24.2257 20.0773C24.4753 19.9237 24.5979 19.567 24.5618 19.2182C24.5321 18.9328 24.3936 18.6747 24.131 18.5417C23.7143 18.3307 22.9907 18.3937 21.8714 19.0456L17.4405 21.6264C17.0845 21.8336 16.7183 21.9654 16.338 22.0292C15.2394 22.2137 13.5848 21.6959 12.6009 21.4149C12.2847 21.3246 11.9638 21.2329 11.6503 21.1489C11.4156 21.0863 11.2763 20.8452 11.339 20.6106C11.4016 20.376 11.6427 20.2366 11.8773 20.2993C12.8335 20.5555 13.7816 20.8635 14.7508 21.0642ZM4.32444 19.5282L7.82619 25.7156C7.99549 26.0148 7.88927 26.3981 7.59008 26.5674L6.39898 27.2415C6.09978 27.4108 5.71649 27.3046 5.54719 27.0054L2.04544 20.818C1.87614 20.5188 1.98237 20.1355 2.28156 19.9662L3.47266 19.2921C3.7718 19.1228 4.15514 19.229 4.32444 19.5282ZM3.52148 20.4557C3.2891 20.4896 3.12823 20.7055 3.16224 20.938C3.1962 21.1704 3.41217 21.3312 3.64455 21.2973C3.87692 21.2633 4.0378 21.0473 4.00379 20.815C3.96977 20.5825 3.75385 20.4217 3.52148 20.4557ZM3.24557 11.8926C3.34778 10.3015 3.76613 8.79526 4.43876 7.43679L6.24112 8.47736C5.7455 9.52453 5.42677 10.6762 5.32131 11.8926H3.24557ZM5.19962 6.12108C6.06115 4.8314 7.17051 3.72077 8.46035 2.85825L9.4903 4.64212C8.51154 5.31844 7.66653 6.17215 6.99582 7.15807L5.19962 6.12108ZM9.77595 2.09706C11.1332 1.42454 12.639 1.00542 14.2327 0.903595V2.97059C13.0064 3.06382 11.852 3.3809 10.8055 3.88027L9.77595 2.09706ZM15.7525 0.90332V2.97092C20.7617 3.35735 24.706 7.54428 24.706 12.6526C24.706 13.0615 24.6806 13.4645 24.6314 13.8601H23.9527C23.7541 13.8601 23.6433 14.0884 23.7662 14.2444L25.5996 16.5732C25.6947 16.6938 25.8777 16.6939 25.9727 16.5732L27.8061 14.2444C27.929 14.0884 27.8182 13.8602 27.6196 13.8601H26.7081C26.7486 13.4631 26.7694 13.0603 26.7694 12.6526C26.7693 6.40442 21.9022 1.29388 15.7525 0.90332Z" fill="#316FF6"/>
</g>
<defs>
<clipPath id="clip0_3371_1046">
<rect width="28.18" height="28.18" fill="white" transform="translate(0.821289 0.0227051)"/>
</clipPath>
</defs>
</svg>
