<svg width="29" height="29" viewBox="0 0 29 29" fill="none" xmlns="http://www.w3.org/2000/svg">
<path fill-rule="evenodd" clip-rule="evenodd" d="M8.74707 2.34522V6.45481C8.74707 6.94091 9.14159 7.33543 9.6277 7.33543C10.1138 7.33543 10.5083 6.94091 10.5083 6.45481V2.34522C10.5083 1.85912 10.1138 1.4646 9.6277 1.4646C9.14159 1.4646 8.74707 1.85912 8.74707 2.34522Z" fill="#316FF6"/>
<path fill-rule="evenodd" clip-rule="evenodd" d="M19.3145 2.34522V6.45481C19.3145 6.94091 19.709 7.33543 20.1951 7.33543C20.6812 7.33543 21.0757 6.94091 21.0757 6.45481V2.34522C21.0757 1.85912 20.6812 1.4646 20.1951 1.4646C19.709 1.4646 19.3145 1.85912 19.3145 2.34522Z" fill="#316FF6"/>
<path fill-rule="evenodd" clip-rule="evenodd" d="M27.5336 16.5631V12.3255H2.28906V22.0124C2.28906 24.4441 4.26049 26.4155 6.69219 26.4155H16.9673C15.1849 25.0758 14.0307 22.9435 14.0307 20.5447C14.0307 16.495 17.3196 13.2062 21.3693 13.2062C23.9524 13.2062 26.2256 14.5435 27.5336 16.5631ZM11.6824 3.51929V6.4547C11.6824 7.58895 10.7619 8.5095 9.6276 8.5095C9.4233 8.5095 9.22604 8.48014 9.04052 8.42378V3.51929H6.69219C4.26049 3.51929 2.28906 5.49071 2.28906 7.92241V10.5643H27.5336V7.92241C27.5336 5.49071 25.5622 3.51929 23.1305 3.51929H22.2499V6.4547C22.2499 7.58895 21.3294 8.5095 20.1951 8.5095C19.9908 8.5095 19.7935 8.48014 19.608 8.42378V3.51929H11.6824Z" fill="#316FF6"/>
<path fill-rule="evenodd" clip-rule="evenodd" d="M21.3692 14.3804C17.9665 14.3804 15.2048 17.142 15.2048 20.5447C15.2048 23.9475 17.9665 26.7091 21.3692 26.7091C24.7719 26.7091 27.5336 23.9475 27.5336 20.5447C27.5336 17.142 24.7719 14.3804 21.3692 14.3804ZM18.3986 20.8735L20.1598 22.6348C20.5038 22.9788 21.0604 22.9788 21.4044 22.6348L24.3399 19.6993C24.6839 19.3565 24.6839 18.7976 24.3399 18.4547C23.997 18.1107 23.4381 18.1107 23.0952 18.4547L20.7821 20.7667L19.6432 19.6289C19.3003 19.2849 18.7414 19.2849 18.3986 19.6289C18.0545 19.9718 18.0545 20.5307 18.3986 20.8735Z" fill="#316FF6"/>
</svg>
