<svg width="29" height="30" viewBox="0 0 29 30" fill="none" xmlns="http://www.w3.org/2000/svg">
<path d="M27.13 9.33682C27.13 11.1361 26.7452 12.8698 25.9862 14.4898C25.9303 14.6096 25.8112 14.6799 25.6869 14.6799C25.6401 14.6799 25.5928 14.67 25.5472 14.6487C25.3821 14.5713 25.3111 14.3748 25.3885 14.2095C26.1057 12.678 26.4695 11.0385 26.4695 9.33678C26.4695 7.6351 26.1057 5.99551 25.3885 4.4641C25.3111 4.29877 25.3821 4.10225 25.5472 4.02485C25.7136 3.947 25.9092 4.01881 25.9862 4.18371C26.7451 5.80371 27.13 7.53753 27.13 9.33682ZM23.1547 13.5282C23.2003 13.5494 23.2476 13.5593 23.2945 13.5593C23.4188 13.5593 23.5379 13.489 23.5942 13.3691C24.1872 12.1023 24.4882 10.7455 24.4882 9.33682C24.4882 7.92817 24.1872 6.57131 23.5942 5.30457C23.5164 5.13923 23.3207 5.0672 23.1548 5.14549C22.9897 5.22289 22.9187 5.41941 22.9957 5.58452C23.5478 6.76315 23.8277 8.02557 23.8277 9.33686C23.8277 10.6482 23.5478 11.9106 22.9957 13.0892C22.9187 13.2543 22.9896 13.4507 23.1547 13.5282ZM4.27546 4.02489C4.10907 3.94748 3.91339 4.01886 3.83643 4.18376C3.0775 5.80375 2.69263 7.53748 2.69263 9.33678C2.69263 11.1361 3.07746 12.8698 3.83643 14.4898C3.89235 14.6096 4.01145 14.6798 4.13571 14.6798C4.18256 14.6798 4.22989 14.6699 4.27546 14.6487C4.44058 14.5713 4.51151 14.3747 4.43415 14.2094C3.71693 12.678 3.35314 11.0384 3.35314 9.33673C3.35314 7.63506 3.71693 5.99547 4.43415 4.46406C4.51156 4.29872 4.44058 4.1023 4.27546 4.02489ZM6.52819 13.5593C6.57504 13.5593 6.62237 13.5494 6.66794 13.5282C6.83306 13.4507 6.904 13.2542 6.82703 13.0891C6.27492 11.9105 5.99501 10.6481 5.99501 9.33678C5.99501 8.02548 6.27492 6.76306 6.82703 5.58443C6.904 5.41932 6.83306 5.22281 6.66794 5.1454C6.50155 5.06755 6.30588 5.13915 6.22851 5.30448C5.63554 6.57126 5.33455 7.92809 5.33455 9.33673C5.33455 10.7454 5.63554 12.1022 6.22851 13.369C6.28483 13.489 6.40389 13.5593 6.52819 13.5593ZM21.5733 13.2071C21.0933 14.3255 20.4725 15.4439 19.812 16.483L22.8282 27.7198H24.4661C24.7083 27.7198 24.9285 27.6097 25.0738 27.416C25.2235 27.2267 25.2719 26.9845 25.2103 26.7511L21.5733 13.2071ZM8.24942 13.2071L4.61243 26.7511C4.55079 26.9845 4.59922 27.2267 4.74893 27.416C4.89423 27.6097 5.11439 27.7198 5.35656 27.7198H6.99452L10.0107 16.483C9.3502 15.4439 8.72936 14.3255 8.24942 13.2071ZM16.3247 21.1283C15.9681 21.5378 15.4529 21.7756 14.9113 21.7756C14.3698 21.7756 13.8546 21.5378 13.4979 21.1283C12.7494 20.2653 11.6002 18.8607 10.4994 17.2228L7.68141 27.7198H14.5811V23.8671C14.5811 23.6866 14.7308 23.5369 14.9113 23.5369C15.0919 23.5369 15.2416 23.6866 15.2416 23.8671V27.7198H22.1413L19.3233 17.2228C18.2225 18.8607 17.0733 20.2653 16.3247 21.1283ZM17.223 9.33678C17.223 8.06207 16.1858 7.02514 14.9113 7.02514C13.6369 7.02514 12.5997 8.06207 12.5997 9.33678C12.5997 10.6115 13.6369 11.6484 14.9113 11.6484C16.1858 11.6484 17.223 10.6115 17.223 9.33678ZM13.9976 20.6965C12.1873 18.6033 7.97642 13.3062 7.97642 9.33678C7.97642 5.51284 11.0874 2.40186 14.9113 2.40186C18.7353 2.40186 21.8463 5.51284 21.8463 9.33678C21.8463 13.3062 17.6353 18.6033 15.8251 20.6965C15.595 20.962 15.2622 21.1143 14.9113 21.1143C14.5605 21.1143 14.2277 20.962 13.9976 20.6965ZM14.9113 12.3089C16.5501 12.3089 17.8835 10.9757 17.8835 9.33678C17.8835 7.69785 16.5501 6.36467 14.9113 6.36467C13.2726 6.36467 11.9392 7.69785 11.9392 9.33678C11.9392 10.9757 13.2726 12.3089 14.9113 12.3089Z" fill="#316FF6"/>
</svg>
