<svg width="18" height="18" viewBox="0 0 18 18" fill="none" xmlns="http://www.w3.org/2000/svg">
<path fill-rule="evenodd" clip-rule="evenodd" d="M4.5 1.5C4.91421 1.5 5.25 1.83579 5.25 2.25V8.25C5.25 8.66423 4.91421 9 4.5 9C4.08579 9 3.75 8.66423 3.75 8.25V2.25C3.75 1.83579 4.08579 1.5 4.5 1.5Z" fill="black"/>
<path fill-rule="evenodd" clip-rule="evenodd" d="M13.5 9C13.9142 9 14.25 9.33578 14.25 9.75V15.75C14.25 16.1642 13.9142 16.5 13.5 16.5C13.0858 16.5 12.75 16.1642 12.75 15.75V9.75C12.75 9.33578 13.0858 9 13.5 9Z" fill="black"/>
<path fill-rule="evenodd" clip-rule="evenodd" d="M4.5 12C3.67157 12 3 12.6716 3 13.5C3 14.3284 3.67157 15 4.5 15C5.32843 15 6 14.3284 6 13.5C6 12.6716 5.32843 12 4.5 12ZM1.5 13.5C1.5 11.8432 2.84314 10.5 4.5 10.5C6.15686 10.5 7.5 11.8432 7.5 13.5C7.5 15.1568 6.15686 16.5 4.5 16.5C2.84314 16.5 1.5 15.1568 1.5 13.5Z" fill="black"/>
<path fill-rule="evenodd" clip-rule="evenodd" d="M13.5 3C12.6716 3 12 3.67157 12 4.5C12 5.32843 12.6716 6 13.5 6C14.3284 6 15 5.32843 15 4.5C15 3.67157 14.3284 3 13.5 3ZM10.5 4.5C10.5 2.84314 11.8432 1.5 13.5 1.5C15.1568 1.5 16.5 2.84314 16.5 4.5C16.5 6.15686 15.1568 7.5 13.5 7.5C11.8432 7.5 10.5 6.15686 10.5 4.5Z" fill="black"/>
</svg>
