<svg width="129" height="129" viewBox="0 0 129 129" fill="none" xmlns="http://www.w3.org/2000/svg">
<g clip-path="url(#clip0_623_2923)">
<path d="M5.51857 128.723L76.3426 99.5971C78.2826 98.7908 78.9629 96.4225 77.7787 94.4572C74.4781 88.8891 67.5494 78.0803 58.7563 69.2871C50.2403 60.7711 39.9102 54.2707 34.5184 51.1465C32.5531 50.0127 30.21 50.693 29.4289 52.6078L0.277947 123.507C-0.981818 126.581 2.41955 130.008 5.51857 128.723Z" fill="#ED3F03"/>
<path d="M34.9715 116.629L18.4182 123.432L5.59375 110.582L12.3965 94.0541L34.9715 116.629Z" fill="#FCB424"/>
<path d="M64.9295 104.283L48.4014 111.086L17.915 80.625L24.7178 64.0717L64.9295 104.283Z" fill="#FCB424"/>
<path d="M61.5022 66.9691C61.1999 66.6668 61.1747 66.1629 61.4518 65.8102L88.9651 32.502L95.9694 39.5063L62.6612 67.0195C62.3337 67.2967 61.8298 67.2715 61.5022 66.9691Z" fill="#07B7EE"/>
<path d="M66.7925 71.5294C70.8741 67.9769 89.6446 52.5826 107.735 55.0013L107.911 66.0872C107.911 66.0872 93.2224 59.2341 67.9515 73.1923C67.5483 73.4191 67.0696 73.3435 66.7421 73.0159C66.339 72.638 66.339 71.9829 66.7169 71.5798C66.7421 71.5546 66.7673 71.5294 66.7925 71.5294Z" fill="#ED3F03"/>
<path d="M56.9426 61.7034C60.4952 57.6218 75.8895 38.8513 73.4708 20.761L62.3848 20.5847C62.3848 20.5847 69.2632 35.2735 55.2798 60.5444C55.053 60.9475 55.1286 61.4263 55.4561 61.7538C55.8592 62.1569 56.4891 62.1569 56.8923 61.7538C56.9175 61.7286 56.9426 61.7034 56.9426 61.7034Z" fill="#FCB424"/>
<path d="M107.055 21.5924C104.485 25.7496 104.51 29.8564 107.055 34.0136C107.08 34.064 107.08 34.1396 107.03 34.1648C107.004 34.19 106.954 34.19 106.929 34.1648C102.746 31.5445 98.6396 31.5949 94.4572 34.1648C94.4068 34.19 94.3312 34.19 94.306 34.1396C94.2808 34.1144 94.2808 34.064 94.306 34.0388C96.9263 29.8564 96.9011 25.7748 94.3312 21.5672C94.306 21.5168 94.306 21.4412 94.3564 21.416C94.3816 21.3908 94.432 21.3908 94.4824 21.416C98.6396 24.0111 102.721 24.0111 106.904 21.4412C106.954 21.3908 107.004 21.3908 107.055 21.4412C107.105 21.4664 107.105 21.542 107.055 21.5924Z" fill="#07B7EE"/>
<path d="M128.899 63.6181C124.036 64.0968 120.811 66.6164 119.048 71.2019C119.022 71.2523 118.972 71.2775 118.896 71.2523C118.846 71.2271 118.821 71.2019 118.821 71.1515C118.342 66.2384 115.823 63.0134 111.237 61.2749C111.187 61.2498 111.161 61.1994 111.187 61.1238C111.212 61.0734 111.237 61.0482 111.287 61.0482C116.201 60.5947 119.426 58.0751 121.189 53.4896C121.214 53.4392 121.265 53.414 121.34 53.4392C121.391 53.4644 121.416 53.4896 121.416 53.54C121.895 58.4279 124.389 61.6529 128.949 63.4165C129 63.4417 129.025 63.5173 129 63.5677C128.949 63.5929 128.924 63.6181 128.899 63.6181Z" fill="#ED3F03"/>
<path d="M65.3814 0.100778C64.8775 4.96347 62.3831 8.21367 57.7976 9.95214C57.7472 9.97734 57.722 10.0277 57.7472 10.1033C57.7724 10.1537 57.7976 10.1789 57.848 10.1789C62.7611 10.6324 65.9861 13.1771 67.7245 17.7627C67.7497 17.8131 67.8001 17.8383 67.8757 17.8131C67.9261 17.7879 67.9513 17.7627 67.9513 17.7123C68.4048 12.7992 70.9243 9.57421 75.5099 7.81054C75.5603 7.78535 75.5855 7.73496 75.5603 7.65937C75.5351 7.60898 75.5099 7.58379 75.4595 7.58379C70.5716 7.10507 67.3466 4.61074 65.5829 0.0503872C65.5577 -3.45334e-06 65.5073 -0.0251988 65.457 -3.45241e-06C65.4066 0.0251919 65.3814 0.0503872 65.3814 0.100778Z" fill="#FCB424"/>
<path d="M100.957 85.3869L100.302 87.856C100.226 88.108 100.302 88.4103 100.504 88.5867L102.318 90.3755C102.62 90.6779 102.62 91.1314 102.343 91.4337C102.242 91.5345 102.116 91.6101 101.99 91.6353L99.521 92.2904C99.2439 92.366 99.0423 92.5675 98.9919 92.8195L98.3368 95.2886C98.2361 95.6917 97.8329 95.9437 97.4298 95.8429C97.2786 95.8177 97.1527 95.7421 97.0771 95.6414L95.2882 93.8525C95.0867 93.6509 94.8095 93.5753 94.5575 93.6509L92.0884 94.306C91.6853 94.432 91.257 94.18 91.1562 93.7769C91.1058 93.6509 91.1058 93.4997 91.1562 93.3486L91.8113 90.8794C91.8868 90.6275 91.8113 90.3251 91.6097 90.1488L89.8208 88.3599C89.5185 88.0576 89.5185 87.604 89.7956 87.3017C89.8964 87.2009 90.0224 87.1253 90.1484 87.1001L92.6175 86.4451C92.8695 86.3695 93.0962 86.1679 93.1466 85.916L93.8017 83.4468C93.9025 83.0437 94.3056 82.7917 94.7087 82.8925C94.8347 82.9177 94.9607 82.9933 95.0615 83.0941L96.8755 84.883C97.0771 85.0845 97.3542 85.1601 97.6062 85.0845L100.075 84.4294C100.478 84.3035 100.907 84.5554 101.008 84.9333C100.982 85.1097 100.982 85.2609 100.957 85.3869Z" fill="#FCB424"/>
<path d="M46.914 31.343L46.2589 33.8121C46.1833 34.0641 46.2589 34.3664 46.4605 34.5428L48.2493 36.3569C48.5517 36.6592 48.5517 37.1127 48.2745 37.4151C48.1738 37.5158 48.0478 37.5914 47.9218 37.6166L45.4527 38.2717C45.2007 38.3473 44.974 38.5488 44.9236 38.8008L44.2685 41.2699C44.1677 41.6731 43.7646 41.925 43.3615 41.8242C43.2355 41.799 43.1095 41.7235 43.0087 41.6227L41.2199 39.8338C41.0183 39.6322 40.7411 39.5567 40.4892 39.6322L38.02 40.2873C37.6169 40.4133 37.1886 40.1613 37.0878 39.7834C37.0374 39.6574 37.0374 39.5063 37.0878 39.3551L37.7429 36.886C37.8185 36.634 37.7429 36.3317 37.5413 36.1553L35.7525 34.3664C35.4501 34.0893 35.4501 33.6106 35.7273 33.3082C35.8281 33.2074 35.954 33.1319 36.08 33.1067L38.5492 32.4516C38.8011 32.376 39.0279 32.1744 39.0783 31.8973L39.7333 29.4281C39.8341 29.025 40.2372 28.7731 40.6404 28.8738C40.7663 28.899 40.8923 28.9746 40.9931 29.0754L42.782 30.8895C42.9835 31.091 43.2607 31.1666 43.5126 31.091L45.9818 30.436C46.3849 30.31 46.8132 30.5619 46.914 30.9651C46.9392 31.0658 46.9392 31.217 46.914 31.343Z" fill="#ED3F03"/>
</g>
<defs>
<clipPath id="clip0_623_2923">
<rect width="129" height="129" fill="white"/>
</clipPath>
</defs>
</svg>
