<svg width="45" height="45" viewBox="0 0 45 45" fill="none" xmlns="http://www.w3.org/2000/svg">
<path d="M22.5013 29.1353C24.4771 29.1353 26.0788 27.5336 26.0788 25.5578C26.0788 23.582 24.4771 21.9803 22.5013 21.9803C20.5255 21.9803 18.9238 23.582 18.9238 25.5578C18.9238 27.5336 20.5255 29.1353 22.5013 29.1353Z" fill="#316FF6"/>
<path d="M39.9449 12.5297H5.05586C4.65328 12.5304 4.26738 12.6906 3.98271 12.9753C3.69804 13.2599 3.5378 13.6458 3.53711 14.0484V37.0617C3.53635 37.4654 3.69589 37.8528 3.98067 38.1389C4.26546 38.425 4.65218 38.5864 5.05586 38.5875H39.9449C40.3486 38.5864 40.7353 38.425 41.0201 38.1389C41.3049 37.8528 41.4644 37.4654 41.4637 37.0617V14.0484C41.463 13.6458 41.3028 13.2599 41.0181 12.9753C40.7334 12.6906 40.3475 12.5304 39.9449 12.5297ZM30.8209 26.4944C30.821 26.5686 30.7961 26.6407 30.7505 26.6992C30.7048 26.7577 30.6409 26.7993 30.5689 26.8173L28.8835 27.239C28.7261 27.8378 28.4849 28.4112 28.1669 28.9423L29.0519 30.4176C29.0901 30.4812 29.1059 30.5558 29.0969 30.6295C29.0878 30.7031 29.0544 30.7717 29.0019 30.8241L27.722 32.104C27.6695 32.1565 27.601 32.19 27.5273 32.199C27.4536 32.2081 27.379 32.1923 27.3154 32.1541L25.8248 31.2598C25.2905 31.5721 24.7147 31.8073 24.1145 31.9583L23.697 33.6267C23.679 33.6987 23.6375 33.7626 23.579 33.8083C23.5205 33.854 23.4484 33.8788 23.3742 33.8788H21.5641C21.4898 33.8788 21.4177 33.854 21.3592 33.8083C21.3007 33.7627 21.2592 33.6987 21.2412 33.6267L20.8191 31.941C20.2206 31.7837 19.6473 31.5425 19.1164 31.2246L17.6412 32.1097C17.5775 32.1479 17.5029 32.1637 17.4293 32.1546C17.3556 32.1455 17.2871 32.1121 17.2346 32.0596L15.9547 30.7797C15.9022 30.7272 15.8688 30.6587 15.8597 30.585C15.8506 30.5114 15.8665 30.4368 15.9046 30.3731L16.7986 28.8824C16.4863 28.3482 16.2511 27.7725 16.1002 27.1723L14.4318 26.7549C14.3597 26.7369 14.2958 26.6953 14.2501 26.6368C14.2045 26.5783 14.1797 26.5062 14.1797 26.432V24.6219C14.1797 24.5477 14.2045 24.4756 14.2501 24.4171C14.2958 24.3586 14.3597 24.317 14.4318 24.299L16.1174 23.877C16.2747 23.2785 16.516 22.7052 16.8339 22.1742L15.9488 20.699C15.9106 20.6354 15.8948 20.5608 15.9038 20.4871C15.9129 20.4135 15.9463 20.3449 15.9988 20.2925L17.2787 19.0125C17.3312 18.9601 17.3997 18.9266 17.4734 18.9175C17.5471 18.9085 17.6216 18.9243 17.6853 18.9625L19.1759 19.8565C19.7102 19.5441 20.2859 19.309 20.8861 19.158L21.3036 17.4896C21.3216 17.4176 21.3631 17.3537 21.4216 17.308C21.4801 17.2623 21.5522 17.2375 21.6265 17.2375H23.4365C23.5108 17.2375 23.5829 17.2623 23.6414 17.308C23.6999 17.3537 23.7414 17.4176 23.7594 17.4896L24.1814 19.1752C24.7799 19.3325 25.3532 19.5737 25.8842 19.8917L27.3594 19.0066C27.4231 18.9684 27.4977 18.9526 27.5713 18.9617C27.645 18.9708 27.7135 19.0042 27.766 19.0567L29.0459 20.3366C29.0984 20.3891 29.1318 20.4576 29.1409 20.5312C29.15 20.6049 29.1342 20.6795 29.096 20.7431L28.202 22.2337C28.5143 22.768 28.7495 23.3438 28.9004 23.9439L30.5689 24.3614C30.6409 24.3794 30.7048 24.421 30.7505 24.4795C30.7961 24.538 30.821 24.6101 30.8209 24.6843V26.4944Z" fill="#316FF6"/>
<path d="M41.4637 10.6312V11.5523C41.0074 11.2704 40.4813 11.1218 39.9449 11.1234H5.05586C4.5195 11.1218 3.99341 11.2704 3.53711 11.5523V7.88904C3.53708 7.69513 3.57525 7.50311 3.64945 7.32395C3.72364 7.14479 3.8324 6.982 3.96952 6.84489C4.10664 6.70777 4.26942 6.59901 4.44858 6.52481C4.62774 6.45062 4.81976 6.41245 5.01367 6.41248H15.5184C15.7287 6.41425 15.9363 6.46024 16.1277 6.54746C16.3191 6.63467 16.49 6.76117 16.6293 6.91873L18.359 8.90154C18.4272 8.98207 18.5124 9.04652 18.6084 9.09028C18.7044 9.13405 18.8089 9.15605 18.9145 9.1547H39.9871C40.181 9.15467 40.373 9.19284 40.5522 9.26703C40.7313 9.34123 40.8941 9.44998 41.0312 9.5871C41.1684 9.72421 41.2771 9.88699 41.3513 10.0661C41.4255 10.2453 41.4637 10.4373 41.4637 10.6312Z" fill="#316FF6"/>
</svg>
