<svg width="24" height="21" viewBox="0 0 24 21" fill="none" xmlns="http://www.w3.org/2000/svg">
<path d="M11.8217 14.2351C13.0511 14.2351 14.0477 13.2385 14.0477 12.0091C14.0477 10.7797 13.0511 9.78308 11.8217 9.78308C10.5923 9.78308 9.5957 10.7797 9.5957 12.0091C9.5957 13.2385 10.5923 14.2351 11.8217 14.2351Z" fill="#316FF6"/>
<path d="M22.6752 3.90271H0.966486C0.715989 3.90314 0.475874 4.00284 0.298745 4.17997C0.121617 4.3571 0.0219164 4.59721 0.0214861 4.84771V19.1671C0.0210097 19.4183 0.120279 19.6594 0.297479 19.8374C0.474678 20.0154 0.715308 20.1158 0.966486 20.1165H22.6752C22.9264 20.1158 23.167 20.0154 23.3442 19.8374C23.5214 19.6594 23.6207 19.4183 23.6202 19.1671V4.84771C23.6198 4.59721 23.5201 4.3571 23.343 4.17997C23.1658 4.00284 22.9257 3.90314 22.6752 3.90271ZM16.9981 12.5919C16.9981 12.638 16.9827 12.6829 16.9542 12.7193C16.9258 12.7557 16.886 12.7816 16.8412 12.7928L15.7926 13.0552C15.6947 13.4277 15.5445 13.7846 15.3467 14.115L15.8974 15.033C15.9211 15.0726 15.931 15.119 15.9253 15.1648C15.9197 15.2106 15.8989 15.2533 15.8662 15.2859L15.0698 16.0823C15.0372 16.115 14.9945 16.1358 14.9487 16.1414C14.9029 16.1471 14.8565 16.1372 14.8169 16.1135L13.8894 15.557C13.5569 15.7514 13.1987 15.8977 12.8252 15.9916L12.5654 17.0298C12.5542 17.0746 12.5284 17.1143 12.492 17.1428C12.4556 17.1712 12.4107 17.1866 12.3645 17.1866H11.2383C11.1921 17.1866 11.1472 17.1712 11.1108 17.1428C11.0744 17.1143 11.0485 17.0746 11.0373 17.0298L10.7747 15.9809C10.4023 15.883 10.0456 15.7329 9.71529 15.5351L8.79735 16.0858C8.75774 16.1096 8.71134 16.1194 8.6655 16.1138C8.61966 16.1082 8.57702 16.0873 8.54436 16.0547L7.74798 15.2583C7.71532 15.2256 7.69452 15.183 7.68888 15.1372C7.68324 15.0913 7.69308 15.0449 7.71684 15.0053L8.27309 14.0778C8.07875 13.7454 7.93244 13.3871 7.8385 13.0137L6.80037 12.7539C6.75557 12.7427 6.71579 12.7169 6.68737 12.6805C6.65895 12.6441 6.64352 12.5992 6.64352 12.553V11.4268C6.64352 11.3806 6.65896 11.3357 6.68738 11.2993C6.7158 11.2629 6.75557 11.2371 6.80037 11.2259L7.84921 10.9633C7.9471 10.5909 8.09721 10.2342 8.29507 9.90378L7.74429 8.98587C7.72053 8.94627 7.71069 8.89986 7.71633 8.85402C7.72197 8.80819 7.74277 8.76555 7.77543 8.73289L8.57182 7.9365C8.60447 7.90385 8.64711 7.88304 8.69295 7.87739C8.73878 7.87175 8.78519 7.88158 8.8248 7.90534L9.75227 8.46162C10.0847 8.26728 10.443 8.12096 10.8164 8.02703L11.0762 6.9889C11.0874 6.94409 11.1132 6.90432 11.1496 6.87589C11.186 6.84747 11.2309 6.83203 11.2771 6.83202H12.4034C12.4495 6.83202 12.4944 6.84746 12.5308 6.87589C12.5672 6.90431 12.5931 6.94409 12.6043 6.9889L12.8668 8.03773C13.2392 8.1356 13.596 8.28568 13.9263 8.48351L14.8443 7.93282C14.8839 7.90906 14.9303 7.89922 14.9761 7.90486C15.022 7.9105 15.0646 7.9313 15.0973 7.96395L15.8936 8.76034C15.9263 8.793 15.9471 8.83564 15.9527 8.88147C15.9584 8.92731 15.9485 8.97372 15.9248 9.01332L15.3685 9.9408C15.5628 10.2732 15.7092 10.6315 15.8031 11.0049L16.8412 11.2647C16.886 11.2759 16.9258 11.3018 16.9542 11.3382C16.9827 11.3746 16.9981 11.4194 16.9981 11.4656V12.5919Z" fill="#316FF6"/>
<path d="M23.6202 2.72144V3.29456C23.3363 3.11915 23.009 3.02671 22.6752 3.02769H0.966484C0.632751 3.02671 0.305404 3.11915 0.0214844 3.29456V1.01519C0.0214666 0.894529 0.0452186 0.77505 0.0913838 0.663574C0.137549 0.552098 0.205223 0.450809 0.29054 0.365492C0.375857 0.280174 0.477147 0.2125 0.588623 0.166335C0.700099 0.12017 0.819577 0.0964177 0.940234 0.0964356H7.47648C7.60735 0.0975397 7.73652 0.126155 7.85561 0.180423C7.9747 0.234691 8.08104 0.313399 8.16773 0.411436L9.24398 1.64519C9.28642 1.69529 9.33942 1.7354 9.39917 1.76263C9.45892 1.78986 9.52395 1.80355 9.58961 1.80271H22.7015C22.8221 1.80269 22.9416 1.82644 23.0531 1.8726C23.1646 1.91877 23.2659 1.98644 23.3512 2.07176C23.4365 2.15707 23.5042 2.25836 23.5503 2.36983C23.5965 2.4813 23.6203 2.60078 23.6202 2.72144Z" fill="#316FF6"/>
</svg>
