<svg width="57" height="57" viewBox="0 0 57 57" fill="none" xmlns="http://www.w3.org/2000/svg">
<path fill-rule="evenodd" clip-rule="evenodd" d="M55.3222 2.12908L54.5981 11.0087C54.5829 11.1755 54.4824 11.3101 54.3251 11.3689C54.1696 11.4257 54.0009 11.3897 53.8834 11.2722L51.9839 9.37266L45.6768 15.6798C45.3507 16.0058 44.8199 16.0058 44.4939 15.6798L41.3204 12.5063C40.9943 12.1802 40.9943 11.6494 41.3204 11.3234L47.6274 5.01629L45.728 3.11674C45.6104 2.99928 45.5744 2.83051 45.6313 2.67505C45.6901 2.51768 45.8247 2.41721 45.9915 2.40212L54.871 1.67788C54.9981 1.66838 55.1099 1.70828 55.201 1.79926C55.29 1.88834 55.3317 2.00211 55.3222 2.12908ZM55.3222 54.8711C55.3317 54.998 55.29 55.1118 55.201 55.2009C55.1099 55.2919 54.9981 55.3318 54.871 55.3223L45.9915 54.598C45.8247 54.5829 45.6901 54.4825 45.6313 54.3251C45.5744 54.1696 45.6104 54.0009 45.728 53.8834L47.6274 51.9838L41.3204 45.6767C40.9943 45.3507 40.9943 44.82 41.3204 44.4938L44.4939 41.3204C44.8199 40.9944 45.3507 40.9944 45.6768 41.3204L51.9839 47.6275L53.8834 45.7279C54.0009 45.6105 54.1696 45.5745 54.3251 45.6313C54.4824 45.69 54.5829 45.8246 54.5981 45.9915L55.3222 54.8711ZM1.67784 54.8711L2.40196 45.9915C2.41716 45.8246 2.51764 45.69 2.675 45.6313C2.83047 45.5745 2.99912 45.6105 3.1167 45.7279L5.01614 47.6275L11.3232 41.3204C11.6494 40.9944 12.1801 40.9944 12.5062 41.3204L15.6796 44.4938C16.0057 44.82 16.0057 45.3507 15.6796 45.6767L9.37262 51.9838L11.2721 53.8834C11.3896 54.0009 11.4256 54.1696 11.3687 54.3251C11.3099 54.4825 11.1754 54.5829 11.0085 54.598L2.12903 55.3223C2.00196 55.3318 1.89019 55.2919 1.7991 55.2009C1.71003 55.1118 1.66834 54.998 1.67784 54.8711ZM1.67784 2.12908C1.66834 2.00211 1.71003 1.88834 1.7991 1.79926C1.89019 1.70828 2.00196 1.66838 2.12903 1.67788L11.0085 2.40212C11.1754 2.41721 11.3099 2.51768 11.3687 2.67505C11.4256 2.83051 11.3896 2.99928 11.2721 3.11674L9.37262 5.01629L15.6796 11.3234C16.0057 11.6494 16.0057 12.1802 15.6796 12.5063L12.5062 15.6798C12.1801 16.0058 11.6494 16.0058 11.3232 15.6798L5.01614 9.37266L3.1167 11.2722C2.99912 11.3897 2.83047 11.4257 2.675 11.3689C2.51764 11.3101 2.41716 11.1755 2.40196 11.0087L1.67784 2.12908Z" fill="white"/>
</svg>
