<svg width="20" height="20" viewBox="0 0 20 20" fill="none" xmlns="http://www.w3.org/2000/svg">
<rect width="19.0099" height="19.0099" transform="translate(0.6875 0.881187)" fill="white"/>
<path fill-rule="evenodd" clip-rule="evenodd" d="M18.9379 10.5932C18.9379 9.94725 18.8799 9.32619 18.7723 8.72997H10.1934V12.2535H15.0956C14.8844 13.3921 14.2427 14.3568 13.278 15.0027V17.2882H16.2218C17.9442 15.7024 18.9379 13.3672 18.9379 10.5932Z" fill="#4285F4"/>
<path fill-rule="evenodd" clip-rule="evenodd" d="M10.1928 19.4949C12.6522 19.4949 14.7141 18.6793 16.2212 17.2881L13.2774 15.0026C12.4617 15.5491 11.4184 15.8721 10.1928 15.8721C7.82033 15.8721 5.81223 14.2697 5.09594 12.1167H2.05273V14.4767C3.55156 17.4537 6.63203 19.4949 10.1928 19.4949Z" fill="#34A853"/>
<path fill-rule="evenodd" clip-rule="evenodd" d="M5.09605 12.1169C4.91387 11.5703 4.81036 10.9865 4.81036 10.3862C4.81036 9.78583 4.91387 9.20203 5.09605 8.65549V6.29546H2.05284C1.43592 7.52516 1.08398 8.91634 1.08398 10.3862C1.08398 11.856 1.43592 13.2472 2.05284 14.4769L5.09605 12.1169Z" fill="#FBBC05"/>
<path fill-rule="evenodd" clip-rule="evenodd" d="M10.1928 4.90009C11.5301 4.90009 12.7309 5.35968 13.6749 6.26229L16.2875 3.64969C14.71 2.17984 12.6481 1.27723 10.1928 1.27723C6.63203 1.27723 3.55156 3.31845 2.05273 6.29541L5.09594 8.65545C5.81223 6.50243 7.82033 4.90009 10.1928 4.90009Z" fill="#EA4335"/>
</svg>
