<svg width="24" height="25" viewBox="0 0 24 25" fill="none" xmlns="http://www.w3.org/2000/svg">
<path d="M12 22.7256C17.5228 22.7256 22 18.2484 22 12.7256C22 7.20274 17.5228 2.72559 12 2.72559C6.47715 2.72559 2 7.20274 2 12.7256C2 18.2484 6.47715 22.7256 12 22.7256Z" stroke="#316FF6" stroke-width="2" stroke-linecap="round" stroke-linejoin="round"/>
<path d="M9.09009 9.72518C9.32519 9.05685 9.78924 8.49329 10.4 8.13431C11.0108 7.77534 11.729 7.64412 12.4273 7.76389C13.1255 7.88366 13.7589 8.2467 14.2152 8.78871C14.6714 9.33071 14.9211 10.0167 14.9201 10.7252C14.9201 12.7252 11.9201 13.7252 11.9201 13.7252" stroke="#316FF6" stroke-width="2" stroke-linecap="round" stroke-linejoin="round"/>
<path d="M12 17.7256H12.01" stroke="#316FF6" stroke-width="2" stroke-linecap="round" stroke-linejoin="round"/>
</svg>
