<svg width="18" height="18" viewBox="0 0 18 18" fill="none" xmlns="http://www.w3.org/2000/svg">
<path d="M9 0.875C7.39303 0.875 5.82214 1.35152 4.486 2.24431C3.14985 3.1371 2.10844 4.40605 1.49348 5.8907C0.87852 7.37535 0.717618 9.00901 1.03112 10.5851C1.34463 12.1612 2.11846 13.6089 3.25476 14.7452C4.39106 15.8815 5.8388 16.6554 7.4149 16.9689C8.99099 17.2824 10.6247 17.1215 12.1093 16.5065C13.594 15.8916 14.8629 14.8502 15.7557 13.514C16.6485 12.1779 17.125 10.607 17.125 9C17.1225 6.84588 16.2657 4.78069 14.7425 3.2575C13.2193 1.7343 11.1541 0.877481 9 0.875ZM15.1163 5.875H12.4806C12.295 4.70238 11.9025 3.57209 11.3213 2.53688C12.9627 3.12999 14.3186 4.32267 15.1163 5.875ZM11.5 9C11.4998 9.6265 11.4643 10.2525 11.3938 10.875H6.60625C6.46459 9.62901 6.46459 8.37099 6.60625 7.125H11.3938C11.4643 7.74751 11.4998 8.3735 11.5 9ZM9 15.875C8.1625 15.875 7.2575 14.3906 6.80063 12.125H11.1994C10.7425 14.3906 9.8375 15.875 9 15.875ZM6.80063 5.875C7.2575 3.60938 8.1625 2.125 9 2.125C9.8375 2.125 10.7425 3.60938 11.1994 5.875H6.80063ZM6.67563 2.53688C6.09549 3.5723 5.70399 4.70258 5.51938 5.875H2.88375C3.68143 4.32267 5.03735 3.12999 6.67875 2.53688H6.67563ZM2.39125 7.125H5.34563C5.21813 8.37175 5.21813 9.62825 5.34563 10.875H2.39125C2.03624 9.65021 2.03624 8.34979 2.39125 7.125ZM2.88375 12.125H5.51938C5.70496 13.2976 6.09753 14.4279 6.67875 15.4631C5.03735 14.87 3.68143 13.6773 2.88375 12.125ZM11.3213 15.4631C11.9025 14.4279 12.295 13.2976 12.4806 12.125H15.1163C14.3186 13.6773 12.9627 14.87 11.3213 15.4631ZM15.6088 10.875H12.6544C12.7178 10.252 12.7497 9.62621 12.75 9C12.7497 8.37379 12.7178 7.74799 12.6544 7.125H15.6088C15.9638 8.34979 15.9638 9.65021 15.6088 10.875Z" fill="#7E7E7E"/>
</svg>
