<svg width="18" height="18" viewBox="0 0 18 18" fill="none" xmlns="http://www.w3.org/2000/svg">
<g clip-path="url(#clip0_1322_1800)">
<path d="M15.7984 0H13.5547C13.2635 0 13.0273 0.236109 13.0273 0.527344C13.0273 0.818578 13.2635 1.05469 13.5547 1.05469H15.7984C16.4305 1.05469 16.9448 1.56895 16.9448 2.2011V4.44477C16.9448 4.736 17.1809 4.97211 17.4721 4.97211C17.7633 4.97211 17.9995 4.736 17.9995 4.44477V2.2011C17.9995 0.987399 17.0121 0 15.7984 0Z" fill="#316FF6"/>
<path d="M0.527344 4.97211C0.818578 4.97211 1.05469 4.736 1.05469 4.44477V2.2011C1.05469 1.56895 1.56895 1.05469 2.2011 1.05469H4.44477C4.736 1.05469 4.97211 0.818578 4.97211 0.527344C4.97211 0.236109 4.736 0 4.44477 0H2.2011C0.987399 0 0 0.987399 0 2.2011V4.44477C0 4.736 0.236109 4.97211 0.527344 4.97211Z" fill="#316FF6"/>
<path d="M4.44477 16.9453H2.2011C1.56895 16.9453 1.05469 16.431 1.05469 15.7988V13.5552C1.05469 13.2639 0.818578 13.0278 0.527344 13.0278C0.236109 13.0278 0 13.2639 0 13.5552V15.7988C0 17.0125 0.987399 17.9999 2.2011 17.9999H4.44477C4.736 17.9999 4.97211 17.7638 4.97211 17.4726C4.97211 17.1814 4.736 16.9453 4.44477 16.9453Z" fill="#316FF6"/>
<path d="M17.4721 13.0278C17.1809 13.0278 16.9448 13.2639 16.9448 13.5552V15.7988C16.9448 16.431 16.4305 16.9453 15.7984 16.9453H13.5547C13.2635 16.9453 13.0273 17.1814 13.0273 17.4726C13.0273 17.7638 13.2635 17.9999 13.5547 17.9999H15.7984C17.0121 17.9999 17.9995 17.0125 17.9995 15.7988V13.5552C17.9995 13.2639 17.7633 13.0278 17.4721 13.0278Z" fill="#316FF6"/>
<path d="M2.30469 2.83228V15.1677C2.30469 15.4589 2.5408 15.695 2.83203 15.695H15.1674C15.4586 15.695 15.6948 15.4589 15.6948 15.1677V2.83228C15.6948 2.54104 15.4586 2.30493 15.1674 2.30493H2.83203C2.5408 2.30493 2.30469 2.54104 2.30469 2.83228ZM3.35937 14.6403V12.9765H4.44451C4.58436 12.9765 4.71848 12.9209 4.81737 12.822L6.86104 10.7783L8.13792 12.0552C8.34383 12.2611 8.67774 12.2611 8.88369 12.0552L11.4091 9.52979L13.2428 11.3634C13.3417 11.4623 13.4758 11.5179 13.6156 11.5179H14.6401V14.6403H3.35937V14.6403ZM14.6401 3.35962V10.4632H13.8341L11.782 8.41111C11.5761 8.20517 11.2422 8.20517 11.0362 8.41111L8.51082 10.9365L7.23394 9.65965C7.02803 9.45371 6.69412 9.45371 6.48817 9.65965L4.22608 11.9217H3.35937V3.35962H14.6401Z" fill="#316FF6"/>
<path d="M9.00005 7.40452C9.89288 7.40452 10.6192 6.67816 10.6192 5.78533C10.6192 4.8925 9.89288 4.16614 9.00005 4.16614C8.10722 4.16614 7.38086 4.8925 7.38086 5.78533C7.38086 6.67816 8.10722 7.40452 9.00005 7.40452ZM9.00005 5.22083C9.31132 5.22083 9.56456 5.47406 9.56456 5.78533C9.56456 6.0966 9.31132 6.34983 9.00005 6.34983C8.68878 6.34983 8.43555 6.0966 8.43555 5.78533C8.43555 5.47406 8.68878 5.22083 9.00005 5.22083Z" fill="#316FF6"/>
</g>
<defs>
<clipPath id="clip0_1322_1800">
<rect width="18" height="18" fill="white"/>
</clipPath>
</defs>
</svg>
