<svg width="22" height="17" viewBox="0 0 22 17" fill="none" xmlns="http://www.w3.org/2000/svg">
<path d="M21 7.99999H3.41397L8.70697 2.70699C8.80248 2.61474 8.87866 2.5044 8.93107 2.38239C8.98348 2.26039 9.01107 2.12917 9.01222 1.99639C9.01337 1.86361 8.98807 1.73193 8.93779 1.60904C8.88751 1.48614 8.81326 1.37449 8.71936 1.28059C8.62547 1.1867 8.51382 1.11245 8.39092 1.06217C8.26803 1.01189 8.13635 0.986585 8.00357 0.987739C7.87079 0.988893 7.73957 1.01648 7.61757 1.06889C7.49556 1.1213 7.38522 1.19748 7.29297 1.29299L0.29297 8.29299C0.105499 8.48052 0.000183105 8.73482 0.000183105 8.99999C0.000183105 9.26515 0.105499 9.51946 0.29297 9.70699L7.29297 16.707C7.48157 16.8891 7.73417 16.9899 7.99637 16.9877C8.25857 16.9854 8.50938 16.8802 8.69479 16.6948C8.8802 16.5094 8.98536 16.2586 8.98764 15.9964C8.98992 15.7342 8.88913 15.4816 8.70697 15.293L3.41397 9.99999H21C21.2652 9.99999 21.5195 9.89463 21.7071 9.7071C21.8946 9.51956 22 9.26521 22 8.99999C22 8.73477 21.8946 8.48042 21.7071 8.29288C21.5195 8.10535 21.2652 7.99999 21 7.99999Z" fill="#316FF6"/>
</svg>
