<svg width="22" height="14" viewBox="0 0 22 14" fill="none" xmlns="http://www.w3.org/2000/svg">
<path d="M14.1679 0.556396H2.83992C2.33117 0.557916 1.8437 0.760689 1.48396 1.12043C1.12421 1.48017 0.921441 1.96765 0.919922 2.4764V11.846C0.921441 12.3547 1.12421 12.8422 1.48396 13.202C1.8437 13.5617 2.33117 13.7645 2.83992 13.766H14.1679C14.6767 13.7645 15.1641 13.5617 15.5239 13.202C15.8836 12.8422 16.0864 12.3547 16.0879 11.846V2.4764C16.0864 1.96765 15.8836 1.48017 15.5239 1.12043C15.1641 0.760689 14.6767 0.557916 14.1679 0.556396ZM10.6831 7.5548L7.56312 9.7532C7.49269 9.80404 7.40923 9.83375 7.32251 9.83885C7.2358 9.84395 7.14943 9.82423 7.07352 9.782C6.99507 9.74295 6.92918 9.68265 6.88335 9.60797C6.83752 9.53328 6.8136 9.44722 6.81432 9.3596V4.9628C6.8136 4.87517 6.83752 4.78911 6.88335 4.71443C6.92918 4.63974 6.99507 4.57944 7.07352 4.5404C7.14998 4.50002 7.23603 4.48135 7.32234 4.48643C7.40866 4.49151 7.49193 4.52013 7.56312 4.5692L10.6831 6.7676C10.7456 6.8125 10.7964 6.87161 10.8315 6.94005C10.8666 7.00849 10.8849 7.08429 10.8849 7.1612C10.8849 7.2381 10.8666 7.31391 10.8315 7.38235C10.7964 7.45079 10.7456 7.5099 10.6831 7.5548ZM21.0799 2.1404V12.182C21.081 12.2661 21.0593 12.3489 21.017 12.4216C20.9747 12.4943 20.9135 12.5541 20.8399 12.5948C20.7676 12.6388 20.6846 12.6621 20.5999 12.6621C20.5153 12.6621 20.4322 12.6388 20.3599 12.5948L17.0479 10.694V3.6284L20.3599 1.7276C20.4329 1.68547 20.5157 1.66329 20.5999 1.66329C20.6842 1.66329 20.767 1.68547 20.8399 1.7276C20.9135 1.76825 20.9747 1.82811 21.017 1.90081C21.0593 1.97351 21.081 2.05631 21.0799 2.1404Z" fill="#316FF6"/>
</svg>
