<svg width="30" height="30" viewBox="0 0 30 30" fill="none" xmlns="http://www.w3.org/2000/svg">
<path d="M19.5312 20.371C19.2932 20.3703 19.0608 20.2994 18.8629 20.1672C18.6651 20.035 18.5106 19.8475 18.4188 19.6279C18.3269 19.4084 18.3019 19.1667 18.3468 18.933C18.3916 18.6993 18.5044 18.4841 18.6709 18.3141C19.5784 17.4022 20.0878 16.1681 20.0878 14.8816C20.0878 13.5951 19.5784 12.3609 18.6709 11.449C18.4515 11.2197 18.331 10.9132 18.3354 10.5958C18.3398 10.2784 18.4687 9.97541 18.6945 9.75222C18.9202 9.52902 19.2246 9.40348 19.5421 9.40267C19.8595 9.40186 20.1646 9.52584 20.3914 9.74788C21.7469 11.1126 22.5077 12.9581 22.5077 14.8816C22.5077 16.8051 21.7469 18.6505 20.3914 20.0153C20.2786 20.1284 20.1446 20.2181 19.9969 20.2792C19.8493 20.3402 19.691 20.3715 19.5312 20.371ZM11.8155 20.0213C12.0436 19.7957 12.1728 19.4888 12.1746 19.1679C12.1764 18.8471 12.0507 18.5387 11.8252 18.3105C10.9177 17.3986 10.4083 16.1644 10.4083 14.878C10.4083 13.5915 10.9177 12.3573 11.8252 11.4454C11.9399 11.3331 12.0312 11.1991 12.0936 11.0511C12.1561 10.9032 12.1884 10.7443 12.1888 10.5838C12.1892 10.4232 12.1577 10.2642 12.096 10.1159C12.0343 9.96769 11.9438 9.8332 11.8296 9.72031C11.7154 9.60742 11.5799 9.51839 11.431 9.45839C11.2821 9.3984 11.1227 9.36865 10.9621 9.37088C10.8016 9.37311 10.6431 9.40727 10.4959 9.47137C10.3487 9.53547 10.2157 9.62823 10.1047 9.74425C8.74918 11.109 7.98844 12.9544 7.98844 14.878C7.98844 16.8015 8.74918 18.6469 10.1047 20.0117C10.3303 20.2398 10.6373 20.3689 10.9581 20.3708C11.2789 20.3726 11.5873 20.2469 11.8155 20.0213ZM24.2402 22.9494C26.24 20.7367 27.3472 17.8604 27.3472 14.878C27.3472 11.8955 26.24 9.01922 24.2402 6.80655C24.0249 6.56861 23.7239 6.42595 23.4034 6.40995C23.0829 6.39396 22.7691 6.50593 22.5312 6.72125C22.2933 6.93657 22.1506 7.23759 22.1346 7.55809C22.1186 7.8786 22.2306 8.19233 22.4459 8.43027C24.043 10.198 24.9273 12.4956 24.9273 14.878C24.9273 17.2603 24.043 19.5579 22.4459 21.3256C22.2306 21.5636 22.1186 21.8773 22.1346 22.1978C22.1506 22.5183 22.2933 22.8193 22.5312 23.0347C22.7691 23.25 23.0829 23.3619 23.4034 23.346C23.7239 23.33 24.0249 23.1873 24.2402 22.9494ZM7.96432 23.034C8.20218 22.8188 8.34484 22.518 8.36095 22.1976C8.37706 21.8773 8.26529 21.5636 8.05023 21.3256C6.45309 19.5579 5.56888 17.2603 5.56888 14.878C5.56888 12.4956 6.45309 10.198 8.05023 8.43027C8.15684 8.31245 8.23921 8.17479 8.29262 8.02514C8.34603 7.8755 8.36945 7.71679 8.36153 7.55809C8.35361 7.3994 8.31451 7.24382 8.24646 7.10023C8.17841 6.95664 8.08275 6.82787 7.96493 6.72125C7.84711 6.61464 7.70945 6.53227 7.5598 6.47886C7.41015 6.42545 7.25145 6.40203 7.09275 6.40995C6.77225 6.42595 6.47123 6.56861 6.25591 6.80655C4.25611 9.01922 3.14893 11.8955 3.14893 14.878C3.14893 17.8604 4.25611 20.7367 6.25591 22.9494C6.47129 23.187 6.77223 23.3295 7.09259 23.3454C7.41294 23.3612 7.72649 23.2493 7.96432 23.034ZM15.2481 13.0631C14.8891 13.0631 14.5382 13.1695 14.2398 13.3689C13.9413 13.5684 13.7087 13.8518 13.5713 14.1834C13.434 14.5151 13.398 14.88 13.4681 15.232C13.5381 15.5841 13.7109 15.9075 13.9647 16.1613C14.2186 16.4151 14.5419 16.5879 14.894 16.658C15.246 16.728 15.611 16.6921 15.9426 16.5547C16.2742 16.4173 16.5577 16.1847 16.7571 15.8862C16.9565 15.5878 17.0629 15.2369 17.0629 14.878C17.0629 14.3966 16.8717 13.935 16.5314 13.5946C16.191 13.2543 15.7294 13.0631 15.2481 13.0631Z" fill="#FF1010"/>
</svg>
