<svg width="24" height="24" viewBox="0 0 24 24" fill="none" xmlns="http://www.w3.org/2000/svg">
<path fill-rule="evenodd" clip-rule="evenodd" d="M12.75 4.03125H11.9484C10.3608 4.03124 9.09867 4.03123 8.10333 4.15538C7.07883 4.28316 6.234 4.55262 5.54213 5.16745C5.40998 5.28488 5.28488 5.40998 5.16745 5.54213C4.55262 6.234 4.28316 7.07883 4.15538 8.10333C4.03123 9.09867 4.03124 10.3608 4.03125 11.9484V12.0516C4.03124 13.6392 4.03123 14.9013 4.15538 15.8967C4.28316 16.9212 4.55262 17.766 5.16745 18.4579C5.28488 18.59 5.40998 18.7151 5.54213 18.8325C6.234 19.4474 7.07883 19.7168 8.10333 19.8446C9.09867 19.9688 10.3608 19.9688 11.9484 19.9688H12.75C13.1642 19.9688 13.5 19.633 13.5 19.2188C13.5 18.8045 13.1642 18.4688 12.75 18.4688H12C10.3491 18.4688 9.1807 18.4674 8.289 18.3562C7.41577 18.2472 6.91209 18.0433 6.5385 17.7113C6.45042 17.633 6.36698 17.5496 6.2887 17.4615C5.95673 17.0879 5.75278 16.5842 5.64384 15.711C5.53261 14.8193 5.53125 13.6509 5.53125 12C5.53125 10.3491 5.53261 9.1807 5.64384 8.289C5.75278 7.41577 5.95673 6.91209 6.2887 6.5385C6.36698 6.45042 6.45042 6.36698 6.5385 6.2887C6.91209 5.95673 7.41577 5.75278 8.289 5.64384C9.1807 5.53261 10.3491 5.53125 12 5.53125H12.75C13.1642 5.53125 13.5 5.19548 13.5 4.78125C13.5 4.36704 13.1642 4.03125 12.75 4.03125ZM14.704 8.54597C14.4112 8.25305 14.4112 7.7782 14.704 7.48528C14.997 7.19241 15.4718 7.19241 15.7647 7.48528L19.7491 11.4697C20.042 11.7626 20.042 12.2374 19.7491 12.5303L15.7647 16.5147C15.4718 16.8076 14.997 16.8076 14.704 16.5147C14.4112 16.2218 14.4112 15.747 14.704 15.454L17.4081 12.75H8.76563C8.35139 12.75 8.01563 12.4142 8.01563 12C8.01563 11.5858 8.35139 11.25 8.76563 11.25H17.4081L14.704 8.54597Z" fill="#6B6B6B"/>
</svg>
