<svg width="698" height="888" viewBox="0 0 698 888" fill="none" xmlns="http://www.w3.org/2000/svg">
<path d="M560.135 309.412C517.575 284.785 465.221 272.4 409.993 277.566C409.891 247.866 412.289 217.237 417.315 186.033C487.432 179.622 555.264 194.355 612.475 225.272C592.29 252.598 574.839 280.773 560.139 309.412H560.135Z" fill="white"/>
<path d="M553.125 290.063C515.284 271.535 471.348 261.818 425.166 263.748C426.237 246.773 428.125 229.557 430.842 212.163C483.867 209.861 534.834 220.55 579.465 241.505C569.812 257.526 561.032 273.734 553.125 290.063Z" fill="#9AD2D6"/>
<path d="M552.517 219.698C515.914 207.229 476.214 201.106 435.336 202.479C433.728 202.532 432.583 201.659 432.785 200.514C432.93 199.683 433.079 198.853 433.232 198.02C433.438 196.874 434.938 195.884 436.574 195.831C478.122 194.479 518.496 200.716 555.76 213.409C557.228 213.909 557.945 215.2 557.374 216.282C556.962 217.066 556.551 217.85 556.139 218.634C555.572 219.716 553.957 220.184 552.517 219.695V219.698Z" fill="#9AD2D6"/>
<path d="M431.842 248.433C435.517 244.879 441.573 240.341 449.767 239.047C461.634 237.287 465.199 243.733 477.541 244.198C492.778 245.088 497.684 235.439 509.483 238.5C522.147 242.122 521.129 255.245 531.066 257.146C540.68 259.158 548.924 248.174 554.33 250.966C556.931 252.325 558.822 257.096 553.546 274.132" fill="#7BBFC6"/>
<path d="M287.942 250.59C230.561 261.484 175.858 280.829 125.427 308.056C112.262 267.636 99.6964 227.687 87.7129 188.225C150.791 171.551 215.36 165.106 279.311 168.671C281.886 195.316 284.756 222.625 287.945 250.594L287.942 250.59Z" fill="white"/>
<path d="M131.118 272.588C130.901 272.68 130.657 272.673 130.444 272.545C130.054 272.307 129.922 271.747 130.153 271.296C136.169 259.483 142.697 248.255 149.675 237.652C154.964 239.557 160.197 241.444 165.376 243.303C174.227 232.497 183.614 222.482 193.451 213.312C198.567 216.232 203.615 219.102 208.606 221.922C216.436 217.913 224.396 214.21 232.467 210.829C239.895 202.148 247.664 194.155 255.714 186.883C256.015 186.61 256.583 186.574 256.977 186.794C257.374 187.018 257.448 187.415 257.147 187.688C249.005 195.025 241.144 203.099 233.63 211.879C225.106 215.462 216.709 219.396 208.457 223.681C203.583 220.932 198.648 218.14 193.657 215.299C183.908 224.483 174.61 234.498 165.841 245.3C160.715 243.47 155.539 241.611 150.303 239.734C143.619 249.976 137.354 260.796 131.565 272.158C131.458 272.364 131.299 272.513 131.118 272.591V272.588Z" fill="#94CFD3"/>
<path d="M259.03 192.726C255.457 190.74 251.86 188.728 248.238 186.692C252.407 185.503 256.6 184.397 260.807 183.364C260.201 186.451 259.608 189.572 259.033 192.726H259.03Z" fill="#94CFD3"/>
<path d="M131.74 274.426C172.001 257.004 214.209 244.29 257.652 236.432C255.779 223.125 253.977 209.943 252.246 196.888C250.586 200.598 247.673 205.299 242.54 210.081C234.977 217.158 226.619 220.518 219.023 223.735C209.509 227.847 205.667 227.684 204.518 227.535C198.334 226.91 197.802 223.21 193.162 223.317C188.11 223.526 186.305 227.794 173.793 239.713C167.191 246.152 164.03 248.55 160.003 249.597C156.115 250.64 154.267 248.433 150.539 249.909C147.03 251.314 145.391 254.18 142.432 258.771C140.013 262.534 136.458 267.874 131.74 274.422V274.426Z" fill="#9DD2D6"/>
<path d="M302.701 692.806C302.215 696.588 301.204 700.093 300.356 702.569C303.478 709.969 307.125 718.295 308.612 720.473C309.555 721.86 311.588 725.12 313.873 728.845C313.94 728.955 314.011 729.072 314.078 729.182L314.252 728.75L327.953 728.214C326.629 719.1 324.114 707.89 323.412 706.68C322.443 705.01 302.208 683.583 302.208 683.583L301.825 684.093C302.513 685.736 303.241 688.588 302.698 692.803L302.701 692.806Z" fill="#EA9000"/>
<path d="M314.081 729.186L312.723 732.545C316.057 737.792 318.243 740.974 319.328 742.51C319.867 743.273 320.137 743.631 320.137 743.631C320.137 743.631 320.293 743.656 320.552 743.677C321.031 743.72 321.872 743.759 322.851 743.645C321.052 740.655 317.338 734.5 314.081 729.186Z" fill="white"/>
<path d="M308.612 720.473C307.125 718.295 303.478 709.965 300.357 702.569C301.201 700.092 302.212 696.584 302.701 692.806C303.244 688.591 302.517 685.739 301.829 684.097L295.951 691.93L294.351 694.058C294.351 694.058 296.167 699.344 298.98 706.169C301.595 712.509 305.071 720.182 308.764 726.199C310.229 728.583 311.545 730.693 312.723 732.545L314.082 729.186C314.014 729.072 313.944 728.959 313.876 728.849C311.592 725.124 309.559 721.864 308.615 720.476L308.612 720.473Z" fill="white"/>
<path d="M327.956 728.217C323.993 726.919 318.101 725.741 314.255 728.753C314.128 728.852 314.003 728.955 313.883 729.065C315.593 731.754 317.303 734.493 319.013 737.285C320.318 739.417 321.599 741.538 322.851 743.642C325.377 743.347 328.758 742.024 328.779 737.05C328.789 734.858 328.456 731.687 327.952 728.214L327.956 728.217Z" fill="white"/>
<path d="M325.512 715.226C325.491 715.226 325.466 715.23 325.441 715.226L316.916 715.248C316.473 715.248 316.104 714.857 316.097 714.371C316.086 713.885 316.427 713.481 316.884 713.492L325.409 713.47C325.853 713.47 326.222 713.86 326.229 714.346C326.236 714.804 325.92 715.184 325.512 715.223V715.226Z" fill="white"/>
<path d="M326.747 721.364L318.464 722.165C318.021 722.208 317.627 721.853 317.581 721.367C317.534 720.881 317.854 720.459 318.294 720.417L326.577 719.615C327.021 719.572 327.414 719.927 327.46 720.413C327.507 720.899 327.187 721.321 326.747 721.364Z" fill="white"/>
<path d="M325.331 616.006C322.947 618.982 320.261 621.451 318.25 623.126C317.065 631.069 315.848 640.076 315.983 642.711C316.068 644.386 316.107 648.228 316.121 652.598C316.121 652.73 316.121 652.864 316.121 652.996L316.494 652.719L328.47 659.388C332.082 650.917 335.767 640.037 335.796 638.635C335.838 636.706 329.708 607.878 329.708 607.878L329.116 608.116C328.85 609.876 327.984 612.692 325.331 616.009V616.006Z" fill="#EA9000"/>
<path d="M316.122 652.992L313.213 655.153C313.33 661.368 313.543 665.224 313.671 667.101C313.734 668.03 313.777 668.481 313.777 668.481C313.777 668.481 313.898 668.584 314.107 668.736C314.494 669.02 315.192 669.495 316.086 669.907C316.104 666.416 316.136 659.229 316.122 652.996V652.992Z" fill="white"/>
<path d="M315.984 642.708C315.85 640.072 317.066 631.065 318.251 623.122C320.263 621.448 322.952 618.978 325.332 616.002C327.989 612.685 328.851 609.872 329.117 608.109L320.021 611.738L317.549 612.724C317.549 612.724 316.35 618.18 315.2 625.478C314.133 632.253 313.111 640.611 313.132 647.671C313.139 650.47 313.171 652.957 313.21 655.149L316.119 652.989C316.119 652.857 316.119 652.722 316.119 652.591C316.105 648.221 316.066 644.379 315.981 642.704L315.984 642.708Z" fill="white"/>
<path d="M328.475 659.385C325.764 656.213 321.348 652.144 316.498 652.715C316.338 652.733 316.179 652.758 316.016 652.786C316.076 655.972 316.111 659.204 316.119 662.474C316.126 664.975 316.115 667.452 316.087 669.903C318.396 670.967 321.972 671.595 324.579 667.359C325.729 665.493 327.095 662.613 328.471 659.385H328.475Z" fill="white"/>
<path d="M333.142 647.018C333.121 647.008 333.1 646.997 333.082 646.986L325.788 642.57C325.409 642.339 325.299 641.814 325.543 641.395C325.788 640.977 326.288 640.807 326.675 641.055L333.969 645.472C334.348 645.702 334.458 646.227 334.214 646.646C333.983 647.043 333.515 647.199 333.146 647.022L333.142 647.018Z" fill="white"/>
<path d="M331.002 652.903L323.51 649.278C323.109 649.083 322.956 648.576 323.169 648.136C323.382 647.696 323.875 647.501 324.276 647.696L331.769 651.321C332.169 651.516 332.322 652.024 332.109 652.464C331.896 652.903 331.403 653.099 331.002 652.903Z" fill="white"/>
<path d="M398.814 370.496C442.065 426.614 455.241 448.166 467.891 473.793C473.489 485.138 475.795 490.803 476.746 498.53C479.357 519.762 469.52 538.049 459.448 553.161C426.084 603.235 363.009 659.243 351.295 669.559C381.513 502.159 384.457 427.916 379.381 393.232C378.426 386.726 373.13 356.083 380.363 353.422C384.39 351.939 390.555 359.776 398.817 370.496H398.814Z" fill="#96BB89"/>
<path d="M379.641 362.621C387.395 372.941 397.282 387.989 405.804 407.745C412.317 422.836 429.199 466.552 423.935 519.84C420.902 550.551 405.459 582.333 374.702 644.645C359.672 675.093 346.425 699.681 337.258 716.234C330.898 713.073 321.426 707.386 312.039 697.496C302.78 687.744 297.267 677.764 294.135 670.989C312.071 644.546 323.714 620.497 331.118 602.972C344.4 571.541 353.059 551.051 353.155 522.284C353.247 495.057 345.634 469.415 343.222 461.465C337.351 442.114 330.525 429.126 328.116 405.56C326.896 393.619 327.297 383.721 327.801 377.347C330.341 374.008 340.103 362.011 356.741 359.538C367.047 358.005 375.401 360.815 379.637 362.614L379.641 362.621Z" fill="#CAFFB6"/>
<path d="M511.695 268.048C506.913 270.336 502.78 262.255 492.61 262.634C489.548 262.748 486.55 263.606 468.11 276.306C456.482 284.313 451.852 287.985 448.897 286.239C446.471 284.806 447.836 281.294 444.651 274.802C444.622 274.827 444.59 274.848 444.558 274.873C440.738 270.967 435.441 265.873 428.747 260.36C425.111 257.366 413.355 247.77 399.239 240.214C382.207 231.097 365.988 222.412 346.055 224.388C322.155 226.758 305.584 243.204 293.37 255.323C280.684 267.909 271.617 282.802 269.726 285.956C266.704 290.997 264.437 295.396 262.869 298.631C243.453 287.396 223.775 282.646 215.57 290.362C204.53 300.745 216.095 331.967 234.049 349.179C252.574 366.938 282.103 373.81 293.7 364.767C294.867 363.859 301.377 358.477 306.517 349.275C308.096 346.448 309.167 343.94 309.866 342.102C309.877 342.233 309.881 342.361 309.895 342.489C312.005 334.514 313.187 333.546 314.173 328.356C314.996 324.028 315.667 320.501 314.609 316.209C313.219 310.551 310.328 309.674 310.328 305.325C310.328 300.316 314.152 295.481 315.872 295.91C316.727 296.123 317.256 297.694 317.423 311.899C317.575 324.748 317.242 331.995 317.763 332.041C318.199 332.077 319.611 327.054 319.952 321.339C320.19 317.355 319.75 315.698 320.931 314.786C322.95 313.232 328.271 314.971 329.314 318.007C330.155 320.459 327.778 322.495 323.925 329.022C320.576 334.695 318.902 337.529 318.536 340.037C317.196 349.211 328.168 361.819 340.283 364.561C347.172 366.119 350.762 363.657 359.858 366.697C362.554 367.598 365.655 368.641 367.748 369.982C379.607 368.975 390.48 369.166 398.877 370.316C405.94 360.017 409.584 346.87 408.235 332.953C408.079 331.332 407.845 329.735 407.561 328.164C423.277 335.78 438.404 338.399 449.121 335.344C459.909 333.23 472.155 327.873 483.808 319.551C507.63 302.533 520.553 279.155 514.547 265.252C513.735 266.558 512.777 267.53 511.695 268.048Z" fill="url(#paint0_linear_2007_629)"/>
<path d="M448.897 286.24C451.852 287.985 456.482 284.313 468.11 276.307C486.55 263.606 489.548 262.748 492.61 262.634C502.78 262.255 506.913 270.336 511.695 268.048C512.777 267.53 513.735 266.558 514.547 265.252C514.101 264.22 513.561 263.234 512.905 262.315C503.383 248.984 474.918 252.996 449.326 271.276C447.719 272.426 446.162 273.603 444.654 274.806C447.84 281.298 446.474 284.81 448.901 286.243L448.897 286.24Z" fill="#F2B200"/>
<path d="M340.285 364.561C328.173 361.819 317.197 349.211 318.538 340.037C318.904 337.533 320.578 334.695 323.927 329.022C327.78 322.499 330.156 320.462 329.316 318.007C328.273 314.971 322.951 313.229 320.933 314.786C319.751 315.694 320.191 317.355 319.954 321.339C319.613 327.054 318.201 332.08 317.765 332.041C317.247 331.999 317.577 324.748 317.424 311.899C317.258 297.691 316.729 296.123 315.874 295.91C314.154 295.481 310.329 300.316 310.329 305.325C310.329 309.674 313.221 310.551 314.611 316.209C315.668 320.501 314.998 324.028 314.175 328.355C313.189 333.546 312.004 334.518 309.896 342.489C311.315 357.112 317.985 369.84 327.641 378.663C336.372 374.885 349.98 371.692 365.44 370.191C366.213 370.117 366.98 370.046 367.746 369.982C365.653 368.641 362.552 367.598 359.856 366.697C350.76 363.653 347.17 366.119 340.281 364.561H340.285Z" fill="#E87900"/>
<path d="M339.546 211.302L337.566 190.882C335.555 193.071 334.437 196.069 334.746 199.258L337.226 224.843C337.804 230.803 343.104 235.166 349.064 234.588C355.024 234.009 359.387 228.71 358.809 222.75L358.309 217.588C356.563 219.486 354.151 220.781 351.38 221.05C345.421 221.629 340.117 217.265 339.542 211.305L339.546 211.302Z" fill="#FFBF9F"/>
<path d="M344.494 187.416C341.727 187.686 339.311 188.981 337.565 190.879L339.545 211.298C340.123 217.258 345.423 221.621 351.383 221.043C354.15 220.773 356.566 219.479 358.311 217.581L356.332 197.161C355.754 191.201 350.454 186.838 344.494 187.416Z" fill="#ED9877"/>
<path d="M511.966 254.198C511.966 254.198 517.042 246.415 518.277 244.109C519.511 241.803 525.73 238.284 527.827 237.351C529.923 236.418 541.549 236.02 543.716 235.811C545.884 235.602 549.123 238.933 550.705 240.235C552.29 241.54 544.787 239.352 544.787 239.352L539.803 240.565C539.803 240.565 540.594 241.218 540.083 243.453C539.573 245.687 537.895 250.956 537.174 251.023C536.451 251.094 533.563 251.374 530.746 252.375C527.926 253.378 524.528 255.894 521.055 257.689C517.582 259.484 516.209 260.346 516.209 260.346L511.969 254.198H511.966Z" fill="#FFBF9F"/>
<path d="M521.32 252.925C519.067 253.145 518.187 252.478 518.095 252.403C517.939 252.276 517.917 252.049 518.045 251.892C518.173 251.736 518.4 251.715 518.556 251.843C518.556 251.843 519.297 252.393 521.249 252.205C523.657 251.971 525.612 249.04 526.311 247.522C526.644 246.798 526.74 246.351 526.825 245.957C526.932 245.468 527.024 245.042 527.521 244.418C528.603 243.066 530.295 242.353 531.785 241.725C532.111 241.587 532.43 241.463 532.721 241.349C533.179 241.172 533.732 240.955 533.956 240.803C533.924 240.789 533.874 240.764 533.81 240.736C531.547 239.785 528.954 240.512 528.925 240.519C527.726 240.863 526.598 241.445 525.58 242.25C525.42 242.374 525.193 242.346 525.069 242.19C524.945 242.034 524.973 241.803 525.13 241.679C526.226 240.817 527.435 240.193 528.727 239.82C528.84 239.788 531.593 239.019 534.094 240.065C534.282 240.143 534.718 240.328 534.754 240.739C534.804 241.314 534.123 241.58 532.987 242.02C532.7 242.133 532.388 242.254 532.069 242.385C530.657 242.981 529.053 243.655 528.088 244.865C527.694 245.354 527.634 245.635 527.535 246.103C527.446 246.514 527.336 247.022 526.971 247.82C526.158 249.59 524.051 252.659 521.32 252.921V252.925Z" fill="#ED9877"/>
<path d="M532.729 251.818C531.863 251.903 531.005 251.626 530.348 251.023C530.302 250.98 529.203 249.955 529.277 248.486C529.313 247.812 529.568 247.419 529.994 246.766C530.153 246.525 530.338 246.237 530.554 245.876C531.047 245.042 531.313 244.449 531.505 244.017C531.604 243.797 531.686 243.612 531.767 243.456C532.668 241.775 535.049 240.735 539.04 240.274C539.224 240.253 539.419 240.402 539.444 240.615C539.469 240.824 539.327 241.015 539.129 241.037C535.436 241.462 533.172 242.406 532.402 243.839C532.328 243.981 532.253 244.148 532.165 244.347C531.966 244.797 531.689 245.414 531.175 246.287C530.955 246.66 530.76 246.954 530.597 247.206C530.206 247.805 530.029 248.079 530.004 248.54C529.948 249.629 530.813 250.441 530.824 250.448C531.516 251.083 532.505 251.243 533.413 250.863C533.601 250.785 533.811 250.885 533.885 251.08C533.96 251.278 533.871 251.498 533.687 251.576C533.374 251.708 533.052 251.789 532.732 251.818H532.729Z" fill="#ED9877"/>
<path d="M349.894 249.189L352.437 234.055C350.5 233.679 347.801 232.927 344.881 231.334C342.454 230.011 338.165 222.469 336.878 221.242C335.296 221.909 333.447 222.849 331.514 224.183C328.438 226.308 326.285 228.649 324.862 230.476C327.009 233.445 330.205 237.216 334.742 240.817C340.429 245.333 345.991 247.809 349.897 249.185L349.894 249.189Z" fill="white"/>
<path d="M352.302 234.676C354.126 239.238 356.733 246.074 359.475 254.56C361.136 259.693 362.076 263.138 365.488 274.958C369.33 288.276 371.253 294.934 371.58 296.158C378.714 323.02 372.711 348.371 373.421 348.434C373.971 348.488 377.213 333.223 376.56 314.236C376.269 305.818 375.908 295.25 371.86 282.412C367.532 268.679 363.062 258.246 363.062 258.246C361.395 254.358 357.209 244.893 358.468 244.166C359.202 243.74 361.043 246.724 362.697 246.177C364.414 245.61 364.63 241.679 364.474 239.551C364.311 237.305 363.97 232.289 360.423 231.065C357.833 230.174 354.431 231.611 352.299 234.676H352.302Z" fill="#E87900"/>
<path d="M344.216 381.586C343.826 381.625 343.453 381.341 343.354 380.912C342.928 379.063 342.541 377.346 342.187 375.778C342.08 375.307 342.343 374.835 342.776 374.728C343.208 374.618 343.641 374.916 343.748 375.388C344.099 376.953 344.489 378.666 344.915 380.511C345.021 380.983 344.762 381.454 344.333 381.564C344.294 381.575 344.258 381.579 344.219 381.586H344.216Z" fill="#95D8DB"/>
<path d="M320.834 676.04C320.643 676.058 320.44 676.001 320.274 675.863C319.915 675.569 319.837 675.019 320.1 674.632C321.98 671.876 323.832 669.055 325.613 666.249C325.861 665.852 326.365 665.76 326.73 666.044C327.095 666.324 327.191 666.874 326.939 667.267C325.151 670.091 323.285 672.926 321.395 675.7C321.256 675.906 321.047 676.023 320.831 676.044L320.834 676.04ZM331.626 659.023C331.452 659.041 331.271 658.995 331.111 658.881C330.735 658.615 330.625 658.069 330.863 657.664C332.559 654.787 334.23 651.832 335.833 648.884C336.06 648.469 336.553 648.338 336.933 648.593C337.316 648.845 337.444 649.388 337.22 649.799C335.606 652.765 333.924 655.738 332.218 658.633C332.08 658.867 331.86 659.002 331.626 659.023ZM341.314 641.222C341.158 641.236 340.995 641.204 340.846 641.112C340.455 640.874 340.31 640.338 340.523 639.916C342.038 636.897 343.517 633.818 344.922 630.771C345.12 630.341 345.603 630.175 346 630.398C346.398 630.622 346.557 631.15 346.362 631.583C344.95 634.652 343.46 637.745 341.938 640.782C341.807 641.044 341.569 641.2 341.314 641.225V641.222ZM349.839 622.707C349.7 622.721 349.558 622.696 349.42 622.625C349.016 622.416 348.838 621.895 349.023 621.455C350.335 618.337 351.609 615.151 352.818 611.986C352.989 611.543 353.457 611.337 353.869 611.529C354.28 611.72 354.475 612.238 354.305 612.685C353.088 615.871 351.804 619.074 350.488 622.21C350.367 622.501 350.112 622.682 349.839 622.707ZM357.139 603.565C357.019 603.575 356.895 603.558 356.774 603.508C356.359 603.331 356.146 602.823 356.302 602.369C357.409 599.148 358.473 595.867 359.47 592.617C359.608 592.159 360.063 591.918 360.488 592.081C360.91 592.241 361.137 592.745 360.996 593.202C359.995 596.47 358.924 599.769 357.81 603.011C357.7 603.331 357.434 603.536 357.139 603.565ZM363.202 583.894C363.096 583.904 362.989 583.894 362.879 583.855C362.454 583.702 362.216 583.205 362.347 582.748C363.301 579.399 364.238 576.096 365.139 572.829C365.267 572.368 365.717 572.109 366.139 572.261C366.565 572.407 366.806 572.903 366.679 573.365C365.774 576.635 364.837 579.942 363.883 583.298C363.784 583.642 363.511 583.869 363.199 583.897L363.202 583.894ZM368.662 564.003C368.562 564.013 368.463 564.003 368.36 563.971C367.934 563.832 367.683 563.343 367.803 562.878C368.722 559.295 369.517 556.021 370.23 552.864C370.336 552.395 370.772 552.111 371.202 552.239C371.635 552.363 371.897 552.842 371.791 553.311C371.074 556.486 370.279 559.778 369.353 563.382C369.261 563.737 368.981 563.974 368.665 564.006L368.662 564.003ZM373.167 543.817C373.089 543.824 373.007 543.817 372.926 543.8C372.489 543.697 372.206 543.228 372.294 542.757C372.929 539.262 373.462 535.832 373.877 532.554C373.937 532.075 374.341 531.749 374.781 531.82C375.221 531.894 375.53 532.341 375.469 532.824C375.051 536.133 374.512 539.603 373.869 543.129C373.799 543.516 373.508 543.785 373.167 543.817ZM375.739 523.21C375.693 523.213 375.647 523.213 375.601 523.21C375.157 523.171 374.824 522.745 374.852 522.263C375.065 518.779 375.154 515.295 375.111 511.915C375.108 511.429 375.466 511.035 375.906 511.042C376.349 511.042 376.715 511.439 376.722 511.925C376.764 515.356 376.672 518.882 376.456 522.415C376.427 522.844 376.122 523.178 375.739 523.217V523.21ZM375.473 502.368H375.466C375.022 502.407 374.629 502.049 374.586 501.563L374.497 500.623C374.196 497.522 373.781 494.383 373.256 491.286C373.174 490.807 373.465 490.356 373.901 490.275C374.348 490.197 374.756 490.519 374.838 490.995C375.37 494.134 375.792 497.32 376.097 500.467L376.186 501.421C376.229 501.903 375.909 502.322 375.469 502.365L375.473 502.368ZM372.011 481.814C371.624 481.853 371.255 481.576 371.152 481.154C370.411 478.153 369.527 474.985 368.371 471.189C368.229 470.724 368.456 470.235 368.878 470.086C369.3 469.94 369.754 470.196 369.896 470.657C371.063 474.485 371.954 477.685 372.706 480.721C372.823 481.193 372.568 481.668 372.142 481.785C372.099 481.796 372.057 481.803 372.014 481.81L372.011 481.814ZM366.093 461.895C365.731 461.93 365.377 461.692 365.249 461.295C364.291 458.29 363.248 455.027 362.117 451.383C361.975 450.922 362.198 450.429 362.617 450.276C363.035 450.127 363.493 450.379 363.638 450.844C364.77 454.484 365.81 457.744 366.767 460.742C366.913 461.203 366.693 461.699 366.274 461.852C366.214 461.873 366.154 461.887 366.093 461.895ZM359.942 442.043C359.573 442.078 359.211 441.83 359.094 441.425C358.133 438.187 357.161 434.82 356.203 431.421C356.072 430.957 356.309 430.471 356.735 430.332C357.157 430.197 357.611 430.464 357.742 430.932C358.7 434.323 359.669 437.679 360.627 440.911C360.765 441.376 360.534 441.865 360.112 442.007C360.059 442.025 360.002 442.036 359.945 442.043H359.942ZM354.287 422.02C353.908 422.056 353.546 421.793 353.432 421.382C352.581 418.218 351.694 414.865 350.772 411.307C350.651 410.839 350.899 410.356 351.325 410.232C351.751 410.111 352.198 410.385 352.318 410.856C353.237 414.407 354.12 417.753 354.972 420.914C355.096 421.382 354.855 421.864 354.429 421.992C354.383 422.006 354.333 422.017 354.284 422.02H354.287ZM349.065 401.856C348.679 401.895 348.31 401.622 348.207 401.2C347.313 397.614 346.49 394.226 345.734 391.068C345.621 390.597 345.88 390.121 346.309 390.008C346.738 389.894 347.178 390.181 347.291 390.653C348.047 393.807 348.87 397.188 349.764 400.771C349.881 401.243 349.629 401.718 349.2 401.839C349.157 401.849 349.115 401.856 349.072 401.863L349.065 401.856Z" fill="#95D8DB"/>
<path d="M311.962 688.379C311.756 688.4 311.543 688.333 311.369 688.177C311.025 687.864 310.975 687.311 311.256 686.938C312.245 685.629 313.249 684.285 314.264 682.901C314.541 682.525 315.044 682.472 315.392 682.777C315.74 683.082 315.8 683.636 315.527 684.012C314.509 685.402 313.498 686.758 312.501 688.074C312.362 688.258 312.164 688.361 311.962 688.382V688.379Z" fill="#95D8DB"/>
<path d="M299.435 674.302C299.123 674.331 298.81 674.161 298.647 673.841C298.062 672.681 297.487 671.486 296.941 670.287C296.742 669.85 296.902 669.325 297.299 669.116C297.696 668.91 298.179 669.091 298.378 669.528C298.913 670.705 299.477 671.88 300.048 673.015C300.265 673.444 300.127 673.976 299.736 674.203C299.637 674.26 299.534 674.292 299.431 674.302H299.435Z" fill="#95D8DB"/>
<path d="M330.06 708.831C329.897 708.845 329.727 708.809 329.574 708.706C327.432 707.312 325.324 705.801 323.313 704.215C322.951 703.928 322.862 703.378 323.118 702.988C323.373 702.594 323.877 702.509 324.239 702.796C326.215 704.35 328.279 705.833 330.379 707.202C330.763 707.454 330.894 707.993 330.67 708.408C330.536 708.657 330.305 708.806 330.06 708.831ZM318.031 699.362C317.821 699.384 317.601 699.313 317.427 699.149C315.537 697.369 313.703 695.478 311.975 693.53C311.663 693.179 311.666 692.622 311.982 692.289C312.298 691.952 312.809 691.969 313.121 692.32C314.817 694.229 316.615 696.084 318.467 697.83C318.807 698.149 318.847 698.702 318.563 699.068C318.424 699.245 318.233 699.345 318.034 699.362H318.031ZM307.707 687.734C307.448 687.758 307.179 687.645 307.001 687.404C305.437 685.296 303.94 683.083 302.549 680.823C302.301 680.419 302.393 679.872 302.762 679.606C303.131 679.34 303.628 679.454 303.88 679.862C305.242 682.079 306.71 684.25 308.243 686.315C308.523 686.694 308.474 687.248 308.133 687.549C308.009 687.659 307.86 687.723 307.707 687.737V687.734Z" fill="#95D8DB"/>
<path d="M338.292 713.549C338.161 713.563 338.026 713.538 337.899 713.478C336.785 712.946 335.66 712.382 334.564 711.796C334.163 711.584 333.989 711.055 334.177 710.622C334.369 710.186 334.844 710.008 335.249 710.221C336.327 710.796 337.427 711.349 338.523 711.871C338.935 712.066 339.126 712.584 338.952 713.027C338.835 713.332 338.576 713.52 338.296 713.549H338.292Z" fill="#95D8DB"/>
<path d="M210.388 289.996C210.388 289.996 203.683 287.417 201.774 284.377C199.866 281.333 200.433 278.857 198.677 277.413C196.925 275.969 193.416 273.081 193.26 271.481C193.104 269.881 193.828 269.005 195.502 269.651C197.18 270.297 199.731 271.662 200.611 272.382C201.487 273.106 205.563 273.518 201.898 269.03C198.234 264.542 188.822 259.001 188.822 259.001C188.822 259.001 193.54 257.738 196.095 259.104C198.649 260.47 199.447 260.392 201.923 260.959C204.399 261.527 206.386 265.369 208.138 266.813C209.891 268.257 216.968 286.551 216.968 286.551L210.388 289.996Z" fill="#FFBF9F"/>
<path d="M225.212 286.381C223.136 287.499 220.49 289.187 217.812 291.699C214.7 294.619 212.668 297.591 211.387 299.819C209.333 297.709 207.283 295.594 205.229 293.483C206.704 291.256 208.772 288.559 211.596 285.846C214.26 283.284 216.871 281.404 219.053 280.045C221.107 282.156 223.158 284.271 225.212 286.381Z" fill="white"/>
<path d="M516.158 272.457C515.467 270.219 514.261 267.182 512.107 263.972C509.652 260.311 506.91 257.838 504.92 256.309C507.222 255.106 509.521 253.904 511.823 252.701C513.629 254.113 516.173 256.437 518.425 259.906C520.589 263.237 521.671 266.373 522.239 268.548C520.213 269.85 518.188 271.152 516.162 272.457H516.158Z" fill="white"/>
<path d="M331.527 198.161C330.275 198.545 328.586 198.367 327.26 197.729C326.469 197.349 324.365 196.115 322.016 187.249C320.803 182.659 320.14 180.161 320.122 176.447C320.101 172.162 320.087 168.515 322.417 165.237C324.929 161.707 330.275 158.447 333.734 159.916C342.188 163.499 339.935 195.582 331.527 198.161Z" fill="#824319"/>
<path d="M345.643 157.915C336.799 158.773 330.158 169.923 328.519 180.874C327.146 180.083 325.724 179.785 324.805 180.222C322.826 181.155 323.109 185.479 323.783 187.927C323.971 188.615 325.348 193.344 327.856 193.447C328.236 193.461 328.629 193.362 329.016 193.184C331.13 201.822 336.97 210.099 345.743 213.685C348.389 214.767 353.895 217.02 359.131 214.923C368.929 211 369.568 194.816 368.479 183.592C366.999 168.33 356.775 156.836 345.643 157.915Z" fill="#FFBF9F"/>
<path d="M357.114 182.73C356.996 182.596 357.169 182.212 357.65 181.8C358.124 181.387 358.898 180.98 359.817 180.764C360.737 180.551 361.621 180.577 362.233 180.757C362.849 180.93 363.163 181.221 363.106 181.389C363.047 181.571 362.682 181.621 362.154 181.7C361.623 181.771 360.908 181.886 360.12 182.067C359.334 182.253 358.633 182.465 358.115 182.625C357.595 182.778 357.238 182.874 357.114 182.73Z" fill="#000E39"/>
<path d="M365.793 186.073C365.793 186.073 364.582 183.273 360.641 183.726C356.699 184.179 356.113 187.054 356.113 187.054C356.113 187.054 358.673 189.22 361.538 188.735C364.728 188.194 365.793 186.073 365.793 186.073Z" fill="white"/>
<mask id="mask0_2007_629" style="mask-type:luminance" maskUnits="userSpaceOnUse" x="356" y="183" width="10" height="6">
<path d="M365.794 186.055C365.794 186.055 364.581 183.275 360.641 183.722C356.7 184.17 356.116 187.022 356.116 187.022C356.116 187.022 358.676 189.173 361.541 188.693C364.73 188.159 365.794 186.055 365.794 186.055Z" fill="white"/>
</mask>
<g mask="url(#mask0_2007_629)">
<path d="M360.681 189.176C362.326 189.312 363.77 188.089 363.906 186.444C364.041 184.799 362.818 183.356 361.173 183.22C359.529 183.084 358.085 184.307 357.949 185.952C357.813 187.597 359.037 189.04 360.681 189.176Z" fill="#000E39"/>
</g>
<path d="M348.798 182.368C348.9 182.208 348.656 181.83 348.083 181.473C347.516 181.112 346.634 180.807 345.629 180.726C344.624 180.649 343.695 180.818 343.079 181.106C342.455 181.388 342.171 181.745 342.258 181.913C342.349 182.096 342.742 182.09 343.312 182.088C343.884 182.079 344.657 182.085 345.518 182.151C346.377 182.221 347.151 182.332 347.724 182.417C348.297 182.496 348.69 182.54 348.798 182.368Z" fill="#000E39"/>
<path d="M340.172 187.288C340.172 187.288 341.001 184.138 345.234 183.985C349.467 183.831 350.546 186.771 350.546 186.771C350.546 186.771 348.192 189.468 345.089 189.415C341.637 189.355 340.172 187.288 340.172 187.288Z" fill="white"/>
<mask id="mask1_2007_629" style="mask-type:luminance" maskUnits="userSpaceOnUse" x="340" y="183" width="11" height="7">
<path d="M340.174 187.292C340.174 187.292 341.002 184.134 345.234 183.983C349.467 183.832 350.548 186.78 350.548 186.78C350.548 186.78 348.196 189.482 345.093 189.427C341.64 189.365 340.174 187.292 340.174 187.292Z" fill="white"/>
</mask>
<g mask="url(#mask1_2007_629)">
<path d="M345.949 189.771C344.235 190.178 342.515 189.118 342.108 187.404C341.701 185.689 342.761 183.97 344.475 183.563C346.189 183.156 347.909 184.216 348.316 185.93C348.723 187.644 347.663 189.364 345.949 189.771Z" fill="#000E39"/>
</g>
<path d="M339.813 170.314C339.387 172.304 336.986 171.896 335.112 174.148C333.154 176.508 334.396 178.625 331.82 183.766C331.107 185.192 330.731 185.589 330.309 185.603C328.915 185.65 327.517 181.488 327.067 178.31C326.634 175.259 325.868 169.852 329.362 167.1C331.998 165.021 336.553 164.854 338.653 167.043C338.781 167.178 340.168 168.664 339.816 170.31L339.813 170.314Z" fill="#824319"/>
<path d="M354.51 198.763C354.297 198.809 354.081 198.685 354.017 198.472C353.95 198.248 354.077 198.014 354.301 197.95C358.263 196.769 358.576 195.882 358.576 195.637C358.576 195.417 358.356 195.194 357.898 194.747C357.487 194.346 356.926 193.8 356.302 192.959C355.759 192.225 355.287 191.43 354.9 190.596C354.805 190.387 354.893 190.135 355.106 190.039C355.326 189.94 355.567 190.036 355.667 190.245C356.028 191.026 356.472 191.771 356.979 192.459C357.565 193.246 358.075 193.743 358.487 194.144C359.03 194.672 359.423 195.052 359.42 195.641C359.413 196.78 357.866 197.769 354.546 198.759C354.535 198.759 354.524 198.766 354.514 198.766L354.51 198.763Z" fill="#DD856B"/>
<path d="M355.647 205.815C355.537 205.84 355.427 205.862 355.31 205.876C353.579 206.142 351.805 205.546 350.319 204.198C349.822 203.747 349.396 203.222 349.056 202.63C348.939 202.428 349.01 202.172 349.208 202.055C349.407 201.942 349.666 202.009 349.783 202.208C350.081 202.722 350.45 203.18 350.879 203.573C352.174 204.748 353.703 205.269 355.179 205.042C357.233 204.73 358.343 203.169 358.638 202.697C358.762 202.499 359.021 202.442 359.219 202.562C359.414 202.687 359.475 202.945 359.354 203.141C359.028 203.662 357.829 205.333 355.643 205.808L355.647 205.815Z" fill="#DD856B"/>
<path d="M367.598 155.833C367.793 155.006 367.867 154.133 367.782 153.232C367.378 149.071 363.855 146.006 359.914 146.389C358.967 146.481 358.087 146.765 357.292 147.201C355.621 145.967 353.543 145.318 351.354 145.531C349.165 145.743 347.281 146.762 345.88 148.273C344.337 146.088 341.793 144.768 339.051 145.034C337.497 145.183 336.103 145.821 334.985 146.79C334.18 146.538 333.318 146.435 332.435 146.52C328.735 146.879 326.042 150.313 326.418 154.187C326.436 154.367 326.468 154.545 326.496 154.722C321.845 155.393 318.507 159.777 318.99 164.726C319.472 169.675 323.818 173.556 328.674 173.084C331.261 172.832 333.464 171.431 334.893 169.412C335.848 171.906 338.278 173.56 340.949 173.301C342.201 173.18 343.315 172.655 344.198 171.864C344.198 171.91 344.198 171.956 344.198 172.002C344.624 176.394 350.03 179.466 356.274 178.859C360.389 178.462 363.827 176.561 365.579 174.056C366.512 174.297 367.498 174.39 368.506 174.294C373.363 173.822 376.899 169.317 376.403 164.23C375.938 159.451 372.082 155.861 367.591 155.833H367.598Z" fill="url(#paint1_linear_2007_629)"/>
<path d="M364.144 244.425L351.426 233.956C352.696 232.449 355.566 230.451 356.839 227.379C357.9 224.825 358.386 222.512 358.617 220.752C360.142 221.217 361.845 221.838 363.647 222.686C366.457 224.006 368.738 225.506 370.508 226.861C368.386 232.715 366.262 238.572 364.14 244.425H364.144Z" fill="white"/>
<path d="M219.055 280.045C218.881 280.155 218.7 280.272 218.52 280.386C218.821 280.397 219.119 280.407 219.421 280.418C219.3 280.294 219.179 280.17 219.059 280.045H219.055Z" fill="white"/>
<path d="M551.602 462.058C551.613 462.118 551.63 462.175 551.641 462.239C551.737 462.813 551.73 463.413 551.641 464.016C560.173 471.005 564.316 477.738 563.883 484.098C562.716 501.215 528.274 511.957 494.966 522.344C490.045 523.88 484.972 525.239 479.772 526.438C478.179 525.179 476.466 523.944 474.642 522.727C474.486 523.27 474.323 523.809 474.153 524.345C475.394 525.182 476.593 526.03 477.736 526.896C476.15 527.247 474.55 527.577 472.939 527.9C472.723 528.489 472.499 529.077 472.269 529.659C474.656 529.191 477.03 528.705 479.371 528.173C480.808 529.329 482.152 530.514 483.404 531.72C487.991 536.151 500.181 547.915 499.624 562.839C498.893 582.46 476.178 597.066 454.208 611.192C444.953 617.141 423.281 631.076 396.189 638.806C392.592 639.831 388.97 640.736 385.344 641.523C384.741 640.938 384.127 640.374 383.517 639.806C383.13 640.179 382.751 640.544 382.371 640.909C382.733 641.246 383.102 641.576 383.46 641.92C382.566 642.105 381.669 642.275 380.775 642.445C380.065 643.127 379.356 643.804 378.66 644.468C380.725 644.102 382.79 643.708 384.851 643.272C386.667 645.071 388.445 646.958 390.186 648.945C399.367 659.417 411.94 673.759 409.276 690.053C405.029 716.017 363.427 733.191 328.417 731.623C328.481 732.176 328.538 732.712 328.587 733.23C330.003 733.29 331.422 733.329 332.855 733.329C367.518 733.329 406.665 715.964 410.865 690.309C413.653 673.266 400.261 657.991 391.4 647.88C389.871 646.135 388.31 644.468 386.713 642.864C390.034 642.123 393.344 641.289 396.639 640.349C423.962 632.551 445.776 618.528 455.088 612.54C477.406 598.194 500.482 583.354 501.241 562.896C501.823 547.255 489.261 535.126 484.529 530.56C483.536 529.599 482.479 528.652 481.358 527.712C486.179 526.573 490.883 525.299 495.459 523.873C529.285 513.323 564.26 502.418 565.501 484.205C566.019 476.624 560.595 469.149 551.62 462.054L551.602 462.058Z" fill="white"/>
<path d="M617.696 357.193C616.281 334.021 558.612 317.986 498.102 307.312C497.648 307.78 497.187 308.245 496.719 308.706C503.75 309.937 510.746 311.235 517.621 312.612C581.934 325.475 615.067 340.509 616.093 357.292C616.444 363.025 612.786 372.93 577.145 392.686C568.811 397.305 560.386 401.53 551.9 405.397C551.947 406.042 551.89 406.656 551.748 407.238C560.684 403.194 569.411 398.813 577.925 394.094C613.954 374.122 618.104 363.884 617.696 357.197V357.193Z" fill="white"/>
<path d="M276.787 638.926C239.662 630.866 210.494 617.872 200.866 609.195C198.532 607.091 197.369 605.239 197.592 603.976C197.702 603.348 198.181 602.742 199.011 602.17C203.084 599.371 214.737 598.027 229.836 598.027C249.46 598.027 274.9 600.304 297.054 604.625C305.121 606.2 314.057 607.946 323.355 610.411L325.764 609.45C315.473 606.584 305.735 604.682 297.359 603.05C261.213 595.998 208.877 593.44 198.099 600.847C196.9 601.67 196.194 602.632 196.01 603.699C195.68 605.58 196.954 607.829 199.792 610.387C209.576 619.202 239.052 632.374 276.446 640.494C286.245 642.623 297.54 644.617 309.772 645.968C310.066 645.457 310.354 644.95 310.641 644.446C298.207 643.102 286.72 641.083 276.787 638.926Z" fill="white"/>
<path d="M272.105 383.715C285.92 385.304 299.751 387.191 313.14 389.362C317.844 390.125 322.58 390.927 327.33 391.764C327.323 391.211 327.319 390.668 327.315 390.132C322.658 389.316 318.014 388.529 313.399 387.78C299.847 385.584 285.944 383.679 272.12 382.076C272.194 382.608 272.187 383.161 272.105 383.718V383.715Z" fill="white"/>
<path d="M274.732 433.788C274.807 434.245 274.817 434.717 274.775 435.196C295.641 438.588 316.419 440.947 336.754 442.227C336.558 441.66 336.363 441.092 336.168 440.524C314.358 439.152 293.687 436.636 274.683 433.543C274.7 433.628 274.722 433.706 274.736 433.791L274.732 433.788Z" fill="white"/>
<path d="M254.42 694.874C251.553 690.599 250.5 686.984 251.372 684.423C252.937 679.84 262.451 675.192 297.543 677.693C297.227 677.122 296.922 676.565 296.632 676.015C267.687 674.018 252.344 676.615 249.854 683.905C248.811 686.96 249.928 691.064 253.086 695.772C260.99 707.556 283.807 724.847 311.762 731.02C311.379 730.41 310.974 729.764 310.563 729.104C283.758 722.761 262.029 706.219 254.42 694.878V694.874Z" fill="white"/>
<path d="M303.333 526.332C275.052 522.248 239.857 517.168 211.346 511.446C170.486 503.244 162.099 497.338 162.255 493.829C162.326 492.265 164.281 490.672 167.91 489.228C179.965 484.428 208.614 481.75 244.228 481.75C276.184 481.75 313.734 483.907 349.894 488.618C349.788 488.05 349.685 487.486 349.575 486.929C340.273 485.723 330.695 484.659 320.893 483.751C255.544 477.713 188.085 479.462 167.318 487.735C162.937 489.48 160.755 491.449 160.652 493.755C160.091 506.235 227.714 517.037 303.113 527.921C318.243 530.106 335.051 532.121 352.651 533.551C352.697 533.019 352.739 532.487 352.778 531.951C335.215 530.521 318.438 528.51 303.333 526.328V526.332Z" fill="white"/>
<path d="M472.266 529.66C472.496 529.078 472.72 528.489 472.936 527.9C435.421 535.403 392.109 535.155 352.778 531.955C352.739 532.49 352.697 533.023 352.65 533.555C391.758 536.733 434.804 536.996 472.266 529.66Z" fill="white"/>
<path d="M472.266 529.66C472.496 529.078 472.72 528.489 472.936 527.9C435.421 535.403 392.109 535.155 352.778 531.955C352.739 532.49 352.697 533.023 352.65 533.555C391.758 536.733 434.804 536.996 472.266 529.66Z" fill="white"/>
<path d="M378.655 644.471C379.351 643.808 380.06 643.13 380.77 642.449C356.604 647.057 332.193 646.774 310.639 644.443C310.351 644.95 310.06 645.458 309.77 645.965C330.913 648.299 354.844 648.689 378.655 644.468V644.471Z" fill="white"/>
<path d="M378.655 644.471C379.351 643.808 380.06 643.13 380.77 642.449C356.604 647.057 332.193 646.774 310.639 644.443C310.351 644.95 310.06 645.458 309.77 645.965C330.913 648.299 354.844 648.689 378.655 644.468V644.471Z" fill="white"/>
<path d="M326.972 731.555C321.349 731.218 315.861 730.356 310.564 729.101C310.976 729.76 311.38 730.406 311.764 731.016C316.663 732.098 321.714 732.847 326.876 733.155C327.44 733.191 328.011 733.209 328.579 733.23C328.529 732.712 328.472 732.176 328.408 731.623C327.93 731.602 327.451 731.577 326.972 731.548V731.555Z" fill="white"/>
<path d="M326.972 731.555C321.349 731.218 315.861 730.356 310.564 729.101C310.976 729.76 311.38 730.406 311.764 731.016C316.663 732.098 321.714 732.847 326.876 733.155C327.44 733.191 328.011 733.209 328.579 733.23C328.529 732.712 328.472 732.176 328.408 731.623C327.93 731.602 327.451 731.577 326.972 731.548V731.555Z" fill="url(#paint2_linear_2007_629)"/>
<g opacity="0.81">
<path d="M275.745 452.04C217.339 404.315 159.507 470.831 102.25 418.044C108.302 392.672 114.085 366.371 119.604 339.204C168.844 361.276 218.658 287.335 269.047 318.696C271.545 363.813 273.776 408.246 275.745 452.04Z" fill="white"/>
<path d="M148.744 425.256C144.15 424.968 139.56 424.312 134.973 423.155C136.846 410.533 138.676 397.787 140.461 384.924C144.778 385.282 149.099 385.194 153.423 384.775C151.909 398.376 150.348 411.871 148.744 425.256Z" fill="#8ACBD6"/>
<path d="M167.757 424.635C163.152 425.142 158.551 425.448 153.953 425.426C155.223 413.876 156.465 402.25 157.671 390.551C162.041 390.001 166.412 389.156 170.79 388.135C169.811 400.37 168.799 412.538 167.757 424.635Z" fill="#8ACBD6"/>
<path d="M186.81 421.694C182.195 422.532 177.583 423.333 172.975 423.979C174.695 401.913 176.309 379.631 177.821 357.14C182.017 355.615 186.221 353.979 190.428 352.34C189.329 375.662 188.123 398.781 186.81 421.698V421.694Z" fill="#8ACBD6"/>
<path d="M205.908 418.367C201.282 419.062 196.66 419.892 192.041 420.736C192.467 412.212 192.875 403.662 193.272 395.088C197.738 393.956 202.212 392.846 206.689 391.881C206.444 400.735 206.185 409.565 205.908 418.367Z" fill="#8ACBD6"/>
<path d="M225.048 416.6C220.411 416.682 215.778 417.072 211.148 417.646C211.634 397.692 212.05 377.602 212.397 357.381C216.69 356.214 220.986 355.239 225.285 354.575C225.278 375.385 225.197 396.06 225.048 416.6Z" fill="#8ACBD6"/>
<path d="M244.234 418.342C239.587 417.338 234.943 416.813 230.306 416.642C230.338 387.9 230.232 358.899 229.994 329.629C234.166 328.99 238.345 328.703 242.524 328.884C243.23 358.985 243.801 388.798 244.237 418.342H244.234Z" fill="#8ACBD6"/>
</g>
<g opacity="0.81">
<path d="M551.777 464.825C494.853 429.52 437.933 507.931 381.01 472.629C381.01 432.865 381.01 393.105 381.01 353.341C437.933 393.846 494.853 320.639 551.777 361.145V464.825Z" fill="white"/>
<path d="M434.712 404.854C425.623 423.763 431.587 445.555 448.001 449.656C459.052 424.969 470.102 399.927 481.153 376.197C464.511 372.611 443.797 385.939 434.709 404.854H434.712Z" fill="#ABDADD"/>
<path d="M483.839 376.854C483.711 376.822 483.58 376.797 483.452 376.769C478.173 388.039 472.891 399.639 467.612 411.378C478.716 404.922 489.823 398.604 500.927 394.112C498.564 385.843 492.633 379.082 483.839 376.854Z" fill="#98D1D3"/>
<path d="M450.679 450.238C467.385 453.438 488.081 438.903 496.9 421.198C501.079 412.595 501.838 404.01 499.71 396.553C488.606 401.193 477.499 407.6 466.395 414.082C461.031 426.033 455.664 438.116 450.3 450.146C450.428 450.174 450.548 450.209 450.676 450.238H450.679Z" fill="#ABDADD"/>
<path d="M527.664 440.486C515.198 438.627 502.736 440.681 490.27 444.26C486.392 439.815 482.515 435.466 478.634 431.138C478.495 430.985 478.549 430.694 478.751 430.492C478.953 430.29 479.226 430.251 479.364 430.404C483.153 434.643 486.946 438.903 490.734 443.26C503.044 439.773 515.354 437.8 527.664 439.645C527.909 439.68 528.107 439.9 528.107 440.134C528.107 440.365 527.909 440.525 527.664 440.486Z" fill="#8ACBD6"/>
<path d="M487.408 390.76C487.237 390.806 487.074 390.749 487 390.603C486.904 390.408 487.007 390.125 487.234 389.972C493.484 385.729 499.739 381.859 505.989 378.666C515.131 377.772 524.277 378.237 533.419 381.007C533.664 381.082 533.862 381.33 533.862 381.561C533.862 381.791 533.664 381.916 533.419 381.845C524.305 379.092 515.195 378.627 506.082 379.514C499.916 382.671 493.751 386.492 487.585 390.682C487.528 390.721 487.468 390.745 487.411 390.763L487.408 390.76Z" fill="#8ACBD6"/>
<path d="M445.822 409.54C445.666 409.583 445.514 409.54 445.432 409.409C441.64 403.29 437.848 396.982 434.055 390.419C422.345 392.342 410.635 392.445 398.928 388.745C398.683 388.667 398.484 388.394 398.484 388.135C398.484 387.876 398.683 387.734 398.928 387.808C410.812 391.572 422.7 391.42 434.584 389.422C438.461 396.113 442.335 402.538 446.213 408.771C446.33 408.959 446.248 409.253 446.035 409.427C445.968 409.48 445.897 409.519 445.826 409.537L445.822 409.54Z" fill="#8ACBD6"/>
<path d="M447.15 408.281C447.15 409.274 446.359 410.296 445.38 410.555C444.404 410.814 443.609 410.207 443.609 409.214C443.609 408.217 444.4 407.213 445.38 406.958C446.355 406.702 447.15 407.291 447.15 408.281Z" fill="#8ACBD6"/>
<path d="M488.734 390.423C488.734 391.381 487.943 392.36 486.964 392.619C485.988 392.878 485.193 392.314 485.193 391.352C485.193 390.391 485.984 389.394 486.964 389.142C487.943 388.887 488.734 389.469 488.734 390.426V390.423Z" fill="#8ACBD6"/>
<path d="M480.77 430.194C480.77 431.159 479.979 432.198 479 432.521C478.021 432.844 477.229 432.326 477.229 431.358C477.229 430.389 478.021 429.339 479 429.02C479.979 428.701 480.77 429.229 480.77 430.194Z" fill="#8ACBD6"/>
<path d="M425.364 385.996C416.587 386.634 407.811 385.971 399.034 383.175C398.729 383.079 398.484 382.739 398.484 382.416V381.707C398.484 381.387 398.729 381.21 399.034 381.306C407.811 384.112 416.587 384.789 425.364 384.165C425.669 384.144 425.914 384.378 425.914 384.69C425.914 384.921 425.914 385.151 425.914 385.382C425.914 385.694 425.669 385.967 425.364 385.992V385.996Z" fill="#8ACBD6"/>
<path d="M527.118 431.577C518.341 430.283 509.565 430.911 500.788 432.624C500.483 432.684 500.238 432.493 500.238 432.198V431.546C500.238 431.251 500.483 430.964 500.788 430.903C509.565 429.201 518.341 428.587 527.118 429.892C527.423 429.938 527.668 430.212 527.668 430.499V431.138C527.668 431.425 527.423 431.62 527.118 431.574V431.577Z" fill="#8ACBD6"/>
<path d="M533.308 374.285C524.532 371.592 515.755 371.021 506.979 371.734C506.674 371.759 506.429 371.543 506.429 371.248V370.599C506.429 370.305 506.674 370.046 506.979 370.021C515.755 369.322 524.532 369.907 533.308 372.611C533.613 372.703 533.858 373.015 533.858 373.302V373.937C533.858 374.225 533.613 374.377 533.308 374.285Z" fill="#8ACBD6"/>
<path d="M526.231 375.924C519.814 374.764 513.396 374.615 506.979 375.155C506.674 375.179 506.429 374.963 506.429 374.672V374.023C506.429 373.728 506.674 373.469 506.979 373.445C513.396 372.916 519.814 373.072 526.231 374.243C526.536 374.3 526.781 374.58 526.781 374.867V375.506C526.781 375.793 526.536 375.981 526.231 375.924Z" fill="#8ACBD6"/>
<path d="M512.072 434.494C508.309 434.774 504.548 435.32 500.784 436.069C500.479 436.129 500.234 435.941 500.234 435.647V434.994C500.234 434.699 500.479 434.409 500.784 434.352C504.548 433.61 508.309 433.071 512.072 432.794C512.378 432.773 512.622 432.993 512.622 433.284C512.622 433.5 512.622 433.713 512.622 433.93C512.622 434.22 512.378 434.476 512.072 434.497V434.494Z" fill="#8ACBD6"/>
</g>
<g filter="url(#filter0_f_2007_629)">
<ellipse cx="337" cy="785" rx="180" ry="6" fill="black" fill-opacity="0.17"/>
</g>
<defs>
<filter id="filter0_f_2007_629" x="145.1" y="767.1" width="383.8" height="35.8" filterUnits="userSpaceOnUse" color-interpolation-filters="sRGB">
<feFlood flood-opacity="0" result="BackgroundImageFix"/>
<feBlend mode="normal" in="SourceGraphic" in2="BackgroundImageFix" result="shape"/>
<feGaussianBlur stdDeviation="5.95" result="effect1_foregroundBlur_2007_629"/>
</filter>
<linearGradient id="paint0_linear_2007_629" x1="384.461" y1="211.772" x2="333.956" y2="396.34" gradientUnits="userSpaceOnUse">
<stop stop-color="#F4AE00"/>
<stop offset="1" stop-color="#EA7A00"/>
</linearGradient>
<linearGradient id="paint1_linear_2007_629" x1="349.118" y1="180.912" x2="345.609" y2="140.254" gradientUnits="userSpaceOnUse">
<stop stop-color="#824319"/>
<stop offset="1" stop-color="#D86D25"/>
</linearGradient>
<linearGradient id="paint2_linear_2007_629" x1="440.751" y1="288.381" x2="319.029" y2="733.148" gradientUnits="userSpaceOnUse">
<stop stop-color="#F4AE00"/>
<stop offset="1" stop-color="#EA7A00"/>
</linearGradient>
</defs>
</svg>
