<svg width="58" height="57" viewBox="0 0 58 57" fill="none" xmlns="http://www.w3.org/2000/svg">
<path d="M28.9137 0C45.0857 0 57.9016 12.5928 57.9016 28.4839C57.9016 44.3749 45.0857 56.9677 28.9137 56.9677C12.7417 56.9677 0 44.4495 0 28.4839C0 12.5182 12.7417 0 28.9137 0ZM28.9137 46.6971C38.7505 46.6971 46.5011 38.6769 46.5011 28.4839C46.5011 18.2908 38.7505 10.2707 28.9137 10.2707C19.077 10.2707 11.4005 18.2908 11.4005 28.4839C11.4005 38.6769 19.077 46.6971 28.9137 46.6971Z" fill="#316FF6"/>
<path d="M28.9509 18.678C24.8331 18.678 21.4797 22.002 21.4797 26.0832C21.4797 31.8864 28.2474 37.8789 28.5382 38.1328C28.6554 38.2344 28.8055 38.2898 28.9509 38.2898C29.0963 38.2898 29.2464 38.239 29.3636 38.1375C29.6497 37.8835 36.4221 31.891 36.4221 26.0878C36.4221 22.002 33.0687 18.6826 28.9509 18.6826V18.678ZM28.9509 30.1182C26.6622 30.1182 24.8003 28.2854 24.8003 26.0324C24.8003 23.7794 26.6622 21.9466 28.9509 21.9466C31.2396 21.9466 33.1016 23.7794 33.1016 26.0324C33.1016 28.2854 31.2396 30.1182 28.9509 30.1182Z" fill="#FF1010"/>
</svg>
