<svg width="29" height="29" viewBox="0 0 29 29" fill="none" xmlns="http://www.w3.org/2000/svg">
<path fill-rule="evenodd" clip-rule="evenodd" d="M13.2094 14.9706V18.4931C13.2094 19.1941 12.9311 19.866 12.4353 20.3609C11.9404 20.8567 11.2685 21.135 10.5675 21.135H4.40311C3.70213 21.135 3.03021 20.8567 2.5353 20.3609C2.03951 19.866 1.76123 19.1941 1.76123 18.4931V9.68686C1.76123 8.22766 2.94391 7.04498 4.40311 7.04498H7.04498V10.5675C7.04498 11.2685 7.32326 11.9404 7.81905 12.4353C8.31396 12.9311 8.98588 13.2094 9.68686 13.2094H14.9706V7.04498C14.9706 6.344 15.2489 5.67209 15.7447 5.17718C16.2396 4.68138 16.9115 4.40311 17.6125 4.40311H19.3737C19.3737 2.94391 20.5564 1.76123 22.0156 1.76123H23.7769C25.2361 1.76123 26.4187 2.94391 26.4187 4.40311V6.16436C26.4187 7.62355 25.2361 8.80623 23.7769 8.80623H22.0156C20.5564 8.80623 19.3737 7.62355 19.3737 6.16436H17.6125C17.3791 6.16436 17.1546 6.25682 16.9899 6.42238C16.8243 6.58706 16.7319 6.81162 16.7319 7.04498V13.2094H19.3737C19.3737 11.7502 20.5564 10.5675 22.0156 10.5675H23.7769C25.2361 10.5675 26.4187 11.7502 26.4187 13.2094V14.9706C26.4187 16.4298 25.2361 17.6125 23.7769 17.6125H22.0156C20.5564 17.6125 19.3737 16.4298 19.3737 14.9706H16.7319V21.135C16.7319 21.3683 16.8243 21.5929 16.9899 21.7576C17.1546 21.9231 17.3791 22.0156 17.6125 22.0156H19.3737C19.3737 20.5564 20.5564 19.3737 22.0156 19.3737H23.7769C25.2361 19.3737 26.4187 20.5564 26.4187 22.0156V23.7769C26.4187 25.2361 25.2361 26.4187 23.7769 26.4187H22.0156C20.5564 26.4187 19.3737 25.2361 19.3737 23.7769H17.6125C16.9115 23.7769 16.2396 23.4986 15.7447 23.0028C15.2489 22.5079 14.9706 21.836 14.9706 21.135V14.9706H13.2094ZM8.80623 7.04498H8.9577C9.65779 7.04498 10.3297 7.32326 10.8255 7.81905L12.4353 9.42883C12.9311 9.92463 13.2094 10.5965 13.2094 11.2966V11.4481H9.68686C9.45349 11.4481 9.22893 11.3556 9.06425 11.1901C8.8987 11.0254 8.80623 10.8008 8.80623 10.5675V7.04498Z" fill="#316FF6"/>
</svg>
