<svg width="48" height="48" viewBox="0 0 48 48" fill="none" xmlns="http://www.w3.org/2000/svg">
<g filter="url(#filter0_d_95_260)">
<rect x="4" y="4" width="40" height="40" rx="6" fill="white"/>
</g>
<g clip-path="url(#clip0_95_260)">
<path d="M25.2092 14.8977C25.1683 14.1344 24.3882 14.2642 23.627 14.2642C24.1893 14.414 24.7212 14.6224 25.2092 14.8977Z" fill="black"/>
<path d="M17.0717 12.9854C14.1166 12.9854 12.7564 16.7258 15.1188 18.607C15.9241 16.4567 17.5272 14.9126 19.6289 14.3032C19.054 13.5084 18.1251 12.9854 17.0717 12.9854Z" fill="black"/>
<path d="M10.9665 18.0213C11.0869 18.4077 11.243 18.7784 11.4283 19.1297L10.4576 20.101C10.1969 20.3616 10.1969 20.7848 10.4576 21.046L12.1687 22.7576C12.2933 22.8822 12.464 22.9523 12.642 22.9523C12.8179 22.9523 12.9875 22.8822 13.1143 22.7576L14.084 21.7863C14.2295 21.8633 14.3908 21.9105 14.5415 21.9769C14.5415 21.9659 14.5404 21.9544 14.5404 21.9433C14.5404 21.1496 14.6316 20.4009 14.7939 19.6978C13.6231 18.9443 12.842 17.6364 12.842 16.1432C12.842 13.8107 14.7394 11.9127 17.0714 11.9127C18.6505 11.9127 20.0138 12.7918 20.7416 14.0761C21.5186 13.9798 22.2485 13.9798 23.127 14.1458C23.014 13.8039 22.881 13.4693 22.7145 13.1557L23.6852 12.184C23.8118 12.0588 23.882 11.8886 23.882 11.7117C23.882 11.5347 23.8118 11.3646 23.6852 11.2394L21.9751 9.52891C21.8443 9.39803 21.6736 9.33309 21.5029 9.33309C21.3322 9.33309 21.1615 9.39803 21.0316 9.52891L20.0578 10.5006C19.706 10.3143 19.3364 10.1582 18.949 10.0404V8.66756C18.949 8.29899 18.6515 8 18.2819 8H15.8619C15.4944 8 15.1938 8.29899 15.1938 8.66756V10.0404C14.8074 10.1582 14.4377 10.3142 14.0848 10.5006L13.1143 9.52992C12.9834 9.39904 12.8127 9.33411 12.642 9.33411C12.4713 9.33411 12.2996 9.39904 12.1697 9.52938L10.4576 11.2399C10.333 11.3656 10.2629 11.5352 10.2629 11.7127C10.2629 11.8902 10.333 12.0598 10.4576 12.185L11.4283 13.1562C11.2429 13.508 11.0869 13.8782 10.9687 14.2646H9.59688C9.22722 14.2646 8.92871 14.5641 8.92871 14.9332V17.3532C8.92871 17.7212 9.22722 18.0213 9.59688 18.0213H10.9665Z" fill="black"/>
<path d="M31.9293 30.9705C32.9995 30.3835 33.7346 29.26 33.7346 27.9561C33.7346 26.0534 32.1859 24.5059 30.2832 24.5059C29.6141 24.5059 28.9941 24.7059 28.4643 25.0367C28.1471 26.2996 27.6475 27.5075 26.9941 28.5567C28.8464 28.9049 30.546 29.7484 31.9293 30.9705Z" fill="black"/>
<path d="M39.0712 26.6504C39.0712 26.2519 38.7476 25.9293 38.3507 25.9293H36.8702C36.7423 25.512 36.5727 25.112 36.3717 24.7324L37.4198 23.6843C37.556 23.5492 37.6313 23.366 37.6313 23.1749C37.6313 22.9837 37.5559 22.8004 37.4198 22.6649L35.5747 20.8193C35.4345 20.6783 35.2491 20.6077 35.0649 20.6077C34.8805 20.6077 34.6962 20.6783 34.556 20.8193L33.5057 21.8679C33.1265 21.6669 32.7276 21.4984 32.3087 21.371V19.8904C32.3087 19.4925 31.9872 19.1699 31.5893 19.1699H28.9788C28.8039 19.1699 28.65 19.24 28.5244 19.3438C28.7442 20.1458 28.8647 21.0156 28.8647 21.9433C28.8647 22.5323 28.8187 23.1304 28.7328 23.725C29.2186 23.5459 29.7359 23.4335 30.2836 23.4335C32.7778 23.4335 34.8072 25.4624 34.8072 27.956C34.8072 29.5499 33.9748 30.9467 32.7255 31.7525C33.6345 32.7494 34.357 33.9321 34.8272 35.2573C34.9046 35.284 34.9852 35.3034 35.0659 35.3034C35.2502 35.3034 35.4345 35.2333 35.5759 35.0923L37.422 33.2467C37.5572 33.1116 37.6315 32.9284 37.6315 32.7373C37.6315 32.5462 37.5572 32.363 37.422 32.2273L36.3717 31.1786C36.5728 30.7996 36.7424 30.3995 36.8702 29.9817H38.3508C38.5414 29.9817 38.7267 29.9064 38.8608 29.7701C38.9959 29.6356 39.0724 29.4519 39.0724 29.2607L39.0712 26.6504Z" fill="black"/>
<path d="M33.3572 35.9096C32.2377 32.6158 29.2796 30.3504 25.8648 30.042C24.7213 31.2529 23.3056 32.0211 21.7023 32.0211C20.1002 32.0211 18.6834 31.253 17.541 30.042C14.1241 30.3504 11.1659 32.6158 10.0464 35.9102L9.42763 37.7317C9.25062 38.2558 9.33538 38.8333 9.65797 39.283C9.98049 39.7329 10.4999 39.9999 11.0528 39.9999H32.3508C32.9047 39.9999 33.4241 39.7329 33.7467 39.283C34.0682 38.8333 34.1541 38.2558 33.976 37.7317L33.3572 35.9096Z" fill="black"/>
<path d="M16.1484 21.9429C16.1484 26.0284 18.6355 30.4123 21.7014 30.4123C24.7686 30.4123 27.2555 26.0284 27.2555 21.9429C27.2556 13.4741 16.1484 13.4573 16.1484 21.9429Z" fill="black"/>
</g>
<defs>
<filter id="filter0_d_95_260" x="0" y="0" width="48" height="48" filterUnits="userSpaceOnUse" color-interpolation-filters="sRGB">
<feFlood flood-opacity="0" result="BackgroundImageFix"/>
<feColorMatrix in="SourceAlpha" type="matrix" values="0 0 0 0 0 0 0 0 0 0 0 0 0 0 0 0 0 0 127 0" result="hardAlpha"/>
<feOffset/>
<feGaussianBlur stdDeviation="2"/>
<feComposite in2="hardAlpha" operator="out"/>
<feColorMatrix type="matrix" values="0 0 0 0 0 0 0 0 0 0 0 0 0 0 0 0 0 0 0.25 0"/>
<feBlend mode="normal" in2="BackgroundImageFix" result="effect1_dropShadow_95_260"/>
<feBlend mode="normal" in="SourceGraphic" in2="effect1_dropShadow_95_260" result="shape"/>
</filter>
<clipPath id="clip0_95_260">
<rect width="32" height="32" fill="white" transform="translate(8 8)"/>
</clipPath>
</defs>
</svg>
