<svg width="29" height="29" viewBox="0 0 29 29" fill="none" xmlns="http://www.w3.org/2000/svg">
<path d="M20.4342 24.6575C19.4655 24.6575 18.5849 24.0411 18.2327 23.0724C18.2327 22.9843 18.2327 22.8962 18.1446 22.8962H10.307C10.307 22.9843 10.307 23.0724 10.219 23.0724C9.95479 24.0411 9.07417 24.6575 8.10548 24.6575C7.5771 24.6575 7.22485 25.0097 7.22485 25.5381C7.22485 26.0665 7.5771 26.4187 8.10548 26.4187H20.4342C20.9626 26.4187 21.3149 26.0665 21.3149 25.5381C21.3149 25.0097 20.9626 24.6575 20.4342 24.6575Z" fill="#316FF6"/>
<path d="M23.9568 2.64188H4.58304C3.08597 2.64188 1.94116 3.78669 1.94116 5.28375V18.4931C1.94116 19.9902 3.08597 21.135 4.58304 21.135H10.6594H17.7924H23.9568C25.4539 21.135 26.5987 19.9902 26.5987 18.4931V5.28375C26.5987 3.78669 25.4539 2.64188 23.9568 2.64188ZM22.1955 13.2094H17.7924C17.5282 13.2094 17.264 13.0333 17.0879 12.8571L16.2954 11.6243L15.1505 14.4423C14.9744 14.7064 14.6222 14.9706 14.2699 14.9706C13.9177 14.9706 13.6535 14.7945 13.4774 14.4423L12.2445 11.9765L11.3639 12.8571C11.1877 13.1213 11.0116 13.2094 10.7474 13.2094H6.34429C5.81591 13.2094 5.46366 12.8571 5.46366 12.3288C5.46366 11.8004 5.81591 11.4481 6.34429 11.4481H10.3952L11.8922 9.95106C12.0684 9.77494 12.4206 9.68688 12.6848 9.68688C12.949 9.77494 13.2132 9.95106 13.3012 10.1272L14.1819 11.8884L15.2386 9.33463C15.3267 9.07044 15.6789 8.80625 15.9431 8.80625C16.2954 8.80625 16.5595 8.89431 16.7357 9.1585L18.2327 11.4481H22.1955C22.7239 11.4481 23.0762 11.8004 23.0762 12.3288C23.0762 12.8571 22.7239 13.2094 22.1955 13.2094Z" fill="#316FF6"/>
</svg>
