<svg width="29" height="29" viewBox="0 0 29 29" fill="none" xmlns="http://www.w3.org/2000/svg">
<path d="M0.0549316 20.6396C0.0549316 21.7036 0.917394 22.566 1.9813 22.566H26.1985C27.2624 22.566 28.1249 21.7036 28.1249 20.6396V19.2637H0.0549316V20.6396Z" fill="#316FF6"/>
<path d="M19.5939 26.5288H18.2179V24.2172H9.96206V26.5288H8.58608C8.13014 26.5288 7.7605 26.8984 7.7605 27.3544C7.7605 27.8103 8.13014 28.18 8.58608 28.18H19.5939C20.0498 28.18 20.4195 27.8103 20.4195 27.3544C20.4195 26.8984 20.0498 26.5288 19.5939 26.5288Z" fill="#316FF6"/>
<path d="M8.58594 7.4303C9.34587 7.4303 9.96191 6.81425 9.96191 6.05432C9.96191 5.29439 9.34587 4.67834 8.58594 4.67834C7.82601 4.67834 7.20996 5.29439 7.20996 6.05432C7.20996 6.81425 7.82601 7.4303 8.58594 7.4303Z" fill="#316FF6"/>
<path d="M8.58608 9.08142C6.61343 9.08142 5.00854 10.6863 5.00854 12.659V12.9342H12.1636V12.659C12.1636 10.6863 10.5587 9.08142 8.58608 9.08142Z" fill="#316FF6"/>
<path d="M26.1985 0H1.9813C0.917394 0 0.0549316 0.862462 0.0549316 1.92637V17.6125H28.1249V1.92637C28.1249 0.862462 27.2624 0 26.1985 0ZM13.8147 13.7598C13.8147 14.2157 13.4451 14.5854 12.9891 14.5854H4.18286C3.72692 14.5854 3.35728 14.2157 3.35728 13.7598V12.659C3.35728 10.6139 4.53764 8.8396 6.25266 7.98072C5.8195 7.45697 5.55884 6.78549 5.55884 6.0543C5.55884 4.38513 6.91682 3.02715 8.58599 3.02715C10.2552 3.02715 11.6131 4.38513 11.6131 6.0543C11.6131 6.78549 11.3525 7.45697 10.9193 7.98072C12.6343 8.8396 13.8147 10.6139 13.8147 12.659V13.7598ZM17.3922 14.5854H16.2915C15.8355 14.5854 15.4659 14.2157 15.4659 13.7598C15.4659 13.3038 15.8355 12.9342 16.2915 12.9342H17.3922C17.8482 12.9342 18.2178 13.3038 18.2178 13.7598C18.2178 14.2157 17.8482 14.5854 17.3922 14.5854ZM17.3922 11.283H16.2915C15.8355 11.283 15.4659 10.9134 15.4659 10.4574C15.4659 10.0015 15.8355 9.63183 16.2915 9.63183H17.3922C17.8482 9.63183 18.2178 10.0015 18.2178 10.4574C18.2178 10.9134 17.8482 11.283 17.3922 11.283ZM17.3922 7.98066H16.2915C15.8355 7.98066 15.4659 7.61102 15.4659 7.15508C15.4659 6.69913 15.8355 6.32949 16.2915 6.32949H17.3922C17.8482 6.32949 18.2178 6.69913 18.2178 7.15508C18.2178 7.61102 17.8482 7.98066 17.3922 7.98066ZM17.3922 4.67832H16.2915C15.8355 4.67832 15.4659 4.30868 15.4659 3.85273C15.4659 3.39679 15.8355 3.02715 16.2915 3.02715H17.3922C17.8482 3.02715 18.2178 3.39679 18.2178 3.85273C18.2178 4.30868 17.8482 4.67832 17.3922 4.67832ZM23.9969 14.5854H20.6946C20.2386 14.5854 19.869 14.2157 19.869 13.7598C19.869 13.3038 20.2386 12.9342 20.6946 12.9342H23.9969C24.4529 12.9342 24.8225 13.3038 24.8225 13.7598C24.8225 14.2157 24.4529 14.5854 23.9969 14.5854ZM23.9969 11.283H20.6946C20.2386 11.283 19.869 10.9134 19.869 10.4574C19.869 10.0015 20.2386 9.63183 20.6946 9.63183H23.9969C24.4529 9.63183 24.8225 10.0015 24.8225 10.4574C24.8225 10.9134 24.4529 11.283 23.9969 11.283ZM23.9969 7.98066H20.6946C20.2386 7.98066 19.869 7.61102 19.869 7.15508C19.869 6.69913 20.2386 6.32949 20.6946 6.32949H23.9969C24.4529 6.32949 24.8225 6.69913 24.8225 7.15508C24.8225 7.61102 24.4529 7.98066 23.9969 7.98066ZM23.9969 4.67832H20.6946C20.2386 4.67832 19.869 4.30868 19.869 3.85273C19.869 3.39679 20.2386 3.02715 20.6946 3.02715H23.9969C24.4529 3.02715 24.8225 3.39679 24.8225 3.85273C24.8225 4.30868 24.4529 4.67832 23.9969 4.67832Z" fill="#316FF6"/>
</svg>
