<svg width="75" height="75" viewBox="0 0 75 75" fill="none" xmlns="http://www.w3.org/2000/svg">
<rect width="75" height="75" rx="22" fill="#C4DEFF"/>
<path d="M38 17.6875C33.9826 17.6875 30.0554 18.8788 26.715 21.1108C23.3746 23.3427 20.7711 26.5151 19.2337 30.2267C17.6963 33.9384 17.294 38.0225 18.0778 41.9628C18.8616 45.903 20.7961 49.5224 23.6369 52.3631C26.4777 55.2039 30.097 57.1384 34.0372 57.9222C37.9775 58.706 42.0616 58.3037 45.7733 56.7663C49.4849 55.2289 52.6573 52.6254 54.8892 49.285C57.1212 45.9446 58.3125 42.0174 58.3125 38C58.3063 32.6147 56.1643 27.4517 52.3563 23.6437C48.5483 19.8358 43.3853 17.6937 38 17.6875ZM53.2906 30.1875H46.7016C46.2376 27.2559 45.2562 24.4302 43.8031 21.8422C47.9067 23.325 51.2964 26.3067 53.2906 30.1875ZM44.25 38C44.2495 39.5662 44.1608 41.1312 43.9844 42.6875H32.0156C31.6615 39.5725 31.6615 36.4275 32.0156 33.3125H43.9844C44.1608 34.8688 44.2495 36.4338 44.25 38ZM38 55.1875C35.9063 55.1875 33.6438 51.4766 32.5016 45.8125H43.4984C42.3563 51.4766 40.0938 55.1875 38 55.1875ZM32.5016 30.1875C33.6438 24.5234 35.9063 20.8125 38 20.8125C40.0938 20.8125 42.3563 24.5234 43.4984 30.1875H32.5016ZM32.1891 21.8422C30.7387 24.4307 29.76 27.2564 29.2984 30.1875H22.7094C24.7036 26.3067 28.0934 23.325 32.1969 21.8422H32.1891ZM21.4781 33.3125H28.8641C28.5453 36.4294 28.5453 39.5706 28.8641 42.6875H21.4781C20.5906 39.6255 20.5906 36.3745 21.4781 33.3125ZM22.7094 45.8125H29.2984C29.7624 48.7441 30.7438 51.5698 32.1969 54.1578C28.0934 52.675 24.7036 49.6933 22.7094 45.8125ZM43.8031 54.1578C45.2562 51.5698 46.2376 48.7441 46.7016 45.8125H53.2906C51.2964 49.6933 47.9067 52.675 43.8031 54.1578ZM54.5219 42.6875H47.1359C47.2945 41.13 47.3742 39.5655 47.375 38C47.3742 36.4345 47.2945 34.87 47.1359 33.3125H54.5219C55.4094 36.3745 55.4094 39.6255 54.5219 42.6875Z" fill="#316FF6"/>
</svg>
