<svg width="410" height="390" viewBox="0 0 410 390" fill="none" xmlns="http://www.w3.org/2000/svg">
<g clip-path="url(#clip0_118_2062)">
<path d="M468.571 326.805H-54.3877V327.065H468.571V326.805Z" fill="#EBEBEB"/>
<path d="M416.172 343.589H381.529V343.85H416.172V343.589Z" fill="#EBEBEB"/>
<path d="M292.041 346.42H282.949V346.681H292.041V346.42Z" fill="#EBEBEB"/>
<path d="M380.482 333.906H360.409V334.167H380.482V333.906Z" fill="#EBEBEB"/>
<path d="M45.6568 335.657H0.480469V335.918H45.6568V335.657Z" fill="#EBEBEB"/>
<path d="M61.5935 335.657H54.9697V335.918H61.5935V335.657Z" fill="#EBEBEB"/>
<path d="M181.098 340.061H83.1201V340.321H181.098V340.061Z" fill="#EBEBEB"/>
<path d="M193.509 280.299H-8.45666C-11.7482 280.299 -14.4268 277.628 -14.4268 274.347V-8.69722C-14.4268 -11.9789 -11.7482 -14.6494 -8.45666 -14.6494H193.509C196.8 -14.6494 199.478 -11.9789 199.478 -8.69722V274.347C199.478 277.628 196.8 280.299 193.509 280.299ZM-8.45666 -14.3877C-11.6049 -14.3877 -14.1653 -11.8349 -14.1653 -8.69618V274.348C-14.1653 277.487 -11.6049 280.039 -8.45666 280.039H193.509C196.656 280.039 199.217 277.487 199.217 274.348V-8.69722C199.217 -11.8349 196.656 -14.3887 193.509 -14.3887L-8.45666 -14.3877Z" fill="#EBEBEB"/>
<path d="M419.738 280.299H217.773C214.481 280.299 211.804 277.628 211.804 274.347V-8.69722C211.804 -11.9789 214.482 -14.6494 217.773 -14.6494H419.738C423.03 -14.6494 425.708 -11.9789 425.708 -8.69722V274.347C425.709 277.628 423.03 280.299 419.738 280.299ZM217.773 -14.3877C214.626 -14.3877 212.065 -11.8349 212.065 -8.69618V274.348C212.065 277.487 214.626 280.039 217.773 280.039H419.738C422.886 280.039 425.446 277.487 425.446 274.348V-8.69722C425.446 -11.8349 422.886 -14.3887 419.738 -14.3887L217.773 -14.3877Z" fill="#EBEBEB"/>
<path d="M248.605 109.552L392.713 109.552V15.4648L248.605 15.4648V109.552Z" fill="#E6E6E6"/>
<path d="M244.209 109.552L390.658 109.552V15.4648L244.209 15.4648V109.552Z" fill="#F0F0F0"/>
<path d="M248.605 128.017L392.713 128.017V109.551L248.605 109.551V128.017Z" fill="#E6E6E6"/>
<path d="M236.884 128.017L383.333 128.017V109.551L236.884 109.551V128.017Z" fill="#F0F0F0"/>
<path d="M384.503 103.416V21.6035L250.365 21.6035L250.365 103.416L384.503 103.416Z" fill="#FAFAFA"/>
<path d="M354.255 103.416L337.122 21.6035H310.388L327.52 103.416H354.255Z" fill="white"/>
<path d="M381.653 97.3061C381.896 97.3061 382.094 97.1101 382.094 96.8682V25.5962C382.094 25.3542 381.897 25.1582 381.653 25.1582C381.411 25.1582 381.213 25.3542 381.213 25.5962V96.8682C381.213 97.1101 381.411 97.3061 381.653 97.3061Z" fill="#F0F0F0"/>
<path d="M321.777 103.416L304.645 21.6035H294.222L311.355 103.416H321.777Z" fill="white"/>
<path d="M251.146 103.416L251.146 21.6035H250.365L250.365 103.416H251.146Z" fill="#E6E6E6"/>
<path opacity="0.6" d="M242.753 30.857H386.861L387.426 23.9893H243.319L242.753 30.857Z" fill="#EBEBEB"/>
<path opacity="0.6" d="M242.753 42.1217H386.861L387.426 35.2539H243.319L242.753 42.1217Z" fill="#EBEBEB"/>
<path opacity="0.6" d="M242.753 53.3844H386.861L387.426 46.5166H243.319L242.753 53.3844Z" fill="#EBEBEB"/>
<path opacity="0.6" d="M242.753 64.649H386.861L387.426 57.7812H243.319L242.753 64.649Z" fill="#EBEBEB"/>
<path opacity="0.6" d="M242.753 75.9117H386.861L387.426 69.0439H243.319L242.753 75.9117Z" fill="#EBEBEB"/>
<path opacity="0.6" d="M242.753 87.1773H386.861L387.426 80.3096H243.319L242.753 87.1773Z" fill="#EBEBEB"/>
<path d="M372.02 258.38H341.805V264.32H372.02V258.38Z" fill="#E6E6E6"/>
<path d="M284.812 326.804H290.39V190.132H284.812V326.804Z" fill="#E6E6E6"/>
<path d="M265.491 264.32H341.805V258.381H265.491V264.32Z" fill="#F5F5F5"/>
<path d="M372.02 290.881H341.805V296.821H372.02V290.881Z" fill="#E6E6E6"/>
<path d="M265.491 296.82H341.805V290.881H265.491V296.82Z" fill="#F5F5F5"/>
<path d="M372.02 193.381H341.805V199.321H372.02V193.381Z" fill="#E6E6E6"/>
<path d="M265.491 199.32H341.805V193.381H265.491V199.32Z" fill="#F5F5F5"/>
<path d="M372.02 225.88H341.805V231.82H372.02V225.88Z" fill="#E6E6E6"/>
<path d="M265.491 231.819H341.805V225.88H265.491V231.819Z" fill="#F5F5F5"/>
<path d="M361.125 326.804H366.703V190.132H361.125V326.804Z" fill="#E6E6E6"/>
<path d="M336.227 326.804H341.805V190.132H336.227V326.804Z" fill="#F5F5F5"/>
<path d="M265.491 326.804H271.069V190.132H265.491V326.804Z" fill="#F5F5F5"/>
<path d="M13.9872 326.807H71.0713L71.0713 216.385H13.9872L13.9872 326.807Z" fill="#E6E6E6"/>
<path d="M29.2315 326.807H13.9883V311.563H45.2131L29.2315 326.807Z" fill="#FAFAFA"/>
<path d="M169.63 326.807H226.714V216.385H169.63V326.807Z" fill="#E6E6E6"/>
<path d="M13.9875 321.56H182.934V216.384H13.9875V321.56Z" fill="#FAFAFA"/>
<path d="M167.691 326.807H182.934V311.563H151.708L167.691 326.807Z" fill="#FAFAFA"/>
<path d="M25.8126 281.896H171.108V255.575L25.8126 255.575V281.896Z" fill="#F0F0F0"/>
<path d="M25.8126 313.843H171.108V287.522H25.8126V313.843Z" fill="#F0F0F0"/>
<path d="M53.4297 258.39H143.492C146.135 258.39 148.278 256.253 148.278 253.617V253.296H48.6436V253.617C48.6436 256.253 50.7866 258.39 53.4297 258.39Z" fill="#FAFAFA"/>
<path d="M25.8126 249.95L171.108 249.95V223.629L25.8126 223.629V249.95Z" fill="#F0F0F0"/>
<path d="M53.4297 226.443H143.492C146.135 226.443 148.278 224.306 148.278 221.67V221.349H48.6436V221.67C48.6436 224.306 50.7866 226.443 53.4297 226.443Z" fill="#FAFAFA"/>
<path d="M53.4297 290.336H143.492C146.135 290.336 148.278 288.199 148.278 285.564V285.243H48.6436V285.564C48.6436 288.199 50.7866 290.336 53.4297 290.336Z" fill="#FAFAFA"/>
<path d="M23.0818 109.552L167.189 109.552V15.4648L23.0818 15.4648V109.552Z" fill="#E6E6E6"/>
<path d="M18.6853 109.552L165.135 109.552V15.4648L18.6853 15.4648V109.552Z" fill="#F0F0F0"/>
<path d="M23.0818 128.017L167.189 128.017V109.551L23.0818 109.551V128.017Z" fill="#E6E6E6"/>
<path d="M11.3591 128.017L157.809 128.017V109.551L11.3591 109.551V128.017Z" fill="#F0F0F0"/>
<path d="M158.979 103.416L158.979 21.6035L24.8415 21.6035L24.8415 103.416L158.979 103.416Z" fill="#FAFAFA"/>
<path d="M128.732 103.416L111.599 21.6035H84.8643L101.997 103.416H128.732Z" fill="white"/>
<path d="M156.129 97.3061C156.371 97.3061 156.568 97.1101 156.568 96.8682V25.5962C156.568 25.3542 156.371 25.1582 156.129 25.1582C155.886 25.1582 155.688 25.3542 155.688 25.5962V96.8682C155.69 97.1101 155.886 97.3061 156.129 97.3061Z" fill="#F0F0F0"/>
<path d="M96.254 103.416L79.1208 21.6035H68.6982L85.8314 103.416H96.254Z" fill="white"/>
<path d="M25.6221 103.416L25.6221 21.6035H24.8408L24.8408 103.416H25.6221Z" fill="#E6E6E6"/>
<path opacity="0.6" d="M17.2285 30.857H161.336L161.903 23.9893H17.7954L17.2285 30.857Z" fill="#EBEBEB"/>
<path opacity="0.6" d="M17.2285 34.7311H161.336L161.903 27.8623H17.7954L17.2285 34.7311Z" fill="#EBEBEB"/>
<path opacity="0.6" d="M17.2285 38.606H161.336L161.903 31.7383H17.7954L17.2285 38.606Z" fill="#EBEBEB"/>
<path opacity="0.6" d="M17.2285 42.4811H161.336L161.903 35.6123H17.7954L17.2285 42.4811Z" fill="#EBEBEB"/>
<path opacity="0.6" d="M17.2285 46.3541H161.336L161.903 39.4863H17.7954L17.2285 46.3541Z" fill="#EBEBEB"/>
<path opacity="0.6" d="M17.2285 50.2271H161.336L161.903 43.3594H17.7954L17.2285 50.2271Z" fill="#EBEBEB"/>
<path d="M46.0349 213.011H51.0166L51.0166 157.647H46.0349L46.0349 213.011Z" fill="#F5F5F5"/>
<path d="M46.6762 212.973H48.083L48.083 157.609H46.6762L46.6762 212.973Z" fill="#FAFAFA"/>
<path d="M48.6724 212.973H49.2236L49.2236 157.609H48.6724L48.6724 212.973Z" fill="#FAFAFA"/>
<path d="M30.084 216.386H66.9672C66.9672 213.827 64.8869 211.753 62.3202 211.753H34.731C32.1643 211.753 30.084 213.827 30.084 216.386Z" fill="#F0F0F0"/>
<path d="M39.5726 192.017C40.3612 192.017 41.0055 191.373 41.0055 190.588V154.289C41.0055 153.504 40.3601 152.86 39.5726 152.86C38.7839 152.86 38.1396 153.504 38.1396 154.289V190.588C38.1396 191.374 38.7839 192.017 39.5726 192.017Z" fill="#F0F0F0"/>
<path d="M26.2256 170.807H70.8256L65.6954 139.733H31.3558L26.2256 170.807Z" fill="#E0E0E0"/>
<path d="M207.092 373.9C319.091 373.9 409.884 368.614 409.884 362.093C409.884 355.572 319.091 350.285 207.092 350.285C95.0929 350.285 4.2998 355.572 4.2998 362.093C4.2998 368.614 95.0929 373.9 207.092 373.9Z" fill="#F5F5F5"/>
<path d="M54.5002 139.068L53.457 139.143L54.8455 158.372L55.8887 158.298L54.5002 139.068Z" fill="#316FF6"/>
<path d="M56.6252 168.219L55.582 168.294L56.1051 175.528L57.1483 175.453L56.6252 168.219Z" fill="#316FF6"/>
<path d="M298.83 256.693H74.8383C69.7719 256.693 65.3288 252.561 64.9638 247.51L53.9576 95.1281C53.5925 90.0769 57.4394 85.9443 62.5059 85.9443H286.498C291.564 85.9443 296.007 90.0769 296.372 95.1281L307.378 247.51C307.742 252.561 303.896 256.693 298.83 256.693Z" fill="#316FF6"/>
<path d="M299.688 256.693H75.6967C70.6302 256.693 66.1872 252.561 65.8222 247.51L54.816 95.1281C54.4509 90.0769 58.2978 85.9443 63.3643 85.9443H287.356C292.422 85.9443 296.866 90.0769 297.231 95.1281L308.237 247.51C308.601 252.561 304.755 256.693 299.688 256.693Z" fill="#316FF6"/>
<path opacity="0.5" d="M299.688 256.693H75.6967C70.6302 256.693 66.1872 252.561 65.8222 247.51L54.816 95.1281C54.4509 90.0769 58.2978 85.9443 63.3643 85.9443H287.356C292.422 85.9443 296.866 90.0769 297.231 95.1281L308.237 247.51C308.601 252.561 304.755 256.693 299.688 256.693Z" fill="white"/>
<path d="M287.688 90.5371H63.6962C63.4431 90.5371 63.1931 90.5475 62.9463 90.5674C57.2209 91.0377 58.3902 99.7209 64.1689 99.7209H288.542C294.321 99.7209 294.236 91.0377 288.443 90.5674C288.193 90.5475 287.941 90.5371 287.688 90.5371Z" fill="#316FF6"/>
<path d="M69.5297 95.1288C69.6134 96.2915 68.7369 97.2342 67.5697 97.2342C66.4035 97.2342 65.39 96.2915 65.3063 95.1288C65.2226 93.9661 66.0991 93.0234 67.2664 93.0234C68.4336 93.0234 69.446 93.9651 69.5297 95.1288Z" fill="#FAFAFA"/>
<path d="M76.7133 95.1288C76.797 96.2915 75.9205 97.2342 74.7533 97.2342C73.5871 97.2342 72.5736 96.2915 72.4899 95.1288C72.4062 93.9661 73.2827 93.0234 74.45 93.0234C75.6162 93.0234 76.6296 93.9651 76.7133 95.1288Z" fill="#FAFAFA"/>
<path d="M83.897 95.1288C83.9807 96.2915 83.1031 97.2342 81.9369 97.2342C80.7707 97.2342 79.7572 96.2915 79.6725 95.1288C79.5888 93.9661 80.4664 93.0234 81.6326 93.0234C82.7988 93.0234 83.8123 93.9651 83.897 95.1288Z" fill="#FAFAFA"/>
<path d="M293.75 241.486H79.4382C77.5942 241.486 75.9909 239.995 75.858 238.156L66.8066 112.842C66.6738 111.004 68.0617 109.513 69.9057 109.513H284.217C286.061 109.513 287.665 111.003 287.798 112.842L296.849 238.156C296.982 239.995 295.594 241.486 293.75 241.486Z" fill="white"/>
<path d="M203.462 193.748L199.974 145.448L189.402 139.104H160.321L164.269 193.748H203.462Z" fill="white"/>
<path d="M203.462 194.254H164.268C164.003 194.254 163.782 194.05 163.763 193.785L159.816 139.14C159.805 139 159.855 138.861 159.951 138.759C160.047 138.656 160.181 138.599 160.322 138.599H189.403C189.495 138.599 189.586 138.624 189.664 138.672L200.235 145.015C200.377 145.099 200.468 145.247 200.479 145.411L203.967 193.712C203.978 193.851 203.928 193.99 203.832 194.092C203.737 194.196 203.602 194.254 203.462 194.254ZM164.74 193.243H202.917L199.486 145.746L189.262 139.609H160.866L164.74 193.243Z" fill="#316FF6"/>
<path d="M199.974 145.448L189.401 139.104L193.283 147.508L199.974 145.448Z" fill="#EBEBEB"/>
<path d="M193.283 148.013C193.089 148.013 192.907 147.902 192.823 147.719L188.941 139.315C188.848 139.114 188.897 138.875 189.064 138.727C189.229 138.579 189.472 138.557 189.663 138.671L200.234 145.015C200.405 145.117 200.5 145.311 200.476 145.509C200.451 145.707 200.313 145.872 200.122 145.931L193.432 147.991C193.383 148.006 193.333 148.013 193.283 148.013ZM190.551 140.383L193.558 146.894L198.741 145.298L190.551 140.383Z" fill="#316FF6"/>
<path d="M176.727 163.723C176.815 164.942 175.896 165.931 174.672 165.931C173.448 165.931 172.387 164.942 172.299 163.723C172.211 162.504 173.13 161.516 174.353 161.516C175.576 161.516 176.639 162.504 176.727 163.723Z" fill="#316FF6"/>
<path d="M191.093 163.723C191.181 164.942 190.262 165.931 189.038 165.931C187.816 165.931 186.753 164.942 186.664 163.723C186.576 162.504 187.496 161.516 188.719 161.516C189.943 161.517 191.006 162.504 191.093 163.723Z" fill="#316FF6"/>
<path d="M195.147 178.041C194.883 178.041 194.661 177.838 194.641 177.572C194.385 174.022 188.802 171.135 182.195 171.135C177.818 171.135 173.888 172.432 171.939 174.52C171.072 175.45 170.671 176.451 170.746 177.499C170.766 177.777 170.556 178.019 170.277 178.039C169.996 178.057 169.755 177.849 169.735 177.571C169.64 176.25 170.145 174.957 171.196 173.831C173.331 171.543 177.545 170.123 182.195 170.123C189.442 170.123 195.354 173.363 195.653 177.498C195.673 177.776 195.462 178.018 195.183 178.038C195.171 178.041 195.158 178.041 195.147 178.041Z" fill="#316FF6"/>
<path d="M168.567 159.252C168.444 159.252 168.32 159.207 168.222 159.117C168.017 158.928 168.004 158.607 168.195 158.403L170.416 156.017C170.606 155.812 170.928 155.801 171.133 155.99C171.338 156.18 171.349 156.5 171.16 156.704L168.939 159.09C168.839 159.198 168.703 159.252 168.567 159.252Z" fill="#316FF6"/>
<path d="M194.105 159.252C193.982 159.252 193.857 159.207 193.759 159.116L191.193 156.73C190.988 156.541 190.978 156.22 191.168 156.016C191.359 155.812 191.68 155.801 191.885 155.991L194.45 158.377C194.655 158.567 194.666 158.887 194.475 159.091C194.376 159.198 194.241 159.252 194.105 159.252Z" fill="#316FF6"/>
<path d="M157.156 204.546H159.52L162.931 209.065L162.604 204.546H164.99L165.58 212.714H163.193L159.801 208.229L160.126 212.714H157.745L157.156 204.546Z" fill="#316FF6"/>
<path d="M166.65 208.635C166.554 207.301 166.851 206.264 167.544 205.52C168.235 204.778 169.246 204.405 170.576 204.405C171.94 204.405 173.016 204.77 173.807 205.5C174.597 206.23 175.04 207.252 175.135 208.567C175.204 209.521 175.099 210.304 174.821 210.915C174.543 211.526 174.112 212.002 173.527 212.342C172.943 212.682 172.196 212.852 171.287 212.852C170.363 212.852 169.587 212.705 168.961 212.412C168.334 212.119 167.81 211.654 167.388 211.019C166.965 210.385 166.719 209.59 166.65 208.635ZM169.183 208.646C169.242 209.471 169.439 210.063 169.771 210.423C170.105 210.784 170.536 210.963 171.065 210.963C171.609 210.963 172.017 210.787 172.29 210.434C172.563 210.081 172.666 209.447 172.6 208.534C172.544 207.765 172.348 207.203 172.011 206.848C171.674 206.494 171.239 206.317 170.707 206.317C170.196 206.317 169.8 206.497 169.516 206.857C169.234 207.219 169.123 207.814 169.183 208.646Z" fill="#316FF6"/>
<path d="M180.057 204.546H183.818C184.559 204.546 185.165 204.646 185.637 204.846C186.107 205.046 186.506 205.334 186.831 205.71C187.156 206.085 187.404 206.521 187.574 207.019C187.744 207.517 187.849 208.044 187.89 208.601C187.952 209.474 187.902 210.151 187.737 210.633C187.573 211.113 187.325 211.517 186.994 211.841C186.664 212.167 186.3 212.382 185.901 212.49C185.357 212.639 184.86 212.713 184.409 212.713H180.648L180.057 204.546ZM182.722 206.396L183.044 210.859H183.664C184.193 210.859 184.565 210.8 184.78 210.684C184.995 210.567 185.156 210.363 185.261 210.071C185.367 209.779 185.396 209.306 185.349 208.652C185.286 207.787 185.102 207.195 184.796 206.875C184.489 206.556 184.008 206.397 183.352 206.397H182.722V206.396Z" fill="#316FF6"/>
<path d="M193.963 211.366H191.089L190.787 212.714H188.202L190.691 204.546H193.453L197.121 212.714H194.469L193.963 211.366ZM193.31 209.6L192.193 206.664L191.51 209.6H193.31Z" fill="#316FF6"/>
<path d="M195.973 204.546H203.667L203.813 206.563H201.232L201.676 212.714H199.145L198.7 206.563H196.119L195.973 204.546Z" fill="#316FF6"/>
<path d="M209.565 211.366H206.69L206.388 212.714H203.804L206.293 204.546H209.054L212.722 212.714H210.071L209.565 211.366ZM208.912 209.6L207.796 206.664L207.113 209.6H208.912Z" fill="#316FF6"/>
<path d="M315.541 108.534C316.476 108.066 317.59 107.463 318.62 106.899C319.669 106.324 320.713 105.724 321.74 105.101C323.789 103.843 325.855 102.6 327.815 101.22C331.771 98.5031 335.476 95.4884 338.811 92.1964C339.248 91.798 339.619 91.3559 340.023 90.9346L340.619 90.2965L340.918 89.9774L341.068 89.8178C341.107 89.7761 341.098 89.7844 341.079 89.8095L341.046 89.8606C340.897 90.139 341.021 90.0545 341.078 89.7855C341.148 89.5269 341.207 89.1045 341.226 88.6478C341.293 86.7541 340.918 84.3672 340.463 82.0595C339.532 77.3827 338.122 72.5723 336.729 67.8589L340.793 66.082C343.338 70.614 345.46 75.2429 347.186 80.2618C348.008 82.8041 348.764 85.3568 348.984 88.4924C349.025 89.2912 349.043 90.1306 348.897 91.1098C348.744 92.0733 348.5 93.2267 347.618 94.5343L347.444 94.7752L347.309 94.9504L347.148 95.1464L346.825 95.5364L346.18 96.3185C345.744 96.8336 345.33 97.3769 344.867 97.8597C341.26 101.853 337.248 105.379 332.965 108.446C330.833 109.999 328.656 111.473 326.393 112.815C325.267 113.495 324.126 114.148 322.966 114.781C321.791 115.432 320.674 115.998 319.34 116.622L315.541 108.534Z" fill="#FFB573"/>
<path d="M306.238 353.687C307.048 353.687 307.933 353.521 308.551 353.375C308.631 353.356 308.693 353.291 308.708 353.209C308.722 353.127 308.687 353.045 308.618 353C308.318 352.803 305.658 351.092 304.638 351.552C304.477 351.625 304.275 351.784 304.225 352.134C304.159 352.597 304.275 352.966 304.569 353.233C304.942 353.573 305.565 353.687 306.238 353.687ZM307.964 353.079C306.439 353.383 305.292 353.331 304.848 352.927C304.66 352.756 304.59 352.515 304.636 352.191C304.66 352.017 304.742 351.96 304.809 351.929C305.345 351.687 306.88 352.426 307.964 353.079Z" fill="#316FF6"/>
<path d="M308.505 353.382C308.54 353.382 308.577 353.372 308.609 353.353C308.673 353.316 308.713 353.248 308.713 353.174C308.713 353.068 308.701 350.552 307.748 349.712C307.495 349.489 307.2 349.396 306.87 349.436C306.35 349.498 306.21 349.825 306.171 350.012C305.973 350.997 307.566 352.881 308.402 353.353C308.433 353.372 308.469 353.382 308.505 353.382ZM307.014 349.84C307.185 349.84 307.335 349.9 307.473 350.022C308.042 350.523 308.237 351.935 308.285 352.773C307.451 352.109 306.459 350.693 306.579 350.094C306.599 349.996 306.655 349.879 306.92 349.846C306.951 349.842 306.983 349.84 307.014 349.84Z" fill="#316FF6"/>
<path d="M307.733 82.4502C306.714 87.6328 304.566 98.1305 308.204 101.589C308.204 101.589 306.782 106.847 297.123 106.847C286.502 106.847 292.048 101.59 292.048 101.59C297.845 100.21 297.696 95.9219 296.685 91.8947L307.733 82.4502Z" fill="#FFB573"/>
<path d="M290.016 103.678C288.349 103.903 289.767 99.5972 290.445 99.1509C292.01 98.1196 312.254 96.6597 312.122 99.1092C312.038 100.163 311.541 102.221 310.656 102.919C309.771 103.618 304.57 101.507 290.016 103.678Z" fill="#263238"/>
<path d="M293.314 102.228C291.99 102.674 292.115 98.3354 292.566 97.8129C293.61 96.6054 309.995 92.4082 310.481 94.7826C310.669 95.8077 310.759 97.8557 310.197 98.6513C309.635 99.4459 304.821 98.131 293.314 102.228Z" fill="#263238"/>
<path d="M287.22 73.1075C287.091 73.1148 286.961 73.0637 286.874 72.9563C285.702 71.5276 284.179 71.6736 284.165 71.6757C283.933 71.6997 283.732 71.536 283.708 71.3087C283.682 71.0813 283.848 70.877 284.076 70.853C284.156 70.8446 286.063 70.6601 287.517 72.4318C287.662 72.609 287.636 72.8697 287.458 73.0136C287.388 73.072 287.304 73.1023 287.22 73.1075Z" fill="#263238"/>
<path d="M285.193 78.21C285.193 78.21 284.297 81.3456 283.127 82.9306C284.14 83.7033 285.68 83.1538 285.68 83.1538L285.193 78.21Z" fill="#FF5652"/>
<path d="M285.703 76.9423C285.772 77.6431 285.455 78.2479 284.996 78.2938C284.536 78.3386 284.108 77.8068 284.038 77.106C283.969 76.4053 284.286 75.8005 284.745 75.7546C285.205 75.7098 285.634 76.2416 285.703 76.9423Z" fill="#263238"/>
<path d="M284.953 75.7752L283.216 75.4551C283.216 75.4551 284.213 76.6866 284.953 75.7752Z" fill="#263238"/>
<path d="M318.691 353.175H309.931L310.618 332.948H319.378L318.691 353.175Z" fill="#FFB573"/>
<path d="M309.238 352.164H319.08C319.437 352.164 319.728 352.412 319.778 352.761L320.9 360.524C321.016 361.329 320.321 362.091 319.495 362.078C316.063 362.019 314.41 361.818 310.082 361.818C307.419 361.818 303.528 362.093 299.852 362.093C296.255 362.093 295.978 358.468 297.51 358.14C304.375 356.668 305.46 354.638 307.773 352.701C308.19 352.352 308.714 352.164 309.238 352.164Z" fill="#263238"/>
<g opacity="0.2">
<path d="M319.381 332.952H310.616L310.267 343.379H319.031L319.381 332.952Z" fill="black"/>
</g>
<path d="M283.835 113.71C278.414 111.594 273.243 109.292 268.094 106.667C262.953 104.044 257.892 101.251 253.029 97.5184C251.817 96.5685 250.62 95.5299 249.449 94.3171C249.158 94.0043 248.866 93.7144 248.579 93.3557C248.278 92.9782 248.051 92.7561 247.66 92.1763C246.953 91.1627 246.406 89.8019 246.26 88.4129C246.123 87.0229 246.373 85.6954 246.774 84.637C247.174 83.5598 247.698 82.6807 248.246 81.9184C249.345 80.3918 250.563 79.2635 251.79 78.2479C254.241 76.2259 256.833 74.7556 259.429 73.3812C260.726 72.695 262.048 72.0767 263.386 71.5073C264.731 70.9286 266.044 70.3905 267.472 69.9004L269.328 73.9182C264.766 76.7848 260.04 79.9361 256.566 83.4691C255.722 84.344 254.983 85.2595 254.519 86.0656C254.021 86.8862 254.027 87.5005 254.112 87.4535C254.155 87.4535 254.138 87.4347 254.26 87.5557L254.676 88.001C254.833 88.1876 255.054 88.3785 255.251 88.5703C256.072 89.3347 257.036 90.1022 258.074 90.8321C260.15 92.3056 262.438 93.6841 264.804 94.972C267.161 96.2775 269.587 97.5268 272.057 98.7124C276.985 101.066 282.096 103.331 287.11 105.4L283.835 113.71Z" fill="#FFB573"/>
<path d="M271.907 71.0702L273.355 67.9377L266.77 65.6582C266.77 65.6582 264.719 71.8137 267.163 74.6543C269.245 74.3216 271.024 72.9785 271.907 71.0702Z" fill="#FFB573"/>
<path d="M273.355 61.1654L268.091 59.6523L266.77 65.6567L273.355 67.9372V61.1654Z" fill="#FFB573"/>
<path d="M341.336 68.2412L342.104 60.9209L335.318 62.5111C335.318 62.5111 335.218 69.3726 338.808 70.4665L341.336 68.2412Z" fill="#FFB573"/>
<path d="M338.833 55.7969L334.412 57.8553L335.316 62.5113L342.102 60.9211L338.833 55.7969Z" fill="#FFB573"/>
<path d="M309.11 72.2169C309.429 80.8793 309.75 84.5394 305.824 89.3873C299.919 96.6784 289.176 95.1747 286.267 86.7814C283.649 79.2265 283.567 66.3293 291.683 62.0727C299.679 57.8807 308.791 63.5535 309.11 72.2169Z" fill="#FFB573"/>
<path d="M305.326 89.3722C313.855 85.6974 319.466 77.9485 317.098 65.8325C314.832 54.2409 306.983 53.0959 303.74 55.5006C300.498 57.9052 292.416 54.3212 287.566 58.3901C279.162 65.4404 287.107 73.0412 291.246 77.545C293.718 82.6108 296.956 92.9781 305.326 89.3722Z" fill="#263238"/>
<path d="M301.784 63.7537C304.663 67.9092 310.183 69.0824 314.116 66.3743C318.048 63.6672 318.903 58.104 316.024 53.9485C313.146 49.793 307.626 48.6199 303.693 51.328C299.76 54.035 298.906 59.5983 301.784 63.7537Z" fill="#316FF6"/>
<path d="M303.999 56.3124C302.768 49.3279 309.397 43.9419 318.261 46.5447C327.125 49.1475 322.436 56.9819 320.619 63.2385C318.801 69.4952 323.571 75.4547 325.565 70.6892C327.558 65.9248 324.207 64.4534 324.207 64.4534C324.207 64.4534 333.619 66.8862 324.876 77.4642C316.132 88.0432 308.216 76.3619 310.357 69.4681C312.087 63.8976 305.163 62.9142 303.999 56.3124Z" fill="#263238"/>
<path d="M295.14 58.9518C291.093 56.8474 284.24 55.1456 280.34 61.687C278.496 64.7799 279.21 68.975 279.21 68.975L291.122 69.7654L295.14 58.9518Z" fill="#263238"/>
<path d="M277.809 66.9238C277.804 66.9238 277.798 66.9238 277.792 66.9228C277.648 66.9144 277.539 66.7904 277.547 66.6465C277.558 66.4692 277.846 62.2741 280.386 59.6421C286.524 53.2832 293.721 58.5576 295.781 60.3262C295.891 60.42 295.903 60.5848 295.808 60.6943C295.713 60.8038 295.549 60.8152 295.439 60.7214C293.467 59.0289 286.583 53.9746 280.762 60.0039C278.358 62.4951 278.071 66.6371 278.068 66.6788C278.061 66.8164 277.946 66.9238 277.809 66.9238Z" fill="#263238"/>
<path d="M292.703 77.2002C292.691 78.8875 291.932 80.5392 290.972 81.6602C289.527 83.3453 287.87 82.5153 287.49 80.6466C287.148 78.9646 287.487 76.0615 289.314 75.0438C291.113 74.0416 292.718 75.2711 292.703 77.2002Z" fill="#FFB573"/>
<path d="M290.82 156.545C290.82 156.545 291.379 217.176 296.654 250.964C300.916 278.253 308.801 341.361 308.801 341.361H320.747C320.747 341.361 321.914 280.438 319.751 253.446C314.278 185.146 328.402 172.377 317.005 156.545H290.82Z" fill="#263238"/>
<path opacity="0.1" d="M290.82 156.545C290.82 156.545 291.379 217.176 296.654 250.964C300.916 278.253 308.801 341.361 308.801 341.361H320.747C320.747 341.361 321.914 280.438 319.751 253.446C314.278 185.146 328.402 172.377 317.005 156.545H290.82Z" fill="white"/>
<path opacity="0.3" d="M297.101 184.052C301.295 202.353 297.948 231.175 295.657 243.866C293.231 224.595 292.007 199.621 291.4 181.32C293.565 177.816 295.615 177.587 297.101 184.052Z" fill="black"/>
<path d="M307.167 341.596H322.384L323.183 336.274L307.08 335.73L307.167 341.596Z" fill="#316FF6"/>
<path d="M311.509 105.364C312.94 102.527 320.635 100.742 324.841 100.748L327.989 114.685C327.989 114.685 319.609 127.083 316.125 125.769C312.008 124.218 308.443 111.444 311.509 105.364Z" fill="#316FF6"/>
<path opacity="0.4" d="M311.509 105.364C312.94 102.527 320.635 100.742 324.841 100.748L327.989 114.685C327.989 114.685 319.609 127.083 316.125 125.769C312.008 124.218 308.443 111.444 311.509 105.364Z" fill="black"/>
<path d="M302.639 338.187C302.677 338.126 302.68 338.048 302.646 337.983C302.605 337.906 302.519 337.862 302.431 337.875C301.992 337.941 298.12 338.554 297.597 339.657C297.496 339.87 297.51 340.096 297.638 340.308C297.851 340.664 298.153 340.864 298.535 340.903C299.804 341.033 301.636 339.278 302.615 338.221C302.624 338.209 302.632 338.199 302.639 338.187ZM297.994 339.79C298.352 339.205 300.354 338.666 301.882 338.385C300.503 339.784 299.287 340.563 298.576 340.49C298.327 340.464 298.137 340.334 297.992 340.095C297.936 340.001 297.93 339.92 297.971 339.833C297.979 339.818 297.986 339.804 297.994 339.79Z" fill="#316FF6"/>
<path d="M302.64 338.187C302.648 338.175 302.654 338.16 302.659 338.145C302.683 338.077 302.667 337.999 302.62 337.944C302.554 337.868 301.003 336.086 299.573 335.993C299.135 335.965 298.752 336.094 298.433 336.379C298.003 336.763 298.04 337.096 298.148 337.308C298.6 338.203 301.383 338.514 302.505 338.282C302.561 338.269 302.609 338.235 302.64 338.187ZM298.545 336.874C298.577 336.821 298.63 336.758 298.71 336.686C298.946 336.476 299.22 336.384 299.546 336.406C300.485 336.467 301.553 337.436 302.038 337.929C300.799 338.034 298.79 337.658 298.518 337.121C298.502 337.089 298.461 337.01 298.545 336.874Z" fill="#316FF6"/>
<path d="M311.77 334.488L303.757 338.036L300.186 330.627L295.521 320.925L294.974 319.797L302.977 316.243L303.596 317.513L308.12 326.909L311.77 334.488Z" fill="#FFB573"/>
<path opacity="0.2" d="M308.121 326.909L300.187 330.628L295.521 320.926L303.597 317.514L308.121 326.909Z" fill="black"/>
<path d="M281.424 156.545C281.424 156.545 255.826 219.983 262.765 249.855C269.035 276.853 296.762 327.981 296.762 327.981L307.482 322.616C307.482 322.616 290.342 260.896 288.482 247.488C284.864 221.4 308.12 184.574 308.12 156.545H281.424Z" fill="#263238"/>
<path opacity="0.1" d="M281.424 156.545C281.424 156.545 255.826 219.983 262.765 249.855C269.035 276.853 296.762 327.981 296.762 327.981L307.482 322.616C307.482 322.616 290.342 260.896 288.482 247.488C284.864 221.4 308.12 184.574 308.12 156.545H281.424Z" fill="white"/>
<path d="M302.328 336.925L310.285 331.151C310.575 330.94 310.957 330.97 311.203 331.222L316.692 336.842C317.261 337.425 317.149 338.449 316.473 338.922C313.664 340.888 312.208 341.696 308.709 344.235C306.556 345.797 302.265 349.252 299.293 351.41C296.385 353.519 294.021 350.751 295.066 349.587C299.749 344.369 300.735 341.141 301.462 338.218C301.593 337.692 301.904 337.233 302.328 336.925Z" fill="#263238"/>
<path d="M296.071 330.243L309.91 323.932L308.134 318.311L293.315 325.049L296.071 330.243Z" fill="#316FF6"/>
<path d="M288.218 104.655C287.069 101.692 277.071 98.4431 272.056 97.3086L269.853 113.751C269.853 113.751 278.043 125.488 281.64 124.517C285.886 123.371 290.678 111.002 288.218 104.655Z" fill="#316FF6"/>
<path opacity="0.4" d="M288.218 104.655C287.069 101.692 277.071 98.4431 272.056 97.3086L269.853 113.751C269.853 113.751 278.043 125.488 281.64 124.517C285.886 123.371 290.678 111.002 288.218 104.655Z" fill="black"/>
<path d="M277.238 103.827C277.238 103.827 273.065 105.292 281.425 156.545C295.544 156.545 310.136 156.545 317.006 156.545C316.409 142.107 316.392 133.204 323.313 103.574C323.313 103.574 315.857 101.956 308.203 101.589C302.215 101.302 297.31 101.111 292.046 101.59C285.108 102.221 277.238 103.827 277.238 103.827Z" fill="#316FF6"/>
<path opacity="0.4" d="M277.238 103.827C277.238 103.827 273.065 105.292 281.425 156.545C295.544 156.545 310.136 156.545 317.006 156.545C316.409 142.107 316.392 133.204 323.313 103.574C323.313 103.574 315.857 101.956 308.203 101.589C302.215 101.302 297.31 101.111 292.046 101.59C285.108 102.221 277.238 103.827 277.238 103.827Z" fill="black"/>
<path d="M317.538 154.461L319.143 157.637C319.267 157.883 318.975 158.134 318.564 158.134H281.248C280.927 158.134 280.662 157.978 280.642 157.776L280.321 154.601C280.299 154.381 280.577 154.194 280.927 154.194H316.959C317.224 154.195 317.458 154.303 317.538 154.461Z" fill="#316FF6"/>
<path opacity="0.3" d="M317.538 154.461L319.143 157.637C319.267 157.883 318.975 158.134 318.564 158.134H281.248C280.927 158.134 280.662 157.978 280.642 157.776L280.321 154.601C280.299 154.381 280.577 154.194 280.927 154.194H316.959C317.224 154.195 317.458 154.303 317.538 154.461Z" fill="white"/>
<path d="M312.699 158.479H313.665C313.857 158.479 314.003 158.38 313.99 158.26L313.537 154.135C313.523 154.014 313.356 153.916 313.164 153.916H312.198C312.006 153.916 311.859 154.015 311.873 154.135L312.326 158.26C312.339 158.381 312.508 158.479 312.699 158.479Z" fill="#263238"/>
<path d="M289.31 158.479H290.275C290.467 158.479 290.614 158.38 290.6 158.26L290.147 154.135C290.134 154.014 289.966 153.916 289.774 153.916H288.809C288.616 153.916 288.47 154.015 288.483 154.135L288.936 158.26C288.949 158.381 289.117 158.479 289.31 158.479Z" fill="#263238"/>
</g>
<defs>
<clipPath id="clip0_118_2062">
<rect width="410" height="390" fill="white"/>
</clipPath>
</defs>
</svg>
