<svg width="18" height="18" viewBox="0 0 18 18" fill="none" xmlns="http://www.w3.org/2000/svg">
<path d="M16.0807 8.28744L9.18821 15.1799C8.34382 16.0243 7.19859 16.4987 6.00446 16.4987C4.81032 16.4987 3.66509 16.0243 2.82071 15.1799C1.97632 14.3356 1.50195 13.1903 1.50195 11.9962C1.50195 10.8021 1.97632 9.65682 2.82071 8.81244L9.71321 1.91994C10.2761 1.35702 11.0396 1.04077 11.8357 1.04077C12.6318 1.04077 13.3953 1.35702 13.9582 1.91994C14.5211 2.48286 14.8374 3.24635 14.8374 4.04244C14.8374 4.83853 14.5211 5.60202 13.9582 6.16494L7.05821 13.0574C6.77674 13.3389 6.395 13.497 5.99696 13.497C5.59891 13.497 5.21717 13.3389 4.93571 13.0574C4.65424 12.776 4.49612 12.3942 4.49612 11.9962C4.49612 11.5981 4.65424 11.2164 4.93571 10.9349L11.3032 4.57494" stroke="black" stroke-width="1.5" stroke-linecap="round" stroke-linejoin="round"/>
</svg>
