<svg width="45" height="45" viewBox="0 0 45 45" fill="none" xmlns="http://www.w3.org/2000/svg">
<path d="M28.4401 10.116H7.2001C6.24619 10.1188 5.33217 10.499 4.65766 11.1735C3.98315 11.848 3.60295 12.7621 3.6001 13.716V31.284C3.60295 32.2379 3.98315 33.1519 4.65766 33.8264C5.33217 34.5009 6.24619 34.8811 7.2001 34.884H28.4401C29.394 34.8811 30.308 34.5009 30.9825 33.8264C31.657 33.1519 32.0372 32.2379 32.0401 31.284V13.716C32.0372 12.7621 31.657 11.848 30.9825 11.1735C30.308 10.499 29.394 10.1188 28.4401 10.116ZM21.9061 23.238L16.0561 27.36C15.924 27.4553 15.7675 27.511 15.605 27.5206C15.4424 27.5301 15.2804 27.4931 15.1381 27.414C14.991 27.3408 14.8675 27.2277 14.7815 27.0877C14.6956 26.9476 14.6507 26.7863 14.6521 26.622V18.378C14.6507 18.2137 14.6956 18.0523 14.7815 17.9123C14.8675 17.7722 14.991 17.6592 15.1381 17.586C15.2814 17.5103 15.4428 17.4753 15.6046 17.4848C15.7665 17.4943 15.9226 17.548 16.0561 17.64L21.9061 21.762C22.0232 21.8462 22.1185 21.957 22.1843 22.0853C22.2501 22.2136 22.2844 22.3558 22.2844 22.5C22.2844 22.6442 22.2501 22.7863 22.1843 22.9146C22.1185 23.0429 22.0232 23.1538 21.9061 23.238ZM41.4001 13.086V31.914C41.4021 32.0716 41.3614 32.2269 41.2821 32.3632C41.2029 32.4995 41.0881 32.6118 40.9501 32.688C40.8145 32.7705 40.6588 32.8141 40.5001 32.8141C40.3414 32.8141 40.1857 32.7705 40.0501 32.688L33.8401 29.124V15.876L40.0501 12.312C40.1869 12.233 40.3421 12.1914 40.5001 12.1914C40.6581 12.1914 40.8133 12.233 40.9501 12.312C41.0881 12.3882 41.2029 12.5004 41.2821 12.6367C41.3614 12.773 41.4021 12.9283 41.4001 13.086Z" fill="#316FF6"/>
</svg>
