<svg width="40" height="40" viewBox="0 0 40 40" fill="none" xmlns="http://www.w3.org/2000/svg">
<rect width="40" height="40" rx="8" fill="#DBFFDE"/>
<g clip-path="url(#clip0_3769_740)">
<path fill-rule="evenodd" clip-rule="evenodd" d="M20.4808 10.5931C21.3446 10.7986 22.1695 11.1411 22.9256 11.6066L24.5142 10.9011L26.3866 12.7734L25.6812 14.3616C26.1469 15.1178 26.4894 15.943 26.6949 16.807L28.3157 17.4308V20.0787L27.7673 20.2898C27.4596 19.9893 27.0394 19.8036 26.577 19.8036H24.3527C24.4137 19.4632 24.4455 19.1127 24.4455 18.7548C24.4455 15.4893 21.7983 12.8421 18.5328 12.8421C15.2673 12.8421 12.6201 15.4893 12.6201 18.7548C12.6201 21.9429 15.1435 24.5412 18.3019 24.6626V25.0979C18.3019 25.6264 18.5069 26.0757 18.8455 26.4442V28.5376H17.2089L16.5849 26.9164C15.7211 26.7109 14.8962 26.3684 14.1401 25.9029L12.5515 26.6085L10.6791 24.7361L11.3845 23.148C10.9188 22.3918 10.5763 21.5665 10.3707 20.7025L8.75 20.0788V17.4308L10.371 16.8069C10.5766 15.9431 10.919 15.118 11.3847 14.3619L10.6791 12.7735L12.5515 10.9011L14.1401 11.6066C14.8962 11.1411 15.7211 10.7986 16.5849 10.5931L17.2089 8.97192H19.8568L20.4808 10.5931ZM21.966 22.4643V23.9517C21.966 24.2671 22.2241 24.5251 22.5395 24.5251H27.7624C28.0778 24.5251 28.3358 24.267 28.3358 23.9517V22.4643H21.966ZM24.0268 27.3442C24.0268 27.965 24.5301 28.4683 25.151 28.4683C25.7718 28.4683 26.2751 27.965 26.2751 27.3442C26.2751 26.7253 25.7738 26.22 25.151 26.22C24.5281 26.22 24.0268 26.7253 24.0268 27.3442ZM30.7063 26.1228C31.0274 25.8592 31.25 25.53 31.25 25.0979V22.9217C31.25 22.6698 31.0445 22.4643 30.7926 22.4643H29.0859V23.9517C29.0859 24.681 28.4917 25.2751 27.7624 25.2751H22.5395C21.8102 25.2751 21.216 24.681 21.216 23.9517V22.4643H19.5093C19.2574 22.4643 19.0519 22.6698 19.0519 22.9217V25.0979C19.0519 25.53 19.2745 25.8592 19.5955 26.1227C20.4676 26.8385 22.2068 27.0379 23.2895 27.1264C23.3974 26.1943 24.1897 25.4701 25.151 25.4701C26.1119 25.4701 26.9039 26.1938 27.0123 27.1255C28.093 27.0368 29.8357 26.8373 30.7063 26.1228ZM19.5955 27.0283V30.1353C19.5955 30.6263 19.9972 31.028 20.4882 31.028H29.8136C30.3046 31.028 30.7062 30.6263 30.7062 30.1353V27.0284C29.9045 27.4775 28.506 27.763 26.9456 27.8852C26.7133 28.6564 25.9976 29.2183 25.1509 29.2183C24.3042 29.2183 23.5885 28.6564 23.3562 27.8853C21.7959 27.7631 20.3975 27.4776 19.5955 27.0283ZM27.5322 21.7143V21.5089C27.5322 20.9835 27.1024 20.5536 26.577 20.5536H23.725C23.1996 20.5536 22.7697 20.9835 22.7697 21.5089V21.7143H23.6154V21.5089C23.6154 21.4503 23.6665 21.3993 23.7251 21.3993H26.577C26.6356 21.3993 26.6866 21.4503 26.6866 21.5089V21.7143H27.5322ZM15.0995 18.0325C14.6938 18.4382 14.6937 19.102 15.0995 19.5077L16.7219 21.1301C17.1805 21.5888 17.8723 21.7989 18.3895 21.2818L21.9664 17.7049C22.372 17.2992 22.372 16.6354 21.9664 16.2298V16.2297C21.5607 15.8241 20.8969 15.8241 20.4912 16.2297L17.6315 19.0894L16.5747 18.0325C16.1689 17.6268 15.5051 17.6268 15.0995 18.0325Z" fill="#08A718"/>
</g>
<defs>
<clipPath id="clip0_3769_740">
<rect width="24" height="24" fill="white" transform="translate(8 8)"/>
</clipPath>
</defs>
</svg>
