<svg width="29" height="29" viewBox="0 0 29 29" fill="none" xmlns="http://www.w3.org/2000/svg">
<g clip-path="url(#clip0_3204_693)">
<path fill-rule="evenodd" clip-rule="evenodd" d="M15.5418 2.09803C14.7461 1.65848 13.7798 1.65848 12.9841 2.09803C11.224 3.07241 7.13104 5.33743 4.47128 6.80926C3.67435 7.25006 3.16133 8.07065 3.11277 8.97965C3.06358 9.88927 3.48633 10.759 4.2322 11.282C6.80978 13.0926 10.8691 15.9428 12.745 17.2609C13.6559 17.9003 14.87 17.9003 15.7808 17.2609C17.6567 15.9428 21.7161 13.0926 24.2937 11.282C25.0396 10.759 25.4623 9.88927 25.4131 8.97965C25.3646 8.07065 24.8515 7.25006 24.0546 6.80926C21.3948 5.33743 17.3019 3.07241 15.5418 2.09803Z" fill="#316FF6"/>
<path fill-rule="evenodd" clip-rule="evenodd" d="M3.63145 19.527C3.63145 19.527 10.1812 24.1268 12.7451 25.9273C13.656 26.5668 14.87 26.5668 15.7809 25.9273C18.3448 24.1268 24.8946 19.527 24.8946 19.527C25.2924 19.2474 25.3883 18.6983 25.1087 18.3005C24.8298 17.9032 24.28 17.8067 23.8828 18.0857C23.8828 18.0857 17.3331 22.6855 14.7692 24.486C14.4653 24.6989 14.0607 24.6989 13.7568 24.486L4.64318 18.0857C4.24596 17.8067 3.6962 17.9032 3.41728 18.3005C3.13773 18.6983 3.23361 19.2474 3.63145 19.527Z" fill="#316FF6"/>
<path fill-rule="evenodd" clip-rule="evenodd" d="M3.63145 15.132C3.63145 15.132 10.1812 19.7318 12.7451 21.5323C13.656 22.1717 14.87 22.1717 15.7809 21.5323C18.3448 19.7318 24.8946 15.132 24.8946 15.132C25.2924 14.8524 25.3883 14.3033 25.1087 13.9054C24.8298 13.5082 24.28 13.4117 23.8828 13.6906C23.8828 13.6906 17.3331 18.2904 14.7692 20.091C14.4653 20.3039 14.0607 20.3039 13.7568 20.091L4.64318 13.6906C4.24596 13.4117 3.6962 13.5082 3.41728 13.9054C3.13773 14.3033 3.23361 14.8524 3.63145 15.132Z" fill="#316FF6"/>
</g>
<defs>
<clipPath id="clip0_3204_693">
<rect width="28.18" height="28.18" fill="white" transform="translate(0.179932)"/>
</clipPath>
</defs>
</svg>
