<svg width="29" height="29" viewBox="0 0 29 29" fill="none" xmlns="http://www.w3.org/2000/svg">
<g clip-path="url(#clip0_3204_717)">
<path d="M16.3019 11.8114C16.0801 11.107 15.4003 10.4253 14.6301 10.4253C13.8598 10.4253 13.1801 11.107 12.9583 11.8114C13.4878 11.5943 14.0508 11.481 14.6301 11.481C15.2095 11.481 15.7724 11.5943 16.3019 11.8114Z" fill="#316FF6"/>
<path d="M0.540039 25.1918C0.540039 25.7854 1.0213 26.2666 1.6149 26.2666H27.6451C28.2388 26.2666 28.72 25.7854 28.72 25.1918V7.7334H0.540039L0.540039 25.1918ZM5.55476 18.2956L7.74074 16.7291C7.8817 16.6281 8.05078 16.5738 8.22426 16.5738H9.60635C9.66315 16.1449 9.75809 15.7274 9.88914 15.3269L7.42708 13.7012C7.05507 13.4556 6.9435 12.96 7.17434 12.5786L8.37353 10.5975C8.61097 10.2053 9.1214 10.0798 9.51355 10.3172C9.90576 10.5546 10.0312 11.065 9.79381 11.4572L9.00796 12.7555L10.6119 13.8146C10.7253 13.6413 10.8464 13.4739 10.9766 13.3143C11.0807 13.1868 11.1889 13.0658 11.3004 12.9508C11.2482 12.7305 11.2216 12.5045 11.2216 12.2775C11.2216 10.6195 12.6792 8.76516 14.63 8.76516C16.5808 8.76516 18.0384 10.6195 18.0384 12.2775C18.0384 12.5056 18.012 12.7308 17.9597 12.9508C18.0712 13.0659 18.1794 13.1868 18.2835 13.3143C18.4137 13.4739 18.5347 13.6413 18.6482 13.8146L20.2521 12.7555L19.4662 11.4572C19.2288 11.065 19.3543 10.5546 19.7465 10.3172C20.1387 10.0797 20.649 10.2052 20.8865 10.5975L22.0857 12.5786C22.3166 12.96 22.205 13.4556 21.8329 13.7012L19.3708 15.3269C19.5019 15.7274 19.5969 16.1449 19.6536 16.5738H21.0357C21.1955 16.5738 21.3518 16.62 21.486 16.7066L23.235 17.8359C23.6201 18.0846 23.7307 18.5984 23.482 18.9836C23.3232 19.2295 23.0563 19.3635 22.7839 19.3635C22.6296 19.3635 22.4735 19.3206 22.3343 19.2307L20.791 18.2341H19.6818C19.6282 18.7857 19.5129 19.3212 19.3384 19.8277L21.8336 21.4788C22.2051 21.7247 22.3164 22.2199 22.0857 22.601L20.8865 24.5821C20.7305 24.8399 20.4564 24.9824 20.1755 24.9824C20.0291 24.9824 19.8808 24.9437 19.7464 24.8623C19.3542 24.6249 19.2287 24.1145 19.4662 23.7223L20.2524 22.4234L18.5929 21.3251C18.4955 21.4685 18.3926 21.6076 18.2835 21.7413C17.3188 22.9235 16.0213 23.5745 14.63 23.5745C13.2388 23.5745 11.9413 22.9235 10.9766 21.7413C10.8675 21.6076 10.7646 21.4685 10.6673 21.3251L9.00758 22.4233L9.79387 23.7222C10.0313 24.1144 9.90582 24.6248 9.51361 24.8622C9.3792 24.9436 9.23093 24.9823 9.08452 24.9823C8.80366 24.9823 8.52962 24.8398 8.37358 24.582L7.17439 22.6009C6.94372 22.2198 7.05496 21.7245 7.42647 21.4787L9.92167 19.8276C9.74708 19.321 9.63189 18.7856 9.57828 18.234H8.49104L6.52185 19.6451C6.37539 19.75 6.20642 19.8005 6.03905 19.8005C5.78042 19.8005 5.5257 19.6801 5.36355 19.4539C5.09645 19.0811 5.18209 18.5626 5.55476 18.2956Z" fill="#316FF6"/>
<path d="M15.4602 21.7832C16.95 21.3069 18.0571 19.5799 18.0571 17.5276C18.0571 15.4752 16.95 13.7483 15.4602 13.272V21.7832Z" fill="#316FF6"/>
<path d="M27.6452 1.91357H1.6149C1.0213 1.91357 0.540039 2.39484 0.540039 2.98843V6.07299H28.72V2.98843C28.72 2.39484 28.2388 1.91357 27.6452 1.91357ZM2.96831 4.83835C2.50983 4.83835 2.13815 4.46667 2.13815 4.0082C2.13815 3.54972 2.50983 3.17804 2.96831 3.17804C3.42678 3.17804 3.79846 3.54972 3.79846 4.0082C3.79846 4.46667 3.42678 4.83835 2.96831 4.83835ZM6.43137 4.83835C5.97289 4.83835 5.60121 4.46667 5.60121 4.0082C5.60121 3.54972 5.97289 3.17804 6.43137 3.17804C6.88984 3.17804 7.26152 3.54972 7.26152 4.0082C7.26152 4.46667 6.88984 4.83835 6.43137 4.83835ZM26.0713 4.83835C25.6128 4.83835 25.2411 4.46667 25.2411 4.0082C25.2411 3.54972 25.6128 3.17804 26.0713 3.17804C26.5298 3.17804 26.9014 3.54972 26.9014 4.0082C26.9014 4.46667 26.5298 4.83835 26.0713 4.83835Z" fill="#316FF6"/>
<path d="M13.7998 21.7832V13.272C12.31 13.7483 11.2029 15.4752 11.2029 17.5276C11.2029 19.5799 12.31 21.3069 13.7998 21.7832Z" fill="#316FF6"/>
</g>
<defs>
<clipPath id="clip0_3204_717">
<rect width="28.18" height="28.18" fill="white" transform="translate(0.540039)"/>
</clipPath>
</defs>
</svg>
