<svg width="24" height="24" viewBox="0 0 24 24" fill="none" xmlns="http://www.w3.org/2000/svg">
<path d="M19.6124 8.28754H19.2524C19.2224 8.28754 19.1926 8.25 19.185 8.21997C19.0563 7.81076 18.8906 7.41412 18.6899 7.03497C18.6749 7.00504 18.6676 6.95997 18.6974 6.93747L18.9525 6.68243C19.174 6.45601 19.2979 6.15175 19.2975 5.835C19.2991 5.67791 19.2694 5.52208 19.2102 5.37658C19.1509 5.23108 19.0634 5.09881 18.9525 4.9875L17.5126 3.5475C17.2871 3.32409 16.9825 3.19876 16.6651 3.19876C16.3477 3.19876 16.0431 3.32409 15.8176 3.5475L15.5625 3.80255C15.54 3.83249 15.4951 3.82498 15.4651 3.81005C15.0859 3.6095 14.6892 3.44378 14.28 3.31494C14.25 3.30743 14.2125 3.2775 14.2125 3.24756V2.8875C14.2116 2.56954 14.0849 2.26487 13.8601 2.04002C13.6352 1.81518 13.3306 1.68845 13.0126 1.6875H10.9874C10.6695 1.68845 10.3648 1.81518 10.14 2.04002C9.91516 2.26487 9.78846 2.56954 9.78754 2.8875V3.24757C9.78754 3.27751 9.75 3.30745 9.71997 3.31495C9.31079 3.4438 8.91414 3.60952 8.53491 3.81007C8.50507 3.825 8.46002 3.83251 8.4375 3.80257L8.18262 3.5475C7.95709 3.32409 7.65248 3.19875 7.33502 3.19875C7.01757 3.19875 6.71296 3.32409 6.48743 3.5475L5.0475 4.9875C4.93665 5.09881 4.84906 5.23108 4.78983 5.37658C4.7306 5.52208 4.70091 5.67791 4.7025 5.835C4.70213 6.15174 4.826 6.456 5.0475 6.68241L5.30255 6.9375C5.3324 6.96 5.32505 7.00507 5.31005 7.035C5.10947 7.41419 4.94375 7.81082 4.81493 8.22C4.80761 8.25 4.77758 8.28757 4.74755 8.28757H4.38755C4.06958 8.28848 3.76489 8.41519 3.54004 8.64002C3.31519 8.86485 3.18845 9.16953 3.1875 9.4875V11.5125C3.18715 11.6897 3.22677 11.8646 3.30339 12.0243C3.38001 12.1841 3.49168 12.3245 3.63007 12.4351C3.839 11.8968 4.20114 11.4316 4.6717 11.0971C5.14225 10.7625 5.70056 10.5732 6.27757 10.5526C6.97714 10.5597 7.64766 10.8333 8.15257 11.3176C8.09216 11.0493 8.06195 10.775 8.0625 10.5C8.0625 9.45571 8.47734 8.45419 9.21577 7.71577C9.95419 6.97734 10.9557 6.5625 12 6.5625C13.0443 6.5625 14.0458 6.97734 14.7842 7.71577C15.5227 8.45419 15.9375 9.45571 15.9375 10.5C15.9381 10.775 15.9078 11.0493 15.8474 11.3176C16.3523 10.8333 17.0228 10.5597 17.7224 10.5526C18.2994 10.5732 18.8578 10.7625 19.3284 11.0971C19.7989 11.4316 20.1611 11.8968 20.3701 12.4351C20.5085 12.3244 20.6201 12.184 20.6967 12.0243C20.7732 11.8646 20.8128 11.6896 20.8125 11.5125V9.4875C20.8116 9.16952 20.6848 8.86483 20.46 8.63999C20.2351 8.41515 19.9304 8.28844 19.6124 8.28754Z" fill="#316FF6"/>
<path d="M15.0564 19.4785L13.5629 18.9811C13.5176 18.9654 13.4774 18.9377 13.4466 18.901C13.4158 18.8643 13.3955 18.8199 13.3879 18.7726C13.3803 18.7253 13.3857 18.6768 13.4035 18.6323C13.4213 18.5878 13.4509 18.5489 13.489 18.5199C13.8589 18.1953 14.1532 17.7936 14.3512 17.3431C14.5492 16.8926 14.6462 16.4042 14.6352 15.9122C14.6352 14.1657 13.4554 12.75 12.0001 12.75C10.5447 12.75 9.36493 14.1657 9.36493 15.9122C9.35396 16.4042 9.4509 16.8926 9.64892 17.3431C9.84694 17.7936 10.1412 18.1953 10.5111 18.5199C10.5493 18.5489 10.5788 18.5878 10.5966 18.6323C10.6144 18.6768 10.6198 18.7253 10.6122 18.7726C10.6046 18.8199 10.5843 18.8643 10.5535 18.901C10.5227 18.9377 10.4825 18.9654 10.4372 18.9811L8.94372 19.4785C8.5803 19.5996 8.24763 19.7984 7.9689 20.0612C7.69017 20.3239 7.47208 20.6443 7.32981 20.9999L7.01889 21.7772C6.98691 21.8572 6.97501 21.9438 6.98423 22.0294C6.99346 22.1151 7.02353 22.1971 7.07182 22.2684C7.1201 22.3398 7.18513 22.3982 7.26121 22.4385C7.33729 22.4789 7.4221 22.5 7.50823 22.5H16.4919C16.578 22.5 16.6628 22.4789 16.7389 22.4385C16.815 22.3982 16.88 22.3398 16.9283 22.2684C16.9766 22.1971 17.0067 22.1151 17.0159 22.0294C17.0251 21.9438 17.0132 21.8572 16.9812 21.7772L16.6703 20.9999C16.528 20.6443 16.31 20.3239 16.0312 20.0612C15.7525 19.7984 15.4198 19.5996 15.0564 19.4785Z" fill="#316FF6"/>
<path d="M9.47252 18.5099L8.70752 18.765C8.24726 18.9187 7.82531 19.1694 7.47011 19.5H2.49767C2.42555 19.4996 2.35462 19.4816 2.29112 19.4474C2.22761 19.4132 2.17348 19.364 2.13348 19.304C2.09348 19.244 2.06883 19.1751 2.06172 19.1033C2.0546 19.0315 2.06523 18.9591 2.09267 18.8924L2.34755 18.24C2.46878 17.9415 2.65272 17.6725 2.88693 17.4512C3.12114 17.23 3.40014 17.0616 3.70506 16.9575L4.9652 16.5375C5.00364 16.5255 5.03794 16.5029 5.06424 16.4724C5.09054 16.4419 5.10778 16.4046 5.11401 16.3649C5.12024 16.3251 5.11522 16.2843 5.09951 16.2472C5.0838 16.2101 5.05803 16.1782 5.02511 16.155C4.71505 15.8804 4.46856 15.5416 4.30276 15.1621C4.13697 14.7826 4.05587 14.3715 4.06511 13.9574C4.01119 13.313 4.21309 12.6731 4.62713 12.1763C5.04118 11.6795 5.63412 11.3656 6.27776 11.3025C6.92215 11.3652 7.51608 11.6787 7.93139 12.1754C8.34671 12.6721 8.55012 13.3121 8.49776 13.9574C8.50737 14.3723 8.42568 14.7841 8.25847 15.1639C8.09125 15.5436 7.84259 15.882 7.53011 16.155C7.49873 16.1791 7.47444 16.2113 7.45977 16.2481C7.44511 16.2849 7.44061 16.3249 7.44675 16.364C7.45289 16.4031 7.46945 16.4399 7.49468 16.4704C7.51992 16.5009 7.5529 16.5241 7.59017 16.5375L8.7375 16.92C8.86116 17.498 9.11227 18.0412 9.47252 18.5099Z" fill="#316FF6"/>
<path d="M21.5025 19.5001H16.53C16.1748 19.1694 15.7529 18.9188 15.2926 18.7651L14.5276 18.51C14.8879 18.0414 15.139 17.4982 15.2626 16.9201L16.4099 16.5376C16.4472 16.5242 16.4802 16.501 16.5054 16.4705C16.5306 16.44 16.5472 16.4033 16.5533 16.3641C16.5595 16.325 16.555 16.285 16.5403 16.2482C16.5257 16.2114 16.5014 16.1792 16.47 16.1551C16.1575 15.8821 15.9089 15.5437 15.7417 15.164C15.5745 14.7842 15.4928 14.3724 15.5025 13.9576C15.4501 13.3122 15.6535 12.6722 16.0688 12.1755C16.4842 11.6788 17.0781 11.3653 17.7225 11.3026C18.3661 11.3658 18.959 11.6797 19.3731 12.1765C19.7871 12.6733 19.989 13.3131 19.9351 13.9576C19.9443 14.3716 19.8632 14.7827 19.6974 15.1622C19.5316 15.5417 19.2851 15.8805 18.9751 16.1551C18.9422 16.1783 18.9164 16.2103 18.9007 16.2473C18.885 16.2844 18.88 16.3252 18.8862 16.3649C18.8924 16.4047 18.9097 16.442 18.9359 16.4725C18.9622 16.503 18.9965 16.5256 19.0349 16.5376L20.2951 16.9576C20.6 17.0616 20.879 17.23 21.1132 17.4513C21.3474 17.6726 21.5314 17.9416 21.6526 18.2401L21.9075 18.8925C21.9349 18.9592 21.9456 19.0316 21.9385 19.1034C21.9313 19.1752 21.9067 19.2441 21.8667 19.3041C21.8267 19.3641 21.7725 19.4134 21.709 19.4475C21.6455 19.4817 21.5746 19.4997 21.5025 19.5001Z" fill="#316FF6"/>
</svg>
