<svg width="40" height="40" viewBox="0 0 40 40" fill="none" xmlns="http://www.w3.org/2000/svg">
<rect width="40" height="40" rx="8" fill="#E1FFFC"/>
<path fill-rule="evenodd" clip-rule="evenodd" d="M23.479 30.75H12C11.271 30.75 10.571 30.46 10.055 29.945C9.54 29.429 9.25 28.729 9.25 28V12C9.25 11.271 9.54 10.571 10.055 10.055C10.571 9.54 11.271 9.25 12 9.25H20.586C21.05 9.25 21.495 9.434 21.823 9.763L26.237 14.177C26.566 14.505 26.75 14.95 26.75 15.414V19.565C26.063 19.464 25.364 19.481 24.682 19.615C24.107 19.727 23.627 20.12 23.402 20.661L23.232 21.071C23.008 21.042 22.791 21.014 22.791 21.014C22.21 20.938 21.63 21.157 21.245 21.599C20.724 22.197 20.323 22.89 20.066 23.641C19.876 24.195 19.976 24.807 20.332 25.272L20.603 25.625C20.466 25.804 20.332 25.978 20.332 25.978C19.976 26.443 19.876 27.055 20.066 27.609C20.323 28.36 20.724 29.053 21.245 29.651C21.63 30.093 22.21 30.312 22.791 30.236L23.232 30.179C23.318 30.387 23.402 30.589 23.402 30.589C23.425 30.644 23.451 30.698 23.479 30.75ZM13.5 22.75H18C18.414 22.75 18.75 22.414 18.75 22C18.75 21.586 18.414 21.25 18 21.25H13.5C13.086 21.25 12.75 21.586 12.75 22C12.75 22.414 13.086 22.75 13.5 22.75ZM20.5 11V14.5C20.5 15.052 20.948 15.5 21.5 15.5H25L20.5 11ZM13.5 19.25H21.5C21.914 19.25 22.25 18.914 22.25 18.5C22.25 18.086 21.914 17.75 21.5 17.75H13.5C13.086 17.75 12.75 18.086 12.75 18.5C12.75 18.914 13.086 19.25 13.5 19.25ZM13.5 26.25H18C18.414 26.25 18.75 25.914 18.75 25.5C18.75 25.086 18.414 24.75 18 24.75H13.5C13.086 24.75 12.75 25.086 12.75 25.5C12.75 25.914 13.086 26.25 13.5 26.25Z" fill="#2D8981"/>
<path fill-rule="evenodd" clip-rule="evenodd" d="M27.3969 21.044C27.3969 21.044 27.7519 21.899 27.7509 21.899C27.8859 21.967 28.0169 22.043 28.1439 22.125L29.0619 22.005C29.3099 21.973 29.5589 22.067 29.7239 22.256C30.1599 22.756 30.4949 23.337 30.7109 23.965C30.7919 24.202 30.7489 24.465 30.5959 24.664C30.5959 24.664 30.0339 25.399 30.0339 25.398C30.0419 25.549 30.0419 25.701 30.0339 25.851L30.5959 26.586C30.7489 26.785 30.7919 27.048 30.7109 27.285C30.4949 27.913 30.1599 28.494 29.7239 28.994C29.5589 29.183 29.3099 29.277 29.0619 29.245C29.0619 29.245 28.1439 29.125 28.1449 29.124C28.0179 29.207 27.8859 29.283 27.7519 29.351L27.3969 30.206C27.3009 30.438 27.0949 30.606 26.8489 30.654C26.1969 30.782 25.5269 30.782 24.8749 30.654C24.6289 30.606 24.4229 30.438 24.3269 30.206C24.3269 30.206 23.9719 29.351 23.9729 29.351C23.8379 29.283 23.7059 29.207 23.5799 29.125L22.6619 29.245C22.4129 29.277 22.1649 29.183 21.9999 28.994C21.5629 28.494 21.2279 27.913 21.0129 27.285C20.9319 27.048 20.9749 26.785 21.1269 26.586C21.1269 26.586 21.6899 25.851 21.6899 25.852C21.6819 25.701 21.6819 25.549 21.6899 25.399L21.1269 24.664C20.9749 24.465 20.9319 24.202 21.0129 23.965C21.2279 23.337 21.5629 22.756 21.9999 22.256C22.1649 22.067 22.4129 21.973 22.6619 22.005C22.6619 22.005 23.5799 22.125 23.5789 22.126C23.7059 22.043 23.8369 21.967 23.9719 21.899L24.3269 21.044C24.4229 20.812 24.6289 20.644 24.8749 20.596C25.5269 20.468 26.1969 20.468 26.8489 20.596C27.0949 20.644 27.3009 20.812 27.3969 21.044ZM25.8619 24.125C25.0339 24.125 24.3619 24.797 24.3619 25.625C24.3619 26.453 25.0339 27.125 25.8619 27.125C26.6899 27.125 27.3619 26.453 27.3619 25.625C27.3619 24.797 26.6899 24.125 25.8619 24.125Z" fill="#2D8981"/>
</svg>
