<svg width="29" height="29" viewBox="0 0 29 29" fill="none" xmlns="http://www.w3.org/2000/svg">
<g clip-path="url(#clip0_3204_683)">
<path d="M23.3493 26.7711C23.3493 27.4969 22.7942 28.052 22.0684 28.052H7.55142C6.86827 28.052 6.27051 27.4969 6.27051 26.7711C6.27051 26.0879 6.86827 25.4902 7.55142 25.4902H9.43008C10.0278 24.807 10.3267 23.9958 10.3267 23.0991H18.738C18.8661 23.8677 19.3358 24.6789 20.147 25.4902H22.0684C22.7942 25.4902 23.3493 26.0452 23.3493 26.7711Z" fill="#316FF6"/>
<path d="M26.509 0.12793H3.15373C2.04361 0.12793 1.14697 1.02457 1.14697 2.13469V20.2809C1.14697 21.391 2.04361 22.245 3.15373 22.245H26.509C27.6191 22.245 28.473 21.3483 28.473 20.2809V2.13469C28.473 1.02457 27.5764 0.12793 26.509 0.12793ZM14.6392 20.409C14.2122 20.409 13.8707 20.0674 13.8707 19.6404C13.8707 19.2135 14.2122 18.8719 14.6392 18.8719C15.0662 18.8719 15.4078 19.2135 15.4078 19.6404C15.4078 20.0674 15.0662 20.409 14.6392 20.409ZM27.6191 17.3348H2.00091V2.13469C2.00091 1.49423 2.51328 0.981869 3.15373 0.981869H26.509C27.1067 0.981869 27.6191 1.49423 27.6191 2.13469V17.3348Z" fill="#316FF6"/>
<path d="M17.2437 10.5457C17.4145 10.503 17.5425 10.3323 17.5425 10.1615V9.47832H19.9336C20.1044 9.99069 20.574 10.3323 21.1718 10.3323C21.8976 10.3323 22.4527 9.7345 22.4527 9.05135C22.4527 8.3255 21.8549 7.77044 21.1718 7.77044C20.6167 7.77044 20.1044 8.11202 19.9336 8.62438H17.5425V7.98393C17.5425 7.81314 17.4145 7.64235 17.2437 7.59966L16.0482 7.17269C16.0055 7.12999 16.0055 7.04459 15.9628 7.0019L16.3897 6.06256H21.1291C21.3853 6.06256 21.5561 5.89178 21.5561 5.63559V4.90975C22.0684 4.73896 22.41 4.26929 22.41 3.67153C22.41 2.94569 21.8122 2.39062 21.1291 2.39062C20.4032 2.39062 19.8482 2.98838 19.8482 3.67153C19.8482 4.22659 20.1898 4.69626 20.7021 4.90975V5.20863H16.3043L14.8953 3.79962C14.7672 3.67153 14.5538 3.62884 14.4257 3.71423L13.2728 4.26929C13.2302 4.22659 13.1448 4.22659 13.1021 4.1839L12.6751 2.94569C12.6324 2.7749 12.4616 2.64681 12.2908 2.64681H10.1133C9.94248 2.64681 9.7717 2.7749 9.729 2.94569L9.30203 4.1839C9.25933 4.1839 9.17394 4.22659 9.13124 4.26929L7.97842 3.71423C7.80764 3.62884 7.63685 3.67153 7.50876 3.79962L5.97167 5.33672C5.84357 5.46481 5.80088 5.63559 5.88627 5.80638L6.44133 7.0019C6.39864 7.04459 6.39864 7.12999 6.35594 7.17269L5.11773 7.59966C4.94694 7.64235 4.81885 7.81314 4.81885 7.98393V10.1615C4.81885 10.3323 4.94694 10.503 5.11773 10.5457L6.35594 10.9727C6.35594 11.0154 6.39864 11.1008 6.44133 11.1435L5.88627 12.2963C5.80088 12.4671 5.84357 12.6379 5.97167 12.766L7.50876 14.3031C7.63685 14.4312 7.85033 14.4739 7.97842 14.3885L9.13124 13.8334C9.17394 13.8761 9.25933 13.8761 9.30203 13.9188L9.729 15.1143C9.7717 15.2851 9.94248 15.4132 10.1133 15.4132H12.2908C12.4616 15.4132 12.6324 15.2851 12.6751 15.1143L13.1021 13.8761C13.1448 13.8761 13.2302 13.8334 13.2728 13.7907L14.4257 14.3458C14.5965 14.4312 14.7672 14.3885 14.8953 14.2604L16.347 12.8087H20.7021V13.193C20.1898 13.3637 19.8482 13.8334 19.8482 14.4312C19.8482 15.157 20.4459 15.7121 21.1291 15.7121C21.8549 15.7121 22.41 15.1143 22.41 14.4312C22.41 13.8761 22.0257 13.3637 21.5561 13.193V12.3817C21.5561 12.1682 21.3853 11.9547 21.1291 11.9547H16.347L15.9201 11.0581C15.9628 11.0154 15.9628 10.93 16.0055 10.8873L17.2437 10.5457ZM11.0953 12.5952C9.13124 12.5952 7.55145 11.0154 7.55145 9.05135C7.55145 7.08729 9.13124 5.5075 11.0953 5.5075C13.0594 5.5075 14.6391 7.08729 14.6391 9.05135C14.6818 11.0154 13.0594 12.5952 11.0953 12.5952Z" fill="#316FF6"/>
</g>
<defs>
<clipPath id="clip0_3204_683">
<rect width="28.18" height="28.18" fill="white" transform="translate(0.719971)"/>
</clipPath>
</defs>
</svg>
