<svg width="40" height="40" viewBox="0 0 40 40" fill="none" xmlns="http://www.w3.org/2000/svg">
<rect width="40" height="40" rx="8" fill="#FFE8E8"/>
<g clip-path="url(#clip0_3769_744)">
<path d="M8.42773 21.8281L13.5001 26.9005C13.5001 25.649 13.5001 23.1083 13.5001 21.8281C12.7736 21.8281 8.42773 21.8281 8.42773 21.8281Z" fill="#FF1010"/>
<path d="M18.75 26.0702C18.711 21.8358 22.4681 18.4051 26.6249 18.754V8H8.01562V20.4218H14.9062V27.3124H18.8554C18.7852 26.9045 18.75 26.4874 18.75 26.0702ZM12.5156 13.8594H17.7656V15.2656H12.5156V13.8594ZM22.1249 12.4531H12.5156V11.0469H22.1249V12.4531ZM12.5156 18.0781V16.6718H17.7656V18.0781H12.5156Z" fill="#FF1010"/>
<path d="M26.624 20.165C23.453 19.8408 20.477 22.2758 20.1853 25.4693C19.8157 28.9294 22.6019 32.0207 26.085 31.9999C33.629 31.7338 34.0756 21.0953 26.624 20.165ZM28.7104 27.7015L27.7162 28.6957L26.085 27.0645L24.4537 28.6957L23.4595 27.7015L25.0907 26.0703L23.4595 24.439L24.4537 23.4448L26.085 25.0761L27.7162 23.4448L28.7104 24.439L27.0792 26.0703L28.7104 27.7015Z" fill="#FF1010"/>
</g>
<defs>
<clipPath id="clip0_3769_744">
<rect width="24" height="24" fill="white" transform="translate(8 8)"/>
</clipPath>
</defs>
</svg>
