<svg width="40" height="40" viewBox="0 0 40 40" fill="none" xmlns="http://www.w3.org/2000/svg">
<rect width="40" height="40" rx="8" fill="#FFECE4"/>
<g clip-path="url(#clip0_3769_736)">
<path fill-rule="evenodd" clip-rule="evenodd" d="M19.9996 12.0483C18.897 12.0484 17.8192 12.3753 16.9025 12.9879C15.9858 13.6004 15.2713 14.4711 14.8493 15.4897C14.4274 16.5083 14.317 17.6292 14.5321 18.7106C14.7472 19.7919 15.2781 20.7852 16.0577 21.5649C16.8373 22.3445 17.8306 22.8755 18.912 23.0906C19.9933 23.3057 21.1142 23.1954 22.1328 22.7735C23.1515 22.3516 24.0221 21.6371 24.6347 20.7204C25.2473 19.8037 25.5743 18.726 25.5744 17.6234C25.5728 16.1453 24.985 14.7283 23.9398 13.6831C22.8947 12.6379 21.4776 12.05 19.9996 12.0483ZM10.2529 11.5239H29.7462V23.7221H10.2529V11.5239ZM8.88063 23.7221H9.12775V11.5239H8.88063C8.80677 11.5239 8.73363 11.5094 8.66539 11.4811C8.59716 11.4529 8.53516 11.4114 8.48295 11.3592C8.43073 11.307 8.38932 11.2449 8.36108 11.1767C8.33284 11.1084 8.31832 11.0353 8.31836 10.9614V8.57007C8.3183 8.49618 8.33281 8.42301 8.36105 8.35474C8.3893 8.28646 8.43073 8.22443 8.48297 8.17218C8.53522 8.11994 8.59725 8.07851 8.66553 8.05026C8.7338 8.02201 8.80697 8.00751 8.88086 8.00757H31.1178C31.267 8.00757 31.4101 8.06683 31.5155 8.17232C31.621 8.27781 31.6803 8.42088 31.6803 8.57007V10.9613C31.6803 11.1105 31.621 11.2536 31.5155 11.3591C31.4101 11.4646 31.267 11.5238 31.1178 11.5238H30.8713V23.7221H31.1178C31.267 23.7221 31.4101 23.7814 31.5155 23.8869C31.621 23.9924 31.6803 24.1354 31.6803 24.2846V26.6762C31.6803 26.8254 31.621 26.9685 31.5155 27.074C31.4101 27.1795 31.267 27.2387 31.1178 27.2387H20.5621V28.6212C20.9501 28.7544 21.2782 29.0208 21.4882 29.3731C21.6982 29.7255 21.7765 30.1409 21.709 30.5455C21.6415 30.9501 21.4327 31.3176 21.1197 31.5827C20.8067 31.8478 20.4098 31.9933 19.9996 31.9933C19.5894 31.9933 19.1925 31.8478 18.8796 31.5827C18.5666 31.3176 18.3577 30.9501 18.2903 30.5455C18.2228 30.1409 18.301 29.7255 18.511 29.3731C18.721 29.0208 19.0491 28.7544 19.4371 28.6212V27.2389H8.88063C8.73148 27.2389 8.58847 27.1796 8.48303 27.0741C8.37759 26.9686 8.31836 26.8256 8.31836 26.6764V24.2847C8.31832 24.2108 8.33285 24.1377 8.3611 24.0694C8.38936 24.0012 8.43079 23.9391 8.48303 23.8869C8.53527 23.8347 8.59729 23.7932 8.66556 23.765C8.73382 23.7367 8.80698 23.7222 8.88086 23.7222L8.88063 23.7221ZM17.179 15.3655C17.1051 15.3655 17.032 15.351 16.9638 15.3227C16.8956 15.2944 16.8336 15.253 16.7815 15.2008L16.483 14.9023C16.7136 14.6047 16.9808 14.3374 17.2784 14.1068L17.5771 14.4054C17.6557 14.4841 17.7093 14.5844 17.7309 14.6935C17.7526 14.8026 17.7414 14.9157 17.6988 15.0185C17.6562 15.1213 17.584 15.2091 17.4915 15.2709C17.399 15.3326 17.2902 15.3656 17.179 15.3655ZM16.0109 18.1859H15.5887C15.5417 17.8124 15.5417 17.4344 15.5887 17.0609H16.011C16.1602 17.0609 16.3032 17.1202 16.4087 17.2257C16.5142 17.3312 16.5735 17.4742 16.5735 17.6234C16.5735 17.7726 16.5142 17.9157 16.4087 18.0212C16.3032 18.1266 16.1602 18.1859 16.011 18.1859H16.0109ZM17.5769 20.8413L17.2784 21.1395C16.9809 20.9089 16.7137 20.6417 16.483 20.3442L16.7813 20.0453C16.8868 19.9398 17.03 19.8805 17.1792 19.8806C17.3285 19.8806 17.4716 19.9399 17.5771 20.0455C17.6826 20.151 17.7419 20.2942 17.7418 20.4434C17.7418 20.5927 17.6825 20.7358 17.5769 20.8413ZM20.5619 21.6114V22.0333C20.1884 22.0803 19.8105 22.0803 19.4369 22.0333V21.6112C19.4369 21.462 19.4962 21.3189 19.6017 21.2134C19.7072 21.1079 19.8502 21.0487 19.9994 21.0487C20.1486 21.0487 20.2917 21.1079 20.3972 21.2134C20.5027 21.3189 20.5619 21.462 20.5619 21.6112V21.6114ZM23.2167 20.0453L23.5153 20.3438C23.2847 20.6414 23.0174 20.9087 22.7198 21.1393L22.4215 20.8413C22.3159 20.7358 22.2566 20.5928 22.2565 20.4435C22.2564 20.2943 22.3156 20.1512 22.4211 20.0457C22.5266 19.9401 22.6696 19.8808 22.8188 19.8807C22.9681 19.8806 23.1112 19.9398 23.2167 20.0453ZM23.9873 17.0606H24.4096C24.4566 17.4342 24.4566 17.8121 24.4096 18.1856H23.9873C23.8381 18.1856 23.6951 18.1264 23.5896 18.0209C23.4841 17.9154 23.4248 17.7723 23.4248 17.6231C23.4248 17.4739 23.4841 17.3309 23.5896 17.2254C23.6951 17.1199 23.8381 17.0606 23.9873 17.0606H23.9873ZM22.4216 14.4054L22.7202 14.1069C23.0179 14.3376 23.2853 14.6049 23.516 14.9026L23.2172 15.2008C23.1109 15.3025 22.9691 15.3585 22.822 15.3569C22.675 15.3553 22.5344 15.2961 22.4305 15.1921C22.3265 15.0882 22.2674 14.9476 22.2658 14.8005C22.2641 14.6535 22.3202 14.5117 22.4219 14.4054H22.4216ZM19.9996 14.1972C19.8504 14.1972 19.7073 14.1379 19.6018 14.0324C19.4963 13.9269 19.4371 13.7839 19.4371 13.6347V13.2128C19.8106 13.1658 20.1885 13.1658 20.5621 13.2128V13.6347C20.5621 13.7839 20.5028 13.9269 20.3973 14.0324C20.2918 14.1379 20.1487 14.1972 19.9996 14.1972ZM20.46 17.9463L19.6352 19.1221C19.5484 19.2412 19.4183 19.3215 19.2728 19.3457C19.1274 19.3699 18.9783 19.336 18.8576 19.2513C18.7369 19.1667 18.6542 19.038 18.6274 18.893C18.6006 18.748 18.6319 18.5983 18.7143 18.4761L19.437 17.4457V15.5558C19.437 15.4066 19.4962 15.2635 19.6017 15.158C19.7072 15.0525 19.8503 14.9933 19.9995 14.9933C20.1487 14.9933 20.2917 15.0525 20.3972 15.158C20.5027 15.2635 20.562 15.4066 20.562 15.5558V17.6234C20.5619 17.739 20.5263 17.8517 20.46 17.9463Z" fill="#E75212"/>
</g>
<defs>
<clipPath id="clip0_3769_736">
<rect width="24" height="24" fill="white" transform="translate(8 8)"/>
</clipPath>
</defs>
</svg>
