<svg width="29" height="29" viewBox="0 0 29 29" fill="none" xmlns="http://www.w3.org/2000/svg">
<g clip-path="url(#clip0_3204_702)">
<path d="M24.8679 3.71456C20.5128 -0.640531 13.4251 -0.640531 9.07003 3.71456C4.71494 8.06965 4.71494 15.1573 9.07003 19.5124C11.1622 21.6046 13.9802 22.8001 16.969 22.8001C26.8747 22.7574 31.8275 10.6742 24.8679 3.71456ZM16.969 21.9035C14.2364 21.9035 11.6318 20.836 9.66779 18.872C5.65427 14.8585 5.65427 8.32583 9.66779 4.31232C13.6813 0.298803 20.2139 0.298803 24.2275 4.31232C30.6747 10.7596 26.1061 21.9035 16.969 21.9035Z" fill="#316FF6"/>
<path d="M14.3645 4.73947C14.9195 4.73947 15.4746 4.99565 15.8589 5.42262C14.9195 5.84959 14.3645 6.83162 14.3218 7.81365C14.2364 9.05186 15.133 10.1193 16.9263 10.1193C18.8477 10.1193 19.5735 9.17995 19.5735 7.98444C19.5735 6.87431 18.933 5.84959 18.0364 5.42262C18.4207 4.99565 18.9757 4.78216 19.5308 4.78216C19.7443 4.78216 19.9578 4.56868 19.9578 4.35519C19.9578 4.09901 19.7443 3.92822 19.5308 3.92822C18.5915 3.92822 17.6948 4.39789 17.1398 5.20913C17.0117 5.20913 16.8836 5.20913 16.7555 5.20913C16.2004 4.39789 15.3038 3.92822 14.3645 3.92822C14.1083 3.92822 13.9375 4.09901 13.9375 4.35519C13.9375 4.56868 14.1083 4.73947 14.3645 4.73947Z" fill="#316FF6"/>
<path d="M6.551 17.5913L1.68354 22.4161C0.44533 23.6543 0.44533 25.6183 1.68354 26.8566C2.92175 28.0948 4.88581 28.0948 6.12403 26.8566L10.9488 22.0318C9.15551 20.9644 7.57572 19.3846 6.551 17.5913Z" fill="#316FF6"/>
<path d="M23.1601 14.5168C23.2882 14.7302 23.5444 14.7729 23.7579 14.6448C23.9714 14.5168 24.0141 14.2606 23.886 14.0471L22.9039 12.4246C22.8185 12.2965 22.6905 12.2111 22.5197 12.2111H21.3668C21.1534 11.1864 20.641 10.2471 20.0005 9.52121C19.3601 10.5886 18.1646 10.9302 16.9264 10.9302C15.6455 10.9302 14.6207 10.6313 13.9376 9.47852C13.2544 10.2044 12.7421 11.1437 12.5286 12.2111H11.3758C11.2477 12.2111 11.0769 12.2965 11.0342 12.4246L10.0522 14.0471C9.92406 14.2606 10.0095 14.5168 10.1802 14.6448C10.3937 14.7729 10.6499 14.6875 10.778 14.5168L11.6319 13.1078H12.4005C12.4005 13.3212 12.3578 13.5347 12.3578 13.7055C12.3578 14.346 12.4432 14.9864 12.614 15.5415H11.3758C11.2477 15.5415 11.0769 15.6269 11.0342 15.755L10.0522 17.3775C9.92406 17.5909 10.0095 17.8471 10.1802 17.9752C10.3937 18.1033 10.6499 18.0179 10.778 17.8471L11.6319 16.4381H12.9555C13.7668 18.146 15.2612 19.2988 17.0118 19.2988C18.7623 19.2988 20.2567 18.146 21.068 16.4381H22.3916L23.2455 17.8471C23.3736 18.0606 23.6298 18.1033 23.8433 17.9752C24.0568 17.8471 24.0995 17.5909 23.9714 17.3775L22.9893 15.755C22.9039 15.6269 22.7758 15.5415 22.6051 15.5415H21.3668C21.5376 14.9437 21.623 14.346 21.623 13.7055C21.623 13.492 21.623 13.2785 21.5803 13.1078H22.3489L23.1601 14.5168Z" fill="#316FF6"/>
</g>
<defs>
<clipPath id="clip0_3204_702">
<rect width="28.18" height="28.18" fill="white" transform="translate(0.359863)"/>
</clipPath>
</defs>
</svg>
