<svg width="40" height="40" viewBox="0 0 40 40" fill="none" xmlns="http://www.w3.org/2000/svg">
<rect width="40" height="40" rx="8" fill="#D4F6FE"/>
<g clip-path="url(#clip0_3769_731)">
<path d="M24.9821 18.875H24.5066C24.4009 18.4791 24.2444 18.0986 24.0408 17.743L24.375 17.4089C24.5656 17.2179 24.6727 16.959 24.6727 16.6892C24.6727 16.4193 24.5656 16.1605 24.375 15.9695L24.0305 15.6251C23.8395 15.4345 23.5807 15.3275 23.3108 15.3275C23.041 15.3275 22.7822 15.4345 22.5911 15.6251L22.2623 15.9537C21.9053 15.7471 21.5231 15.5877 21.125 15.4797V15.0179C21.1247 14.748 21.0174 14.4893 20.8265 14.2985C20.6357 14.1077 20.377 14.0003 20.1071 14H19.8929C19.623 14.0003 19.3643 14.1077 19.1735 14.2985C18.9827 14.4893 18.8753 14.748 18.875 15.0179V15.4797C18.477 15.5877 18.0947 15.7471 17.7377 15.9538L17.4089 15.6251C17.2178 15.4345 16.9589 15.3275 16.6891 15.3275C16.4192 15.3275 16.1604 15.4345 15.9693 15.6251L15.6252 15.9693C15.4354 16.1608 15.329 16.4195 15.329 16.6891C15.329 16.9587 15.4354 17.2174 15.6252 17.4089L15.9592 17.7431C15.7558 18.0987 15.5992 18.4792 15.4934 18.875H15.0179C14.748 18.8753 14.4893 18.9827 14.2985 19.1735C14.1077 19.3643 14.0003 19.623 14 19.8929V20.1071C14.0003 20.377 14.1077 20.6357 14.2985 20.8265C14.4893 21.0173 14.748 21.1247 15.0179 21.125H15.5022C15.61 21.5168 15.7677 21.8932 15.9713 22.2449L15.6253 22.5909C15.4355 22.7824 15.329 23.0411 15.329 23.3107C15.329 23.5803 15.4354 23.839 15.6251 24.0305L15.9695 24.3749C16.1605 24.5657 16.4193 24.6728 16.6892 24.6728C16.9591 24.6728 17.2179 24.5657 17.4089 24.3749L17.7605 24.0234C18.1108 24.2241 18.4854 24.3793 18.875 24.4852V24.9821C18.8753 25.252 18.9827 25.5107 19.1735 25.7015C19.3643 25.8923 19.623 25.9997 19.8929 26H20.1071C20.377 25.9997 20.6357 25.8923 20.8265 25.7015C21.0174 25.5107 21.1247 25.252 21.125 24.9821V24.4852C21.5147 24.3793 21.8892 24.2241 22.2396 24.0234L22.5911 24.3749C22.7822 24.5655 23.041 24.6725 23.3108 24.6725C23.5807 24.6725 23.8395 24.5655 24.0305 24.3749L24.375 24.0305C24.5656 23.8395 24.6727 23.5807 24.6727 23.3108C24.6727 23.041 24.5656 22.7821 24.375 22.5911L24.0287 22.2449C24.2324 21.8932 24.3901 21.5169 24.4978 21.125H24.9821C25.252 21.1247 25.5107 21.0173 25.7015 20.8265C25.8924 20.6357 25.9997 20.377 26 20.1071V19.8929C25.9997 19.623 25.8924 19.3643 25.7015 19.1735C25.5107 18.9827 25.252 18.8753 24.9821 18.875ZM20 22.625C19.4808 22.625 18.9733 22.471 18.5416 22.1826C18.11 21.8942 17.7735 21.4842 17.5748 21.0045C17.3762 20.5249 17.3242 19.9971 17.4255 19.4879C17.5267 18.9787 17.7767 18.511 18.1439 18.1438C18.511 17.7767 18.9787 17.5267 19.4879 17.4254C19.9971 17.3242 20.5249 17.3761 21.0046 17.5748C21.4842 17.7735 21.8942 18.11 22.1826 18.5416C22.4711 18.9733 22.625 19.4808 22.625 20C22.6242 20.6959 22.3474 21.3632 21.8553 21.8553C21.3632 22.3474 20.696 22.6242 20 22.625ZM31.3075 26.4772C31.3464 26.6196 31.3424 26.7703 31.296 26.9104C31.2497 27.0506 31.163 27.1739 31.0468 27.265C30.9306 27.3561 30.7902 27.4109 30.643 27.4226C30.4959 27.4342 30.3485 27.4022 30.2195 27.3304L29.0425 26.6764C27.9963 28.0965 26.6307 29.2504 25.0559 30.0449C23.4812 30.8394 21.7415 31.2522 19.9777 31.2498C19.7807 31.2498 19.5829 31.2447 19.3844 31.2344C17.751 31.1471 16.1563 30.704 14.7118 29.9362C13.2674 29.1684 12.008 28.0944 11.0219 26.7893C10.0357 25.4842 9.34642 23.9794 9.00228 22.3802C8.65815 20.781 8.66743 19.1259 9.02948 17.5306C9.17605 17.8633 9.43867 18.1313 9.76832 18.2845C10.098 18.4377 10.4721 18.4658 10.8209 18.3634L11.1745 18.2599C10.7802 20.2493 11.07 22.3135 11.9968 24.1174C12.9236 25.9214 14.433 27.359 16.2799 28.1969C18.1268 29.0349 20.2027 29.2239 22.1705 28.7332C24.1384 28.2426 25.8826 27.1012 27.1199 25.4943L25.8715 24.6705C25.7528 24.5913 25.6591 24.4798 25.6015 24.3493C25.5439 24.2187 25.5247 24.0744 25.5463 23.9333C25.5678 23.7922 25.6291 23.6602 25.723 23.5527C25.817 23.4453 25.9396 23.3669 26.0766 23.3267L29.39 22.3564C29.4856 22.3284 29.5859 22.3197 29.6849 22.3309C29.7839 22.3421 29.8796 22.3729 29.9666 22.4215C30.0536 22.4701 30.13 22.5355 30.1914 22.614C30.2528 22.6924 30.2979 22.7823 30.3242 22.8784L31.3075 26.4772ZM8.69252 13.5228C8.65362 13.3804 8.65761 13.2297 8.70399 13.0896C8.75037 12.9494 8.83706 12.8261 8.95323 12.735C9.06939 12.6439 9.20985 12.5891 9.35701 12.5774C9.50418 12.5658 9.6515 12.5978 9.78053 12.6696L10.9575 13.3236C12.4877 11.2435 14.6875 9.75368 17.187 9.10489C19.6865 8.45609 22.3331 8.68785 24.6818 9.76118C27.0305 10.8345 28.9379 12.6839 30.0832 14.9984C31.2285 17.3128 31.5419 19.9511 30.9706 22.4694C30.824 22.1367 30.5614 21.8687 30.2317 21.7155C29.9021 21.5623 29.5279 21.5342 29.1791 21.6366L28.8256 21.7401C29.2199 19.7508 28.9301 17.6865 28.0033 15.8826C27.0765 14.0786 25.5671 12.641 23.7202 11.8031C21.8733 10.9651 19.7974 10.7761 17.8295 11.2668C15.8617 11.7574 14.1175 12.8988 12.8801 14.5057L14.1286 15.3295C14.2473 15.4087 14.3409 15.5202 14.3985 15.6508C14.4561 15.7813 14.4753 15.9256 14.4538 16.0667C14.4322 16.2078 14.3709 16.3398 14.277 16.4473C14.1831 16.5547 14.0604 16.6331 13.9235 16.6733L10.61 17.6436C10.5144 17.6716 10.4142 17.6803 10.3152 17.6691C10.2162 17.6579 10.1204 17.6271 10.0334 17.5785C9.94645 17.5299 9.87004 17.4645 9.80864 17.386C9.74724 17.3076 9.70208 17.2177 9.67581 17.1216L8.69252 13.5228Z" fill="#0390AF"/>
</g>
<defs>
<clipPath id="clip0_3769_731">
<rect width="24" height="24" fill="white" transform="translate(8 8)"/>
</clipPath>
</defs>
</svg>
