<svg width="24" height="25" viewBox="0 0 24 25" fill="none" xmlns="http://www.w3.org/2000/svg">
<path d="M0.00546871 10.6172C-0.0466563 11.0367 0.280484 11.4071 0.703203 11.4071H3.5638C3.90716 11.4071 4.20031 11.1591 4.25717 10.8204C4.80772 7.54171 7.38041 4.96897 10.6591 4.41847C10.9977 4.36161 11.2458 4.06846 11.2458 3.72505V0.864458C11.2458 0.441739 10.8755 0.114599 10.4559 0.166724C7.81827 0.49452 5.32648 1.71416 3.43967 3.60093C1.55291 5.48774 0.333266 7.97952 0.00546871 10.6172Z" fill="#316FF6"/>
<path d="M16.4801 18.4744C15.1456 19.4272 13.5807 19.9309 11.9548 19.9309C8.12881 19.9309 4.89153 17.1891 4.25722 13.4116C4.20036 13.073 3.9072 12.8249 3.56384 12.8249H0.703203C0.280484 12.8249 -0.0466563 13.1952 0.00546871 13.6147V13.6147C0.752703 19.6272 5.88978 24.1612 11.9548 24.1612C14.6567 24.1612 17.2118 23.2842 19.3441 21.6251C19.6778 21.3654 19.7085 20.872 19.4095 20.573L17.3859 18.5494C17.1428 18.3064 16.7598 18.2747 16.4801 18.4744Z" fill="#316FF6"/>
<path d="M13.2503 4.41847C17.0278 5.05279 19.7696 8.29007 19.7696 12.1161C19.7696 13.742 19.266 15.3068 18.3131 16.6414C18.1134 16.921 18.1452 17.3041 18.3882 17.5471L20.4119 19.5708C20.7109 19.8698 21.2042 19.8391 21.4639 19.5054L21.464 19.5053C23.123 17.3732 24 14.818 24 12.1161C24 6.05104 19.4659 0.913958 13.4535 0.166724H13.4534C13.0339 0.114599 12.6636 0.441739 12.6636 0.864458V3.72505C12.6636 4.06846 12.9116 4.36161 13.2503 4.41847Z" fill="#316FF6"/>
<path d="M12.4229 7.28455H11.4849C11.0966 7.28455 10.7817 7.59936 10.7817 7.98767V16.1907H13.1261V7.98767C13.1261 7.59936 12.8112 7.28455 12.4229 7.28455Z" fill="#316FF6"/>
<path d="M14.5322 16.1907H16.1734C16.5617 16.1907 16.8765 15.8759 16.8765 15.4876V9.86261C16.8765 9.4743 16.5617 9.15948 16.1734 9.15948H14.5322V16.1907Z" fill="#316FF6"/>
<path d="M9.37549 11.0345H7.73608C7.34777 11.0345 7.03296 11.3493 7.03296 11.7376V15.4876C7.03296 15.8759 7.34777 16.1907 7.73608 16.1907H9.37549V11.0345Z" fill="#316FF6"/>
</svg>
