<svg width="45" height="45" viewBox="0 0 45 45" fill="none" xmlns="http://www.w3.org/2000/svg">
<g clip-path="url(#clip0_41_124)">
<path d="M5.27344 13.2275C5.27344 14.1984 6.06041 14.9854 7.03125 14.9854C8.00209 14.9854 8.78906 14.1984 8.78906 13.2275V8.83301H13.0957C14.0665 8.83301 14.8535 8.04603 14.8535 7.0752C14.8535 6.10436 14.0665 5.31738 13.0957 5.31738H8.78906V1.80176C8.78906 0.830918 8.00209 0.0439453 7.03125 0.0439453C6.06041 0.0439453 5.27344 0.830918 5.27344 1.80176V5.31738H1.75781C0.786973 5.31738 0 6.10436 0 7.0752C0 8.04603 0.786973 8.83301 1.75781 8.83301H5.27344V13.2275Z" fill="#316FF6"/>
<path d="M37.9688 18.501C36.9979 18.501 36.2109 19.2879 36.2109 20.2588V24.8291C36.2109 25.7999 36.9979 26.5869 37.9688 26.5869C38.9396 26.5869 39.7266 25.7999 39.7266 24.8291V20.2588C39.7266 19.2879 38.9396 18.501 37.9688 18.501Z" fill="#316FF6"/>
<path d="M31.8164 8.83301H32.6953C34.6338 8.83301 36.2109 10.4101 36.2109 12.3486V13.2275C36.2109 14.1984 36.9979 14.9854 37.9688 14.9854C38.9396 14.9854 39.7266 14.1984 39.7266 13.2275V12.3486C39.7266 8.4716 36.5723 5.31738 32.6953 5.31738H31.8164C30.8456 5.31738 30.0586 6.10436 30.0586 7.0752C30.0586 8.04604 30.8456 8.83301 31.8164 8.83301Z" fill="#316FF6"/>
<path d="M7.03125 18.501C6.06041 18.501 5.27344 19.2879 5.27344 20.2588V24.8291C5.27344 25.7999 6.06041 26.5869 7.03125 26.5869C8.00209 26.5869 8.78906 25.7999 8.78906 24.8291V20.2588C8.78906 19.2879 8.00209 18.501 7.03125 18.501Z" fill="#316FF6"/>
<path d="M13.1836 36.167H12.3047C10.3662 36.167 8.78906 34.5899 8.78906 32.6514V31.8604C8.78906 30.8895 8.00209 30.1025 7.03125 30.1025C6.06041 30.1025 5.27344 30.8895 5.27344 31.8604V32.6514C5.27344 36.5284 8.42766 39.6826 12.3047 39.6826H13.1836C14.1544 39.6826 14.9414 38.8956 14.9414 37.9248C14.9414 36.954 14.1544 36.167 13.1836 36.167Z" fill="#316FF6"/>
<path d="M43.2422 36.167H39.7266V31.8604C39.7266 30.8895 38.9396 30.1025 37.9688 30.1025C36.9979 30.1025 36.2109 30.8895 36.2109 31.8604V36.167H31.8164C30.8456 36.167 30.0586 36.954 30.0586 37.9248C30.0586 38.8956 30.8456 39.6826 31.8164 39.6826H36.2109V43.1982C36.2109 44.1691 36.9979 44.9561 37.9688 44.9561C38.9396 44.9561 39.7266 44.1691 39.7266 43.1982V39.6826H43.2422C44.213 39.6826 45 38.8956 45 37.9248C45 36.954 44.213 36.167 43.2422 36.167Z" fill="#316FF6"/>
<path d="M24.7852 5.31738H20.2148C19.244 5.31738 18.457 6.10436 18.457 7.0752C18.457 8.04604 19.244 8.83301 20.2148 8.83301H24.7852C25.756 8.83301 26.543 8.04604 26.543 7.0752C26.543 6.10436 25.756 5.31738 24.7852 5.31738Z" fill="#316FF6"/>
<path d="M24.7852 36.167H20.2148C19.244 36.167 18.457 36.954 18.457 37.9248C18.457 38.8956 19.244 39.6826 20.2148 39.6826H24.7852C25.756 39.6826 26.543 38.8956 26.543 37.9248C26.543 36.954 25.756 36.167 24.7852 36.167Z" fill="#316FF6"/>
</g>
<defs>
<clipPath id="clip0_41_124">
<rect width="45" height="45" fill="white"/>
</clipPath>
</defs>
</svg>
