<svg width="58" height="58" viewBox="0 0 58 58" fill="none" xmlns="http://www.w3.org/2000/svg">
<g filter="url(#filter0_d_3037_2531)">
<rect x="5" y="5" width="48" height="48" rx="7" fill="white"/>
</g>
<path d="M28.5684 35.3359H36.7715V40.1211H28.5684V35.3359Z" fill="#3E5959"/>
<path d="M32.6699 35.3359H36.7715V40.1211H32.6699V35.3359Z" fill="#293939"/>
<path d="M22.2793 41.8301H12.0254C11.459 41.8301 11 41.3711 11 40.8047V18.2461C11 17.6797 11.459 17.2207 12.0254 17.2207H22.2793C22.8457 17.2207 23.3047 17.6797 23.3047 18.2461V40.8047C23.3047 41.3711 22.8457 41.8301 22.2793 41.8301Z" fill="#3E5959"/>
<path d="M23.3047 18.2461V40.8047C23.3047 41.3708 22.8454 41.8301 22.2793 41.8301H17.1523V17.2207H22.2793C22.8454 17.2207 23.3047 17.68 23.3047 18.2461Z" fill="#293939"/>
<path d="M11 22.3477H23.3047V26.4492H11V22.3477Z" fill="#547983"/>
<path d="M17.1523 22.3477H23.3047V26.4492H17.1523V22.3477Z" fill="#3E5959"/>
<path d="M18.1777 38.959C18.1777 39.5254 17.7187 39.9844 17.1523 39.9844C16.586 39.9844 16.127 39.5254 16.127 38.959C16.127 38.3926 16.586 37.9336 17.1523 37.9336C17.7187 37.9336 18.1777 38.3926 18.1777 38.959Z" fill="#81E885"/>
<path d="M18.1777 38.959C18.1777 39.5251 17.7184 39.9844 17.1523 39.9844V37.9336C17.7184 37.9336 18.1777 38.3929 18.1777 38.959Z" fill="#5DC983"/>
<path d="M43.9492 35.6777H21.3906C20.2598 35.6777 19.3398 34.7578 19.3398 33.627V17.2207C19.3398 16.0898 20.2598 15.1699 21.3906 15.1699H43.9492C45.0801 15.1699 46 16.0898 46 17.2207V33.627C46 34.7578 45.0801 35.6777 43.9492 35.6777Z" fill="#547983"/>
<path d="M46 17.2207V33.627C46 34.7576 45.0798 35.6777 43.9492 35.6777H32.6699V15.1699H43.9492C45.0798 15.1699 46 16.0901 46 17.2207Z" fill="#3E5959"/>
<path d="M21.3906 17.2207H43.9492V33.627H21.3906V17.2207Z" fill="#19C0EF"/>
<path d="M32.6699 17.2207H43.9492V33.627H32.6699V17.2207Z" fill="#159BE1"/>
<path d="M38.8223 41.8301H26.5176C25.9512 41.8301 25.4922 41.3711 25.4922 40.8047C25.4922 40.2383 25.9512 39.7793 26.5176 39.7793H38.8223C39.3886 39.7793 39.8477 40.2383 39.8477 40.8047C39.8477 41.3711 39.3886 41.8301 38.8223 41.8301Z" fill="#547983"/>
<path d="M39.8477 40.8047C39.8477 41.3708 39.3884 41.8301 38.8223 41.8301H32.6699V39.7793H38.8223C39.3884 39.7793 39.8477 40.2386 39.8477 40.8047Z" fill="#3E5959"/>
<path d="M23.9977 24.3233L23.4112 25.9733H23L23.7687 24.0281H24.0316L23.9977 24.3233ZM24.488 25.9733L23.8987 24.3233L23.8634 24.0281H24.1277L24.9007 25.9733H24.488ZM24.4612 25.2505V25.5404H23.3575V25.2505H24.4612Z" fill="white"/>
<path d="M25.904 25.2639H25.3741V24.9753H25.904C25.9906 24.9753 26.0608 24.9619 26.1145 24.9352C26.1692 24.9076 26.2092 24.8702 26.2346 24.823C26.2601 24.7749 26.2728 24.7201 26.2728 24.6587C26.2728 24.599 26.2601 24.5433 26.2346 24.4916C26.2092 24.44 26.1692 24.3981 26.1145 24.3661C26.0608 24.334 25.9906 24.318 25.904 24.318H25.5012V25.9733H25.1126V24.0281H25.904C26.0641 24.0281 26.2007 24.0552 26.3138 24.1096C26.4278 24.163 26.5144 24.2374 26.5738 24.3327C26.6341 24.4271 26.6642 24.5348 26.6642 24.656C26.6642 24.7816 26.6341 24.8898 26.5738 24.9806C26.5144 25.0715 26.4278 25.1414 26.3138 25.1904C26.2007 25.2394 26.0641 25.2639 25.904 25.2639Z" fill="white"/>
<path d="M27.7608 25.2639H27.2309V24.9753H27.7608C27.8475 24.9753 27.9177 24.9619 27.9714 24.9352C28.026 24.9076 28.0661 24.8702 28.0915 24.823C28.1169 24.7749 28.1297 24.7201 28.1297 24.6587C28.1297 24.599 28.1169 24.5433 28.0915 24.4916C28.0661 24.44 28.026 24.3981 27.9714 24.3661C27.9177 24.334 27.8475 24.318 27.7608 24.318H27.3581V25.9733H26.9695V24.0281H27.7608C27.921 24.0281 28.0576 24.0552 28.1706 24.1096C28.2846 24.163 28.3713 24.2374 28.4307 24.3327C28.4909 24.4271 28.5211 24.5348 28.5211 24.656C28.5211 24.7816 28.4909 24.8898 28.4307 24.9806C28.3713 25.0715 28.2846 25.1414 28.1706 25.1904C28.0576 25.2394 27.921 25.2639 27.7608 25.2639Z" fill="white"/>
<path d="M30.1321 25.6847V25.9733H29.0976V25.6847H30.1321ZM29.2149 24.0281V25.9733H28.8263V24.0281H29.2149Z" fill="white"/>
<path d="M30.8061 24.0281V25.9733H30.4175V24.0281H30.8061Z" fill="white"/>
<path d="M32.4298 25.3333H32.8184C32.808 25.4634 32.7699 25.5787 32.7039 25.6794C32.638 25.7791 32.5462 25.8575 32.4284 25.9145C32.3106 25.9715 32.1679 26 32.0002 26C31.8711 26 31.7548 25.9786 31.6512 25.9359C31.5485 25.8922 31.4604 25.8303 31.3869 25.7502C31.3144 25.6691 31.2588 25.572 31.2202 25.4589C31.1815 25.3449 31.1622 25.2171 31.1622 25.0755V24.9272C31.1622 24.7856 31.182 24.6578 31.2216 24.5438C31.2611 24.4297 31.3177 24.3327 31.3912 24.2525C31.4656 24.1715 31.5546 24.1091 31.6582 24.0655C31.7628 24.0218 31.8796 24 32.0087 24C32.1764 24 32.3182 24.0294 32.434 24.0882C32.5499 24.1461 32.6399 24.2258 32.7039 24.3273C32.768 24.4289 32.8066 24.5455 32.8198 24.6774H32.4312C32.4237 24.5954 32.4048 24.5259 32.3747 24.4689C32.3455 24.4119 32.3012 24.3687 32.2419 24.3393C32.1834 24.3091 32.1057 24.2939 32.0087 24.2939C31.9333 24.2939 31.8669 24.3073 31.8094 24.334C31.7529 24.3607 31.7058 24.4008 31.6681 24.4542C31.6304 24.5068 31.6022 24.5727 31.5833 24.652C31.5645 24.7303 31.5551 24.8212 31.5551 24.9245V25.0755C31.5551 25.1743 31.5636 25.263 31.5805 25.3413C31.5975 25.4197 31.6238 25.4861 31.6596 25.5404C31.6954 25.5947 31.7416 25.6362 31.7981 25.6647C31.8547 25.6932 31.922 25.7074 32.0002 25.7074C32.0954 25.7074 32.1726 25.6932 32.232 25.6647C32.2923 25.6362 32.3379 25.5943 32.369 25.5391C32.4011 25.4839 32.4213 25.4153 32.4298 25.3333Z" fill="white"/>
<path d="M33.9376 24.3233L33.3512 25.9733H32.9399L33.7087 24.0281H33.9715L33.9376 24.3233ZM34.428 25.9733L33.8387 24.3233L33.8034 24.0281H34.0676L34.8406 25.9733H34.428ZM34.4011 25.2505V25.5404H33.2975V25.2505H34.4011Z" fill="white"/>
<path d="M35.7577 24.0281V25.9733H35.3705V24.0281H35.7577ZM36.3965 24.0281V24.318H34.7389V24.0281H36.3965Z" fill="white"/>
<path d="M37.0691 24.0281V25.9733H36.6805V24.0281H37.0691Z" fill="white"/>
<path d="M39.1549 24.9512V25.0514C39.1549 25.1984 39.1342 25.3307 39.0927 25.4482C39.0512 25.5649 38.9924 25.6642 38.9161 25.7462C38.8398 25.8281 38.7488 25.8909 38.6433 25.9345C38.5378 25.9782 38.4205 26 38.2915 26C38.1643 26 38.0475 25.9782 37.941 25.9345C37.8355 25.8909 37.7441 25.8281 37.6669 25.7462C37.5896 25.6642 37.5298 25.5649 37.4874 25.4482C37.445 25.3307 37.4238 25.1984 37.4238 25.0514V24.9512C37.4238 24.8034 37.445 24.6711 37.4874 24.5544C37.5298 24.4378 37.5891 24.3385 37.6654 24.2565C37.7418 24.1737 37.8327 24.1104 37.9382 24.0668C38.0446 24.0232 38.1614 24.0013 38.2886 24.0013C38.4177 24.0013 38.535 24.0232 38.6405 24.0668C38.746 24.1104 38.8369 24.1737 38.9132 24.2565C38.9905 24.3385 39.0498 24.4378 39.0913 24.5544C39.1337 24.6711 39.1549 24.8034 39.1549 24.9512ZM38.762 25.0514V24.9486C38.762 24.8426 38.7517 24.7495 38.7309 24.6693C38.7102 24.5883 38.6796 24.5202 38.6391 24.4649C38.5986 24.4097 38.5486 24.3683 38.4893 24.3407C38.4299 24.3122 38.3631 24.2979 38.2886 24.2979C38.2133 24.2979 38.1464 24.3122 38.088 24.3407C38.0305 24.3683 37.9815 24.4097 37.941 24.4649C37.9005 24.5202 37.8694 24.5883 37.8477 24.6693C37.827 24.7495 37.8166 24.8426 37.8166 24.9486V25.0514C37.8166 25.1565 37.827 25.2496 37.8477 25.3307C37.8694 25.4117 37.9005 25.4803 37.941 25.5364C37.9825 25.5916 38.0324 25.6335 38.0908 25.662C38.1492 25.6905 38.2161 25.7047 38.2915 25.7047C38.3668 25.7047 38.4337 25.6905 38.4921 25.662C38.5505 25.6335 38.5995 25.5916 38.6391 25.5364C38.6796 25.4803 38.7102 25.4117 38.7309 25.3307C38.7517 25.2496 38.762 25.1565 38.762 25.0514Z" fill="white"/>
<path d="M41.1375 24.0281V25.9733H40.7475L39.8727 24.6239V25.9733H39.4841V24.0281H39.8727L40.7503 25.3788V24.0281H41.1375Z" fill="white"/>
<path d="M42.61 25.4683C42.61 25.4309 42.6039 25.3975 42.5916 25.3681C42.5803 25.3378 42.5591 25.3106 42.528 25.2866C42.4979 25.2616 42.455 25.2376 42.3994 25.2144C42.3448 25.1904 42.2741 25.1654 42.1875 25.1396C42.0914 25.1111 42.0019 25.079 41.919 25.0434C41.8361 25.0078 41.763 24.9664 41.6999 24.9192C41.6377 24.872 41.5892 24.8176 41.5544 24.7562C41.5195 24.6938 41.5021 24.6217 41.5021 24.5397C41.5021 24.4596 41.52 24.3866 41.5558 24.3206C41.5925 24.2547 41.6443 24.1982 41.7112 24.151C41.7781 24.1029 41.8568 24.0659 41.9472 24.0401C42.0386 24.0143 42.1394 24.0013 42.2496 24.0013C42.4022 24.0013 42.5341 24.0276 42.6453 24.0802C42.7574 24.1327 42.8441 24.204 42.9053 24.2939C42.9666 24.3839 42.9972 24.485 42.9972 24.5972H42.61C42.61 24.5366 42.5963 24.4832 42.569 24.4369C42.5426 24.3906 42.5021 24.354 42.4475 24.3273C42.3938 24.3006 42.3259 24.2872 42.244 24.2872C42.1648 24.2872 42.0989 24.2984 42.0461 24.3206C41.9943 24.3429 41.9552 24.3732 41.9288 24.4115C41.9034 24.4498 41.8907 24.4925 41.8907 24.5397C41.8907 24.5754 41.8996 24.6074 41.9175 24.6359C41.9354 24.6635 41.9623 24.6898 41.9981 24.7148C42.0339 24.7388 42.0782 24.7615 42.1309 24.7829C42.1846 24.8034 42.2468 24.8239 42.3175 24.8444C42.4305 24.8764 42.5294 24.912 42.6142 24.9512C42.6999 24.9904 42.7711 25.035 42.8276 25.0848C42.8851 25.1347 42.9279 25.1908 42.9562 25.2532C42.9854 25.3155 43 25.3863 43 25.4656C43 25.5493 42.9826 25.6241 42.9477 25.69C42.9129 25.756 42.8629 25.8121 42.7979 25.8584C42.7329 25.9047 42.6547 25.9399 42.5633 25.9639C42.4729 25.988 42.3716 26 42.2595 26C42.1597 26 42.0607 25.9875 41.9628 25.9626C41.8657 25.9368 41.7776 25.8985 41.6985 25.8477C41.6194 25.796 41.5563 25.731 41.5091 25.6526C41.462 25.5734 41.4385 25.4807 41.4385 25.3747H41.8285C41.8285 25.4362 41.8389 25.4888 41.8596 25.5324C41.8813 25.5752 41.9114 25.6103 41.95 25.6379C41.9896 25.6647 42.0358 25.6843 42.0885 25.6967C42.1413 25.7092 42.1983 25.7154 42.2595 25.7154C42.3387 25.7154 42.4037 25.7052 42.4545 25.6847C42.5063 25.6633 42.545 25.6339 42.5704 25.5965C42.5968 25.5591 42.61 25.5164 42.61 25.4683Z" fill="white"/>
<defs>
<filter id="filter0_d_3037_2531" x="0" y="0" width="58" height="58" filterUnits="userSpaceOnUse" color-interpolation-filters="sRGB">
<feFlood flood-opacity="0" result="BackgroundImageFix"/>
<feColorMatrix in="SourceAlpha" type="matrix" values="0 0 0 0 0 0 0 0 0 0 0 0 0 0 0 0 0 0 127 0" result="hardAlpha"/>
<feOffset/>
<feGaussianBlur stdDeviation="2.5"/>
<feComposite in2="hardAlpha" operator="out"/>
<feColorMatrix type="matrix" values="0 0 0 0 0 0 0 0 0 0 0 0 0 0 0 0 0 0 0.08 0"/>
<feBlend mode="normal" in2="BackgroundImageFix" result="effect1_dropShadow_3037_2531"/>
<feBlend mode="normal" in="SourceGraphic" in2="effect1_dropShadow_3037_2531" result="shape"/>
</filter>
</defs>
</svg>
