<svg width="22" height="19" viewBox="0 0 22 19" fill="none" xmlns="http://www.w3.org/2000/svg">
<path d="M3.87507 0.161208C3.67617 0.161228 3.48541 0.240252 3.34477 0.3809C3.20412 0.521548 3.12509 0.712301 3.12507 0.911208V4.66121C3.12367 4.76059 3.14203 4.85926 3.17909 4.95149C3.21615 5.04371 3.27117 5.12765 3.34096 5.19843C3.41074 5.26921 3.49389 5.32541 3.58559 5.36377C3.67728 5.40213 3.77568 5.42188 3.87507 5.42188C3.97447 5.42188 4.07287 5.40213 4.16456 5.36377C4.25626 5.32541 4.33941 5.26921 4.40919 5.19843C4.47898 5.12765 4.534 5.04371 4.57106 4.95149C4.60812 4.85926 4.62648 4.76059 4.62507 4.66121V1.66121H7.62508C7.72446 1.66261 7.82313 1.64425 7.91536 1.60719C8.00758 1.57013 8.09152 1.51511 8.1623 1.44533C8.23307 1.37554 8.28928 1.29239 8.32764 1.2007C8.366 1.109 8.38575 1.0106 8.38575 0.911208C8.38575 0.811814 8.366 0.713412 8.32764 0.621719C8.28928 0.530027 8.23307 0.446873 8.1623 0.377089C8.09152 0.307306 8.00758 0.252286 7.91536 0.215225C7.82313 0.178164 7.72446 0.159803 7.62508 0.161208H3.87507Z" fill="#316FF6"/>
<path d="M20.3632 12.901C20.1646 12.9041 19.9753 12.9859 19.8368 13.1284C19.6984 13.2709 19.6222 13.4626 19.6249 13.6612V16.6612H16.6249C16.5256 16.6598 16.4269 16.6782 16.3347 16.7152C16.2424 16.7523 16.1585 16.8073 16.0877 16.8771C16.0169 16.9469 15.9607 17.03 15.9224 17.1217C15.884 17.2134 15.8643 17.3118 15.8643 17.4112C15.8643 17.5106 15.884 17.609 15.9224 17.7007C15.9607 17.7924 16.0169 17.8756 16.0877 17.9453C16.1585 18.0151 16.2424 18.0701 16.3347 18.1072C16.4269 18.1443 16.5256 18.1626 16.6249 18.1612H20.3749C20.5738 18.1612 20.7646 18.0822 20.9052 17.9415C21.0459 17.8009 21.1249 17.6101 21.1249 17.4112V13.6612C21.1263 13.5609 21.1075 13.4613 21.0697 13.3683C21.0319 13.2754 20.9758 13.191 20.9048 13.1201C20.8338 13.0492 20.7493 12.9933 20.6562 12.9556C20.5632 12.918 20.4636 12.8994 20.3632 12.901Z" fill="#316FF6"/>
<path d="M20.3634 6.90097C20.1647 6.90407 19.9754 6.98586 19.837 7.1284C19.6986 7.27093 19.6224 7.46256 19.6251 7.66122V10.6612C19.6237 10.7606 19.642 10.8593 19.6791 10.9515C19.7162 11.0437 19.7712 11.1277 19.841 11.1984C19.9107 11.2692 19.9939 11.3254 20.0856 11.3638C20.1773 11.4021 20.2757 11.4219 20.3751 11.4219C20.4745 11.4219 20.5729 11.4021 20.6646 11.3638C20.7563 11.3254 20.8394 11.2692 20.9092 11.1984C20.979 11.1277 21.034 11.0437 21.0711 10.9515C21.1081 10.8593 21.1265 10.7606 21.1251 10.6612V7.66122C21.1264 7.56088 21.1077 7.46129 21.0699 7.36833C21.0321 7.27538 20.976 7.19096 20.9049 7.12007C20.8339 7.04918 20.7494 6.99326 20.6564 6.95562C20.5633 6.91799 20.4637 6.89941 20.3634 6.90097Z" fill="#316FF6"/>
<path d="M16.6249 0.161208C16.5256 0.159803 16.4269 0.178164 16.3347 0.215225C16.2424 0.252286 16.1585 0.307306 16.0877 0.377089C16.0169 0.446873 15.9607 0.530027 15.9224 0.621719C15.884 0.713412 15.8643 0.811814 15.8643 0.911208C15.8643 1.0106 15.884 1.109 15.9224 1.2007C15.9607 1.29239 16.0169 1.37554 16.0877 1.44533C16.1585 1.51511 16.2424 1.57013 16.3347 1.60719C16.4269 1.64425 16.5256 1.66261 16.6249 1.66121H19.6249V4.66121C19.6235 4.76059 19.6419 4.85926 19.679 4.95149C19.716 5.04371 19.771 5.12765 19.8408 5.19843C19.9106 5.26921 19.9938 5.32541 20.0854 5.36377C20.1771 5.40213 20.2755 5.42188 20.3749 5.42188C20.4743 5.42188 20.5727 5.40213 20.6644 5.36377C20.7561 5.32541 20.8393 5.26921 20.9091 5.19843C20.9788 5.12765 21.0339 5.04371 21.0709 4.95149C21.108 4.85926 21.1263 4.76059 21.1249 4.66121V0.911208C21.1249 0.712301 21.0459 0.521548 20.9052 0.3809C20.7646 0.240252 20.5738 0.161228 20.3749 0.161208H16.6249Z" fill="#316FF6"/>
<path d="M10.6249 0.161208C10.5256 0.159803 10.4269 0.178164 10.3347 0.215225C10.2424 0.252286 10.1585 0.307306 10.0877 0.377089C10.0169 0.446873 9.96073 0.530027 9.92237 0.621719C9.88401 0.713412 9.86426 0.811814 9.86426 0.911208C9.86426 1.0106 9.88401 1.109 9.92237 1.2007C9.96073 1.29239 10.0169 1.37554 10.0877 1.44533C10.1585 1.51511 10.2424 1.57013 10.3347 1.60719C10.4269 1.64425 10.5256 1.66261 10.6249 1.66121H13.6249C13.7243 1.66261 13.823 1.64425 13.9152 1.60719C14.0074 1.57013 14.0914 1.51511 14.1622 1.44533C14.2329 1.37554 14.2891 1.29239 14.3275 1.2007C14.3659 1.109 14.3856 1.0106 14.3856 0.911208C14.3856 0.811814 14.3659 0.713412 14.3275 0.621719C14.2891 0.530027 14.2329 0.446873 14.1622 0.377089C14.0914 0.307306 14.0074 0.252286 13.9152 0.215225C13.823 0.178164 13.7243 0.159803 13.6249 0.161208H10.6249Z" fill="#316FF6"/>
<path d="M5.375 6.91125C4.14147 6.91125 3.125 7.92773 3.125 9.16125C1.89147 9.16125 0.875 10.1777 0.875 11.4113V15.9113C0.875 17.1448 1.89147 18.1613 3.125 18.1613H12.125C13.3585 18.1613 14.375 17.1448 14.375 15.9113V11.4113C14.375 10.1777 13.3585 9.16126 12.125 9.16125C12.125 7.92773 11.1085 6.91126 9.875 6.91125H5.375ZM7.625 10.6613C8.85875 10.6613 9.875 11.6775 9.875 12.9113C9.875 14.145 8.85875 15.1613 7.625 15.1613C6.39125 15.1613 5.375 14.145 5.375 12.9113C5.375 11.6775 6.39125 10.6613 7.625 10.6613Z" fill="#316FF6"/>
</svg>
