<svg width="58" height="58" viewBox="0 0 58 58" fill="none" xmlns="http://www.w3.org/2000/svg">
<g filter="url(#filter0_d_3037_2518)">
<rect x="5" y="5" width="48" height="48" rx="7" fill="white"/>
</g>
<g clip-path="url(#clip0_3037_2518)">
<path d="M37.2198 34.4213C37.4959 32.4597 37.633 30.481 37.63 28.5C37.633 26.519 37.4959 24.5403 37.2198 22.5787H44.9752C46.3458 26.4073 46.3458 30.5927 44.9752 34.4213H37.2198ZM28.5006 46C26.7916 46 25.0471 44.2459 23.7093 41.1882C23.0982 39.7916 22.6005 38.1995 22.2279 36.4714H34.7732C34.4007 38.1988 33.903 39.7909 33.2919 41.1882C31.9541 44.2459 30.2096 46 28.5006 46ZM21.8533 34.4213C21.2773 30.4948 21.2773 26.5052 21.8533 22.5787H35.1479C35.4392 24.539 35.5836 26.5182 35.5799 28.5C35.5836 30.4818 35.4392 32.461 35.1479 34.4213H21.8533ZM12.026 34.4213C10.6554 30.5927 10.6554 26.4073 12.026 22.5787H19.7814C19.2336 26.5072 19.2336 30.4928 19.7814 34.4213H12.026ZM28.5006 11C30.2096 11 31.9541 12.7534 33.2919 15.8118C33.903 17.2084 34.4007 18.8005 34.7732 20.5286H22.2279C22.6005 18.8012 23.0982 17.2091 23.7093 15.8118C25.0471 12.7534 26.7916 11 28.5006 11ZM44.0865 20.5279H36.8664C36.4563 18.4977 35.8861 16.6239 35.1711 14.9908C34.5921 13.666 33.9358 12.5442 33.2174 11.6405C35.547 12.2857 37.7167 13.4092 39.5881 14.9393C41.4595 16.4695 42.9915 18.3728 44.0865 20.5279ZM23.7838 11.6398C23.0674 12.5442 22.4118 13.6653 21.8321 14.9895C21.1171 16.6239 20.5477 18.4977 20.1368 20.5266H12.9147C14.0099 18.3717 15.542 16.4686 17.4134 14.9386C19.2847 13.4086 21.4543 12.2851 23.7838 11.6398ZM12.9147 36.4721H20.1348C20.5449 38.5023 21.115 40.3761 21.8301 42.0092C22.4098 43.3333 23.0653 44.4544 23.7817 45.3588C21.4525 44.7135 19.2833 43.59 17.4123 42.0599C15.5413 40.5299 14.0095 38.6268 12.9147 36.4721ZM33.2174 45.3588C33.9338 44.4544 34.59 43.3333 35.169 42.0092C35.8841 40.3747 36.4535 38.501 36.8644 36.4721H44.0865C42.9915 38.6272 41.4595 40.5306 39.5881 42.0609C37.7168 43.5912 35.5471 44.7148 33.2174 45.3602V45.3588Z" fill="#316FF6"/>
</g>
<defs>
<filter id="filter0_d_3037_2518" x="0" y="0" width="58" height="58" filterUnits="userSpaceOnUse" color-interpolation-filters="sRGB">
<feFlood flood-opacity="0" result="BackgroundImageFix"/>
<feColorMatrix in="SourceAlpha" type="matrix" values="0 0 0 0 0 0 0 0 0 0 0 0 0 0 0 0 0 0 127 0" result="hardAlpha"/>
<feOffset/>
<feGaussianBlur stdDeviation="2.5"/>
<feComposite in2="hardAlpha" operator="out"/>
<feColorMatrix type="matrix" values="0 0 0 0 0 0 0 0 0 0 0 0 0 0 0 0 0 0 0.08 0"/>
<feBlend mode="normal" in2="BackgroundImageFix" result="effect1_dropShadow_3037_2518"/>
<feBlend mode="normal" in="SourceGraphic" in2="effect1_dropShadow_3037_2518" result="shape"/>
</filter>
<clipPath id="clip0_3037_2518">
<rect width="35" height="35" fill="white" transform="translate(11 11)"/>
</clipPath>
</defs>
</svg>
