<svg width="22" height="24" viewBox="0 0 22 24" fill="none" xmlns="http://www.w3.org/2000/svg">
<path fill-rule="evenodd" clip-rule="evenodd" d="M21.0315 14.2726C20.2781 13.8385 19.8101 13.0299 19.8101 12.1613C19.8101 11.2931 20.278 10.4845 21.0293 10.0508C21.8004 9.60753 22.1211 8.68643 21.7916 7.86087C21.3786 6.81804 20.8162 5.84403 20.1243 4.9655C19.5729 4.26603 18.6151 4.08284 17.844 4.529C17.0928 4.9655 16.1569 4.96681 15.4034 4.53228C14.6521 4.09775 14.1864 3.28779 14.1886 2.41765C14.1886 1.5275 13.5516 0.788746 12.6707 0.66134C11.5635 0.50098 10.4388 0.501871 9.32718 0.664621C8.44846 0.792918 7.81143 1.53125 7.81358 2.41962C7.81358 3.28868 7.34783 4.09817 6.59657 4.53228C5.84305 4.96634 4.90944 4.96545 4.15597 4.52942C3.38493 4.08326 2.42713 4.26734 1.87574 4.96681C1.53304 5.40265 1.21668 5.86859 0.937724 6.35253C0.658724 6.83562 0.41488 7.34196 0.208396 7.85665C-0.123339 8.68353 0.197427 9.60593 0.968474 10.0504C1.72199 10.484 2.1899 11.2931 2.1899 12.1612C2.1899 13.0294 1.72199 13.8378 0.970677 14.2721C0.19963 14.7154 -0.121089 15.6361 0.208396 16.4614C0.621411 17.5049 1.18377 18.4789 1.87574 19.357C2.42713 20.0564 3.38493 20.2396 4.15597 19.7935C4.90729 19.357 5.8431 19.3561 6.59657 19.7902C7.34783 20.2247 7.81358 21.0347 7.81358 21.9048C7.81138 22.7947 8.45061 23.5335 9.32933 23.6612C9.88072 23.7409 10.4343 23.7807 10.9879 23.7807C11.5503 23.7807 12.1126 23.7398 12.6728 23.6578C13.5515 23.5293 14.1885 22.7916 14.1885 21.9033C14.1863 21.0338 14.652 20.2242 15.4033 19.7902C16.1568 19.3561 17.0905 19.357 17.8439 19.793C18.615 20.2392 19.5728 20.0555 20.1242 19.3557C20.4669 18.9196 20.7832 18.4536 21.0622 17.9704C21.339 17.4873 21.5872 16.9809 21.7915 16.4658C22.1233 15.6389 21.8026 14.7163 21.0315 14.2726ZM13.9887 13.8873C13.5296 14.6856 12.7849 15.2569 11.893 15.4955C11.0033 15.7341 10.0719 15.6117 9.27444 15.1504C7.62688 14.1987 7.06011 12.0839 8.0113 10.4352C8.64838 9.32937 9.81266 8.71034 11.0055 8.71034C11.592 8.71034 12.183 8.85884 12.7256 9.1721C14.3731 10.1235 14.9399 12.239 13.9887 13.8873Z" fill="#316FF6"/>
</svg>
