<svg width="45" height="45" viewBox="0 0 45 45" fill="none" xmlns="http://www.w3.org/2000/svg">
<path fill-rule="evenodd" clip-rule="evenodd" d="M41.3092 26.4587C39.8964 25.6449 39.019 24.1287 39.019 22.5001C39.019 20.8722 39.8963 19.356 41.305 18.543C42.7508 17.7118 43.3522 15.9847 42.7343 14.4368C41.9599 12.4815 40.9055 10.6552 39.608 9.00797C38.5742 7.69647 36.7783 7.35299 35.3326 8.18954C33.924 9.00798 32.1692 9.01044 30.7565 8.19569C29.3478 7.38094 28.4746 5.86228 28.4787 4.23077C28.4787 2.56172 27.2842 1.17657 25.6326 0.937682C23.5566 0.637008 21.4477 0.638678 19.3635 0.943834C17.7159 1.18439 16.5215 2.56876 16.5255 4.23446C16.5255 5.86395 15.6522 7.38173 14.2436 8.19569C12.8308 9.00956 11.0802 9.00789 9.66748 8.19033C8.22177 7.35379 6.4259 7.69893 5.39204 9.01044C4.74947 9.82764 4.1563 10.7013 3.63326 11.6087C3.11014 12.5145 2.65293 13.4639 2.26577 14.4289C1.64377 15.9793 2.24521 17.7088 3.69092 18.5421C5.10376 19.3552 5.98109 20.8722 5.98109 22.5C5.98109 24.1278 5.10376 25.6436 3.69505 26.4579C2.24934 27.2891 1.64799 29.0153 2.26577 30.5628C3.04018 32.5193 4.0946 34.3457 5.39204 35.992C6.4259 37.3035 8.22177 37.647 9.66748 36.8104C11.0762 35.992 12.8308 35.9903 14.2436 36.8043C15.6522 37.619 16.5255 39.1377 16.5255 40.7692C16.5214 42.4378 17.7199 43.8229 19.3675 44.0624C20.4014 44.2119 21.4394 44.2864 22.4773 44.2864C23.5318 44.2864 24.5862 44.2098 25.6365 44.0561C27.2841 43.8151 28.4785 42.432 28.4785 40.7663C28.4744 39.136 29.3476 37.6181 30.7563 36.8043C32.1691 35.9904 33.9197 35.9921 35.3324 36.8096C36.7781 37.6462 38.574 37.3018 39.6079 35.9895C40.2504 35.1719 40.8436 34.2982 41.3666 33.3921C41.8856 32.4864 42.3511 31.5369 42.7341 30.5711C43.3563 29.0207 42.755 27.2907 41.3092 26.4587ZM28.1039 25.7363C27.243 27.2332 25.8467 28.3045 24.1744 28.7518C22.5063 29.1991 20.7598 28.9697 19.2646 28.1047C16.1754 26.3203 15.1127 22.355 16.8962 19.2638C18.0907 17.1902 20.2738 16.0296 22.5103 16.0296C23.6101 16.0296 24.7181 16.308 25.7355 16.8954C28.8247 18.6793 29.8873 22.6458 28.1039 25.7363Z" fill="#316FF6"/>
</svg>
