<svg width="24" height="24" viewBox="0 0 24 24" fill="none" xmlns="http://www.w3.org/2000/svg">
<path d="M4.5 21C4.49997 21.0985 4.51936 21.196 4.55704 21.287C4.59472 21.378 4.64996 21.4607 4.71961 21.5304C4.78926 21.6 4.87195 21.6553 4.96296 21.693C5.05396 21.7306 5.1515 21.75 5.25 21.75H18.75C18.8485 21.75 18.946 21.7306 19.037 21.693C19.128 21.6553 19.2107 21.6 19.2804 21.5304C19.35 21.4607 19.4053 21.378 19.443 21.287C19.4806 21.196 19.5 21.0985 19.5 21V18.75H4.5V21Z" fill="#316FF6"/>
<path d="M21.4552 6.15381C21.3434 6.06895 21.2102 6.01699 21.0705 6.00379C20.9308 5.99059 20.7902 6.01668 20.6645 6.0791L15.3937 8.71435L12.6965 1.97168C12.6408 1.83245 12.5447 1.71309 12.4206 1.62901C12.2964 1.54494 12.1499 1.5 12 1.5C11.85 1.5 11.7035 1.54494 11.5794 1.62901C11.4552 1.71309 11.3591 1.83245 11.3034 1.97168L8.6063 8.71435L3.33543 6.0791C3.20983 6.01628 3.06913 5.98999 2.92932 6.00322C2.78952 6.01644 2.65624 6.06865 2.54465 6.15391C2.43307 6.23916 2.34766 6.35403 2.29815 6.48544C2.24864 6.61685 2.23703 6.75953 2.26462 6.89721L4.33518 17.25H19.6648L21.7353 6.89721C21.7629 6.7595 21.7513 6.61679 21.7018 6.48536C21.6523 6.35392 21.5668 6.23904 21.4552 6.15381ZM12 14.25C11.5547 14.1949 11.1487 13.9681 10.8684 13.6177C10.5882 13.2674 10.4559 12.8214 10.5 12.375C10.4559 11.9285 10.5882 11.4826 10.8684 11.1322C11.1487 10.7819 11.5547 10.555 12 10.5C12.4452 10.555 12.8513 10.7819 13.1316 11.1322C13.4118 11.4826 13.544 11.9285 13.5 12.375C13.544 12.8215 13.4118 13.2674 13.1315 13.6177C12.8513 13.9681 12.4452 14.195 12 14.25Z" fill="#316FF6"/>
</svg>
