<svg width="24" height="24" viewBox="0 0 24 24" fill="none" xmlns="http://www.w3.org/2000/svg">
<path d="M13.6588 12.5294C13.4471 12.5294 13.3059 12.6706 13.3059 12.8824C13.3059 13.0941 13.4471 13.2353 13.6588 13.2353H16.0941C16.3059 13.2353 16.4471 13.0941 16.4471 12.8824C16.4471 12.6706 16.3059 12.5294 16.0941 12.5294H13.6588Z" fill="#6B6B6B"/>
<path d="M9.74117 9.45881C7.83529 9.56469 6.28235 11.1529 6.28235 13.0941V13.9412C6.28235 14.1529 6.42353 14.2941 6.63529 14.2941C6.84705 14.2941 6.98823 14.1529 6.98823 13.9412V13.0941C6.98823 11.5765 8.18823 10.2706 9.70588 10.1647L11.7882 12.247V13.9059C11.7882 14.1176 11.9294 14.2588 12.1412 14.2588C12.3529 14.2588 12.4941 14.1176 12.4941 13.9059V12.247L14.5765 10.1647C16.0941 10.2706 17.2941 11.5765 17.2941 13.0941V13.9412C17.2941 14.1529 17.4353 14.2941 17.6471 14.2941C17.8588 14.2941 18 14.1529 18 13.9412V13.0941C18 11.1529 16.4471 9.56469 14.5412 9.45881C14.0471 9.17645 13.7294 8.82351 13.5176 8.39998C14.3647 7.90587 14.8941 6.98822 14.8941 5.9294V5.47057C15.4235 4.55293 15.6353 3.77645 15.7765 3.14116C16.1294 1.44704 13.5529 -0.211781 12.4235 1.55293C11.3294 1.34116 10.3059 1.48234 9.5647 1.97645C9.10588 2.25881 8.82353 2.64704 8.71764 3.07057C8.47058 4.34116 8.92941 5.18822 9.10588 5.50587V5.96469C9.10588 7.05881 9.74117 8.01175 10.6588 8.50587C10.4823 8.8941 10.1647 9.21175 9.74117 9.45881ZM9.49411 4.65881C9.38823 4.34116 9.31764 3.84704 9.42353 3.24704C9.52941 2.68234 10.6941 1.90587 12.5294 2.3294C12.7059 2.36469 12.8823 2.2941 12.9529 2.11763C12.9529 2.11763 12.9882 2.01175 13.0588 1.90587C13.7294 0.917631 15.2823 2.11763 15.0706 2.99998C14.9647 3.4941 14.8235 4.05881 14.5059 4.7294L14.0823 4.0941C13.9412 3.91763 13.7294 3.81175 13.5176 3.81175H10.3765C10.1294 3.81175 9.88235 3.95293 9.77647 4.16469L9.49411 4.65881ZM9.84705 5.96469V5.47057L10.3765 4.48234H13.4823L14.1882 5.50587V5.96469C14.1882 7.16469 13.2 8.15293 12.0353 8.15293C10.8706 8.15293 9.84705 7.19998 9.84705 5.96469ZM11.3647 8.75293C11.8941 8.8941 12.3882 8.85881 12.8823 8.71763C13.0941 9.17646 13.4118 9.5294 13.8706 9.88234L12.1412 11.6117L10.3765 9.88234C10.8353 9.56469 11.1529 9.17645 11.3647 8.75293Z" fill="#6B6B6B"/>
<path d="M22.7647 15.6353C22.5529 15.2471 22.1647 15.0353 21.7765 14.9294C21.3882 14.8588 21 14.9294 20.6823 15.1412C20.4 15.2824 19.7647 15.953 18.3529 16.5882C18.1765 16.6588 18.1059 16.8706 18.1765 17.0471C18.247 17.1882 18.3529 17.2588 18.4941 17.2588C18.8118 17.2588 20.4706 16.2353 21.0706 15.7059C21.2118 15.6 21.4235 15.5647 21.6 15.6C21.6706 15.6353 21.6 15.6 22.0588 15.8471C22.2353 16.0235 22.2353 16.2353 22.1294 16.4471C22.0941 16.5177 20.647 17.8941 20.6118 17.9294C18.9176 19.5882 17.0118 21.4941 15.6706 21.7412C12.8471 22.1647 13.3412 22.2 10.6941 21.1765C8.89411 20.4706 6.81176 20.2941 5.08234 21.2471C4.90587 21.353 4.83528 21.5647 4.94117 21.7412C5.04705 21.9177 5.25881 21.9882 5.43528 21.8824C6.91764 21.0706 8.78823 21.2471 10.3412 21.8118C12.247 22.6588 12.847 23.0824 15.8823 22.4471C17.3294 22.1294 18.9882 20.5059 21.1059 18.4588C22.2706 17.2941 22.3765 17.2235 22.5529 17.0824C22.9412 16.7294 23.047 16.0941 22.7647 15.6353Z" fill="#6B6B6B"/>
<path d="M1.44706 21.2118C1.23529 21.2118 1.09412 21.3529 1.09412 21.5647V22.8353C1.09412 23.0471 1.23529 23.1882 1.44706 23.1882H3.95294C4.1647 23.1882 4.30588 23.0471 4.30588 22.8353C4.30588 22.3412 4.30588 24.6 4.30588 18.1059C4.34118 18.1059 4.37647 18.0706 4.41176 18.0706C6.10588 16.9059 5.54117 16.1294 7.30588 15.8471C9.98823 15.3882 11.6824 17.0471 15.2471 17.8941C16.2 18.1059 16.7294 18.1412 16.9412 18.1765C17.5765 18.3176 17.7882 19.0588 17.4353 19.3059C16.7647 19.5176 15.1765 18.9529 15.2118 18.9529C13.7294 18.5647 11.8588 18.4941 10.4471 19.2C10.2706 19.2706 10.2 19.4824 10.3059 19.6588C10.3765 19.8353 10.5882 19.9059 10.7647 19.8C12.2118 19.0941 14.0824 19.3765 15.1059 19.6235C15.7412 19.7647 17.4353 20.5412 18.0706 19.6588C18.6353 18.8471 18.1059 17.7176 17.1176 17.5059C17.1176 17.5059 16.0941 17.4 15.4235 17.2235C11.6824 16.3059 10.1294 14.6471 7.09412 15.1412C5.29412 15.4588 5.32941 16.4824 4.30588 17.2588V16.5882C4.30588 16.3765 4.1647 16.2353 3.95294 16.2353H1.44706C1.23529 16.2353 1.09412 16.3765 1.09412 16.5882V19.8706C1.09412 20.0824 1.23529 20.2235 1.44706 20.2235C1.65882 20.2235 1.8 20.0824 1.8 19.8706V16.9412H3.6C3.6 17.0824 3.6 22.7294 3.6 22.4824H1.8V21.5647C1.8 21.3529 1.62353 21.2118 1.44706 21.2118Z" fill="#6B6B6B"/>
</svg>
