<svg width="29" height="29" viewBox="0 0 29 29" fill="none" xmlns="http://www.w3.org/2000/svg">
<g clip-path="url(#clip0_1219_503)">
<path d="M27.1078 18.397V16.6298H18.961C18.961 18.9165 17.1073 20.7703 14.8205 20.7703C12.5337 20.7703 10.68 18.9165 10.68 16.6298H2.5332V18.397L6.07083 18.7716C6.29149 19.6761 6.64877 20.5272 7.11957 21.3015L4.88241 24.0686L7.38169 26.5678L10.1487 24.3307C10.9231 24.8015 11.7741 25.1588 12.6787 25.3794L13.0533 28.9171H16.5877L16.9623 25.3794C17.8669 25.1588 18.7179 24.8015 19.4923 24.3307L22.2593 26.5678L24.7586 24.0686L22.5214 21.3015C22.9922 20.5272 23.3495 19.6761 23.5702 18.7716L27.1078 18.397Z" fill="#316FF6"/>
<path d="M14.8202 0.917114C13.0702 0.917114 11.6465 2.34085 11.6465 4.09079C11.6465 5.84074 13.0702 7.26442 14.8202 7.26442C16.5701 7.26442 17.9938 5.84074 17.9938 4.09079C17.9938 2.34085 16.5701 0.917114 14.8202 0.917114Z" fill="#316FF6"/>
<path d="M18.1986 8.14185H11.4407C9.88488 8.1419 8.61914 9.40759 8.61914 10.9634V14.9892H21.0202V10.9634C21.0202 9.40759 19.7544 8.14185 18.1986 8.14185Z" fill="#316FF6"/>
<path d="M8.08718 2.38318C6.51951 2.38318 5.24414 3.6586 5.24414 5.22622C5.24414 6.78126 6.49927 8.04798 8.04961 8.06827C8.69164 7.3173 9.57752 6.78131 10.584 6.58471C10.8046 6.18084 10.9302 5.71797 10.9302 5.22622C10.9302 3.65855 9.65485 2.38318 8.08718 2.38318Z" fill="#316FF6"/>
<path d="M5.0608 8.85522C3.66709 8.85522 2.5332 9.98906 2.5332 11.3828V14.9892H6.97935V10.9634C6.97935 10.2013 7.17174 9.48342 7.50998 8.85522H5.0608Z" fill="#316FF6"/>
<path d="M21.554 2.38318C19.9863 2.38318 18.7109 3.6586 18.7109 5.22622C18.7109 5.71791 18.8365 6.18084 19.0571 6.58471C20.0636 6.78131 20.9495 7.3173 21.5915 8.06827C23.1419 8.04804 24.397 6.78126 24.397 5.22622C24.397 3.65855 23.1216 2.38318 21.554 2.38318Z" fill="#316FF6"/>
<path d="M24.58 8.85522H22.1309C22.4691 9.48342 22.6615 10.2013 22.6615 10.9634V14.9891H27.1076V11.3828C27.1076 9.98906 25.9737 8.85522 24.58 8.85522Z" fill="#316FF6"/>
</g>
<defs>
<clipPath id="clip0_1219_503">
<rect width="28" height="28" fill="white" transform="translate(0.820312 0.917114)"/>
</clipPath>
</defs>
</svg>
