<svg width="45" height="45" viewBox="0 0 45 45" fill="none" xmlns="http://www.w3.org/2000/svg">
<g clip-path="url(#clip0_1243_513)">
<path d="M42.2468 28.0927V25.2526H29.1538C29.1538 28.9276 26.1745 31.9069 22.4994 31.9069C18.8242 31.9069 15.845 28.9277 15.845 25.2526H2.75195V28.0927L8.43742 28.6948C8.79206 30.1485 9.36625 31.5163 10.1229 32.7608L6.52747 37.2078L10.5442 41.2245L14.9912 37.6291C16.2357 38.3857 17.6034 38.9599 19.0572 39.3145L19.6592 45H25.3396L25.9416 39.3145C27.3953 38.9599 28.7631 38.3857 30.0076 37.6291L34.4546 41.2245L38.4713 37.2078L34.8759 32.7608C35.6325 31.5163 36.2067 30.1485 36.5614 28.6948L42.2468 28.0927Z" fill="#316FF6"/>
<path d="M22.5009 0C19.6885 0 17.4004 2.28814 17.4004 5.10056C17.4004 7.91297 19.6885 10.201 22.5009 10.201C25.3134 10.201 27.6015 7.91297 27.6015 5.10056C27.6015 2.28814 25.3134 0 22.5009 0Z" fill="#316FF6"/>
<path d="M27.9308 11.6111H17.0698C14.5694 11.6112 12.5352 13.6453 12.5352 16.1457V22.6157H32.4654V16.1457C32.4654 13.6453 30.4312 11.6111 27.9308 11.6111Z" fill="#316FF6"/>
<path d="M11.6805 2.3562C9.16102 2.3562 7.11133 4.40599 7.11133 6.92537C7.11133 9.42454 9.12851 11.4604 11.6201 11.493C12.652 10.286 14.0757 9.42463 15.6932 9.10866C16.0478 8.45959 16.2497 7.71568 16.2497 6.92537C16.2497 4.4059 14.2 2.3562 11.6805 2.3562Z" fill="#316FF6"/>
<path d="M6.81417 12.7577C4.57428 12.7577 2.75195 14.5799 2.75195 16.8199V22.6159H9.89755V16.1458C9.89755 14.921 10.2067 13.7673 10.7504 12.7577H6.81417Z" fill="#316FF6"/>
<path d="M33.3211 2.3562C30.8017 2.3562 28.752 4.40599 28.752 6.92537C28.752 7.7156 28.9537 8.45959 29.3083 9.10866C30.9259 9.42463 32.3497 10.286 33.3815 11.493C35.8731 11.4604 37.8903 9.42454 37.8903 6.92537C37.8903 4.4059 35.8406 2.3562 33.3211 2.3562Z" fill="#316FF6"/>
<path d="M38.1862 12.7577H34.25C34.7936 13.7673 35.1028 14.921 35.1028 16.1458V22.6158H42.2484V16.8198C42.2484 14.5799 40.4261 12.7577 38.1862 12.7577Z" fill="#316FF6"/>
</g>
<defs>
<clipPath id="clip0_1243_513">
<rect width="45" height="45" fill="white"/>
</clipPath>
</defs>
</svg>
