<svg width="75" height="75" viewBox="0 0 75 75" fill="none" xmlns="http://www.w3.org/2000/svg">
<rect width="75" height="75" rx="22" fill="#C4DEFF"/>
<path fill-rule="evenodd" clip-rule="evenodd" d="M54.6667 27.5833C51.2148 27.5833 48.4167 24.7851 48.4167 21.3333C48.4167 20.2086 48.7137 19.1532 49.2337 18.2414C48.6225 18.1148 47.9787 18.0189 47.299 17.9453C44.9196 17.6875 41.9204 17.6875 38.0942 17.6875H37.9058C34.0796 17.6875 31.0804 17.6875 28.701 17.9453C26.2728 18.2084 24.3053 18.7548 22.6255 19.9753C21.6085 20.7142 20.7142 21.6085 19.9753 22.6255C18.7548 24.3053 18.2084 26.2728 17.9453 28.701C17.6875 31.0804 17.6875 34.0796 17.6875 37.9056V38.0942C17.6875 41.9204 17.6875 44.9196 17.9453 47.299C18.2084 49.7273 18.7548 51.6946 19.9753 53.3746C20.7142 54.3915 21.6085 55.2858 22.6255 56.0246C24.3053 57.2452 26.2728 57.7917 28.701 58.0548C31.0804 58.3125 34.0796 58.3125 37.9056 58.3125H38.0944C41.9204 58.3125 44.9196 58.3125 47.299 58.0548C49.7273 57.7917 51.6946 57.2452 53.3746 56.0246C54.3915 55.2858 55.2858 54.3915 56.0246 53.3746C57.2452 51.6946 57.7917 49.7273 58.0548 47.299C58.3125 44.9196 58.3125 41.9204 58.3125 38.0944V37.9056C58.3125 34.0796 58.3125 31.0804 58.0548 28.701C57.981 28.0212 57.8852 27.3776 57.7585 26.7662C56.8469 27.2862 55.7915 27.5833 54.6667 27.5833ZM49.1048 30.6448C49.8796 31.0248 50.1996 31.961 49.8196 32.7357L46.7771 38.9379C44.6467 43.2808 38.3854 43.0688 36.5538 38.5917C35.7431 36.6098 32.9715 36.5158 32.0285 38.4383L28.9861 44.6404C28.6061 45.4152 27.67 45.7352 26.8952 45.3552C26.1205 44.9752 25.8005 44.039 26.1805 43.2642L29.2229 37.0621C31.3532 32.7191 37.6146 32.9312 39.4462 37.4083C40.2569 39.3902 43.0285 39.4842 43.9715 37.5617L47.0137 31.3595C47.394 30.5847 48.33 30.2647 49.1048 30.6448Z" fill="#316FF6"/>
<path d="M50.5 21.3333C50.5 23.6345 52.3654 25.5 54.6667 25.5C56.9679 25.5 58.8333 23.6345 58.8333 21.3333C58.8333 19.0321 56.9679 17.1666 54.6667 17.1666C52.3654 17.1666 50.5 19.0321 50.5 21.3333Z" fill="#316FF6"/>
</svg>
