<svg width="29" height="29" viewBox="0 0 29 29" fill="none" xmlns="http://www.w3.org/2000/svg">
<g clip-path="url(#clip0_3212_697)">
<path d="M6.57313 23.627C5.43487 23.627 4.50884 22.7011 4.50884 21.5628C4.50884 20.4245 5.43487 19.4986 6.57313 19.4986H14.4732C16.5219 19.4986 18.1886 17.8318 18.1886 15.7831C18.1886 13.7344 16.5219 12.0677 14.4732 12.0677H8.90178V13.7189H14.4732C15.6114 13.7189 16.5375 14.6449 16.5375 15.7832C16.5375 16.9214 15.6114 17.8474 14.4732 17.8474H6.57313C4.52441 17.8474 2.85767 19.5141 2.85767 21.5628C2.85767 23.6115 4.52441 25.2782 6.57313 25.2782H19.998V23.627H6.57313Z" fill="#316FF6"/>
<path d="M8.0087 4.21412C6.25889 2.46431 3.42196 2.46431 1.67221 4.21412C-0.0775872 5.96392 -0.0775872 8.80085 1.67221 10.5506L4.84048 13.7189L8.0087 10.5506C9.7585 8.8008 9.7585 5.96386 8.0087 4.21412ZM4.81395 8.73811C4.04511 8.73811 3.42185 8.11484 3.42185 7.346C3.42185 6.57716 4.04511 5.95385 4.81395 5.95385C5.5828 5.95385 6.20611 6.57711 6.20611 7.346C6.20611 8.11484 5.58285 8.73811 4.81395 8.73811Z" fill="#316FF6"/>
<path d="M27.2274 15.7735C25.4776 14.0237 22.6407 14.0237 20.891 15.7735C19.1412 17.5233 19.1412 20.3602 20.891 22.11L24.0592 25.2782L27.2275 22.11C28.9772 20.3602 28.9772 17.5233 27.2274 15.7735ZM24.0327 20.2975C23.2639 20.2975 22.6406 19.6743 22.6406 18.9054C22.6406 18.1366 23.2639 17.5133 24.0327 17.5133C24.8015 17.5133 25.4249 18.1365 25.4249 18.9054C25.4249 19.6743 24.8016 20.2975 24.0327 20.2975Z" fill="#316FF6"/>
</g>
<defs>
<clipPath id="clip0_3212_697">
<rect width="28.18" height="28.18" fill="white" transform="translate(0.359863)"/>
</clipPath>
</defs>
</svg>
