<svg width="24" height="24" viewBox="0 0 24 24" fill="none" xmlns="http://www.w3.org/2000/svg">
<path fill-rule="evenodd" clip-rule="evenodd" d="M21.2401 13.4463C20.9897 13.3162 20.7797 13.1201 20.6329 12.8792C20.486 12.6383 20.4078 12.3618 20.4067 12.0797C20.3793 11.7713 20.4438 11.4618 20.5921 11.1901C20.7404 10.9184 20.9659 10.6967 21.2401 10.553C21.6633 10.3028 21.9707 9.89564 22.0956 9.42006C22.2204 8.94448 22.1525 8.43885 21.9067 8.01301L20.3934 5.33301C20.1445 4.9138 19.741 4.60907 19.2697 4.48439C18.7984 4.3597 18.297 4.42504 17.8734 4.66634C17.6288 4.81326 17.3488 4.89087 17.0634 4.89087C16.778 4.89087 16.498 4.81326 16.2534 4.66634C15.9773 4.53482 15.7471 4.32343 15.5926 4.05954C15.4381 3.79566 15.3664 3.49146 15.3867 3.18634C15.3832 2.69358 15.185 2.22221 14.8353 1.87502C14.4856 1.52783 14.0128 1.333 13.5201 1.33301H10.4801C9.98731 1.33476 9.51523 1.53129 9.16679 1.87973C8.81836 2.22817 8.62183 2.70025 8.62007 3.19301C8.62886 3.50543 8.54818 3.81386 8.38755 4.08197C8.22692 4.35008 7.99303 4.56671 7.7134 4.70634C7.47382 4.84061 7.20246 4.90776 6.92791 4.90072C6.65336 4.89368 6.38579 4.81271 6.1534 4.66634C5.94302 4.54054 5.70963 4.45805 5.46692 4.42371C5.22422 4.38936 4.9771 4.40386 4.74007 4.46634C4.50358 4.52747 4.28188 4.63575 4.08828 4.78468C3.89467 4.93361 3.73315 5.12011 3.6134 5.33301L2.08007 7.99967C1.83427 8.42552 1.76641 8.93114 1.89124 9.40673C2.01606 9.88231 2.32349 10.2894 2.74674 10.5397C2.9917 10.6677 3.19808 10.8587 3.34457 11.0931C3.49106 11.3275 3.57235 11.5967 3.58007 11.873C3.60753 12.1813 3.54303 12.4909 3.39472 12.7626C3.24641 13.0343 3.02093 13.256 2.74674 13.3997C2.32349 13.6499 2.01606 14.057 1.89124 14.5326C1.76641 15.0082 1.83427 15.5138 2.08007 15.9397L3.6134 18.6063C3.7268 18.8304 3.8855 19.0285 4.07944 19.188C4.27339 19.3475 4.49835 19.465 4.74007 19.533C4.98761 19.6002 5.24612 19.6172 5.50031 19.5828C5.75451 19.5485 5.99925 19.4635 6.22007 19.333C6.47845 19.1881 6.77234 19.1188 7.06821 19.133C7.36409 19.1471 7.65003 19.2442 7.8934 19.413C8.11545 19.5496 8.29881 19.7408 8.42601 19.9684C8.55322 20.196 8.62002 20.4523 8.62007 20.713C8.6072 20.9747 8.64918 21.2362 8.74332 21.4808C8.83747 21.7253 8.98169 21.9475 9.16674 22.133C9.34053 22.3095 9.54828 22.4489 9.77744 22.5428C10.0066 22.6368 10.2524 22.6833 10.5001 22.6797H13.5401C14.0328 22.6779 14.5049 22.4814 14.8533 22.133C15.2018 21.7845 15.3983 21.3124 15.4001 20.8197C15.3884 20.5352 15.4542 20.2528 15.5904 20.0027C15.7266 19.7527 15.9281 19.5442 16.1734 19.3997C16.4137 19.2226 16.7016 19.1216 16.9998 19.1097C17.2981 19.0978 17.5931 19.1756 17.8467 19.333C18.0577 19.4566 18.2909 19.5375 18.5331 19.5709C18.7753 19.6043 19.0218 19.5896 19.2583 19.5277C19.4948 19.4658 19.7168 19.3578 19.9116 19.21C20.1064 19.0622 20.2701 18.8775 20.3934 18.6663L21.9201 15.9997C22.0433 15.7874 22.1235 15.553 22.156 15.3097C22.1885 15.0664 22.1727 14.8192 22.1096 14.582C22.0464 14.3448 21.9371 14.1225 21.7879 13.9276C21.6387 13.7327 21.4525 13.5692 21.2401 13.4463ZM21.0401 15.4463L19.5134 18.113C19.3984 18.3073 19.2116 18.4486 18.9934 18.5063C18.8824 18.5394 18.7657 18.5488 18.6509 18.5338C18.536 18.5189 18.4256 18.48 18.3267 18.4197C17.9194 18.1664 17.4481 18.0349 16.9685 18.0408C16.4889 18.0467 16.021 18.1898 15.6201 18.453C15.2204 18.6884 14.8909 19.0264 14.6658 19.4319C14.4407 19.8375 14.3283 20.296 14.3401 20.7597C14.3406 20.87 14.3191 20.9794 14.2767 21.0813C14.2344 21.1832 14.172 21.2756 14.0934 21.353C14.0151 21.4328 13.9217 21.4962 13.8187 21.5397C13.7158 21.5832 13.6052 21.6058 13.4934 21.6063H10.4801C10.3683 21.6058 10.2577 21.5832 10.1547 21.5397C10.0518 21.4962 9.95841 21.4328 9.88007 21.353C9.79045 21.2613 9.72194 21.1512 9.67933 21.0303C9.63672 20.9094 9.62105 20.7806 9.6334 20.653C9.63844 20.1923 9.51674 19.739 9.28159 19.3428C9.04644 18.9466 8.7069 18.6226 8.30007 18.4063C7.92354 18.1808 7.49428 18.0584 7.05543 18.0514C6.61658 18.0443 6.18362 18.153 5.80007 18.3663C5.688 18.4395 5.56247 18.4895 5.43084 18.5135C5.2992 18.5376 5.16409 18.5351 5.0334 18.5063C4.81795 18.4464 4.63402 18.3054 4.52007 18.113L2.9934 15.4463C2.88188 15.2526 2.85154 15.0225 2.90899 14.8065C2.96644 14.5904 3.10703 14.4058 3.30007 14.293C3.72515 14.0601 4.07582 13.7119 4.31171 13.2885C4.5476 12.8651 4.65911 12.3837 4.6334 11.8997C4.63647 11.4376 4.51408 10.9833 4.27926 10.5853C4.04445 10.1873 3.70603 9.86047 3.30007 9.63968C3.10703 9.52688 2.96644 9.3423 2.90899 9.12622C2.85154 8.91015 2.88188 8.68012 2.9934 8.48634L4.52007 5.81967C4.63402 5.62724 4.81795 5.48631 5.0334 5.42634C5.14451 5.3941 5.26107 5.38516 5.37579 5.40007C5.4905 5.41499 5.60091 5.45343 5.70007 5.51301C6.10738 5.7663 6.57867 5.89776 7.05827 5.89185C7.53788 5.88594 8.00579 5.74292 8.40674 5.47967C8.80646 5.24433 9.13594 4.90633 9.36101 4.50073C9.58608 4.09514 9.69854 3.63672 9.68674 3.17301C9.68617 3.06265 9.7077 2.9533 9.75006 2.85139C9.79243 2.74949 9.85477 2.6571 9.9334 2.57967C10.0117 2.49993 10.1051 2.43649 10.2081 2.39301C10.3111 2.34953 10.4216 2.32687 10.5334 2.32634H13.5734C13.6852 2.32687 13.7958 2.34953 13.8987 2.39301C14.0017 2.43649 14.0951 2.49993 14.1734 2.57967C14.252 2.6571 14.3144 2.74949 14.3567 2.85139C14.3991 2.9533 14.4206 3.06265 14.4201 3.17301C14.4021 3.63791 14.5111 4.09893 14.7354 4.50652C14.9598 4.91411 15.291 5.25285 15.6934 5.48634C16.1043 5.72915 16.5728 5.85724 17.0501 5.85724C17.5273 5.85724 17.9959 5.72915 18.4067 5.48634C18.5056 5.426 18.616 5.38711 18.7309 5.37218C18.8457 5.35725 18.9624 5.36662 19.0734 5.39967C19.2916 5.45745 19.4784 5.59873 19.5934 5.79301L21.1201 8.45967C21.2316 8.65346 21.2619 8.88348 21.2045 9.09956C21.147 9.31563 21.0064 9.50021 20.8134 9.61301C20.3883 9.84588 20.0376 10.1941 19.8018 10.6175C19.5659 11.0409 19.4544 11.5223 19.4801 12.0063C19.477 12.4684 19.5994 12.9227 19.8342 13.3207C20.069 13.7187 20.4074 14.0456 20.8134 14.2663C20.9108 14.3287 20.9944 14.4103 21.0591 14.5062C21.1237 14.6021 21.168 14.7103 21.1892 14.824C21.2105 14.9377 21.2082 15.0545 21.1825 15.1673C21.1569 15.28 21.1084 15.3864 21.0401 15.4797V15.4463Z" fill="black"/>
<path fill-rule="evenodd" clip-rule="evenodd" d="M12.0001 12.5063C12.6378 12.509 13.262 12.3222 13.7934 11.9697C14.3248 11.6172 14.7396 11.1148 14.9851 10.5263C15.2307 9.93775 15.296 9.28956 15.1727 8.66388C15.0494 8.03821 14.7432 7.46322 14.2927 7.01183C13.8422 6.56043 13.2679 6.25296 12.6425 6.12838C12.0171 6.00381 11.3687 6.06774 10.7797 6.31209C10.1907 6.55643 9.68743 6.97017 9.33383 7.50086C8.98022 8.03155 8.79215 8.65528 8.79346 9.29299C8.79259 9.71465 8.87488 10.1323 9.03564 10.5222C9.1964 10.912 9.43246 11.2663 9.73031 11.5648C10.0282 11.8632 10.382 12.1 10.7715 12.2616C11.1609 12.4232 11.5785 12.5063 12.0001 12.5063ZM12.0001 7.08632C12.4371 7.08368 12.8651 7.21085 13.2297 7.45171C13.5943 7.69257 13.8792 8.03628 14.0483 8.43925C14.2174 8.84223 14.263 9.28633 14.1793 9.71525C14.0957 10.1442 13.8866 10.5386 13.5785 10.8486C13.2705 11.1585 12.8773 11.37 12.4489 11.4562C12.0205 11.5425 11.5761 11.4995 11.1721 11.3329C10.7681 11.1663 10.4227 10.8835 10.1796 10.5203C9.93657 10.1572 9.80681 9.72999 9.8068 9.29299C9.80592 9.00408 9.86196 8.71782 9.97171 8.45057C10.0815 8.18332 10.2428 7.9403 10.4464 7.73539C10.6501 7.53049 10.8922 7.3677 11.1587 7.25633C11.4253 7.14496 11.7112 7.08719 12.0001 7.08632Z" fill="black"/>
<path fill-rule="evenodd" clip-rule="evenodd" d="M7.43331 16.0397C7.43005 16.022 7.43005 16.004 7.43331 15.9863C7.42848 16.0038 7.42848 16.0222 7.43331 16.0397Z" fill="black"/>
<path fill-rule="evenodd" clip-rule="evenodd" d="M14.0336 13.5263H10.0003C9.32946 13.5263 8.68571 13.7909 8.20888 14.2628C7.73204 14.7346 7.46064 15.3756 7.45361 16.0463C7.45361 16.1129 7.46672 16.1788 7.49218 16.2402C7.51764 16.3017 7.55496 16.3576 7.60201 16.4046C7.64906 16.4517 7.70492 16.489 7.76639 16.5144C7.82786 16.5399 7.89374 16.553 7.96028 16.553C8.09257 16.5465 8.21772 16.4911 8.31137 16.3974C8.40503 16.3038 8.46048 16.1786 8.46695 16.0463C8.47394 15.6443 8.63857 15.2611 8.92537 14.9793C9.21217 14.6975 9.59819 14.5396 10.0003 14.5397H14.0536C14.2538 14.5397 14.452 14.5792 14.6368 14.656C14.8217 14.7328 14.9895 14.8454 15.1308 14.9872C15.272 15.1291 15.3838 15.2974 15.4598 15.4826C15.5358 15.6678 15.5745 15.8662 15.5736 16.0663C15.5735 16.1313 15.5878 16.1955 15.6155 16.2543C15.6432 16.3131 15.6835 16.365 15.7336 16.4063C15.8176 16.4895 15.929 16.5393 16.0469 16.5463H16.1003C16.23 16.5395 16.3521 16.4831 16.4414 16.3888C16.5308 16.2945 16.5805 16.1696 16.5803 16.0397C16.575 15.3689 16.3039 14.7277 15.8265 14.2565C15.3491 13.7854 14.7043 13.5228 14.0336 13.5263Z" fill="black"/>
</svg>
