<svg width="24" height="24" viewBox="0 0 24 24" fill="none" xmlns="http://www.w3.org/2000/svg">
<path fill-rule="evenodd" clip-rule="evenodd" d="M7.57843 16.725C7.73593 16.3635 7.96168 16.0305 8.24593 15.7463C8.84368 15.1485 9.65443 14.8125 10.4997 14.8125H13.4997C14.3449 14.8125 15.1557 15.1485 15.7534 15.7463C16.0377 16.0305 16.2634 16.3635 16.4209 16.725C16.5454 17.0092 16.8769 17.1398 17.1619 17.0153C17.4462 16.8915 17.5767 16.5593 17.4522 16.275C17.2384 15.7853 16.9339 15.3353 16.5492 14.9505C15.7407 14.142 14.6434 13.6875 13.4997 13.6875C12.5247 13.6875 11.4747 13.6875 10.4997 13.6875C9.35593 13.6875 8.25868 14.142 7.45018 14.9505C7.06543 15.3353 6.76093 15.7853 6.54718 16.275C6.42268 16.5593 6.55318 16.8915 6.83743 17.0153C7.12243 17.1398 7.45393 17.0092 7.57843 16.725Z" fill="black"/>
<path fill-rule="evenodd" clip-rule="evenodd" d="M12 6.1875C9.6195 6.1875 7.6875 8.1195 7.6875 10.5C7.6875 12.8805 9.6195 14.8125 12 14.8125C14.3805 14.8125 16.3125 12.8805 16.3125 10.5C16.3125 8.1195 14.3805 6.1875 12 6.1875ZM12 7.3125C13.7595 7.3125 15.1875 8.7405 15.1875 10.5C15.1875 12.2595 13.7595 13.6875 12 13.6875C10.2405 13.6875 8.8125 12.2595 8.8125 10.5C8.8125 8.7405 10.2405 7.3125 12 7.3125Z" fill="black"/>
<path fill-rule="evenodd" clip-rule="evenodd" d="M20.4373 12C20.4373 16.6568 16.6565 20.4375 11.9998 20.4375C8.32854 20.4375 5.20254 18.0885 4.04304 14.8125C3.93954 14.52 3.61779 14.3662 3.32529 14.4697C3.03204 14.5732 2.87904 14.895 2.98254 15.1875C4.29654 18.9 7.83954 21.5625 11.9998 21.5625C17.2775 21.5625 21.5623 17.2778 21.5623 12C21.5623 11.6895 21.3103 11.4375 20.9998 11.4375C20.6893 11.4375 20.4373 11.6895 20.4373 12Z" fill="black"/>
<path fill-rule="evenodd" clip-rule="evenodd" d="M3.5625 12C3.5625 7.34325 7.34325 3.5625 12 3.5625C15.6713 3.5625 18.7972 5.9115 19.9567 9.1875C20.0602 9.48 20.382 9.63375 20.6745 9.53025C20.9678 9.42675 21.1208 9.105 21.0173 8.8125C19.7033 5.1 16.1602 2.4375 12 2.4375C6.72225 2.4375 2.4375 6.72225 2.4375 12C2.4375 12.3105 2.6895 12.5625 3 12.5625C3.3105 12.5625 3.5625 12.3105 3.5625 12Z" fill="black"/>
<path fill-rule="evenodd" clip-rule="evenodd" d="M1.10231 10.8975L2.60231 12.3975C2.82206 12.6172 3.17756 12.6172 3.39731 12.3975L4.89731 10.8975C5.11706 10.6785 5.11706 10.3215 4.89731 10.1025C4.67831 9.88275 4.32131 9.88275 4.10231 10.1025L2.99981 11.2042L1.89731 10.1025C1.67831 9.88275 1.32131 9.88275 1.10231 10.1025C0.882563 10.3215 0.882563 10.6785 1.10231 10.8975Z" fill="black"/>
<path fill-rule="evenodd" clip-rule="evenodd" d="M19.8973 13.8975L20.9998 12.7957L22.1023 13.8975C22.3213 14.1172 22.6783 14.1172 22.8973 13.8975C23.1171 13.6785 23.1171 13.3215 22.8973 13.1025L21.3973 11.6025C21.1776 11.3827 20.8221 11.3827 20.6023 11.6025L19.1023 13.1025C18.8826 13.3215 18.8826 13.6785 19.1023 13.8975C19.3213 14.1172 19.6783 14.1172 19.8973 13.8975Z" fill="black"/>
</svg>
