<svg width="24" height="24" viewBox="0 0 24 24" fill="none" xmlns="http://www.w3.org/2000/svg">
<path d="M19.9856 19.3728C19.6455 18.8389 19.198 18.2742 18.6133 17.7458C16.7894 19.1742 14.4926 20.0268 12 20.0268C9.50744 20.0268 7.21066 19.1742 5.38671 17.7458C4.80213 18.2742 4.35457 18.8389 4.01449 19.3728C2.80057 21.2784 2.67771 23.1763 2.67312 23.2562C2.66191 23.4495 2.73082 23.6387 2.86366 23.7795C2.99651 23.9203 3.18148 24.0001 3.37502 24.0001H20.625C20.8186 24.0001 21.0035 23.9203 21.1364 23.7795C21.2692 23.6387 21.3382 23.4494 21.3269 23.2562C21.3223 23.1763 21.1995 21.2784 19.9856 19.3728Z" fill="white"/>
<path d="M12 12.3728C13.693 12.3728 15.0703 10.999 15.0703 9.31029C15.0703 7.62162 13.693 6.2478 12 6.2478C10.307 6.2478 8.92969 7.62166 8.92969 9.31029C8.92969 10.9989 10.307 12.3728 12 12.3728ZM12 8.60716C12.3942 8.60716 12.6861 8.92933 12.7031 9.31029C12.7201 9.69002 12.3678 10.0134 12 10.0134C11.6058 10.0134 11.3139 9.69124 11.2969 9.31029C11.2799 8.93055 11.6322 8.60716 12 8.60716Z" fill="white"/>
<path d="M12 18.6205C17.1435 18.6205 21.3281 14.444 21.3281 9.31027C21.3281 4.17656 17.1435 0 12 0C6.85645 0 2.67188 4.17656 2.67188 9.31027C2.67188 14.444 6.85645 18.6205 12 18.6205ZM12 4.84153C14.4684 4.84153 16.4766 6.84623 16.4766 9.31027C16.4766 11.7743 14.4684 13.779 12 13.779C9.53161 13.779 7.52344 11.7743 7.52344 9.31027C7.52344 6.84619 9.53161 4.84153 12 4.84153Z" fill="white"/>
</svg>
