<svg width="29" height="29" viewBox="0 0 29 29" fill="none" xmlns="http://www.w3.org/2000/svg">
<g clip-path="url(#clip0_2490_680)">
<path d="M23.4663 22.7467C23.067 22.1199 22.5416 21.4568 21.8551 20.8364C19.7135 22.5135 17.0167 23.5147 14.09 23.5147C11.1633 23.5147 8.46649 22.5135 6.32487 20.8364C5.63847 21.4568 5.11296 22.1199 4.71365 22.7467C3.28831 24.9842 3.14405 27.2127 3.13865 27.3065C3.1255 27.5334 3.20641 27.7557 3.36239 27.9209C3.51837 28.0862 3.73555 28.1799 3.96281 28.1799H24.2172C24.4444 28.1799 24.6616 28.0862 24.8176 27.9209C24.9736 27.7557 25.0545 27.5334 25.0413 27.3065C25.0359 27.2127 24.8917 24.9842 23.4663 22.7467Z" fill="#316FF6"/>
<path d="M14.09 14.5277C16.0778 14.5277 17.695 12.9146 17.695 10.9318C17.695 8.94902 16.0778 7.33594 14.09 7.33594C12.1021 7.33594 10.4849 8.94908 10.4849 10.9318C10.4849 12.9145 12.1021 14.5277 14.09 14.5277ZM14.09 10.1062C14.5528 10.1062 14.8955 10.4845 14.9156 10.9318C14.9355 11.3777 14.5218 11.7574 14.09 11.7574C13.6272 11.7574 13.2844 11.3791 13.2644 10.9318C13.2444 10.4859 13.6581 10.1062 14.09 10.1062Z" fill="#316FF6"/>
<path d="M14.09 21.8636C20.1294 21.8636 25.0428 16.9596 25.0428 10.9318C25.0428 4.90398 20.1294 0 14.09 0C8.0506 0 3.13721 4.90398 3.13721 10.9318C3.13721 16.9596 8.0506 21.8636 14.09 21.8636ZM14.09 5.68476C16.9883 5.68476 19.3462 8.03862 19.3462 10.9318C19.3462 13.825 16.9883 16.1788 14.09 16.1788C11.1917 16.1788 8.83375 13.825 8.83375 10.9318C8.83375 8.03857 11.1917 5.68476 14.09 5.68476Z" fill="#316FF6"/>
</g>
<defs>
<clipPath id="clip0_2490_680">
<rect width="28.18" height="28.18" fill="white"/>
</clipPath>
</defs>
</svg>
