<svg width="24" height="24" viewBox="0 0 24 24" fill="none" xmlns="http://www.w3.org/2000/svg">
<g clip-path="url(#clip0_69_798)">
<path d="M6.75 16.5H7.5V17.25H6.75V16.5Z" fill="black"/>
<path d="M16.2337 0.483733C15.1725 1.54873 13.83 2.24623 12.3487 2.49373L11.9362 2.56123C11.7412 2.59498 11.6025 2.77498 11.625 2.97373C11.925 5.58748 13.2712 7.84123 15.5212 9.49123L16.275 10.0462C16.3425 10.095 16.4175 10.1175 16.4962 10.1175C16.575 10.1175 16.6574 10.0912 16.7249 10.0387L17.6662 9.31123C19.7887 7.66873 21.0675 5.47873 21.3675 2.97748V2.96998C21.3899 2.77123 21.255 2.59123 21.0562 2.55748L20.6437 2.48998C19.1625 2.24248 17.8199 1.54498 16.7587 0.479983C16.6162 0.337483 16.3687 0.337483 16.2262 0.479983L16.2337 0.483733ZM20.5762 3.24373C20.2275 5.39623 19.0725 7.28623 17.2125 8.72248L16.4924 9.27748L15.9637 8.89123C13.9912 7.43998 12.7687 5.49373 12.4162 3.24373L12.4687 3.23623C13.9837 2.98123 15.3675 2.30623 16.4962 1.27123C17.6212 2.30623 19.0087 2.98123 20.5237 3.23623L20.5762 3.24373Z" fill="black"/>
<path d="M15.3598 5.12999L14.8311 5.65874L15.7573 6.58499C15.8323 6.65999 15.9261 6.69374 16.0236 6.69374C16.1211 6.69374 16.2148 6.65624 16.2898 6.58499L18.5436 4.33124L18.0148 3.80249L16.0273 5.78999L15.3636 5.12624L15.3598 5.12999Z" fill="black"/>
<path d="M22.875 18.375H21.75V13.125C21.75 12.9187 21.5812 12.75 21.375 12.75H17.25C17.0438 12.75 16.875 12.9187 16.875 13.125V14.625H14.25C14.0437 14.625 13.875 14.7937 13.875 15V18.375H12V15.375C12 13.7513 10.845 12.39 9.315 12.0712C9.70125 11.5875 9.9375 10.9762 9.9375 10.3125C9.9375 8.76 8.6775 7.5 7.125 7.5C5.5725 7.5 4.3125 8.76 4.3125 10.3125C4.3125 10.9762 4.545 11.5912 4.935 12.0712C3.405 12.39 2.25 13.7513 2.25 15.375V18.375H1.125C0.7125 18.375 0.375 18.7125 0.375 19.125V20.625C0.375 21.0375 0.7125 21.375 1.125 21.375H2.25V23.625H3V21.375H21V23.625H21.75V21.375H22.875C23.2875 21.375 23.625 21.0375 23.625 20.625V19.125C23.625 18.7125 23.2875 18.375 22.875 18.375ZM17.625 13.5H21V14.625H19.5V15.375H21V16.5H19.5V17.25H21V18.375H18.75V15C18.75 14.7937 18.5812 14.625 18.375 14.625H17.625V13.5ZM14.625 15.375H18V16.5H14.625V15.375ZM14.625 17.25H18V18.375H14.625V17.25ZM7.125 8.25C8.26125 8.25 9.1875 9.17625 9.1875 10.3125C9.1875 11.4488 8.26125 12.375 7.125 12.375C5.98875 12.375 5.0625 11.4488 5.0625 10.3125C5.0625 9.17625 5.98875 8.25 7.125 8.25ZM3 15.375C3 13.9275 4.1775 12.75 5.625 12.75H5.72625C6.13875 12.9862 6.615 13.125 7.125 13.125C7.635 13.125 8.11125 12.9862 8.52375 12.75H8.625C10.0725 12.75 11.25 13.9275 11.25 15.375V18.375H9.4575L10.0275 15.5212C10.0725 15.3 10.0162 15.0712 9.87375 14.8987C9.73125 14.7225 9.5175 14.625 9.2925 14.625H4.9575C4.7325 14.625 4.51875 14.7262 4.37625 14.8987C4.23375 15.0712 4.1775 15.3 4.2225 15.5212L4.7925 18.375H3V15.375ZM9.2925 15.375L8.6925 18.375H5.5575L4.9575 15.375H9.2925ZM1.125 20.625V19.125H22.875V20.625H1.125Z" fill="black"/>
</g>
<defs>
<clipPath id="clip0_69_798">
<rect width="24" height="24" fill="white"/>
</clipPath>
</defs>
</svg>
